<?xml version="1.0" encoding="UTF-8"?>
<svg version="1.1" xmlns="http://www.w3.org/2000/svg" width="2134" height="2134">
<path d="M0 0 C1.27638336 -0.0025882 2.55276672 -0.00517639 3.86782837 -0.00784302 C7.5291016 -0.01369522 11.1902886 -0.01211437 14.8515625 -0.0078125 C15.96908401 -0.00979141 17.08660553 -0.01177032 18.23799133 -0.0138092 C19.26627548 -0.01070236 20.29455963 -0.00759552 21.35400391 -0.00439453 C22.25470612 -0.00359894 23.15540833 -0.00280334 24.08340454 -0.00198364 C26.375 0.125 26.375 0.125 29.375 1.125 C29.12793366 14.0685754 28.86548173 27.01167489 28.5745697 39.9543457 C28.45436137 45.33599213 28.344375 50.71738273 28.26045227 56.09971619 C28.20911128 59.15014774 28.13441231 62.19999434 28.0625 65.25 C28.05226807 66.29969971 28.04203613 67.34939941 28.03149414 68.4309082 C27.81342253 76.08929847 25.49323113 80.36272305 19.9375 85.6875 C19.33035156 86.27660156 18.72320312 86.86570312 18.09765625 87.47265625 C17.52917969 88.01792969 16.96070313 88.56320312 16.375 89.125 C15.55 89.95 14.725 90.775 13.875 91.625 C12.53074809 92.96925191 11.18181891 94.30925256 9.80615234 95.62133789 C5.50101557 99.78533266 1.90869462 104.14514239 -1.5 109.0625 C-2.2719873 110.17057007 -2.2719873 110.17057007 -3.05957031 111.30102539 C-15.1578247 128.93210965 -24.64878098 148.27502804 -29.625 169.125 C-29.78871094 169.77791016 -29.95242188 170.43082031 -30.12109375 171.10351562 C-35.51507139 193.63786021 -35.37539673 222.68656963 -29.625 245.125 C-29.42632324 245.91890137 -29.22764648 246.71280273 -29.02294922 247.53076172 C-17.69350509 291.46524281 9.39601869 326.51510061 48.17944336 349.68798828 C85.59212652 371.31213418 131.45013276 375.50768772 173.04833984 364.77294922 C198.44091503 357.7013968 220.43367641 344.32177471 239.375 326.125 C239.87064453 325.6604541 240.36628906 325.1959082 240.87695312 324.71728516 C270.34065046 297.03465579 290.14081779 254.5095429 291.6484375 214.015625 C292.2900294 185.45203867 287.20274835 158.73311813 274.375 133.125 C274.03629883 132.44630859 273.69759766 131.76761719 273.34863281 131.06835938 C264.06090953 112.81044182 250.76654041 95.96234133 235.16015625 82.6953125 C233.34261211 81.09650999 231.64904202 79.45972347 230 77.6875 C229.53851562 77.19378906 229.07703125 76.70007813 228.6015625 76.19140625 C215.82399504 54.66486744 225.98992034 26.15517812 226.375 1.125 C523.045 1.125 819.715 1.125 1125.375 1.125 C1125.375 75.40806909 1125.375 75.40806909 1120.26538086 81.73876953 C1119.46495361 82.48755371 1118.66452637 83.23633789 1117.83984375 84.0078125 C1116.95272705 84.85762695 1116.06561035 85.70744141 1115.15161133 86.58300781 C1114.21470459 87.46311523 1113.27779785 88.34322266 1112.3125 89.25 C1104.29929646 96.98417884 1097.20709526 104.59277595 1091.375 114.125 C1090.9625 114.78419434 1090.55 115.44338867 1090.125 116.12255859 C1064.87784041 156.67017316 1057.84385969 201.8384126 1068.265625 248.5390625 C1074.21707268 273.68237371 1086.62886079 297.21527521 1104.3828125 316.01171875 C1106.20657398 317.94633632 1107.87917695 319.94400095 1109.5625 322 C1125.45832703 340.12489702 1147.90103523 353.08690469 1170.25 361.4375 C1171.0737915 361.75090332 1171.89758301 362.06430664 1172.74633789 362.38720703 C1188.27448186 367.93223182 1203.57758987 369.77119758 1219.99072266 369.59155273 C1222.87330773 369.56251705 1225.75404832 369.57102141 1228.63671875 369.58398438 C1244.13185892 369.5671447 1259.52117846 368.17024065 1274.375 363.5 C1275.19274902 363.24621582 1276.01049805 362.99243164 1276.85302734 362.73095703 C1297.57300542 356.01773183 1316.07338372 344.47536221 1332.375 330.125 C1333.86773438 328.83142578 1333.86773438 328.83142578 1335.390625 327.51171875 C1358.44281086 307.22057747 1373.45386376 279.54833286 1381.375 250.125 C1381.69082031 248.98546875 1382.00664063 247.8459375 1382.33203125 246.671875 C1386.83936408 228.28728591 1387.04041001 208.88189049 1385.375 190.125 C1385.25729248 188.76012451 1385.25729248 188.76012451 1385.13720703 187.36767578 C1381.82642882 151.86286518 1366.0919736 119.21375634 1340.640625 94.48828125 C1340.01381836 93.87484863 1339.38701172 93.26141602 1338.74121094 92.62939453 C1337.53645645 91.45647683 1336.32157303 90.29383298 1335.09472656 89.14404297 C1328.17778714 82.45713479 1324.70571226 74.46786517 1324.20294189 64.82502747 C1324.14372268 60.77753197 1324.14975489 56.73508415 1324.1796875 52.6875 C1324.18342353 51.19677928 1324.18626771 49.70605609 1324.18826294 48.21533203 C1324.19585297 44.31582712 1324.21546096 40.41647419 1324.2376709 36.51702881 C1324.25822978 32.52830053 1324.26728601 28.53954739 1324.27734375 24.55078125 C1324.29871183 16.74211866 1324.33279094 8.93358073 1324.375 1.125 C1332.59582374 0.22236522 1340.73350665 -0.04813431 1349 -0.078125 C1350.288992 -0.08509399 1351.57798401 -0.09206299 1352.90603638 -0.09924316 C1357.06236161 -0.11859527 1361.21863466 -0.12342081 1365.375 -0.125 C1366.08111168 -0.12558914 1366.78722336 -0.12617828 1367.51473236 -0.12678528 C1389.57773085 -0.13979796 1411.47634496 0.155417 1433.375 3.125 C1434.38320801 3.25890137 1435.39141602 3.39280273 1436.43017578 3.53076172 C1472.07237278 8.55980439 1506.65406541 25.43136134 1534.375 48.125 C1535.39464844 48.94097656 1536.41429687 49.75695312 1537.46484375 50.59765625 C1551.69691101 62.15886173 1564.61976891 75.26748594 1575.375 90.125 C1576.52162109 91.68927734 1576.52162109 91.68927734 1577.69140625 93.28515625 C1600.91555404 125.8797428 1615.10622841 162.0645762 1620.0625 201.6875 C1620.18214111 202.64325928 1620.30178223 203.59901855 1620.42504883 204.58374023 C1622.43651386 222.03053736 1622.52093026 239.53580247 1622.50363445 257.07328796 C1622.50498348 259.4553858 1622.50676872 261.83748343 1622.50894669 264.21958065 C1622.51267202 269.38513325 1622.51334067 274.55067667 1622.51124074 279.7162298 C1622.50811433 287.44949416 1622.51079327 295.18274938 1622.51453945 302.91601309 C1622.52075609 316.10090536 1622.5222481 329.28579435 1622.52112198 342.47068787 C1622.51999582 355.82438767 1622.52103753 369.17808468 1622.52469444 382.53178406 C1622.5249241 383.37663016 1622.52515375 384.22147626 1622.52539036 385.09192376 C1622.52633205 388.53313679 1622.52728774 391.97434981 1622.52826155 395.41556283 C1622.5383954 431.27902654 1622.54146716 467.14248869 1622.54205366 503.00595367 C1622.54211841 506.86407526 1622.54218635 510.72219686 1622.54225707 514.58031845 C1622.54227408 515.5377789 1622.54229108 516.49523935 1622.5423086 517.48171375 C1622.54271742 538.71883039 1622.54490854 559.95594672 1622.54741292 581.19306319 C1622.54844131 589.94371791 1622.54943136 598.69437263 1622.55042917 607.44502735 C1622.55059505 608.89544207 1622.55059505 608.89544207 1622.55076428 610.3751581 C1622.55708699 665.77429052 1622.56121356 721.17342274 1622.56075573 776.57255554 C1622.56073995 778.64501899 1622.56072422 780.71748243 1622.56070852 782.78994588 C1622.56063514 792.14647211 1622.56054697 801.50299833 1622.56045464 810.85952456 C1622.56041351 815.03163702 1622.56037337 819.20374948 1622.56033332 823.37586194 C1622.56031293 825.46407819 1622.56029191 827.55229443 1622.56027026 829.64051068 C1622.55959029 895.64575941 1622.56690316 961.65100277 1622.58081055 1027.65625 C1622.58431178 1044.2822825 1622.58778134 1060.908315 1622.59107494 1077.53434753 C1622.59137925 1079.07009928 1622.59137925 1079.07009928 1622.59168971 1080.63687631 C1622.59790875 1112.21346864 1622.60167106 1143.79006053 1622.60293293 1175.36665344 C1622.60297288 1176.35865222 1622.60301283 1177.350651 1622.60305399 1178.37271035 C1622.60390744 1200.15404683 1622.60416841 1221.93538327 1622.60388362 1243.71671976 C1622.60378714 1251.51140995 1622.60373509 1259.30610014 1622.60370489 1267.10079033 C1622.60369697 1269.03979528 1622.60368677 1270.97880023 1622.60367426 1272.91780518 C1622.60349824 1303.76084258 1622.60918375 1334.60387537 1622.61782808 1365.44691145 C1622.62649566 1396.53106047 1622.62865422 1427.61520313 1622.62206676 1458.69935285 C1622.6211546 1463.00483487 1622.62031129 1467.31031691 1622.61950874 1471.61579895 C1622.61926861 1472.88165718 1622.61926861 1472.88165718 1622.61902363 1474.1730883 C1622.61668044 1487.47784808 1622.62100537 1500.78259677 1622.62817993 1514.08735447 C1622.63511123 1527.20431541 1622.6347802 1540.32126015 1622.62698779 1553.43822076 C1622.62301987 1560.44041964 1622.62207559 1567.44258281 1622.63044515 1574.4447788 C1622.73425767 1669.9171983 1614.32453874 1754.30198467 1544.1875 1825.5625 C1537.88662271 1831.8744121 1531.28647882 1837.51241607 1524.12548828 1842.81884766 C1522.36610314 1844.13163852 1520.63351821 1845.47451419 1518.90234375 1846.82421875 C1508.68942666 1854.68030882 1497.71847181 1861.04436617 1486.375 1867.125 C1485.40191895 1867.6506958 1485.40191895 1867.6506958 1484.40917969 1868.18701172 C1467.09354976 1877.37303503 1447.61940872 1882.5957538 1428.625 1887.0625 C1427.42544678 1887.34480469 1426.22589355 1887.62710938 1424.98999023 1887.91796875 C1407.61927824 1891.83168477 1390.15299843 1893.24051977 1372.3736496 1893.32821465 C1371.13218059 1893.33790106 1369.89071158 1893.34758748 1368.6116223 1893.35756742 C1365.17887807 1893.3831741 1361.74615838 1893.40461888 1358.31337635 1893.42395 C1355.31706099 1893.44146483 1352.32077023 1893.46215193 1349.32447448 1893.48271444 C1339.17589394 1893.55209949 1329.02725664 1893.60897341 1318.87859078 1893.66419082 C1315.21491829 1893.68437435 1311.55125158 1893.70551867 1307.88758436 1893.72663287 C1212.664333 1894.27383337 1117.43985698 1894.26815766 987.08748286 1894.2605516 C965.13462069 1894.2580727 943.18175936 1894.25767708 921.22889709 1894.25881577 C919.68343009 1894.25889325 918.13796308 1894.2589704 916.59249607 1894.25904724 C910.37588684 1894.25935793 904.1592776 1894.25967662 897.94266837 1894.260007 C880.59252894 1894.26092182 863.24238951 1894.261494 845.89225006 1894.26179314 C845.10371301 1894.26180678 844.31517596 1894.26182043 843.50274385 1894.26183449 C818.55916908 1894.26224083 793.61559463 1894.26113195 768.67201996 1894.25894356 C767.46694709 1894.25883818 767.46694709 1894.25883818 766.23752932 1894.25873068 C753.20712333 1894.25758697 740.17671736 1894.25636694 727.14631138 1894.25514051 C675.36755959 1894.25027233 623.58881038 1894.2505268 571.81005859 1894.25537109 C558.70856985 1894.25659299 545.6070811 1894.25780432 532.50559235 1894.25894356 C531.69810542 1894.25901401 530.89061849 1894.25908445 530.05866227 1894.25915704 C505.07343787 1894.26132161 480.08821368 1894.26222599 455.1029892 1894.26179314 C454.31596006 1894.26177955 453.52893093 1894.26176597 452.71805243 1894.26175197 C435.42360969 1894.26143917 418.12916697 1894.26080488 400.83472425 1894.25988263 C394.64526081 1894.25955372 388.45579736 1894.25924061 382.26633392 1894.25893192 C380.72766859 1894.25885453 379.18900326 1894.2587758 377.65033793 1894.25869573 C353.45387193 1894.25743973 329.25740709 1894.25882141 305.06094125 1894.26154587 C279.9827061 1894.26433886 254.90447354 1894.26322001 229.82623875 1894.25801457 C227.10034124 1894.25746256 224.37444373 1894.25692582 221.64854622 1894.25640106 C220.97986602 1894.25627086 220.31118583 1894.25614065 219.62224259 1894.2560065 C209.91806679 1894.2541972 200.21389356 1894.25508212 190.50971794 1894.25766373 C140.17196932 1894.27015421 89.83805926 1894.17878041 39.50218729 1893.71085896 C36.17667175 1893.68007977 32.85114862 1893.65026437 29.52562326 1893.6205671 C9.85925037 1893.44207307 -9.80775884 1893.23986021 -29.46931658 1892.75253482 C-30.97030679 1892.71562949 -32.47134707 1892.68069011 -33.97243565 1892.64802945 C-82.94118309 1891.55352692 -131.35311054 1873.54196018 -169.625 1843.125 C-170.96884766 1842.06925781 -170.96884766 1842.06925781 -172.33984375 1840.9921875 C-179.76080524 1835.05115951 -186.7246467 1828.65465314 -193.625 1822.125 C-194.305625 1821.48691406 -194.98625 1820.84882812 -195.6875 1820.19140625 C-200.81495465 1815.24198822 -205.18543059 1809.68689256 -209.625 1804.125 C-210.48999989 1803.07348966 -211.35590715 1802.0227252 -212.22265625 1800.97265625 C-243.56575209 1762.59172967 -259.79854281 1716.13363349 -264.8125 1667.375 C-264.89735657 1666.55028198 -264.98221313 1665.72556396 -265.06964111 1664.87585449 C-265.31652191 1662.44380955 -265.55637559 1660.0111909 -265.79296875 1657.578125 C-265.86258316 1656.87941284 -265.93219757 1656.18070068 -266.00392151 1655.46081543 C-267.47658054 1639.86268968 -267.76940814 1624.34321961 -267.75084114 1608.6890831 C-267.75188601 1606.44751257 -267.75336855 1604.20594221 -267.75524551 1601.96437222 C-267.75912772 1595.81934655 -267.75681575 1589.67433667 -267.75346755 1583.52931127 C-267.75118835 1577.52867773 -267.75364575 1571.52804719 -267.7559446 1565.52741412 C-267.76053264 1553.11109468 -267.76040041 1540.69477935 -267.75766373 1528.27845955 C-267.7549085 1515.70114369 -267.75433533 1503.12383053 -267.75640106 1490.54651451 C-267.75653023 1489.75088769 -267.75665941 1488.95526087 -267.75679249 1488.13552414 C-267.7573258 1484.8947332 -267.75787451 1481.65394225 -267.75844277 1478.41315131 C-267.76372906 1448.24341821 -267.76409185 1418.07368691 -267.76129532 1387.90395355 C-267.75859855 1358.79580409 -267.75754062 1329.68765549 -267.75881577 1300.57950592 C-267.75889325 1298.74934043 -267.7589704 1296.91917494 -267.75904724 1295.08900945 C-267.75935773 1287.73326157 -267.7596764 1280.37751369 -267.760007 1273.02176581 C-267.76092406 1252.45589263 -267.76149463 1231.89001946 -267.76179314 1211.32414627 C-267.76180678 1210.38753495 -267.76182043 1209.45092362 -267.76183449 1208.48593014 C-267.76224382 1178.63717937 -267.76111684 1148.78842887 -267.75894356 1118.93967819 C-267.75887331 1117.97156991 -267.75880306 1117.00346162 -267.75873068 1116.00601672 C-267.75758585 1100.28641903 -267.75636633 1084.56682134 -267.75514051 1068.84722366 C-267.75029474 1006.6398476 -267.7505004 944.4324737 -267.75537109 882.22509766 C-267.7565925 866.57519404 -267.75780365 850.92529043 -267.75894356 835.27538681 C-267.75901401 834.31148733 -267.75908445 833.34758785 -267.75915704 832.35447929 C-267.76131796 802.5826851 -267.76222656 772.81089109 -267.76179314 743.03909683 C-267.76177955 742.10247903 -267.76176597 741.16586123 -267.76175197 740.20086107 C-267.76143927 719.62557935 -267.76080521 699.05029766 -267.75988263 678.47501596 C-267.75955355 671.10957789 -267.75924046 663.74413982 -267.75893192 656.37870176 C-267.75885453 654.54663506 -267.7587758 652.71456836 -267.75869573 650.88250167 C-267.75742963 621.83613545 -267.75884043 592.78977018 -267.76154587 563.74340408 C-267.76432277 533.59946698 -267.76325241 503.45553203 -267.75801457 473.31159523 C-267.75746237 470.05317706 -267.75692565 466.79475889 -267.75640106 463.53634071 C-267.75627086 462.73679953 -267.75614065 461.93725835 -267.7560065 461.11348865 C-267.7541755 449.36567626 -267.7551063 437.61786643 -267.75766373 425.87005424 C-267.76125487 408.65691801 -267.76102729 391.44378651 -267.75198364 374.23065186 C-267.75163414 373.56399691 -267.75128464 372.89734196 -267.75092454 372.21048535 C-267.72970535 333.75938931 -267.55201059 295.31895879 -266.80460814 256.87457727 C-266.63163607 247.93453628 -266.51390347 238.99440483 -266.42057186 230.0531915 C-266.22377966 211.85416901 -265.93710295 193.90888114 -261.625 176.125 C-261.38507324 175.13532227 -261.14514648 174.14564453 -260.89794922 173.12597656 C-253.61224359 144.17548568 -240.52394072 116.04455274 -222.625 92.125 C-222.19396973 91.53992676 -221.76293945 90.95485352 -221.31884766 90.35205078 C-188.95349521 46.65091913 -138.90843847 12.1206732 -84.52929688 3.7668457 C-56.55498797 -0.26791039 -28.19828222 0.02692948 0 0 Z M-146.625 480.125 C-146.64074511 568.03179105 -146.65607186 655.9385824 -146.66734314 767.28056335 C-146.66748259 768.7121673 -146.66762204 770.14377124 -146.66776149 771.57537518 C-146.67068452 801.62865509 -146.6734012 831.68193502 -146.67587968 861.73521497 C-146.67712502 876.83317412 -146.67840999 891.93113328 -146.67973244 907.02909243 C-146.67993169 909.30648651 -146.68012981 911.5838806 -146.68032788 913.86127469 C-146.68338593 948.90769982 -146.68729108 983.95412461 -146.69366455 1019.00054932 C-146.69380145 1019.75341755 -146.69393835 1020.50628578 -146.6940794 1021.28196821 C-146.69629162 1033.41954007 -146.69857529 1045.55711191 -146.70086844 1057.69468376 C-146.70747666 1092.67749155 -146.71355193 1127.66029907 -146.71613979 1162.64310741 C-146.71619333 1163.36332309 -146.71624686 1164.08353876 -146.71630202 1164.82557915 C-146.7174681 1180.64049063 -146.71836281 1196.45540211 -146.71900098 1212.27031362 C-146.71926258 1218.63482626 -146.71956321 1224.99933891 -146.71987724 1231.36385155 C-146.71991067 1232.06039624 -146.7199441 1232.75694093 -146.71997854 1233.47459303 C-146.72107287 1255.87406825 -146.72533672 1278.27354148 -146.73128221 1300.6730159 C-146.73742926 1323.88854853 -146.74001052 1347.1040787 -146.73850138 1370.31961236 C-146.73774241 1383.6913052 -146.73975417 1397.06299082 -146.74579754 1410.43468235 C-146.74956412 1419.38233897 -146.74965198 1428.3299909 -146.74683181 1437.27764785 C-146.74533089 1442.36600045 -146.74535017 1447.45433945 -146.74988318 1452.54269055 C-147.0630483 1490.86873589 -147.0630483 1490.86873589 -144.375 1529.0625 C-144.18103638 1530.72756592 -144.18103638 1530.72756592 -143.9831543 1532.42626953 C-138.59227401 1575.4727121 -116.48135706 1616.26395345 -82.10571289 1643.05249023 C-59.17607526 1660.51763061 -31.46117503 1672.32496721 -2.53194523 1673.68744743 C-1.66590615 1673.72901835 -0.79986706 1673.77058928 0.09241563 1673.81341993 C10.35567866 1674.26539415 20.61489159 1674.26325641 30.88612366 1674.25084114 C33.09909018 1674.25188666 35.31205653 1674.25336967 37.52502251 1674.25524551 C43.57663504 1674.25911841 49.62823149 1674.25682071 55.67984374 1674.25346755 C61.59386873 1674.25118445 67.50789136 1674.25364762 73.42191593 1674.2559446 C85.65543932 1674.26052777 97.88895854 1674.26040281 110.1224823 1674.25766373 C122.51148055 1674.2549068 134.90047607 1674.25433668 147.28947449 1674.25640106 C148.07369899 1674.25653023 148.85792349 1674.25665941 149.66591237 1674.25679249 C152.86034396 1674.25732581 156.05477554 1674.25787452 159.24920712 1674.25844277 C188.97449838 1674.26372667 218.69978781 1674.26409293 248.42507935 1674.26129532 C277.10092188 1674.25859785 305.77676355 1674.25754099 334.4526062 1674.25881577 C336.25610332 1674.25889325 338.05960045 1674.2589704 339.86309757 1674.25904724 C347.11175074 1674.25935774 354.36040391 1674.25967641 361.60905708 1674.260007 C381.87478296 1674.26092401 402.14050884 1674.26149462 422.40623474 1674.26179314 C423.32914043 1674.26180678 424.25204613 1674.26182043 425.20291866 1674.26183449 C454.61082955 1674.26224376 484.01874019 1674.26111712 513.426651 1674.25894356 C514.38034094 1674.25887331 515.33403088 1674.25880306 516.31662051 1674.25873068 C531.80182548 1674.25758587 547.28703044 1674.25636634 562.7722354 1674.25514051 C624.05909516 1674.25029415 685.34595274 1674.25050105 746.6328125 1674.25537109 C762.05322774 1674.25659251 777.47364298 1674.25780366 792.89405823 1674.25894356 C794.31871572 1674.25904923 794.31871572 1674.25904923 795.77215418 1674.25915704 C825.10733439 1674.26131794 854.44251442 1674.26222657 883.7776947 1674.26179314 C885.16199556 1674.26177276 885.16199556 1674.26177276 886.5742621 1674.26175197 C906.84731878 1674.26143927 927.12037544 1674.26080522 947.3934321 1674.25988263 C954.65058643 1674.25955356 961.90774076 1674.25924046 969.16489509 1674.25893192 C970.97001313 1674.25885453 972.77513117 1674.2587758 974.58024921 1674.25869573 C1003.1977999 1674.2574297 1031.81534963 1674.25884029 1060.43290019 1674.26154587 C1090.12967419 1674.26432271 1119.82644601 1674.2632525 1149.5232197 1674.25801457 C1152.73323798 1674.25746237 1155.94325626 1674.25692565 1159.15327454 1674.25640106 C1159.9409377 1674.25627086 1160.72860086 1674.25614065 1161.54013261 1674.2560065 C1172.36381774 1674.25429409 1183.18750064 1674.25477721 1194.01118562 1674.25717081 C1230.7992672 1674.26523557 1267.58707481 1674.24968493 1304.375 1674.125 C1305.37637094 1674.12178264 1306.37774187 1674.11856528 1307.40945739 1674.11525043 C1318.6144453 1674.07876657 1329.81877383 1674.02182742 1341.02326 1673.90775786 C1343.82759508 1673.87945606 1346.63177654 1673.85905875 1349.43622696 1673.84688546 C1362.64438343 1673.77494685 1374.84722286 1673.64599606 1387.375 1669.125 C1388.32416259 1668.80018611 1389.27332518 1668.47537222 1390.25125027 1668.14071548 C1392.6373991 1667.30600909 1394.97320321 1666.3952119 1397.3125 1665.4375 C1398.15530518 1665.09356201 1398.99811035 1664.74962402 1399.86645508 1664.39526367 C1426.03323041 1653.44201699 1449.19528469 1634.65588342 1466.375 1612.125 C1466.78524414 1611.5892334 1467.19548828 1611.0534668 1467.61816406 1610.50146484 C1490.8105856 1579.55069168 1500.55728918 1541.62716855 1500.50084114 1503.57181644 C1500.50188537 1501.78997192 1500.50336743 1500.0081276 1500.50524551 1498.22628376 C1500.50913658 1493.33017592 1500.50681113 1488.43408783 1500.50346755 1483.53798032 C1500.50093036 1478.211341 1500.50419096 1472.88470471 1500.50671089 1467.55806583 C1500.51032346 1458.22267376 1500.51021245 1448.88728748 1500.50766373 1439.55189514 C1500.50388407 1425.67029193 1500.50581349 1411.78869361 1500.50887203 1397.90709043 C1500.51383505 1374.55501365 1500.51401642 1351.20293951 1500.51129532 1327.8508625 C1500.51117113 1326.78455021 1500.51117113 1326.78455021 1500.51104442 1325.69669626 C1500.51096149 1324.98468578 1500.51087856 1324.2726753 1500.51079312 1323.53908875 C1500.50827026 1301.85011933 1500.5076184 1280.16115085 1500.50881577 1258.47218132 C1500.50889324 1257.01996786 1500.5089704 1255.56775441 1500.50904724 1254.11554095 C1500.5093577 1248.27981908 1500.50967636 1242.44409722 1500.510007 1236.60837535 C1500.51092399 1220.29566148 1500.5114946 1203.98294762 1500.51179314 1187.67023373 C1500.51181361 1186.55599497 1500.51181361 1186.55599497 1500.51183449 1185.41924635 C1500.51224375 1161.7507044 1500.51111693 1138.08216279 1500.50894356 1114.41362095 C1500.50887331 1113.64596908 1500.50880306 1112.87831721 1500.50873068 1112.08740316 C1500.50758572 1099.62103975 1500.50636626 1087.15467635 1500.50514051 1074.68831294 C1500.50028239 1025.22685941 1500.50051114 975.76540859 1500.50537109 926.30395508 C1500.50659225 913.83556144 1500.50780329 901.3671678 1500.50894356 888.89877415 C1500.50901401 888.13108376 1500.50908445 887.36339338 1500.50915704 886.57243964 C1500.51131247 862.92236449 1500.51222765 839.27228956 1500.51179314 815.62221432 C1500.51177955 814.88002764 1500.51176597 814.13784096 1500.51175197 813.37316378 C1500.51143953 797.08290584 1500.51080596 780.79264793 1500.50988263 764.50239001 C1500.50955348 758.67407968 1500.5092404 752.84576934 1500.50893192 747.017459 C1500.50885453 745.56749622 1500.5087758 744.11753343 1500.50869573 742.66757065 C1500.50750122 720.97871096 1500.50852033 699.28985233 1500.51104442 677.60099278 C1500.51112722 676.88953835 1500.51121001 676.17808392 1500.51129532 675.44507027 C1500.51141934 674.37985279 1500.51141934 674.37985279 1500.51154587 673.29311577 C1500.51430094 649.36878167 1500.51329399 625.44445086 1500.50801457 601.52011705 C1500.50506938 587.71694959 1500.50489943 573.91378857 1500.50866075 560.11062127 C1500.51089335 550.90510155 1500.5095254 541.69958704 1500.50515598 532.4940681 C1500.5027641 527.23976579 1500.50199085 521.98547635 1500.50556196 516.73117442 C1500.50877255 511.9589749 1500.50744862 507.18679979 1500.5023813 502.41460208 C1500.50136739 500.69159478 1500.50205775 498.9685855 1500.50458724 497.24557976 C1500.50776312 494.91863074 1500.50485274 492.59176795 1500.50034916 490.26482302 C1500.5002814 488.97264497 1500.50021365 487.68046693 1500.50014383 486.34913198 C1500.397036 483.69272245 1500.06700328 481.65368046 1499.375 479.125 C1449.08089195 479.11949956 1398.78678387 479.1142301 1348.49267578 479.10913086 C1347.50856001 479.10903106 1346.52444425 479.10893126 1345.51050679 479.10882844 C1240.09301336 479.09814436 1134.67551992 479.08892041 1029.25802612 479.08265686 C1026.91728632 479.08251741 1024.57654652 479.08237796 1022.23580671 479.08223851 C973.10658705 479.07931603 923.97736738 479.07659929 874.84814769 479.07412032 C850.17011071 479.0728749 825.49207372 479.07158992 800.81403674 479.07026756 C797.09137221 479.07006831 793.36870767 479.06987019 789.64604313 479.06967212 C732.30012072 479.06661096 674.95419852 479.06269993 617.60827637 479.05633545 C616.37462949 479.05619855 615.14098262 479.05606165 613.8699525 479.0559206 C593.97902334 479.05370814 574.08809418 479.05142457 554.19716502 479.04913156 C496.92789052 479.04253069 439.65861619 479.03645283 382.38934135 479.03386021 C381.2124535 479.03380667 380.03556565 479.03375314 378.82301453 479.03369798 C352.99182939 479.03253241 327.16064425 479.03163746 301.32945909 479.03099902 C290.93696397 479.03073738 280.54446885 479.03043676 270.15197372 479.03012276 C269.01453737 479.03008933 267.87710102 479.0300559 266.70519689 479.03002146 C230.01433444 479.02892377 193.3234732 479.02464848 156.63261123 479.01871779 C119.69368875 479.01276148 82.75476744 479.00989842 45.81584446 479.01137601 C40.71895913 479.01157911 35.62207379 479.01174649 30.52518845 479.01189232 C29.52599553 479.0119222 28.52680261 479.01195208 27.49733112 479.01198287 C11.63334473 479.0123645 -4.23063919 479.00937045 -20.09462491 479.00499014 C-35.66864333 479.00075852 -51.24265853 479.00005001 -66.81667725 479.00316819 C-75.96367084 479.00489124 -85.11065424 479.00383254 -94.25764666 478.998783 C-100.31736294 478.99570706 -106.37707186 478.99619649 -112.4367879 478.99969893 C-115.88161077 479.00158672 -119.32641366 479.00185648 -122.77123506 478.99776476 C-126.45925107 478.99420515 -130.1472127 478.99668192 -133.83522689 479.0008015 C-134.91402153 478.99829263 -135.99281617 478.99578375 -137.10430156 478.99319885 C-138.07665213 478.99555174 -139.0490027 478.99790464 -140.05081844 479.00032884 C-140.89250497 479.00026483 -141.7341915 479.00020082 -142.60138369 479.00013488 C-144.69473392 478.99683374 -144.69473392 478.99683374 -146.625 480.125 Z " fill="#000000" transform="translate(392.625,205.875)"/>
<path d="M0 0 C13.27904618 10.45928873 23.90577 24.57045681 26.33203125 41.671875 C26.41856626 43.49544958 26.4609832 45.32155276 26.46345901 47.1471777 C26.46730016 48.21579255 26.4711413 49.2844074 26.47509885 50.38540453 C26.47423237 51.54832586 26.47336588 52.7112472 26.47247314 53.90940857 C26.47544427 55.15351865 26.47841539 56.39762874 26.48147655 57.67943913 C26.48864309 61.12582071 26.4913348 64.57215244 26.49207401 68.01853788 C26.49392877 71.73859613 26.50147837 75.45864366 26.50820923 79.17869568 C26.52177764 87.31131809 26.52781533 95.44393556 26.53221989 103.57656741 C26.53498561 108.65929757 26.53922364 113.74202584 26.54372406 118.82475471 C26.55591624 132.90977452 26.56621471 146.99479281 26.56959915 161.07981777 C26.5699285 162.4314751 26.5699285 162.4314751 26.5702645 163.81043864 C26.57048278 164.71365223 26.57070106 165.61686583 26.57092595 166.54744953 C26.57136941 168.37758029 26.57181597 170.20771104 26.57226562 172.0378418 C26.57259777 173.39954248 26.57259777 173.39954248 26.57293662 174.78875227 C26.57688073 189.48314146 26.59432312 204.17748095 26.61762515 218.87185096 C26.64138065 233.97473105 26.65380296 249.07758624 26.65496707 264.18048531 C26.65588163 272.65347219 26.66157828 281.12639435 26.67978668 289.59936333 C26.69524464 296.8177292 26.70027483 304.03601035 26.69204858 311.25438964 C26.68816173 314.93221241 26.68897441 318.60986488 26.70310593 322.28766632 C26.7999868 349.07756145 24.86444069 372.36755845 5.01953125 392.421875 C-6.58021219 403.78512524 -19.01480183 411.77759057 -35.609375 411.875 C-36.3728978 411.88070007 -37.13642059 411.88640015 -37.92308044 411.89227295 C-39.53765492 411.90169439 -41.15224837 411.90824555 -42.7668457 411.91210938 C-45.19843644 411.92174803 -47.62915655 411.95276964 -50.06054688 411.984375 C-69.20345924 412.11682305 -84.1341731 407.01146807 -97.953125 393.4140625 C-99.29697266 392.05667969 -99.29697266 392.05667969 -100.66796875 390.671875 C-101.40917969 389.95257813 -102.15039062 389.23328125 -102.9140625 388.4921875 C-115.53982508 375.44802733 -120.80293416 358.16256794 -120.82618713 340.30853271 C-120.8335941 339.08415162 -120.8335941 339.08415162 -120.8411507 337.83503556 C-120.85645281 335.11105429 -120.86486874 332.38709651 -120.87329102 329.66308594 C-120.88288024 327.70182087 -120.89289092 325.74055782 -120.90328979 323.77929688 C-120.93035454 318.44068544 -120.95138741 313.10206528 -120.97129178 307.76342297 C-120.99333691 302.10661003 -121.0206771 296.44982245 -121.04734802 290.79302979 C-121.09168168 281.22954487 -121.13238936 271.6660501 -121.1706543 262.10253906 C-121.20939611 252.42283693 -121.25083192 242.74315249 -121.2956543 233.06347656 C-121.3010965 231.88780672 -121.30653871 230.71213687 -121.31214583 229.50084066 C-121.3231049 227.13484891 -121.33406472 224.76885716 -121.3450253 222.40286541 C-121.46922825 195.46632942 -121.57431632 168.52974964 -121.65879536 141.59305954 C-121.66480311 139.67994542 -121.67087556 137.76683149 -121.67702007 135.8537178 C-121.71085336 125.31453547 -121.73877026 114.77538263 -121.75181389 104.23615265 C-121.75523736 101.52810303 -121.76119148 98.82009889 -121.76855659 96.11205292 C-121.80194042 83.03928091 -121.69673993 69.98337043 -121.26000977 56.91699219 C-121.20875773 55.25309134 -121.20875773 55.25309134 -121.1564703 53.55557632 C-120.42492289 34.3200317 -113.37561795 19.1735662 -99.66796875 5.671875 C-98.88550781 4.89070313 -98.10304688 4.10953125 -97.296875 3.3046875 C-70.80047506 -21.877491 -28.53107781 -21.66947478 0 0 Z " fill="#000000" transform="translate(1665.66796875,46.328125)"/>
<path d="M0 0 C14.46146704 11.26649176 26.43980997 26.99460535 30.3125 45.3125 C30.4199481 46.78484648 30.48191341 48.26091927 30.50868225 49.73693848 C30.52688522 50.61699554 30.5450882 51.49705261 30.56384277 52.40377808 C30.58650208 53.84069504 30.58650208 53.84069504 30.60961914 55.30664062 C30.62927231 56.3218277 30.64892548 57.33701477 30.66917419 58.38296509 C30.73311637 61.74482709 30.79044878 65.10676718 30.84765625 68.46875 C30.8906962 70.81083856 30.93411288 73.15292022 30.97789001 75.49499512 C31.06885596 80.41100569 31.15683714 85.32705707 31.24243164 90.24316406 C31.35172107 96.51955795 31.46589045 102.79584977 31.58200932 109.07212067 C31.69299114 115.0793016 31.80174075 121.08652228 31.91015625 127.09375 C31.94110225 128.79728386 31.94110225 128.79728386 31.97267342 130.53523254 C32.03124232 133.78453616 32.08826002 137.03386322 32.14477539 140.28320312 C32.16190582 141.22495392 32.17903625 142.16670471 32.19668579 143.13699341 C32.24312962 145.86211379 32.27936821 148.58718765 32.3125 151.3125 C32.32747465 152.19848373 32.3424493 153.08446747 32.35787773 153.99729919 C32.41838407 160.17183007 32.17680072 166.29532937 31.82136536 172.45674133 C31.29673979 181.64671463 31.16709701 190.80167974 31.1706543 200.00463867 C31.16761023 201.67604156 31.16408542 203.34744363 31.16012573 205.0188446 C31.15233572 208.57457249 31.14713015 212.1302908 31.14383507 215.68602562 C31.13784037 221.32500024 31.12122611 226.96391455 31.10249329 232.6028595 C31.09615899 234.54603478 31.08983333 236.4892101 31.08351612 238.43238544 C31.08035031 239.40432964 31.0771845 240.37627383 31.07392275 241.37767088 C31.03208741 254.47271783 30.9988494 267.56773227 30.98657227 280.6628418 C30.9781613 289.54402261 30.95557376 298.42504876 30.9172166 307.30615216 C30.89758712 311.98678378 30.88500805 316.66718497 30.89005089 321.34786034 C30.89473648 325.74851648 30.88068149 330.14873501 30.85303879 334.54930305 C30.84619696 336.15030353 30.84592347 337.75134995 30.85323906 339.35234833 C30.93696667 359.75741843 25.89813366 378.24387159 11.43994141 393.23828125 C10.07554426 394.60782354 8.69436697 395.96058679 7.3125 397.3125 C6.25289062 398.42044922 6.25289062 398.42044922 5.171875 399.55078125 C0.73170701 403.91468681 -4.12662252 406.86492692 -9.625 409.6875 C-10.26912842 410.02168945 -10.91325684 410.35587891 -11.5769043 410.70019531 C-21.37403899 415.46325341 -31.32772456 415.65278151 -42.0625 415.625 C-43.91875 415.64916992 -43.91875 415.64916992 -45.8125 415.67382812 C-64.29637519 415.68355648 -78.78545665 409.37988707 -92.6875 397.3125 C-94.234375 396.1678125 -94.234375 396.1678125 -95.8125 395 C-108.98419102 382.68733231 -114.68640267 366.04274731 -115.96970177 348.44204712 C-116.09117081 344.4663772 -116.12479995 340.49646805 -116.11987305 336.51953125 C-116.1289258 335.00515339 -116.13925684 333.49078274 -116.15073967 331.97642136 C-116.17812424 327.8836253 -116.18756392 323.7909682 -116.19358563 319.69809246 C-116.20319487 315.30878749 -116.22963836 310.9195785 -116.25389099 306.53033447 C-116.29806143 298.0520592 -116.32662935 289.57380321 -116.34944075 281.09544635 C-116.36820816 274.26033786 -116.39340134 267.42527973 -116.42303467 260.59020996 C-116.42723923 259.61974236 -116.43144379 258.64927475 -116.43577576 257.64939904 C-116.44430933 255.68542698 -116.45285395 253.72145497 -116.46140957 251.75748301 C-116.55774393 229.40190991 -116.62161799 207.04629507 -116.67459869 184.69058228 C-116.6868511 179.53484909 -116.70012473 174.37911889 -116.71356201 169.22338867 C-116.76159834 150.60502727 -116.79623092 131.98670693 -116.80954361 113.36828613 C-116.81248477 109.58211133 -116.81664183 105.79593916 -116.82089233 102.00976562 C-116.82673703 96.12994256 -116.82677253 90.25014698 -116.82200813 84.37032318 C-116.82090513 82.26941703 -116.82135452 80.1685093 -116.82360649 78.06760406 C-116.84819974 50.90760328 -115.75798064 29.37576016 -96.15380859 8.76269531 C-71.65884217 -15.46309565 -28.60078024 -19.92413904 0 0 Z " fill="#000000" transform="translate(563.6875,42.6875)"/>
<path d="M0 0 C1.11191613 -0.00573832 1.11191613 -0.00573832 2.24629521 -0.01159257 C4.71954735 -0.0218758 7.1925653 -0.01793933 9.66583252 -0.01396179 C11.44357517 -0.01831095 13.22131595 -0.02349478 14.99905396 -0.02944946 C19.8215515 -0.04283118 24.64397063 -0.04341887 29.46648312 -0.04088616 C33.4970504 -0.03981554 37.52760189 -0.04470236 41.55816579 -0.04949158 C51.07160581 -0.06058468 60.58500635 -0.06102579 70.09844971 -0.05497742 C79.8993464 -0.04894184 89.70009938 -0.06123853 99.50097156 -0.08254749 C107.92581684 -0.10018844 116.35061649 -0.10616077 124.77547956 -0.10290974 C129.80261724 -0.10110016 134.82965248 -0.10370029 139.85677338 -0.11762428 C144.5879114 -0.130238 149.31882633 -0.12822506 154.04996109 -0.11521339 C155.78087821 -0.11285548 157.5118112 -0.11555399 159.24271011 -0.12383652 C170.63224712 -0.17438198 181.40701284 -0.12160318 190.67852783 7.38569641 C196.5100001 13.60593349 198.56000391 21.42798872 198.56332397 29.74966431 C198.5661438 30.84093628 198.56896362 31.93220825 198.5718689 33.05654907 C198.56883255 34.83849922 198.56883255 34.83849922 198.56573486 36.65644836 C198.56836334 38.54555435 198.56836334 38.54555435 198.57104492 40.4728241 C198.57560197 43.92651846 198.57383445 47.38018292 198.57066584 50.8338778 C198.56812288 54.47283012 198.57048612 58.11177999 198.572052 61.75073242 C198.57387245 67.88158116 198.57147523 74.01241786 198.56671143 80.14326477 C198.56131516 87.167818 198.56299781 94.19234198 198.56853783 101.21689445 C198.57312821 107.28611251 198.57368964 113.35532193 198.57109916 119.42454118 C198.56956254 123.03134682 198.56926786 126.63813892 198.57263565 130.24494362 C198.58326311 143.73696363 198.54583557 157.22828479 198.11553955 170.71455383 C198.09357576 171.67231626 198.07161198 172.63007868 198.04898262 173.6168642 C197.76325341 180.95440585 196.55539927 187.75110453 191.17852783 193.18257141 C190.55204346 193.8155011 189.92555908 194.44843079 189.28009033 195.10054016 C188.63040283 195.73089172 187.98071533 196.36124329 187.31134033 197.01069641 C186.68485596 197.65651672 186.05837158 198.30233704 185.41290283 198.96772766 C184.46157471 199.90938782 184.46157471 199.90938782 183.49102783 200.87007141 C182.92883545 201.42662415 182.36664307 201.98317688 181.78741455 202.55659485 C173.09114473 208.85981015 164.36076268 208.83543463 153.98370361 208.77827454 C152.32536201 208.783702 150.66702524 208.79082816 149.00869751 208.79951477 C144.52504249 208.81767972 140.04175752 208.81070821 135.55809641 208.79799843 C130.85204519 208.78783185 126.14602447 208.79727455 121.43997192 208.80354309 C113.5365229 208.81081031 105.63322362 208.80125763 97.72979736 208.78218079 C88.61327663 208.7604289 79.49711401 208.76745489 70.380602 208.78948641 C62.53399804 208.80768486 54.6875014 208.81017661 46.84088314 208.79973173 C42.1630593 208.79351924 37.48540331 208.79259872 32.80759048 208.80587769 C28.40626796 208.81749994 24.00540327 208.80929508 19.60412979 208.78630066 C17.996193 208.78104676 16.38821717 208.78246992 14.78029633 208.79135132 C3.15032497 208.84962785 -7.4173924 207.71604673 -16.77850342 200.08491516 C-26.76893374 189.87587586 -26.86242916 177.36805109 -26.82244873 163.95381165 C-26.82516292 162.41868423 -26.82872624 160.88355812 -26.83306885 159.34843445 C-26.84214351 155.20183546 -26.83866922 151.05533661 -26.83231068 146.90873599 C-26.82722601 142.55763411 -26.83194888 138.20654047 -26.83508301 133.85543823 C-26.83871509 126.5514625 -26.83394306 119.24752731 -26.82440186 111.94355774 C-26.81351469 103.51211948 -26.81704784 95.08077793 -26.82805467 86.649342 C-26.83714428 79.39473471 -26.83840476 72.14015646 -26.83317733 64.88554531 C-26.83006736 60.55941722 -26.82962155 56.23333453 -26.83625031 51.9072094 C-26.84204768 47.84007511 -26.83798329 43.773065 -26.82646179 39.70594406 C-26.82382814 38.21768334 -26.82455805 36.72941208 -26.82898712 35.24115562 C-26.88448931 14.68918008 -26.88448931 14.68918008 -18.95819092 6.62788391 C-13.18869907 1.35510328 -7.79056405 -0.04305458 0 0 Z " fill="#000000" transform="translate(1174.5636596679688,1371.7393035888672)"/>
<path d="M0 0 C0.72171408 -0.00382555 1.44342817 -0.00765109 2.18701237 -0.01159257 C4.58806334 -0.02185219 6.98887201 -0.01794391 9.38993835 -0.01396179 C11.11856811 -0.01831222 12.84719594 -0.02349647 14.57582092 -0.02944946 C19.25983457 -0.04281646 23.94376741 -0.04342059 28.62779641 -0.04088616 C32.54408895 -0.03981469 36.46036527 -0.04470443 40.37665433 -0.04949158 C49.62018979 -0.06057925 58.86368462 -0.06102862 68.10722351 -0.05497742 C77.62810034 -0.04894024 87.14882929 -0.06124385 96.66968089 -0.08254749 C104.85675664 -0.10018993 113.04378544 -0.1061606 121.23087949 -0.10290974 C126.11492159 -0.10110064 130.99885825 -0.10369558 135.88288307 -0.11762428 C140.47860854 -0.13024072 145.07410438 -0.12822254 149.66982651 -0.11521339 C151.35075522 -0.1128562 153.03170029 -0.1155514 154.71261024 -0.12383652 C165.73372513 -0.17421621 176.63074414 -0.20250717 185.50590515 7.26069641 C191.17477496 13.62454786 193.74818824 19.29754096 193.77333069 27.94445801 C193.7778618 28.59110816 193.78239291 29.23775831 193.78706133 29.90400392 C193.79965704 32.05707369 193.79808812 34.20988894 193.7964325 36.36299133 C193.80242091 37.91251447 193.80922718 39.46203464 193.81678772 41.0115509 C193.83442644 45.21222946 193.8391423 49.41282649 193.84041929 53.6135385 C193.84184305 56.24189264 193.84611697 58.8702262 193.85141373 61.49857521 C193.86990937 70.67946813 193.87808522 79.86030305 193.87651062 89.04121399 C193.87531045 97.57996175 193.89638948 106.11845624 193.92799795 114.65713996 C193.95421387 122.00260702 193.96487564 129.34799166 193.9635998 136.69350511 C193.96309158 141.07406257 193.96869648 145.45439503 193.9899559 149.83490562 C194.00942729 153.95955844 194.00940254 158.08377376 193.99492264 162.20844269 C193.99284418 163.71480008 193.9974775 165.2211855 194.00964355 166.72749519 C194.09568478 178.12693161 192.74441239 188.29635586 185.3379364 197.40913391 C179.00403528 203.81056063 172.10884996 207.84780544 163.01475716 208.51796532 C161.16151235 208.52299285 161.16151235 208.52299285 159.27082825 208.52812195 C158.57699346 208.53265306 157.88315868 208.53718417 157.1682986 208.54185259 C154.86165681 208.55443318 152.55525306 208.55288039 150.24858093 208.55122375 C148.58729247 208.55721292 146.92600679 208.56401936 145.26472473 208.57157898 C140.7646635 208.58920525 136.26467839 208.59393289 131.76458597 208.59521055 C128.95013931 208.59663446 126.13571187 208.60090856 123.32126999 208.60620499 C113.49429348 208.62469309 103.66737114 208.632877 93.84037781 208.63130188 C84.69320875 208.63010035 75.5462756 208.65120809 66.39916623 208.68278921 C58.53397012 208.70897274 50.66885098 208.71966833 42.80361164 208.71839106 C38.11126519 208.7178821 33.41912858 208.72352893 28.72682571 208.74474716 C24.31244097 208.76416497 19.8984655 208.76422994 15.48406601 208.7497139 C13.8688268 208.74762919 12.25356172 208.75230651 10.6383667 208.76443481 C0.60898402 208.83483627 -7.20117561 208.3227042 -15.3495636 202.06929016 C-27.73427283 189.47713186 -30.80702954 178.05618849 -30.75288391 160.81758118 C-30.75559771 159.36304042 -30.75916082 157.90850104 -30.76350403 156.45396423 C-30.7725849 152.5221063 -30.76910139 148.5903539 -30.76274586 144.65849423 C-30.75766255 140.532072 -30.76238386 136.40565845 -30.76551819 132.27923584 C-30.76915146 125.35010669 -30.76437594 118.42102024 -30.75483704 111.49189758 C-30.74395801 103.49731888 -30.74747662 95.50284225 -30.75848985 87.50826603 C-30.76758607 80.62818201 -30.76883647 73.7481286 -30.76361251 66.8680405 C-30.76050508 62.76598911 -30.76004949 58.66398559 -30.76668549 54.56193733 C-30.77249222 50.70328785 -30.76840159 46.84476904 -30.75689697 42.98613358 C-30.75426791 41.5756966 -30.75498523 40.1652485 -30.7594223 38.75481606 C-30.79266217 27.10876667 -30.31186761 17.44183352 -22.49409485 8.26069641 C-15.83893347 1.94301786 -9.1758619 0.0146497 0 0 Z " fill="#000000" transform="translate(1561.4940948486328,1371.7393035888672)"/>
<path d="M0 0 C0.71662725 -0.00226556 1.43325449 -0.00453111 2.17159772 -0.00686532 C4.56731618 -0.01318358 6.96297775 -0.01237735 9.35870361 -0.0115509 C11.0788073 -0.01454379 12.79891032 -0.01794662 14.51901245 -0.02172852 C19.18859682 -0.03056054 23.85816287 -0.03290633 28.52775478 -0.0335443 C31.44704567 -0.03425538 34.36633191 -0.03639081 37.28562164 -0.03904152 C47.47567541 -0.04829303 57.6657161 -0.05237674 67.85577393 -0.05158997 C77.34478491 -0.05098956 86.83373897 -0.06153466 96.32273555 -0.07733363 C104.47662776 -0.09042443 112.6305014 -0.0957732 120.78440404 -0.09513456 C125.65109715 -0.09487998 130.51773969 -0.09770893 135.3844223 -0.10831261 C139.96447744 -0.11801923 144.54443395 -0.1180552 149.12449265 -0.11079597 C150.8010027 -0.10975325 152.47751898 -0.11209443 154.1540184 -0.11815643 C176.61706849 -0.19408763 176.61706849 -0.19408763 185.77764893 8.13371277 C192.69088644 15.04695028 193.16011922 23.79410806 193.18423462 33.11694336 C193.17840353 34.55287297 193.17225914 35.98880133 193.16583252 37.42472839 C193.16990385 38.9582354 193.17524887 40.49173946 193.1817627 42.02523804 C193.19537543 46.16781318 193.19016279 50.31016281 193.18062544 54.45274162 C193.17299738 58.80070959 193.18008316 63.14865904 193.18478394 67.49662781 C193.19023235 74.79642684 193.18307391 82.09613464 193.16876221 89.3959198 C193.15243744 97.81942701 193.1577266 106.24271634 193.17424142 114.66621828 C193.18788238 121.9157562 193.18976322 129.16522876 193.18192542 136.41477537 C193.17726322 140.73704312 193.17658385 145.05920866 193.18653488 149.38146973 C193.19524037 153.44620203 193.18911771 157.5106551 193.17185211 161.57535744 C193.16790631 163.06158295 193.16898841 164.54783221 193.17564011 166.03404808 C193.2531579 185.12312377 193.2531579 185.12312377 186.71514893 192.19621277 C186.20854736 192.76468933 185.7019458 193.33316589 185.17999268 193.91886902 C183.77764893 195.13371277 183.77764893 195.13371277 181.77764893 195.13371277 C181.38126221 196.02896667 181.38126221 196.02896667 180.97686768 196.94230652 C179.72964235 199.22143814 178.5512883 200.51331284 176.59014893 202.19621277 C176.03971924 202.68218933 175.48928955 203.16816589 174.92218018 203.66886902 C169.57572543 207.32081898 165.00702008 208.50874509 158.57380676 208.5146637 C157.53812157 208.52168365 157.53812157 208.52168365 156.48151344 208.52884543 C154.1862264 208.54073561 151.89154307 208.53136212 149.59625244 208.52189636 C147.94319309 208.52596477 146.29013646 208.53130817 144.63708496 208.53782654 C140.15976425 208.55147496 135.6826515 208.54621144 131.20532727 208.53668928 C126.51254557 208.52907859 121.81978133 208.53614233 117.1269989 208.54084778 C109.2461122 208.54630176 101.36530991 208.53912365 93.48443604 208.52482605 C84.38385579 208.50850589 75.28347726 208.51378487 66.18290192 208.53030527 C58.35932842 208.54393708 50.5358155 208.54583134 42.71223396 208.53798926 C38.04400354 208.53332133 33.37586779 208.53266352 28.70764351 208.54259872 C24.31710029 208.55129059 19.92681603 208.54520606 15.53630066 208.52791595 C13.92871467 208.5239627 12.32110673 208.52506519 10.71352959 208.53170395 C-1.88515126 208.57891918 -9.50958996 207.44837825 -18.89422607 198.52433777 C-33.1900537 183.84472954 -32.41111413 166.89808028 -32.30755615 147.51676941 C-32.30394544 146.13986813 -32.30074398 144.76296573 -32.2979126 143.38606262 C-32.28868113 139.7026035 -32.27238233 136.01921324 -32.25354218 132.33579183 C-32.2417949 130.02668457 -32.23116293 127.71757447 -32.2208004 125.40846062 C-32.18772351 118.15921224 -32.14983342 110.91001087 -32.10543519 103.66082293 C-32.05455164 95.33428317 -32.02039199 87.00788969 -32.00025445 78.68122011 C-31.98354703 72.2085214 -31.95165 65.73600587 -31.90840834 59.26343054 C-31.88302746 55.41186215 -31.86399401 51.56052063 -31.86103249 47.70886421 C-31.85786638 44.09284682 -31.83575243 40.47742341 -31.79947662 36.86159134 C-31.784658 34.91571788 -31.78926299 32.96972628 -31.79460144 31.02380371 C-31.67887575 22.1650587 -29.91490277 16.25173302 -25.09735107 8.88371277 C-17.87016349 1.97075073 -9.75073238 0.01275038 0 0 Z " fill="#000000" transform="translate(801.2223510742188,1371.8662872314453)"/>
<path d="M0 0 C0.72665206 -0.00467997 1.45330412 -0.00935994 2.20197594 -0.01418173 C4.61385566 -0.02605712 7.02515926 -0.01670415 9.43704224 -0.00723267 C11.1756727 -0.01130177 12.91430057 -0.01664555 14.65292358 -0.02316284 C19.35964762 -0.03680401 24.0661737 -0.03155048 28.77290106 -0.02202559 C33.70897789 -0.01440998 38.6450382 -0.0214801 43.58111572 -0.02618408 C51.87133819 -0.03163712 60.1614804 -0.02446294 68.45169067 -0.01016235 C78.01974329 0.0061525 87.58760399 0.00088228 97.15565193 -0.01564157 C105.38521742 -0.02928217 113.61472533 -0.0311632 121.84429848 -0.02332556 C126.75290896 -0.0186618 131.66142943 -0.01798818 136.57003403 -0.02793503 C141.18794678 -0.03663954 145.8056137 -0.03051943 150.42350006 -0.01325226 C152.11248747 -0.0093055 153.80149577 -0.01039021 155.4904747 -0.01704025 C166.64286839 -0.05688179 177.27784282 -0.00148019 186.34768677 7.38095093 C192.01369197 13.31049126 194.71822852 19.03324274 194.73536682 27.26089478 C194.74344513 28.2444023 194.74344513 28.2444023 194.75168663 29.24777865 C194.76589318 31.42550332 194.75888099 33.60261382 194.7517395 35.78036499 C194.75744708 37.34974146 194.76441285 38.91911379 194.77253723 40.48847961 C194.79044524 44.73872825 194.7893042 48.98877014 194.78359485 53.23904514 C194.78049822 56.79487928 194.78660102 60.35067397 194.79263359 63.90650249 C194.80667075 72.30150191 194.80512552 80.69639956 194.79373169 89.09140015 C194.78226332 97.73185895 194.79630636 106.37200689 194.82312816 115.01242471 C194.84533704 122.44709329 194.85191053 129.88166467 194.84605175 137.31636405 C194.84269189 141.74942959 194.84503176 146.18229612 194.86230278 150.61533356 C194.87785177 154.78844322 194.87372902 158.96109558 194.85499763 163.1341877 C194.851333 164.65827667 194.85435762 166.18240011 194.86488342 167.70645714 C194.94435733 180.17416844 193.38916647 190.21246826 184.49221802 199.43954468 C177.29425534 205.95573311 169.92944611 208.62168878 160.15057373 208.64837646 C159.4608225 208.65290758 158.77107127 208.65743869 158.06041849 208.66210711 C155.7675958 208.67468662 153.47501262 208.67313497 151.18215942 208.67147827 C149.53072304 208.6774675 147.87928944 208.68427396 146.2278595 208.6918335 C141.75465682 208.70945909 137.28153073 208.71418738 132.80829668 208.71546507 C130.01060095 208.71688901 127.21292454 208.72116319 124.41523361 208.7264595 C114.64661172 208.74494738 104.87804432 208.75313155 95.10940552 208.7515564 C86.01676744 208.75035487 76.92436669 208.77146255 67.83178866 208.80304372 C60.01330123 208.82922784 52.19489122 208.83992282 44.3763603 208.83864558 C39.71195902 208.83813664 35.04776884 208.84378251 30.38341141 208.86500168 C25.99529071 208.88442048 21.60758173 208.88448379 17.21944618 208.86996841 C15.61388228 208.86788383 14.00829235 208.87256029 12.4027729 208.88468933 C0.6224817 208.96788419 -7.95631363 207.66932107 -16.73825073 199.41220093 C-27.62422142 187.85974223 -30.26954267 175.22204311 -30.15402222 159.69320679 C-30.15781652 158.27234871 -30.16332563 156.85149436 -30.1703949 155.4306488 C-30.18422105 151.61239187 -30.17327203 147.79459204 -30.15668368 143.97636104 C-30.14270859 139.95680794 -30.1493072 135.93727806 -30.15281677 131.91770935 C-30.15550883 125.17222839 -30.14212919 118.42692639 -30.11886597 111.68148804 C-30.09225175 103.91118467 -30.09051634 96.14118004 -30.10225433 88.37084669 C-30.11307685 80.8578094 -30.10681079 73.34487891 -30.09269905 65.83185005 C-30.08697898 62.65152996 -30.08699024 59.47128906 -30.09176445 56.29096794 C-30.09657794 52.53886411 -30.08625424 48.78708257 -30.0648098 45.0350399 C-30.05669791 43.02168689 -30.06304425 41.00829139 -30.07000732 38.99493408 C-29.96329721 25.78441693 -27.86425173 14.59288942 -18.27731323 5.00595093 C-12.3960031 1.36513989 -6.94251219 0.00607652 0 0 Z " fill="#000000" transform="translate(413.6523132324219,1371.6190490722656)"/>
<path d="M0 0 C1.73231728 -0.00243156 3.46463316 -0.00615441 5.19694519 -0.01106262 C9.87656879 -0.02042396 14.5559815 -0.01108711 19.23558855 0.00226951 C24.14455709 0.01363205 29.05351597 0.00947289 33.9624939 0.00752258 C42.20208153 0.00664129 50.44158663 0.0176869 58.68115234 0.03613281 C68.19585943 0.05731193 77.7104458 0.06080631 87.22517169 0.05457085 C96.39606541 0.04886938 105.5669168 0.0545312 114.73780441 0.0657444 C118.63313966 0.07037856 122.52844892 0.07126939 126.42378616 0.06915855 C131.01213056 0.06727001 135.60035269 0.07542301 140.1886692 0.09121895 C141.86882204 0.09544807 143.54898731 0.09632162 145.22914314 0.09352875 C147.52932897 0.09028622 149.8291542 0.0994402 152.12930298 0.11161804 C153.41419931 0.11367091 154.69909565 0.11572378 156.02292824 0.11783886 C164.59766321 0.70430018 172.0759866 3.22365618 177.99365234 9.62231445 C184.96715492 18.36243768 184.89939384 29.06500902 184.87304688 39.7746582 C184.87567535 41.11626259 184.87567535 41.11626259 184.87835693 42.48497009 C184.88273566 45.42660501 184.87984545 48.36817897 184.87646484 51.30981445 C184.87714043 53.39265962 184.87811257 55.47550471 184.87936401 57.55834961 C184.88083682 61.93270617 184.87870503 66.3070423 184.87402344 70.68139648 C184.8684104 76.18428213 184.87166158 81.6871186 184.87744522 87.19000244 C184.89527582 106.94045228 184.88549793 126.69016142 184.36083984 146.43481445 C184.31529465 148.39427002 184.31529465 148.39427002 184.26882935 150.39331055 C183.85964353 163.28488009 181.52437906 175.15240922 171.74365234 184.37231445 C159.77413211 194.3872743 151.28562062 196.82608279 136.03125 196.76049805 C134.4404006 196.76456793 132.84955403 196.76991214 131.25871277 196.77642822 C126.9548623 196.79006039 122.65122851 196.78481959 118.34737444 196.77529097 C113.8317054 196.76767042 109.31605433 196.77474686 104.80038452 196.77944946 C97.21633593 196.78490117 89.6323751 196.77773194 82.04833984 196.76342773 C73.29825471 196.74711412 64.54837945 196.7523827 55.79829943 196.76890695 C48.26936354 196.78255258 40.74049057 196.78442612 33.2115463 196.77659094 C28.722118 196.77192979 24.2327881 196.77124625 19.74336624 196.78120041 C15.51941753 196.78991227 11.29573733 196.7837717 7.0718174 196.76651764 C5.52796053 196.76257471 3.98408079 196.76364893 2.44023323 196.77030563 C-9.84429377 196.81836068 -20.69717419 195.76097688 -30.25634766 187.37231445 C-39.77048444 177.00837127 -40.71077618 164.75780809 -40.62866211 151.20947266 C-40.63109682 149.83315761 -40.63482268 148.45684435 -40.63972473 147.08053589 C-40.64904193 143.38025036 -40.63978798 139.6802336 -40.6263926 135.97996926 C-40.61498282 132.08846826 -40.61919274 128.19697865 -40.62113953 124.3054657 C-40.6220192 117.77684191 -40.61100821 111.2483226 -40.5925293 104.71972656 C-40.57134006 97.19084684 -40.56785944 89.66211972 -40.57409126 82.1332162 C-40.57980043 74.86099393 -40.57412269 67.58882493 -40.56291771 60.31661034 C-40.55829498 57.23430577 -40.55738769 54.15203402 -40.55950356 51.06972694 C-40.56139766 47.43754391 -40.55319706 43.80551455 -40.53744316 40.17336655 C-40.53123107 38.2178672 -40.53469024 36.26234447 -40.53851318 34.30683899 C-40.47758346 24.14651498 -39.9739108 15.59302315 -32.79150391 7.77856445 C-23.73038277 -0.92011184 -11.73697667 -0.05790726 0 0 Z " fill="#000000" transform="translate(1188.25634765625,997.627685546875)"/>
<path d="M0 0 C1.64376556 -0.00435439 3.2875291 -0.00953995 4.93128967 -0.01548767 C9.37160166 -0.02881277 13.81182819 -0.02946346 18.25215626 -0.02692437 C21.97188166 -0.02584994 25.69159011 -0.03075022 29.41131186 -0.03552979 C38.19528217 -0.04660321 46.9792097 -0.04707503 55.76318359 -0.04101562 C64.79383047 -0.03498133 73.82432133 -0.04727801 82.85494161 -0.06858569 C90.63535016 -0.08626153 98.41570932 -0.09219354 106.19613719 -0.08894795 C110.83098901 -0.08714398 115.4657296 -0.08968174 120.10056305 -0.10366249 C124.46406501 -0.11633351 128.82732581 -0.11421008 133.19082451 -0.1012516 C134.78138502 -0.09890606 136.371963 -0.10154682 137.96250343 -0.10987473 C165.43588771 -0.24321461 165.43588771 -0.24321461 174.57324219 8.2746582 C182.01862577 17.02154842 181.87183931 27.73050392 181.86376953 38.66625977 C181.87048676 39.98293137 181.87720398 41.29960297 181.88412476 42.65617371 C181.90168306 46.24526104 181.90647583 49.83425281 181.90775633 53.42337894 C181.90918439 55.67269172 181.91346633 57.92198071 181.91875076 60.17128754 C181.93721811 68.03827946 181.94542561 75.90520391 181.94384766 83.7722168 C181.94264747 91.07325215 181.96373397 98.37399132 181.99533498 105.67495179 C182.02159847 111.96999046 182.03221074 118.26493298 182.03093684 124.56002593 C182.03043011 128.307928 182.03595114 132.05556654 182.05729294 135.80341339 C182.07684617 139.3330729 182.07668531 142.86222211 182.06225967 146.39190102 C182.05921598 148.28228393 182.07572805 150.17266785 182.09313965 152.06297302 C181.99892377 165.06391563 178.94702888 175.83851391 169.72558594 185.13793945 C162.08085686 192.23553087 154.61238457 196.3830293 144.12998962 196.42182922 C143.48504832 196.42550591 142.84010702 196.4291826 142.17562205 196.4329707 C140.01640592 196.44397577 137.85723798 196.44784601 135.69799805 196.45166016 C134.14877165 196.45792737 132.59954675 196.4645744 131.05032349 196.47157288 C125.96292157 196.49259066 120.87551944 196.50297533 115.78808594 196.51293945 C114.03376309 196.51698831 112.2794404 196.52110527 110.52511787 196.52528954 C102.27953854 196.54433872 94.03396813 196.55856852 85.78837103 196.5669015 C76.28664068 196.57666358 66.78514393 196.60295727 57.28349584 196.6434024 C49.92958667 196.67362512 42.57574421 196.68837633 35.22177416 196.69168252 C30.83446509 196.6940266 26.44740565 196.70290263 22.0601635 196.72814369 C17.92734897 196.75153652 13.79494641 196.75561301 9.66208267 196.74538231 C8.15249442 196.7448895 6.64288512 196.75113414 5.13335991 196.76493835 C-9.12154512 196.8879086 -19.58015365 193.78863138 -30.42675781 184.2746582 C-37.85204595 176.50496895 -42.5355719 167.35274983 -42.56719971 156.53926086 C-42.57290985 155.36878708 -42.57862 154.19831329 -42.58450317 152.99237061 C-42.58562103 151.71178772 -42.58673889 150.43120483 -42.58789062 149.11181641 C-42.59252117 147.7465349 -42.59754614 146.38125468 -42.60293579 145.01597595 C-42.61604127 141.30911565 -42.62250142 137.60227345 -42.62694645 133.89539361 C-42.62988088 131.57696494 -42.63398645 129.25854117 -42.63845062 126.94011497 C-42.65212226 119.679115 -42.66178988 112.41812628 -42.66565251 105.15711433 C-42.67012903 96.78906826 -42.68765934 88.42118589 -42.71665311 80.05318958 C-42.73831052 73.57658536 -42.748359 67.10002706 -42.74969363 60.62338704 C-42.75073899 56.75932624 -42.75658893 52.89541938 -42.77451324 49.03139687 C-42.79106378 45.39273517 -42.79311588 41.75434196 -42.78437424 38.1156559 C-42.78324395 36.15528018 -42.79690828 34.1949131 -42.81112671 32.23458862 C-42.76652679 22.74807301 -41.79204986 14.87834979 -35.08300781 7.7746582 C-25.36675579 -1.02496627 -12.31005565 -0.02165183 0 0 Z " fill="#000000" transform="translate(812.4267578125,997.725341796875)"/>
<path d="M0 0 C1.69951717 -0.00407135 3.39903169 -0.00941639 5.09854126 -0.01593018 C9.68944992 -0.02954254 14.28015508 -0.02433037 18.87106705 -0.01479292 C23.68968479 -0.00716469 28.50828583 -0.01425069 33.3269043 -0.01895142 C41.41686104 -0.02439978 49.50673546 -0.01724151 57.59667969 -0.00292969 C66.93188036 0.01339504 76.26688443 0.00810588 85.60208035 -0.0084089 C93.63635909 -0.02205 101.67057886 -0.02393062 109.70486546 -0.0160929 C114.4949573 -0.01143079 119.28495691 -0.01075113 124.07504272 -0.02070236 C128.57971718 -0.02940802 133.08413966 -0.02328476 137.58878708 -0.00601959 C139.23584959 -0.0020739 140.88293353 -0.00315569 142.52998734 -0.00980759 C154.18897141 -0.05253074 164.54512862 0.08360435 173.36328125 8.56396484 C181.07652765 16.90212704 181.34856089 24.98490209 181.32543945 35.80249023 C181.33055038 37.03923492 181.33566132 38.27597961 181.34092712 39.55020142 C181.35241526 42.92879959 181.354901 46.30715173 181.35236382 49.68575215 C181.3512895 52.51806699 181.35618981 55.35035955 181.36096925 58.18266958 C181.37204917 64.87578448 181.37251197 71.56884327 181.36645508 78.26196289 C181.36043148 85.133457 181.37268851 92.00474551 181.39402515 98.87620455 C181.41173593 104.80094477 181.41762724 110.72562014 181.4143874 116.6503858 C181.41258762 120.17752926 181.41507733 123.70452643 181.42910194 127.23164558 C181.44420354 131.17721483 181.43462804 135.12253017 181.4230957 139.06811523 C181.43073944 140.21302933 181.43838318 141.35794342 181.44625854 142.53755188 C181.34590892 158.19670413 177.7526976 173.67081072 166.80078125 185.38818359 C159.15411758 192.41839239 151.03525256 196.49656126 140.67672729 196.53535461 C139.36465805 196.54250992 138.05258881 196.54966522 136.70075989 196.55703735 C135.24826074 196.55987747 133.79576133 196.56258922 132.34326172 196.56518555 C130.81211697 196.57145279 129.28097373 196.57809983 127.74983215 196.58509827 C122.72255507 196.60611353 117.69527778 196.61649967 112.66796875 196.62646484 C110.93467315 196.63051363 109.20137771 196.63463059 107.46808243 196.63881493 C99.32235122 196.65786262 91.17662904 196.6720934 83.03087986 196.6804269 C73.64176932 196.690192 64.25289499 196.71649425 54.86386764 196.75692779 C47.59829605 196.78713801 40.33279197 196.80190049 33.06715882 196.80520791 C28.7318594 196.80755318 24.39681245 196.81644502 20.06158066 196.84166908 C15.97883504 196.86504033 11.89650648 196.86914697 7.81371117 196.8589077 C6.32144085 196.85841439 4.82914936 196.86467408 3.33694267 196.87846375 C-9.55977394 196.99090261 -19.51765047 194.59883225 -28.94921875 185.38818359 C-40.06883739 172.15524489 -43.26782929 160.63767433 -43.20800781 143.55395508 C-43.21151245 142.30874084 -43.21501709 141.06352661 -43.21862793 139.78057861 C-43.22587808 136.3942237 -43.22424102 133.00811599 -43.21786976 129.62177539 C-43.21276955 126.06124741 -43.2175122 122.50072925 -43.22064209 118.94020081 C-43.22426962 112.96459073 -43.21951411 106.98903026 -43.20996094 101.01342773 C-43.19907372 94.12420219 -43.20260878 87.23509503 -43.21361375 80.34587234 C-43.22271535 74.40841396 -43.22395805 68.47099102 -43.21873641 62.53352791 C-43.2156331 58.99712407 -43.21516204 55.46077572 -43.22180939 51.92437553 C-43.22870629 47.98054341 -43.2191233 44.03684193 -43.20800781 40.09301758 C-43.21205627 38.93484024 -43.21610474 37.7766629 -43.22027588 36.58338928 C-43.16491165 25.94821808 -41.97344622 17.67677201 -34.94921875 9.38818359 C-25.14070859 -0.27298843 -12.91737197 -0.0521689 0 0 Z " fill="#000000" transform="translate(1573.94921875,997.61181640625)"/>
<path d="M0 0 C0.69479835 -0.00367669 1.38959671 -0.00735338 2.10544956 -0.01114148 C4.42739348 -0.02213082 6.74929257 -0.02601406 9.07125854 -0.02983093 C10.73885743 -0.03609922 12.40645492 -0.04274635 14.0740509 -0.04974365 C19.54560379 -0.07074479 25.01715682 -0.08114308 30.48873901 -0.09111023 C32.37586354 -0.09515941 34.26298792 -0.09927638 36.15011215 -0.10346031 C45.01825762 -0.12250414 53.8863948 -0.13673628 62.75455678 -0.14507228 C72.97450604 -0.15483882 83.19423839 -0.18114651 93.41411126 -0.22157317 C101.32429913 -0.25178428 109.23442499 -0.26654593 117.14466941 -0.26985329 C121.86395077 -0.27219826 126.58300018 -0.28108634 131.30221939 -0.30631447 C135.74611279 -0.3296875 140.18962302 -0.33379154 144.63356209 -0.32355309 C146.25764177 -0.32305984 147.88174091 -0.32931758 149.5057621 -0.34310913 C160.74667148 -0.43316923 171.86138765 0.1466486 180.48483276 8.31513977 C188.17558227 17.73279386 189.28216895 28.32379823 189.39498901 39.99482727 C189.4144458 41.25958389 189.43390259 42.52434052 189.45394897 43.8274231 C189.50587027 47.24682329 189.54555031 50.6662598 189.58222198 54.08585358 C189.61394056 56.92769254 189.65216755 59.76943026 189.69018364 62.6111908 C189.92671291 80.41395125 190.07678282 98.21783421 190.10592651 116.02217102 C190.10860535 116.9387851 190.11128418 117.85539917 190.11404419 118.79978943 C190.18400995 149.9631741 190.18400995 149.9631741 187.29342651 163.08467102 C187.03287476 164.27721497 187.03287476 164.27721497 186.76705933 165.49385071 C184.37849123 175.59869424 179.64315962 183.24764349 170.98092651 189.14717102 C163.46464302 193.4173475 157.43097992 196.26440579 148.75872803 196.28761292 C147.4803154 196.29332306 146.20190277 196.2990332 144.88475037 196.30491638 C143.47003184 196.30616168 142.0553132 196.30728679 140.64059448 196.30830383 C139.14885842 196.31293389 137.65712353 196.3179588 136.16539001 196.323349 C132.11343222 196.33645997 128.06149098 196.34291582 124.00951529 196.34735966 C121.47532651 196.35029346 118.94114223 196.35439893 116.40695572 196.35886383 C108.47052465 196.37253748 100.53410389 196.38220388 92.59766185 196.38606572 C83.45083484 196.39054145 74.30415764 196.40806728 65.15737617 196.43706632 C58.07863845 196.45872572 50.99994274 196.46877233 43.92117226 196.47010684 C39.69770362 196.47115214 35.47437584 196.47700074 31.25094223 196.49492645 C27.27330394 196.51148018 23.29591125 196.51352749 19.31825066 196.50478745 C17.86468915 196.50402087 16.41111404 196.50830934 14.95758629 196.5182457 C0.2240779 196.61299215 -11.20837537 193.6366117 -22.26907349 183.52217102 C-32.32229038 172.89913617 -34.32263261 160.17795305 -34.29373169 146.18867493 C-34.29884262 144.90634476 -34.30395355 143.62401459 -34.30921936 142.30282593 C-34.32254156 138.80477655 -34.32319561 135.30683567 -34.32065606 131.80876589 C-34.31958165 128.87909633 -34.32448172 125.9494483 -34.32926148 123.01978338 C-34.34033339 116.10291944 -34.34080726 109.18610983 -34.33474731 102.26924133 C-34.32870996 95.15509787 -34.34101771 88.04115231 -34.36231738 80.9270426 C-34.37998293 74.79937444 -34.38592693 68.67176899 -34.38267964 62.54407632 C-34.3808744 58.89299848 -34.38342648 55.24206181 -34.39739418 51.59100723 C-34.41240459 47.5153613 -34.4029593 43.44011337 -34.39138794 39.36445618 C-34.39903168 38.16932907 -34.40667542 36.97420197 -34.41455078 35.74285889 C-34.35031676 25.47477665 -32.86064802 16.21227519 -25.48782349 8.55732727 C-18.17389851 1.75870155 -9.78638458 0.03366989 0 0 Z " fill="#000000" transform="translate(418.0190734863281,997.8528289794922)"/>
</svg>
