<svg xmlns="http://www.w3.org/2000/svg" viewBox="0 0 551.97 543.91">
    <path d="M2.26,372.91C.49,369.38-.06,370.19,0,373a118.77,118.77,0,0,0,1.69,12.23c1.2,1,2.53,1.94,3.82,2.87l3.86,2.75C6.56,385,4.52,378.94,2.26,372.91Z" transform="translate(0.03 -6.77)" fill="currentColor"/>
    <path d="M18.64,413.11l3.85,4.07c.64.67,1.27,1.35,1.92,2l2,1.92c2.72,2.54,5.37,5.09,8.1,7.54-1.83-1.87-3.55-3.82-5.34-5.75L26.54,420l-1.34-1.46L24,417c-3.26-8.17-1.75-8.28,1-5.83a59.86,59.86,0,0,1,4.69,5c1.72,1.8,3.33,3.6,4.41,4.8-1-1.39-1.95-2.64-2.81-3.74L30,415.63l-1-1.41a30.27,30.27,0,0,0-3.26-3.81c-1.75-1.67-2.74-1.74-3.39-1.14C21,410.45,21,414.36,18.64,413.11Z" transform="translate(0.03 -6.77)" fill="currentColor"/>
    <path d="M46.42,445.76c1.07,1.36,2,2.47,2.82,3.36a19.71,19.71,0,0,0,2.18,2c1.21.91,1.95,1.09,2.3.79.72-.6-.12-3.07-1.61-5.56C50.48,446.58,43.54,440.63,46.42,445.76Z" transform="translate(0.03 -6.77)" fill="currentColor"/>
    <path d="M489.74,100.16c1.63,4.12,3.2,8.5,2.1,8.33,1.44,1.78,2.45,2.8,2.37,1.84a13.4,13.4,0,0,0-1-3.07c-.33-.81-.75-1.78-1.27-2.94S490.59,101.75,489.74,100.16Z" transform="translate(0.03 -6.77)" fill="currentColor"/>
    <path d="M491.84,108.49c-.55-.69-1.14-1.42-1.81-2.31.47.77.85,1.43,1.43,2.29C491.69,108.65,491.7,108.47,491.84,108.49Z" transform="translate(0.03 -6.77)" fill="currentColor"/>
    <path d="M500.47,374.65a45.06,45.06,0,0,1-4.66,15.06c-2.15,4.29-4.61,8.3-7.66,13.66-1.23.55-2.43,1.09-3.66,1.61l-3.71,1.52a47.68,47.68,0,0,0-3.36,6.07,6.38,6.38,0,0,0-.59,2.86,8.87,8.87,0,0,1-.08,2.42,16.23,16.23,0,0,1-2.14,4.85,102,102,0,0,0-9.35,8.36c-3.42,3.36-7.13,7.18-10.65,10.93-7.1,7.5-13.53,14.89-16.08,17.45-2.41,1.15-1.82-.43-.51-2.63s3.35-4.95,3.77-6.22c-1.56,1.86-2.88,3.53-4,5s-2.08,2.91-2.91,4.2-1.55,2.5-2.23,3.66l-.5.87-.12.22c0,.07,0,0,0,.06l.08.09c0,.18.17.27-.06.64-.08.17-.14.31-.25.5l-.44.65c-.3.44-.61.89-.95,1.36a33.68,33.68,0,0,1-2.4,3c-1,1-2.21,2.11-3.62,3.32-.72.6-1.43,1.27-2.33,1.89s-1.84,1.27-2.87,2l-.9-.75c-9,7.71-20.48,14.63-33.35,20.4a253,253,0,0,1-42,14c-29.7,7.3-61.46,10.73-91.17,12.18,4,.3,3,1.1,4.57,1.94a377.09,377.09,0,0,1-48.42-1.95l-3.05-.31-3-.39-6.07-.78c-4-.67-8-1.2-12-2-2-.4-4-.69-5.91-1.16l-5.82-1.3c-3.79-1-7.63-1.91-11.25-3.11l-2.75-.84c-.9-.3-1.77-.63-2.65-1-1.77-.66-3.49-1.18-5.34-2l-10.9-4.53q-5.31-2.44-10.55-4.79l-1.31-.58-1.28-.64-2.55-1.26-5.07-2.47c-3.41-1.56-6.59-3.39-9.84-5l-4.82-2.46c-1.58-.84-3.1-1.72-4.65-2.56l-4.6-2.49c-1.52-.82-3.07-1.58-4.51-2.45q-4.38-2.52-8.69-4.84c1.74,1.32,3.52,2.73,5.36,4.2s3.69,3.06,5.72,4.54l6.13,4.72c1,.79,2.08,1.66,3.18,2.43l3.33,2.38,6.82,4.91,7.2,4.74,3.67,2.39c1.21.82,2.51,1.51,3.77,2.27l7.66,4.47c1.27.76,2.61,1.4,3.92,2.09l3.95,2c2.65,1.3,5.25,2.73,7.93,3.79l4,1.67L158,524.9c1.35.44,2.67,1,4,1.31l4.05,1.1a107,107,0,0,0,30.15,3.53,47.21,47.21,0,0,0,10.55,2.64c1.89.28,3.82.5,5.73.71s3.83.29,5.67.43l5.31.42c1.68.13,3.25.28,4.68.5,2.85.43,5.11,1.12,6.43,2.2a209.1,209.1,0,0,0,33.49.31c2.47-.18,4.87-.39,7.23-.6s4.65-.56,6.92-.86c4.54-.54,8.91-1.37,13.27-2.1s8.66-1.7,13.06-2.59l6.66-1.47,3.4-.73,3.46-.81q3.5-.81,7.15-1.61c2.43-.59,4.93-1.19,7.51-1.77s5.22-1.23,8-1.89,5.57-1.27,8.48-2c6.89-1,4.13,1.83,6.57,3.24a358.44,358.44,0,0,1-37.67,9.65c4-.37,7.93-.63,11.87-1.14s7.91-.88,11.84-1.51c-1.21.5-2.66,1-4.28,1.5s-3.41.91-5.29,1.35-3.85.91-5.84,1.34l-6,1.19c-3.9.83-7.59,1.54-10.44,2.34s-4.89,1.7-5.51,2.69c8.43-2.17,18.14-4.08,28.34-6.45,5.11-1.08,10.31-2.43,15.59-3.66,5.23-1.43,10.55-2.73,15.74-4.38,5.23-1.49,10.33-3.32,15.31-5,4.92-2,9.74-3.76,14.19-5.93a132.81,132.81,0,0,0,12.47-6.55c1-.54,1.88-1.14,2.76-1.74l2.6-1.77c1.67-1.19,3.3-2.28,4.73-3.51-12.47,6-28.08,13.72-43.93,18.39-7.29,1-18.33,2.89-18.12.73,10.91-4.32,21.17-8.48,31-12.83a310.89,310.89,0,0,0,28.08-14.18c2.19-1.35,4.46-2.61,6.61-4l6.42-4.3,6.15-4.66c1.06-.75,2-1.66,2.95-2.49l2.91-2.55a15.2,15.2,0,0,0,1.19-1.08l1.17-1.27,3-3.22,6-6.45c4-4.31,8.15-8.68,12.26-13.16s9.08-9.58,13.24-13.6,7.54-7,8.93-7.06c-4.69,6.25.47,3-3.2,8.36,5.14-6.82,4-8.33,3.79-10.31a6.11,6.11,0,0,1,1.09-4.06,28,28,0,0,1,2.47-3.69c1.08-1.53,2.59-3.33,4.37-5.62,1.23,2.16,2.47,4.37,3.63,6.57.06-6,4.53-11.57,9.21-18.26,1.12-1.69,2.38-3.39,3.45-5.22.56-.91,1.11-1.83,1.65-2.77s1-1.91,1.47-2.89l.7-1.47.6-1.51c.39-1,.75-2,1.08-3.07a32.78,32.78,0,0,0,1.18-6.34c2.21-2.44,2.91-.92,2.43,2.84a56.7,56.7,0,0,1-5.25,15.64,39.16,39.16,0,0,0,2.39-4.46,28.12,28.12,0,0,0,1.48-3.78c.36-1.16.66-2.22.87-3.24s.33-2,.45-2.93c.49-3.75.55-7.16,2.14-12.84q.68,3.06,1.31,6.23c.34,2.09.7,4.23,1,6.39a32.54,32.54,0,0,1,3.42-17.21c1-2.4,2.4-4.59,3.52-6.67a50.18,50.18,0,0,0,2.91-5.84c-.65-.53-2.28.79-3.47.19-.59-.3-1.07-1.07-1.27-2.77a20,20,0,0,1-.06-3.3c0-1.37.12-3,.32-5.06,1.16-6.93,2.4-3.29,3.32-4.91a4.54,4.54,0,0,1-1.17-1.67,27.81,27.81,0,0,1-1.26-3.52,48.53,48.53,0,0,1-1.6-12.53c2-2,2.92,7.17,4.92,7.92,0-4.12-.17-7.86-.07-11.32a43.1,43.1,0,0,1,.77-9.68c-1.16-7.27-1.86-7-2.58-6s-1.46,2.68-2.73-1.67c-.29-11.09,1.29-11.84,3.45-10.83s4.8,3.81,6.47-.56c.55,2.1,1.07,4.29,1.58,6.53.25,1.12.51,2.25.74,3.39s.37,2.3.55,3.45c.73,4.62,1.37,9.3,2,13.74s.74,8.67,1.09,12.35c.17,1.85.33,3.56.51,5.11.09.78.18,1.51.26,2.19s.14,1.36.2,2v-2.14l-.1-2.1-.18-4.2-.38-8.37c-.08-1.39-.12-2.79-.21-4.18l-.4-4.16-.8-8.3c.6.47,1.08-.72,1.5-2.5.21-.89.41-1.93.61-3s.32-2.11.47-3c.61-3.76,1.45-5.64,3.33,3.16a260.14,260.14,0,0,0-6.81-53.21,443.41,443.41,0,0,0-15.13-50c.48,4.56,1.61,10.26,0,9.74a73,73,0,0,1-2.83-8.78,15.51,15.51,0,0,1-.67-4.61c.12-2.14,1.08-2.84,1.36-4.7a30.57,30.57,0,0,0-3.6-6.11,16.09,16.09,0,0,0-3.33-3c-2.16-1.49-4.29-2.35-6.88-5.34a220,220,0,0,0-6.93-25.24c-.51-1.58-1-3.15-1.46-4.76s-1-3.28-1.47-5.08-1-3.75-1.44-5.92-1.06-4.52-1.61-7.2L498,128.08a42.2,42.2,0,0,0-1.38-5,30.57,30.57,0,0,0-1.68-3.86,41.05,41.05,0,0,0-3.81-5.92,61.7,61.7,0,0,1-4.18-6,54.6,54.6,0,0,1-4.67-9.2c.13-.62,1.21.33,2.69,2s3.42,4,5,6a53.15,53.15,0,0,1-4.36-7.64c-.46-1-.82-2-1.13-2.9s-.67-1.72-1-2.55a38.06,38.06,0,0,0-2.39-5.31c-.27-.5-.57-1-.91-1.55-.17-.27-.35-.55-.54-.82l-.65-.83c-.91-1.12-2-2.35-3.33-3.71l5.5,3.4q2.59,1.86,5.23,3.8l-2.8-4-.74-1-.81-1-1.62-1.94-3.11-3.76c-.49-.61-1-1.19-1.42-1.76l-1.39-1.56c-3.5-4-5.12-6.57-1.54-5.49-1.15-.81-2.3-1.71-3.52-2.61s-2.54-1.75-3.84-2.7-2.63-1.93-4-3-2.83-1.93-4.26-3-2.92-2-4.42-3.08-3.1-2-4.67-3l-4.8-3-5-2.78c-1.7-.9-3.35-1.92-5.1-2.74l-5.22-2.47c-3.46-1.74-7.06-3-10.55-4.37-.88-.33-1.74-.7-2.62-1l-2.63-.83-5.18-1.55c-1.69-.54-3.4-.85-5.06-1.22s-3.3-.69-4.89-1l2.58-2.81c-.88,0-1.85,0-2.87-.13s-2.12-.15-3.27-.29c-2.31-.25-4.83-.67-7.5-1.16s-5.51-.84-8.41-1.34c-1.45-.28-2.93-.44-4.41-.65L369,22.4c-3-.45-5.92-.62-8.78-.84-1.42-.1-2.83-.2-4.19-.26s-2.7,0-4,0a52.66,52.66,0,0,0-7,.48,23,23,0,0,0-5.27,1.4l-1.91-1.42c-2.17.32-4.32.82-6.46,1.25s-4.27.84-6.39,1.35c-4.23,1.06-8.43,2-12.57,3.22a18.49,18.49,0,0,1-6.14-.42,3.84,3.84,0,0,1-2.37-1.45c-.72-1.07-.09-2.09-.47-1.32-12.64,2-23.75,4.41-33.7,6.78s-18.79,4.53-26.89,6.35c-.63,1.39-2.64,3.12-5.59,5S230.41,46.6,226,48.9c-2.17,1.21-4.48,2.42-6.84,3.69l-7.2,4c-2.38,1.43-4.83,2.77-7.18,4.21s-4.69,2.83-6.9,4.25a281.42,281.42,0,0,0-61,46.48,274.49,274.49,0,0,0-46.54,62,254.67,254.67,0,0,0-15.6,35.15l-3,9c-.89,3-1.71,6.1-2.55,9.13S67.66,232.93,67,236s-1.41,6.08-1.84,9.17-1,6.12-1.46,9.16-.66,6.13-1,9.17c-.15,1.52-.32,3-.45,4.55l-.21,4.56c-.12,3-.31,6-.36,9s.07,6,.11,9c0,1.49,0,3,.1,4.45s.21,2.95.31,4.42l.63,8.76q.57,4.33,1.12,8.62c.15,1.71.36,3.5.68,5.35s.86,3.73,1.38,5.66a107,107,0,0,0,3.82,12l2.35,6.11c.81,2.05,1.54,4.1,2.49,6.11,1.78,4,3.5,8.05,5,12-.92-5-1.78-8.91-2.62-12.18-.22-.82-.43-1.6-.64-2.36s-.34-1.49-.51-2.2c-.34-1.43-.69-2.78-1-4.12-.7-2.7-1.52-5.38-2.23-8.65s-1.25-7.14-1.9-12.15a56.9,56.9,0,0,1,.72-9.91c.22-1.44.49-2.8.78-4.1s.74-2.54,1.13-3.77c1.67-4.89,3.3-9.44,5.15-15.65-1.36,2.08-2.8,4.19-4.09,6.34a68.53,68.53,0,0,1-.67-10.91,22.19,22.19,0,0,1,.81-5.51,21.2,21.2,0,0,0,.73-4.71,85.61,85.61,0,0,0-.48-8.65l6.1,1.51a13,13,0,0,1-.6-5.55c.08-1.08.22-2.22.42-3.38s.58-2.31.94-3.48c.72-2.32,1.58-4.62,2.43-6.64a26,26,0,0,1,1.34-2.79c.45-.84.87-1.59,1.25-2.22q-1.45-3-2.88-6.05l1-2.11,1.05-2,2-3.65a58.3,58.3,0,0,1,3.57-6.06c2.41-3.43,4.59-5.74,7-6.75L94.36,216c1.92-1.74,6.51-12.68,11.2-20.91,2.45-4,4.74-7.5,6.32-8.91.83-.69,1.47-.88,1.85-.4s.47,1.6.37,3.6c.41-1.78.7-3.56,1.36-5.76a24.91,24.91,0,0,1,1.4-3.61,23,23,0,0,1,2.65-4.32l4,1.17c.67-1.22,1.35-2.46,2-3.7s1.36-2.48,2.13-3.64c1.48-2.36,3-4.62,4.39-6.62,3-3.92,5.71-6.76,7.55-7.33-3,5.34-2.87,7.95-2.66,10.55,7.16-9,10.87-14.3,12.46-17.92s1.18-5.49.56-7.3-1.41-3.58-.1-6.76a28.06,28.06,0,0,1,3.73-6.13c1-1.28,2.19-2.63,3.62-4.18s3.06-3.28,5.09-5.07l1.35,2.23,3.15-4.65,1.59-2.33,1.66-2.28,5.42-2.45c1.81-.79,3.66-1.52,5.48-2.28,3.32-8.21,15.82-17.3,30.32-24.86l5.51-2.79,5.59-2.62c3.75-1.66,7.45-3.29,11.16-4.8,7.36-3.07,14.39-6,20.21-9.06a33,33,0,0,1,3.79-1.25c1.34-.35,2.78-.6,4.27-.85s3.06-.46,4.69-.66l5.13-.48c3.53-.39,7.39-.59,11.48-1.14s8.49-1.13,13.22-2l-1.89-3.69c8.05.61,26.64-.28,44.47,2.19a123.52,123.52,0,0,1,24.59,5.55,56.28,56.28,0,0,1,9.16,4,38.15,38.15,0,0,1,3.4,2.15c.5.36,1,.71,1.38,1.07A14.72,14.72,0,0,1,378.5,69c13.44.06-1.13-1.12-.23-4.13,3.27.3,6.21.54,8.74,1s4.71,1.08,6.65,1.67a42,42,0,0,1,4.93,2.13A21,21,0,0,1,402.35,72c1.08.83,2,1.66,3,2.49A36.2,36.2,0,0,1,408,77c.86.92,1.76,1.84,2.75,2.77s2.12,1.82,3.28,2.92c6.8,2.87,4.63,1.15,1.68-1.17l-2.21-1.77a14,14,0,0,1-1.78-1.48c-.82-.86-.73-1.41,1.46-1.14,4.8,3.44,8.19,5.6,11,7.3.71.4,1.4.76,2.07,1.09s1.35.62,1.94,1c1.23.65,2.43,1.21,3.69,1.81a37.67,37.67,0,0,1,8.23,5.18,21,21,0,0,1,2.38,2.22c.81.83,1.67,1.75,2.58,2.75.44.51.94,1,1.38,1.59l1.32,1.86c.91,1.29,1.86,2.68,2.86,4.19,0,1.78-1.48.55-3.3-1.27-.91-.91-1.91-2-2.85-2.9a9.94,9.94,0,0,0-2.76-1.86l1.57,1.15c.27.21.54.4.8.62l.75.71c1,1,2,2,3.1,3,.52.55,1.06,1.1,1.61,1.66s1,1.23,1.5,1.87l3.07,4a19.78,19.78,0,0,1,1.47,2.18l1.41,2.31,1.44,2.36.73,1.2c.25.43.5.93.75,1.4l3,5.8,2.95,6.1c7.87,16.53,14.9,35.19,21.07,51.69,5.3,19.5,11.48,43.68,15.21,68.85.43,3.15.85,6.3,1.28,9.47l.64,4.74.44,4.75.87,9.47c.07.79.15,1.58.2,2.36l.1,2.36.21,4.68c.12,3.11.25,6.21.38,9.28q-.06,4.58-.12,9.08c0,1.5,0,3-.07,4.46s0,2.95-.16,4.4q-.33,4.33-.66,8.55l1.43.85c-.23,1.16-.44,2.34-.62,3.51s-.31,2.38-.52,3.46c-.38,2.22-.59,4.49-.92,6.69q-.21,1.68-.39,3.36l-.42,3.33c-.22,2.26-.58,4.45-.86,6.69-1.3,8.87-3.31,17.76-7.7,25.87.87-1.25,1.82-2.48,2.67-3.78S499.7,376,500.47,374.65Z" transform="translate(0.03 -6.77)" fill="currentColor"/>
    <path d="M297.89,547.75c1.43,1,2.86,2,4.3,2.94,3.81-.8,7.61-1.52,11.38-2.45s7.54-1.71,11.28-2.74a39,39,0,0,0-12.26.41l-3,.55-3.36.51C303.8,547.3,301.1,547.61,297.89,547.75Z" transform="translate(0.03 -6.77)" fill="currentColor"/>
    <path d="M301.77,537c-3.84,1-7.71,1.78-11.59,2.62,3.17-.32,6.34-.54,9.5-.94l9.47-1.14Z" transform="translate(0.03 -6.77)" fill="currentColor"/>
    <path d="M530.2,387.72l-1.53,2.62a138.37,138.37,0,0,1-8.22,20.54A164.64,164.64,0,0,1,509.2,430,148.24,148.24,0,0,0,530.2,387.72Z" transform="translate(0.03 -6.77)" fill="currentColor"/>
    <path d="M493.6,100a30.86,30.86,0,0,1,5.41,7.42,71,71,0,0,0,4.76,7.69c-1.76-3-3.5-6-5.37-9-.93-1.51-1.78-3-2.79-4.51l-3.16-4.72Z" transform="translate(0.03 -6.77)" fill="currentColor"/>
    <path d="M307.18,6.77a15.54,15.54,0,0,1-2.91,2.05,16.18,16.18,0,0,1-2.73,1.25,16.3,16.3,0,0,1-4,.82c-1.73.14-1-.11,4.79,1.92,3.2-.7,4.92-1.13,5.71-1.63s.67-.93.26-1.39C307.43,8.89,305.39,8,307.18,6.77Z" transform="translate(0.03 -6.77)" fill="currentColor"/>
    <path d="M260.45,24.3c1.81-.43,3.4-.86,4.83-1.31s2.71-.83,3.88-1.27c2.33-.85,4.23-1.75,6.13-2.64-5.08-.24-7.57.44-9.38,1.46S263,23,260.45,24.3Z" transform="translate(0.03 -6.77)" fill="currentColor"/>
</svg>