<?xml version="1.0" encoding="UTF-8"?>
<svg version="1.1" xmlns="http://www.w3.org/2000/svg" width="2134" height="2134">
<path d="M0 0 C0.6899707 0.45584473 1.37994141 0.91168945 2.09082031 1.38134766 C16.68336177 11.07830431 30.56683909 21.7587328 44 33 C44.99837891 33.82870605 45.99675781 34.65741211 47.02539062 35.51123047 C55.70454631 42.78471542 63.82666372 50.5151636 71.80639648 58.5456543 C73.82117835 60.57122482 75.84653275 62.58578384 77.87304688 64.59960938 C85.04507869 71.76435627 91.72783933 79.0271172 98 87 C98.92258844 88.09049681 99.85226746 89.17508894 100.79296875 90.25 C120.06577796 112.38386246 135.90772689 137.32254398 150 163 C150.43119141 163.77730469 150.86238281 164.55460937 151.30664062 165.35546875 C187.57102303 230.97673215 205.28408865 307.52078936 205.1875 382.25 C205.18659363 383.55792511 205.18659363 383.55792511 205.18566895 384.89227295 C204.99850307 485.09677293 172.25707601 581.94999472 68.625 709.5 C67.98336914 710.14630371 67.34173828 710.79260742 66.68066406 711.45849609 C62.28399478 715.84041145 57.70767564 719.95616621 53 724 C51.87068465 724.98520835 50.7417587 725.97086327 49.61328125 726.95703125 C41.95512343 733.60120498 34.14072425 739.95453999 26 746 C25.33516602 746.49612793 24.67033203 746.99225586 23.98535156 747.50341797 C6.88089531 760.22020936 -11.04893654 771.30859146 -29.65332031 781.68945312 C-31.08772081 782.49052073 -32.51993401 783.29554144 -33.94824219 784.10742188 C-116.56255813 831.0671383 -217.91246793 844.87672118 -371.11791992 820.18579102 C-437.62101889 801.39560218 -499.31902245 767.87181407 -551 722 C-551.96035156 721.15179687 -552.92070313 720.30359375 -553.91015625 719.4296875 C-561.6356408 712.44723374 -569.00264311 705.10096358 -576.375 697.75 C-577.15855865 696.97045959 -577.15855865 696.97045959 -577.95794678 696.1751709 C-583.85690611 690.2991593 -589.63724046 684.37710835 -595 678 C-595.53431641 677.3723877 -596.06863281 676.74477539 -596.61914062 676.09814453 C-656.98400159 604.8250575 -694.10225034 516.96455047 -703 424 C-703.09571289 423.02820801 -703.19142578 422.05641602 -703.29003906 421.05517578 C-705.9834008 389.46368367 -705.43131316 356.40140781 -701 325 C-700.90289734 324.30400696 -700.80579468 323.60801392 -700.70574951 322.89093018 C-693.37323705 270.69094411 -677.5252443 222.18675067 -654 175 C-653.57219238 174.14035645 -653.14438477 173.28071289 -652.70361328 172.39501953 C-635.32258467 137.75016877 -612.20068415 105.9748537 -586.14453125 77.36328125 C-584.77363184 75.8525451 -583.41546254 74.33009399 -582.07421875 72.79296875 C-576.91411766 66.91145547 -571.4597343 61.35325588 -565.9375 55.8125 C-565.18154541 55.05195312 -564.42559082 54.29140625 -563.64672852 53.5078125 C-558.92586719 48.79978937 -554.06260558 44.3362519 -549 40 C-547.91704718 39.05052926 -546.83496904 38.10005966 -545.75390625 37.1484375 C-520.38851561 15.02227313 -492.41683192 -3.72543592 -463 -20 C-462.21399414 -20.43699219 -461.42798828 -20.87398437 -460.61816406 -21.32421875 C-373.98033037 -69.19042521 -271.13039661 -83.50701741 0 0 Z M-402 51 C-402.81919922 51.38768555 -403.63839844 51.77537109 -404.48242188 52.17480469 C-421.7654362 60.41155741 -438.31080596 70.01559564 -454 81 C-454.67240723 81.47018555 -455.34481445 81.94037109 -456.03759766 82.42480469 C-465.46980636 89.04860472 -474.541516 95.88936794 -483.21289062 103.48388672 C-484.58190412 104.64530391 -485.9761906 105.77698846 -487.38085938 106.89501953 C-494.36182805 112.46041687 -500.737917 118.42743508 -507.01660156 124.75585938 C-508.62347307 126.37346287 -510.24078494 127.98006913 -511.859375 129.5859375 C-518.35293882 136.07132685 -524.27472 142.81678454 -530 150 C-530.92234125 151.07906721 -531.8518193 152.15214101 -532.79296875 153.21484375 C-591.64141315 220.12734905 -619.69691589 314.35250941 -614.18737793 402.43792725 C-612.72997121 424.74556676 -609.06238064 446.75621962 -602 468 C-601.74524902 468.78310547 -601.49049805 469.56621094 -601.22802734 470.37304688 C-592.4545893 496.97389101 -578.33173542 519.76935614 -560.50341797 541.16992188 C-558.24713597 543.91644507 -556.08779678 546.73270421 -553.9375 549.5625 C-549.79492415 554.9937273 -545.55384111 560.33737227 -541.27612305 565.66259766 C-537.46878324 570.404472 -533.70912672 575.18074732 -530 580 C-526.85533896 578.6056926 -524.72684865 576.97621327 -522.30119324 574.5484314 C-521.58219345 573.8336261 -520.86319366 573.1188208 -520.12240601 572.38235474 C-519.34362091 571.59795013 -518.56483582 570.81354553 -517.76245117 570.00537109 C-516.52023048 568.76599792 -516.52023048 568.76599792 -515.25291443 567.50158691 C-512.51135301 564.76373536 -509.77706949 562.018738 -507.04296875 559.2734375 C-505.1381822 557.3664511 -503.23204429 555.46081742 -501.32600403 553.55508423 C-497.32711751 549.55526122 -493.33212022 545.55158693 -489.33959961 541.54541016 C-484.73960182 536.92973541 -480.13444776 532.31925859 -475.52623767 527.71178377 C-470.60494406 522.79116908 -465.68748075 517.86673995 -460.77110887 512.94120836 C-459.36282579 511.53080562 -457.95376423 510.12118034 -456.54469872 508.7115593 C-453.90252419 506.0672033 -451.2636767 503.41957127 -448.62573242 500.77099609 C-447.85302002 499.99873688 -447.08030762 499.22647766 -446.28417969 498.43081665 C-442.98977413 495.11709649 -439.77387677 491.78804906 -436.73799133 488.23501587 C-431.65962376 482.35080181 -426.07143341 476.94888431 -420.56640625 471.46875 C-419.31544019 470.21970619 -418.06470389 468.97043224 -416.81417847 467.72094727 C-414.13380925 465.04372447 -411.45189802 462.3680597 -408.76876831 459.69360352 C-404.52088992 455.4593156 -400.27688917 451.22115522 -396.03344727 446.98242188 C-386.26013112 437.22111828 -376.48179729 427.46484619 -366.70341492 417.70861816 C-357.73692276 408.76233706 -348.77150832 399.81498288 -339.81014538 390.86356354 C-335.59693327 386.65531556 -331.38129933 382.44951378 -327.16375732 378.24560547 C-324.53528237 375.62462129 -321.90890911 373.00153869 -319.28308487 370.37789917 C-318.07104093 369.16771767 -316.85813769 367.95839606 -315.64428329 366.75003052 C-308.37577598 359.56578525 -308.37577598 359.56578525 -301.5057373 352.0057373 C-296.49888202 346.14921006 -290.93141191 340.80927816 -285.47460938 335.37695312 C-284.21379124 334.1180572 -282.95320284 332.85893117 -281.69282532 331.59959412 C-278.99117511 328.90109052 -276.28798276 326.20414494 -273.58357239 323.50840759 C-269.30208956 319.24051421 -265.02448345 314.96874928 -260.74743652 310.69641113 C-250.89671487 300.85770252 -241.04097574 291.02402509 -231.18518829 281.19039154 C-222.14778293 272.17319668 -213.11145492 263.15492908 -204.07917833 254.13259649 C-199.83251456 249.89089716 -195.58342877 245.651644 -191.33243561 241.41428375 C-188.68320197 238.77254036 -186.03606954 236.12869902 -183.38948631 233.48430061 C-182.16776696 232.26444386 -180.94518821 231.04544707 -179.72165871 229.82740593 C-174.25874557 224.38821564 -168.87195885 218.95102915 -163.86025047 213.08707428 C-159.43365474 208.12073548 -154.62489033 203.49593513 -149.91430664 198.80078125 C-148.70125187 197.58800901 -147.48841816 196.37501562 -146.27578735 195.16181946 C-143.00374748 191.88949418 -139.72864671 188.62024835 -136.45296407 185.35157013 C-133.02254214 181.92742478 -129.59497619 178.50042298 -126.167099 175.07373047 C-119.68467439 168.59440652 -113.19970622 162.11763462 -106.71380752 155.64178848 C-99.32607037 148.26525183 -91.94119276 140.88585521 -84.55654728 133.50622368 C-69.37419856 118.33431069 -54.18828409 103.16597107 -39 88 C-40.2755987 84.17320389 -41.36719883 83.99837561 -44.8984375 82.21484375 C-45.92533691 81.68947021 -46.95223633 81.16409668 -48.01025391 80.62280273 C-49.12062012 80.06665283 -50.23098633 79.51050293 -51.375 78.9375 C-53.6825173 77.76085904 -55.98980716 76.58377198 -58.296875 75.40625 C-59.44091797 74.82617188 -60.58496094 74.24609375 -61.76367188 73.6484375 C-66.07327778 71.4533214 -70.35127206 69.20143081 -74.625 66.9375 C-76.14825175 66.13506396 -77.67169189 65.33298544 -79.1953125 64.53125 C-81.71162207 63.20632311 -84.227125 61.87992394 -86.74121094 60.55078125 C-183.37288378 9.49513339 -291.08768849 1.24048571 -402 51 Z M37.02199775 157.72845459 C36.20331802 158.54735168 35.3846383 159.36624878 34.54115009 160.20996094 C34.08339031 160.66511343 33.62563053 161.12026593 33.15399924 161.58921093 C31.60399266 163.13286472 30.06128619 164.68361969 28.51838684 166.234375 C27.4042544 167.34692085 26.28968445 168.45902871 25.17471236 169.57073307 C22.09839113 172.64061014 19.02838593 175.71673787 15.95933187 178.79387784 C12.65331681 182.10644713 9.34156799 185.41327508 6.03051758 188.72080994 C-0.46217198 195.20844601 -6.94948791 201.70143031 -13.43503144 208.19620925 C-20.98656723 215.75811242 -28.54331052 223.31480255 -36.10027484 230.87128007 C-49.58765017 244.35815418 -63.07018078 257.84986117 -76.55004883 271.34423828 C-89.62911499 284.43737483 -102.71166054 297.52702158 -115.7980957 310.61279297 C-116.60308824 311.41774554 -117.40808077 312.22269812 -118.23746701 313.0520432 C-119.04106624 313.85560207 -119.84466547 314.65916094 -120.67261618 315.48707008 C-135.56363612 330.37739954 -150.45136022 345.27102041 -165.33756074 360.16616786 C-170.60193061 365.43355176 -175.86727445 370.69996088 -181.13292503 375.96606445 C-187.55617569 382.38999837 -193.9775243 388.81582687 -200.39653017 395.2440024 C-203.67103235 398.52311232 -206.94630386 401.80144339 -210.22374153 405.07761955 C-213.22695943 408.07973758 -216.22784056 411.08417139 -219.22690848 414.09043503 C-220.30954786 415.17487864 -221.39301628 416.25849538 -222.47741773 417.34117699 C-227.63406409 422.49055311 -232.68894843 427.67437807 -237.43471414 433.20915794 C-239.98014931 436.12138788 -242.70848469 438.83978962 -245.45129395 441.56481934 C-246.06078526 442.17445951 -246.67027658 442.78409968 -247.29823732 443.4122138 C-249.31690066 445.43018926 -251.33910248 447.44457925 -253.36132812 449.45898438 C-254.81918776 450.91492249 -256.27681815 452.37109019 -257.73423767 453.82746887 C-260.86150754 456.95158876 -263.99032156 460.07415084 -267.12034607 463.19551086 C-272.07391894 468.13551197 -277.02363128 473.07936914 -281.97277832 478.02380371 C-293.37160945 489.41061355 -304.7754546 500.79239754 -316.17934418 512.17414093 C-326.63501446 522.60961001 -337.08961362 533.04614625 -347.54016256 543.4867444 C-352.45585935 548.39747144 -357.37398123 553.30575259 -362.29399872 558.21215057 C-365.35840683 561.26907743 -368.42072206 564.32809435 -371.48248482 567.38767052 C-372.89771227 568.80103264 -374.31380058 570.21353342 -375.73083305 571.62508583 C-384.96755571 580.76721105 -384.96755571 580.76721105 -393.66007233 590.42072296 C-396.11959059 593.31958146 -398.76707015 596.0477352 -401.375 598.8125 C-406.01866214 603.7749293 -410.43622681 608.84606711 -414.6875 614.15234375 C-417.41598485 617.51225161 -420.23338442 620.78735268 -423.0625 624.0625 C-427.17259303 628.83059383 -431.1851481 633.65475099 -435.08984375 638.59375 C-437.11697359 641.14735323 -439.17956365 643.66890122 -441.25 646.1875 C-442.83431699 648.12419573 -444.4175368 650.06178925 -446 652 C-446.51771973 652.63260742 -447.03543945 653.26521484 -447.56884766 653.91699219 C-449.23859809 655.96132542 -450.90116981 658.01132079 -452.5625 660.0625 C-453.0997168 660.71822998 -453.63693359 661.37395996 -454.19042969 662.04956055 C-457.02143617 665.13614043 -457.02143617 665.13614043 -458 669 C-455.99104347 670.51454044 -453.98660242 671.88984311 -451.875 673.25 C-450.8847583 673.89884155 -450.8847583 673.89884155 -449.87451172 674.56079102 C-442.10322783 679.63083123 -434.25755964 684.58734489 -426.41796875 689.55078125 C-422.4108802 692.09232401 -418.43488122 694.67577803 -414.47338867 697.28759766 C-342.38439535 744.64381608 -258.13005673 756.72975914 -174.26660156 739.68701172 C-108.16914857 725.78579851 -41.94438178 692.54948794 5.40625 643.59375 C7 642 7 642 9.5625 640 C12.4695422 637.61473461 14.75198071 634.91793641 17.1875 632.0625 C18.84681749 630.17431113 20.56541186 628.43006635 22.375 626.6875 C26.46225665 622.64535656 30.04471012 618.24489527 33.61474609 613.74462891 C34.60361745 612.49921567 35.59658909 611.25705357 36.59228516 610.01708984 C45.0949742 599.41485141 52.91135043 588.59691206 60 577 C60.4223291 576.31083496 60.8446582 575.62166992 61.27978516 574.91162109 C64.27589893 569.99099628 67.17016549 565.01795515 70 560 C70.40573242 559.28183105 70.81146484 558.56366211 71.22949219 557.82373047 C90.71227718 522.97565628 103.36441754 484.16848174 109.56201172 444.77978516 C109.84836255 442.96239913 110.1463915 441.1468047 110.45751953 439.33349609 C115.90421086 406.88249697 115.57915903 370.40586399 110 338 C109.79600586 336.78618652 109.59201172 335.57237305 109.38183594 334.32177734 C101.62723061 289.19945598 86.62840705 247.59259763 65.9375 206.8359375 C63.0113106 201.05883665 60.21212502 195.22609831 57.4375 189.375 C52.11820353 178.16918351 46.58963342 167.07306217 41 156 C38.81320427 155.78066363 38.81320427 155.78066363 37.02199775 157.72845459 Z " fill="#F5A474" transform="translate(1774,1265)"/>
<path d="M0 0 C0.7022168 0.08485657 1.40443359 0.16971313 2.12792969 0.25714111 C76.27827907 9.32590403 149.19927857 32.64237784 214 70 C215.25466064 70.72219727 215.25466064 70.72219727 216.53466797 71.45898438 C261.16743881 97.32854937 301.5500223 129.59276722 338.0625 165.9375 C338.75263184 166.62295898 339.44276367 167.30841797 340.15380859 168.01464844 C344.06737409 171.94059562 347.79568781 175.97464424 351.41674805 180.17163086 C353.5188642 182.59919414 355.69609684 184.95385567 357.875 187.3125 C362.79507305 192.71493316 367.44355013 198.28914757 372 204 C372.61198242 204.76256104 372.61198242 204.76256104 373.23632812 205.54052734 C432.48758627 279.46891012 473.1467674 367.28264664 492.49581909 619.37402344 C481.35151611 718.58944928 444.69274225 810.75141644 370 911 C369.10765282 912.06605475 368.21574952 913.13248115 367.32421875 914.19921875 C362.41946237 920.05064173 357.44235543 925.82188438 352.29858398 931.46582031 C350.86593999 933.04530461 349.44101105 934.63186444 348.02807617 936.22900391 C342.39762488 942.58113579 336.51831339 948.63649177 330.5065918 954.6237793 C328.93225845 956.1927236 327.36338411 957.76698558 325.79492188 959.34179688 C320.36886663 964.77175018 314.85757843 970.03320913 309 975 C307.91657777 975.94893506 306.83449714 976.89940453 305.75390625 977.8515625 C296.80919093 985.65365899 287.50050249 992.89047435 278 1000 C277.22962402 1000.58072266 276.45924805 1001.16144531 275.66552734 1001.75976562 C264.73480133 1009.99324107 253.63743268 1017.79722007 242 1025 C241.23107422 1025.47646973 240.46214844 1025.95293945 239.66992188 1026.44384766 C168.70502828 1070.18439438 88.42623333 1098.73751651 5.6875 1109.25 C4.51147217 1109.40106201 3.33544434 1109.55212402 2.1237793 1109.70776367 C-20.52078554 1112.42143812 -43.14321994 1113.38033625 -65.9375 1113.3125 C-67.22026825 1113.31067719 -68.5030365 1113.30885437 -69.82467651 1113.30697632 C-90.69323496 1113.25728812 -111.28671439 1112.55685666 -132 1110 C-132.6863855 1109.9175 -133.372771 1109.835 -134.07995605 1109.75 C-194.57179894 1102.45886984 -253.75633643 1085.26657527 -307.88964844 1057.08984375 C-310.30490031 1055.84254107 -312.73432801 1054.62509173 -315.1640625 1053.40625 C-336.01744721 1042.84998286 -356.04542072 1030.68450852 -375 1017 C-375.7532959 1016.45633789 -376.5065918 1015.91267578 -377.28271484 1015.35253906 C-387.70547295 1007.80030415 -397.96461927 1000.05983608 -408 992 C-408.91652344 991.26652344 -409.83304688 990.53304687 -410.77734375 989.77734375 C-428.97368396 975.0546074 -445.9379868 959.14264423 -462.5 942.625 C-463.06675446 942.06092438 -463.63350891 941.49684875 -464.21743774 940.91567993 C-470.36338992 934.79177822 -476.39840138 928.63337455 -482 922 C-482.97263625 920.88166129 -483.9465637 919.76444405 -484.921875 918.6484375 C-491.37808651 911.19497993 -497.61737685 903.60772541 -503.62451172 895.78759766 C-504.53090723 894.60963743 -505.44130375 893.43474345 -506.35595703 892.26318359 C-520.17176813 874.55781939 -532.93022464 855.54515469 -544 836 C-544.38526855 835.32275879 -544.77053711 834.64551758 -545.16748047 833.94775391 C-547.73298858 829.42235586 -550.25349672 824.87395383 -552.74267578 820.30615234 C-553.56562256 818.79672413 -554.39199057 817.28915493 -555.22216797 815.78369141 C-592.58429497 747.88130098 -613.63891941 668.22591504 -619 591 C-619.08612549 589.8251001 -619.17225098 588.6502002 -619.26098633 587.43969727 C-620.09392471 575.35825301 -620.20060558 563.29413954 -620.1875 551.1875 C-620.18689575 550.15197998 -620.1862915 549.11645996 -620.18566895 548.04956055 C-620.15971459 531.61728995 -619.75857097 515.35204918 -618 499 C-617.87641113 497.81792969 -617.75282227 496.63585937 -617.62548828 495.41796875 C-609.44189022 419.63289092 -584.69788286 346.61228492 -546 281 C-545.50435547 280.14937988 -545.00871094 279.29875977 -544.49804688 278.42236328 C-533.95483192 260.33290127 -522.41277782 242.8617514 -510 226 C-509.52320801 225.35192383 -509.04641602 224.70384766 -508.55517578 224.03613281 C-502.25718046 215.50258181 -495.82157778 207.12483963 -489 199 C-488.12885921 197.95316415 -487.25776762 196.90628734 -486.38671875 195.859375 C-480.62445936 188.96397742 -474.67310996 182.2842797 -468.55737305 175.70092773 C-466.61364573 173.57803258 -464.70664429 171.42345754 -462.79296875 169.2734375 C-458.00698391 163.94865624 -453.01077148 158.86248179 -447.9375 153.8125 C-447.09123047 152.96236328 -446.24496094 152.11222656 -445.37304688 151.23632812 C-440.4102899 146.28122382 -435.31984021 141.56661505 -430 137 C-428.39231627 135.54554483 -426.78760285 134.08779105 -425.1875 132.625 C-419.93579043 127.89766687 -414.52732593 123.4000529 -409 119 C-408.36594238 118.49339844 -407.73188477 117.98679687 -407.07861328 117.46484375 C-381.62709836 97.19467983 -354.54742921 79.58865612 -326 64 C-325.09765625 63.50290527 -324.1953125 63.00581055 -323.265625 62.49365234 C-297.92348383 48.60033615 -271.24778566 37.55393929 -244 28 C-242.95199219 27.62568848 -241.90398437 27.25137695 -240.82421875 26.86572266 C-200.40249282 12.48012383 -158.62451257 3.51590651 -116 -1 C-114.95215332 -1.11859375 -113.90430664 -1.2371875 -112.82470703 -1.359375 C-75.73181397 -5.44768468 -37.02330417 -4.50521143 0 0 Z M-116 92 C-117.04202576 92.14918884 -117.04202576 92.14918884 -118.10510254 92.3013916 C-148.41080375 96.66391973 -177.90797836 103.3539123 -207 113 C-208.01980957 113.33725098 -209.03961914 113.67450195 -210.09033203 114.02197266 C-227.57859942 119.88292055 -244.32063012 127.17928964 -261 135 C-261.92119629 135.42893555 -262.84239258 135.85787109 -263.79150391 136.29980469 C-305.79240765 156.01270243 -344.49171185 183.9224242 -378.36962891 215.48730469 C-380.13807585 217.12810991 -381.91819008 218.7556772 -383.69921875 220.3828125 C-391.56150999 227.59739785 -398.89318665 235.04207128 -406 243 C-406.90862185 243.97660507 -407.82011067 244.9505502 -408.734375 245.921875 C-415.07173245 252.6703709 -420.86087606 259.71756035 -426.49609375 267.05908203 C-428.08224138 269.10613944 -429.69453598 271.13035581 -431.3125 273.15234375 C-500.96727047 360.61072053 -534.3455107 473.60138572 -526.22265625 607.04296875 C-515.18687393 703.37820468 -473.39490202 794.99781737 -408.140625 866.640625 C-406.78220498 868.13786166 -405.4367458 869.64704408 -404.109375 871.171875 C-398.78835528 877.247055 -393.13774587 882.96920499 -387.4375 888.6875 C-386.63393066 889.49566162 -385.83036133 890.30382324 -385.00244141 891.13647461 C-380.16238874 895.96412198 -375.19439123 900.55796146 -370 905 C-368.91696942 905.94938203 -367.83488989 906.89985044 -366.75390625 907.8515625 C-357.81065496 915.6525597 -348.51985165 922.91790286 -339 930 C-338.27264648 930.54301758 -337.54529297 931.08603516 -336.79589844 931.64550781 C-319.0412704 944.84967882 -300.35236006 956.29665901 -281 967 C-280.16807129 967.4626123 -279.33614258 967.92522461 -278.47900391 968.40185547 C-255.71699405 980.97205382 -231.62224329 990.72483108 -207 999 C-205.9992041 999.3398291 -204.9984082 999.6796582 -203.96728516 1000.02978516 C-117.11555249 1029.18486189 -20.87424702 1029.11140229 150.09375 971.96875 C188.86824271 952.63186013 224.11697726 927.26060962 256 898 C256.54350098 897.50693359 257.08700195 897.01386719 257.64697266 896.50585938 C272.17063304 883.31775381 285.48969432 869.10606749 298 854 C298.48533203 853.41428223 298.97066406 852.82856445 299.47070312 852.22509766 C361.44672588 777.00057728 397.17894935 682.96218618 405 563 C405.02191406 562.25089355 405.04382812 561.50178711 405.06640625 560.72998047 C407.54824282 468.75725341 378.96356924 376.19658531 323 291 C322.60151855 290.42572266 322.20303711 289.85144531 321.79248047 289.25976562 C315.52476286 280.24139553 308.86919314 271.56644011 302 263 C301.23816406 262.04222656 300.47632813 261.08445312 299.69140625 260.09765625 C294.93517814 254.18840314 289.94083494 248.56711258 284.7734375 243.01953125 C282.73214247 240.82322918 280.76870781 238.57249864 278.81640625 236.296875 C274.29845452 231.11339801 269.4330074 226.28723764 264.5625 221.4375 C263.65951172 220.53064453 262.75652344 219.62378906 261.82617188 218.68945312 C256.71201785 213.58270555 251.49649239 208.69044984 246 204 C244.95156277 203.07468376 243.9046104 202.1476815 242.859375 201.21875 C233.00772071 192.56281517 222.58454791 184.73275262 212 177 C211.2687793 176.46342773 210.53755859 175.92685547 209.78417969 175.37402344 C142.35275136 126.09119299 62.67015002 98.51471583 -20 90 C-20.98806641 89.89397461 -21.97613281 89.78794922 -22.99414062 89.67871094 C-53.46299459 86.84699533 -85.7272734 87.61502721 -116 92 Z " fill="#1E2A33" transform="translate(971,72)"/>
<path d="M0 0 C-1.61004373 5.23369306 -3.76473332 10.12169899 -6.03125 15.09375 C-6.42735474 15.96809692 -6.82345947 16.84244385 -7.23156738 17.74328613 C-11.98735407 28.21705614 -16.84291728 38.64465191 -21.69775391 49.07275391 C-22.49567424 50.78741992 -23.29303751 52.50234528 -24.08984375 54.2175293 C-24.87992018 55.91765072 -25.67157057 57.61704164 -26.46484375 59.31567383 C-28.50127752 63.69324782 -30.48206507 68.08678826 -32.38671875 72.5234375 C-32.7782312 73.4254187 -33.16974365 74.3273999 -33.57312012 75.25671387 C-34.31282027 76.96744289 -35.04129191 78.68309126 -35.75598145 80.40441895 C-38.35523951 86.38708437 -41.28560901 91.40293981 -47.55175781 94.09716797 C-48.42670898 94.26877441 -49.30166016 94.44038086 -50.203125 94.6171875 C-51.25048828 94.83858398 -52.29785156 95.05998047 -53.37695312 95.28808594 C-54.57255859 95.52301758 -55.76816406 95.75794922 -57 96 C-59.15467221 96.46691012 -61.30638559 96.94628328 -63.45834351 97.42553711 C-65.85392292 97.9579923 -68.25122743 98.48205827 -70.64892578 99.00488281 C-136.54912637 113.43217985 -199.26964325 136.65245793 -258 170 C-258.81549316 170.46229004 -259.63098633 170.92458008 -260.47119141 171.40087891 C-283.58998551 184.62847227 -305.855486 199.82199918 -327 216 C-327.76199707 216.57943359 -328.52399414 217.15886719 -329.30908203 217.75585938 C-338.37762909 224.66415234 -347.22031623 231.76621628 -355.81640625 239.25390625 C-358.77714804 241.82764639 -361.81516864 244.29457977 -364.875 246.75 C-368.78518822 249.92166072 -372.39049472 253.23120053 -375.85546875 256.8828125 C-377.72689993 258.73038208 -379.64195942 260.43046527 -381.63574219 262.14233398 C-385.91894931 265.8792813 -389.96044361 269.81569556 -393.97265625 273.83984375 C-394.69940048 274.56563126 -395.42614471 275.29141876 -396.1749115 276.03919983 C-397.69962296 277.56323556 -399.2230915 279.08851569 -400.74536133 280.61499023 C-403.05633891 282.93132463 -405.37260771 285.24227078 -407.68945312 287.55273438 C-409.1800082 289.04395034 -410.670253 290.53547653 -412.16015625 292.02734375 C-413.18388084 293.048032 -413.18388084 293.048032 -414.22828674 294.08934021 C-418.14731015 298.02724234 -421.89000717 302.06864673 -425.51625061 306.27813721 C-427.42686609 308.49536993 -429.400249 310.65237965 -431.375 312.8125 C-435.21928245 317.07745308 -438.89526905 321.4486085 -442.50390625 325.9140625 C-444.31198156 328.14939817 -446.13112763 330.37188205 -447.96484375 332.5859375 C-469.21658578 358.33512601 -488.20744002 386.15071284 -505 415 C-505.44666016 415.76328613 -505.89332031 416.52657227 -506.35351562 417.31298828 C-547.7857744 488.27764531 -577.16087637 568.0579607 -591.95996094 665.13818359 C-592.07496948 665.94805725 -592.18997803 666.75793091 -592.30847168 667.59234619 C-592.51787607 669.07576195 -592.72355503 670.55971291 -592.9239502 672.04437256 C-593.96555775 679.45577783 -595.5225099 686.6125495 -597 694 C-624.72 694 -652.44 694 -681 694 C-688.8594266 638.98401379 -668.70015092 571.01469932 -652 519 C-651.64470215 517.87271484 -651.2894043 516.74542969 -650.92333984 515.58398438 C-642.79303991 489.84361091 -632.73603903 464.983307 -621.21240234 440.58056641 C-620.10902896 438.23206526 -619.02785621 435.87519382 -617.95703125 433.51171875 C-613.03337215 422.70863142 -607.41295249 412.32607369 -601.64160156 401.95507812 C-599.977675 398.95981234 -598.32805019 395.9569794 -596.6796875 392.953125 C-566.77753772 338.70042445 -530.57324318 287.14118587 -488.4375 241.65625 C-486.47104431 239.51331752 -484.5672274 237.34307833 -482.6875 235.125 C-477.6458758 229.29830536 -472.04846468 223.9726439 -466.57397461 218.55761719 C-463.65682938 215.67078819 -460.75907038 212.76489468 -457.86816406 209.85180664 C-455.31006833 207.27408422 -452.74882272 204.6995157 -450.1875 202.125 C-449.32318359 201.25230469 -448.45886719 200.37960937 -447.56835938 199.48046875 C-442.54322257 194.43636916 -437.40645986 189.63016733 -432 185 C-430.39231627 183.54554483 -428.78760285 182.08779105 -427.1875 180.625 C-422.92119411 176.77949818 -418.548307 173.10268734 -414.08203125 169.4921875 C-411.86080631 167.69606391 -409.65099623 165.88991464 -407.44921875 164.0703125 C-377.53773875 139.42493813 -345.43150765 117.57357616 -312 98 C-311.21608887 97.5359375 -310.43217773 97.071875 -309.62451172 96.59375 C-240.6242269 55.79703059 -163.45155472 24.59951045 0 0 Z " fill="#1E2A33" transform="translate(836,1302)"/>
</svg>
