<?xml version="1.0" encoding="UTF-8"?>
<svg version="1.1" xmlns="http://www.w3.org/2000/svg" width="2134" height="2134">
<path d="M0 0 C2.75803562 0.00566306 5.51606503 0.00846935 8.27410507 0.0110817 C36.76781352 0.05025985 65.06894032 0.67899146 93.45687485 3.31805801 C95.38752094 3.49159785 97.31818546 3.66493288 99.24886703 3.83807755 C128.16819417 6.469246 156.83916893 10.41241714 185.45687485 15.31805801 C186.27311325 15.45749832 187.08935165 15.59693863 187.93032455 15.7406044 C212.85790127 20.01861897 237.45349924 25.54290001 261.98134995 31.69751358 C264.3295507 32.28614143 266.67898402 32.86959823 269.02865219 33.45233536 C323.63000958 47.06871416 377.1724031 66.19924783 428.45687485 89.31805801 C429.48361313 89.77503067 430.51035141 90.23200333 431.56820297 90.70282364 C460.64733654 103.65813073 489.53997039 117.75104791 516.99593735 133.88251114 C519.51109278 135.34968514 522.04280317 136.7833405 524.58187485 138.20868301 C574.11410882 166.05188731 620.79632645 198.8931954 664.71712875 234.89422989 C666.27635812 236.17032106 667.84088584 237.43993183 669.4060936 238.70868301 C679.87721306 247.20786903 690.08962919 255.98658482 700.02718735 265.10321426 C702.062029 266.95812619 704.12008732 268.772346 706.20687485 270.56805801 C715.76334878 278.88827351 724.95423947 287.6478744 733.7967186 296.72040176 C735.92046316 298.79424925 738.06937491 300.72494843 740.3201561 302.65399551 C744.40392503 306.19479411 748.06198582 310.02079188 751.70687485 314.00555801 C756.36513939 319.04227735 761.07129008 324.00125128 765.95687485 328.81805801 C769.67188758 332.48955668 773.23915226 336.22597162 776.6248436 340.20477676 C778.50608368 342.37482129 780.44674697 344.48332152 782.40047836 346.58807755 C787.23714462 351.80009484 791.82548394 357.13857215 796.28499985 362.68133926 C798.39443834 365.2422583 800.58575133 367.68929256 802.83187485 370.13055801 C806.89560264 374.59005755 810.61571461 379.25329529 814.30892563 384.01800919 C817.19418971 387.7342733 820.15545751 391.36029935 823.20687485 394.94305801 C829.65421913 402.62478309 835.58541954 410.69330092 841.55306625 418.74969864 C843.35279286 421.17764476 845.1598313 423.59996492 846.9685936 426.02118301 C859.61475712 443.00204347 871.78987848 460.33040006 883.12386703 478.2169838 C884.52198422 480.42068279 885.93044294 482.61755433 887.33968735 484.81415176 C895.00800418 496.80950931 902.31684328 509.00171889 909.45687485 521.31805801 C909.96798813 522.1984877 910.47910141 523.07891739 911.00570297 523.98602676 C950.89562269 592.96553034 982.51947375 666.20744498 1014.13753891 1322.0919838 C996.87846105 1386.44311922 972.86128924 1448.77567198 943.3637352 1508.47894669 C942.4365899 1510.35919586 941.51400724 1512.24162316 940.59261703 1514.12469864 C932.86246085 1529.914844 924.820144 1545.44116039 915.99349594 1560.65497208 C914.47901276 1563.27969126 912.98948874 1565.91697647 911.5076561 1568.56024551 C900.29521548 1588.52015319 887.9507671 1607.70709321 875.26937485 1626.75555801 C874.7720787 1627.50338547 874.27478256 1628.25121292 873.76241684 1629.02170181 C864.01864188 1643.65606979 854.07349067 1658.14322728 843.33187485 1672.06805801 C842.65084702 1672.95581924 841.96981918 1673.84358047 841.26815414 1674.75824356 C839.93020345 1676.50169159 838.59099677 1678.24417673 837.25033188 1679.98553848 C835.71794793 1681.97851374 834.19233918 1683.97626249 832.6717186 1685.97821426 C826.59231304 1693.95558059 820.29427629 1701.74231377 813.94076157 1709.50214005 C812.6505429 1711.08105522 811.36751897 1712.66584428 810.0857811 1714.25165176 C801.3656135 1725.01985872 792.25357745 1735.46298363 782.87093735 1745.65790176 C780.96189979 1747.76154995 779.0885761 1749.88505386 777.22616196 1752.0294838 C765.88379776 1765.00066167 753.72378713 1777.21257928 741.52938461 1789.37591934 C738.99426808 1791.90561105 736.46462848 1794.44069334 733.93539047 1796.97626114 C732.29834167 1798.61265003 730.66098319 1800.24872919 729.0232811 1801.88446426 C728.28042358 1802.62934601 727.53756607 1803.37422775 726.77219772 1804.14168167 C722.72754601 1808.16842112 718.59782828 1812.03300318 714.26467514 1815.74837112 C711.1345307 1818.46623034 708.15251266 1821.34183171 705.14437485 1824.19305801 C699.92085983 1829.10972809 694.60458294 1833.76501506 688.9998436 1838.24383926 C686.40676138 1840.35893397 683.92902584 1842.56323897 681.45687485 1844.81805801 C676.7977146 1849.05365824 671.98142979 1853.05194685 667.08041 1857.00360489 C665.25558364 1858.48102822 663.43994182 1859.9693257 661.6248436 1861.45868301 C654.70763646 1867.12554224 647.75369645 1872.70288158 640.5623436 1878.02118301 C638.28355872 1879.70662391 636.01654767 1881.40324794 633.7576561 1883.11493301 C624.87133901 1889.84141199 615.85491409 1896.3507287 606.71810532 1902.73212051 C604.37492594 1904.37553373 602.04218123 1906.03298362 599.7107811 1907.69305801 C588.42288291 1915.70538475 576.91287329 1923.28492996 565.17416 1930.61981583 C562.5494539 1932.26019818 559.93065899 1933.90968839 557.3123436 1935.56024551 C476.93994782 1986.00085252 389.39021527 2025.39460501 79.70687485 2091.06805801 C78.50049362 2091.1569429 78.50049362 2091.1569429 77.26974106 2091.24762344 C53.03034217 2093.00072849 28.81602198 2093.52576916 4.51937485 2093.50555801 C3.43648304 2093.5051577 3.43648304 2093.5051577 2.33171463 2093.5047493 C-22.00547797 2093.49349153 -46.26378203 2093.1323439 -70.54312515 2091.31805801 C-71.39644424 2091.25489395 -72.24976334 2091.19172989 -73.12894058 2091.12665176 C-164.22367429 2084.30238711 -253.8515029 2065.95325365 -607.54312515 1897.31805801 C-608.68926285 1896.48419571 -608.68926285 1896.48419571 -609.85855484 1895.6334877 C-624.14044867 1885.22137997 -638.14322536 1874.53038289 -651.8282814 1863.34540176 C-654.75410311 1860.95515919 -657.70324439 1858.59727829 -660.66812515 1856.25555801 C-666.48673993 1851.61428837 -672.10034452 1846.7370453 -677.73306656 1841.87372208 C-679.48917757 1840.36442354 -681.2543843 1838.86665591 -683.0235939 1837.37274551 C-689.86766082 1831.58138889 -696.52658196 1825.63572944 -703.04288101 1819.47674942 C-706.36011214 1816.34207105 -709.71805322 1813.26720829 -713.13125992 1810.23700333 C-718.55946932 1805.35656676 -723.74381206 1800.26192258 -728.8985939 1795.09540176 C-729.85387809 1794.14079406 -730.80931042 1793.18633459 -731.76488113 1792.2320137 C-733.74882023 1790.24953398 -735.73097803 1788.26529576 -737.71182632 1786.27972794 C-740.22966345 1783.75617888 -742.7519871 1781.23716944 -745.27566433 1778.71946239 C-747.24307341 1776.75569356 -749.20806186 1774.78951636 -751.17236137 1772.82263756 C-752.54624972 1771.44777422 -753.92212262 1770.07489493 -755.29805374 1768.70207596 C-759.71429197 1764.2694239 -764.00170808 1759.78518011 -768.06972122 1755.02957535 C-770.43756619 1752.27906843 -772.93546791 1749.65199877 -775.41812515 1747.00555801 C-779.93174916 1742.15936602 -784.18155529 1737.16818755 -788.3282814 1732.00165176 C-790.66889303 1729.1656726 -793.11402725 1726.45952956 -795.60562515 1723.75555801 C-799.34967779 1719.67844548 -802.87954669 1715.51055332 -806.2970314 1711.15790176 C-808.01486065 1708.98596809 -809.75026396 1706.83627255 -811.5079689 1704.69696426 C-818.55801464 1696.11291038 -825.3671631 1687.3921814 -831.96451187 1678.45575333 C-833.63350559 1676.19566843 -835.30885064 1673.94037603 -836.9845314 1671.68524551 C-890.68598943 1599.27895159 -935.04682806 1520.46300246 -990.54312515 1377.31805801 C-991.1771022 1375.44923965 -991.1771022 1375.44923965 -991.82388687 1373.54266739 C-1020.60385525 1287.95044804 -1036.27277442 1198.36513519 -1043.54312515 1068.31805801 C-1043.55408218 1067.54880997 -1043.56503922 1066.77956192 -1043.57632828 1065.98700333 C-1044.84117489 972.20234701 -1034.81604127 878.6158492 -992.2645607 721.50384903 C-991.52449646 719.26161717 -990.7902706 717.01753181 -990.05679703 714.77313614 C-979.07033053 681.24093852 -966.20579536 648.41671398 -951.54312515 616.31805801 C-951.04780289 615.22735001 -950.55248062 614.136642 -950.04214859 613.01288223 C-934.31428852 578.44975975 -916.77413929 545.06014454 -897.54312515 512.31805801 C-896.98963394 511.374142 -896.43614273 510.43022598 -895.86587906 509.45770645 C-880.00260173 482.54430695 -862.32999253 456.4145957 -843.98062515 431.13055801 C-843.43744644 430.3806459 -842.89426773 429.6307338 -842.33462906 428.85809708 C-837.52632749 422.2465059 -832.58214944 415.75547182 -827.54312515 409.31805801 C-826.67453976 408.20224717 -825.80605253 407.08635991 -824.9376564 405.97040176 C-814.8722756 393.06761535 -804.55356648 380.37217858 -793.92007828 367.93329239 C-792.5019117 366.26971258 -791.09237199 364.59909925 -789.68375015 362.92743301 C-783.77601231 355.94270237 -777.68595717 349.17112884 -771.41202164 342.51312637 C-768.47411513 339.39465291 -765.57837019 336.26265633 -762.79312515 333.00555801 C-759.46050388 329.12591557 -755.83093194 325.57197515 -752.16812515 322.00555801 C-750.09928467 319.88745942 -748.15854437 317.74817182 -746.2267189 315.50946426 C-742.526663 311.24294051 -738.60929296 307.23606092 -734.60562515 303.25555801 C-733.94111343 302.58717911 -733.27660172 301.9188002 -732.59195328 301.23016739 C-728.65343082 297.29928513 -724.59687553 293.57613852 -720.38467789 289.94134903 C-717.81348443 287.67489466 -715.43801943 285.27066059 -713.04312515 282.81805801 C-709.3860134 279.11127945 -705.65347944 275.5650031 -701.69156265 272.18524551 C-699.51066778 270.2898496 -697.3885677 268.33779281 -695.27090836 266.37225723 C-690.06419567 261.54104848 -684.73144722 256.95743919 -679.1954689 252.50165176 C-676.55044878 250.32408734 -674.01099991 248.06487039 -671.48062515 245.75555801 C-667.54795383 242.18040226 -663.5107705 238.80914536 -659.3360939 235.52118301 C-657.3057518 233.91962644 -655.28907646 232.30688018 -653.2814064 230.67743301 C-643.72335693 222.93569014 -633.93860173 215.52093692 -624.06314468 208.18964005 C-621.65616939 206.40201433 -619.25372788 204.60844184 -616.8517189 202.81415176 C-596.64785366 187.7691749 -575.86918968 173.72020171 -554.54312515 160.31805801 C-553.64384293 159.74990372 -552.7445607 159.18174942 -551.8180275 158.59637833 C-528.95742642 144.16666759 -505.42969116 130.9643167 -481.54312515 118.31805801 C-480.51364761 117.76907852 -479.48417007 117.22009903 -478.42349625 116.6544838 C-462.06717617 107.93956329 -445.455403 99.89429226 -428.54312515 92.31805801 C-427.86399063 92.01319473 -427.18485611 91.70833145 -426.48514175 91.39422989 C-389.6414012 74.87638214 -352.02429878 60.54002402 -313.54312515 48.31805801 C-312.85790787 48.09932022 -312.17269058 47.88058243 -311.46670914 47.65521622 C-241.13603962 25.21459261 -168.40364035 11.22562278 -94.98062515 4.06805801 C-94.20600937 3.99092575 -93.43139359 3.91379349 -92.6333046 3.83432388 C-61.81134595 0.80693526 -30.9523344 -0.06468142 0 0 Z M-81.54312515 108.31805801 C-82.42250748 108.40055801 -83.3018898 108.48305801 -84.20792007 108.56805801 C-126.31206031 112.52114151 -168.19374047 119.11460527 -209.36435318 128.80560684 C-211.54888847 129.31941356 -213.73464802 129.82775034 -215.92056656 130.33563614 C-264.29068335 141.63108126 -311.75454814 157.06984166 -357.54312515 176.31805801 C-358.17653824 176.58426956 -358.80995132 176.85048111 -359.46255875 177.12475967 C-396.96680446 192.9282064 -433.65871347 210.78744387 -468.64517593 231.59930801 C-471.47740194 233.27907811 -474.31890397 234.94182367 -477.1642189 236.59930801 C-497.39373638 248.40701064 -516.94221351 261.04983199 -536.06949234 274.57001114 C-538.16320452 276.04957877 -540.26180743 277.52165511 -542.36343765 278.98993301 C-552.98936604 286.45111597 -563.26152876 294.39300352 -573.54312515 302.31805801 C-574.23535172 302.85140762 -574.92757828 303.38475723 -575.6407814 303.93426895 C-583.07115914 309.67488419 -590.31580792 315.5965969 -597.4532814 321.69696426 C-600.31890209 324.14109135 -603.23718038 326.51501535 -606.16812515 328.88055801 C-610.93263323 332.75735571 -615.47956405 336.83277333 -620.0001564 340.98993301 C-622.1137957 342.92500063 -624.24972363 344.82014098 -626.41812515 346.69305801 C-634.73258989 353.93193491 -642.7659254 361.45955353 -650.50406265 369.31024551 C-652.43576357 371.21234182 -654.42226109 372.99241748 -656.48062515 374.75555801 C-663.402391 380.71213739 -669.7054296 387.25266961 -675.6329689 394.18915176 C-678.0050203 396.83284913 -680.51594044 399.32446704 -683.04312515 401.81805801 C-686.74723152 405.47797155 -690.29600285 409.20749598 -693.67593765 413.16962051 C-695.57106996 415.35021208 -697.52279843 417.47205526 -699.48819351 419.58929825 C-704.24761956 424.71927206 -708.78225743 429.96175266 -713.1720314 435.41571426 C-715.86144092 438.70769329 -718.6349447 441.91800296 -721.41812515 445.13055801 C-726.82808115 451.40190672 -731.98011459 457.84130766 -737.04654312 464.39178848 C-738.66151114 466.47043411 -740.29077771 468.53732791 -741.9220314 470.60321426 C-749.28155226 479.94907346 -756.30737793 489.46315987 -763.08853531 499.23553848 C-764.52066201 501.28589779 -765.97133271 503.32155799 -767.4298439 505.35321426 C-814.72106081 571.33893066 -852.13032471 644.38421387 -880.54312515 720.31805801 C-880.78935623 720.97318375 -881.03558731 721.62830948 -881.28927994 722.30328751 C-900.84141947 774.36178987 -915.02595935 828.55564193 -924.54312515 883.31805801 C-924.75101669 884.51380447 -924.75101669 884.51380447 -924.96310806 885.73370743 C-931.44163904 923.27312638 -935.7473889 961.26350352 -937.54312515 999.31805801 C-937.62771988 1000.9940004 -937.62771988 1000.9940004 -937.71402359 1002.7038002 C-942.2080338 1094.09973555 -932.88666338 1186.38582317 -817.93326187 1507.90057755 C-816.69852789 1510.04780899 -815.48935585 1512.20567524 -814.2970314 1514.37665176 C-792.10842042 1554.77357347 -765.40744196 1593.40374834 -736.54312515 1629.31805801 C-736.02895035 1629.95839981 -735.51477554 1630.59874161 -734.98501968 1631.2584877 C-728.08352654 1639.83715355 -721.082717 1648.32470002 -713.92886734 1656.69403458 C-712.48583424 1658.38520022 -711.04937698 1660.0818042 -709.61343765 1661.77899551 C-703.35173627 1669.15914943 -696.92359096 1676.34563574 -690.30752945 1683.41009903 C-688.99253544 1684.832083 -687.69149501 1686.26699516 -686.39786148 1687.70843887 C-678.20266815 1696.79370828 -669.57848171 1705.4347024 -660.91739273 1714.07416153 C-658.34681204 1716.63935265 -655.78165923 1719.20988533 -653.21695328 1721.78094864 C-651.56167507 1723.43556645 -649.9060869 1725.08987426 -648.2501564 1726.74383926 C-647.49475067 1727.50126923 -646.73934494 1728.25869919 -645.96104813 1729.03908157 C-641.86641584 1733.11590332 -637.68825335 1737.03242024 -633.30325699 1740.79603958 C-630.54064345 1743.18492241 -627.89396706 1745.69486179 -625.23062515 1748.19305801 C-620.4590162 1752.63271095 -615.56144525 1756.83464943 -610.4767189 1760.91571426 C-606.99408218 1763.76767376 -603.61551222 1766.72647927 -600.23062515 1769.69305801 C-593.80233367 1775.30332123 -587.20430852 1780.63274232 -580.44888687 1785.8419838 C-578.3898523 1787.43677281 -576.34283626 1789.04618092 -574.2970314 1790.65790176 C-563.90660937 1798.82660139 -553.32433059 1806.67385884 -542.54312515 1814.31805801 C-541.34816422 1815.16883926 -541.34816422 1815.16883926 -540.12906265 1816.03680801 C-527.81051461 1824.7966644 -515.30515324 1833.21789027 -502.54312515 1841.31805801 C-501.71764175 1841.84222305 -500.89215836 1842.36638809 -500.04166031 1842.90643692 C-444.38164649 1878.10400645 -385.2951096 1907.47721933 -323.54312515 1930.31805801 C-322.89462601 1930.55893143 -322.24612686 1930.79980484 -321.57797623 1931.04797745 C-239.25291833 1961.59547317 -152.94983452 1979.60026631 -49.54312515 1987.31805801 C-48.45427017 1987.38000854 -48.45427017 1987.38000854 -47.34341812 1987.4432106 C-30.74489254 1988.37736038 -14.16502505 1988.52024178 2.45687485 1988.50555801 C3.47608269 1988.5051577 3.47608269 1988.5051577 4.51588058 1988.5047493 C27.21558334 1988.49358974 49.82133775 1988.12084597 72.45687485 1986.31805801 C73.26398911 1986.25489395 74.07110336 1986.19172989 74.90267563 1986.12665176 C125.60591475 1982.129179 176.04139934 1974.42655975 225.45687485 1962.31805801 C226.21877121 1962.13176834 226.98066757 1961.94547867 227.7656517 1961.75354385 C310.86928187 1941.36191654 392.82157576 1910.28198024 466.77181625 1866.88934708 C469.64041488 1865.21065088 472.5221099 1863.55610817 475.4060936 1861.90399551 C514.17045539 1839.61696761 551.59369072 1814.33758562 586.45687485 1786.31805801 C587.09721664 1785.80388321 587.73755844 1785.2897084 588.39730453 1784.75995255 C596.97923407 1777.85583379 605.46949959 1770.85200734 613.84164047 1763.69501114 C615.50522028 1762.27684456 617.17583361 1760.86730485 618.84749985 1759.45868301 C626.91496461 1752.6358609 634.67447737 1745.53303 642.35360336 1738.27777481 C643.88369364 1736.85211785 645.42779765 1735.44145611 646.98006821 1734.03998184 C655.41385727 1726.416621 663.4773765 1718.45058921 671.50399399 1710.40130997 C673.77947068 1708.12043824 676.06029202 1705.84500827 678.34164047 1703.57001114 C679.81396666 1702.09702461 681.28598285 1700.62372815 682.7576561 1699.15008926 C683.42759094 1698.48217865 684.09752579 1697.81426804 684.78776169 1697.12611771 C688.64261327 1693.25232277 692.32032025 1689.27507992 695.88273239 1685.13031387 C698.44823745 1682.17673648 701.14784751 1679.35097194 703.83187485 1676.50555801 C708.45959796 1671.56056939 712.85515303 1666.50578563 717.08968735 1661.21649551 C719.92675049 1657.74273173 722.87578502 1654.37793196 725.83187485 1651.00555801 C731.44219442 1644.57732016 736.77156265 1637.97923686 741.98080063 1631.22381973 C743.57558964 1629.16478516 745.18499776 1627.11776912 746.7967186 1625.07196426 C754.4156041 1615.38041079 761.76992978 1605.53271423 768.91292953 1595.48553848 C770.38057817 1593.42516773 771.85877348 1591.37281174 773.33968735 1589.32196426 C823.18514851 1519.94028442 862.90531101 1442.52523966 901.80703354 1330.35034561 C902.41973328 1328.43421307 903.03656016 1326.51940162 903.65365219 1324.60467911 C930.24482724 1241.46838952 943.3709396 1153.62654066 945.45687485 1034.31805801 C945.43004623 1032.53335098 945.43004623 1032.53335098 945.40267563 1030.71258926 C944.50339801 979.61786655 939.50717358 928.60919752 930.45687485 878.31805801 C930.33395065 877.62695938 930.21102646 876.93586075 930.08437729 876.22381973 C922.60965223 834.25504601 911.7796316 792.79634449 898.45687485 752.31805801 C898.22268845 751.60385696 897.98850204 750.88965591 897.74721909 750.15381241 C878.91398154 692.79514867 854.52873522 636.32315566 824.08529282 584.11297989 C822.36578867 581.161723 820.66263743 578.20139776 818.9607811 575.23993301 C787.35883389 520.4262429 750.00010492 468.4064249 707.45687485 421.53290176 C705.66083956 419.543933 703.89734181 417.53242607 702.14437485 415.50555801 C690.84097218 402.59411876 678.7737408 390.47868014 666.62960434 378.36383438 C664.72410541 376.46095132 662.82234535 374.55435274 660.92053986 372.64777946 C658.61738643 370.34011465 656.31039572 368.03629362 654.00374985 365.73212051 C653.16398605 364.89033249 652.32422226 364.04854446 651.45901108 363.18124771 C647.15277403 358.89194561 642.78147316 354.74521725 638.16611862 350.78918839 C635.59379878 348.57521639 633.12779214 346.25628307 630.64437485 343.94305801 C625.943123 339.59481139 621.0843815 335.50534582 616.0935936 331.48993301 C613.53267456 329.38049452 611.0856403 327.18918153 608.64437485 324.94305801 C603.08884743 319.88779136 597.19925646 315.31383427 591.26253891 310.72089005 C589.50457543 309.3551169 587.75633801 307.97796957 586.01156235 306.59540176 C577.27795625 299.67631201 568.41755219 292.94025794 559.45687485 286.31805801 C558.77173813 285.81048965 558.08660141 285.3029213 557.38070297 284.77997208 C530.55991881 264.97058583 502.33886331 246.96090713 473.45687485 230.31805801 C472.51070297 229.77214005 471.5645311 229.22622208 470.58968735 228.66376114 C420.52806763 199.90852783 368.16101739 175.97708922 313.62099838 157.0687294 C311.49677707 156.33189893 309.37397215 155.59110007 307.25130844 154.8497963 C286.56533251 147.64575087 265.66261189 141.46134847 244.48958969 135.85651016 C242.58473794 135.35192806 240.68092362 134.8434341 238.77718735 134.33465958 C189.59831306 121.27326354 139.08310583 113.07566572 88.45687485 108.31805801 C87.1449617 108.19270676 87.1449617 108.19270676 85.80654526 108.06482315 C30.65460361 102.85360594 -26.40965356 102.98944311 -81.54312515 108.31805801 Z " fill="#83B6C7" transform="translate(1065.543125152588,16.681941986083984)"/>
<path d="M0 0 C19.76084902 16.91667983 32.0095194 40.53407045 35.49609375 66.28076172 C35.78210674 70.53520502 35.83035557 74.76765247 35.80859375 79.03076172 C35.8036792 80.17456299 35.79876465 81.31836426 35.79370117 82.49682617 C35.67443826 91.12473324 34.88758103 98.95412585 32.49609375 107.28076172 C32.16738281 108.49248047 31.83867188 109.70419922 31.5 110.95263672 C27.31098397 124.92568671 20.16561572 137.3687872 10.49609375 148.28076172 C9.69042969 149.20630859 8.88476562 150.13185547 8.0546875 151.08544922 C4.61942378 154.95602117 1.23283616 158.69056651 -2.73376465 162.01989746 C-9.66037663 168.05533408 -16.03312257 174.68816535 -22.51367188 181.19287109 C-24.02872263 182.7098432 -25.54400283 184.22658618 -27.05949402 185.74311829 C-30.31129891 188.998074 -33.56154604 192.25457436 -36.81059265 195.51228333 C-41.95222562 200.66748365 -47.0977108 205.81882748 -52.24377441 210.96960449 C-63.16678467 221.90369639 -74.08556361 232.84200923 -85.00390625 243.78076172 C-96.79263907 255.59153142 -108.5820989 267.40156982 -120.37645292 279.20672655 C-125.48788845 284.32313315 -130.59687816 289.44196559 -135.70398712 294.56269073 C-138.88546879 297.75165141 -142.06903855 300.93852128 -145.25316811 304.12483788 C-146.72458192 305.5981177 -148.19513404 307.07225873 -149.66473961 308.5473423 C-151.67793106 310.56779885 -153.69424022 312.58509457 -155.71130371 314.60168457 C-156.28564101 315.17961683 -156.8599783 315.75754909 -157.45171976 316.35299444 C-160.21954012 319.11391009 -163.03104689 321.75557111 -166.00995541 324.28765202 C-172.73814335 330.11802041 -178.91344076 336.55278597 -185.19972229 342.84959412 C-186.69872913 344.34744797 -188.19795377 345.84508389 -189.69737667 347.34252125 C-193.80680958 351.44778528 -197.9131246 355.55615555 -202.01892316 359.66505396 C-206.45138255 364.09977715 -210.88671995 368.53162034 -215.32168579 372.96383667 C-223.5036505 381.14161208 -231.68333696 389.32166103 -239.86183794 397.50290029 C-247.41777071 405.06135041 -254.97463445 412.61886822 -262.53242302 420.17546272 C-263.03410111 420.67706443 -263.5357792 421.17866613 -264.05265966 421.69546789 C-266.08922804 423.73172493 -268.12579995 425.76797843 -270.16237767 427.80422614 C-289.25993988 446.89873059 -308.35458691 465.99614787 -327.44792786 485.09487322 C-344.4044867 502.05617753 -361.36362871 519.0148949 -378.32495117 535.97143555 C-397.38914373 555.03027137 -416.45171691 574.0907245 -435.51168674 593.15378338 C-437.54418973 595.18660708 -439.57669666 597.21942685 -441.60920525 599.25224495 C-442.10964491 599.75276369 -442.61008457 600.25328242 -443.12568907 600.7689684 C-450.67683748 608.32125342 -458.22921734 615.87230549 -465.78219795 623.4227581 C-474.3718222 632.00952169 -482.95960564 640.59812052 -491.5451364 649.18897729 C-495.92545661 653.57192525 -500.3065719 657.95407051 -504.68985939 662.33405113 C-508.7031631 666.34437288 -512.71414672 670.35700005 -516.72330081 674.3714701 C-518.17318073 675.82246608 -519.62390183 677.27262212 -521.07555277 678.72184628 C-530.38047517 687.94065603 -530.38047517 687.94065603 -539.12918085 697.68066412 C-541.92875613 700.93920119 -545.02447117 703.92265588 -548.07226562 706.94677734 C-549.15420952 708.02653084 -549.15420952 708.02653084 -550.25801086 709.12809753 C-551.81080579 710.67711279 -553.36475395 712.22497272 -554.91975403 713.77177429 C-557.38621116 716.22536551 -559.84944135 718.6821564 -562.31188965 721.13977051 C-568.42572835 727.24030164 -574.54501351 733.33536013 -580.66412354 739.43060303 C-585.84460909 744.59130254 -591.02300477 749.75408223 -596.19868469 754.91960144 C-598.6155501 757.33002447 -601.03542712 759.73739529 -603.45544434 762.14465332 C-604.94896107 763.63453467 -606.44233598 765.12455821 -607.93554688 766.61474609 C-608.60068802 767.27472092 -609.26582916 767.93469574 -609.9511261 768.6146698 C-613.78411435 772.44722954 -617.40960766 776.40116996 -620.95223236 780.50324249 C-622.78360587 782.60117148 -624.69872984 784.58945917 -626.67578125 786.55029297 C-627.41344727 787.28465576 -628.15111328 788.01901855 -628.91113281 788.77563477 C-629.68424805 789.54045166 -630.45736328 790.30526855 -631.25390625 791.09326172 C-632.07084961 791.90641846 -632.88779297 792.7195752 -633.72949219 793.55737305 C-637.19085667 797.00253512 -640.65819216 800.44166462 -644.125 803.88134766 C-646.67005813 806.4082268 -649.21203756 808.93817487 -651.75390625 811.46826172 C-652.52702148 812.23307861 -653.30013672 812.99789551 -654.09667969 813.78588867 C-658.20952055 817.88031249 -662.12703511 822.06778445 -665.91333008 826.46533203 C-668.16246353 829.03241665 -670.54293381 831.41423596 -672.97265625 833.81201172 C-673.45665894 834.29222778 -673.94066162 834.77244385 -674.43933105 835.26721191 C-676.46690271 837.27876051 -678.50053474 839.28413825 -680.53369141 841.29003906 C-685.8428016 846.53438322 -691.06064728 851.78782655 -695.91210938 857.46630859 C-698.6233424 860.55678158 -701.56756134 863.40625172 -704.50390625 866.28076172 C-708.82481093 870.55175309 -713.00498866 874.8523917 -716.93359375 879.49169922 C-718.70856006 881.51392452 -720.58689648 883.39290799 -722.50390625 885.28076172 C-731.60176587 894.27404824 -739.64806651 904.37376157 -747.56640625 914.40576172 C-751.6702188 919.56034885 -756.02152626 924.45358327 -760.50390625 929.28076172 C-761.04273438 929.87373047 -761.5815625 930.46669922 -762.13671875 931.07763672 C-786.33082868 956.60910951 -822.958315 973.55403524 -858.03515625 974.61669922 C-860.69296949 974.64696931 -863.34637414 974.66397574 -866.00390625 974.65576172 C-866.70189331 974.65488556 -867.39988037 974.6540094 -868.11901855 974.65310669 C-912.35764686 974.4709328 -947.35658488 953.37473914 -979.14453125 924.42138672 C-980.64176791 923.0629667 -982.15095033 921.71750752 -983.67578125 920.39013672 C-990.61882455 914.30898845 -997.07763663 907.76865537 -1003.55249023 901.1953125 C-1007.82195303 896.8795814 -1012.16181807 892.74274668 -1016.76660156 888.78662109 C-1018.95518086 886.88960632 -1021.02261385 884.89481044 -1023.06640625 882.84326172 C-1024.08927734 881.82425781 -1024.08927734 881.82425781 -1025.1328125 880.78466797 C-1027.04539709 878.76495344 -1028.86225427 876.7150785 -1030.67358398 874.60668945 C-1034.33553336 870.4128846 -1038.19998462 866.47267219 -1042.16015625 862.56201172 C-1042.86611938 861.85983521 -1043.57208252 861.15765869 -1044.29943848 860.4342041 C-1046.53181983 858.21391569 -1048.76742736 855.99692217 -1051.00390625 853.78076172 C-1053.95481003 850.85666693 -1056.90223828 847.92913115 -1059.84765625 844.99951172 C-1060.51140259 844.34406372 -1061.17514893 843.68861572 -1061.85900879 843.01330566 C-1065.73509052 839.15730599 -1069.39705211 835.17971254 -1072.96887207 831.04064941 C-1074.71667438 829.03682708 -1076.54282068 827.1419572 -1078.44140625 825.28076172 C-1079.10914063 824.62076172 -1079.776875 823.96076172 -1080.46484375 823.28076172 C-1081.13773438 822.62076172 -1081.810625 821.96076172 -1082.50390625 821.28076172 C-1087.15286459 816.72086389 -1091.60126843 812.0903435 -1095.8515625 807.15576172 C-1098.27886642 804.4013743 -1100.87630162 801.8422193 -1103.50390625 799.28076172 C-1107.42710051 795.41092775 -1111.15817415 791.47257361 -1114.73046875 787.27294922 C-1117.6984054 783.93892347 -1120.91945894 780.85815687 -1124.09375 777.72216797 C-1126.77245157 775.00873445 -1129.24998743 772.17299149 -1131.7265625 769.27685547 C-1134.45245784 766.21546532 -1137.39531983 763.38111008 -1140.3125 760.50341797 C-1142.92491693 757.85374732 -1145.33693246 755.06903369 -1147.7578125 752.24560547 C-1150.22749985 749.46651657 -1152.88293947 746.89215676 -1155.53125 744.28466797 C-1158.07728454 741.6983002 -1160.42412182 738.96540892 -1162.7890625 736.21435547 C-1164.97539822 733.74912499 -1167.31010983 731.46147535 -1169.66113281 729.15478516 C-1171.43524131 727.35059109 -1173.09331003 725.49237503 -1174.7421875 723.57373047 C-1178.45106599 719.30827523 -1182.30122416 715.1930544 -1186.19140625 711.09326172 C-1191.51656406 705.45882994 -1196.81455116 699.80259039 -1202.06298828 694.09667969 C-1205.87769923 689.95193629 -1209.71874977 685.83242255 -1213.56640625 681.71826172 C-1218.67259962 676.25608101 -1223.74427329 670.76450116 -1228.7890625 665.24560547 C-1231.19444793 662.61523696 -1233.61121459 659.99557067 -1236.03149414 657.37890625 C-1237.5532896 655.73245282 -1239.07161622 654.08284857 -1240.58984375 652.43310547 C-1242.43450822 650.43076176 -1244.2940946 648.44770391 -1246.16796875 646.47216797 C-1266.61855474 624.66032006 -1278.53646519 597.3118355 -1277.7890625 567.15576172 C-1275.98853212 542.68828042 -1268.47494321 519.50487684 -1251.50390625 501.28076172 C-1251.0567627 500.79269043 -1250.60961914 500.30461914 -1250.14892578 499.80175781 C-1231.75222523 479.87673541 -1206.61252904 467.19679101 -1179.3515625 466.02685547 C-1147.29009873 465.12921088 -1120.73677369 475.49470108 -1097.3828125 497.25732422 C-1093.95550478 500.60066672 -1090.82817844 504.17272924 -1087.703125 507.79638672 C-1084.78024598 511.0982536 -1081.76874268 514.3129454 -1078.75390625 517.53076172 C-1073.53600968 523.10065105 -1068.35394351 528.6994801 -1063.203125 534.33154297 C-1055.42337688 542.83184663 -1047.58390114 551.27578971 -1039.71557617 559.6940918 C-1035.96405269 563.70993068 -1032.22732872 567.73886409 -1028.50390625 571.78076172 C-1022.45943856 578.34085211 -1016.37282814 584.86114532 -1010.28173828 591.37792969 C-1008.53060317 593.25218773 -1006.78068711 595.12757501 -1005.03125 597.00341797 C-997.19340271 605.4074303 -989.34287558 613.79944112 -981.47753906 622.17773438 C-980.11701206 623.62745971 -978.75701779 625.07768513 -977.39746094 626.52832031 C-975.26738658 628.80101199 -973.13578954 631.07226696 -971.00390625 633.34326172 C-970.35760254 634.03339355 -969.71129883 634.72352539 -969.04541016 635.43457031 C-965.45887075 639.25148055 -961.81969712 642.99836305 -958.08276367 646.66845703 C-956.41282662 648.37377082 -954.86060605 650.14885052 -953.31640625 651.96826172 C-949.76214565 656.10018996 -945.9307188 659.91507187 -942.03051758 663.71704102 C-939.27758445 666.42223277 -936.67798002 669.19808113 -934.16015625 672.12451172 C-930.31971169 676.56423444 -926.19019121 680.66936558 -922.00390625 684.78076172 C-920.55345341 686.20526728 -919.1055136 687.63233636 -917.66015625 689.06201172 C-917.02916016 689.68140625 -916.39816406 690.30080078 -915.74804688 690.93896484 C-913.84937771 692.92025669 -912.05621051 694.93980079 -910.26538086 697.01708984 C-906.41656089 701.44368465 -902.32511653 705.58664945 -898.1640625 709.71826172 C-897.39710556 710.48380371 -896.63014862 711.2493457 -895.83995056 712.03808594 C-893.41779744 714.45469369 -890.99217013 716.86777898 -888.56640625 719.28076172 C-886.91187732 720.93026858 -885.25757823 722.580006 -883.60351562 724.22998047 C-879.57296423 728.24957543 -875.53956353 732.26629341 -871.50390625 736.28076172 C-868.54755417 733.94902915 -865.89157912 731.75648215 -863.50390625 728.84326172 C-859.70189341 724.38256682 -855.57607391 720.2935179 -851.38671875 716.20092773 C-848.55731888 713.41595289 -845.86632576 710.57952179 -843.28515625 707.56201172 C-838.19932587 701.67641621 -832.58197932 696.30143564 -827.046875 690.84423828 C-825.61371219 689.42942459 -824.18377358 688.01140474 -822.75390625 686.59326172 C-821.49320313 685.34996094 -821.49320313 685.34996094 -820.20703125 684.08154297 C-818.12246813 681.92167049 -816.15245573 679.74311123 -814.1953125 677.47216797 C-810.38624113 673.08188574 -806.32325721 668.99060278 -802.19140625 664.90576172 C-801.41885498 664.13699707 -800.64630371 663.36823242 -799.8503418 662.57617188 C-796.58014589 659.32216342 -793.30397135 656.07419906 -790.02832031 652.82568359 C-787.6222534 650.4378082 -785.21927587 648.04685379 -782.81640625 645.65576172 C-782.08703857 644.93469238 -781.3576709 644.21362305 -780.60620117 643.47070312 C-777.42083851 640.30042302 -774.32202231 637.11841974 -771.4140625 633.69091797 C-766.19122014 627.63587663 -760.42253222 622.09009413 -754.75482178 616.45651245 C-752.59079584 614.30537835 -750.43002147 612.15102383 -748.27001953 609.99584961 C-742.90746952 604.64659119 -737.53946579 599.30281647 -732.17163086 593.9588623 C-727.62527639 589.43231194 -723.0810255 584.9036691 -718.53948975 580.37228394 C-716.4217772 578.26100247 -714.30105077 576.15278164 -712.18017578 574.04467773 C-710.86866553 572.73680362 -709.5572975 571.42878686 -708.24609375 570.12060547 C-707.66510925 569.54478729 -707.08412476 568.96896912 -706.48553467 568.3757019 C-703.62549454 565.51602516 -700.88706153 562.60087384 -698.25319809 559.53082329 C-694.72397294 555.48176412 -691.01880177 551.65594291 -687.21494389 547.86595821 C-686.51196542 547.1615263 -685.80898695 546.45709439 -685.0847061 545.73131606 C-682.73778799 543.38076 -680.38734029 541.03376643 -678.03688049 538.68675232 C-676.33278648 536.98150562 -674.62891045 535.27604107 -672.9252333 533.57037789 C-669.22534308 529.86718529 -665.52390764 526.16554453 -661.82108879 522.46528053 C-656.31478584 516.96276643 -650.8113521 511.45738927 -645.30847046 505.95145389 C-635.47914883 496.11687059 -625.64697264 486.2851451 -615.81357508 476.45463742 C-607.20815613 467.85173503 -598.60366843 459.24790257 -590.0001049 450.64314461 C-589.42918586 450.07214918 -588.85826681 449.50115375 -588.27004719 448.91285543 C-585.95244279 446.59493968 -583.63484192 444.27702041 -581.31724685 441.95909532 C-559.58087572 420.21966588 -537.84159063 398.48315247 -516.10099874 376.74794411 C-496.79006138 357.44175227 -477.48171075 338.13297701 -458.17553711 318.82202148 C-436.47981521 297.12094379 -414.78247708 275.42148414 -393.08253235 253.72462898 C-390.76885951 251.41127686 -388.4551906 249.09792079 -386.14152336 246.78456306 C-385.5718471 246.21496588 -385.00217084 245.6453687 -384.41523166 245.05851099 C-375.81636783 236.46078415 -367.21873761 227.86182504 -358.62170601 219.26226616 C-348.8455136 209.48321415 -339.06753531 199.70595177 -329.28720111 189.93104201 C-323.81501446 184.46179036 -318.34420199 178.99117267 -312.87537092 173.51856564 C-308.79119168 169.4318778 -304.70440064 165.34781017 -300.61658787 161.26475716 C-298.96370835 159.61299493 -297.31167146 157.96038898 -295.66056294 156.30685645 C-293.41557909 154.05882963 -291.16753392 151.81390829 -288.91870975 149.56972408 C-287.95934332 148.6068459 -287.95934332 148.6068459 -286.98059574 147.62451562 C-283.21087505 143.8703125 -279.3247181 140.30673383 -275.28865729 136.83998882 C-272.60235811 134.49313461 -270.08854777 131.99110187 -267.58015442 129.45707703 C-266.76899116 128.64402036 -266.76899116 128.64402036 -265.94144076 127.8145383 C-264.15622283 126.02400542 -262.37463655 124.22990439 -260.59301758 122.43579102 C-259.30284328 121.14041529 -258.01242099 119.84528653 -256.72177124 118.55038452 C-253.9546227 115.77333906 -251.18895098 112.9948342 -248.42435646 110.2152462 C-244.04255348 105.81024662 -239.6557585 101.41024123 -235.26799011 97.01118469 C-222.79531701 84.5051903 -210.32680003 71.99507369 -197.86889648 59.47436523 C-190.97924885 52.55006837 -184.08415236 45.63124541 -177.18307704 38.71833736 C-172.8302646 34.35747912 -168.48406966 29.99016887 -164.14278281 25.61783826 C-161.42650081 22.88541444 -158.70380922 20.15944609 -155.97935104 17.43517685 C-154.72918637 16.18261473 -153.48155415 14.92751833 -152.2368412 13.6695385 C-110.43525594 -28.55845288 -48.39190913 -40.44224077 0 0 Z " fill="#1E2A33" transform="translate(1708.50390625,609.71923828125)"/>
</svg>
