<?xml version="1.0" encoding="UTF-8"?>
<svg version="1.1" xmlns="http://www.w3.org/2000/svg" width="2134" height="2134">
<path d="M0 0 C4.12647119 1.6276602 6.87616495 4.61580072 9.92675781 7.71557617 C10.50945938 8.29959198 11.09216095 8.88360779 11.69252014 9.48532104 C13.61735925 11.41664872 15.53512207 13.35485399 17.453125 15.29296875 C18.79536665 16.64148521 20.13812769 17.98948487 21.48138428 19.33699036 C25.02039394 22.88930682 28.55380444 26.44713644 32.08563232 30.0065918 C37.72275334 35.68679281 43.36646931 41.36041949 49.01363373 47.03063393 C50.97680508 49.00394826 52.93647781 50.98068706 54.89581299 52.95780945 C56.11564265 54.18447673 57.33558719 55.41102977 58.55566406 56.63745117 C59.35868706 57.45058022 59.35868706 57.45058022 60.17793274 58.28013611 C62.89413804 61.0042816 65.66829939 63.59837956 68.59495163 66.09579277 C73.52038587 70.3908157 78.11999141 74.98439361 82.73168945 79.61143494 C83.69120978 80.57051835 84.65095017 81.52938165 85.61088943 82.48804575 C88.22882247 85.10375729 90.84365167 87.72255196 93.4579556 90.34188998 C96.28492445 93.17319704 99.11480314 96.00159321 101.94432068 98.83035278 C106.83988258 103.72539158 111.73361736 108.62225083 116.62609863 113.52036858 C123.69971662 120.60213052 130.77611036 127.68111349 137.85317397 134.75943191 C149.33652877 146.24497268 160.8176509 157.73274256 172.29736328 169.22192383 C183.44560228 180.37934871 194.5948962 191.53571771 205.74560547 202.69067383 C206.43349966 203.37883074 207.12139385 204.06698766 207.83013332 204.77599781 C211.28127148 208.22844105 214.73243033 211.6808636 218.18359947 215.13327587 C246.7922756 243.75231044 275.39732601 272.3749668 304 301 C303.04143663 302.28893665 302.08138306 303.57676515 301.12069702 304.86412048 C300.3189911 305.94003653 300.3189911 305.94003653 299.5010891 307.03768826 C297.92083967 309.10348303 296.25992127 310.98443635 294.4140625 312.81640625 C293.79273438 313.43580078 293.17140625 314.05519531 292.53125 314.69335938 C291.9021875 315.31017578 291.273125 315.92699219 290.625 316.5625 C290.00367188 317.18318359 289.38234375 317.80386719 288.7421875 318.44335938 C285.69867227 321.45857746 282.59994332 324.34950066 279.35107422 327.14233398 C274.52478377 331.34866921 270.0338555 335.85865121 265.53125 340.40625 C264.65150513 341.28978149 263.77176025 342.17331299 262.86535645 343.08361816 C260.07445494 345.88665133 257.28670768 348.69279916 254.5 351.5 C250.82601262 355.2010055 247.14834398 358.89831822 243.46875 362.59375 C242.63831177 363.43248657 241.80787354 364.27122314 240.95227051 365.13537598 C236.77072112 369.33431226 232.51242563 373.34116213 228.02062988 377.20422363 C224.09613477 380.69200516 220.44220794 384.45739874 216.75 388.1875 C215.89245117 389.04883545 215.03490234 389.9101709 214.15136719 390.79760742 C211.43179111 393.5293112 208.715488 396.26423275 206 399 C202.41961974 402.60711851 198.83584819 406.21081802 195.25 409.8125 C194.44143555 410.62936279 193.63287109 411.44622559 192.79980469 412.2878418 C189.2959802 415.80661185 185.77940395 419.24770033 182.01367188 422.48632812 C177.28207071 426.5577195 172.92106584 430.97256794 168.53125 435.40625 C167.65150513 436.28978149 166.77176025 437.17331299 165.86535645 438.08361816 C163.07445494 440.88665133 160.28670768 443.69279916 157.5 446.5 C153.82601262 450.2010055 150.14834398 453.89831822 146.46875 457.59375 C145.63831177 458.43248657 144.80787354 459.27122314 143.95227051 460.13537598 C139.77505517 464.3299602 135.52110494 468.33174017 131.03405762 472.1907959 C127.02946283 475.75270548 123.30070888 479.59912396 119.53125 483.40625 C118.65150513 484.28978149 117.77176025 485.17331299 116.86535645 486.08361816 C114.07445494 488.88665133 111.28670768 491.69279916 108.5 494.5 C104.82601262 498.2010055 101.14834398 501.89831822 97.46875 505.59375 C96.63831177 506.43248657 95.80787354 507.27122314 94.95227051 508.13537598 C91.40220763 511.70020003 87.84419356 515.19327001 84.02734375 518.47265625 C79.13441706 522.68095591 74.63337049 527.26103648 70.09375 531.84375 C68.68137068 533.2619165 67.26898839 534.68008007 65.85643768 536.09807587 C63.40212499 538.56323132 60.95115467 541.03170509 58.5 543.5 C55.57062797 546.44985631 52.64063715 549.39907839 49.70666504 552.34436035 C47.88779387 554.17068429 46.07117348 555.99925361 44.25720215 557.83044434 C40.62379396 561.47823531 36.99323878 565.06767372 33.08203125 568.41796875 C28.25504089 572.56593295 23.80272427 577.08494076 19.32408142 581.60075378 C17.74426867 583.19353491 16.16117414 584.78299157 14.57727051 586.3717041 C11.21533139 589.74497313 7.85736181 593.12217602 4.5 596.5 C0.60402651 600.41971835 -3.29363538 604.33772742 -7.1955719 608.25151062 C-8.74181555 609.80415238 -10.2849738 611.35981403 -11.82800293 612.91564941 C-15.77277987 616.88073641 -19.70619853 620.82138139 -23.95898438 624.45898438 C-28.97583529 628.75718375 -33.58173332 633.4703432 -38.23150635 638.15634155 C-39.9121424 639.84992862 -41.59604629 641.54020777 -43.28076172 643.22973633 C-46.85668537 646.81699813 -50.42864432 650.4081912 -54 654 C-58.14379823 658.16752973 -62.28927661 662.33335975 -66.43902588 666.4949646 C-68.08498106 668.14732532 -69.72785645 669.80270465 -71.37060547 671.45825195 C-76.0956465 676.20615683 -80.86333867 680.82503959 -85.95654297 685.18139648 C-89.96777631 688.75125039 -93.71110857 692.60387726 -97.49072266 696.41555786 C-99.0369274 697.97473727 -100.58641896 699.53058621 -102.13671875 701.08569336 C-105.42732983 704.38763136 -108.71396962 707.69350416 -112 711 C-115.81336505 714.83711476 -119.62842149 718.67251675 -123.44775391 722.50369263 C-124.96076052 724.02309466 -126.4706797 725.54551703 -127.98046875 727.06811523 C-132.5284528 731.64001363 -137.13600552 736.06125772 -142.03320312 740.25805664 C-145.94430771 743.72202526 -149.57604988 747.47584394 -153.25 751.1875 C-154.10754883 752.04883545 -154.96509766 752.9101709 -155.84863281 753.79760742 C-158.56820889 756.5293112 -161.284512 759.26423275 -164 762 C-167.58038026 765.60711851 -171.16415181 769.21081802 -174.75 772.8125 C-175.55856445 773.62936279 -176.36712891 774.44622559 -177.20019531 775.2878418 C-181.36718247 779.47260325 -185.61630605 783.4665102 -190.0925293 787.31738281 C-193.29641254 790.14359084 -196.28187838 793.17868885 -199.28125 796.21875 C-199.93903442 796.88032104 -200.59681885 797.54189209 -201.27453613 798.22351074 C-203.35217274 800.31322735 -205.42650627 802.40617315 -207.5 804.5 C-210.2365815 807.263417 -212.97662263 810.02333722 -215.71875 812.78125 C-216.33045044 813.40124878 -216.94215088 814.02124756 -217.5723877 814.66003418 C-221.31623793 818.42469627 -225.19365742 821.96578686 -229.21130371 825.43615723 C-231.30085342 827.26303373 -233.27465773 829.17574394 -235.21875 831.15625 C-235.92386719 831.86910156 -236.62898438 832.58195312 -237.35546875 833.31640625 C-238.06316406 834.03699219 -238.77085937 834.75757813 -239.5 835.5 C-244.22346856 840.30950624 -249.0006955 844.93693074 -254.11132812 849.33398438 C-257.0452109 851.92199059 -259.76717601 854.70305294 -262.5 857.5 C-266.52790431 861.5787296 -270.60259775 865.48574746 -274.9765625 869.1953125 C-278.09638096 871.97785329 -280.99733693 874.97684025 -283.93188477 877.95141602 C-287.15398526 881.20033476 -290.49358303 884.22458921 -293.97265625 887.19140625 C-296.41428634 889.36958492 -298.70048032 891.67248008 -301 894 C-303.89591958 896.93118191 -306.80242571 899.76403174 -309.9375 902.4375 C-313.28925164 905.30172413 -316.40555399 908.36335221 -319.5 911.5 C-322.51231105 914.5531698 -325.53548902 917.54072412 -328.8125 920.3125 C-333.37604095 924.19856683 -337.53585856 928.48287377 -341.72583008 932.76293945 C-344.67986103 935.76079001 -347.68100661 938.63218314 -350.87109375 941.37890625 C-355.4787559 945.35830129 -359.77004067 949.62319609 -364.0625 953.9375 C-364.82626953 954.69740234 -365.59003906 955.45730469 -366.37695312 956.24023438 C-370.55775166 960.42818569 -374.55120359 964.70977077 -378.41186523 969.19360352 C-380.66393732 971.75518404 -383.05937635 974.11680279 -385.5 976.5 C-389.20677857 980.15711176 -392.75305491 983.88964571 -396.1328125 987.8515625 C-398.02820841 990.03245738 -399.9802652 992.15455746 -401.94580078 994.2722168 C-406.77700954 999.47892948 -411.36061882 1004.81167793 -415.81640625 1010.34765625 C-417.99397068 1012.99267637 -420.25318763 1015.53212525 -422.5625 1018.0625 C-426.93715723 1022.87462296 -430.97759515 1027.89274341 -435 1033 C-436.99614882 1035.50308496 -438.9981761 1038.00145255 -441 1040.5 C-443.72603374 1043.9041621 -446.45192162 1047.3082121 -449.16015625 1050.7265625 C-457.0117572 1060.6257062 -465.18493978 1070.21340932 -473.734375 1079.515625 C-475.69670909 1081.66742583 -477.60646536 1083.85042683 -479.5 1086.0625 C-483.0015806 1090.10087952 -486.79813146 1093.81437293 -490.6015625 1097.56640625 C-492.63307222 1099.6276938 -494.51731059 1101.72186556 -496.375 1103.9375 C-499.76774211 1107.90636813 -503.5761047 1111.36663856 -507.44775391 1114.85424805 C-510.64170854 1117.73580493 -513.73036468 1120.68334614 -516.75 1123.75 C-520.67199398 1127.71394044 -524.75780053 1131.38416555 -529 1135 C-529.99515625 1135.86109375 -530.9903125 1136.7221875 -532.015625 1137.609375 C-545.63554136 1149.38225316 -559.44573669 1160.86520895 -573.96972656 1171.51123047 C-575.32048014 1172.50171812 -576.66880569 1173.49552569 -578.01464844 1174.49267578 C-616.41154884 1202.93652613 -657.63866052 1227.00466166 -700 1249 C-701.59642334 1249.82927002 -701.59642334 1249.82927002 -703.22509766 1250.67529297 C-778.32140342 1289.44697335 -858.75968592 1316.74406164 -1041.39511871 1371.9867878 C-1050.05815982 1374.53397768 -1058.71296114 1377.10647261 -1067.35546875 1379.72265625 C-1069.11303391 1380.25302167 -1070.8706021 1380.78337704 -1072.62817383 1381.3137207 C-1075.64494598 1382.22454212 -1078.65865448 1383.14458332 -1081.6706543 1384.07104492 C-1088.12601641 1386.03306665 -1094.2483693 1387.55871695 -1101 1388 C-1100.43029781 1383.54521083 -1099.28671437 1380.02044785 -1097.3671875 1375.96875 C-1096.81619385 1374.78627686 -1096.2652002 1373.60380371 -1095.69750977 1372.38549805 C-1095.25340256 1371.44062027 -1095.25340256 1371.44062027 -1094.80032349 1370.47665405 C-1066.00347379 1308.96150772 -1046.17622711 1243.16142993 -1026.28491211 1178.38134766 C-998.41419248 1087.64934852 -969.20126894 993.19928919 -885.5546875 883.80078125 C-883.60022587 881.65804579 -881.68643529 879.49618351 -879.78662109 877.30587769 C-866.94652089 862.61871049 -853.04560567 848.89575746 -839.25 835.1171875 C-837.29625965 833.16322292 -835.34311877 831.20865943 -833.38989258 829.25418091 C-829.33089 825.19337811 -825.26982648 821.13464545 -821.20751953 817.07714844 C-816.5327627 812.40786331 -811.86166327 807.73494251 -807.19238091 803.06018341 C-803.14540803 799.00865709 -799.09647085 794.95910158 -795.0459156 790.91115677 C-792.64265716 788.50944462 -790.24004928 786.10709211 -787.8392334 783.70293808 C-785.1699802 781.0311336 -782.49752275 778.36257483 -779.82421875 775.69482422 C-779.04590195 774.91448318 -778.26758514 774.13414215 -777.46568298 773.33015442 C-776.36058128 772.22928246 -776.36058128 772.22928246 -775.2331543 771.10617065 C-774.60499313 770.47838652 -773.97683197 769.85060238 -773.32963562 769.20379448 C-771.39520518 767.37385718 -769.42631435 765.63970672 -767.40664679 763.90664679 C-762.80273558 759.88433803 -758.47913856 755.61783964 -754.16401577 751.28985691 C-753.30594185 750.43323644 -752.44786794 749.57661596 -751.56379178 748.69403729 C-749.19269239 746.32594831 -746.82383637 743.95565592 -744.45591959 741.58438714 C-741.87537012 739.00129267 -739.29191392 736.42110798 -736.70883375 733.84054464 C-732.18536232 729.32068017 -727.66374832 724.79896423 -723.14335632 720.27602005 C-716.42132622 713.55020506 -709.69643749 706.82725373 -702.97098707 700.1048591 C-690.95893384 688.09807062 -678.94974181 676.08842359 -666.94176516 664.07755828 C-656.43337824 653.56665586 -645.92406246 643.05668329 -635.41382027 632.54763603 C-634.71666728 631.85055943 -634.01951429 631.15348283 -633.30123546 630.43528269 C-630.47126751 627.60562608 -627.64129603 624.775973 -624.81131874 621.94632574 C-598.26369105 595.40175709 -571.71898051 568.85427299 -545.17557366 542.30548376 C-521.59304972 518.71821422 -498.00794201 495.13353114 -474.4206543 471.55102539 C-447.92044539 445.05617105 -421.4218528 418.55970189 -394.92586619 392.06062502 C-392.10136863 389.23580674 -389.27686713 386.4109924 -386.45236397 383.58617973 C-385.40916815 382.5428653 -385.40916815 382.5428653 -384.34489767 381.47847381 C-373.84239799 370.97483663 -363.33866493 360.47243393 -352.83433342 349.97062874 C-340.89052224 338.02967576 -328.94849747 326.08693945 -317.00882929 314.14184386 C-310.32648448 307.45656169 -303.64276883 300.77265702 -296.95706915 294.09072989 C-292.49139857 289.62730137 -288.02754902 285.16205717 -283.56517596 280.69533194 C-281.02269997 278.15047726 -278.47944803 275.60641177 -275.9339838 273.06454576 C-273.18999358 270.32439485 -270.44988922 267.58037893 -267.71014309 264.83598423 C-266.92222886 264.05041117 -266.13431464 263.26483811 -265.32252422 262.4554598 C-261.22188942 258.34087895 -257.30003012 254.13464836 -253.50774923 249.73433355 C-251.70663552 247.66254876 -249.82207355 245.6967318 -247.88136387 243.75552273 C-247.14084705 243.01239816 -246.40033023 242.26927359 -245.63737351 241.5036301 C-244.84612121 240.71460853 -244.05486892 239.92558696 -243.23963928 239.11265564 C-242.38175684 238.25321321 -241.5238744 237.39377077 -240.63999552 236.50828463 C-238.2787223 234.14373212 -235.91525244 231.78141647 -233.55078518 229.42006052 C-230.99337472 226.86492414 -228.43885777 224.30689762 -225.88395691 221.74925232 C-220.88650174 216.74736191 -215.88636072 211.7481649 -210.88523585 206.7499439 C-206.81898687 202.68595778 -202.75372044 198.62099121 -198.68914604 194.55533028 C-197.81979457 193.68574896 -197.81979457 193.68574896 -196.93288044 192.79860033 C-195.7553248 191.62072495 -194.5777714 190.44284734 -193.40022021 189.26496751 C-182.37084793 178.23274702 -171.33841857 167.20358778 -160.3049333 156.17548097 C-150.84779226 146.72280736 -141.39327606 137.26751505 -131.94067383 127.81030273 C-120.95070818 116.81497969 -109.95911455 105.82128827 -98.9649362 94.83017737 C-97.79151195 93.65707165 -96.61808978 92.48396386 -95.44466972 91.31085396 C-94.57876091 90.44517655 -94.57876091 90.44517655 -93.69535898 89.56201072 C-89.63699268 85.50450607 -85.57978427 81.44584585 -81.52302742 77.3867321 C-76.57588999 72.43678354 -71.62696143 67.48863404 -66.67576248 62.54274791 C-64.15201244 60.02161717 -61.6290522 57.49970984 -59.10827255 54.97560883 C-56.3706823 52.23446626 -53.62919878 49.49723834 -50.88734436 46.76036072 C-50.09832279 45.96910842 -49.30930122 45.17785613 -48.4963699 44.36262649 C-44.34275605 40.22358837 -40.10498534 36.24672031 -35.65728086 32.42449385 C-33.72169905 30.7607901 -31.85258152 29.03665369 -30 27.28125 C-29.34 26.65863281 -28.68 26.03601563 -28 25.39453125 C-27.34 24.76933594 -26.68 24.14414063 -26 23.5 C-21.36118368 19.10580876 -16.67298643 14.7960473 -11.84765625 10.60693359 C-9.37237953 8.45414932 -6.93494279 6.26071224 -4.5 4.0625 C-3.6440625 3.29035156 -2.788125 2.51820313 -1.90625 1.72265625 C-1.2771875 1.15417969 -0.648125 0.58570313 0 0 Z M-874 990 C-885.46897592 1024.36119088 -896.93480912 1058.72342879 -908.39640433 1093.08708232 C-909.74829623 1097.14025649 -911.10021426 1101.19342196 -912.45214844 1105.24658203 C-912.85588143 1106.45699408 -912.85588143 1106.45699408 -913.26777065 1107.6918589 C-917.63100473 1120.77284881 -921.99635694 1133.85313093 -926.36248672 1146.93315457 C-930.83955147 1160.34567276 -935.31435219 1173.75894471 -939.78703403 1187.17292511 C-942.54894592 1195.45591093 -945.31264071 1203.7382975 -948.07858968 1212.0199361 C-949.97286495 1217.69222333 -951.86494874 1223.36523847 -953.75528121 1229.03884088 C-954.84739946 1232.3164818 -955.94050936 1235.59378351 -957.03621292 1238.87022781 C-958.22131256 1242.41565677 -959.40275984 1245.96228158 -960.58325195 1249.50924683 C-960.9334373 1250.55397718 -961.28362265 1251.59870754 -961.64441967 1252.67509639 C-961.95792527 1253.6195953 -962.27143087 1254.5640942 -962.59443665 1255.53721428 C-963.0045346 1256.76636899 -963.0045346 1256.76636899 -963.42291737 1258.02035511 C-964.09328658 1259.97633992 -964.09328658 1259.97633992 -964 1262 C-955.74720676 1259.95246062 -947.79569066 1257.23513027 -939.82180786 1254.30657959 C-936.7118902 1253.16474277 -933.59817552 1252.0334166 -930.48469543 1250.90133667 C-928.76512004 1250.27607592 -927.04571325 1249.65035135 -925.32646179 1249.02420044 C-915.20228389 1245.33920825 -905.05899762 1241.70767158 -894.91571045 1238.07568359 C-891.52648985 1236.86210585 -888.13748235 1235.64793476 -884.74853516 1234.43359375 C-880.13206788 1232.77942922 -875.51552676 1231.12547103 -870.89892578 1229.47167969 C-860.86407522 1225.87673173 -850.83016471 1222.27916181 -840.79620361 1218.68173218 C-837.48835287 1217.49582435 -834.18046239 1216.31002742 -830.87255859 1215.12426758 C-820.96150834 1211.57149644 -811.05058495 1208.01837338 -801.14030457 1204.4634552 C-768.10395836 1192.61303276 -735.05559925 1180.79659137 -702 1169 C-702.94835195 1167.89102187 -703.89707327 1166.78235961 -704.84594727 1165.67382812 C-705.63836571 1164.74769714 -705.63836571 1164.74769714 -706.4467926 1163.80285645 C-713.47013233 1155.65064618 -720.92774472 1147.95680412 -728.60913086 1140.42773438 C-731.67401511 1137.40619193 -734.61398725 1134.34117263 -737.421875 1131.078125 C-741.2325065 1126.66120815 -745.33997159 1122.5856093 -749.5 1118.5 C-754.26857774 1113.81672776 -758.84975966 1109.08033648 -763.20898438 1104.01367188 C-766.47191 1100.34510446 -769.99848712 1096.93887401 -773.5 1093.5 C-778.26857774 1088.81672776 -782.84975966 1084.08033648 -787.20898438 1079.01367188 C-790.47191 1075.34510446 -793.99848712 1071.93887401 -797.5 1068.5 C-801.62324574 1064.45051536 -805.700117 1060.41641052 -809.46875 1056.03125 C-813.41187392 1051.44821339 -817.69110398 1047.23659911 -822 1043 C-826.93933826 1038.14353654 -831.71151141 1033.24978224 -836.2265625 1027.99609375 C-839.48190121 1024.33204512 -843.00451948 1020.93294957 -846.5 1017.5 C-851.3191058 1012.7671036 -855.963431 1007.98186216 -860.37011719 1002.86132812 C-862.76590301 1000.12533784 -865.29966005 997.56820604 -867.875 995 C-868.3596875 994.51144531 -868.844375 994.02289062 -869.34375 993.51953125 C-871.32804297 991.07251324 -871.32804297 991.07251324 -874 990 Z " fill="#1E2A33" transform="translate(1653,214)"/>
<path d="M0 0 C52.03411804 -0.07888329 104.06820808 -0.14183259 156.10238143 -0.1671486 C168.26024703 -0.17313075 180.41810018 -0.18416822 192.57595921 -0.19798851 C206.20771502 -0.21342674 219.83945265 -0.22146849 233.47121757 -0.2194562 C240.25584987 -0.21859701 247.04043782 -0.22063884 253.82506466 -0.23157692 C277.08134271 -0.26686054 300.31028043 -0.26495535 323.54260349 0.89969826 C324.33113461 0.93858213 325.11966572 0.977466 325.93209171 1.01752818 C334.31619542 1.44582329 342.65723173 2.09800304 351.00305271 3.01012611 C351.75122383 3.0918043 352.49939495 3.17348249 353.27023792 3.25763577 C358.37475179 3.84472231 363.21403801 4.71067565 368.08947849 6.32279396 C368.78307468 6.54225685 369.47667088 6.76171974 370.19128513 6.98783302 C372.2075581 7.63919053 374.2112781 8.31994289 376.21447849 9.01029396 C377.32951756 9.3802549 378.44455662 9.75021584 379.59338474 10.13138771 C391.0631555 14.36480246 398.05861274 21.26457922 403.15588474 32.31107521 C408.498353 45.93338356 406.91074863 67.30989687 402.21447849 81.01029396 C397.0972229 92.5473793 388.67361669 98.32905799 377.21447849 103.01029396 C89.21381687 199.30704028 -230.11226874 109.01029396 -533.78552151 109.01029396 C-533.78552151 696.08029396 -533.78552151 1283.15029396 -533.78552151 1888.01029396 C-527.51552151 1888.34029396 -521.24552151 1888.67029396 -514.78552151 1889.01029396 C-504.77021363 1889.73325825 -504.77021363 1889.73325825 -501.10025866 1890.01896732 C-435.99300079 1895.02783934 -371.03543222 1895.88444933 -305.77267707 1895.78615023 C-294.39962365 1895.76904273 -283.0266576 1895.76697868 -271.65359592 1895.77704811 C-270.48612184 1895.77807053 -270.48612184 1895.77807053 -269.29506241 1895.77911361 C-265.3225314 1895.78265314 -261.35000061 1895.78640519 -257.37746986 1895.79023335 C-228.9398281 1895.81722053 -200.50224751 1895.81613078 -172.06460094 1895.79930496 C-143.87663154 1895.78272775 -115.68870697 1895.77945259 -87.50073528 1895.7928009 C-86.17403029 1895.79342129 -86.17403029 1895.79342129 -84.82052318 1895.79405421 C-75.83358021 1895.79826804 -66.84663739 1895.80272887 -57.85969462 1895.80734797 C-38.6714075 1895.81719102 -19.48311968 1895.82505616 -0.29483128 1895.83193684 C0.61948897 1895.83226642 1.53380922 1895.83259601 2.47583615 1895.83293558 C46.76762504 1895.84874606 91.05940725 1895.84311152 135.35119724 1895.83524513 C150.67006522 1895.83254296 165.98893321 1895.82990619 181.30780125 1895.8275547 C182.25715363 1895.8274084 183.20650601 1895.8272621 184.18462665 1895.82711137 C228.15671749 1895.82042867 272.12880343 1895.82655999 316.10089332 1895.83655106 C318.95093642 1895.83719807 321.80097952 1895.83783796 324.65102262 1895.83847655 C365.04101221 1895.84755528 405.43100121 1895.85863537 445.82099014 1895.87023275 C460.54423487 1895.87445655 475.26747963 1895.87857688 489.99072439 1895.88267355 C495.45600926 1895.8841973 500.92129411 1895.8857516 506.38657896 1895.88732802 C553.93368121 1895.90102685 601.48077263 1895.90562552 649.02787648 1895.90023836 C680.0837081 1895.89673679 711.13953963 1895.89661482 742.19537127 1895.89993571 C743.76458357 1895.90010281 745.33379586 1895.90026504 746.90300816 1895.90042237 C830.96701537 1895.90887334 915.02838312 1896.01411736 999.09030171 1896.67753313 C1015.46492995 1896.80671885 1031.83956136 1896.92409535 1048.21447849 1897.01029396 C1049.04511054 1897.01467107 1049.87574259 1897.01904818 1050.73154531 1897.02355793 C1062.6104379 1897.08508374 1074.48927121 1897.12838214 1086.36829747 1897.1528943 C1089.92107754 1897.16056011 1093.47379099 1897.17284604 1097.02654003 1897.18949988 C1130.00485801 1897.40096385 1130.00485801 1897.40096385 1162.58947849 1892.69779396 C1163.59422215 1892.47905617 1164.5989658 1892.26031837 1165.63415623 1892.03495216 C1183.98075197 1887.92204681 1199.95269037 1881.43665196 1214.21447849 1869.01029396 C1215.68594334 1867.83660255 1215.68594334 1867.83660255 1217.18713474 1866.63920021 C1238.91903144 1848.51611129 1246.42189595 1816.39691408 1249.01002216 1789.64008904 C1249.32110688 1785.6387991 1249.35393153 1781.6581438 1249.34387302 1777.64652443 C1249.3465015 1776.31948242 1249.3465015 1776.31948242 1249.34918308 1774.96563148 C1249.35359235 1772.01956154 1249.35064144 1769.07355213 1249.34729099 1766.12748146 C1249.34797013 1763.96627733 1249.34894509 1761.80507328 1249.35019016 1759.6438694 C1249.3516706 1755.04204541 1249.34952263 1750.4402407 1249.34484959 1745.83841896 C1249.33955072 1740.3895723 1249.34209372 1734.94077707 1249.34819603 1729.49193281 C1249.37041145 1704.47210768 1249.24565987 1679.45533983 1248.98742771 1654.43694496 C1248.30962716 1588.34799547 1248.06271489 1522.26665041 1248.07917891 1456.17443026 C1248.08154487 1446.54950118 1248.08175445 1436.92457376 1248.08066273 1427.29964447 C1248.08058634 1426.60093653 1248.08050996 1425.90222859 1248.08043126 1425.18234768 C1248.08011967 1422.34272207 1248.07980124 1419.50309647 1248.07947149 1416.66347087 C1248.07646248 1390.43626528 1248.07910921 1364.20906319 1248.08456839 1337.98185814 C1248.08935071 1314.82946967 1248.08884859 1291.67708669 1248.0841074 1268.52469826 C1248.0787355 1242.20781224 1248.07663538 1215.89092923 1248.07971966 1189.57404274 C1248.08004021 1186.76586115 1248.08035305 1183.95767957 1248.08066273 1181.14949799 C1248.0807418 1180.45857479 1248.08082088 1179.76765159 1248.08090236 1179.05579133 C1248.08202858 1168.73105502 1248.0807318 1158.40632093 1248.07818317 1148.08158493 C1248.07530724 1136.37614083 1248.07617116 1124.67070196 1248.08146392 1112.96525843 C1248.08406534 1107.02028079 1248.08516694 1101.07531428 1248.08181477 1095.13033676 C1248.03856717 1011.11201196 1248.03856717 1011.11201196 1251.90197849 994.88529396 C1252.07495457 994.14086037 1252.24793064 993.39642677 1252.42614841 992.62943459 C1255.73542448 979.17947814 1261.55131582 965.19932307 1273.21447849 957.01029396 C1281.13245145 952.48573798 1289.29436422 951.79361491 1298.08947849 954.07279396 C1320.9066304 961.63141704 1338.00205736 983.31210434 1349.12072849 1003.57279396 C1351.56409494 1009.01801061 1351.49290835 1014.76368509 1351.71447849 1020.63529396 C1351.75508396 1021.67266701 1351.79568943 1022.71004005 1351.83752537 1023.77884865 C1354.08792787 1084.79937799 1354.38943278 1145.91228902 1354.75416213 1206.96833017 C1354.7693591 1209.49157613 1354.78490529 1212.0148197 1354.8005662 1214.53806281 C1355.33444801 1300.60307559 1355.36887537 1386.66795492 1355.34394035 1472.73434089 C1355.33941566 1488.65827758 1355.34029927 1504.58220699 1355.34484959 1520.50614357 C1355.35026906 1539.47785979 1355.35227576 1558.44957178 1355.34923732 1577.42128867 C1355.34891906 1579.46051101 1355.34860468 1581.49973335 1355.34829426 1583.53895569 C1355.34813998 1584.53985848 1355.34798571 1585.54076128 1355.34782676 1586.57199446 C1355.34698782 1593.39497847 1355.34838347 1600.21795958 1355.35077381 1607.04094315 C1355.36666043 1656.70545749 1355.03720672 1706.35234912 1354.21447849 1756.01029396 C1354.20333556 1756.68387865 1354.19219264 1757.35746335 1354.18071204 1758.0514597 C1353.92221793 1773.64755307 1353.64521763 1789.24317821 1353.33947849 1804.83841896 C1353.2318444 1810.3346952 1353.1289592 1815.83105052 1353.02710056 1821.32743645 C1352.94500243 1825.72552302 1352.86026388 1830.12355587 1352.77478123 1834.52157784 C1352.73567002 1836.55120922 1352.69737183 1838.58085651 1352.66003513 1840.61052132 C1352.46435332 1851.17888903 1352.18797728 1861.74064642 1351.75744724 1872.30228615 C1351.72167576 1873.23191296 1351.68590427 1874.16153976 1351.64904881 1875.11933708 C1350.39783442 1903.88454612 1341.57495303 1932.51283232 1323.21447849 1955.01029396 C1322.57687595 1955.79243263 1322.57687595 1955.79243263 1321.92639256 1956.59037209 C1298.82757071 1984.36457623 1264.31503194 1996.47078204 1229.21447849 2000.01029396 C1211.6448984 2001.49060374 1193.94931805 2001.18229522 1176.33255507 2001.20907029 C1171.84519233 2001.21694589 1167.35784531 2001.23037487 1162.87049395 2001.24302185 C1153.97416189 2001.2671987 1145.0778258 2001.28616492 1136.18147787 2001.30339558 C1128.76764512 2001.31788544 1121.35381965 2001.3345106 1113.93999457 2001.35249376 C1112.3283379 2001.35640058 1112.3283379 2001.35640058 1110.68412251 2001.36038633 C1108.49096813 2001.36570958 1106.29781375 2001.37103592 1104.10465939 2001.37636529 C1080.54318368 2001.43329821 1056.98169384 2001.48166582 1033.42019516 2001.52794657 C1032.19194997 2001.53035991 1030.96370478 2001.53277325 1029.69824004 2001.53525972 C1027.85003729 2001.53888992 1027.85003729 2001.53888992 1025.96449712 2001.54259345 C1013.42249818 2001.56733829 1000.88050309 2001.59383962 988.33850787 2001.62038803 C907.58509046 2001.79105606 826.83159504 2001.94082358 340.3076086 2002.1441021 C339.63573527 2002.14403385 338.96386195 2002.1439656 338.27162882 2002.14389528 C326.04099003 2002.14264833 313.81035126 2002.14134908 301.57971249 2002.13998324 C260.96487547 2002.13545659 220.35004117 2002.13577569 179.73520416 2002.14021186 C167.25460367 2002.1415738 154.77400317 2002.14284761 142.29340267 2002.14408684 C141.26597481 2002.14418888 141.26597481 2002.14418888 140.21779083 2002.14429299 C50.00353905 2002.1532057 -40.21071789 2002.15248441 -395.87506086 2001.66890246 C-405.27373004 2001.63648116 -414.67240428 2001.60822688 -424.07109165 2001.58158684 C-436.06562617 2001.54719106 -448.06007719 2001.50176056 -460.05453706 2001.44737101 C-464.25072996 2001.42861001 -468.44690244 2001.41385109 -472.64312339 2001.40312719 C-515.74744984 2001.28710537 -558.09492875 2000.20039633 -592.78552151 1971.01029396 C-593.96694729 1970.02996193 -593.96694729 1970.02996193 -595.17224026 1969.02982521 C-627.51137609 1941.15826231 -641.47643272 1897.63669891 -644.62416434 1856.24572521 C-644.89887806 1852.41905435 -645.14868564 1848.59123852 -645.38755322 1844.76217175 C-645.45299163 1843.71514941 -645.51843005 1842.66812708 -645.58585145 1841.58937679 C-647.27049415 1813.738996 -647.20769284 1785.87290319 -647.16210886 1757.984285 C-647.14958564 1749.91737786 -647.15531918 1741.85050313 -647.16116563 1733.78359198 C-647.17158945 1718.71787641 -647.16809978 1703.65219458 -647.15659618 1688.58648109 C-647.1450217 1673.35383122 -647.140138 1658.12120019 -647.14313793 1642.88854599 C-647.14332449 1641.92052128 -647.14351105 1640.95249657 -647.14370326 1639.95513778 C-647.14468387 1635.0175705 -647.14576866 1630.08000326 -647.14688847 1625.14243602 C-647.154736 1589.54124307 -647.14803124 1553.94006495 -647.13327694 1518.33887482 C-647.11869495 1483.08049779 -647.10996718 1447.82212755 -647.10909176 1412.56374741 C-647.10903013 1410.3432004 -647.10896841 1408.12265339 -647.10890662 1405.90210638 C-647.10867088 1396.97705624 -647.10848507 1388.05200611 -647.10835849 1379.12695598 C-647.10799684 1354.18191808 -647.1066492 1329.23688028 -647.10459423 1304.29184246 C-647.10450124 1303.15617586 -647.10440825 1302.02050925 -647.10431245 1300.85042851 C-647.09970087 1245.68683651 -647.08354779 1190.5232486 -647.06677151 1135.35965919 C-647.04347838 1058.76428085 -647.02930383 982.16890825 -647.02575588 905.57352638 C-647.02564349 903.19046699 -647.02553085 900.8074076 -647.02541796 898.42434822 C-647.02502447 890.09917383 -647.02463729 881.77399944 -647.02425083 873.44882504 C-647.0239207 866.33743113 -647.02358882 859.22603721 -647.02325496 852.1146433 C-647.02308951 848.56833218 -647.02292737 845.02202105 -647.02276535 841.47570993 C-647.0193283 767.12594563 -647.0081703 692.77618233 -646.99552214 618.42641909 C-646.99159006 595.26750646 -646.98808833 572.10859389 -646.98571014 548.94968104 C-646.98089771 502.58497784 -646.97376046 456.22027805 -646.95756248 409.85557722 C-646.9561999 405.92100127 -646.95484992 401.98642532 -646.95350933 398.05184937 C-646.95317847 397.08634615 -646.95284761 396.12084294 -646.95250673 395.12608205 C-646.94738716 379.94946488 -646.94550435 364.77284921 -646.94501199 349.59623125 C-646.94444962 334.60769467 -646.940227 319.61916255 -646.93232582 304.63062801 C-646.92820432 296.64091093 -646.92551364 288.65120098 -646.92744103 280.66148286 C-646.93325414 252.45150124 -646.90828954 224.24045123 -646.51262072 196.03273999 C-646.48124209 193.71072548 -646.45390067 191.38865155 -646.43133164 189.06653471 C-646.20987817 167.48920674 -644.2106835 146.17293723 -639.91052151 125.01029396 C-639.78168575 124.36494698 -639.65285 123.71959999 -639.52011013 123.05469704 C-636.21963291 106.54120075 -632.17105006 91.18388991 -624.78552151 76.01029396 C-624.30212307 75.01384865 -623.81872463 74.01740334 -623.32067776 72.99076271 C-608.19042954 43.6942433 -581.57541323 24.60361223 -550.81286526 14.64530373 C-532.8431716 9.10452952 -514.41314942 6.03571243 -495.78552151 3.76029396 C-495.11131161 3.67720985 -494.43710171 3.59412575 -493.7424612 3.50852394 C-477.67302981 1.55594069 -461.67569805 0.86162677 -445.50224209 0.85207558 C-443.8265356 0.84749303 -442.15083021 0.84249016 -440.47512609 0.8371104 C-435.90922197 0.82366105 -431.34332521 0.81614393 -426.77740657 0.80968298 C-421.81171421 0.80159768 -416.84603657 0.78792589 -411.88035488 0.77499866 C-402.09363892 0.75040537 -392.30691908 0.73098923 -382.52018853 0.71326714 C-370.90671397 0.69202162 -359.29325338 0.66538399 -347.6797903 0.63869119 C-322.62014154 0.5813645 -297.56048026 0.53200699 -272.50081067 0.48480657 C-270.57035002 0.48117044 -270.57035002 0.48117044 -268.60089016 0.47746086 C-267.31200771 0.47503465 -266.02312526 0.47260845 -264.69518576 0.47010872 C-251.71094195 0.44557841 -238.72670119 0.4195791 -225.7424605 0.39345709 C-153.91487302 0.24906357 -82.08726301 0.12371215 -10.25961196 0.01553273 C-6.83974128 0.01037572 -3.41987063 0.0051914 0 0 Z " fill="#728C93" transform="translate(722.7855215072632,80.98970603942871)"/>
<path d="M0 0 C4.11497169 3.55359145 8.07643982 7.23947845 12 11 C12.58539551 11.55284668 13.17079102 12.10569336 13.77392578 12.67529297 C48.5553997 45.64399199 72.387816 94.11540383 74.12426758 142.4597168 C74.2071268 146.55727194 74.24659645 150.65172503 74.25 154.75 C74.25067474 155.48165375 74.25134949 156.2133075 74.25204468 156.96713257 C74.23419939 169.19081911 73.5134606 181.00404949 71 193 C70.82839355 193.82177734 70.65678711 194.64355469 70.47998047 195.49023438 C62.31468809 233.23008439 44.93990803 268.54381084 20 298 C18.83791016 299.39798828 18.83791016 299.39798828 17.65234375 300.82421875 C16.85957031 301.74847656 16.06679687 302.67273438 15.25 303.625 C14.53328125 304.46289062 13.8165625 305.30078125 13.078125 306.1640625 C11 308 11 308 7 308 C4.73835715 306.0606043 2.7299555 304.14920405 0.6875 302 C0.14416016 301.44699219 -0.39917969 300.89398438 -0.95898438 300.32421875 C-3.7672363 297.43970969 -6.45741855 294.48308734 -9.0690918 291.41992188 C-13.57098824 286.26242166 -18.42073855 281.47321492 -23.28125 276.65625 C-24.26368378 275.67823581 -25.24581488 274.69991749 -26.22766113 273.72131348 C-29.31560571 270.64468605 -32.40748814 267.57203564 -35.5 264.5 C-39.08930463 260.93446097 -42.67688508 257.36722072 -46.26023865 253.79570007 C-47.67991157 252.38241371 -49.10266999 250.97222889 -50.5255127 249.56213379 C-54.91593154 245.18823619 -59.13236233 240.75822944 -63.16784668 236.05700684 C-67.01301725 231.73993246 -71.1764787 227.72424563 -75.28125 223.65625 C-76.26368378 222.67823581 -77.24581488 221.69991749 -78.22766113 220.72131348 C-81.31560571 217.64468605 -84.40748814 214.57203564 -87.5 211.5 C-91.08930463 207.93446097 -94.67688508 204.36722072 -98.26023865 200.79570007 C-99.67991157 199.38241371 -101.10266999 197.97222889 -102.5255127 196.56213379 C-106.91593154 192.18823619 -111.13236233 187.75822944 -115.16784668 183.05700684 C-119.01301725 178.73993246 -123.1764787 174.72424563 -127.28125 170.65625 C-128.26368378 169.67823581 -129.24581488 168.69991749 -130.22766113 167.72131348 C-133.31560571 164.64468605 -136.40748814 161.57203564 -139.5 158.5 C-143.08930463 154.93446097 -146.67688508 151.36722072 -150.26023865 147.79570007 C-151.67991157 146.38241371 -153.10266999 144.97222889 -154.5255127 143.56213379 C-158.91593154 139.18823619 -163.13236233 134.75822944 -167.16784668 130.05700684 C-171.01301725 125.73993246 -175.1764787 121.72424563 -179.28125 117.65625 C-180.26368378 116.67823581 -181.24581488 115.69991749 -182.22766113 114.72131348 C-185.31560571 111.64468605 -188.40748814 108.57203564 -191.5 105.5 C-195.08930463 101.93446097 -198.67688508 98.36722072 -202.26023865 94.79570007 C-203.67991157 93.38241371 -205.10266999 91.97222889 -206.5255127 90.56213379 C-210.91593154 86.18823619 -215.13236233 81.75822944 -219.16784668 77.05700684 C-223.01301725 72.73993246 -227.1764787 68.72424563 -231.28125 64.65625 C-232.26368378 63.67823581 -233.24581488 62.69991749 -234.22766113 61.72131348 C-237.31560571 58.64468605 -240.40748814 55.57203564 -243.5 52.5 C-247.08930463 48.93446097 -250.67688508 45.36722072 -254.26023865 41.79570007 C-255.67991157 40.38241371 -257.10266999 38.97222889 -258.5255127 37.56213379 C-272.34243084 23.797209 -272.34243084 23.797209 -275 18 C-257.83359434 -3.78572936 -230.73551626 -19.40769111 -206 -31 C-204.92234375 -31.52078125 -203.8446875 -32.0415625 -202.734375 -32.578125 C-133.99465021 -64.12534169 -56.69462127 -47.0563555 0 0 Z " fill="#F5A474" transform="translate(1981,152)"/>
</svg>
