<?xml version="1.0" encoding="UTF-8"?>
<svg version="1.1" xmlns="http://www.w3.org/2000/svg" width="2134" height="2134">
<path d="M0 0 C1.66189644 -0.00134859 3.32379256 -0.00313358 4.98568812 -0.00531223 C9.54420937 -0.01002431 14.10271056 -0.00854639 18.66123277 -0.00603446 C23.62391346 -0.0043975 28.58658993 -0.00854546 33.54926926 -0.01194364 C42.24459029 -0.0170928 50.93990575 -0.01851568 59.63522816 -0.01748753 C72.5659517 -0.01596231 85.49666908 -0.02012502 98.42739142 -0.02536215 C122.86687755 -0.03503392 147.30636196 -0.03784696 171.74584972 -0.03841921 C174.44043986 -0.03848396 177.13502999 -0.0385519 179.82962012 -0.03862262 C180.83266906 -0.03864812 180.83266906 -0.03864812 181.85598161 -0.03867415 C196.68487546 -0.03908288 211.51376888 -0.04127372 226.34266251 -0.04377846 C232.45183751 -0.04480685 238.56101252 -0.04579689 244.67018753 -0.04679471 C245.68276019 -0.0469606 245.68276019 -0.0469606 246.71578885 -0.04712983 C285.39307332 -0.05345283 324.07035751 -0.05757907 362.74764252 -0.05712128 C364.19466542 -0.0571055 365.64168832 -0.05708976 367.08871122 -0.05707407 C373.62165094 -0.05700069 380.15459067 -0.05691252 386.68753039 -0.05682018 C389.6006296 -0.05677906 392.51372881 -0.05673891 395.42682802 -0.05669887 C396.88488592 -0.05667848 398.34294382 -0.05665746 399.80100172 -0.05663581 C445.89382988 -0.05595575 491.98665035 -0.0632701 538.07947636 -0.07717609 C549.69076345 -0.08067727 561.30205055 -0.0841468 572.91333771 -0.08744049 C573.62834366 -0.08764336 574.34334961 -0.08784624 575.0800224 -0.08805526 C597.12781681 -0.09427317 619.17561059 -0.09803639 641.22340584 -0.09929848 C641.91593181 -0.09933843 642.60845778 -0.09937838 643.32196939 -0.09941954 C658.52689283 -0.10027294 673.73181623 -0.10053397 688.93673969 -0.10024916 C694.37780391 -0.10015268 699.81886813 -0.10010064 705.25993235 -0.10007043 C706.61347097 -0.10006252 707.96700958 -0.10005232 709.3205482 -0.10003981 C730.19358244 -0.09986916 751.06661045 -0.1050325 771.93964291 -0.11339092 C794.9159531 -0.12258482 817.89225182 -0.12485814 840.86856305 -0.1178815 C853.72168908 -0.11418902 866.57478625 -0.1160092 879.42790922 -0.12582384 C888.02182073 -0.13183087 896.61571138 -0.13052032 905.20962193 -0.12335334 C910.1006527 -0.11947795 914.99162769 -0.1186785 919.88265448 -0.12681069 C965.87873839 -0.1983189 965.87873839 -0.1983189 986.49573612 4.31613445 C987.99004154 4.63976971 987.99004154 4.63976971 989.51453495 4.96994305 C1017.15609792 11.22301333 1040.79665492 23.72300722 1061.43323612 43.12863445 C1062.02362675 43.65457195 1062.61401737 44.18050945 1063.22229862 44.72238445 C1088.53591337 68.23645313 1099.4574354 105.65734368 1101.43323612 139.12863445 C1101.60468276 144.50435327 1101.62624785 149.87589258 1101.62073612 155.25363445 C1101.62112888 156.08764782 1101.62152164 156.92166119 1101.62192631 157.78094769 C1101.60961774 180.65733116 1100.92900244 203.52900622 1100.29839897 226.39506817 C1098.94028026 275.67770541 1098.40531704 324.97169303 1097.93323612 374.26925945 C1097.92291945 375.34470288 1097.91260278 376.42014631 1097.90197349 377.52817893 C1097.69876163 398.73348987 1097.50043838 419.93884588 1097.30823612 441.14425945 C1097.21699223 451.20752152 1097.12257365 461.27074883 1097.02472019 471.33394885 C1096.96371597 477.62620599 1096.90656598 483.91848172 1096.85244083 490.2108016 C1096.81806643 494.09877468 1096.77997632 497.98670491 1096.74085331 501.87463284 C1096.72359242 503.662796 1096.70782782 505.45097438 1096.69373417 507.23916531 C1096.61926489 516.58114815 1096.41749268 525.82707562 1095.43323612 535.12863445 C1096.30174891 535.12655263 1097.17026169 535.12447081 1098.06509304 535.1223259 C1189.38276938 534.91698395 1280.697921 535.46378558 1372.01394626 535.94552405 C1388.47531241 536.03232194 1404.9366904 536.11645262 1421.39807987 536.19870281 C1471.73040033 536.45048981 1522.06258036 536.71804954 1572.39461741 537.02162649 C1584.41344921 537.0940941 1596.43229553 537.16164664 1608.45118046 537.22464275 C1619.78479513 537.28412104 1631.11830595 537.35302375 1642.45176208 537.43794757 C1647.71145387 537.47731412 1652.97107056 537.5129411 1658.23086262 537.5357523 C1682.11116819 537.6430243 1705.81245963 537.91420708 1729.12073612 543.81613445 C1730.14417118 544.06959637 1731.16760624 544.32305828 1732.22205448 544.58420086 C1775.95021 555.86037616 1817.14981522 582.3951876 1840.49182987 621.62863445 C1851.25458948 640.71379232 1857.78313983 660.74501442 1857.68771172 682.80551052 C1857.69091819 683.92213625 1857.69412467 685.03876197 1857.69742832 686.18922484 C1857.7057027 689.91564283 1857.69981292 693.64189901 1857.69393253 697.36831951 C1857.69695438 700.07314711 1857.70076346 702.77796332 1857.7055251 705.48278737 C1857.71426561 711.35588104 1857.71560688 717.22893983 1857.71202183 723.10203838 C1857.70670465 731.83588836 1857.71282035 740.5697047 1857.72110476 749.30355101 C1857.73633316 765.81149757 1857.73805101 782.31942876 1857.73558173 798.82738087 C1857.73374796 811.57676963 1857.73551045 824.32615336 1857.73980618 837.0755415 C1857.74040858 838.90826021 1857.74100978 840.74097893 1857.74160978 842.57369764 C1857.74251705 845.33555187 1857.74342572 848.0974061 1857.74434213 850.85926033 C1857.75277 876.53302487 1857.75710851 902.20678752 1857.75293541 927.88055325 C1857.75277903 928.84811389 1857.75262266 929.81567453 1857.75246154 930.8125552 C1857.75165578 935.71635421 1857.75081001 940.62015321 1857.74994824 945.52395222 C1857.74977715 946.4978334 1857.74960607 947.47171459 1857.74942979 948.47510732 C1857.74908314 950.44453109 1857.74873461 952.41395485 1857.74838421 954.38337861 C1857.74302751 985.02471226 1857.75095663 1015.66601712 1857.76941776 1046.30734539 C1857.79014301 1080.746782 1857.80085946 1115.18620078 1857.79684228 1149.62564397 C1857.79644694 1153.29925076 1857.79608539 1156.97285755 1857.7957449 1160.64646435 C1857.7956088 1162.00322926 1857.7956088 1162.00322926 1857.79546995 1163.38740357 C1857.79430495 1177.03001365 1857.80094489 1190.67260571 1857.81155682 1204.3152113 C1857.82361663 1219.83487183 1857.82515878 1235.35449269 1857.81276665 1250.87415382 C1857.80614606 1259.55362078 1857.80775062 1268.23299285 1857.82135516 1276.91245218 C1857.82961885 1282.71794048 1857.82687727 1288.52335793 1857.8153799 1294.3288405 C1857.80914234 1297.63142903 1857.80914739 1300.93368265 1857.81924323 1304.23628375 C1857.93597393 1345.28078546 1844.74907298 1377.94483013 1815.96350956 1407.59640789 C1790.75096201 1432.84113483 1755.02192837 1449.65586119 1720.43323612 1457.12863445 C1719.7190955 1457.2908952 1719.00495487 1457.45315594 1718.26917362 1457.62033367 C1703.27517478 1460.92242114 1688.10064503 1460.47514852 1672.8364954 1460.17544842 C1670.24330441 1460.1249347 1667.65005254 1460.07905307 1665.05677128 1460.03341961 C1659.41114048 1459.93177427 1653.76592616 1459.81468965 1648.12073612 1459.69113445 C1646.74241611 1459.66207012 1646.74241611 1459.66207012 1645.33625126 1459.63241863 C1642.72648683 1459.57541873 1640.11699433 1459.51147161 1637.50745487 1459.4450407 C1636.32528133 1459.41994175 1636.32528133 1459.41994175 1635.1192255 1459.39433575 C1629.66341813 1459.24372546 1629.66341813 1459.24372546 1627.43323612 1458.12863445 C1627.60520512 1459.39731365 1627.60520512 1459.39731365 1627.78064823 1460.69162273 C1629.68086507 1475.67290593 1630.71228965 1490.72849733 1631.83008671 1505.78354168 C1632.05025552 1508.73432294 1632.27469149 1511.68477334 1632.49906063 1514.63523769 C1633.16992392 1523.46458051 1633.81427572 1532.29549243 1634.43323612 1541.12863445 C1634.49867619 1542.04922649 1634.56411625 1542.96981853 1634.63153934 1543.9183073 C1635.62285406 1558.2607483 1635.65383082 1572.62398758 1635.6734705 1586.99533367 C1635.67783841 1589.73668119 1635.69169902 1592.47771103 1635.71448612 1595.21896648 C1635.98929028 1629.0103854 1636.31559235 1670.62193251 1611.68323612 1697.02707195 C1601.59895198 1706.44607346 1589.22775822 1710.80844434 1575.51429081 1710.59714031 C1540.59037213 1709.00097553 1509.52403576 1680.20030024 1483.48645878 1659.74093914 C1481.57986949 1658.24377913 1479.66948315 1656.75165061 1477.75745487 1655.26144695 C1470.12958199 1649.30694336 1462.6051824 1643.23136204 1455.10511112 1637.1169157 C1452.22711158 1634.77141912 1449.33667777 1632.44261898 1446.43323612 1630.12863445 C1442.15819941 1626.72151627 1437.92042584 1623.27006638 1433.68323612 1619.81613445 C1428.57943107 1615.65614682 1423.44085912 1611.5489094 1418.24573612 1607.50363445 C1413.15960383 1603.54003305 1408.21689496 1599.43873161 1403.31824589 1595.24655437 C1398.9537041 1591.5281727 1394.47084916 1587.98358189 1389.94495487 1584.46457195 C1385.2058736 1580.767047 1380.56156086 1576.96357663 1375.93323612 1573.12863445 C1370.81854001 1568.89213281 1365.6743747 1564.7077654 1360.43323612 1560.62863445 C1355.19209035 1556.5494979 1350.04812033 1552.36491632 1344.93323612 1548.12863445 C1339.2163041 1543.39548101 1333.45247786 1538.73747069 1327.60120487 1534.1716032 C1323.35231806 1530.85611029 1319.13651081 1527.50173942 1314.93323612 1524.12863445 C1308.37785354 1518.87198367 1301.78184712 1513.66921069 1295.16712284 1508.48752117 C1292.25356785 1506.20410142 1289.34359419 1503.91612642 1286.43323612 1501.62863445 C1285.2665864 1500.71194623 1284.09991973 1499.79527955 1282.93323612 1498.87863445 C1275.93323611 1493.37863444 1275.93323611 1493.37863444 1274.18421268 1492.00436687 C1273.01433597 1491.08520133 1271.84441389 1490.1660935 1270.67444706 1489.24704266 C1263.17790464 1483.35794395 1263.17790464 1483.35794395 1260.39246464 1481.15329266 C1259.24116383 1480.25261068 1258.07986472 1479.36458176 1256.90955448 1478.48874187 C1253.59075826 1475.97824974 1250.71661789 1473.41249837 1247.92151737 1470.32394695 C1241.57963886 1463.76177314 1235.50421682 1459.79480993 1226.18421268 1459.47922039 C1223.24896785 1459.48781077 1220.31985765 1459.57975114 1217.38636112 1459.67550945 C1215.70125819 1459.70569117 1214.01609543 1459.7326623 1212.33089542 1459.75682354 C1208.51397987 1459.81670789 1204.69804728 1459.89603862 1200.88175297 1459.98718548 C1193.8681308 1460.14944081 1186.85416115 1460.23922802 1179.83924198 1460.32467937 C1168.77123044 1460.46283969 1157.70365698 1460.61764552 1146.63611698 1460.78927898 C1127.92805492 1461.07863748 1109.21975264 1461.34979141 1090.51136112 1461.6169157 C1089.72301593 1461.6281821 1088.93467073 1461.63944849 1088.12243629 1461.65105629 C1077.55568159 1461.80205804 1066.9889117 1461.95195245 1056.42212391 1462.10062027 C1054.52552782 1462.12733449 1052.62893332 1462.15416185 1050.73233891 1462.18099499 C986.47811985 1463.08870527 922.22636477 1463.22873207 857.96670979 1463.25003064 C851.4725747 1463.25218502 844.97844163 1463.25543888 838.48430759 1463.25970894 C756.43162374 1463.31248129 756.43162374 1463.31248129 718.78870487 1462.6794157 C717.02004346 1462.64989252 717.02004346 1462.64989252 715.21565151 1462.61977291 C656.86938008 1461.6081741 656.86938008 1461.6081741 628.05823612 1459.1637907 C626.67011219 1459.04742008 626.67011219 1459.04742008 625.25394535 1458.92869854 C596.60504861 1456.35009884 566.19232243 1445.78409574 547.1121912 1423.26999187 C527.66851416 1399.23530822 527.25576411 1369.64005328 526.43323612 1340.12863445 C526.40389988 1339.10706249 526.40389988 1339.10706249 526.37397099 1338.06485271 C525.64698191 1312.65785046 525.2874752 1287.24271822 524.96839237 1261.8278532 C524.95798145 1261.00263849 524.94757052 1260.17742378 524.93684411 1259.32720256 C524.22586054 1202.69579297 523.8835015 1146.06020492 523.4868852 1089.42591153 C523.40398098 1077.59186123 523.31910605 1065.75782641 523.23279667 1053.92380047 C523.1307644 1039.93373271 523.02982591 1025.94365778 522.9306317 1011.95356959 C522.91997568 1010.45090146 522.90931899 1008.94823334 522.89866161 1007.44556522 C522.89342838 1006.70750933 522.88819515 1005.96945344 522.88280333 1005.20903221 C522.84679413 1000.13964971 522.81007339 995.07027268 522.77306271 990.00089741 C522.53046992 956.70971882 522.36745728 923.4207931 522.43323612 890.12863445 C508.46307102 890.00172383 494.4938652 889.939474 480.52310085 889.94985199 C474.03457898 889.95282139 467.54744552 889.93571819 461.05921268 889.87155437 C454.78866172 889.8103015 448.52011378 889.80332729 442.24935627 889.83280277 C439.86611177 889.83469534 437.48276817 889.817559 435.09981251 889.78040791 C417.89059561 889.46786978 417.89059561 889.46786978 403.5224905 897.96179199 C402.13647086 899.32785378 400.78359221 900.72730876 399.43323612 902.12863445 C397.94696088 903.36401409 396.44636845 904.58294973 394.91761112 905.7653532 C393.67191563 906.78117293 392.42709744 907.79806962 391.18323612 908.81613445 C389.82409643 909.92449598 388.46472235 911.03257016 387.10511112 912.1403532 C386.47024784 912.65775066 385.83538456 913.17514812 385.181283 913.7082243 C382.94203066 915.52777319 380.68959741 917.33035994 378.43323612 919.12863445 C374.07757588 922.60139059 369.7541857 926.11288028 365.43323612 929.62863445 C361.11228654 933.14438863 356.78889636 936.65587831 352.43323612 940.12863445 C341.68911413 948.6985665 331.06335803 957.41806415 320.43323612 966.12863445 C318.60001964 967.62877726 316.76668467 969.12877528 314.93323612 970.62863445 C314.01800175 971.37757977 313.10276737 972.12652508 312.15979862 972.8981657 C310.40505828 974.33363381 308.64988458 975.76857241 306.89417362 977.2028532 C304.07200546 979.509187 301.25180681 981.81790683 298.43323612 984.12863445 C297.47707401 984.91246502 297.47707401 984.91246502 296.5015955 985.71213055 C288.58368577 992.20711695 280.69322809 998.72848957 272.8946619 1005.36642742 C268.99990174 1008.67274412 265.0265273 1011.86588018 261.02307987 1015.0387907 C257.97241734 1017.50048672 254.98176418 1020.02674571 251.99573612 1022.56613445 C245.32632053 1028.2379629 238.55501179 1033.77818523 231.76136112 1039.30050945 C226.75430661 1043.3814036 221.79137933 1047.50689937 216.87073612 1051.69113445 C212.37635679 1055.51001636 207.8331662 1059.25018501 203.21057987 1062.9137907 C200.37364224 1065.17615869 197.55927574 1067.46436512 194.74744511 1069.75778484 C187.91415563 1075.33028998 181.04623695 1080.85156133 174.08948612 1086.26925945 C171.50917952 1088.27897538 168.95140983 1090.31427902 166.40198612 1092.36300945 C142.24368955 1111.65157173 114.01949282 1134.12597595 81.43323612 1132.12863445 C68.54399228 1130.24862114 57.54746357 1123.69035892 49.37073612 1113.5778532 C41.70056351 1102.84251692 37.82243078 1091.12502586 35.18323612 1078.31613445 C35.03209354 1077.58394695 34.88095097 1076.85175945 34.72522831 1076.09738445 C31.23588309 1057.54005412 31.06678852 1038.91879954 31.11538029 1020.10015774 C31.12080591 1017.91300311 31.12318521 1015.7258593 31.12525272 1013.53869915 C31.16377615 987.31453179 32.2357138 961.26618523 34.43323612 935.12863445 C34.519986 934.08854229 34.60673588 933.04845013 34.69611454 931.97684002 C35.86396045 918.02012413 37.11068364 904.07151016 38.43323612 890.12863445 C36.94219364 890.17407391 36.94219364 890.17407391 35.42102909 890.22043133 C24.58132144 890.54632095 13.74093535 890.82580217 2.89911747 891.07144451 C0.61920906 891.12432128 -1.66053385 891.18177682 -3.94029903 891.24045086 C-50.33541152 892.38281906 -95.054691 877.61409675 -130.56676388 847.12863445 C-131.49875607 846.33586102 -132.43074825 845.54308758 -133.39098263 844.7262907 C-138.56382218 840.20295566 -143.26074143 835.48258272 -147.56676388 830.12863445 C-148.25254513 829.28043133 -148.93832638 828.4322282 -149.64488888 827.55832195 C-168.43017768 803.45272408 -178.75425255 776.01977289 -178.69819164 745.37588978 C-178.70024428 744.32271745 -178.70229691 743.26954513 -178.70441175 742.18445849 C-178.71006563 738.65583905 -178.70862648 735.12725884 -178.70720577 731.59863567 C-178.70979033 729.04290786 -178.71280375 726.48718044 -178.71620917 723.93145359 C-178.72377055 717.64430088 -178.72598129 711.35715667 -178.72653823 705.06999988 C-178.72745372 697.53686459 -178.73412678 690.00373711 -178.74088505 682.47060519 C-178.75692882 664.2646918 -178.7628466 646.05877928 -178.7676338 627.85286009 C-178.76997149 619.23594266 -178.77357435 610.6190259 -178.77732918 602.00210899 C-178.79016359 572.49102222 -178.8008826 542.97993582 -178.80433178 513.46884632 C-178.80455341 511.61703741 -178.80477519 509.7652285 -178.80499713 507.9134196 C-178.80521777 506.05720134 -178.80543825 504.20098308 -178.80565858 502.34476483 C-178.80610112 498.62102866 -178.80654824 494.89729249 -178.80699825 491.17355633 C-178.80710764 490.25028941 -178.80721703 489.3270225 -178.80732974 488.3757778 C-178.81095914 458.44909623 -178.82687533 428.52243889 -178.85018862 398.5957666 C-178.87480595 366.9370924 -178.88850551 335.27843205 -178.8896997 303.619748 C-178.88987114 300.14179253 -178.89008657 296.66383707 -178.89033413 293.18588161 C-178.89041778 291.90137625 -178.89041778 291.90137625 -178.89050313 290.59092129 C-178.89165194 276.83269701 -178.90265956 263.07449768 -178.91722118 249.31628182 C-178.931615 235.47687957 -178.93480692 221.63750918 -178.92678121 207.7981015 C-178.92233846 199.58585082 -178.92613104 191.37370325 -178.94201971 183.16146619 C-178.95297588 177.01485234 -178.94808624 170.86834369 -178.93724784 164.72173177 C-178.93529546 162.24590383 -178.93834791 159.77006544 -178.94709221 157.29425217 C-179.07009538 120.09350017 -170.48855664 87.69068908 -145.56676388 59.12863445 C-144.9609045 58.4016032 -144.35504513 57.67457195 -143.73082638 56.92550945 C-139.71308448 52.16239462 -135.38439774 48.07316962 -130.56676388 44.12863445 C-130.06757442 43.71710125 -129.56838497 43.30556805 -129.05406857 42.88156414 C-116.24145275 32.37233994 -102.57415987 24.11599854 -87.56676388 17.12863445 C-86.90724728 16.82038738 -86.24773067 16.51214031 -85.56822872 16.19455242 C-58.67600723 3.84722815 -29.32774979 -0.04132734 0 0 Z M-48.12926388 74.25363445 C-48.9985754 74.55221355 -49.86788692 74.85079266 -50.76354122 75.15841961 C-64.15679073 79.93910297 -76.10027508 86.4154764 -86.56676388 96.12863445 C-87.50133419 96.97168133 -88.4359045 97.8147282 -89.39879513 98.68332195 C-100.29622702 108.96954358 -109.82171607 122.91194051 -110.69332572 138.37376433 C-110.6940647 139.14226812 -110.69480367 139.91077192 -110.69556504 140.7025637 C-110.69883724 141.59749826 -110.70210943 142.49243283 -110.70548078 143.41448662 C-110.70399716 144.39043951 -110.70251354 145.36639241 -110.70098495 146.37191963 C-110.70333719 147.41859781 -110.70568942 148.465276 -110.70811293 149.5436717 C-110.71480501 153.07423581 -110.71434464 156.60476313 -110.7139349 160.13533306 C-110.71723339 162.68292264 -110.72095893 165.23051169 -110.72507638 167.77810007 C-110.73405326 174.06048558 -110.7383243 180.34286007 -110.74059534 186.62525112 C-110.74355764 194.14921829 -110.75225525 201.6731761 -110.76100962 209.19713836 C-110.78185452 227.38417314 -110.79232412 245.57120955 -110.80113923 263.75825349 C-110.8053459 272.3626112 -110.81056788 280.9669682 -110.81582376 289.57132532 C-110.83371449 319.02643362 -110.84871017 348.48154212 -110.85614395 377.93665504 C-110.85661871 379.7859014 -110.8570946 381.63514775 -110.85757161 383.48439411 C-110.85780799 384.40145236 -110.85804437 385.31851062 -110.8582879 386.26335852 C-110.8594891 390.90961261 -110.86070455 395.5558667 -110.86192989 400.20212078 C-110.86217004 401.12418335 -110.86241019 402.04624592 -110.86265762 402.99624978 C-110.87054947 432.88761666 -110.89397869 462.77894385 -110.92648584 492.67029341 C-110.96079312 524.27464635 -110.98049595 555.87897608 -110.98378819 587.48334795 C-110.98420573 590.95369312 -110.98468529 594.42403828 -110.98521137 597.89438343 C-110.98533456 598.74887715 -110.98545776 599.60337088 -110.98558468 600.48375835 C-110.98791564 614.22832234 -111.00356986 627.9728402 -111.02405322 641.71738775 C-111.0443215 655.53703355 -111.04978378 669.35662401 -111.04028258 683.17628192 C-111.03507145 691.38292954 -111.04092671 699.58939273 -111.06281726 707.79601376 C-111.0779397 713.92974428 -111.07206827 720.0632885 -111.05814674 726.19701809 C-111.05576542 728.67422426 -111.06012124 731.15144822 -111.07197539 733.62862717 C-111.17760265 757.16350858 -107.19644021 774.37243166 -90.56676388 792.12863445 C-72.25774904 809.78797457 -42.60168811 823.90197101 -16.91173458 824.16623211 C-14.9717358 824.10508221 -14.9717358 824.10508221 -12.99254513 824.04269695 C-11.92181759 824.0113818 -11.92181759 824.0113818 -10.82945919 823.97943401 C-8.51249953 823.91011924 -6.19592936 823.83212404 -3.87926388 823.75363445 C-2.26949519 823.70308186 -0.65971304 823.65295597 0.95008183 823.60324383 C5.00619126 823.47637394 9.06200858 823.34183822 13.11780643 823.20541668 C15.99232904 823.11009431 18.86701946 823.02086544 21.74175358 822.9321928 C24.8682106 822.83493009 27.99446828 822.73177519 31.12073612 822.62863445 C32.23988407 822.59334637 33.35903202 822.55805828 34.51209354 822.52170086 C39.90029475 822.33240914 45.21050568 821.99636453 50.56287479 821.34689617 C64.00047942 819.77879559 78.2305114 822.28601721 89.18323612 830.44113445 C98.4124689 838.1104969 104.21403758 847.1971258 106.43323612 859.12863445 C106.73920435 862.51729565 106.75938457 865.87996833 106.73792362 869.2809782 C106.73404636 870.30392483 106.73016911 871.32687145 106.72617435 872.38081646 C106.53646981 886.83059475 105.19238614 901.22755697 103.98236942 915.61981487 C103.26106468 924.2064317 102.58375724 932.7966186 101.90198612 941.38644695 C101.83538414 942.22253176 101.76878216 943.05861656 101.70016193 943.92003727 C99.68929384 969.18238376 98.28460501 994.34399314 98.24573612 1019.69113445 C98.24383274 1020.87157833 98.24383274 1020.87157833 98.24189091 1022.07586956 C97.8438064 1038.78584215 97.8438064 1038.78584215 100.43323612 1055.12863445 C104.11456744 1053.80920307 106.93146975 1052.20529497 110.02307987 1049.8200407 C110.88304569 1049.1607658 111.74301151 1048.5014909 112.6290369 1047.82223797 C113.53379765 1047.11897381 114.43855839 1046.41570965 115.37073612 1045.69113445 C116.30643436 1044.97046795 117.24213261 1044.24980145 118.20618534 1043.50729656 C120.95374751 1041.38770137 123.69461348 1039.25976206 126.43323612 1037.12863445 C127.14914921 1036.57304852 127.86506229 1036.01746258 128.60266972 1035.4450407 C136.31030303 1029.45777447 143.90148719 1023.33587314 151.43323612 1017.12863445 C153.14111196 1015.73224138 154.84945761 1014.33642277 156.55823612 1012.94113445 C158.51712692 1011.33764241 160.47554694 1009.73359206 162.43323612 1008.12863445 C163.38939823 1007.34480389 163.38939823 1007.34480389 164.36487675 1006.54513836 C171.6603211 1000.56075441 178.94504345 994.56889181 186.12073612 988.44113445 C190.43112703 984.76179333 194.82888257 981.22488377 199.30823612 977.75363445 C205.05175943 973.29919522 210.56056564 968.61935285 216.02942753 963.8332243 C221.3973846 959.13854117 226.88678386 954.61103923 232.43323612 950.12863445 C234.14264411 948.73411741 235.85094485 947.33824217 237.55823612 945.94113445 C238.90788456 944.83705242 238.90788456 944.83705242 240.28479862 943.7106657 C244.17382832 940.52421153 248.05304364 937.32583821 251.93323612 934.12863445 C258.42228614 928.78178241 264.92168445 923.44807128 271.43323612 918.12863445 C273.26668648 916.6287775 275.10001783 915.12877505 276.93323612 913.62863445 C278.30415409 912.50715008 278.30415409 912.50715008 279.70276737 911.36300945 C281.47146407 909.91566394 283.23972155 908.46778145 285.00745487 907.01925945 C291.74043457 901.50405336 298.49216536 896.01220736 305.24964237 890.52707195 C308.01034866 888.28580842 310.76801612 886.04089241 313.52307987 883.79269695 C320.3218296 878.24881062 327.15360875 872.75838269 334.07215214 867.36471844 C338.78023928 863.6781911 343.39238807 859.88227001 347.99573612 856.06613445 C353.93322293 851.14582139 359.95007885 846.38114162 366.08948612 841.71457195 C370.82790385 838.08274812 375.43577983 834.28724476 380.05457401 830.50534344 C380.69644657 829.98013103 381.33831913 829.45491863 381.99964237 828.9137907 C382.56626591 828.44851971 383.13288944 827.98324871 383.71668339 827.50387859 C384.28314579 827.05004803 384.84960819 826.59621746 385.43323612 826.12863445 C386.0153624 825.6134938 386.59748867 825.09835314 387.19725513 824.56760216 C389.97421991 822.78048382 391.63884236 822.74552796 394.92548466 822.72990704 C396.04165165 822.71736889 397.15781864 822.70483074 398.30780888 822.69191265 C399.52772526 822.69334774 400.74764164 822.69478283 402.00452518 822.69626141 C403.2925806 822.68606976 404.58063602 822.67587811 405.90772343 822.66537762 C409.43632208 822.63779389 412.96475957 822.62852132 416.49345207 822.62252355 C420.18240911 822.61314338 423.87124561 822.58694032 427.56012821 822.56251812 C434.54399986 822.51883949 441.52784813 822.49030096 448.51181483 822.46719474 C456.46345799 822.44015033 464.41497996 822.39623839 472.36653662 822.35090601 C488.7220417 822.25804023 505.0775685 822.18636841 521.43323612 822.12863445 C521.3148169 817.31593628 521.18978584 812.5034887 521.05823612 807.69113445 C521.03767847 806.9309923 521.01712082 806.17085014 520.99594021 805.38767338 C520.75254071 796.57965821 520.44734026 787.78199442 519.9325037 778.98532391 C518.2069578 749.20736223 518.09117176 719.45099793 518.11955655 689.63358223 C518.1235567 683.97672942 518.1087677 678.32003454 518.08999223 672.66321772 C518.0722324 667.09947796 518.06639492 661.53580696 518.06962997 655.97204 C518.07141089 652.69447374 518.06773681 649.41709658 518.05491543 646.13955021 C517.96290764 619.41129531 518.89523356 591.9631026 538.24573612 571.1872282 C564.44929408 546.52780848 598.38526408 537.71264629 633.43323612 534.12863445 C634.29726048 534.03999126 635.16128483 533.95134808 636.05149174 533.86001873 C646.46603804 532.92824219 656.85275566 533.00050126 667.30042362 533.0387907 C669.35135705 533.04283603 671.40229092 533.04666112 673.45322514 533.05028057 C692.20811611 533.09290246 710.96159946 533.27273926 729.71542454 533.46601295 C795.03644158 534.13737514 860.35961859 534.40555888 925.68323612 534.69113445 C926.95013185 534.69668394 928.21702757 534.70223342 929.52231407 534.70795107 C962.49260395 534.85236743 995.46290995 534.99276012 1028.43323612 535.12863445 C1028.98884156 498.69437217 1029.48495777 462.25997513 1029.86966252 425.82348728 C1029.89821702 423.11955324 1029.92688756 420.41562045 1029.95559597 417.71168804 C1029.99441102 414.05577518 1030.03321316 410.39986218 1030.07199287 406.74394894 C1030.08167567 405.83126452 1030.09135847 404.9185801 1030.10133469 403.97823858 C1030.12095665 402.12824244 1030.14056887 400.27824619 1030.16017139 398.42824984 C1031.38461683 282.91319577 1031.38461683 282.91319577 1032.49573612 233.25363445 C1032.51597214 232.34907135 1032.53620815 231.44450825 1032.55705738 230.51253414 C1032.89314375 215.58660836 1033.25436793 200.66130064 1033.66012192 185.73710155 C1033.76330703 181.91109346 1033.86257136 178.08498835 1033.96135616 174.2588644 C1034.00946214 172.43623432 1034.05941738 170.61365189 1034.11143017 168.79112911 C1034.85787064 142.62121225 1034.08226726 114.43520884 1015.99573612 93.56613445 C997.36684098 74.62042137 971.64680699 67.96187527 945.68091142 67.73364417 C943.42150635 67.72972417 941.16243162 67.74022322 938.90305328 67.75111103 C937.22185548 67.74797143 935.54065971 67.74352019 933.85946837 67.73789793 C929.27995926 67.72632291 924.70064242 67.73314846 920.12113679 67.74323179 C915.12363591 67.75089188 910.12616285 67.74104249 905.12866598 67.73350179 C896.38315247 67.72269902 887.63769457 67.7229755 878.89217854 67.73064327 C865.88710329 67.74201457 852.88207476 67.73617714 839.87699981 67.72701835 C817.99243387 67.71215112 796.10788748 67.71157552 774.22331905 67.7197485 C773.55789557 67.71999688 772.8924721 67.72024527 772.20688427 67.72050118 C771.54038618 67.72074997 770.87388809 67.72099876 770.18719309 67.72125509 C749.85873384 67.72883314 729.53028361 67.73077486 709.20182323 67.72718716 C707.83903924 67.72695472 706.47625524 67.72672325 705.11347124 67.72649275 C699.63662797 67.7255613 694.15978471 67.72460529 688.68294145 67.72361346 C673.37424796 67.72086283 658.06555444 67.71915074 642.75686073 67.71825504 C642.05981913 67.71821411 641.36277752 67.71817317 640.64461344 67.71813099 C618.4435959 67.71690369 596.2425815 67.72028108 574.04156494 67.72680378 C573.32180291 67.72701453 572.60204087 67.72722527 571.86046787 67.72744241 C560.17295917 67.730877 548.48545053 67.73453551 536.7979419 67.73821293 C490.44516343 67.75278205 444.09241096 67.75210433 397.73963261 67.73752117 C386.05674301 67.73385743 374.37385341 67.73022421 362.69096375 67.72680378 C361.97154984 67.72659244 361.25213594 67.72638109 360.51092161 67.72616334 C338.33155345 67.71969235 316.15218745 67.71695242 293.97281837 67.71825504 C293.27630603 67.7182958 292.57979369 67.71833655 291.86217491 67.71837854 C276.57093076 67.71931607 261.27968685 67.72121719 245.98844293 67.72398655 C240.51689423 67.72497392 235.04534553 67.72591317 229.57379682 67.72683868 C228.21269119 67.72707085 226.85158556 67.72730704 225.49047994 67.72754727 C205.168164 67.73112426 184.84585822 67.7280861 164.52354355 67.72050118 C163.85803728 67.7202528 163.192531 67.72000441 162.50685787 67.7197485 C161.84258611 67.71950045 161.17831436 67.7192524 160.49391315 67.71899684 C138.06386377 67.71071278 115.63383968 67.71379072 93.20379394 67.72959073 C80.27889356 67.73839514 67.35405519 67.73898101 54.42915643 67.72765221 C45.79147476 67.72091684 37.15384273 67.72512661 28.5161684 67.73816651 C23.59778517 67.74528983 18.67952498 67.7477701 13.7611457 67.73694856 C9.27742279 67.72718425 4.79393089 67.73147935 0.31022448 67.74649055 C-1.2926086 67.74948566 -2.89546126 67.74758422 -4.49827858 67.73987273 C-19.34884279 67.67355437 -34.03212994 69.32673393 -48.12926388 74.25363445 Z M588.43323612 617.12863445 C582.13570411 626.3488472 584.28480762 639.85631941 584.30042362 650.67550945 C584.2993213 652.27640082 584.29788916 653.87729199 584.29615116 655.47818279 C584.29326548 659.73315162 584.29752074 663.98808137 584.30426121 668.24304485 C584.3082553 670.8913501 584.31075587 673.53965331 584.31293583 676.18796062 C584.34719539 712.35116341 584.64414175 748.46557181 586.70008183 784.57858562 C587.58720013 800.21514084 588.04907931 815.84782773 588.37787724 831.5052824 C588.43493961 834.20935956 588.49433375 836.91337962 588.55384159 839.61740398 C590.21653886 916.39724085 590.45618856 993.20937122 590.93323612 1070.00363445 C591.23730652 1206.98039684 591.23730652 1206.98039684 594.19132328 1343.90970135 C594.26783225 1346.09800578 594.34063188 1348.28644383 594.40927982 1350.47500896 C594.50500081 1353.44619067 594.61866264 1356.41612863 594.73792362 1359.38644695 C594.76301502 1360.24590923 594.78810642 1361.10537151 594.81395817 1361.99087811 C595.12788839 1368.95664994 596.29912711 1375.4315622 600.69886112 1380.9919157 C603.74705825 1383.37386403 606.61096202 1384.8356253 610.18323612 1386.31613445 C611.33307987 1386.80468914 612.48292362 1387.29324383 613.66761112 1387.7966032 C621.64954021 1390.62008642 629.5177922 1391.57595296 637.93323612 1392.19113445 C639.58271244 1392.3157304 639.58271244 1392.3157304 641.26551151 1392.44284344 C652.9814 1393.29300816 664.69356553 1393.76608145 676.43323612 1394.12863445 C677.09214989 1394.1492803 677.75106366 1394.16992615 678.42994452 1394.19119763 C710.14557709 1395.17777388 741.85501164 1395.29204431 773.58346725 1395.29542983 C778.69160921 1395.29601928 783.79974693 1395.29864589 788.90788746 1395.30245876 C808.59378396 1395.3169408 828.27966455 1395.31988824 847.96556563 1395.31694856 C853.68340152 1395.31615649 859.401237 1395.31618984 865.11907291 1395.3166647 C942.97687097 1395.32274221 1020.83189682 1395.32516676 1098.68323612 1394.19113445 C1099.43682502 1394.18019237 1100.19041391 1394.16925029 1100.96683884 1394.15797663 C1117.72308101 1393.91377738 1134.47856036 1393.63512785 1151.23377323 1393.32788944 C1159.78467522 1393.17231219 1168.33572035 1393.03368459 1176.88704205 1392.90386903 C1181.00596808 1392.84110651 1185.12486863 1392.77668515 1189.24377203 1392.71245676 C1192.48542664 1392.66207899 1195.72709279 1392.61303202 1198.96879673 1392.56592274 C1211.25104353 1392.38668603 1223.51815022 1392.18532745 1235.78417492 1391.49709415 C1247.29223017 1390.85857344 1257.09314521 1390.55973714 1266.43323612 1398.25363445 C1268.49856539 1400.1587016 1270.47311099 1402.11746952 1272.4234705 1404.13986492 C1275.88519042 1407.56542013 1279.79784299 1410.39313708 1283.68323612 1413.31613445 C1285.18549762 1414.47988765 1286.68555003 1415.64649884 1288.18323612 1416.81613445 C1288.89995487 1417.37429852 1289.61667362 1417.93246258 1290.35511112 1418.5075407 C1295.16353784 1422.25847508 1299.95619969 1426.02944503 1304.74768925 1429.8019743 C1307.05532188 1431.61826568 1309.36457169 1433.43249455 1311.67395878 1435.24655437 C1312.84568893 1436.16706012 1314.0172388 1437.08779539 1315.18860722 1438.00876141 C1318.07686975 1440.27937515 1320.96735217 1442.54703427 1323.86292362 1444.80832195 C1330.04532783 1449.64214148 1336.17226542 1454.53348745 1342.24573612 1459.50363445 C1347.7062395 1463.97023766 1353.24552074 1468.30910995 1358.87073612 1472.56613445 C1366.87540544 1478.63099947 1374.61904817 1484.97967545 1382.34241581 1491.39670086 C1391.14748357 1498.69038964 1400.05092797 1505.85619913 1409.06580448 1512.88840008 C1414.58697496 1517.21332999 1419.9911712 1521.67639328 1425.39563847 1526.1457243 C1429.83015858 1529.81236214 1434.29132957 1533.43958561 1438.79651737 1537.01925945 C1442.27730635 1539.80389063 1445.72847658 1542.62432073 1449.18323612 1545.44113445 C1454.28698615 1549.60118804 1459.42561468 1553.70836071 1464.62073612 1557.75363445 C1469.7060611 1561.71660672 1474.64769201 1565.81756946 1479.54602909 1570.00851727 C1483.93561259 1573.74754674 1488.43961757 1577.31978831 1492.98963261 1580.86081219 C1497.54260912 1584.4099631 1502.02637282 1588.03743795 1506.49573612 1591.69113445 C1512.74615724 1596.78953753 1519.06683497 1601.76814174 1525.49085331 1606.64718914 C1527.78302457 1608.39541629 1530.06496722 1610.15664413 1532.34729862 1611.91769695 C1540.65959189 1618.31545488 1548.99256633 1624.66034382 1557.62073612 1630.62863445 C1558.28565067 1631.09132732 1558.95056522 1631.5540202 1559.6356287 1632.03073406 C1562.75220968 1634.36267041 1562.75220968 1634.36267041 1566.43323612 1635.12863445 C1569.1259233 1609.38339401 1568.95346254 1583.7347992 1567.64417362 1557.9216032 C1567.58115999 1556.6592856 1567.58115999 1556.6592856 1567.51687336 1555.37146664 C1566.40404914 1533.38156605 1564.59928808 1511.44661049 1562.80823612 1489.50363445 C1562.23996801 1482.5347915 1561.67583394 1475.56565261 1561.12063313 1468.59575558 C1560.90139947 1465.8670102 1560.67552833 1463.13887273 1560.44919682 1460.41070843 C1558.85940399 1440.82480565 1557.99217277 1422.88561248 1569.62073612 1405.94113445 C1580.815422 1394.74644858 1594.43350548 1390.10483943 1610.05823612 1389.94113445 C1613.55176753 1389.96358645 1616.88952079 1390.18404997 1620.36121464 1390.60568523 C1626.20338289 1391.26570061 1632.04845484 1391.46126401 1637.92151737 1391.6637907 C1639.10110523 1391.70676785 1640.28069309 1391.74974499 1641.49602604 1391.79402447 C1643.98114187 1391.88381676 1646.46631749 1391.97196769 1648.95154667 1392.05856609 C1652.72360098 1392.19036105 1656.49540685 1392.32803091 1660.2672205 1392.46652508 C1662.69364027 1392.55346376 1665.12007222 1392.64006334 1667.54651737 1392.7262907 C1668.65940632 1392.76690121 1669.77229527 1392.80751171 1670.91890812 1392.84935284 C1704.09485554 1393.98952212 1736.36593071 1385.80061792 1762.43323612 1364.12863445 C1763.27757206 1363.44543133 1764.121908 1362.7622282 1764.99182987 1362.05832195 C1779.00652009 1350.15543437 1788.88703136 1333.82743209 1790.71135692 1315.30484147 C1790.81362431 1312.44077241 1790.83112518 1309.59030132 1790.81075954 1306.72449112 C1790.81511987 1305.63735733 1790.81948019 1304.55022354 1790.82397264 1303.43014631 C1790.83488091 1299.8040057 1790.82452726 1296.17824916 1790.81418705 1292.55211163 C1790.81764536 1289.91938624 1790.82228844 1287.28668693 1790.82836878 1284.65396875 C1790.8391742 1278.93848981 1790.83889347 1273.22309598 1790.8312273 1267.50761318 C1790.8198583 1259.00830793 1790.82569226 1250.50907417 1790.83485222 1242.00976937 C1790.85063562 1226.82787881 1790.84928574 1211.64602616 1790.84061549 1196.46413201 C1790.83306498 1183.17747994 1790.8311005 1169.89084175 1790.83468342 1156.60418797 C1790.83491257 1155.72241022 1790.83514173 1154.84063247 1790.83537783 1153.93213418 C1790.83631186 1150.35258369 1790.83726707 1146.77303321 1790.83825712 1143.19348274 C1790.84743174 1109.62227028 1790.83911764 1076.05108195 1790.82296643 1042.47987321 C1790.80873112 1012.66429437 1790.81000273 982.84875397 1790.8243494 953.03317547 C1790.84041934 919.5243664 1790.84677981 886.01557865 1790.83751261 852.50676626 C1790.83655048 848.93347641 1790.83561196 845.36018656 1790.83468342 841.78689671 C1790.83444619 840.9070812 1790.83420895 840.0272657 1790.83396453 839.12078912 C1790.83055449 825.8443005 1790.83453855 812.56782731 1790.84212208 799.29134083 C1790.85070384 784.19209987 1790.84854691 769.0929027 1790.83227985 753.99366719 C1790.8234795 745.54685856 1790.82288361 737.10014481 1790.83421837 728.65333867 C1790.84095878 723.00675837 1790.83673495 717.36025395 1790.82370406 711.71368487 C1790.81658752 708.49943138 1790.8157476 705.28540254 1790.82492201 702.07114876 C1790.88793815 678.15729712 1788.15675306 660.50943685 1771.43323612 642.12863445 C1770.89311893 641.50730633 1770.35300175 640.8859782 1769.79651737 640.24582195 C1747.53976385 616.13901084 1712.01196979 606.69387008 1680.43323612 605.12863445 C1674.83385735 604.97769157 1669.2366246 604.94892817 1663.63548565 604.93029308 C1661.97287985 604.92129796 1660.31027622 604.91189423 1658.6476748 604.90212303 C1654.09645796 604.87654638 1649.54523184 604.8567257 1644.99398285 604.83787359 C1640.03554331 604.8162973 1635.07713283 604.78928487 1630.1187166 604.76296663 C1621.43365691 604.71760806 1612.74858596 604.67567958 1604.0634985 604.63601017 C1591.14743731 604.57699441 1578.23140672 604.51261854 1565.315377 604.44711567 C1543.57888897 604.33701487 1521.8423824 604.23111633 1500.10586262 604.12749004 C1478.56464848 604.02477101 1457.02344732 603.91974556 1435.4822588 603.8117857 C1434.81235287 603.80842882 1434.14244695 603.80507194 1433.45224084 603.80161334 C1425.96602283 603.76409475 1418.47980517 603.72650511 1410.99358766 603.68888706 C1397.14705754 603.61931172 1383.30052587 603.55004622 1369.4539938 603.48086071 C1368.76120536 603.47739872 1368.06841693 603.47393672 1367.35463491 603.47036982 C1334.3914277 603.30566279 1301.42820659 603.14381389 1268.46498219 602.98258839 C1266.27837438 602.97189341 1264.09176657 602.96119712 1261.90515877 602.95050051 C1245.81756634 602.87180388 1229.72997359 602.79317026 1213.64238071 602.71456432 C1185.13379807 602.57526684 1156.62521629 602.43579412 1128.11663574 602.29606886 C1125.93478877 602.28537556 1123.75294179 602.27468363 1121.57109481 602.26399186 C1088.67230833 602.10276765 1055.77352597 601.94075126 1022.87475491 601.7764082 C1021.83597673 601.77121967 1021.83597673 601.77121967 1020.77621314 601.76592634 C1006.93543972 601.69679088 993.09466683 601.62754896 979.25389511 601.55807392 C971.76689606 601.52049336 964.27989678 601.48296174 956.79289722 601.44548321 C956.12314297 601.44213012 955.45338872 601.43877702 954.76333888 601.43532232 C932.583847 601.32431365 910.40434006 601.21669435 888.22482361 601.11071856 C866.59027694 601.00731413 844.9557461 600.90102655 823.32122816 600.79177368 C810.48597941 600.72705839 797.65072428 600.6646964 784.81544766 600.60575919 C776.21946053 600.5660575 767.62349228 600.52325677 759.02753238 600.47804435 C754.1444051 600.45244882 749.26128159 600.42811158 744.37813003 600.40761298 C723.06606125 600.31721142 701.79017585 600.00258933 680.4910609 599.23310632 C631.3260135 597.12986806 631.3260135 597.12986806 588.43323612 617.12863445 Z " fill="#F4A474" transform="translate(224.56676387786865,270.8713655471802)"/>
<path d="M0 0 C1.66189644 -0.00134859 3.32379256 -0.00313358 4.98568812 -0.00531223 C9.54420937 -0.01002431 14.10271056 -0.00854639 18.66123277 -0.00603446 C23.62391346 -0.0043975 28.58658993 -0.00854546 33.54926926 -0.01194364 C42.24459029 -0.0170928 50.93990575 -0.01851568 59.63522816 -0.01748753 C72.5659517 -0.01596231 85.49666908 -0.02012502 98.42739142 -0.02536215 C122.86687755 -0.03503392 147.30636196 -0.03784696 171.74584972 -0.03841921 C174.44043986 -0.03848396 177.13502999 -0.0385519 179.82962012 -0.03862262 C180.83266906 -0.03864812 180.83266906 -0.03864812 181.85598161 -0.03867415 C196.68487546 -0.03908288 211.51376888 -0.04127372 226.34266251 -0.04377846 C232.45183751 -0.04480685 238.56101252 -0.04579689 244.67018753 -0.04679471 C245.68276019 -0.0469606 245.68276019 -0.0469606 246.71578885 -0.04712983 C285.39307332 -0.05345283 324.07035751 -0.05757907 362.74764252 -0.05712128 C364.19466542 -0.0571055 365.64168832 -0.05708976 367.08871122 -0.05707407 C373.62165094 -0.05700069 380.15459067 -0.05691252 386.68753039 -0.05682018 C389.6006296 -0.05677906 392.51372881 -0.05673891 395.42682802 -0.05669887 C396.88488592 -0.05667848 398.34294382 -0.05665746 399.80100172 -0.05663581 C445.89382988 -0.05595575 491.98665035 -0.0632701 538.07947636 -0.07717609 C549.69076345 -0.08067727 561.30205055 -0.0841468 572.91333771 -0.08744049 C573.62834366 -0.08764336 574.34334961 -0.08784624 575.0800224 -0.08805526 C597.12781681 -0.09427317 619.17561059 -0.09803639 641.22340584 -0.09929848 C641.91593181 -0.09933843 642.60845778 -0.09937838 643.32196939 -0.09941954 C658.52689283 -0.10027294 673.73181623 -0.10053397 688.93673969 -0.10024916 C694.37780391 -0.10015268 699.81886813 -0.10010064 705.25993235 -0.10007043 C706.61347097 -0.10006252 707.96700958 -0.10005232 709.3205482 -0.10003981 C730.19358244 -0.09986916 751.06661045 -0.1050325 771.93964291 -0.11339092 C794.9159531 -0.12258482 817.89225182 -0.12485814 840.86856305 -0.1178815 C853.72168908 -0.11418902 866.57478625 -0.1160092 879.42790922 -0.12582384 C888.02182073 -0.13183087 896.61571138 -0.13052032 905.20962193 -0.12335334 C910.1006527 -0.11947795 914.99162769 -0.1186785 919.88265448 -0.12681069 C965.87873839 -0.1983189 965.87873839 -0.1983189 986.49573612 4.31613445 C987.99004154 4.63976971 987.99004154 4.63976971 989.51453495 4.96994305 C1017.15609792 11.22301333 1040.79665492 23.72300722 1061.43323612 43.12863445 C1062.02362675 43.65457195 1062.61401737 44.18050945 1063.22229862 44.72238445 C1088.53591337 68.23645313 1099.4574354 105.65734368 1101.43323612 139.12863445 C1101.60468276 144.50435327 1101.62624785 149.87589258 1101.62073612 155.25363445 C1101.62112888 156.08764782 1101.62152164 156.92166119 1101.62192631 157.78094769 C1101.60961774 180.65733116 1100.92900244 203.52900622 1100.29839897 226.39506817 C1098.94028026 275.67770541 1098.40531704 324.97169303 1097.93323612 374.26925945 C1097.92291945 375.34470288 1097.91260278 376.42014631 1097.90197349 377.52817893 C1097.69876163 398.73348987 1097.50043838 419.93884588 1097.30823612 441.14425945 C1097.21699223 451.20752152 1097.12257365 461.27074883 1097.02472019 471.33394885 C1096.96371597 477.62620599 1096.90656598 483.91848172 1096.85244083 490.2108016 C1096.81806643 494.09877468 1096.77997632 497.98670491 1096.74085331 501.87463284 C1096.72359242 503.662796 1096.70782782 505.45097438 1096.69373417 507.23916531 C1096.67417642 509.69263575 1096.64906123 512.14599321 1096.62268925 514.59939861 C1096.61850231 515.29119662 1096.61431538 515.98299462 1096.61000156 516.6957562 C1096.53312341 522.90909627 1095.95395915 528.87995807 1095.43323612 535.12863445 C1073.32323612 535.12863445 1051.21323612 535.12863445 1028.43323612 535.12863445 C1028.36488205 498.13443443 1028.36488205 498.13443443 1028.37952518 486.10470867 C1028.38053368 485.27494636 1028.38154218 484.44518405 1028.38258123 483.59027743 C1028.42990395 450.52504363 1028.84811704 417.46175463 1029.24075031 384.39918041 C1029.30948378 378.60448475 1029.37628275 372.80976752 1029.44297123 367.01504803 C1030.1405291 306.58065062 1031.01751738 246.15439422 1032.66012192 185.73710155 C1032.76330703 181.91109346 1032.86257136 178.08498835 1032.96135616 174.2588644 C1033.00946214 172.43623432 1033.05941738 170.61365189 1033.11143017 168.79112911 C1033.85786734 142.62132799 1033.03905253 114.59756029 1015.12073612 93.62863445 C997.76618476 75.97793034 972.72271472 69.14074817 948.45702863 68.87678546 C945.47731683 68.85866003 942.49802772 68.86523011 939.51829243 68.87415886 C937.84292353 68.8717644 936.1675557 68.86849626 934.49219 68.86444226 C929.90558886 68.85586183 925.31907007 68.85963218 920.73246776 68.86549798 C915.73593388 68.86968128 910.73941467 68.86225898 905.7428844 68.85634547 C896.9913182 68.84759237 888.2397754 68.84626821 879.48820591 68.84984875 C866.47404129 68.85515918 853.45989929 68.84905701 840.44573713 68.84076581 C816.52548133 68.82594536 792.60523353 68.82367579 768.6849743 68.82608619 C765.2978812 68.82642466 761.9107881 68.82674675 758.52369499 68.82705188 C757.5144954 68.82714344 757.5144954 68.82714344 756.48490794 68.82723686 C741.56233444 68.82850977 726.63976235 68.82590552 711.71718927 68.82252581 C708.30791449 68.82175506 704.8986397 68.82101033 701.48936491 68.8202608 C700.12104 68.8199591 698.75271508 68.81965722 697.38439017 68.81935515 C696.70612629 68.81920547 696.0278624 68.81905579 695.32904507 68.81890158 C693.95708058 68.81859805 692.58511609 68.81829336 691.21315159 68.81798753 C652.29284155 68.80931648 613.37253276 68.80466917 574.45222187 68.80893517 C573.73179639 68.80901322 573.0113709 68.80909128 572.26911434 68.8091717 C564.23594767 68.81004447 556.20278101 68.81097373 548.16961434 68.81192233 C547.08173851 68.8120506 547.08173851 68.8120506 545.97188539 68.81218145 C541.57244053 68.81270024 541.57244053 68.81270024 537.17299566 68.81322368 C490.78675288 68.81875907 444.40053 68.81121759 398.01429081 68.79245281 C386.32620212 68.78773043 374.63811341 68.78304985 362.9500246 68.77861595 C362.23030081 68.77834263 361.51057702 68.77806931 360.76904342 68.7777877 C338.57972395 68.76941384 316.39040613 68.7647365 294.20108509 68.76390839 C293.15581318 68.76386884 293.15581318 68.76386884 292.08942466 68.76382849 C276.79056678 68.76328766 261.49170903 68.76366027 246.19285118 68.7648682 C240.71843133 68.76529381 235.24401147 68.76565894 229.76959161 68.76599764 C228.4077497 68.76608295 227.04590779 68.76617188 225.68406588 68.76626446 C204.00444881 68.76771189 182.32484528 68.76059569 160.64523146 68.7492605 C138.19726659 68.73759958 115.749325 68.73705954 93.30135992 68.74910393 C80.36537453 68.75573409 67.42945277 68.75409778 54.49347246 68.74051541 C45.84822754 68.73227067 37.20303028 68.73496883 28.55778924 68.74649068 C23.63499558 68.75274676 18.71232609 68.75434869 13.78953961 68.74262735 C9.30175656 68.73204037 4.81420215 68.73552388 0.32643111 68.74973187 C-1.27788513 68.75243663 -2.8822201 68.75023888 -4.48651861 68.74222473 C-19.34181865 68.67314441 -34.02745289 70.32509932 -48.12926388 75.25363445 C-48.9985754 75.55221355 -49.86788692 75.85079266 -50.76354122 76.15841961 C-64.1635086 80.9415009 -76.08552841 87.42195569 -86.56676388 97.12863445 C-87.42785763 97.89820477 -88.28895138 98.66777508 -89.17613888 99.4606657 C-99.79571433 109.42054026 -108.85043876 123.42146352 -109.69332572 138.37376433 C-109.69443418 139.52652002 -109.69443418 139.52652002 -109.69556504 140.7025637 C-109.69883724 141.59749826 -109.70210943 142.49243283 -109.70548078 143.41448662 C-109.70399716 144.39043951 -109.70251354 145.36639241 -109.70098495 146.37191963 C-109.70333719 147.41859781 -109.70568942 148.465276 -109.70811293 149.5436717 C-109.71480501 153.07423581 -109.71434464 156.60476313 -109.7139349 160.13533306 C-109.71723339 162.68292264 -109.72095893 165.23051169 -109.72507638 167.77810007 C-109.73405326 174.06048558 -109.7383243 180.34286007 -109.74059534 186.62525112 C-109.74355764 194.14921829 -109.75225525 201.6731761 -109.76100962 209.19713836 C-109.78185452 227.38417314 -109.79232412 245.57120955 -109.80113923 263.75825349 C-109.8053459 272.3626112 -109.81056788 280.9669682 -109.81582376 289.57132532 C-109.83371449 319.02643362 -109.84871017 348.48154212 -109.85614395 377.93665504 C-109.85661871 379.7859014 -109.8570946 381.63514775 -109.85757161 383.48439411 C-109.85780799 384.40145236 -109.85804437 385.31851062 -109.8582879 386.26335852 C-109.8594891 390.90961261 -109.86070455 395.5558667 -109.86192989 400.20212078 C-109.86217004 401.12418335 -109.86241019 402.04624592 -109.86265762 402.99624978 C-109.87054947 432.88761666 -109.89397869 462.77894385 -109.92648584 492.67029341 C-109.96079312 524.27464635 -109.98049595 555.87897608 -109.98378819 587.48334795 C-109.98420573 590.95369312 -109.98468529 594.42403828 -109.98521137 597.89438343 C-109.98533456 598.74887715 -109.98545776 599.60337088 -109.98558468 600.48375835 C-109.98791564 614.22832234 -110.00356986 627.9728402 -110.02405322 641.71738775 C-110.0443215 655.53703355 -110.04978378 669.35662401 -110.04028258 683.17628192 C-110.03507145 691.38292954 -110.04092671 699.58939273 -110.06281726 707.79601376 C-110.0779397 713.92974428 -110.07206827 720.0632885 -110.05814674 726.19701809 C-110.05576542 728.67422426 -110.06012124 731.15144822 -110.07197539 733.62862717 C-110.17411332 756.38604791 -106.64680274 773.84901898 -90.56676388 791.12863445 C-72.24425204 808.78266327 -42.61103622 822.90187485 -16.91173458 823.16623211 C-14.9717358 823.10508221 -14.9717358 823.10508221 -12.99254513 823.04269695 C-11.92181759 823.0113818 -11.92181759 823.0113818 -10.82945919 822.97943401 C-8.51249953 822.91011924 -6.19592936 822.83212404 -3.87926388 822.75363445 C-2.26949519 822.70308186 -0.65971304 822.65295597 0.95008183 822.60324383 C5.00619126 822.47637394 9.06200858 822.34183822 13.11780643 822.20541668 C15.99232904 822.11009431 18.86701946 822.02086544 21.74175358 821.9321928 C24.8682106 821.83493009 27.99446828 821.73177519 31.12073612 821.62863445 C32.23988407 821.59334637 33.35903202 821.55805828 34.51209354 821.52170086 C39.90029475 821.33240914 45.21050568 820.99636453 50.56287479 820.34689617 C63.95672394 818.78390164 78.18482201 821.26906301 89.12073612 829.37863445 C98.76683432 837.39153084 105.10675529 846.64958443 107.43323612 859.12863445 C107.73938717 862.51727692 107.75938454 865.87997362 107.73792362 869.2809782 C107.73404636 870.30392483 107.73016911 871.32687145 107.72617435 872.38081646 C107.53646981 886.83059475 106.19238614 901.22755697 104.98236942 915.61981487 C104.26106468 924.2064317 103.58375724 932.7966186 102.90198612 941.38644695 C102.80208315 942.64057416 102.80208315 942.64057416 102.70016193 943.92003727 C100.69602188 969.09786009 99.28494857 994.17866886 99.24573612 1019.44113445 C99.24383274 1020.59595821 99.24383274 1020.59595821 99.24189091 1021.77411175 C99.24400309 1032.92054933 99.72153614 1044.00596766 100.43323612 1055.12863445 C109.33815941 1049.07023084 117.95838756 1042.77214775 126.43323612 1036.12863445 C127.6141105 1035.20791376 128.79510216 1034.28734347 129.97620487 1033.3669157 C137.20991509 1027.71792021 144.35027371 1021.96600884 151.43323612 1016.12863445 C153.14111196 1014.73224138 154.84945761 1013.33642277 156.55823612 1011.94113445 C158.51712692 1010.33764241 160.47554694 1008.73359206 162.43323612 1007.12863445 C163.38939823 1006.34480389 163.38939823 1006.34480389 164.36487675 1005.54513836 C171.6603211 999.56075441 178.94504345 993.56889181 186.12073612 987.44113445 C190.43112703 983.76179333 194.82888257 980.22488377 199.30823612 976.75363445 C205.05175943 972.29919522 210.56056564 967.61935285 216.02942753 962.8332243 C221.3973846 958.13854117 226.88678386 953.61103923 232.43323612 949.12863445 C234.14264411 947.73411741 235.85094485 946.33824217 237.55823612 944.94113445 C238.90788456 943.83705242 238.90788456 943.83705242 240.28479862 942.7106657 C244.17382832 939.52421153 248.05304364 936.32583821 251.93323612 933.12863445 C258.42228614 927.78178241 264.92168445 922.44807128 271.43323612 917.12863445 C273.26668648 915.6287775 275.10001783 914.12877505 276.93323612 912.62863445 C278.30415409 911.50715008 278.30415409 911.50715008 279.70276737 910.36300945 C281.47146407 908.91566394 283.23972155 907.46778145 285.00745487 906.01925945 C291.74043457 900.50405336 298.49216536 895.01220736 305.24964237 889.52707195 C308.01034866 887.28580842 310.76801612 885.04089241 313.52307987 882.79269695 C320.3218296 877.24881062 327.15360875 871.75838269 334.07215214 866.36471844 C338.78023928 862.6781911 343.39238807 858.88227001 347.99573612 855.06613445 C353.93322293 850.14582139 359.95007885 845.38114162 366.08948612 840.71457195 C370.82790385 837.08274812 375.43577983 833.28724476 380.05457401 829.50534344 C380.69644657 828.98013103 381.33831913 828.45491863 381.99964237 827.9137907 C382.56626591 827.44851971 383.13288944 826.98324871 383.71668339 826.50387859 C384.28314579 826.05004803 384.84960819 825.59621746 385.43323612 825.12863445 C386.0153624 824.61271079 386.59748867 824.09678713 387.19725513 823.56522942 C389.98145951 821.77640652 391.63234421 821.75847982 394.92548466 821.7678709 C396.04165165 821.76374691 397.15781864 821.75962292 398.30780888 821.75537395 C400.13768345 821.7715527 400.13768345 821.7715527 402.00452518 821.78805828 C403.2925806 821.7876202 404.58063602 821.78718212 405.90772343 821.78673077 C409.43642535 821.78587013 412.96482126 821.80350668 416.49345207 821.82445264 C420.18232833 821.84320816 423.87121163 821.84496899 427.56012821 821.84852886 C434.5440914 821.85785265 441.52791369 821.88247089 448.51181483 821.91257733 C456.46336881 821.946111 464.41492953 821.96260474 472.36653662 821.97766364 C488.7221856 822.0090202 505.07769288 822.06178712 521.43323612 822.12863445 C522.18792184 838.16015783 522.56976847 854.14287666 522.49573612 870.19113445 C522.49069516 872.14881556 522.48613698 874.10649797 522.48206425 876.06418133 C522.47130055 880.75236605 522.45418983 885.44048467 522.43323612 890.12863445 C521.8843844 890.12364846 521.33553268 890.11866247 520.7700491 890.11352539 C507.3542591 889.99548002 493.93942659 889.93988586 480.52310085 889.94985199 C474.03457898 889.95282139 467.54744552 889.93571819 461.05921268 889.87155437 C454.78866172 889.8103015 448.52011378 889.80332729 442.24935627 889.83280277 C439.86611177 889.83469534 437.48276817 889.817559 435.09981251 889.78040791 C417.89059561 889.46786978 417.89059561 889.46786978 403.5224905 897.96179199 C402.13647086 899.32785378 400.78359221 900.72730876 399.43323612 902.12863445 C397.94696088 903.36401409 396.44636845 904.58294973 394.91761112 905.7653532 C393.67191563 906.78117293 392.42709744 907.79806962 391.18323612 908.81613445 C389.82409643 909.92449598 388.46472235 911.03257016 387.10511112 912.1403532 C386.47024784 912.65775066 385.83538456 913.17514812 385.181283 913.7082243 C382.94203066 915.52777319 380.68959741 917.33035994 378.43323612 919.12863445 C374.07757588 922.60139059 369.7541857 926.11288028 365.43323612 929.62863445 C361.11228654 933.14438863 356.78889636 936.65587831 352.43323612 940.12863445 C341.68911413 948.6985665 331.06335803 957.41806415 320.43323612 966.12863445 C318.60001964 967.62877726 316.76668467 969.12877528 314.93323612 970.62863445 C314.01800175 971.37757977 313.10276737 972.12652508 312.15979862 972.8981657 C310.40505828 974.33363381 308.64988458 975.76857241 306.89417362 977.2028532 C304.07200546 979.509187 301.25180681 981.81790683 298.43323612 984.12863445 C297.47707401 984.91246502 297.47707401 984.91246502 296.5015955 985.71213055 C288.58368577 992.20711695 280.69322809 998.72848957 272.8946619 1005.36642742 C268.99990174 1008.67274412 265.0265273 1011.86588018 261.02307987 1015.0387907 C257.97241734 1017.50048672 254.98176418 1020.02674571 251.99573612 1022.56613445 C245.32632053 1028.2379629 238.55501179 1033.77818523 231.76136112 1039.30050945 C226.75430661 1043.3814036 221.79137933 1047.50689937 216.87073612 1051.69113445 C212.37635679 1055.51001636 207.8331662 1059.25018501 203.21057987 1062.9137907 C200.37364224 1065.17615869 197.55927574 1067.46436512 194.74744511 1069.75778484 C187.91415563 1075.33028998 181.04623695 1080.85156133 174.08948612 1086.26925945 C171.50917952 1088.27897538 168.95140983 1090.31427902 166.40198612 1092.36300945 C142.24368955 1111.65157173 114.01949282 1134.12597595 81.43323612 1132.12863445 C68.54399228 1130.24862114 57.54746357 1123.69035892 49.37073612 1113.5778532 C41.70056351 1102.84251692 37.82243078 1091.12502586 35.18323612 1078.31613445 C35.03209354 1077.58394695 34.88095097 1076.85175945 34.72522831 1076.09738445 C31.23588309 1057.54005412 31.06678852 1038.91879954 31.11538029 1020.10015774 C31.12080591 1017.91300311 31.12318521 1015.7258593 31.12525272 1013.53869915 C31.16377615 987.31453179 32.2357138 961.26618523 34.43323612 935.12863445 C34.519986 934.08854229 34.60673588 933.04845013 34.69611454 931.97684002 C35.86396045 918.02012413 37.11068364 904.07151016 38.43323612 890.12863445 C36.94219364 890.17407391 36.94219364 890.17407391 35.42102909 890.22043133 C24.58132144 890.54632095 13.74093535 890.82580217 2.89911747 891.07144451 C0.61920906 891.12432128 -1.66053385 891.18177682 -3.94029903 891.24045086 C-50.33541152 892.38281906 -95.054691 877.61409675 -130.56676388 847.12863445 C-131.49875607 846.33586102 -132.43074825 845.54308758 -133.39098263 844.7262907 C-138.56382218 840.20295566 -143.26074143 835.48258272 -147.56676388 830.12863445 C-148.25254513 829.28043133 -148.93832638 828.4322282 -149.64488888 827.55832195 C-168.43017768 803.45272408 -178.75425255 776.01977289 -178.69819164 745.37588978 C-178.70024428 744.32271745 -178.70229691 743.26954513 -178.70441175 742.18445849 C-178.71006563 738.65583905 -178.70862648 735.12725884 -178.70720577 731.59863567 C-178.70979033 729.04290786 -178.71280375 726.48718044 -178.71620917 723.93145359 C-178.72377055 717.64430088 -178.72598129 711.35715667 -178.72653823 705.06999988 C-178.72745372 697.53686459 -178.73412678 690.00373711 -178.74088505 682.47060519 C-178.75692882 664.2646918 -178.7628466 646.05877928 -178.7676338 627.85286009 C-178.76997149 619.23594266 -178.77357435 610.6190259 -178.77732918 602.00210899 C-178.79016359 572.49102222 -178.8008826 542.97993582 -178.80433178 513.46884632 C-178.80455341 511.61703741 -178.80477519 509.7652285 -178.80499713 507.9134196 C-178.80521777 506.05720134 -178.80543825 504.20098308 -178.80565858 502.34476483 C-178.80610112 498.62102866 -178.80654824 494.89729249 -178.80699825 491.17355633 C-178.80710764 490.25028941 -178.80721703 489.3270225 -178.80732974 488.3757778 C-178.81095914 458.44909623 -178.82687533 428.52243889 -178.85018862 398.5957666 C-178.87480595 366.9370924 -178.88850551 335.27843205 -178.8896997 303.619748 C-178.88987114 300.14179253 -178.89008657 296.66383707 -178.89033413 293.18588161 C-178.89041778 291.90137625 -178.89041778 291.90137625 -178.89050313 290.59092129 C-178.89165194 276.83269701 -178.90265956 263.07449768 -178.91722118 249.31628182 C-178.931615 235.47687957 -178.93480692 221.63750918 -178.92678121 207.7981015 C-178.92233846 199.58585082 -178.92613104 191.37370325 -178.94201971 183.16146619 C-178.95297588 177.01485234 -178.94808624 170.86834369 -178.93724784 164.72173177 C-178.93529546 162.24590383 -178.93834791 159.77006544 -178.94709221 157.29425217 C-179.07009538 120.09350017 -170.48855664 87.69068908 -145.56676388 59.12863445 C-144.9609045 58.4016032 -144.35504513 57.67457195 -143.73082638 56.92550945 C-139.71308448 52.16239462 -135.38439774 48.07316962 -130.56676388 44.12863445 C-130.06757442 43.71710125 -129.56838497 43.30556805 -129.05406857 42.88156414 C-116.24145275 32.37233994 -102.57415987 24.11599854 -87.56676388 17.12863445 C-86.90724728 16.82038738 -86.24773067 16.51214031 -85.56822872 16.19455242 C-58.67600723 3.84722815 -29.32774979 -0.04132734 0 0 Z " fill="#83B6C6" transform="translate(224.56676387786865,270.8713655471802)"/>
<path d="M0 0 C2.43741409 2.16043522 4.73672849 4.39690393 7.015625 6.72265625 C7.61246094 7.26148438 8.20929688 7.8003125 8.82421875 8.35546875 C27.6467707 25.65656731 39.20325872 53.16618003 40.91970825 78.38006592 C41.37155066 89.41548658 40.75392067 100.01638157 39.3125 110.96875 C39.13134887 112.39733548 38.95084389 113.82600302 38.77093506 115.25474548 C38.20121019 119.74610757 37.61070166 124.23459169 37.015625 128.72265625 C36.86992569 129.824884 36.86992569 129.824884 36.72128296 130.94937897 C35.39990533 140.93603988 34.03965103 150.91722423 32.66352844 160.89647293 C31.86956801 166.66043474 31.07848635 172.42479274 30.28683805 178.18907249 C29.81173167 181.64835295 29.33649333 185.10761528 28.86126709 188.56687927 C28.69843105 189.75222983 28.53559502 190.93758039 28.36782455 192.15885067 C28.2515987 193.00490651 28.13537285 193.85096235 28.015625 194.72265625 C28.65925523 194.73719565 29.30288546 194.75173506 29.96601963 194.76671505 C45.7382361 195.12317017 61.51038909 195.48230335 77.28247929 195.84429836 C84.91021484 196.01930482 92.53796803 196.19345497 100.16577148 196.36547852 C106.82600215 196.51568348 113.48619117 196.66760783 120.1463384 196.82146889 C123.66205286 196.90263136 127.17778059 196.9830201 130.69355965 197.06133842 C143.7679145 197.35317316 156.8406499 197.6643271 169.90795898 198.19165039 C171.27533124 198.24308653 171.27533124 198.24308653 172.67032719 198.29556179 C196.03434687 199.31468601 214.9857357 208.49302394 230.765625 225.66015625 C243.24236329 240.56780834 248.05264618 259.15030675 246.7421875 278.33300781 C245.63707468 290.57213227 241.59624988 301.40398016 236.50390625 312.45703125 C233.78306683 318.42716708 232.67574458 324.39629537 234.6640625 330.81640625 C235.71610599 333.15428067 236.86370606 335.43217396 238.015625 337.72265625 C239.25477435 340.37582623 240.4494957 343.0476546 241.640625 345.72265625 C241.94170166 346.37508301 242.24277832 347.02750977 242.55297852 347.69970703 C249.28647375 362.75678492 249.286772 380.86794638 243.48828125 396.21875 C240.17755571 404.09599352 236.14212572 410.71475631 230.890625 417.41015625 C222.76377709 427.81324276 220.78533639 434.42820345 222.25390625 447.91015625 C222.34027344 448.50828125 222.42664062 449.10640625 222.515625 449.72265625 C225.17878951 468.16898687 221.12749733 487.29149701 209.9453125 502.2890625 C209.30851562 503.09214844 208.67171875 503.89523437 208.015625 504.72265625 C207.35820313 505.55667969 206.70078125 506.39070313 206.0234375 507.25 C199.32618734 515.21065083 191.38110202 520.28824775 182.68359375 525.85546875 C179.95301551 527.4509006 179.95301551 527.4509006 179.015625 529.72265625 C178.9660058 531.58006834 178.97935258 533.43932331 179.0234375 535.296875 C179.4190361 558.62064021 177.60534454 579.91121318 161.015625 597.72265625 C160.41234375 598.41617188 159.8090625 599.1096875 159.1875 599.82421875 C147.03153299 613.05277108 128.3678186 620.29908483 110.59440559 621.24757874 C109.84835078 621.27793556 109.10229596 621.30829237 108.33363342 621.33956909 C107.51891699 621.37718475 106.70420056 621.41480041 105.86479574 621.45355594 C95.88863603 621.87263329 85.91056952 621.86283585 75.92749023 621.85205078 C73.78283661 621.85340981 71.63818323 621.85519254 69.49353027 621.85736084 C63.72188952 621.86187966 57.95026685 621.86016756 52.17862582 621.85698175 C46.08604816 621.8544243 39.9934719 621.85680548 33.90089417 621.85836792 C23.65861742 621.86018189 13.41634791 621.85780579 3.17407227 621.85302734 C-8.57550376 621.84760808 -20.32506236 621.84933346 -32.07463795 621.85485375 C-42.23767797 621.85943325 -52.40071282 621.86001141 -62.56375355 621.85741508 C-68.599706 621.85587581 -74.63565035 621.85559205 -80.67160225 621.85895157 C-123.79073615 621.87950348 -123.79073615 621.87950348 -144.64428711 621.30419922 C-145.33397304 621.28665533 -146.02365896 621.26911145 -146.73424447 621.25103593 C-163.96867077 620.79434861 -178.56709983 616.07198171 -194.54443359 609.98852539 C-195.70668457 609.55403076 -196.86893555 609.11953613 -198.06640625 608.671875 C-199.11030518 608.27315186 -200.1542041 607.87442871 -201.22973633 607.46362305 C-204.05587947 606.70342235 -205.31175472 606.63049236 -207.984375 607.72265625 C-209.69358084 609.11348512 -209.69358084 609.11348512 -211.359375 610.84765625 C-228.00694697 625.77835155 -251.22737296 626.91250866 -272.4296875 626.8046875 C-274.027353 626.80010485 -275.62501952 626.79587114 -277.22268677 626.79194641 C-281.78673842 626.7789451 -286.35073195 626.75828135 -290.91474915 626.73651886 C-294.13208548 626.72198918 -297.34942343 626.71003016 -300.56677246 626.69866943 C-314.11958787 626.6500887 -327.67211984 626.58128622 -341.22469711 626.48692131 C-347.73377145 626.44187311 -354.24277388 626.40256918 -360.75195312 626.3762207 C-367.1684317 626.35010064 -373.58467743 626.30971856 -380.00101089 626.25946999 C-382.41124726 626.24295784 -384.82152303 626.23134727 -387.23180771 626.22504234 C-408.99287146 626.16211216 -429.93387876 625.0943344 -446.984375 609.72265625 C-462.98346338 591.97622716 -463.43691026 570.13676274 -463.38842773 547.59985352 C-463.39413961 545.19013148 -463.40110702 542.78041215 -463.40922546 540.37069702 C-463.42523222 534.53797326 -463.42727626 528.70537349 -463.42201256 522.87263245 C-463.41794976 518.12626334 -463.41943926 513.3799259 -463.42476082 508.63355827 C-463.42550924 507.95469596 -463.42625766 507.27583365 -463.42702876 506.57639975 C-463.42856044 505.19673546 -463.43009879 503.81707117 -463.43164373 502.43740689 C-463.44532934 489.53830996 -463.43995863 476.6392739 -463.42845852 463.7401784 C-463.41852748 451.97310262 -463.43147155 440.20618411 -463.45539271 428.43913258 C-463.4798499 416.31579111 -463.48937555 404.19252268 -463.48273998 392.06915706 C-463.47926277 385.27914187 -463.4813801 378.48924753 -463.49899101 371.69925117 C-463.51452858 365.31244228 -463.51042904 358.92593236 -463.49168587 352.53913498 C-463.48801898 350.20602282 -463.49105243 347.87288816 -463.50157166 345.53979683 C-463.58663276 325.1011517 -462.02166833 305.92756021 -447.171875 290.28515625 C-427.59117136 272.11779663 -401.85463658 274.56627737 -376.9296875 274.58984375 C-374.38133739 274.58916768 -371.83298734 274.58819514 -369.28463745 274.58694458 C-363.94398322 274.58547493 -358.60334632 274.58749499 -353.26269531 274.59228516 C-347.87368639 274.59706494 -342.48471275 274.59689755 -337.09570312 274.59228516 C-319.39150575 274.57719366 -301.68823867 274.60830642 -283.984375 274.72265625 C-282.35881935 274.7323922 -282.35881935 274.7323922 -280.70042419 274.74232483 C-274.82621752 274.78028384 -268.95312257 274.84057465 -263.07961655 274.9397316 C-261.38167768 274.96630392 -259.68363044 274.98684007 -257.98553848 275.00048447 C-247.02397019 275.09767757 -237.53559586 276.60889912 -227.31051636 280.82522583 C-224.24330381 282.00856313 -222.25155176 282.18939579 -218.984375 281.72265625 C-213.40681423 277.87552985 -210.45526774 273.18323877 -207.046875 267.41015625 C-205.89918381 265.51256925 -204.75071619 263.61545169 -203.6015625 261.71875 C-203.00827148 260.73245605 -202.41498047 259.74616211 -201.80371094 258.72998047 C-198.80914905 253.78003235 -195.74156225 248.87625073 -192.671875 243.97265625 C-192.05159424 242.98023926 -191.43131348 241.98782227 -190.79223633 240.96533203 C-183.61073093 229.49516594 -176.31414598 218.09851508 -168.984375 206.72265625 C-168.59504791 206.11794495 -168.20572083 205.51323364 -167.80459595 204.89019775 C-160.45314689 193.4773682 -153.00865578 182.12700423 -145.53344727 170.79492188 C-143.68345394 167.99021069 -141.83480907 165.18461436 -139.98632812 162.37890625 C-138.76052444 160.5194602 -137.53461331 158.66008497 -136.30859375 156.80078125 C-135.40704056 155.43293739 -135.40704056 155.43293739 -134.48727417 154.03746033 C-131.37314441 149.31884558 -128.24338054 144.6115664 -125.08837891 139.92016602 C-124.45567581 138.97772034 -123.82297272 138.03527466 -123.1710968 137.06427002 C-121.97282552 135.28136964 -120.77152665 133.50049867 -119.5665741 131.72210693 C-106.89597035 112.86054996 -101.9831025 91.60248348 -98.14245605 69.46743774 C-95.48203184 54.20959722 -92.64196435 39.02717354 -88.734375 24.03515625 C-88.42967285 22.85203857 -88.1249707 21.6689209 -87.81103516 20.44995117 C-82.212114 -0.36697667 -82.212114 -0.36697667 -75.984375 -7.27734375 C-53.65657385 -19.61541083 -19.69292771 -15.02745661 0 0 Z M-45.984375 34.72265625 C-50.0913481 41.85537261 -50.88155342 50.38462845 -51.859375 58.41015625 C-53.63660443 71.47310684 -56.35391673 84.05377711 -59.984375 96.72265625 C-60.22994141 97.58455566 -60.47550781 98.44645508 -60.72851562 99.33447266 C-71.9921652 137.87309426 -93.139437 173.45760589 -116.82421875 205.59375 C-127.42884835 219.99840082 -137.14390267 234.97324043 -146.85943604 249.98510742 C-147.84665763 251.50994191 -148.8359993 253.03340338 -149.82568359 254.55664062 C-159.38758836 269.30370961 -168.21739446 284.49431243 -176.984375 299.72265625 C-177.68965332 300.93840332 -177.68965332 300.93840332 -178.40917969 302.17871094 C-187.79982626 318.46044624 -194.0066851 335.59307275 -194.59887695 354.45410156 C-194.63640485 355.51746357 -194.67393274 356.58082558 -194.71259785 357.67641068 C-195.19881586 373.22831747 -195.14929421 388.79177911 -195.15163207 404.34962368 C-195.15235186 407.04995102 -195.15450297 409.75027355 -195.15712929 412.45059967 C-195.16630981 421.90619725 -195.17047217 431.36178092 -195.16967773 440.81738281 C-195.16907424 449.58191773 -195.17969782 458.34639166 -195.1954214 467.11091113 C-195.20853129 474.69287486 -195.21386041 482.27481867 -195.21322232 489.85679364 C-195.21296898 494.36114248 -195.2157309 498.86543651 -195.22640038 503.36977386 C-195.23614369 507.59553393 -195.23611828 511.82118727 -195.22888374 516.04695129 C-195.22784664 517.58634346 -195.23014807 519.12574254 -195.2362442 520.66512299 C-195.29965944 537.80082962 -194.21664576 553.71650713 -181.984375 566.72265625 C-170.91476339 576.86603505 -158.03203928 578.99217904 -143.5078125 579.13671875 C-142.22328186 579.15617554 -140.93875122 579.17563232 -139.61529541 579.19567871 C-135.97566984 579.24893827 -132.33600934 579.2881488 -128.69617462 579.32395172 C-126.33963008 579.34785654 -123.98314557 579.37512705 -121.62664795 579.40325928 C-85.67375528 579.82529124 -49.71654242 579.82761684 -13.76159608 579.84405243 C-9.0315063 579.84621503 -4.30141926 579.84947496 0.4286691 579.85373366 C21.29135836 579.87203711 42.15324505 579.84293712 63.015625 579.72265625 C64.23844681 579.71616562 65.46126862 579.70967499 66.72114563 579.70298767 C73.37254059 579.66503041 80.02295116 579.60491035 86.67372513 579.5055809 C88.59645596 579.47897055 90.51928341 579.45845213 92.44215012 579.44482803 C105.36603694 579.34364481 117.72975146 578.73892639 128.03515625 569.87890625 C134.91128457 562.39247069 136.68380941 554.61622595 136.6171875 544.65625 C135.13648994 534.97402636 130.63885869 526.721292 125.765625 518.34765625 C125.19368408 517.34903564 124.62174316 516.35041504 124.0324707 515.3215332 C120.2650483 508.77515211 116.38310706 502.31272618 112.30859375 495.953125 C111.015625 493.72265625 111.015625 493.72265625 111.015625 491.72265625 C111.92441406 491.79484375 112.83320312 491.86703125 113.76953125 491.94140625 C133.77944318 493.41906129 154.64529705 494.50157163 171.2265625 481.35546875 C176.75650299 476.3084925 179.47407755 470.82986532 180.26953125 463.328125 C181.04049631 446.34202383 172.15782098 430.76035937 162.265625 417.578125 C161.015625 415.72265625 161.015625 415.72265625 161.015625 413.72265625 C161.67046875 413.42085449 162.3253125 413.11905273 163 412.80810547 C166.00978501 411.41427318 169.01265076 410.0060986 172.015625 408.59765625 C173.04558594 408.12328125 174.07554687 407.64890625 175.13671875 407.16015625 C186.90780635 401.61200031 198.11396395 394.01232541 203.328125 381.59765625 C205.05471055 371.86599224 205.2083787 362.73018394 199.4453125 354.47265625 C192.91759637 346.48580357 184.43044925 340.99637814 176.03710938 335.14697266 C170.12392481 330.98060565 164.53466946 326.39261695 159.015625 321.72265625 C161.39671696 319.10399281 163.94441237 317.4381492 166.98828125 315.6484375 C167.97119141 315.06255859 168.95410156 314.47667969 169.96679688 313.87304688 C172.0121937 312.66481184 174.05902965 311.45900916 176.10742188 310.25585938 C187.29014911 303.57819444 199.2865619 296.0006577 203.54296875 282.9765625 C205.85196626 271.96588844 202.98036385 262.40636032 197.390625 252.91015625 C192.58492582 246.15554632 185.87904954 242.86260862 177.89689636 241.16584778 C171.59228089 240.19608415 165.19849192 240.22144819 158.83203125 240.1015625 C157.98531923 240.08300264 157.13860722 240.06444279 156.26623726 240.04532051 C125.45673644 239.38141177 94.62452687 239.61018054 63.80982554 239.65062773 C54.97720465 239.66202363 46.14458276 239.66735846 37.31195629 239.67233264 C19.21317086 239.68265346 1.11439915 239.70012401 -16.984375 239.72265625 C-15.21071628 215.51541206 -13.27443562 191.35706257 -10.1875 167.27734375 C-10.06743088 166.33774055 -9.94736176 165.39813736 -9.82365417 164.43006134 C-8.85166662 156.85179444 -7.85502138 149.27682286 -6.85040283 141.70281982 C-0.18302985 102.40826385 -0.18302985 102.40826385 -5.984375 63.72265625 C-6.42007813 62.53414062 -6.85578125 61.345625 -7.3046875 60.12109375 C-11.49299052 49.61600585 -16.86886948 37.76756802 -27.453125 32.4921875 C-30.23771616 31.64563741 -32.57661975 31.42240803 -35.484375 31.41015625 C-36.4021875 31.39339844 -37.32 31.37664063 -38.265625 31.359375 C-41.56961677 31.80085666 -43.28719116 32.77329639 -45.984375 34.72265625 Z " fill="#1E2A33" transform="translate(1509.984375,927.27734375)"/>
<path d="M0 0 C15.95190191 12.67731088 27.08083537 31.54542785 29.75390625 51.8828125 C31.61920237 75.98362264 26.5722011 98.00634118 10.64794922 116.64501953 C-3.52501466 132.59515757 -22.51131247 142.75168818 -43.97460938 144.1953125 C-68.14571556 145.52218018 -88.88536941 138.0287647 -107 122.0625 C-121.1481663 108.79038115 -130.524129 89.04531952 -131.3359375 69.6171875 C-131.36564779 67.72414669 -131.37821029 65.83077122 -131.375 63.9375 C-131.37338867 62.93630127 -131.37177734 61.93510254 -131.37011719 60.90356445 C-131.22627104 52.10003931 -129.79279441 44.41189227 -127 36.0625 C-126.54947266 34.6703125 -126.54947266 34.6703125 -126.08984375 33.25 C-119.04285395 13.72587241 -102.56834083 -1.91477963 -84.08984375 -10.65625 C-55.57877141 -22.47879327 -24.50836444 -18.61299269 0 0 Z " fill="#1E2A33" transform="translate(415,615.9375)"/>
<path d="M0 0 C1.27922927 1.07340623 2.55013137 2.15681479 3.8125 3.25 C5.00359375 4.14912109 5.00359375 4.14912109 6.21875 5.06640625 C19.395827 16.15975873 27.84662378 33.5030265 30.8125 50.25 C30.94140625 50.93964844 31.0703125 51.62929688 31.203125 52.33984375 C34.39422395 72.87204623 29.020757 95.03059836 16.93359375 111.8671875 C14.96552071 114.40141854 12.92695203 116.83694215 10.8125 119.25 C10.21953125 119.93835938 9.6265625 120.62671875 9.015625 121.3359375 C-3.75252114 135.14081346 -23.51796619 144.20155053 -42.19042969 145.37597656 C-66.03738491 146.25589691 -86.67239356 139.7280085 -104.74609375 124.02734375 C-120.52776764 108.93761509 -129.06615023 89.26834258 -129.65844727 67.61572266 C-129.84291954 45.84799467 -124.12352784 26.52827126 -109.1875 10.25 C-108.52363281 9.49460937 -107.85976563 8.73921875 -107.17578125 7.9609375 C-79.80073111 -21.48874675 -31.52864042 -24.27287715 0 0 Z " fill="#1E2A33" transform="translate(949.1875,625.75)"/>
<path d="M0 0 C1.42187705 1.19894413 2.81616127 2.43106397 4.1875 3.6875 C5.09113281 4.51121094 5.99476563 5.33492187 6.92578125 6.18359375 C13.15980744 12.13080412 17.99452917 18.170967 22.1875 25.6875 C22.64769531 26.47511719 23.10789062 27.26273438 23.58203125 28.07421875 C33.69286967 46.55475423 34.35002656 68.65689697 29.1875 88.6875 C27.79502346 92.84517818 26.10962438 96.74962341 24.1875 100.6875 C23.76855469 101.59886719 23.34960938 102.51023437 22.91796875 103.44921875 C14.21938534 121.02186132 -2.75524027 134.71995861 -20.875 141.5 C-41.84441469 148.43656373 -64.2594754 147.75491316 -84.1875 137.9375 C-104.53798011 127.36197124 -118.16377236 111.58039937 -126.140625 90.11328125 C-132.43292856 68.90999074 -130.10603742 45.91757839 -120.09008789 26.35351562 C-116.72889173 20.16811459 -112.57834406 14.86359071 -107.8125 9.6875 C-107.27367187 9.05714844 -106.73484375 8.42679688 -106.1796875 7.77734375 C-79.58199421 -21.56031292 -30.72911157 -22.70570233 0 0 Z " fill="#1E2A33" transform="translate(678.8125,620.3125)"/>
</svg>
