<?xml version="1.0" standalone="no"?>
<!DOCTYPE svg PUBLIC "-//W3C//DTD SVG 20010904//EN"
        "http://www.w3.org/TR/2001/REC-SVG-20010904/DTD/svg10.dtd">
<svg version="1.0" xmlns="http://www.w3.org/2000/svg"
     width="492.000000pt" height="494.000000pt" viewBox="0 0 492.000000 494.000000"
     preserveAspectRatio="xMidYMid meet">
    <metadata>
        Created by potrace 1.16, written by Peter Selinger 2001-2019
    </metadata>
    <g transform="translate(0.000000,494.000000) scale(0.100000,-0.100000)"
       fill="#000000" stroke="none">
        <path d="M1695 4880 c-162 -6 -209 -11 -320 -38 -235 -55 -402 -129 -595 -260
-145 -99 -235 -178 -318 -277 -187 -222 -299 -455 -366 -755 -40 -179 -46
-240 -46 -465 1 -271 10 -366 58 -555 88 -350 223 -593 454 -816 135 -131 370
-284 538 -349 232 -90 412 -121 760 -129 l145 -4 18 -63 c36 -123 98 -325 217
-699 34 -107 71 -222 81 -255 29 -91 52 -123 94 -131 67 -12 106 34 171 206
118 307 255 640 304 740 32 63 65 137 75 163 10 26 23 51 28 54 6 4 79 5 161
4 306 -5 572 56 849 194 61 31 139 76 172 99 309 222 546 561 640 920 64 242
69 281 68 571 0 232 -3 288 -22 396 -53 306 -124 493 -269 710 -137 204 -322
380 -547 520 -79 50 -301 142 -402 168 -198 51 -239 53 -1023 56 -404 1 -820
-1 -925 -5z m1770 -203 c263 -58 425 -127 595 -255 247 -185 424 -408 523
-657 72 -182 104 -359 113 -625 13 -379 -38 -631 -187 -922 -82 -159 -271
-389 -416 -504 -240 -192 -703 -321 -1076 -301 -96 5 -99 5 -127 -21 -16 -15
-62 -88 -103 -162 -41 -74 -97 -171 -126 -215 -37 -58 -61 -111 -87 -195 -67
-216 -116 -365 -125 -380 -6 -12 -8 -10 -9 9 0 13 -13 67 -29 120 -16 53 -39
133 -50 178 -11 44 -40 134 -65 200 -24 65 -65 188 -91 273 -27 92 -55 164
-67 177 -21 23 -26 23 -257 23 -338 0 -484 23 -704 111 -139 55 -237 112 -353
205 -120 95 -177 151 -233 229 -24 33 -61 83 -81 110 -76 101 -185 349 -219
496 -35 150 -45 266 -45 524 -1 217 2 266 21 372 41 225 125 442 222 578 28
39 63 88 77 110 42 63 171 185 264 251 220 155 414 239 635 275 145 23 322 27
1090 24 l790 -2 120 -26z"/>
        <path d="M1545 4514 c-256 -47 -484 -148 -672 -298 -190 -153 -309 -328 -394
-581 -68 -202 -82 -314 -76 -615 5 -267 9 -302 63 -487 33 -114 110 -284 168
-371 73 -110 210 -258 305 -328 155 -116 433 -236 611 -266 109 -17 1650 -18
1770 0 122 18 340 85 449 137 114 55 238 135 310 200 135 123 315 398 369 565
12 36 34 115 48 175 26 105 27 122 28 390 1 234 -2 297 -18 380 -74 396 -283
709 -615 922 -109 70 -214 115 -377 160 l-99 27 -895 2 c-746 2 -908 0 -975
-12z m1875 -187 c97 -20 207 -58 278 -98 98 -56 234 -152 297 -210 127 -119
240 -309 300 -504 30 -100 38 -144 46 -270 18 -268 -2 -477 -67 -694 -45 -149
-97 -256 -174 -356 -84 -110 -113 -138 -205 -207 -88 -66 -148 -99 -279 -152
-130 -52 -233 -74 -404 -86 -199 -13 -1468 -13 -1587 0 -383 44 -736 288 -904
627 -41 81 -92 237 -117 351 -17 82 -19 522 -3 639 15 108 72 279 132 398 44
87 65 114 156 205 58 58 135 126 171 151 168 118 374 201 535 217 50 4 464 7
920 6 687 -2 843 -5 905 -17z"/>
        <path d="M1393 4146 c-39 -19 -90 -53 -112 -75 -34 -34 -41 -48 -41 -81 0 -26
7 -47 20 -60 18 -18 22 -18 62 -5 253 85 258 88 258 160 0 36 -5 48 -31 69
-40 34 -70 33 -156 -8z"/>
        <path d="M1100 3941 c-86 -34 -204 -168 -271 -306 -59 -122 -63 -161 -18 -199
17 -14 42 -26 56 -26 34 0 74 45 96 110 29 83 83 159 173 245 95 90 102 111
52 148 -37 27 -66 37 -88 28z"/>
        <path d="M2400 3427 c-91 -26 -182 -106 -223 -196 -34 -73 -30 -177 10 -262
43 -93 103 -153 173 -172 100 -27 123 -28 191 -7 92 28 155 80 201 165 48 90
56 141 34 225 -21 81 -74 160 -134 200 -73 49 -177 68 -252 47z m125 -176 c53
-25 95 -70 101 -112 18 -111 -79 -203 -179 -170 -73 24 -126 95 -127 166 0 61
76 135 140 135 14 0 43 -9 65 -19z"/>
        <path d="M3285 3427 c-125 -41 -224 -156 -241 -279 -19 -136 92 -315 217 -352
157 -47 315 27 387 181 23 49 27 71 27 143 0 73 -4 92 -28 137 -15 29 -43 69
-64 89 -73 74 -208 110 -298 81z m128 -171 c18 -7 45 -28 61 -45 24 -25 30
-42 34 -88 5 -72 -8 -107 -50 -133 -79 -48 -185 -13 -227 73 -29 59 -27 98 6
138 55 65 111 83 176 55z"/>
        <path d="M1447 3406 c-78 -33 -103 -50 -137 -97 -70 -97 -83 -234 -33 -342 59
-124 132 -175 263 -184 102 -7 164 14 237 80 178 163 147 426 -62 535 -74 38
-189 42 -268 8z m186 -165 c112 -72 114 -206 5 -262 -75 -38 -160 -4 -204 82
-38 76 -17 143 60 190 44 27 85 24 139 -10z"/>
        <path d="M4015 2714 c-13 -14 -32 -49 -41 -77 -35 -109 -100 -207 -199 -301
-63 -60 -107 -90 -220 -150 -49 -27 -102 -60 -117 -74 -61 -56 -19 -142 68
-142 73 0 229 89 355 202 39 35 114 125 145 173 10 17 35 53 55 80 47 64 109
188 109 218 0 30 -24 64 -60 82 -42 22 -68 19 -95 -11z"/>
    </g>
</svg>