<?xml version="1.0" encoding="UTF-8"?>
<svg version="1.1" xmlns="http://www.w3.org/2000/svg" width="2134" height="2134">
<path d="M0 0 C3.55148397 2.03122174 6.67328852 4.25487073 9.8125 6.875 C10.7715625 7.6690625 11.730625 8.463125 12.71875 9.28125 C13.24210937 9.71566406 13.76546875 10.15007812 14.3046875 10.59765625 C17.45975931 13.20749676 20.635839 15.79151357 23.8125 18.375 C24.49610596 18.93106934 25.17971191 19.48713867 25.8840332 20.06005859 C30.78591302 24.0376763 35.73486952 27.95035493 40.71020508 31.83544922 C45.87483235 35.87809315 50.95787441 40.01734578 56.0390625 44.1640625 C60.32451618 47.65530083 64.64329453 51.09818888 69 54.5 C74.74010668 58.9820011 80.39693246 63.55956557 86.0390625 68.1640625 C90.32451618 71.65530083 94.64329453 75.09818888 99 78.5 C104.74010668 82.9820011 110.39693246 87.55956557 116.0390625 92.1640625 C120.32451618 95.65530083 124.64329453 99.09818888 129 102.5 C134.74010668 106.9820011 140.39693246 111.55956557 146.0390625 116.1640625 C150.32451618 119.65530083 154.64329453 123.09818888 159 126.5 C164.74010668 130.9820011 170.39693246 135.55956557 176.0390625 140.1640625 C180.88494128 144.11186336 185.78170143 147.98798898 190.70874023 151.83374023 C195.20663846 155.35375146 199.63985702 158.94856888 204.0625 162.5625 C208.82173946 166.44981773 213.61374347 170.27339891 218.5 174 C224.08836614 178.26207899 229.54628513 182.66639299 234.98828125 187.11328125 C239.28936608 190.62336198 243.62376186 194.08417075 248 197.5 C253.74019254 201.9818886 259.39693517 206.55956778 265.0390625 211.1640625 C269.32451618 214.65530083 273.64329453 218.09818888 278 221.5 C283.0484644 225.44195165 288.03751462 229.4503742 293 233.5 C300.26332952 239.42465971 307.61143615 245.23269816 315 251 C323.08053205 257.30743245 331.0964614 263.6824297 339.03857422 270.16357422 C343.3241126 273.65507316 347.64311384 277.0980478 352 280.5 C357.74010668 284.9820011 363.39693246 289.55956557 369.0390625 294.1640625 C373.32451618 297.65530083 377.64329453 301.09818888 382 304.5 C387.74010668 308.9820011 393.39693246 313.55956557 399.0390625 318.1640625 C403.32451618 321.65530083 407.64329453 325.09818888 412 328.5 C417.0484644 332.44195165 422.03751462 336.4503742 427 340.5 C434.26332952 346.42465971 441.61143615 352.23269816 449 358 C457.08053205 364.30743245 465.0964614 370.6824297 473.03857422 377.16357422 C477.3241126 380.65507316 481.64311384 384.0980478 486 387.5 C491.74010668 391.9820011 497.39693246 396.55956557 503.0390625 401.1640625 C507.32451737 404.65530179 511.64333106 408.09814072 516 411.5 C522.51229417 416.58597845 528.9236637 421.79096139 535.328125 427.01171875 C538.20612454 429.35721533 541.09655836 431.68601547 544 434 C547.57879245 436.85222552 551.13262718 439.73352476 554.6796875 442.625 C560.976228 447.75727452 567.30742843 452.83585467 573.70996094 457.83520508 C578.87460136 461.87801787 583.95778496 466.01727279 589.0390625 470.1640625 C593.32451618 473.65530083 597.64329453 477.09818888 602 480.5 C607.74010668 484.9820011 613.39693246 489.55956557 619.0390625 494.1640625 C623.32451618 497.65530083 627.64329453 501.09818888 632 504.5 C637.74091461 508.98263195 643.39887777 513.56044024 649.04125977 518.16625977 C653.30310909 521.63893482 657.60131101 525.05826306 661.9375 528.4375 C667.94214522 533.1200215 673.81660123 537.94987865 679.68115234 542.80615234 C684.64935149 546.91129405 689.67853128 550.92533817 694.76171875 554.88671875 C699.22089304 558.36853977 703.61734231 561.92248072 708 565.5 C713.52536671 570.00932897 719.09516324 574.45272867 724.7175293 578.84033203 C729.13106101 582.29375103 733.47633201 585.82515906 737.8125 589.375 C744.78494054 595.07376036 751.89082297 600.58216533 759.0625 606.02734375 C759.70630615 606.51654297 760.3501123 607.00574219 761.01342773 607.50976562 C762.39661304 608.54736709 763.79023929 609.57113429 765.19165039 610.58398438 C765.90313232 611.10154297 766.61461426 611.61910156 767.34765625 612.15234375 C767.98968994 612.6124585 768.63172363 613.07257324 769.29321289 613.54663086 C773.06059282 616.75464297 775.10814762 621.17293135 776 626 C776.09166483 628.29507237 776.12448662 630.592685 776.1241985 632.88958716 C776.12547658 633.58704355 776.12675467 634.28449993 776.12807148 635.00309136 C776.1311509 637.35632032 776.12706177 639.70948302 776.12304783 642.06270981 C776.12378709 643.76768372 776.12496528 645.4726575 776.12654433 647.17763084 C776.12962562 651.89291299 776.12642808 656.60817373 776.12226619 661.32345429 C776.11884261 666.4418462 776.12120076 671.56023586 776.12284368 676.67862821 C776.1249214 685.65912381 776.12326688 694.63961281 776.11920547 703.62010765 C776.113183 716.97388258 776.1128685 730.32765331 776.11374746 743.68142935 C776.11506299 766.14203944 776.11172104 788.60264628 776.10573006 811.06325531 C776.09981015 833.31049361 776.09595548 855.5577307 776.09487724 877.80496979 C776.09484283 878.49556061 776.09480842 879.18615143 776.09477296 879.89766925 C776.09445977 886.20503546 776.09417208 892.51240166 776.09391499 898.81976787 C776.09327555 914.50006037 776.09231619 930.18035283 776.09113979 945.86064529 C776.09108648 946.57473755 776.09103316 947.28882981 776.09097823 948.02456123 C776.0883559 982.7717457 776.08204802 1017.51892938 776.07543945 1052.26611328 C776.07314782 1064.32607014 776.07087247 1076.38602701 776.06866455 1088.44598389 C776.0685276 1089.19393073 776.06839065 1089.94187757 776.06824955 1090.71248947 C776.06190695 1125.47444919 776.05818036 1160.23640904 776.05512976 1194.99836918 C776.05493169 1197.25479167 776.0547325 1199.51121417 776.05453308 1201.76763667 C776.05321331 1216.72090791 776.05193866 1231.67417915 776.05069422 1246.6274504 C776.04821763 1276.38144084 776.04547595 1306.13543125 776.04255217 1335.88942165 C776.04241293 1337.30642467 776.04227388 1338.7234277 776.04213501 1340.14043073 C776.03374454 1425.73497208 776.01978959 1511.32951255 776 1623 C770.35301926 1623.60522079 764.74350948 1624.12584324 759.0634737 1624.29692268 C757.80484475 1624.33600428 756.5462158 1624.37508587 755.24944657 1624.41535175 C753.9076223 1624.45309916 752.56579096 1624.490596 751.22395325 1624.52786255 C749.80166196 1624.56955378 748.37937305 1624.61132599 746.95708638 1624.65317452 C732.77899368 1625.06209106 718.59909683 1625.34202284 704.41674805 1625.55419922 C703.39646471 1625.56975818 703.39646471 1625.56975818 702.35556959 1625.58563146 C664.97634339 1626.15384832 627.59623635 1626.1480277 590.21351447 1626.13530041 C583.20661419 1626.1329775 576.19971633 1626.13274571 569.19281578 1626.13381577 C568.17780856 1626.133969 567.16280135 1626.13412223 566.11703634 1626.13428011 C564.05244011 1626.13459997 561.98784388 1626.13492418 559.92324766 1626.1352527 C540.80360881 1626.13806875 521.68397485 1626.13488042 502.5643368 1626.12945233 C486.26936991 1626.12496928 469.97441013 1626.12578013 453.67944336 1626.13037109 C434.56446154 1626.13575436 415.44948392 1626.13781352 396.33450145 1626.13475883 C394.28772048 1626.1344404 392.24093952 1626.13412603 390.19415855 1626.13381577 C388.6850743 1626.13358435 388.6850743 1626.13358435 387.14550349 1626.13334826 C380.15841599 1626.13249568 373.17133123 1626.13391795 366.18424416 1626.13629532 C357.65527623 1626.1391349 349.12631748 1626.13826848 340.59735058 1626.13301457 C336.27216112 1626.13043537 331.94698681 1626.12927074 327.62179756 1626.13266373 C309.66630586 1626.14551028 291.72432536 1625.99579327 273.77372742 1625.55441284 C272.94617979 1625.53499375 272.11863217 1625.51557465 271.26600734 1625.4955671 C268.90560266 1625.43884385 266.54542349 1625.37642559 264.18522167 1625.31185722 C263.50332226 1625.29555084 262.82142285 1625.27924446 262.11885982 1625.26244394 C256.71670795 1625.10265001 251.37119498 1624.58748122 246 1624 C245.99902319 1622.69998017 245.99804638 1621.39996035 245.99703997 1620.06054598 C245.95379913 1562.77317938 245.90685881 1505.48581666 245.84101868 1448.19847107 C245.83952533 1446.89773735 245.83952533 1446.89773735 245.83800181 1445.57072618 C245.81634382 1426.72558646 245.79402117 1407.88044759 245.77101372 1389.03530947 C245.75973509 1379.79380347 245.74860336 1370.55229729 245.73754883 1361.31079102 C245.73589498 1359.93132161 245.73589498 1359.93132161 245.73420772 1358.52398414 C245.69853228 1328.70978174 245.67255863 1298.89558046 245.65161031 1269.08136437 C245.63003395 1238.44615915 245.59868143 1207.81097914 245.55500887 1177.17579707 C245.54884653 1172.84986865 245.54279607 1168.52394007 245.53681374 1164.1980114 C245.53563285 1163.34659751 245.53445197 1162.49518362 245.53323531 1161.61796931 C245.51450591 1147.90656744 245.50609759 1134.19517768 245.50153876 1120.48376459 C245.49673691 1106.70279303 245.48108585 1092.92186774 245.45433434 1079.140921 C245.43876665 1070.95106651 245.43154352 1062.76130325 245.43623071 1054.57143477 C245.43881331 1048.45885387 245.4258339 1042.34641093 245.40676448 1036.23385488 C245.4014818 1033.75861582 245.4012771 1031.28335976 245.40660437 1028.80812079 C245.41310109 1025.44779391 245.4012353 1022.08801219 245.38476086 1018.72773075 C245.39103755 1017.76309708 245.39731425 1016.79846341 245.40378115 1015.80459842 C245.33847127 1008.58913292 244.00430698 1002.46899285 240.375 996.1875 C230.17078911 986.78888471 214.88991983 988.86251583 202.00842285 988.9042511 C200.1632843 988.90651508 198.31814516 988.90833837 196.47300577 988.90976018 C191.41419685 988.91496434 186.35541951 988.9265223 181.29662442 988.93915927 C175.83644226 988.95170721 170.3762524 988.95841222 164.9160614 988.96591187 C154.22406819 988.98159643 143.53209345 989.00293075 132.84011495 989.02648989 C124.15047726 989.04561002 115.46083782 989.06309562 106.77119446 989.07942772 C82.13407228 989.12591046 57.49696377 989.17659038 32.85986179 989.23277078 C32.1962396 989.23428366 31.5326174 989.23579655 30.84888544 989.23735528 C29.50688184 989.24041483 28.16487824 989.24347572 26.82287464 989.24653794 C5.93645101 989.29413863 -14.94997465 989.33362958 -35.83642578 989.36694336 C-59.31147056 989.40439303 -82.78649156 989.44853761 -106.2615056 989.50211972 C-118.68798036 989.53033372 -131.1144441 989.55550489 -143.54093933 989.5727787 C-154.11798547 989.58754166 -164.69499013 989.60914678 -175.27200305 989.63965384 C-180.66849766 989.65502292 -186.06494941 989.66719391 -191.46146584 989.67075539 C-196.40225672 989.67409705 -201.34293711 989.68658898 -206.28368884 989.70634713 C-208.0702364 989.71188816 -209.85679811 989.7140903 -211.64335364 989.71260003 C-227.80975891 989.2439549 -227.80975891 989.2439549 -242 996 C-247.85891351 1002.90514806 -247.29456283 1014.33517882 -247.26171303 1022.9269743 C-247.26570909 1023.97463965 -247.26970515 1025.02230501 -247.27382231 1026.1017178 C-247.2847591 1029.5994105 -247.28160054 1033.09694401 -247.2784729 1036.59465027 C-247.28347787 1039.13264831 -247.28935426 1041.67064476 -247.29602563 1044.20863897 C-247.30852079 1049.71989952 -247.31488135 1055.23111408 -247.31578636 1060.74238777 C-247.31716557 1068.93736456 -247.32996822 1077.13229604 -247.3450741 1085.32725761 C-247.37016608 1099.11421075 -247.38604952 1112.90116005 -247.39665604 1126.68813133 C-247.40718561 1140.33583591 -247.42182567 1153.98352591 -247.44193649 1167.63121986 C-247.44380979 1168.90483152 -247.44380979 1168.90483152 -247.44572094 1170.20417271 C-247.45208483 1174.51632179 -247.45852198 1178.82847075 -247.46498732 1183.14061967 C-247.51063076 1213.67096867 -247.54708665 1244.2013224 -247.578125 1274.73168945 C-247.60829642 1304.38859755 -247.64267194 1334.04549597 -247.68261719 1363.70239258 C-247.68512389 1365.56782832 -247.68763046 1367.43326406 -247.69013691 1369.2986998 C-247.71052584 1384.456533 -247.73120467 1399.61436582 -247.75195378 1414.77219854 C-247.84766969 1484.84812081 -247.9222038 1554.92405087 -248 1625 C-422.9 1625 -597.8 1625 -778 1625 C-779.12500198 1608.12497029 -779.12500198 1608.12497029 -779.12649983 1601.99117178 C-779.12802638 1601.30639506 -779.12955293 1600.62161834 -779.13112573 1599.91609081 C-779.13495346 1597.67240241 -779.1318396 1595.42878422 -779.12863445 1593.18509579 C-779.12998412 1591.53293334 -779.13176971 1589.88077121 -779.13394669 1588.22860965 C-779.1386443 1583.71114935 -779.13718562 1579.19370937 -779.13466892 1574.67624811 C-779.13302822 1569.75296681 -779.13718297 1564.82968973 -779.14057809 1559.9064098 C-779.14572112 1551.28512595 -779.1471512 1542.66384772 -779.14612198 1534.04256248 C-779.14459523 1521.22235349 -779.14876278 1508.4021507 -779.1539966 1495.58194291 C-779.16366172 1471.3534137 -779.16648051 1447.1248866 -779.16705366 1422.89635568 C-779.16711841 1420.22632881 -779.16718635 1417.55630193 -779.16725707 1414.88627505 C-779.16727408 1414.22367192 -779.16729108 1413.56106878 -779.1673086 1412.87838676 C-779.16771744 1398.18071945 -779.16990857 1383.48305251 -779.17241292 1368.78538541 C-779.17344129 1362.72938606 -779.17443134 1356.67338671 -779.17542917 1350.61738735 C-779.17553975 1349.94821756 -779.17565034 1349.27904776 -779.17576428 1348.58960009 C-779.18208572 1310.25869251 -779.18621367 1271.92778522 -779.18575573 1233.5968771 C-779.18573995 1232.16325547 -779.18572422 1230.72963384 -779.18570852 1229.29601221 C-779.18563514 1222.82361168 -779.18554697 1216.35121114 -779.18545464 1209.8788106 C-779.18541351 1206.99271167 -779.18537337 1204.10661274 -779.18533332 1201.2205138 C-779.18531293 1199.77597253 -779.18529191 1198.33143126 -779.18527026 1196.88688999 C-779.18458984 1151.1964813 -779.19191164 1105.50608035 -779.20581055 1059.81567383 C-779.20931164 1048.30017569 -779.21278113 1036.78467754 -779.21607494 1025.26917934 C-779.21627782 1024.56009913 -779.21648069 1023.85101891 -779.21668971 1023.12045141 C-779.22290524 1001.26389253 -779.22667036 979.4073343 -779.22793293 957.55077457 C-779.22797288 956.86451862 -779.22801283 956.17826266 -779.22805399 955.47121107 C-779.22890728 940.4059798 -779.22916846 925.34074857 -779.22888362 910.27551728 C-779.22878713 904.88497264 -779.22873509 899.49442799 -779.22870489 894.10388335 C-779.22869697 892.76289519 -779.22868677 891.42190702 -779.22867426 890.08091886 C-779.22849257 868.06335031 -779.23474511 846.04578951 -779.24362527 824.02822311 C-779.25209657 802.58119645 -779.25309576 781.13417937 -779.24651595 759.68715196 C-779.24281721 746.94362784 -779.24466241 734.20013281 -779.25445829 721.45661177 C-779.26044897 712.9447988 -779.25917299 704.43300694 -779.25198779 695.92119495 C-779.24809868 691.0713664 -779.24735259 686.22159422 -779.25544515 681.3717696 C-779.2627507 676.95491147 -779.26075616 672.53815639 -779.25152128 668.12130276 C-779.24980791 666.53816126 -779.2514022 664.95501159 -779.25682249 663.37187844 C-779.32820767 641.01459465 -775.69680978 622.70084301 -759.625 606.1875 C-753.70051502 600.29612856 -747.12647865 595.34999193 -740.44140625 590.36328125 C-735.92815779 586.98256707 -731.58176817 583.42132788 -727.25 579.8125 C-721.36586597 574.91928671 -715.40111129 570.19073256 -709.30859375 565.55859375 C-705.47382073 562.6192618 -701.73948491 559.55901473 -698 556.5 C-692.18877184 551.74723816 -686.29868127 547.13347747 -680.328125 542.58203125 C-676.57295545 539.69352598 -672.91414272 536.69004287 -669.25 533.6875 C-663.76944015 529.19849098 -658.21227143 524.83636986 -652.5625 520.5625 C-645.96012917 515.56359453 -639.53615079 510.38365735 -633.16650391 505.09228516 C-628.25287144 501.01482228 -623.27375135 497.03731328 -618.23754883 493.11279297 C-613.77871165 489.63101718 -609.38243134 486.07733451 -605 482.5 C-599.47666343 477.99232786 -593.90815403 473.55157233 -588.2890625 469.1640625 C-583.81563292 465.66223753 -579.40132798 462.09188836 -575 458.5 C-569.47660315 453.99240027 -563.90815564 449.55157358 -558.2890625 445.1640625 C-553.81563292 441.66223753 -549.40132798 438.09188836 -545 434.5 C-539.47660315 429.99240027 -533.90815564 425.55157358 -528.2890625 421.1640625 C-523.81563292 417.66223753 -519.40132798 414.09188836 -515 410.5 C-509.47660315 405.99240027 -503.90815564 401.55157358 -498.2890625 397.1640625 C-493.12398193 393.12080938 -488.04000757 388.98152753 -482.95874023 384.83374023 C-478.69689091 381.36106518 -474.39868899 377.94173694 -470.0625 374.5625 C-464.8024431 370.46062077 -459.63749637 366.25421962 -454.5 362 C-448.8085006 357.28702568 -443.06675554 352.65547156 -437.23828125 348.11328125 C-432.77910696 344.63146023 -428.38265769 341.07751928 -424 337.5 C-419.03767613 333.45017816 -414.04841747 329.44200387 -409 325.5 C-402.48770583 320.41402155 -396.0763363 315.20903861 -389.671875 309.98828125 C-386.02458406 307.01583171 -382.35135699 304.07700432 -378.671875 301.14453125 C-375.8770181 298.90129084 -373.09806375 296.63935364 -370.3203125 294.375 C-364.023772 289.24272548 -357.69257157 284.16414533 -351.29003906 279.16479492 C-346.81624841 275.66277027 -342.40164329 272.09214568 -338 268.5 C-332.47660315 263.99240027 -326.90815564 259.55157358 -321.2890625 255.1640625 C-316.81563292 251.66223753 -312.40132798 248.09188836 -308 244.5 C-302.47660315 239.99240027 -296.90815564 235.55157358 -291.2890625 231.1640625 C-286.81563292 227.66223753 -282.40132798 224.09188836 -278 220.5 C-272.47660315 215.99240027 -266.90815564 211.55157358 -261.2890625 207.1640625 C-256.81563292 203.66223753 -252.40132798 200.09188836 -248 196.5 C-242.47660315 191.99240027 -236.90815564 187.55157358 -231.2890625 183.1640625 C-226.81563025 179.66223545 -222.40142446 176.09177321 -218 172.5 C-210.17655867 166.11846002 -202.24927935 159.87800891 -194.29101562 153.66601562 C-186.78216508 147.80106395 -179.34337472 141.86044974 -171.96142578 135.83642578 C-167.11467162 131.88769507 -162.2164174 128.0114492 -157.2890625 124.1640625 C-152.81563292 120.66223753 -148.40132798 117.09188836 -144 113.5 C-138.47660315 108.99240027 -132.90815564 104.55157358 -127.2890625 100.1640625 C-122.81563292 96.66223753 -118.40132798 93.09188836 -114 89.5 C-108.47660315 84.99240027 -102.90815564 80.55157358 -97.2890625 76.1640625 C-92.81563292 72.66223753 -88.40132798 69.09188836 -84 65.5 C-78.47740765 60.99305682 -72.91031228 56.55215545 -67.29125977 52.16625977 C-62.79336154 48.64624854 -58.36014298 45.05143112 -53.9375 41.4375 C-48.14696553 36.70782681 -42.27788215 32.11420095 -36.328125 27.5859375 C-33.24843531 25.2179408 -30.25316408 22.75529335 -27.2578125 20.28198242 C-18.48719069 13.0438732 -9.37126906 6.43694843 0 0 Z " fill="#000000" transform="translate(1067,501)"/>
<path d="M0 0 C0.74636719 0.36609375 1.49273438 0.7321875 2.26171875 1.109375 C15.2933429 8.27787453 26.76021831 18.92589314 38.23413086 28.31030273 C42.50952332 31.80495744 46.83012815 35.23330614 51.1875 38.625 C56.27160034 42.58685028 61.21361992 46.6850269 66.10839844 50.87768555 C69.9720616 54.17161617 73.92583305 57.32617242 77.9375 60.4375 C83.44203256 64.71002924 88.7567523 69.16335105 94.02441406 73.72363281 C98.13306356 77.27549186 102.31774192 80.70880243 106.578125 84.078125 C111.09661741 87.66376736 115.54068708 91.34123694 120 95 C121.83310162 96.50028317 123.66643427 98.00028408 125.5 99.5 C224.5 180.5 224.5 180.5 227.2734375 182.76953125 C229.02817784 184.20499935 230.78335155 185.63993796 232.5390625 187.07421875 C238.9483885 192.31205163 245.33943196 197.57177219 251.72753906 202.83544922 C257.47455062 207.56986763 263.23355779 212.28926029 269 217 C270.83345036 218.49985696 272.66678171 219.9998594 274.5 221.5 C275.4075 222.2425 276.315 222.985 277.25 223.75 C285.5 230.5 285.5 230.5 288.2578125 232.7578125 C290.06324411 234.2340486 291.87049141 235.70806736 293.6796875 237.1796875 C299.67135774 242.05985949 305.58872238 247.01775276 311.46875 252.03125 C316.2720598 256.0694308 321.14322898 260.02627826 326 264 C326.33 204.93 326.66 145.86 327 85 C441.84 85 556.68 85 675 85 C675.74605039 89.47630236 676.1238708 93.13509083 676.12025452 97.5978508 C676.12162887 98.91716905 676.12300322 100.23648731 676.12441921 101.5957849 C676.12087528 103.05366395 676.11724074 104.51154277 676.11352539 105.96942139 C676.11324529 107.52385972 676.11340853 109.07829819 676.11397648 110.63273644 C676.11427207 114.90418026 676.10833575 119.17559628 676.10140657 123.44703364 C676.09503108 128.05763896 676.09446297 132.66824532 676.0932312 137.27885437 C676.09034111 145.28187249 676.08389349 153.28488141 676.07516479 161.2878952 C676.06256515 172.93075803 676.05652181 184.57361748 676.05223143 196.21648601 C676.04515416 215.20145558 676.03435689 234.18642093 676.02050781 253.17138672 C676.01968 254.30804914 676.01885219 255.44471156 676.01799929 256.61581829 C676.01044443 266.94293244 676.0026478 277.27004641 675.99479675 287.59716034 C675.98962995 294.40022273 675.98452733 301.20328517 675.97949219 308.00634766 C675.97866406 309.12342199 675.97783593 310.24049633 675.97698271 311.39142141 C675.96314095 330.23375555 675.95346191 349.07608977 675.94658184 367.91842771 C675.94256019 378.4570854 675.93642564 388.99573338 675.92483521 399.53438568 C675.85666149 455.66198593 675.85666149 455.66198593 676.26773262 511.78767824 C676.30101472 514.63388914 676.32824037 517.48004584 676.34971428 520.32636976 C676.3795037 524.17752329 676.43335477 528.02811668 676.49047852 531.87896729 C676.49667521 532.98719172 676.50287189 534.09541615 676.50925636 535.23722315 C676.69529951 545.03045108 678.61908117 553.53229216 685.6953125 560.72265625 C691.0765651 565.70491864 696.95403357 570.0055142 702.84155273 574.35913086 C708.41339537 578.50046191 713.71966277 582.8841592 718.98046875 587.41015625 C723.58416438 591.35873348 728.29392235 595.17459185 733 599 C738.82281311 603.73316387 744.60464273 608.50423795 750.3125 613.375 C754.77083471 617.17588443 759.30908815 620.84601243 763.9375 624.4375 C769.35347401 628.64083044 774.57379217 633.02507446 779.74975586 637.51928711 C783.74347762 640.96929672 787.82799554 644.26855904 792 647.5 C797.39752429 651.68067172 802.5955501 656.04390399 807.75 660.51953125 C811.74367126 663.96942138 815.82808671 667.26862966 820 670.5 C825.39752429 674.68067172 830.5955501 679.04390399 835.75 683.51953125 C839.74367126 686.96942138 843.82808671 690.26862966 848 693.5 C852.78501551 697.20625085 857.42987857 701.03183121 862 705 C867.15117439 709.47193028 872.42206377 713.73867195 877.81152344 717.91918945 C882.43933212 721.52256603 886.92305426 725.27316067 891.38256836 729.08178711 C895.37941036 732.49094825 899.44726683 735.7941059 903.5625 739.05859375 C907.03091355 741.82109621 910.45430343 744.63745282 913.8828125 747.44921875 C917.57910611 750.47775571 921.29001074 753.48826958 925 756.5 C932.2000347 762.34618202 939.38142644 768.21474705 946.5546875 774.09375 C951.33327006 778.00736658 956.11885273 781.91214512 960.91381836 785.80566406 C962.30705751 786.9372123 963.69979691 788.06937613 965.09204102 789.20214844 C968.04494969 791.60430091 971.00104936 794.00083728 973.9765625 796.375 C985.43902702 805.57202168 996.12151988 815.23687751 1005 827 C1005.99386719 828.27037109 1005.99386719 828.27037109 1007.0078125 829.56640625 C1016.15987036 841.60764316 1022.93242025 854.79212303 1028 869 C1028.37898438 870.05445313 1028.75796875 871.10890625 1029.1484375 872.1953125 C1040.70098894 906.85296682 1037.18723434 946.51551381 1021.25 979.125 C1004.41328997 1012.12802096 976.04739804 1037.74566502 941 1050 C940.35224609 1050.22816406 939.70449219 1050.45632813 939.03710938 1050.69140625 C903.15521325 1063.01590443 861.21576642 1060.75537448 827.05078125 1044.1171875 C813.67430977 1037.34750055 802.39196483 1028.00882033 790.86572266 1018.53369141 C788.31088921 1016.43352605 785.74879655 1014.34227515 783.1875 1012.25 C781.89005859 1011.18652344 781.89005859 1011.18652344 780.56640625 1010.1015625 C778.82654795 1008.67683835 777.08427984 1007.25505291 775.33984375 1005.8359375 C769.78588856 1001.31286032 764.29441987 996.72419886 758.83642578 992.08642578 C755.41979268 989.18780161 751.97513003 986.32859421 748.5 983.5 C743.8954642 979.75212202 739.35980809 975.93016556 734.8359375 972.0859375 C730.53986956 968.44140593 726.18631659 964.8721266 721.81640625 961.31640625 C718.66214553 958.72212524 715.54806173 956.08383258 712.4375 953.4375 C707.96283596 949.63429557 703.43330651 945.91933117 698.83203125 942.26953125 C692.92323508 937.53434425 687.10348468 932.68903434 681.26416016 927.86865234 C677.55310063 924.80584777 673.83918656 921.74651121 670.125 918.6875 C669.4131958 918.10121826 668.7013916 917.51493652 667.96801758 916.91088867 C662.32184886 912.26183875 656.66455362 907.62663851 651 903 C643.74280613 897.07254041 636.50403121 891.12322519 629.27246094 885.16455078 C623.52544938 880.43013237 617.76644221 875.71073971 612 871 C610.16654964 869.50014304 608.33321829 868.0001406 606.5 866.5 C605.5925 865.7575 604.685 865.015 603.75 864.25 C595.5 857.5 595.5 857.5 592.7265625 855.23046875 C590.97182216 853.79500065 589.21664845 852.36006204 587.4609375 850.92578125 C581.0516115 845.68794837 574.66056804 840.42822781 568.27246094 835.16455078 C562.52544938 830.43013237 556.76644221 825.71073971 551 821 C549.16654964 819.50014304 547.33321829 818.0001406 545.5 816.5 C544.5925 815.7575 543.685 815.015 542.75 814.25 C523.5 798.5 523.5 798.5 520.7265625 796.23046875 C518.97182216 794.79500065 517.21664845 793.36006204 515.4609375 791.92578125 C509.0516115 786.68794837 502.66056804 781.42822781 496.27246094 776.16455078 C490.52544938 771.43013237 484.76644221 766.71073971 479 762 C477.16654964 760.50014304 475.33321829 759.0001406 473.5 757.5 C472.5925 756.7575 471.685 756.015 470.75 755.25 C462.5 748.5 462.5 748.5 459.7265625 746.23046875 C457.97182216 744.79500065 456.21664845 743.36006204 454.4609375 741.92578125 C448.0516115 736.68794837 441.66056804 731.42822781 435.27246094 726.16455078 C429.5254518 721.43013437 423.76687287 716.71020983 418 712 C410.73837619 706.06892217 403.49506694 700.11611367 396.25927734 694.15356445 C392.34508068 690.92885454 388.42723253 687.70883634 384.5 684.5 C376.22970288 677.74134329 367.99451918 670.93987962 359.75195312 664.14746094 C349.63724034 655.81001605 349.63724034 655.81001605 339.5 647.5 C332.72455878 641.96297024 325.97452324 636.39510975 319.22167969 630.83056641 C315.6483795 627.88632412 312.07415572 624.9432036 308.5 622 C307.08332863 620.83333904 305.66666197 619.66667237 304.25 618.5 C303.54875 617.9225 302.8475 617.345 302.125 616.75 C176.75000003 513.50000002 176.75000003 513.50000002 174.62353516 511.7487793 C173.21177011 510.5861588 171.79998636 509.42356102 170.38818359 508.26098633 C166.77136578 505.28260241 163.15490818 502.30378282 159.5390625 499.32421875 C150.52945437 491.90002692 150.52945437 491.90002692 141.5 484.5 C133.22970288 477.74134329 124.99451918 470.93987962 116.75195312 464.14746094 C108.17973347 457.08380221 99.60210262 450.02725614 91 443 C89.16654964 441.50014304 87.33321829 440.0001406 85.5 438.5 C84.58605469 437.75234375 83.67210937 437.0046875 82.73046875 436.234375 C80.96177205 434.78702949 79.19351457 433.33914699 77.42578125 431.890625 C71.26457561 426.84377793 65.08654545 421.81796843 58.90356445 416.79785156 C55.09634929 413.70587121 51.29393199 410.60828163 47.5 407.5 C40.35145724 401.64439247 33.17393174 395.82444621 26 390 C10.62437692 377.51667945 10.62437692 377.51667945 4.5 372.5 C3.22962891 371.46552734 3.22962891 371.46552734 1.93359375 370.41015625 C-0.42171621 368.47510133 -2.75825744 366.52195059 -5.08984375 364.55859375 C-6.53895559 363.35143415 -7.98817415 362.14440264 -9.4375 360.9375 C-10.46810547 360.05964844 -10.46810547 360.05964844 -11.51953125 359.1640625 C-12.17179687 358.62394531 -12.8240625 358.08382813 -13.49609375 357.52734375 C-14.07544678 357.03999756 -14.6547998 356.55265137 -15.25170898 356.05053711 C-17.23149576 354.65662738 -17.23149576 354.65662738 -21 355 C-23.29105272 356.43512912 -23.29105272 356.43512912 -25.5625 358.4375 C-26.44164062 359.1696875 -27.32078125 359.901875 -28.2265625 360.65625 C-29.14179687 361.4296875 -30.05703125 362.203125 -31 363 C-32.81041251 364.4817209 -34.62292328 365.9608817 -36.4375 367.4375 C-38.2917949 368.95817699 -40.14596337 370.47900814 -42 372 C-43.70822358 373.39596765 -45.41655857 374.79179898 -47.125 376.1875 C-51.92537595 380.11445511 -56.71356475 384.05606968 -61.5 388 C-67.98905001 393.34685204 -74.48844833 398.68056318 -81 404 C-82.83345036 405.49985696 -84.66678171 406.9998594 -86.5 408.5 C-89.1789992 410.69225146 -91.85824208 412.88419468 -94.5390625 415.07421875 C-100.2034079 419.70323818 -105.85440553 424.34813906 -111.5 429 C-117.98905001 434.34685204 -124.48844833 439.68056318 -131 445 C-132.83345036 446.49985696 -134.66678171 447.9998594 -136.5 449.5 C-139.1789992 451.69225146 -141.85824208 453.88419468 -144.5390625 456.07421875 C-150.2034079 460.70323818 -155.85440553 465.34813906 -161.5 470 C-167.98905001 475.34685204 -174.48844833 480.68056318 -181 486 C-182.83345036 487.49985696 -184.66678171 488.9998594 -186.5 490.5 C-189.1789992 492.69225146 -191.85824208 494.88419468 -194.5390625 497.07421875 C-200.2034079 501.70323818 -205.85440553 506.34813906 -211.5 511 C-218.824645 517.03536619 -226.165032 523.05094229 -233.515625 529.0546875 C-239.187442 533.69063373 -244.84655708 538.34167208 -250.5 543 C-257.824645 549.03536619 -265.165032 555.05094229 -272.515625 561.0546875 C-278.187442 565.69063373 -283.84655708 570.34167208 -289.5 575 C-296.824645 581.03536619 -304.165032 587.05094229 -311.515625 593.0546875 C-320.02933497 600.01349835 -328.51423172 607.00716663 -337 614 C-345.35237745 620.88291053 -353.70546251 627.76458492 -362.0859375 634.61328125 C-367.99411667 639.4522859 -373.88460244 644.31283528 -379.77832031 649.16943359 C-382.64816395 651.53405861 -385.51860088 653.89796257 -388.38916016 656.26171875 C-389.79780158 657.42173806 -391.20633002 658.5818946 -392.61474609 659.7421875 C-396.2044898 662.69932261 -399.79596696 665.65430872 -403.390625 668.60546875 C-409.9421619 673.987271 -416.47950768 679.38108818 -422.9375 684.875 C-427.28635274 688.5741605 -431.69500943 692.18245094 -436.16796875 695.73046875 C-442.08569379 700.47281116 -447.91408867 705.32561957 -453.76220703 710.15332031 C-457.33911795 713.1050718 -460.91968331 716.05238133 -464.5 719 C-465.91668547 720.16664383 -467.33335211 721.33331053 -468.75 722.5 C-490 740 -490 740 -511.25 757.5 C-512.3026001 758.36685425 -512.3026001 758.36685425 -513.37646484 759.2512207 C-514.78822989 760.4138412 -516.20001364 761.57643898 -517.61181641 762.73901367 C-521.22863422 765.71739759 -524.84509182 768.69621718 -528.4609375 771.67578125 C-535.31896144 777.32640661 -542.18132148 782.97132365 -549.0625 788.59375 C-552.88111153 791.72176157 -556.69053284 794.86086292 -560.5 798 C-567.82462283 804.03539294 -575.16503215 810.05094241 -582.515625 816.0546875 C-588.187442 820.69063373 -593.84655708 825.34167208 -599.5 830 C-606.824645 836.03536619 -614.165032 842.05094229 -621.515625 848.0546875 C-627.187442 852.69063373 -632.84655708 857.34167208 -638.5 862 C-644.98905001 867.34685204 -651.48844833 872.68056318 -658 878 C-659.83345036 879.49985696 -661.66678171 880.9998594 -663.5 882.5 C-666.1789992 884.69225146 -668.85824208 886.88419468 -671.5390625 889.07421875 C-677.2034079 893.70323818 -682.85440553 898.34813906 -688.5 903 C-694.98905001 908.34685204 -701.48844833 913.68056318 -708 919 C-709.83345036 920.49985696 -711.66678171 921.9998594 -713.5 923.5 C-716.1789992 925.69225146 -718.85824208 927.88419468 -721.5390625 930.07421875 C-727.2034079 934.70323818 -732.85440553 939.34813906 -738.5 944 C-745.824645 950.03536619 -753.165032 956.05094229 -760.515625 962.0546875 C-763.34546628 964.36770148 -766.17356545 966.68282541 -769 969 C-769.95616211 969.78383057 -769.95616211 969.78383057 -770.93164062 970.58349609 C-778.82381497 977.05737201 -786.69222462 983.55439345 -794.46826172 990.16748047 C-798.66685675 993.73332021 -802.92587998 997.21974609 -807.19921875 1000.6953125 C-809.71688521 1002.76703246 -812.20443563 1004.86786717 -814.68383789 1006.98486328 C-821.43170062 1012.74446909 -828.31741466 1018.29657946 -835.34179688 1023.71533203 C-836.88732864 1024.91270955 -838.4207373 1026.12569001 -839.953125 1027.33984375 C-866.4378462 1047.92701091 -900.0631962 1061.03188507 -934 1059 C-934.68723145 1058.95891113 -935.37446289 1058.91782227 -936.08251953 1058.87548828 C-973.07392074 1056.44664235 -1006.01832161 1042.42231694 -1033 1017 C-1033.60199219 1016.45085938 -1034.20398437 1015.90171875 -1034.82421875 1015.3359375 C-1059.83273879 991.66820058 -1072.86000517 955.26278007 -1074.28515625 921.4765625 C-1075.31482486 879.75659687 -1059.5280655 842.72388626 -1031.3515625 812.41015625 C-1028.06818648 809.04496853 -1024.60665877 806.01061736 -1021 803 C-1019.92433721 802.07589697 -1018.8502555 801.14995191 -1017.77734375 800.22265625 C-1011.59729192 794.8850669 -1005.37166991 789.61567911 -999.03125 784.46875 C-996.6895377 782.56158225 -994.35740313 780.64475202 -992.03125 778.71875 C-984.76795728 772.70749248 -977.47014239 766.76176998 -970.02807617 760.97314453 C-965.5480282 757.4717197 -961.21176459 753.82230903 -956.89355469 750.12426758 C-953.00695517 746.81147705 -949.03227182 743.63330454 -945 740.5 C-939.76175352 736.42895569 -934.66219038 732.2265902 -929.61767578 727.91845703 C-925.61940577 724.50798782 -921.54967247 721.20402007 -917.43359375 717.9375 C-909.28824382 711.45259861 -901.29441521 704.77469411 -893.25952148 698.15380859 C-889.34527392 694.92898012 -885.42732129 691.70890886 -881.5 688.5 C-873.98156039 682.35577669 -866.49323 676.1749163 -859 670 C-850.64762255 663.11708947 -842.29453749 656.23541508 -833.9140625 649.38671875 C-827.26354084 643.93970972 -820.63412471 638.46695681 -814 633 C-805.64762255 626.11708947 -797.29453749 619.23541508 -788.9140625 612.38671875 C-782.26354084 606.93970972 -775.63412471 601.46695681 -769 596 C-760.64762255 589.11708947 -752.29453749 582.23541508 -743.9140625 575.38671875 C-737.26354084 569.93970972 -730.63412471 564.46695681 -724 559 C-715.64762255 552.11708947 -707.29453749 545.23541508 -698.9140625 538.38671875 C-692.26354084 532.93970972 -685.63412471 527.46695681 -679 522 C-670.64762255 515.11708947 -662.29453749 508.23541508 -653.9140625 501.38671875 C-647.26354084 495.93970972 -640.63412471 490.46695681 -634 485 C-625.65547241 478.12355828 -617.31070452 471.24777077 -608.9375 464.40625 C-605.11888852 461.27823847 -601.30945577 458.13915083 -597.5 455 C-591.98798441 450.45786868 -586.4683902 445.92539199 -580.9375 441.40625 C-577.11888852 438.27823847 -573.30945577 435.13915083 -569.5 432 C-563.98798441 427.45786868 -558.4683902 422.92539199 -552.9375 418.40625 C-549.11888847 415.27823843 -545.30946716 412.13913708 -541.5 409 C-534.17537717 402.96460706 -526.83496785 396.94905759 -519.484375 390.9453125 C-513.812558 386.30936627 -508.15344292 381.65832792 -502.5 377 C-496.01094999 371.65314796 -489.51155167 366.31943682 -483 361 C-481.16654964 359.50014304 -479.33321829 358.0001406 -477.5 356.5 C-474.8210008 354.30774854 -472.14175792 352.11580532 -469.4609375 349.92578125 C-463.7965921 345.29676182 -458.14559447 340.65186094 -452.5 336 C-446.01094999 330.65314796 -439.51155167 325.31943682 -433 320 C-431.16654964 318.50014304 -429.33321829 317.0001406 -427.5 315.5 C-383.5 279.5 -339.5 243.5 -295.5 207.5 C-294.58476563 206.75105469 -293.66953125 206.00210938 -292.7265625 205.23046875 C-290.97182216 203.79500065 -289.21664845 202.36006204 -287.4609375 200.92578125 C-281.7965921 196.29676182 -276.14559447 191.65186094 -270.5 187 C-264.01094999 181.65314796 -257.51155167 176.31943682 -251 171 C-249.16654964 169.50014304 -247.33321829 168.0001406 -245.5 166.5 C-219.83333333 145.5 -194.16666667 124.5 -168.5 103.5 C-167.58476563 102.75105469 -166.66953125 102.00210938 -165.7265625 101.23046875 C-163.97182216 99.79500065 -162.21664845 98.36006204 -160.4609375 96.92578125 C-154.7965921 92.29676182 -149.14559447 87.65186094 -143.5 83 C-137.01094999 77.65314796 -130.51155167 72.31943682 -124 67 C-122.16654964 65.50014304 -120.33321829 64.0001406 -118.5 62.5 C-115.8210008 60.30774854 -113.14175792 58.11580532 -110.4609375 55.92578125 C-104.7965921 51.29676182 -99.14559447 46.65186094 -93.5 42 C-87.85079961 37.34516785 -82.19719673 32.69607568 -76.52734375 28.06640625 C-74.80840164 26.66096518 -73.09235805 25.25197318 -71.37890625 23.83984375 C-68.59483846 21.54874588 -65.79947063 19.27224937 -63 17 C-62.4544043 16.55333984 -61.90880859 16.10667969 -61.34667969 15.64648438 C-43.43160322 1.01904193 -23.12909061 -11.50990966 0 0 Z " fill="#000000" transform="translate(1085,90)"/>
</svg>
