<?xml version="1.0" encoding="UTF-8"?>
<svg version="1.1" xmlns="http://www.w3.org/2000/svg" width="2134" height="2134">
<path d="M0 0 C1.61247338 -0.00350679 3.22494327 -0.00917164 4.83740234 -0.01681519 C9.19081411 -0.03099163 13.5435888 -0.01407295 17.89693952 0.00946999 C22.466441 0.0296682 27.03591832 0.02369484 31.60545349 0.0213623 C39.2759748 0.02141577 46.94624894 0.04111274 54.61669922 0.07324219 C63.46910652 0.11014364 72.32119045 0.11891479 81.17366463 0.11194468 C89.71133487 0.10562738 98.24889491 0.11641581 106.78654289 0.13591003 C110.41032425 0.14405812 114.03404908 0.14679838 117.65783882 0.1452179 C121.92862439 0.14433534 126.19910534 0.15865433 130.46981049 0.18444443 C132.03181671 0.19157195 133.59385542 0.19370641 135.15587425 0.19032669 C145.73018556 0.17181993 155.28946682 0.28806843 163.36108398 7.89257812 C170.21463019 15.76344759 170.82507971 26.69168382 172.16577148 36.63085938 C172.41539999 38.42408805 172.66576557 40.21721423 172.91674805 42.01025391 C173.0492395 42.95982971 173.18173096 43.90940552 173.3182373 44.88775635 C176.39236413 66.79326747 179.96327602 88.60108616 183.70908356 110.39982605 C184.10856901 112.72559245 184.50686178 115.05156068 184.90496826 117.37756348 C185.54156682 121.09356391 186.18205405 124.80887457 186.82573318 128.52365494 C187.06285734 129.89325518 187.29921877 131.26298776 187.53470993 132.63286972 C188.720426 139.5190438 189.97363226 146.39021087 191.35620117 153.23974609 C191.57862488 154.34583221 191.80104858 155.45191833 192.0302124 156.59152222 C194.10358192 164.1369393 199.31744654 170.42963214 205.86108398 174.61523438 C214.10180226 178.27021281 222.75956328 180.94337955 231.32861328 183.70996094 C258.26800804 192.40973357 283.836039 203.31942092 309.19702148 215.85351562 C314.43102569 218.43806806 319.68143012 220.98389135 324.96264648 223.47070312 C326.1442334 224.02781982 327.32582031 224.58493652 328.54321289 225.15893555 C334.35285932 227.70893856 339.32743914 229.00533346 345.67358398 228.99023438 C346.73198486 228.98781738 346.73198486 228.98781738 347.81176758 228.98535156 C353.66323493 228.84811319 357.93257643 227.68352433 362.86108398 224.61523438 C363.83045898 224.05835938 364.79983398 223.50148438 365.79858398 222.92773438 C368.37268817 220.98402305 370.63249843 218.99612824 372.98608398 216.80273438 C380.30181136 210.10306825 388.38489838 204.38735991 396.34643555 198.48779297 C400.02237498 195.7504672 403.66298072 192.96829377 407.29858398 190.17773438 C407.97880615 189.65655029 408.65902832 189.13536621 409.35986328 188.59838867 C410.77466003 187.51437493 412.18928864 186.43014172 413.60375977 185.34570312 C425.4082115 176.29638949 437.23113286 167.28359567 449.23706055 158.50244141 C453.88492471 155.09683174 458.45489819 151.61145851 462.98608398 148.05273438 C471.92077961 141.13261343 479.35768169 136.61237366 490.86108398 137.61523438 C502.43514073 140.83025014 511.74578696 152.19817645 519.98754883 160.53588867 C521.61800167 162.18473008 523.25644778 163.82529539 524.89624023 165.46484375 C525.96312061 166.53663763 527.02954302 167.60888762 528.09545898 168.68164062 C528.57166687 169.15896133 529.04787476 169.63628204 529.53851318 170.12806702 C532.15949805 172.78505192 534.65462657 175.51302521 537.08647156 178.34458923 C540.62502116 182.39998734 544.34528375 186.2215682 548.16992188 190.00585938 C548.86356339 190.69643433 549.5572049 191.38700928 550.27186584 192.09851074 C551.76411833 193.58366159 553.25749821 195.06768037 554.75190926 196.55065918 C557.12184988 198.903062 559.48810327 201.25911755 561.8533783 203.61621094 C568.57407737 210.31258294 575.30043297 217.00325157 582.03125 223.68945312 C586.16088156 227.79221937 590.28556076 231.89991153 594.40728569 236.01062012 C595.97179109 237.56894396 597.53818799 239.12537131 599.10655403 240.67980957 C601.30288862 242.85680422 603.49287864 245.04000493 605.68164062 247.22460938 C606.32232483 247.85653198 606.96300903 248.48845459 607.62310791 249.13952637 C617.26853392 258.80578066 622.1676904 266.36170248 622.25952148 280.21289062 C621.53581671 286.39276182 618.3183208 290.57545113 614.54858398 295.36523438 C614.12125977 295.91179687 613.69393555 296.45835937 613.25366211 297.02148438 C612.30892601 298.22946378 611.36204434 299.43576741 610.41333008 300.640625 C608.15269932 303.51636919 605.90956125 306.40562156 603.66503906 309.29394531 C602.4559204 310.84981217 601.24611475 312.40514537 600.03564453 313.95996094 C595.82447219 319.36918353 591.6393293 324.79742359 587.46655273 330.23632812 C585.54292727 332.7374162 583.60520434 335.22709098 581.66186523 337.71289062 C574.74405909 346.56442197 567.92468369 355.47981558 561.20410156 364.48217773 C557.63014902 369.26732133 554.02221566 374.02155337 550.36108398 378.74023438 C537.79435053 394.96053029 537.79435053 394.96053029 533.54858398 414.61523438 C533.49250977 416.13117188 533.49250977 416.13117188 533.43530273 417.67773438 C534.57564387 428.22327445 539.04891652 437.64589236 543.77310181 447.01327515 C545.46663831 450.3801148 547.11878877 453.76714879 548.77124023 457.15429688 C549.11195053 457.85219833 549.45266083 458.55009979 549.80369568 459.26914978 C561.32216266 482.97037782 570.95265831 507.2576667 579.04077148 532.34179688 C579.39091309 533.42009766 579.74105469 534.49839844 580.10180664 535.609375 C580.74729763 537.6117399 581.3809654 539.61797954 581.99926758 541.62890625 C584.64447784 549.90162837 588.13521469 558.63966782 595.67358398 563.55273438 C596.4431543 564.07738281 597.21272461 564.60203125 598.00561523 565.14257812 C607.23671406 569.90335002 617.40807303 571.07513238 627.54858398 572.67773438 C628.4363855 572.82052826 629.32418701 572.96332214 630.2388916 573.11044312 C655.97088817 577.24588232 681.79038927 580.83331021 707.59545898 584.47851562 C708.59803584 584.6202911 708.59803584 584.6202911 709.62086678 584.76493073 C711.55207669 585.03775844 713.48343452 585.30953848 715.41479492 585.58129883 C716.63678589 585.75351959 717.85877686 585.92574036 719.11779785 586.10317993 C721.73385744 586.46103794 724.34865075 586.80517343 726.96862793 587.13095093 C727.64418858 587.21635478 728.31974922 587.30175863 729.0157814 587.38975048 C730.88606814 587.62475136 732.75712999 587.85355958 734.62823486 588.08195496 C742.13562487 589.3203476 748.89305668 592.76973731 753.86108398 598.61523438 C757.93547314 605.51321237 758.98315445 612.30657939 758.99479675 620.25430298 C758.99819509 621.21709453 758.99819509 621.21709453 759.00166208 622.19933641 C759.00795923 624.33619734 759.00717547 626.47299414 759.00634766 628.60986328 C759.00934192 630.14790936 759.01274507 631.68595468 759.01652527 633.22399902 C759.0253447 637.39374199 759.02770259 641.56346442 759.02834105 645.73321581 C759.02905301 648.34281024 759.03119015 650.9523995 759.03383827 653.56199265 C759.04308665 662.67918986 759.04717401 671.79637247 759.04638672 680.91357422 C759.04578687 689.38973887 759.05632177 697.86583969 759.07213038 706.34198821 C759.085245 713.63565767 759.09056894 720.92930638 759.08993131 728.22298753 C759.08967737 732.57165101 759.0924707 736.9202578 759.10310936 741.26890945 C759.1128559 745.36473311 759.11282502 749.46044667 759.10559273 753.55627441 C759.10455481 755.05091896 759.10686207 756.5455706 759.11295319 758.04020309 C759.21020127 783.57838613 759.21020127 783.57838613 751.86108398 791.61523438 C746.12611648 796.38069291 740.31241513 797.65321306 733.06811523 798.59179688 C730.82803804 798.91630263 728.58796677 799.24084926 726.34790039 799.56542969 C724.54074554 799.8168573 724.54074554 799.8168573 722.69708252 800.07336426 C718.67982437 800.64083896 714.66935735 801.24370385 710.65942383 801.86035156 C709.95333921 801.96887609 709.2472546 802.07740061 708.51977348 802.18921375 C707.06452706 802.41298537 705.60929332 802.63683949 704.15407181 802.86077309 C700.3980149 803.43701927 696.64073587 804.00517811 692.88354492 804.57397461 C660.06185055 809.52093895 660.06185055 809.52093895 627.27676392 814.70220947 C625.86404653 814.93086405 624.45079338 815.15623965 623.03695679 815.37786865 C606.90874597 817.86464343 606.90874597 817.86464343 592.86108398 825.61523438 C592.3003418 826.07671875 591.73959961 826.53820313 591.16186523 827.01367188 C584.98068638 832.94009499 583.1625523 840.74591281 580.75805664 848.68408203 C571.5551851 878.75748314 559.52079847 907.40314522 546.40405273 935.95117188 C546.11328857 936.58435333 545.82252441 937.21753479 545.52294922 937.86990356 C544.01301743 941.14793739 542.48389147 944.4155246 540.92822266 947.67211914 C540.61198441 948.33792999 540.29574615 949.00374084 539.96992493 949.68972778 C539.09797373 951.52235318 538.21973754 953.35198447 537.34106445 955.18139648 C533.10310062 965.01428354 531.74033811 974.31272435 534.86108398 984.61523438 C538.38928614 992.31619339 543.1406178 998.99016705 548.36108398 1005.61523438 C549.78559626 1007.45274172 551.20874653 1009.29130566 552.63061523 1011.13085938 C553.69530029 1012.50467773 553.69530029 1012.50467773 554.78149414 1013.90625 C557.93408096 1018.01297733 560.99385507 1022.185488 564.04858398 1026.36523438 C570.53061757 1035.21054763 577.16841495 1043.92867549 583.86108398 1052.61523438 C584.75579762 1053.7791567 585.65033793 1054.94321228 586.54467773 1056.10742188 C589.78453335 1060.32347581 593.02776158 1064.53689633 596.27905273 1068.74414062 C598.36041337 1071.43783698 600.43077176 1074.13979481 602.4987793 1076.84375 C603.97201208 1078.75948066 605.4598053 1080.66346871 606.94702148 1082.56835938 C622.58297609 1102.75737683 622.58297609 1102.75737683 622.46264648 1114.06835938 C620.51853067 1122.29929125 615.54204033 1127.42740804 609.54858398 1133.11523438 C608.07085946 1134.53976601 606.59557669 1135.96683512 605.12280273 1137.39648438 C604.4727124 1138.01587891 603.82262207 1138.63527344 603.15283203 1139.2734375 C601.2727872 1141.1945401 599.53268539 1143.14367999 597.78642273 1145.18295288 C593.63520248 1149.94003823 589.22395237 1154.40742581 584.76391602 1158.87353516 C583.88002197 1159.7623941 582.99612793 1160.65125305 582.08544922 1161.56704712 C579.68237846 1163.98213441 577.27708321 1166.39495436 574.87023401 1168.80627298 C573.36192785 1170.31752914 571.85420251 1171.8293625 570.34664536 1173.34136581 C565.61559159 1178.08605322 560.88256986 1182.82876419 556.14663422 1187.56857884 C550.70478035 1193.01491662 545.26953761 1198.4677402 539.83992875 1203.92628491 C535.62335784 1208.16453592 531.40097785 1212.39694271 527.17421997 1216.62503421 C524.65808086 1219.14221594 522.14437592 1221.66171334 519.63672256 1224.18735123 C516.83853467 1227.00522145 514.02832513 1229.81091513 511.21704102 1232.61572266 C510.40012787 1233.44185059 509.58321472 1234.26797852 508.74154663 1235.11914062 C495.08229218 1248.68041132 495.08229218 1248.68041132 485.73608398 1248.92773438 C484.82600586 1248.96511719 483.91592773 1249.0025 482.97827148 1249.04101562 C475.49996368 1248.0195425 469.46866984 1243.13032832 463.54858398 1238.74023438 C462.77297119 1238.17216064 461.9973584 1237.60408691 461.19824219 1237.01879883 C459.56565295 1235.82169789 457.93506216 1234.62186712 456.30639648 1233.41943359 C453.94439778 1231.67670492 451.57572227 1229.9434989 449.20483398 1228.21289062 C439.95285863 1221.44543121 430.8060213 1214.54932487 421.7043457 1207.58129883 C415.13581648 1202.56119575 408.49463462 1197.64908067 401.82080078 1192.77026367 C396.35476811 1188.75833401 391.00083123 1184.62157352 385.67358398 1180.42773438 C379.95965524 1175.94968874 374.1871576 1171.58681509 368.23608398 1167.42773438 C367.60935791 1166.98212158 366.98263184 1166.53650879 366.33691406 1166.07739258 C359.7344932 1161.54258354 353.65662701 1159.18644334 345.54858398 1159.17773438 C343.76000977 1159.14873047 343.76000977 1159.14873047 341.93530273 1159.11914062 C331.70473292 1159.89154865 321.83007317 1165.82916577 312.70184326 1170.18356323 C310.43976238 1171.26232464 308.17448743 1172.33412404 305.90844727 1173.40454102 C299.52545361 1176.42355898 293.15212095 1179.45946557 286.81420898 1182.57226562 C268.13946451 1191.72446266 248.80656396 1198.52649593 228.91967773 1204.52172852 C209.32448733 1210.1048951 209.32448733 1210.1048951 195.18530273 1223.97851562 C191.71337733 1230.89164144 190.20767067 1238.22579808 188.98608398 1245.81054688 C188.82036896 1246.80421768 188.65465393 1247.79788849 188.48391724 1248.82167053 C187.93539532 1252.12665677 187.3980965 1255.43336008 186.86108398 1258.74023438 C186.47450877 1261.08444181 186.08761939 1263.42859745 185.70043945 1265.77270508 C183.35834339 1280.0313731 181.12380282 1294.30555117 178.93139648 1308.58789062 C178.68349532 1310.20046031 178.43559087 1311.81302948 178.18768311 1313.42559814 C177.09137245 1320.56329469 175.99953099 1327.70157656 174.92570686 1334.84269428 C174.47591941 1337.82657392 174.02106694 1340.80966839 173.56524277 1343.79263115 C173.35493015 1345.17721686 173.14690514 1346.56215246 172.94144058 1347.9474659 C169.5391093 1370.87463725 169.5391093 1370.87463725 163.79858398 1377.05273438 C163.10635742 1377.83519531 162.41413086 1378.61765625 161.70092773 1379.42382812 C153.02888581 1386.11573393 143.65049277 1386.18976136 133.13696289 1386.11694336 C131.56876644 1386.12073309 130.00057336 1386.1262385 128.43238831 1386.13331604 C124.19869458 1386.14720507 119.96541026 1386.13614626 115.73173952 1386.11960483 C111.28375262 1386.10568147 106.83578774 1386.11222285 102.38778687 1386.11573792 C94.91820742 1386.11843487 87.44878913 1386.10501079 79.97924805 1386.08178711 C71.36888891 1386.05520014 62.75879941 1386.05342603 54.1484133 1386.06517547 C45.83608371 1386.07599291 37.52385074 1386.06973392 29.21152878 1386.05562019 C25.68790756 1386.04989272 22.1643578 1386.04991743 18.64073563 1386.05468559 C14.4823998 1386.05949363 10.32435529 1386.0491971 6.16607475 1386.02773094 C4.64886266 1386.02221387 3.13162227 1386.02165042 1.61440849 1386.02668381 C-22.05442859 1386.09529903 -22.05442859 1386.09529903 -30.53881931 1377.74546146 C-35.56450354 1371.05471042 -36.86583094 1362.04962173 -38.01416016 1353.95336914 C-38.24189369 1352.44833076 -38.24189369 1352.44833076 -38.47422791 1350.91288757 C-38.96838971 1347.62899229 -39.44632696 1344.3429607 -39.92407227 1341.05664062 C-40.26888681 1338.74357851 -40.61472538 1336.43066885 -40.96153259 1334.11790466 C-41.86974187 1328.04278307 -42.76420556 1321.96571625 -43.65570068 1315.88812256 C-44.55660861 1309.76273458 -45.47031489 1303.63925875 -46.38305664 1297.515625 C-47.57174359 1289.53269263 -48.75682909 1281.54925381 -49.93289852 1273.56445217 C-50.38218942 1270.51546404 -50.8331693 1267.46672893 -51.28421021 1264.41799927 C-51.85400579 1260.56259704 -52.41463346 1256.7060127 -52.96896362 1252.84835815 C-53.23057428 1251.0505114 -53.49222001 1249.25266974 -53.75390625 1247.45483398 C-53.86778466 1246.64779054 -53.98166307 1245.84074709 -54.09899235 1245.00924778 C-55.82266431 1233.25477053 -59.96540429 1222.71415277 -69.20141602 1214.86523438 C-77.20494967 1209.13155534 -86.60028313 1206.76183404 -95.91113281 1203.97705078 C-122.75498668 1195.92608563 -148.13686902 1184.87296188 -173.31469727 1172.65820312 C-174.36567345 1172.14850479 -174.36567345 1172.14850479 -175.43788147 1171.62850952 C-178.89906422 1169.94843682 -182.35716493 1168.26247616 -185.81005859 1166.56542969 C-186.77258797 1166.09487907 -186.77258797 1166.09487907 -187.75456238 1165.61482239 C-189.50190307 1164.76060164 -191.24747456 1163.90276461 -192.99291992 1163.04467773 C-202.47268485 1158.73736564 -211.01018447 1157.54659581 -221.09594727 1160.43554688 C-226.71266099 1162.61301484 -231.33537027 1166.04780969 -236.13891602 1169.61523438 C-237.61096007 1170.68768975 -239.0836624 1171.75924196 -240.55688477 1172.83007812 C-245.44058991 1176.39437702 -250.29264307 1180.00027524 -255.13891602 1183.61523438 C-255.82501953 1184.12602539 -256.51112305 1184.63681641 -257.21801758 1185.16308594 C-268.07862402 1193.25307429 -278.84674593 1201.46476293 -289.60961914 1209.68408203 C-291.94656212 1211.46836958 -294.28473891 1213.25102544 -296.62329102 1215.03320312 C-303.16468118 1220.02248819 -309.68690863 1225.03376703 -316.17041016 1230.09814453 C-327.79665525 1239.17482759 -327.79665525 1239.17482759 -333.38891602 1243.36523438 C-334.17782227 1243.95820312 -334.96672852 1244.55117187 -335.77954102 1245.16210938 C-340.51864989 1248.08089828 -345.00044799 1248.92348537 -350.51391602 1248.99023438 C-351.57352539 1249.01859375 -352.63313477 1249.04695313 -353.72485352 1249.07617188 C-362.26339908 1247.92337053 -367.40969104 1242.86206118 -373.13891602 1236.80273438 C-374.46964954 1235.41871953 -375.80297745 1234.0371944 -377.13891602 1232.65820312 C-378.00516602 1231.74590942 -378.00516602 1231.74590942 -378.88891602 1230.81518555 C-380.77225623 1228.9737382 -382.68875191 1227.27033916 -384.68743896 1225.55877686 C-389.5240006 1221.33743275 -394.06730083 1216.84936947 -398.61254883 1212.31860352 C-399.5241275 1211.41359604 -400.43570618 1210.50858856 -401.37490845 1209.57615662 C-404.36745852 1206.6044158 -407.35488465 1203.6275514 -410.34204102 1200.65039062 C-411.37709239 1199.61939357 -412.41217509 1198.58842797 -413.44728851 1197.55749321 C-418.30650936 1192.71726222 -423.16335736 1187.87466575 -428.01727605 1183.02911764 C-433.60015583 1177.45602877 -439.19123841 1171.89134012 -444.78934598 1166.33354861 C-449.13289507 1162.02020212 -453.46869894 1157.699167 -457.79882693 1153.37234777 C-460.37839113 1150.79512641 -462.96110922 1148.2212714 -465.55210114 1145.65553474 C-468.44019086 1142.79515308 -471.31207011 1139.91900256 -474.18286133 1137.04125977 C-475.03488129 1136.20204987 -475.88690125 1135.36283997 -476.76473999 1134.49819946 C-483.61259754 1127.58975812 -487.68402325 1121.34254339 -488.23266602 1111.41210938 C-487.82525404 1099.25765218 -479.78510828 1090.23265229 -472.57641602 1081.11523438 C-471.34013075 1079.53888825 -470.10446863 1077.96205323 -468.86938477 1076.38476562 C-468.24854004 1075.59279785 -467.62769531 1074.80083008 -466.98803711 1073.98486328 C-464.09516906 1070.27768381 -461.24042036 1066.54177051 -458.38891602 1062.80273438 C-457.31471892 1061.39516577 -456.24050063 1059.98761333 -455.16625977 1058.58007812 C-454.65562988 1057.91089355 -454.145 1057.24170898 -453.61889648 1056.55224609 C-451.40272688 1053.65170343 -449.17804952 1050.75774821 -446.95141602 1047.86523438 C-446.54584473 1047.33824951 -446.14027344 1046.81126465 -445.72241211 1046.26831055 C-443.76996175 1043.73201227 -441.81618777 1041.19673943 -439.86157227 1038.66210938 C-437.79423456 1035.97904214 -435.73048821 1033.29328804 -433.66870117 1030.60595703 C-432.55282193 1029.15385372 -431.43504891 1027.70320513 -430.31616211 1026.25341797 C-408.55764241 1000.78939662 -408.55764241 1000.78939662 -400.13891602 969.61523438 C-401.44375102 960.80306465 -405.02288053 953.2287604 -409.14660645 945.43505859 C-423.29454283 918.59766419 -433.69068161 889.98908606 -443.28735352 861.25195312 C-443.55195877 860.46382233 -443.81656403 859.67569153 -444.08918762 858.86367798 C-445.37833011 855.02324169 -446.65440257 851.17956478 -447.90429688 847.32617188 C-451.54132975 836.30404391 -455.59585493 826.53328613 -466.13891602 820.61523438 C-475.73099559 817.04602839 -486.28325438 815.99714517 -496.34594727 814.43554688 C-498.23465722 814.13833257 -500.12330233 813.84070598 -502.0118866 813.54269409 C-505.9760682 812.91856282 -509.94089211 812.29874146 -513.90625 811.68212891 C-518.86517772 810.91078011 -523.82255903 810.13000189 -528.77949715 809.3459816 C-533.6341998 808.57916904 -538.48997608 807.81927861 -543.34594727 807.06054688 C-544.30318821 806.91047432 -545.26042915 806.76040176 -546.2466774 806.60578156 C-556.50712851 805.00273957 -566.76525603 803.49466039 -577.07788086 802.26660156 C-577.94793983 802.16102118 -578.81799879 802.05544079 -579.71442318 801.946661 C-583.78151774 801.45442809 -587.84848582 800.98367908 -591.92304993 800.55764771 C-602.37191923 799.37807698 -612.33563084 797.05526989 -619.76391602 789.05273438 C-623.59630871 784.20998361 -624.38999594 779.65135891 -624.40634155 773.5514679 C-624.41087267 772.85188042 -624.41540378 772.15229295 -624.4200722 771.43150586 C-624.4327061 769.09334837 -624.43109649 766.75542412 -624.42944336 764.41723633 C-624.43542939 762.73816123 -624.4422351 761.05908888 -624.44979858 759.38002014 C-624.46746168 754.82192418 -624.47215419 750.26390333 -624.47343016 745.70577645 C-624.47485253 742.85548578 -624.47912385 740.00521415 -624.48442459 737.15492821 C-624.50292832 727.20361496 -624.51109508 717.25235527 -624.50952148 707.30102539 C-624.5083211 698.03803942 -624.52940225 688.77528685 -624.56100881 679.51235992 C-624.58720409 671.55037415 -624.59788736 663.58846444 -624.59661067 655.62643594 C-624.59610184 650.87534296 -624.6017406 646.12445726 -624.62296677 641.37340736 C-624.64240311 636.90077272 -624.64243692 632.42854187 -624.6279335 627.95589256 C-624.62585074 626.32011192 -624.63051439 624.68430565 -624.64265442 623.04856873 C-624.77607395 603.81612451 -624.77607395 603.81612451 -618.44745445 596.71814442 C-612.84092294 591.39047467 -606.07907195 589.31371049 -598.57250977 588.21289062 C-597.44036041 588.03521149 -597.44036041 588.03521149 -596.28533936 587.85394287 C-594.61091688 587.59268872 -592.93579529 587.33588677 -591.26010132 587.08291626 C-588.50062769 586.66629188 -585.74317283 586.23792515 -582.98583984 585.80737305 C-572.04805284 584.10660498 -561.10236891 582.45740286 -550.15740108 580.80362034 C-543.18702379 579.75010118 -536.21748244 578.6911329 -529.24826908 577.62994289 C-524.00712719 576.83260299 -518.76478352 576.04384672 -513.52137184 575.26157951 C-510.18053967 574.76144484 -506.84080722 574.25422867 -503.50128937 573.74539948 C-501.94467763 573.50971964 -500.38762723 573.2769143 -498.83010101 573.04735565 C-478.08163194 570.38698032 -478.08163194 570.38698032 -460.13891602 560.61523438 C-459.51629883 560.08671875 -458.89368164 559.55820312 -458.25219727 559.01367188 C-454.22317539 555.04582821 -452.17105935 550.65044033 -450.27954102 545.39257812 C-450.0223378 544.69217911 -449.76513458 543.99178009 -449.50013733 543.27015686 C-447.18349957 536.89123617 -445.08400007 530.44562694 -443.00708008 523.9855957 C-432.7071625 491.97181947 -418.95571101 461.86827068 -403.75219727 431.90820312 C-399.2088629 422.63452064 -398.71298127 412.57554304 -401.57641602 402.67773438 C-405.79437621 391.39578548 -414.26300335 382.07334588 -421.6237793 372.7019043 C-425.98400824 367.14334201 -430.21622785 361.50318414 -434.38891602 355.80273438 C-438.97895733 349.53530897 -443.62243797 343.3262671 -448.38110352 337.18554688 C-451.99631786 332.51783647 -455.5639376 327.81377743 -459.13891602 323.11523438 C-463.64937862 317.19055873 -468.16289379 311.26844947 -472.70141602 305.36523438 C-473.46711914 304.36492187 -474.23282227 303.36460937 -475.02172852 302.33398438 C-476.38509274 300.5832436 -477.77411163 298.85203356 -479.19360352 297.14648438 C-485.28046321 289.77153403 -487.82408254 283.01714075 -487.47485352 273.37304688 C-485.7594743 259.29098032 -473.82643598 250.14826429 -464.30810547 240.68676758 C-463.36063509 239.74122282 -462.41339689 238.79544536 -461.46636963 237.84945679 C-459.44793222 235.83414832 -457.42796074 233.82039557 -455.40673256 231.80788612 C-452.20488293 228.6197063 -449.00698315 225.42758347 -445.80961609 222.23490906 C-439.02653174 215.46285901 -432.239197 208.69507638 -425.45141602 201.92773438 C-418.11001092 194.60841074 -410.76937431 187.28832551 -403.43361062 179.96334714 C-400.26046544 176.79515673 -397.08490558 173.62941354 -393.90741503 170.46558154 C-392.40644602 168.97029941 -390.90664469 167.47385763 -389.40734863 165.97689819 C-387.58722085 164.15962063 -385.76531097 162.34412532 -383.94120789 160.53083801 C-379.45465069 156.04467061 -375.22953165 151.46336507 -371.13891602 146.61523438 C-364.30600495 140.84363061 -356.73699337 137.19586159 -347.70141602 137.61523438 C-338.18686273 138.90847463 -331.70014925 143.71926008 -324.64794922 149.90844727 C-319.7658708 154.1723291 -314.65622155 158.06700239 -309.45141602 161.92773438 C-302.9795733 166.73523254 -296.55106816 171.5847654 -290.20141602 176.55273438 C-281.14806975 183.62947674 -272.01025946 190.59191571 -262.8605957 197.54345703 C-260.06657811 199.67029891 -257.27789617 201.80397028 -254.49047852 203.93945312 C-253.56275635 204.64924316 -252.63503418 205.3590332 -251.67919922 206.09033203 C-249.92394858 207.43351586 -248.16978968 208.77812821 -246.41699219 210.12451172 C-229.4163687 223.88637908 -229.4163687 223.88637908 -208.70141602 228.67773438 C-196.79003313 227.0559122 -185.5149166 220.36320736 -174.95141602 214.99023438 C-149.95671016 202.29103589 -123.96471001 191.83475645 -97.35766602 183.02148438 C-96.04584838 182.58307619 -94.73408046 182.14451921 -93.42236328 181.70581055 C-90.93867759 180.87562626 -88.45117265 180.07005066 -85.95507812 179.27661133 C-75.17476516 175.70354608 -65.95964172 170.66935396 -60.13891602 160.61523438 C-56.60575648 152.60754232 -54.83317445 144.30888173 -53.24438477 135.74023438 C-53.11971518 135.08139252 -52.99504559 134.42255066 -52.86659813 133.7437439 C-49.74291535 117.22811813 -47.25557005 100.61318003 -44.8026123 83.98724365 C-44.33180915 80.80739952 -43.8543642 77.62856796 -43.37677193 74.44973755 C-40.65637564 56.52871281 -40.65637564 56.52871281 -38.24584961 38.56445312 C-38.1156694 37.51306152 -37.9854892 36.46166992 -37.85136414 35.37841797 C-37.62453715 33.50353462 -37.40597601 31.62761847 -37.19856262 29.75048828 C-36.02571639 19.92114926 -33.59449804 12.3615534 -26.13891602 5.61523438 C-18.03528019 -0.19914067 -9.565643 -0.08799628 0 0 Z M3.86108398 364.24023438 C2.63687744 364.49893311 1.4126709 364.75763184 0.15136719 365.02416992 C-52.03116214 376.40695115 -105.6570829 398.91041093 -145.13891602 435.61523438 C-146.48726093 436.80934057 -147.84089329 437.99752189 -149.20141602 439.17773438 C-153.89909979 443.26681135 -158.5240894 447.43304775 -163.13891602 451.61523438 C-164.13891258 452.50846738 -165.13891271 453.40169641 -166.13891602 454.29492188 C-179.43042555 466.25872362 -191.46801681 479.26414182 -202.13891602 493.61523438 C-202.54384277 494.1526123 -202.94876953 494.68999023 -203.3659668 495.24365234 C-246.73362272 553.01488036 -268.33989708 623.51594086 -268.38891602 695.36523438 C-268.38959076 696.26297577 -268.3902655 697.16071716 -268.39096069 698.08566284 C-268.29767399 776.70542909 -237.03109145 857.43248614 -183.38891602 915.18164062 C-181.49945551 917.22527586 -179.68549684 919.30327755 -177.88891602 921.42773438 C-170.0511138 930.43841436 -161.35492282 939.02187492 -152.13891602 946.61523438 C-151.60637207 947.06157227 -151.07382812 947.50791016 -150.52514648 947.96777344 C-140.4389543 956.4129047 -130.05260602 964.27055683 -119.13891602 971.61523438 C-118.42461426 972.09814941 -117.7103125 972.58106445 -116.97436523 973.07861328 C-70.13342967 1004.45606844 -15.17498125 1023.19035394 40.92358398 1027.86523438 C41.88522461 1027.94547852 42.84686523 1028.02572266 43.83764648 1028.10839844 C59.77315877 1029.27375053 75.36050758 1028.29721573 91.23608398 1026.86523438 C92.25165375 1026.77497986 93.26722351 1026.68472534 94.31356812 1026.59173584 C133.56312369 1023.07816389 170.1386445 1015.66977502 205.86108398 998.61523438 C207.19574707 997.98077393 207.19574707 997.98077393 208.55737305 997.33349609 C228.47081974 987.80121566 247.10941369 976.74198337 264.86108398 963.61523438 C265.44438477 963.18500977 266.02768555 962.75478516 266.62866211 962.31152344 C340.4543316 907.51970268 386.2978433 825.69982725 400.09936523 735.34179688 C411.7374592 651.49237019 388.11163734 563.07975294 337.4387207 495.72460938 C334.31676583 491.63052915 331.11515516 487.60489566 327.86108398 483.61523438 C327.42473633 483.07979004 326.98838867 482.5443457 326.53881836 481.99267578 C314.73658321 467.5983201 302.03712863 453.70124305 287.86108398 441.61523438 C287.21671387 441.06432129 286.57234375 440.5134082 285.90844727 439.94580078 C275.63133829 431.22325575 265.05642549 423.12234399 253.86108398 415.61523438 C253.14823242 415.13376953 252.43538086 414.65230469 251.70092773 414.15625 C195.99740594 376.83787986 132.87523569 359.4251425 66.33007812 359.42993164 C62.93208371 359.42773986 59.53441227 359.40949018 56.13647461 359.390625 C38.35676587 359.34310339 21.27750573 360.5252493 3.86108398 364.24023438 Z " fill="#1E2A33" transform="translate(963.138916015625,396.384765625)"/>
<path d="M0 0 C9.57263677 -0.23073277 19.12792113 -0.18520559 28.69958496 0.05859375 C29.56313599 0.08050781 30.42668701 0.10242188 31.31640625 0.125 C122.13363601 2.52042214 212.12908167 15.64745153 481.0111084 118.55029297 C483.86980242 120.15408989 486.74062569 121.73452513 489.61364746 123.3125 C523.22686034 141.84135704 555.65722733 162.47673993 586.69958496 185.05859375 C587.45304199 185.60386719 588.20649902 186.14914062 588.98278809 186.7109375 C599.17954565 194.10132353 609.15144935 201.70691373 618.93200684 209.63818359 C621.27059094 211.51744911 623.63911473 213.35665213 626.00891113 215.19628906 C633.17763288 220.76674824 640.09093451 226.59115751 646.94519043 232.54248047 C648.70015237 234.0590841 650.46538606 235.56272367 652.23474121 237.0625 C659.19809322 242.97114861 665.99338427 249.02172525 672.67224121 255.25 C675.37506993 257.7686031 678.12411795 260.2309756 680.88708496 262.68359375 C685.2013978 266.54340037 689.26932579 270.60898454 693.33630371 274.7265625 C695.37830103 276.7415582 697.45616782 278.63498523 699.63708496 280.49609375 C706.89815937 286.72827097 713.55638933 293.62067502 719.75817871 300.8984375 C722.30069743 303.7274372 724.99435319 306.38607487 727.69958496 309.05859375 C731.60506276 312.92157517 735.37089117 316.82597774 738.93395996 321.01171875 C741.09391916 323.51574224 743.33446489 325.93857073 745.57458496 328.37109375 C749.72203754 332.9138406 753.63191191 337.59979337 757.49255371 342.38671875 C759.61581834 344.95718425 761.81770345 347.41778738 764.07458496 349.87109375 C768.59612008 354.83929698 772.71110702 360.06662952 776.82458496 365.37109375 C779.18971129 368.41933558 781.60367288 371.42410111 784.03405762 374.42041016 C791.57452755 383.73452217 798.65454834 393.36702965 805.69958496 403.05859375 C806.56946045 404.2501709 806.56946045 404.2501709 807.45690918 405.46582031 C813.63133961 413.92380168 819.75898334 422.39335224 825.47058105 431.17382812 C826.99398395 433.51007572 828.5289214 435.83862955 830.06286621 438.16796875 C879.94336238 514.07307162 919.05476562 595.25351454 972.69958496 778.05859375 C974.94275839 778.29157664 974.94275839 778.29157664 976.76599121 776.0390625 C977.58970215 775.11738281 978.41341309 774.19570313 979.26208496 773.24609375 C979.70753662 772.74907959 980.15298828 772.25206543 980.61193848 771.73999023 C984.32775594 767.56027217 987.84124056 763.22775797 991.35192871 758.875 C994.32035973 755.3138706 997.45607945 751.93216218 1000.61340332 748.53930664 C1003.60385496 745.306654 1006.43737503 741.99162609 1009.19958496 738.55859375 C1012.83457886 734.04081562 1016.66668786 729.78040859 1020.61364746 725.5390625 C1023.60399854 722.30647628 1026.43744825 718.99153509 1029.19958496 715.55859375 C1032.83457886 711.04081562 1036.66668786 706.78040859 1040.61364746 702.5390625 C1043.60399854 699.30647628 1046.43744825 695.99153509 1049.19958496 692.55859375 C1052.83522546 688.04001199 1056.66794898 683.77876046 1060.61584473 679.53686523 C1063.58674124 676.32560325 1066.39919573 673.0323156 1069.13708496 669.62109375 C1073.01291814 664.79891711 1077.14238898 660.28667055 1081.37658691 655.78271484 C1084.9965933 651.90350968 1088.28672479 647.87690996 1091.39489746 643.5703125 C1092.04071777 642.82201172 1092.04071777 642.82201172 1092.69958496 642.05859375 C1093.35958496 642.05859375 1094.01958496 642.05859375 1094.69958496 642.05859375 C1096.26173669 658.39893332 1097.51458013 674.74958424 1098.64489746 691.125 C1098.82132408 693.66316758 1098.99782916 696.2013297 1099.17440796 698.73948669 C1099.54075434 704.01444239 1099.90522471 709.28952471 1100.26843262 714.56469727 C1100.685759 720.62501594 1101.10821055 726.68496289 1101.53300869 732.744762 C1101.94596507 738.63914379 1102.35391185 744.53386552 1102.76000595 750.42872429 C1102.9316038 752.91052075 1103.10462287 755.3922194 1103.2791481 757.87381172 C1105.61652881 791.1726327 1105.61652881 791.1726327 1103.11755371 796.3125 C1102.38149902 797.07433594 1101.64544434 797.83617187 1100.88708496 798.62109375 C1100.06595215 799.50925781 1099.24481934 800.39742187 1098.39880371 801.3125 C1097.50806152 802.21871094 1096.61731934 803.12492188 1095.69958496 804.05859375 C1094.32014372 805.54296558 1092.9546172 807.03934254 1091.58947754 808.53686523 C1090.65994152 809.55457083 1089.72614235 810.56839832 1088.78820801 811.57836914 C1085.79404348 814.80835217 1082.96209037 818.12519417 1080.19958496 821.55859375 C1076.56394446 826.07717551 1072.73122094 830.33842704 1068.7833252 834.58032227 C1065.81242868 837.79158425 1062.9999742 841.0848719 1060.26208496 844.49609375 C1056.41913017 849.27400713 1052.33127167 853.74854359 1048.14343262 858.22021484 C1044.22051642 862.4328848 1040.58047472 866.8227293 1036.97692871 871.3125 C1034.48132028 874.32178427 1031.86193353 877.19798029 1029.19958496 880.05859375 C1025.72539253 883.7918663 1022.39889786 887.58230486 1019.19958496 891.55859375 C1015.56459107 896.07637188 1011.73248206 900.33677891 1007.78552246 904.578125 C1004.79517139 907.81071122 1001.96172167 911.12565241 999.19958496 914.55859375 C995.56394446 919.07717551 991.73122094 923.33842704 987.7833252 927.58032227 C984.81242868 930.79158425 981.9999742 934.0848719 979.26208496 937.49609375 C975.41913017 942.27400713 971.33127167 946.74854359 967.14343262 951.22021484 C963.2311831 955.42143026 959.59887606 959.79720761 956.00817871 964.27734375 C952.88707377 968.03745664 949.583696 971.61341378 946.24035645 975.17602539 C943.6683785 977.89801802 943.6683785 977.89801802 941.69958496 981.05859375 C933.09849374 977.21597661 926.02916076 969.51691692 919.18200684 963.14672852 C915.94910012 960.15524693 912.63330021 957.32135314 909.19958496 954.55859375 C904.6810032 950.92295325 900.41975167 947.09022973 896.17785645 943.14233398 C892.96659446 940.17143747 889.67330681 937.35898298 886.26208496 934.62109375 C881.48417158 930.77813896 877.00963512 926.69028046 872.53796387 922.50244141 C868.32529391 918.57952521 863.93544941 914.93948351 859.44567871 911.3359375 C856.43639444 908.84032906 853.56019842 906.22094232 850.69958496 903.55859375 C846.96631241 900.08440132 843.17587385 896.75790665 839.19958496 893.55859375 C834.68180683 889.92359986 830.4213998 886.09149085 826.18005371 882.14453125 C822.94746749 879.15418017 819.6325263 876.32073046 816.19958496 873.55859375 C811.6810032 869.92295325 807.41975167 866.09022973 803.17785645 862.14233398 C799.96659446 859.17143747 796.67330681 856.35898298 793.26208496 853.62109375 C788.48417158 849.77813896 784.00963512 845.69028046 779.53796387 841.50244141 C776.1689467 838.3651503 772.7266429 835.38323459 769.13708496 832.49609375 C768.26052246 831.76777344 767.38395996 831.03945313 766.48083496 830.2890625 C763.67065831 827.98026866 763.67065831 827.98026866 760.41833496 825.796875 C756.46079244 822.91025612 752.51465904 819.86820424 751.10754776 815.0178051 C750.77479317 812.62384961 750.60209696 810.26532071 750.48132324 807.85131836 C750.41535006 806.93973685 750.34937687 806.02815535 750.2814045 805.08895016 C750.14072113 803.11206492 750.010914 801.13438189 749.89081573 799.15613937 C749.69810214 796.03457508 749.47003216 792.91748089 749.23150635 789.79910278 C748.70852604 782.90978534 748.22959316 776.01774671 747.75427246 769.125 C747.57786595 766.58779741 747.40136048 764.05060171 747.22476196 761.51341248 C746.85819145 756.23669173 746.49373771 750.95982866 746.1307373 745.68286133 C745.71382668 739.62312142 745.29129971 733.56379072 744.86616123 727.504623 C744.4528856 721.61080243 744.04502116 715.71661532 743.63916397 709.82227898 C743.46766855 707.34130192 743.29465339 704.86042938 743.12002182 702.3796711 C741.38149895 677.63059558 741.38149895 677.63059558 741.69958496 666.05859375 C747.18348715 669.96060108 752.1479907 674.23511853 757.06384277 678.81762695 C760.34727857 681.86235142 763.70715668 684.75154822 767.19958496 687.55859375 C771.71816672 691.19423425 775.97941825 695.02695777 780.22131348 698.97485352 C783.43257547 701.94575003 786.72586311 704.75820452 790.13708496 707.49609375 C794.91499834 711.33904854 799.3895348 715.42690704 803.86120605 719.61474609 C808.07387601 723.53766229 812.46372051 727.17770399 816.95349121 730.78125 C819.96277548 733.27685844 822.83897151 735.89624518 825.69958496 738.55859375 C829.43285751 742.03278618 833.22329607 745.35928085 837.19958496 748.55859375 C842.26222905 752.63358328 847.02699216 756.95362118 851.77770996 761.3828125 C855.02135836 764.35326591 858.34380943 767.21629379 861.69958496 770.05859375 C856.24842048 747.75707869 849.86571271 725.86705914 842.69958496 704.05859375 C842.37990753 703.08312592 842.37990753 703.08312592 842.05377197 702.08795166 C835.70882234 682.75715719 828.50522376 663.83665982 820.69958496 645.05859375 C820.20651855 643.8675 819.71345215 642.67640625 819.20544434 641.44921875 C806.95090763 612.02548187 793.26346128 583.05887887 777.13757324 555.55126953 C775.1938979 552.18201228 773.34927 548.76283398 771.5032959 545.33935547 C765.70305324 534.59501748 759.33992771 524.30021179 752.69958496 514.05859375 C751.49889384 512.19151575 750.29837939 510.32432412 749.09802246 508.45703125 C733.44334486 484.1921789 716.79418857 460.57273125 698.69958496 438.05859375 C698.18541016 437.41825195 697.67123535 436.77791016 697.14147949 436.11816406 C687.61522322 424.27687585 677.96026564 412.56350375 667.73864746 401.3125 C665.9087225 399.28976685 664.11076768 397.2448994 662.32458496 395.18359375 C655.12218485 386.93808742 647.69907461 378.97118894 639.90441895 371.28491211 C637.16763149 368.57317124 634.55843727 365.81556656 632.07458496 362.87109375 C628.83249609 359.06652199 625.19413387 355.84850892 621.44567871 352.55078125 C618.38451346 349.77265404 615.47658014 346.87578023 612.57458496 343.93359375 C608.75611782 340.07185786 604.88286633 336.34529194 600.74645996 332.82421875 C598.24243647 330.66425955 595.81960798 328.42371382 593.38708496 326.18359375 C588.92084982 322.10999466 584.33037117 318.25031672 579.62536621 314.45703125 C576.97687014 312.28590096 574.38735657 310.06493524 571.80603027 307.81542969 C564.02242715 301.04154383 555.91843583 294.76482992 547.67907715 288.55761719 C545.89723254 287.20826767 544.12710374 285.84590093 542.36364746 284.47265625 C517.36530675 265.01550945 490.88045706 247.31607312 463.69958496 231.05859375 C462.77581055 230.5054248 461.85203613 229.95225586 460.90026855 229.38232422 C406.0544388 196.6774474 348.20771538 170.33082306 287.69958496 150.05859375 C287.04746033 149.84007751 286.39533569 149.62156128 285.72344971 149.39642334 C209.14834799 123.84094049 128.97654489 110.23192711 -195.30041504 131.05859375 C-196.03828247 131.23501404 -196.7761499 131.41143433 -197.53637695 131.59320068 C-267.98805193 148.50567658 -337.81594019 174.95818602 -401.30041504 210.05859375 C-402.69864502 210.82453857 -402.69864502 210.82453857 -404.12512207 211.60595703 C-433.3973536 227.6623961 -462.21197773 244.98030566 -489.26135254 264.58447266 C-491.40224738 266.13221248 -493.55351493 267.66467497 -495.70666504 269.1953125 C-511.44853116 280.42102765 -526.59354388 292.36663511 -541.54309082 304.62158203 C-543.15383387 305.93873035 -544.7717007 307.24715448 -546.39025879 308.5546875 C-551.7277612 312.87409689 -556.89912834 317.32645673 -561.97619629 321.94921875 C-564.02083839 323.80486032 -566.08825653 325.62615751 -568.17541504 327.43359375 C-572.56787592 331.26269291 -576.85723132 335.20197221 -581.14025879 339.15234375 C-583.12085204 340.978911 -585.1127463 342.78867788 -587.11682129 344.58984375 C-594.86143632 351.60227813 -602.28089688 358.93095615 -609.67541504 366.30859375 C-610.45870178 367.0879982 -610.45870178 367.0879982 -611.2578125 367.88314819 C-616.58467106 373.18918073 -621.83089486 378.51777974 -626.72180176 384.23486328 C-629.43891948 387.37387803 -632.31994244 390.35847595 -635.17541504 393.37109375 C-640.09535277 398.59808035 -644.75416186 403.91722237 -649.23400879 409.52734375 C-651.30154286 412.05997528 -653.46154845 414.46590535 -655.67541504 416.87109375 C-660.73068169 422.42662117 -665.30463878 428.31621214 -669.89758301 434.25292969 C-671.26335615 436.01089317 -672.64050348 437.75913059 -674.02307129 439.50390625 C-702.06755925 474.89927333 -727.38178133 512.57113928 -749.30041504 552.05859375 C-749.79106445 552.94224609 -750.28171387 553.82589844 -750.78723145 554.73632812 C-754.33815864 561.15224731 -757.83310726 567.59715307 -761.30041504 574.05859375 C-761.79009766 574.96802734 -762.27978027 575.87746094 -762.78430176 576.81445312 C-782.4292455 613.42283494 -798.62098905 651.84898023 -812.30041504 691.05859375 C-812.63785736 692.02161407 -812.63785736 692.02161407 -812.9821167 693.00408936 C-820.71727976 715.09587885 -827.38113503 737.41421001 -833.30041504 760.05859375 C-833.48110535 760.74870544 -833.66179565 761.43881714 -833.84796143 762.14984131 C-854.76498973 842.3297908 -863.73523717 925.73084303 -818.30041504 1252.05859375 C-818.07460754 1252.74872559 -817.84880005 1253.43885742 -817.6161499 1254.14990234 C-804.81541414 1293.17250989 -789.08743039 1330.94033417 -770.92883301 1367.75488281 C-769.41920132 1370.81760185 -767.92280848 1373.8864174 -766.42932129 1376.95703125 C-759.90240604 1390.29239655 -752.75122286 1403.21943215 -745.30041504 1416.05859375 C-744.76658203 1416.98172363 -744.23274902 1417.90485352 -743.68273926 1418.85595703 C-731.72730438 1439.48244659 -718.9244189 1459.49691303 -705.30041504 1479.05859375 C-704.81395508 1479.76258301 -704.32749512 1480.46657227 -703.82629395 1481.19189453 C-691.87199503 1498.4906585 -679.06695474 1515.14558603 -665.6920166 1531.3671875 C-663.69423385 1533.79536976 -661.7186008 1536.2414579 -659.73791504 1538.68359375 C-652.10646742 1547.98921634 -644.27282137 1557.10599013 -636.09606934 1565.93676758 C-633.58998309 1568.64337718 -631.13651852 1571.38148688 -628.73791504 1574.18359375 C-625.25949368 1578.20421508 -621.47902859 1581.89413772 -617.69885254 1585.62890625 C-615.68056774 1587.67348792 -613.78541986 1589.74695393 -611.92541504 1591.93359375 C-605.31005897 1599.6436896 -597.95846348 1606.77193141 -590.22619629 1613.3515625 C-587.98904893 1615.3345917 -585.89986852 1617.43052761 -583.80041504 1619.55859375 C-580.46920697 1622.9295944 -577.04929876 1626.10373405 -573.45275879 1629.1875 C-570.91989342 1631.38939204 -568.45708981 1633.66055201 -565.98791504 1635.93359375 C-561.49893447 1640.02739584 -556.88798028 1643.91329042 -552.15979004 1647.7265625 C-549.66221728 1649.76351733 -547.20788425 1651.84217002 -544.76477051 1653.94384766 C-537.17710848 1660.45921336 -529.27364946 1666.51579298 -521.29602051 1672.54345703 C-519.50847399 1673.90062778 -517.73140196 1675.26956935 -515.96057129 1676.6484375 C-443.2270241 1733.23935631 -360.06664493 1776.23897016 -57.30041504 1852.05859375 C-55.4555249 1852.20506348 -55.4555249 1852.20506348 -53.57336426 1852.35449219 C-40.4545776 1853.36193359 -27.36853192 1854.05981231 -14.21447754 1854.296875 C-13.25952393 1854.31482117 -12.30457031 1854.33276733 -11.32067871 1854.35125732 C-6.61171678 1854.43664222 -1.90355517 1854.50383995 2.80603027 1854.54150391 C20.33227547 1854.7502169 37.77351025 1856.83191265 50.69958496 1870.05859375 C61.28915758 1883.22794438 67.30026431 1896.78459575 65.69958496 1914.05859375 C63.56186751 1928.89791575 56.77131652 1940.50605169 45.25036621 1950.09765625 C34.99258936 1957.66618862 25.20376223 1960.20340959 12.67224121 1960.26171875 C11.17263351 1960.27217224 11.17263351 1960.27217224 9.64273071 1960.28283691 C6.34914008 1960.30041774 3.05572088 1960.30658058 -0.23791504 1960.30859375 C-1.37143402 1960.30960083 -2.504953 1960.31060791 -3.67282104 1960.31164551 C-27.30778934 1960.29755104 -50.75823628 1959.08434299 -74.30041504 1957.05859375 C-75.54030182 1956.95321289 -75.54030182 1956.95321289 -76.80523682 1956.84570312 C-148.12944177 1950.73194476 -219.2857262 1936.3938995 -287.30041504 1914.05859375 C-288.12197083 1913.78897827 -288.94352661 1913.51936279 -289.78997803 1913.24157715 C-330.33429227 1899.90123324 -369.62056904 1884.13736325 -408.30041504 1866.05859375 C-409.67084961 1865.42074951 -409.67084961 1865.42074951 -411.06896973 1864.77001953 C-423.67881568 1858.89009674 -436.0656611 1852.68261474 -448.30041504 1846.05859375 C-449.35728516 1845.48898926 -450.41415527 1844.91938477 -451.50305176 1844.33251953 C-484.83922044 1826.3220233 -517.3036088 1806.62805338 -548.14758301 1784.59570312 C-550.12217853 1783.18585357 -552.10246939 1781.78456504 -554.08557129 1780.38671875 C-562.95500813 1774.11885224 -571.64658498 1767.61994514 -580.30041504 1761.05859375 C-580.86615234 1760.63078613 -581.43188965 1760.20297852 -582.01477051 1759.76220703 C-594.21537824 1750.52287628 -606.08436806 1740.86695543 -617.72497559 1730.93286133 C-620.97453906 1728.16270037 -624.27490657 1725.47105288 -627.61291504 1722.80859375 C-633.14489876 1718.3148709 -638.30736343 1713.46000098 -643.46765137 1708.54980469 C-646.75781047 1705.42168768 -650.07781189 1702.35418396 -653.50744629 1699.37890625 C-657.1303446 1696.2355027 -660.4925722 1692.90667791 -663.83166504 1689.46484375 C-665.8447644 1687.50270893 -667.88715229 1685.66827595 -670.01525879 1683.8359375 C-674.66819931 1679.79673838 -679.0186127 1675.4875045 -683.36291504 1671.12109375 C-684.12668457 1670.36119141 -684.8904541 1669.60128906 -685.67736816 1668.81835938 C-689.87843262 1664.61010747 -693.89524953 1660.30823785 -697.77478027 1655.80249023 C-699.68691118 1653.61680435 -701.71657384 1651.58023073 -703.80041504 1649.55859375 C-707.14975233 1646.24872677 -710.2996746 1642.85112426 -713.36291504 1639.27734375 C-715.28617844 1637.07489695 -717.26087248 1634.9260152 -719.24987793 1632.78295898 C-724.00731646 1627.65398561 -728.54084208 1622.41329045 -732.92932129 1616.9609375 C-735.61873081 1613.66895847 -738.39223458 1610.45864881 -741.17541504 1607.24609375 C-746.58666553 1600.97324443 -751.74032926 1594.53233724 -756.80822754 1587.98046875 C-758.41116289 1585.91595516 -760.02673562 1583.86176899 -761.64416504 1581.80859375 C-769.81075326 1571.4186889 -777.65550167 1560.83715122 -785.30041504 1550.05859375 C-786.13524414 1548.88756104 -786.13524414 1548.88756104 -786.98693848 1547.69287109 C-811.90419306 1512.704952 -834.15514072 1475.98059231 -854.30041504 1438.05859375 C-855.0540332 1436.64610352 -855.0540332 1436.64610352 -855.82287598 1435.20507812 C-880.48321944 1388.90075071 -900.4210981 1340.68225632 -917.30041504 1291.05859375 C-917.70211914 1289.88087402 -918.10382324 1288.7031543 -918.5177002 1287.48974609 C-948.22650923 1199.65445598 -963.59010858 1106.85996701 -938.30041504 742.05859375 C-938.11843567 741.32314331 -937.9364563 740.58769287 -937.7489624 739.82995605 C-932.15315427 717.29025869 -925.54523902 695.120089 -918.30041504 673.05859375 C-918.06387207 672.33565125 -917.8273291 671.61270874 -917.58361816 670.86785889 C-910.05797089 647.88913055 -901.59161415 625.3802631 -892.30041504 603.05859375 C-892.03120239 602.40973206 -891.76198975 601.76087036 -891.48461914 601.09234619 C-875.34160403 562.2192236 -856.58741864 524.05106138 -835.00012207 487.9140625 C-833.29172209 485.0439898 -831.60385263 482.16275622 -829.92150879 479.27734375 C-823.33701591 468.00303012 -816.51041072 456.94261915 -809.30041504 446.05859375 C-808.34722572 444.6094173 -807.39410195 443.16019774 -806.44104004 441.7109375 C-787.94289078 413.68185172 -768.01144506 386.86062442 -746.77258301 360.86279297 C-745.47769993 359.27586329 -744.18751026 357.68510638 -742.89807129 356.09375 C-734.24172137 345.43376032 -725.3168013 335.03126362 -715.96838379 324.97265625 C-713.91076769 322.72524541 -711.89406354 320.45811255 -709.89416504 318.16015625 C-699.06681555 305.74806722 -687.43053981 294.08659497 -675.80041504 282.43359375 C-675.19259186 281.82318237 -674.58476868 281.212771 -673.95852661 280.5838623 C-662.34503183 268.93138489 -662.34503183 268.93138489 -656.09387207 263.60693359 C-652.7841749 260.74958273 -649.65466366 257.6972197 -646.48791504 254.68359375 C-641.10792934 249.59795756 -635.65537716 244.76780839 -629.86291504 240.15625 C-627.13894545 237.92641514 -624.56706319 235.57905257 -621.98791504 233.18359375 C-617.43551985 228.99874322 -612.71582036 225.14798648 -607.83093262 221.36669922 C-604.05033432 218.43962042 -600.3253355 215.45764803 -596.63366699 212.41918945 C-586.76568617 204.30311048 -576.58251549 196.64015846 -566.30041504 189.05859375 C-565.55565918 188.50703613 -564.81090332 187.95547852 -564.0435791 187.38720703 C-551.09983641 177.82047226 -537.74528915 168.9021535 -524.30041504 160.05859375 C-522.82384952 159.08073373 -521.3472867 158.10286962 -519.87072754 157.125 C-441.83631551 105.75023181 -355.62250643 67.0483037 -225.30041504 29.05859375 C-224.49320007 28.85705688 -223.68598511 28.65552002 -222.85430908 28.44787598 C-149.70432866 10.25748099 -75.26190323 1.91699196 0 0 Z " fill="#83B6C7" transform="translate(1017.3004150390625,108.94140625)"/>
<path d="M0 0 C1.11246094 0.20399414 2.22492188 0.40798828 3.37109375 0.61816406 C59.04342175 11.09102533 109.97467578 35.99438749 152 74 C152.88606934 74.79349854 152.88606934 74.79349854 153.79003906 75.60302734 C159.58453334 80.79836519 165.28786269 85.98958488 170.28515625 91.9765625 C172.31874837 94.37610855 174.47263092 96.64393551 176.625 98.9375 C230.38198366 158.00482399 252.52378837 236.46539815 250 315 C249.54372328 323.75522285 248.45382836 332.35869053 247 341 C246.81727539 342.11358887 246.63455078 343.22717773 246.44628906 344.37451172 C241.96746186 370.70692682 233.95669217 397.06149656 222 421 C221.54431641 421.93150879 221.08863281 422.86301758 220.61914062 423.82275391 C213.15746369 439.00432233 204.81796572 453.22639011 195 467 C194.46987305 467.74636719 193.93974609 468.49273438 193.39355469 469.26171875 C187.53919585 477.4394689 181.34700796 485.09163259 174.4453125 492.40625 C172.41592087 494.55883154 170.47543338 496.74514133 168.5625 499 C161.30301211 507.33368419 153.41270379 514.93358118 144.7578125 521.80078125 C141.9054936 524.07536417 139.14506241 526.43869993 136.375 528.8125 C89.75097222 567.50686576 26.09516494 592.92900861 -34.8515625 593.203125 C-35.86809906 593.20882507 -36.88463562 593.21452515 -37.93197632 593.22039795 C-40.07833842 593.22979337 -42.22471458 593.23636004 -44.37109375 593.24023438 C-47.56798457 593.24982889 -50.76420003 593.28085892 -53.9609375 593.3125 C-127.41194261 593.69051444 -199.44480932 562.46442043 -252.55419922 512.34423828 C-254.61606408 510.42721229 -256.7454992 508.5912435 -258.875 506.75 C-262.25668205 503.7611086 -265.23627879 500.61137319 -268.14453125 497.1640625 C-270.23454883 494.726442 -272.42823408 492.404302 -274.625 490.0625 C-301.98846132 459.99596119 -321.21424409 423.350605 -334 385 C-334.26151855 384.22205078 -334.52303711 383.44410156 -334.79248047 382.64257812 C-351.63387061 331.73272702 -351.67743104 272.79791565 -339 221 C-338.67757324 219.67742187 -338.67757324 219.67742187 -338.34863281 218.328125 C-324.1911476 161.78283281 -289.70531253 107.49929189 -245 70 C-244.45875488 69.54496094 -243.91750977 69.08992187 -243.35986328 68.62109375 C-201.29300496 33.40965868 -151.25786903 9.13291584 -97 0 C-96.15808105 -0.15098145 -95.31616211 -0.30196289 -94.44873047 -0.45751953 C-64.29261406 -5.68954647 -30.08700366 -5.63378139 0 0 Z M-246 125 C-249.47870326 128.95320669 -252.68725413 133.08801125 -255.78955078 137.34082031 C-256.99838648 138.99778832 -258.23001277 140.63578502 -259.46484375 142.2734375 C-299.83336239 196.5153953 -316.27640997 265.15696591 -306.50488281 331.84814453 C-303.98694302 347.56700468 -299.98835123 362.89336275 -295 378 C-294.7829541 378.66451172 -294.5659082 379.32902344 -294.34228516 380.01367188 C-284.07657933 410.85024248 -266.86107421 440.09302991 -245.38525391 464.42602539 C-244.38058199 465.56756925 -243.383871 466.71613537 -242.39208984 467.86889648 C-232.60559645 479.20461909 -221.94904323 489.95091517 -210 499 C-209.00540771 499.76860352 -209.00540771 499.76860352 -207.99072266 500.55273438 C-171.530057 528.66968648 -129.38993325 545.96287001 -84 553 C-83.28102539 553.11327637 -82.56205078 553.22655273 -81.82128906 553.34326172 C-28.97367416 561.3808735 24.05488587 550.98450478 71 526 C72.06613525 525.4419165 72.06613525 525.4419165 73.15380859 524.87255859 C88.99355484 516.54915815 103.38466694 506.61479197 117 495 C118.1310581 494.05414636 119.26259642 493.10886676 120.39453125 492.1640625 C130.69931881 483.51028722 140.39989759 474.38305047 149 464 C149.41830078 463.50081055 149.83660156 463.00162109 150.26757812 462.48730469 C196.12571576 407.5404541 216.05260987 339.05601565 210.53125 268.03125 C205.71985238 218.38672509 185.96765382 171.8613695 155 133 C154.54222168 132.42507813 154.08444336 131.85015625 153.61279297 131.2578125 C141.74496327 116.53644604 128.16091199 102.33772548 113 91 C111.91391844 90.16164493 110.82799079 89.32309045 109.7421875 88.484375 C73.88713722 61.1478673 32.38919177 44.10795705 -12 37 C-12.70962891 36.88140625 -13.41925781 36.7628125 -14.15039062 36.640625 C-102.07984077 22.585299 -186.7997675 61.73935623 -246 125 Z " fill="#1E2A33" transform="translate(1079,795)"/>
</svg>
