<?xml version="1.0" encoding="UTF-8"?>
<svg version="1.1" xmlns="http://www.w3.org/2000/svg" width="2134" height="2134">
<path d="M0 0 C28.83472936 0.81732079 57.66634134 1.0456177 86.5111631 1.21272121 C93.82107562 1.25523501 101.13095784 1.30224346 108.44084213 1.34932473 C121.94857496 1.43621207 135.45632644 1.51975014 148.96409225 1.60133362 C162.37767348 1.68236964 175.79124238 1.76514103 189.20479965 1.85005188 C190.04708408 1.8553834 190.88936851 1.86071493 191.75717671 1.86620801 C196.03890245 1.89332144 200.32062799 1.92046796 204.60235342 1.94762933 C234.861351 2.13954105 265.12036759 2.32827586 295.37939835 2.51487732 C297.20302903 2.52612434 299.02665971 2.53737145 300.85029039 2.54861867 C301.75367205 2.55419021 302.65705371 2.55976175 303.58781058 2.56550212 C308.15450929 2.59366762 312.72120798 2.62183639 317.28790665 2.65000916 C318.1927038 2.65559077 319.09750094 2.66117239 320.02971619 2.66692314 C340.90767538 2.79573811 361.78562778 2.92563767 382.66357803 3.05589294 C384.0009214 3.0642354 384.0009214 3.0642354 385.36528181 3.07274638 C405.87271547 3.20068106 426.38014644 3.3290386 446.88757324 3.45806885 C447.75924727 3.46355283 448.6309213 3.46903682 449.52900969 3.47468699 C457.38889793 3.52413845 465.2487861 3.5736006 473.10867378 3.62314093 C491.6311202 3.73988309 510.15357029 3.85592761 528.67603683 3.96943665 C535.1090789 4.00888793 541.54212081 4.04836434 547.97516251 4.08787537 C549.1544077 4.0951158 549.1544077 4.0951158 550.35747603 4.10250251 C567.93226045 4.21046936 585.50702397 4.32076958 603.0817337 4.44033813 C603.80734925 4.44527305 604.5329648 4.45020796 605.28056869 4.45529241 C612.47368829 4.50426925 619.66680466 4.55369537 626.85991697 4.60372946 C642.06361719 4.70933999 657.26730376 4.8064346 672.47116672 4.88549874 C683.46012264 4.94269844 694.44898814 5.00947427 705.43782853 5.08585137 C711.32624177 5.12638836 717.21458487 5.1623225 723.10309458 5.18539619 C728.46839981 5.20646056 733.83345383 5.24091833 739.19861323 5.28555226 C741.11899738 5.29922281 743.03942324 5.3081654 744.95985311 5.31152415 C761.4738253 5.34480296 778.46035136 6.36391765 794.26660538 11.53538513 C795.08016495 11.79142517 795.89372452 12.04746521 796.73193741 12.31126404 C834.791988 24.6460216 865.95440895 50.9073232 884.26660538 86.59788513 C897.62696497 113.8506844 899.10889673 141.65841476 899.08781815 171.44763184 C899.08968821 173.95675183 899.09198969 176.46587154 899.09468347 178.97499079 C899.09951246 184.41441896 899.101259 189.85383442 899.10022736 195.29326439 C899.09869693 203.38249764 899.10287632 211.47172111 899.10810198 219.56095245 C899.11775491 234.85258067 899.12058546 250.14420553 899.12115904 265.43583644 C899.12161924 277.24882478 899.12368098 289.06181181 899.12685966 300.87479973 C899.12775726 304.27973872 899.12864708 307.68467772 899.12953454 311.08961672 C899.12975559 311.93618583 899.12997664 312.78275494 899.13020439 313.65497767 C899.13635556 337.45611455 899.14030526 361.25725099 899.13986111 385.05838871 C899.13984553 385.9550968 899.13982995 386.85180488 899.1398139 387.77568594 C899.1397308 392.32018567 899.13963176 396.86468539 899.13952919 401.40918512 C899.13949927 402.76292365 899.13949927 402.76292365 899.13946875 404.14401044 C899.13942831 405.96906899 899.13938652 407.79412754 899.13934336 409.61918609 C899.1387308 438.00523868 899.14623491 466.39127932 899.15991592 494.77732849 C899.17529405 526.69750088 899.1838811 558.61766541 899.1829527 590.53784174 C899.18287808 593.94498122 899.18282937 597.3521207 899.18279839 600.75926018 C899.18278673 601.59813193 899.18277508 602.43700369 899.18276307 603.3012958 C899.18273237 616.76966557 899.18910365 630.23802492 899.19773065 643.7063916 C899.20622928 657.25508033 899.20717982 670.8037539 899.20062133 684.35244382 C899.1969404 692.3887567 899.1987142 700.42502336 899.20856367 708.46133129 C899.21531376 714.48031854 899.21147087 720.49925208 899.20369045 726.51824003 C899.20216129 728.93944461 899.20394934 731.36065427 899.20955052 733.78185285 C899.28895184 770.56539587 899.28895184 770.56539587 894.70410538 787.16038513 C894.48722061 787.97869812 894.27033585 788.79701111 894.04687881 789.64012146 C889.09214418 807.68825335 880.70664518 825.1746959 868.95410538 839.78538513 C868.54434464 840.30052673 868.13458389 840.81566833 867.71240616 841.34642029 C844.59095264 870.24609393 811.01318669 889.87778599 774.65332413 896.37522888 C769.7609695 896.9176758 764.93502795 896.92983835 760.01660538 896.91038513 C759.10459366 896.91425232 758.19258194 896.91811951 757.2529335 896.92210388 C745.81125293 896.90695937 734.38189813 896.29963974 722.95410538 895.78538513 C723.022612 896.79941154 723.022612 896.79941154 723.09250259 897.83392334 C736.12193294 1091.26254651 736.12193294 1091.26254651 708.23926163 1124.46116638 C699.91116328 1132.93162539 688.31386255 1137.80917267 676.45410538 1138.22288513 C651.52940553 1137.06862986 632.8444428 1120.82956606 615.65719986 1104.37771606 C613.68852158 1102.53707401 611.66685495 1100.76319125 609.64599991 1098.97996521 C602.74255097 1092.77310999 596.21810271 1086.19380207 589.66113663 1079.62522888 C588.30228855 1078.2670562 586.94329222 1076.90903184 585.58415604 1075.55114746 C582.75280335 1072.72125969 579.9232431 1069.88959537 577.09497452 1067.05662537 C573.48752307 1063.44346641 569.87558472 1059.83483147 566.26229191 1056.22751522 C563.4610725 1053.42992481 560.66225818 1050.62993799 557.86414528 1047.8292408 C556.53374466 1046.49817795 555.20261427 1045.16784407 553.87071037 1043.83828545 C542.10037425 1032.08414199 542.10037425 1032.08414199 536.75322342 1025.80688477 C532.95929158 1021.54400059 528.84740931 1017.5722183 524.79776382 1013.55387878 C523.10417676 1011.87324273 521.41389761 1010.18933884 519.72436905 1008.50462341 C516.13710724 1004.92869976 512.54591418 1001.35674081 508.95410538 997.78538513 C504.78657565 993.6415869 500.62074563 989.49610852 496.45914078 985.34635925 C494.80678006 983.70040407 493.15140073 982.05752868 491.49585342 980.41477966 C486.71312796 975.65513175 482.0512127 970.85474054 477.66305923 965.72364807 C474.21766592 961.81594855 470.48877472 958.17807013 466.80176163 954.50022888 C465.94279785 953.64030838 465.08383408 952.78038788 464.19884109 951.89440918 C462.39233523 950.08722652 460.58458076 948.28129121 458.77563858 946.47654724 C456.02473728 943.7310012 453.27921317 940.98015968 450.5341835 938.22874451 C448.76953006 936.46475194 447.00456641 934.70106963 445.23926163 932.93772888 C444.42756012 932.12400314 443.61585861 931.3102774 442.77956009 930.47189331 C439.15917548 926.86618407 435.51587489 923.35687441 431.63672256 920.02952576 C428.66376005 917.47084156 426.16481401 914.83049903 423.74707413 911.72679138 C422.61495499 910.40711365 422.61495499 910.40711365 421.45996475 909.06077576 C419.93145202 907.27214544 418.4573567 905.43534099 417.04590225 903.55296326 C412.83454152 898.84696794 409.31499547 896.65375751 403.07519913 896.15818787 C397.97026418 896.0338245 392.8812871 896.243182 387.78214741 896.48905945 C381.74699333 896.77758779 375.71572174 896.90449263 369.67456436 896.99412537 C368.65714912 897.00942008 367.63973389 897.02471479 366.59148788 897.04047298 C364.45368947 897.07244149 362.31588854 897.10424284 360.17808533 897.13588905 C354.49711576 897.22486423 348.81658649 897.33610313 343.13599014 897.44602966 C125.09873255 901.6209887 125.09873255 901.6209887 -21.54589462 897.84788513 C-22.42896286 897.81036133 -23.3120311 897.77283752 -24.22185898 897.73417664 C-55.19361374 896.37674298 -55.19361374 896.37674298 -68.67089462 892.66038513 C-69.45029404 892.44865662 -70.22969345 892.2369281 -71.03271103 892.01878357 C-93.81497634 885.4381658 -112.29619279 871.30316938 -124.04589462 850.78538513 C-135.75243917 829.33329081 -134.98566832 804.64730633 -135.56347275 780.88328552 C-135.5844197 780.04541319 -135.60536665 779.20754086 -135.62694836 778.34427845 C-136.09022379 759.69496163 -136.34814997 741.04449002 -136.54826927 722.39073491 C-136.5778856 719.65041876 -136.60851799 716.91011548 -136.63938522 714.16981316 C-137.0804724 674.8514205 -137.31432278 635.53245396 -137.50475836 596.2121737 C-137.5561818 585.64525147 -137.61239402 575.07835522 -137.6689415 564.51145935 C-137.67676321 563.04905563 -137.67676321 563.04905563 -137.68474293 561.5571084 C-137.71114322 556.62445192 -137.7376161 551.69179583 -137.76414108 546.75914001 C-137.78530142 542.82214924 -137.80634645 538.88515787 -137.82728195 534.94816589 C-138.02555731 497.66211262 -138.24754915 460.37626382 -138.50102377 423.0905444 C-138.53537165 418.0191972 -138.5682486 412.94784206 -138.60033798 407.8764801 C-138.79775421 376.77912111 -139.09448666 345.68476168 -139.54589462 314.59007263 C-139.55644064 313.8588118 -139.56698666 313.12755097 -139.57785225 312.37413073 C-139.96810844 276.81616284 -139.96810844 276.81616284 -141.28002548 241.28489685 C-142.09764108 225.8982695 -142.36993243 210.51087054 -142.57852554 195.10613632 C-142.60875266 192.88406476 -142.64006272 190.66201047 -142.67156601 188.43995667 C-142.96301844 167.70115986 -143.14895818 146.96388424 -143.17089462 126.22288513 C-143.17348282 125.10714111 -143.17607101 123.99139709 -143.17873764 122.84184265 C-143.19819725 112.32993495 -143.14647789 101.83644661 -142.61230087 91.33616638 C-142.57512955 90.60103317 -142.53795822 89.86589996 -142.49966049 89.10848999 C-141.1676295 66.20364904 -134.51856064 45.75536057 -117.33886337 29.70726013 C-83.9989706 1.76309106 -41.8105731 -1.19294534 0 0 Z " fill="#F4A374" transform="translate(1191.0458946228027,782.2146148681641)"/>
<path d="M0 0 C1.35815962 -0.00239647 2.71631793 -0.00566588 4.07447362 -0.0097166 C7.7803371 -0.01826943 11.48609822 -0.01453839 15.19196307 -0.00866088 C19.23375651 -0.00446743 23.27553206 -0.01190556 27.31732106 -0.01781338 C34.39258595 -0.02655571 41.46782188 -0.02789451 48.54309082 -0.02431011 C59.06462397 -0.01899392 69.58612919 -0.02510763 80.10765931 -0.03339304 C99.9941112 -0.04862292 119.88055034 -0.05033915 139.76700684 -0.04787002 C155.12502634 -0.04603642 170.48304166 -0.04779838 185.84106064 -0.05209446 C188.04857731 -0.05269686 190.25609399 -0.05329806 192.46361066 -0.05389806 C195.79024765 -0.05480533 199.11688464 -0.055714 202.44352163 -0.05663041 C233.36792656 -0.06505847 264.29232992 -0.06939666 295.21673584 -0.06522369 C296.38221729 -0.06506732 297.54769874 -0.06491094 298.74849781 -0.06474983 C304.65543684 -0.06394406 310.56237587 -0.06309829 316.4693149 -0.06223653 C317.64242293 -0.06206544 318.81553096 -0.06189435 320.02418771 -0.06171808 C322.39649627 -0.06137142 324.76880482 -0.06102289 327.14111337 -0.06067249 C364.05295369 -0.05531548 400.96477012 -0.06324575 437.87660599 -0.08170605 C479.36095525 -0.10242891 520.84528971 -0.11314822 562.32964444 -0.10913056 C566.75424655 -0.10873522 571.17884866 -0.10837368 575.60345078 -0.10803318 C576.69287504 -0.10794245 577.7822993 -0.10785172 578.90473641 -0.10775824 C595.33979078 -0.106593 611.77483019 -0.11323493 628.20988083 -0.1238451 C646.90465879 -0.13590191 665.59940382 -0.13745049 684.29418227 -0.12505493 C694.75066109 -0.11843177 705.20706116 -0.12004489 715.66353366 -0.13364345 C722.65600956 -0.141902 729.64842661 -0.13917215 736.64089775 -0.12766818 C740.61971303 -0.12142572 744.59837491 -0.1197746 748.57718119 -0.13153151 C767.5968027 -0.18396041 785.81943246 0.21900555 804.11488724 6.00447559 C804.94343216 6.26196583 805.77197708 6.51945606 806.62562943 6.78474903 C842.46952475 18.24653974 873.08098843 43.34063432 891.11879349 76.45369434 C900.34351225 94.75174686 906.3606073 114.77025041 907.43886185 135.28889942 C907.49283442 136.29384559 907.49283442 136.29384559 907.54789734 137.3190937 C907.66585877 139.53307647 907.77916009 141.74726933 907.89223099 143.96150684 C907.97496928 145.53987488 908.05788452 147.11823366 908.14096451 148.69658375 C908.40895992 153.81975425 908.66905326 158.94330986 908.92738724 164.06697559 C908.97179443 164.9462484 909.01620163 165.8255212 909.0619545 166.73143864 C909.68687893 179.1257202 910.29194663 191.52090021 910.8791008 203.91702747 C910.98213216 206.09085369 911.08584888 208.26464624 911.1896553 210.43843555 C912.68207234 241.95527336 913.18537336 273.44457562 913.2348671 304.99230289 C913.23980541 307.70945451 913.24771169 310.42658447 913.25612259 313.1437273 C913.48428823 398.84781726 913.48428823 398.84781726 886.98988724 429.25447559 C886.2899263 430.08720997 885.58996536 430.91994434 884.86879349 431.77791309 C875.8337856 442.2462823 864.645154 450.06536925 853.68788528 458.38094044 C847.3353178 463.20764334 841.08313548 468.10216374 834.98988724 473.25447559 C834.44284134 473.71273731 833.89579544 474.17099903 833.33217239 474.64314747 C813.90559331 490.92991696 797.92274018 507.18509031 793.98988724 533.25447559 C793.78960941 537.62977577 793.94307165 541.94493331 794.13903332 546.31766796 C794.95156129 564.94270863 795.26172623 583.57993029 795.52113724 602.21931934 C795.53172133 602.96881926 795.54230543 603.71831917 795.55321026 604.49053121 C796.13911889 646.21058893 796.21137654 687.93290461 796.22870898 729.65648961 C796.23350475 740.98699737 796.25131538 752.31738896 796.27978253 763.64786166 C796.30140595 772.57258723 796.31148497 781.49727976 796.31282306 790.42203122 C796.31386157 795.69029985 796.31957562 800.95845495 796.33764267 806.22669506 C796.35415717 811.12696116 796.35626277 816.0270278 796.34750366 820.9273119 C796.34673779 822.71024394 796.35101595 824.49318711 796.36096191 826.27609158 C796.45790459 844.73913729 793.76892736 861.14273346 780.46254349 875.00447559 C758.03278649 895.41449144 727.90664912 891.54713002 699.98988724 890.25447559 C694.71203975 889.9763442 689.43591952 889.67158378 684.15994644 889.36037159 C645.45617533 887.08722696 606.76814972 885.36328098 568.01104153 884.2982453 C562.89830908 884.15725152 557.78573417 884.01116266 552.67323685 883.86189747 C551.65643734 883.83229727 550.63963784 883.80269707 549.59202623 883.7721999 C535.34410609 883.3467817 521.13360765 882.6454106 506.90980403 881.71929282 C482.26664168 880.11526597 457.66134332 879.05436961 432.96254349 878.98885059 C432.00246228 878.98529946 431.04238108 878.98174832 430.0532065 878.97808957 C373.70158267 878.86370376 334.54493505 889.50722614 293.6916242 929.54194245 C271.86394936 951.30226684 252.21322618 975.17015331 233.96566296 999.9753809 C229.23328955 1006.36598827 224.0944053 1012.28927091 218.45082474 1017.89119434 C217.63307571 1018.70564014 216.81532669 1019.52008595 215.97279739 1020.35921192 C215.11218704 1021.21152393 214.25157669 1022.06383595 213.36488724 1022.94197559 C212.4591597 1023.84391651 211.55343216 1024.74585743 210.62025833 1025.67512989 C207.26067418 1029.02053003 203.89657461 1032.36135952 200.53212357 1035.70186329 C197.22354373 1038.98739359 193.91886243 1042.2768135 190.61488724 1045.56697559 C189.75427689 1046.41928761 188.89366653 1047.27159962 188.00697708 1048.14973927 C183.65920478 1052.47994914 179.47945604 1056.88047595 175.48033524 1061.53471851 C173.61795945 1063.68362538 171.65878185 1065.71499419 169.65004349 1067.72713184 C168.89658646 1068.48187794 168.14312943 1069.23662403 167.36684036 1070.01424122 C166.60307083 1070.77414356 165.8393013 1071.53404591 165.05238724 1072.31697559 C164.29248489 1073.08074512 163.53258255 1073.84451466 162.74965286 1074.63142872 C158.56170155 1078.81222726 154.28011647 1082.80567919 149.79628372 1086.66634083 C147.23470319 1088.91841291 144.87308445 1091.31385194 142.48988724 1093.75447559 C138.15157584 1098.13807053 133.74088002 1102.32043149 128.98988724 1106.25447559 C128.46411087 1106.69404591 127.9383345 1107.13361622 127.39662552 1107.58650684 C108.9716081 1122.92972376 91.63783166 1133.47167438 66.98988724 1131.25447559 C57.33593308 1129.21420693 50.63960402 1124.37413702 43.98988724 1117.25447559 C43.34277786 1116.57642872 42.69566849 1115.89838184 42.02894974 1115.19978809 C21.38005684 1091.30478103 23.76850757 1048.50896365 23.80238724 1019.00447559 C23.80299149 1018.01482807 23.80359573 1017.02518055 23.80421829 1016.00554371 C23.87318467 973.66565196 26.96359693 931.46438533 29.98988724 889.25447559 C29.32988724 889.58447559 28.66988724 889.91447559 27.98988724 890.25447559 C26.22000274 890.40846616 24.44489631 890.50426702 22.66957474 890.57088184 C21.04257645 890.63420704 21.04257645 890.63420704 19.3827095 890.69881153 C18.22182816 890.73780567 17.06094681 890.77679981 15.86488724 890.81697559 C14.68015823 890.8572588 13.49542923 890.897542 12.27479935 890.93904591 C9.9112181 891.01581593 7.547527 891.0892833 5.18373489 891.15926075 C3.29000108 891.21571666 1.3963702 891.2762678 -0.49692917 891.34578419 C-34.21328304 892.56127616 -66.07191831 879.26509749 -92.01011276 858.25447559 C-92.84687546 857.58593555 -92.84687546 857.58593555 -93.70054245 856.90388966 C-123.38296567 833.04989593 -140.73698741 798.99542189 -145.40696263 761.39903736 C-146.56786694 750.70056096 -146.42310566 739.96668149 -146.39106369 729.21931934 C-146.39452801 726.65863312 -146.39929773 724.09794839 -146.40524542 721.53726673 C-146.41598506 716.00991012 -146.41581139 710.48264171 -146.40810394 704.95528126 C-146.39667359 696.73539035 -146.40260032 688.51557273 -146.41172886 680.29568219 C-146.42746504 665.60802535 -146.42618137 650.92040783 -146.41749213 636.23274732 C-146.40992567 623.37882051 -146.40798455 610.52490807 -146.41156006 597.6709795 C-146.41178921 596.81614951 -146.41201837 595.96131953 -146.41225447 595.0805856 C-146.41318858 591.60997448 -146.4141438 588.13936336 -146.41513376 584.66875225 C-146.42429711 552.15576177 -146.41601207 519.64279624 -146.39984307 487.12980962 C-146.38560778 458.28593491 -146.38688172 429.44209995 -146.40122604 400.59822559 C-146.41731304 368.14217997 -146.42364707 335.68615636 -146.41438925 303.23010731 C-146.4134272 299.76606211 -146.41248867 296.3020169 -146.41156006 292.83797169 C-146.41132283 291.9851247 -146.41108559 291.13227772 -146.41084117 290.25358689 C-146.40743828 277.41224294 -146.41140176 264.57091498 -146.41899872 251.72957325 C-146.4275998 237.11868022 -146.42538251 222.50783244 -146.40915649 207.896945 C-146.40038874 199.73414313 -146.39971266 191.5714394 -146.41109501 183.40864021 C-146.41867621 177.29403988 -146.41037364 171.17955352 -146.39617129 165.06496716 C-146.39284499 162.60630093 -146.39446846 160.14762143 -146.40179865 157.68896389 C-146.49819539 122.64297853 -140.64674735 88.90258421 -119.01011276 60.25447559 C-118.37202682 59.39595997 -117.73394089 58.53744434 -117.07651901 57.65291309 C-92.20301826 25.77345467 -57.71627237 6.28180408 -17.83779225 0.68645016 C-11.88418572 0.0145531 -5.98573825 -0.02147369 0 0 Z " fill="#82B5C6" transform="translate(199.01011276245117,345.7455244064331)"/>
<path d="M0 0 C28.83472936 0.81732079 57.66634134 1.0456177 86.5111631 1.21272121 C93.82107562 1.25523501 101.13095784 1.30224346 108.44084213 1.34932473 C121.94857496 1.43621207 135.45632644 1.51975014 148.96409225 1.60133362 C162.37767348 1.68236964 175.79124238 1.76514103 189.20479965 1.85005188 C190.04708408 1.8553834 190.88936851 1.86071493 191.75717671 1.86620801 C196.03890245 1.89332144 200.32062799 1.92046796 204.60235342 1.94762933 C234.861351 2.13954105 265.12036759 2.32827586 295.37939835 2.51487732 C297.20302903 2.52612434 299.02665971 2.53737145 300.85029039 2.54861867 C301.75367205 2.55419021 302.65705371 2.55976175 303.58781058 2.56550212 C308.15450929 2.59366762 312.72120798 2.62183639 317.28790665 2.65000916 C318.1927038 2.65559077 319.09750094 2.66117239 320.02971619 2.66692314 C340.90767538 2.79573811 361.78562778 2.92563767 382.66357803 3.05589294 C384.0009214 3.0642354 384.0009214 3.0642354 385.36528181 3.07274638 C405.87271547 3.20068106 426.38014644 3.3290386 446.88757324 3.45806885 C447.75924727 3.46355283 448.6309213 3.46903682 449.52900969 3.47468699 C457.38889793 3.52413845 465.2487861 3.5736006 473.10867378 3.62314093 C491.6311202 3.73988309 510.15357029 3.85592761 528.67603683 3.96943665 C535.1090789 4.00888793 541.54212081 4.04836434 547.97516251 4.08787537 C549.1544077 4.0951158 549.1544077 4.0951158 550.35747603 4.10250251 C567.93226045 4.21046936 585.50702397 4.32076958 603.0817337 4.44033813 C603.80734925 4.44527305 604.5329648 4.45020796 605.28056869 4.45529241 C612.47368829 4.50426925 619.66680466 4.55369537 626.85991697 4.60372946 C642.06361719 4.70933999 657.26730376 4.8064346 672.47116672 4.88549874 C683.46012264 4.94269844 694.44898814 5.00947427 705.43782853 5.08585137 C711.32624177 5.12638836 717.21458487 5.1623225 723.10309458 5.18539619 C728.46839981 5.20646056 733.83345383 5.24091833 739.19861323 5.28555226 C741.11899738 5.29922281 743.03942324 5.3081654 744.95985311 5.31152415 C761.4738253 5.34480296 778.46035136 6.36391765 794.26660538 11.53538513 C795.08016495 11.79142517 795.89372452 12.04746521 796.73193741 12.31126404 C834.791988 24.6460216 865.95440895 50.9073232 884.26660538 86.59788513 C897.62696497 113.8506844 899.10889673 141.65841476 899.08781815 171.44763184 C899.08968821 173.95675183 899.09198969 176.46587154 899.09468347 178.97499079 C899.09951246 184.41441896 899.101259 189.85383442 899.10022736 195.29326439 C899.09869693 203.38249764 899.10287632 211.47172111 899.10810198 219.56095245 C899.11775491 234.85258067 899.12058546 250.14420553 899.12115904 265.43583644 C899.12161924 277.24882478 899.12368098 289.06181181 899.12685966 300.87479973 C899.12775726 304.27973872 899.12864708 307.68467772 899.12953454 311.08961672 C899.12975559 311.93618583 899.12997664 312.78275494 899.13020439 313.65497767 C899.13635556 337.45611455 899.14030526 361.25725099 899.13986111 385.05838871 C899.13984553 385.9550968 899.13982995 386.85180488 899.1398139 387.77568594 C899.1397308 392.32018567 899.13963176 396.86468539 899.13952919 401.40918512 C899.13949927 402.76292365 899.13949927 402.76292365 899.13946875 404.14401044 C899.13942831 405.96906899 899.13938652 407.79412754 899.13934336 409.61918609 C899.1387308 438.00523868 899.14623491 466.39127932 899.15991592 494.77732849 C899.17529405 526.69750088 899.1838811 558.61766541 899.1829527 590.53784174 C899.18287808 593.94498122 899.18282937 597.3521207 899.18279839 600.75926018 C899.18278673 601.59813193 899.18277508 602.43700369 899.18276307 603.3012958 C899.18273237 616.76966557 899.18910365 630.23802492 899.19773065 643.7063916 C899.20622928 657.25508033 899.20717982 670.8037539 899.20062133 684.35244382 C899.1969404 692.3887567 899.1987142 700.42502336 899.20856367 708.46133129 C899.21531376 714.48031854 899.21147087 720.49925208 899.20369045 726.51824003 C899.20216129 728.93944461 899.20394934 731.36065427 899.20955052 733.78185285 C899.28895184 770.56539587 899.28895184 770.56539587 894.70410538 787.16038513 C894.48722061 787.97869812 894.27033585 788.79701111 894.04687881 789.64012146 C889.09214418 807.68825335 880.70664518 825.1746959 868.95410538 839.78538513 C868.54434464 840.30052673 868.13458389 840.81566833 867.71240616 841.34642029 C844.59095264 870.24609393 811.01318669 889.87778599 774.65332413 896.37522888 C769.7609695 896.9176758 764.93502795 896.92983835 760.01660538 896.91038513 C759.10459366 896.91425232 758.19258194 896.91811951 757.2529335 896.92210388 C745.81125293 896.90695937 734.38189813 896.29963974 722.95410538 895.78538513 C723.022612 896.79941154 723.022612 896.79941154 723.09250259 897.83392334 C736.12193294 1091.26254651 736.12193294 1091.26254651 708.23926163 1124.46116638 C699.91116328 1132.93162539 688.31386255 1137.80917267 676.45410538 1138.22288513 C651.52940553 1137.06862986 632.8444428 1120.82956606 615.65719986 1104.37771606 C613.68852158 1102.53707401 611.66685495 1100.76319125 609.64599991 1098.97996521 C602.74255097 1092.77310999 596.21810271 1086.19380207 589.66113663 1079.62522888 C588.30228855 1078.2670562 586.94329222 1076.90903184 585.58415604 1075.55114746 C582.75280335 1072.72125969 579.9232431 1069.88959537 577.09497452 1067.05662537 C573.48752307 1063.44346641 569.87558472 1059.83483147 566.26229191 1056.22751522 C563.4610725 1053.42992481 560.66225818 1050.62993799 557.86414528 1047.8292408 C556.53374466 1046.49817795 555.20261427 1045.16784407 553.87071037 1043.83828545 C542.10037425 1032.08414199 542.10037425 1032.08414199 536.75322342 1025.80688477 C532.95929158 1021.54400059 528.84740931 1017.5722183 524.79776382 1013.55387878 C523.10417676 1011.87324273 521.41389761 1010.18933884 519.72436905 1008.50462341 C516.13710724 1004.92869976 512.54591418 1001.35674081 508.95410538 997.78538513 C504.78657565 993.6415869 500.62074563 989.49610852 496.45914078 985.34635925 C494.80678006 983.70040407 493.15140073 982.05752868 491.49585342 980.41477966 C486.71312796 975.65513175 482.0512127 970.85474054 477.66305923 965.72364807 C474.21766592 961.81594855 470.48877472 958.17807013 466.80176163 954.50022888 C465.94279785 953.64030838 465.08383408 952.78038788 464.19884109 951.89440918 C462.39233523 950.08722652 460.58458076 948.28129121 458.77563858 946.47654724 C456.02473728 943.7310012 453.27921317 940.98015968 450.5341835 938.22874451 C448.76953006 936.46475194 447.00456641 934.70106963 445.23926163 932.93772888 C444.42756012 932.12400314 443.61585861 931.3102774 442.77956009 930.47189331 C439.15917548 926.86618407 435.51587489 923.35687441 431.63672256 920.02952576 C428.66376005 917.47084156 426.16481401 914.83049903 423.74707413 911.72679138 C422.61495499 910.40711365 422.61495499 910.40711365 421.45996475 909.06077576 C419.93145202 907.27214544 418.4573567 905.43534099 417.04590225 903.55296326 C412.83454152 898.84696794 409.31499547 896.65375751 403.07519913 896.15818787 C397.97026418 896.0338245 392.8812871 896.243182 387.78214741 896.48905945 C381.74699333 896.77758779 375.71572174 896.90449263 369.67456436 896.99412537 C368.65714912 897.00942008 367.63973389 897.02471479 366.59148788 897.04047298 C364.45368947 897.07244149 362.31588854 897.10424284 360.17808533 897.13588905 C354.49711576 897.22486423 348.81658649 897.33610313 343.13599014 897.44602966 C125.09873255 901.6209887 125.09873255 901.6209887 -21.54589462 897.84788513 C-22.42896286 897.81036133 -23.3120311 897.77283752 -24.22185898 897.73417664 C-55.19361374 896.37674298 -55.19361374 896.37674298 -68.67089462 892.66038513 C-69.45029404 892.44865662 -70.22969345 892.2369281 -71.03271103 892.01878357 C-93.81497634 885.4381658 -112.29619279 871.30316938 -124.04589462 850.78538513 C-135.75243917 829.33329081 -134.98566832 804.64730633 -135.56347275 780.88328552 C-135.5844197 780.04541319 -135.60536665 779.20754086 -135.62694836 778.34427845 C-136.09022379 759.69496163 -136.34814997 741.04449002 -136.54826927 722.39073491 C-136.5778856 719.65041876 -136.60851799 716.91011548 -136.63938522 714.16981316 C-137.0804724 674.8514205 -137.31432278 635.53245396 -137.50475836 596.2121737 C-137.5561818 585.64525147 -137.61239402 575.07835522 -137.6689415 564.51145935 C-137.67676321 563.04905563 -137.67676321 563.04905563 -137.68474293 561.5571084 C-137.71114322 556.62445192 -137.7376161 551.69179583 -137.76414108 546.75914001 C-137.78530142 542.82214924 -137.80634645 538.88515787 -137.82728195 534.94816589 C-138.02555731 497.66211262 -138.24754915 460.37626382 -138.50102377 423.0905444 C-138.53537165 418.0191972 -138.5682486 412.94784206 -138.60033798 407.8764801 C-138.79775421 376.77912111 -139.09448666 345.68476168 -139.54589462 314.59007263 C-139.55644064 313.8588118 -139.56698666 313.12755097 -139.57785225 312.37413073 C-139.96810844 276.81616284 -139.96810844 276.81616284 -141.28002548 241.28489685 C-142.09764108 225.8982695 -142.36993243 210.51087054 -142.57852554 195.10613632 C-142.60875266 192.88406476 -142.64006272 190.66201047 -142.67156601 188.43995667 C-142.96301844 167.70115986 -143.14895818 146.96388424 -143.17089462 126.22288513 C-143.17348282 125.10714111 -143.17607101 123.99139709 -143.17873764 122.84184265 C-143.19819725 112.32993495 -143.14647789 101.83644661 -142.61230087 91.33616638 C-142.57512955 90.60103317 -142.53795822 89.86589996 -142.49966049 89.10848999 C-141.1676295 66.20364904 -134.51856064 45.75536057 -117.33886337 29.70726013 C-83.9989706 1.76309106 -41.8105731 -1.19294534 0 0 Z M-71.59276962 79.06272888 C-76.30101687 84.64428005 -75.32825847 92.35535715 -75.30468369 99.20506287 C-75.30818832 100.45692886 -75.31169296 101.70879486 -75.3153038 102.99859619 C-75.32259948 106.4352562 -75.32087682 109.87167518 -75.31454563 113.30832171 C-75.30943631 116.95652736 -75.31419478 120.60472357 -75.31731796 124.25292969 C-75.32096225 130.42253929 -75.3161661 136.59210116 -75.30663681 142.76170349 C-75.29711515 148.99578507 -75.29685223 155.22977075 -75.30663681 161.46385193 C-75.40902779 205.40031166 -75.40902779 205.40031166 -73.97562742 249.30749643 C-73.1868645 264.81430788 -72.75569024 280.30808281 -72.51171494 295.83250427 C-72.49129261 297.07749766 -72.47087029 298.32249104 -72.4498291 299.6052115 C-71.91405867 332.65909192 -71.7536282 365.71590502 -71.58703084 398.7733032 C-71.54067657 407.93183991 -71.48978584 417.09035017 -71.43865681 426.24886127 C-71.34699618 442.67915474 -71.25789302 459.10946087 -71.17089462 475.53977966 C-71.16574121 476.51289017 -71.16058779 477.48600067 -71.15527821 478.48859937 C-71.13442977 482.42649713 -71.11359273 486.36439495 -71.09276915 490.30229285 C-71.03576083 501.08197746 -70.9784481 511.86166044 -70.92089462 522.64134216 C-70.91574876 523.60530869 -70.91060289 524.56927521 -70.90530109 525.56245284 C-70.81789853 541.92167124 -70.72829317 558.28087703 -70.63737869 574.64007628 C-70.58698954 583.72480354 -70.53768779 592.80953387 -70.49145126 601.89428329 C-70.29821119 639.79913308 -70.03374976 677.70219751 -69.60056496 715.60515097 C-69.56999647 718.29958085 -69.54025899 720.99401874 -69.51072311 723.68846011 C-69.21851437 750.12417765 -68.6529014 776.53877666 -67.74120712 802.96116638 C-67.70988725 803.89404649 -67.67856737 804.8269266 -67.64629841 805.7880758 C-67.40812682 811.96625479 -66.56561979 818.21099137 -62.06542587 822.80882263 C-60.9729454 823.47784607 -60.9729454 823.47784607 -59.85839462 824.16038513 C-59.14296494 824.62186951 -58.42753525 825.08335388 -57.69042587 825.55882263 C-51.000443 828.66170981 -44.04780067 829.19889641 -36.78863144 829.62417603 C-35.79395654 829.68707923 -34.79928164 829.74998244 -33.77446508 829.8147918 C-30.4908179 830.01684118 -27.20660153 830.20411733 -23.92187119 830.38768005 C-22.77669793 830.45311205 -21.63152467 830.51854405 -20.45164919 830.58595884 C4.81686885 832.00286395 30.04186768 832.21430179 55.34357166 832.15543008 C61.63861386 832.14368824 67.93365246 832.14825693 74.22870255 832.150177 C84.85448625 832.15105146 95.48019886 832.14027638 106.10596085 832.12156677 C116.71633232 832.10289232 127.32662209 832.09565254 137.93701553 832.10105896 C219.02078067 832.1409981 300.05602711 831.29263715 381.11975479 829.49720764 C382.18417179 829.47381256 383.2485888 829.45041748 384.34526086 829.42631346 C389.32711156 829.31666924 394.30888962 829.20490078 399.29057312 829.08790112 C403.64684552 828.98653382 408.00314885 828.91093457 412.36002064 828.84094262 C415.06767515 828.78295281 417.77212403 828.68401356 420.47848129 828.58279991 C422.27003781 828.53620178 424.06161514 828.49039534 425.85321426 828.44546509 C426.66718084 828.4051738 427.48114741 828.36488251 428.31977963 828.32337028 C434.43297926 828.21346352 437.25126635 829.80321517 441.87598038 833.78929138 C443.61865616 835.48399353 443.61865616 835.48399353 444.85254288 836.97483826 C445.5578212 837.80640442 445.5578212 837.80640442 446.27734756 838.6547699 C446.74817764 839.21349792 447.21900772 839.77222595 447.70410538 840.34788513 C448.69639635 841.44951007 449.69379486 842.54655622 450.69629288 843.63890076 C452.55311333 845.66378664 454.36391953 847.70667754 456.16016006 849.7875824 C458.16431903 852.02851043 460.29068124 853.98392194 462.57976151 855.93186951 C467.16187839 859.91212132 471.45282242 864.1434983 475.73755264 868.43943787 C476.57603745 869.27617035 477.41452225 870.11290283 478.27841568 870.97499084 C481.02828858 873.72049005 483.77451965 876.46959847 486.52051163 879.21897888 C488.44249837 881.1407424 490.36508368 883.06190679 492.28758621 884.9831543 C496.30802568 889.00178087 500.32636692 893.02249645 504.34350967 897.04441833 C508.97001966 901.67636924 513.60012073 906.30470703 518.23210293 910.93118519 C522.22824798 914.92277397 526.22241818 918.91633102 530.2149815 922.91150242 C532.59111733 925.28918724 534.96809552 927.66601116 537.34647179 930.04145622 C540.00009972 932.69253071 542.6504774 935.34681377 545.30005264 938.00193787 C546.0758316 938.7756926 546.85161057 939.54944733 547.65089798 940.34664917 C551.73756023 944.44909526 555.64324686 948.64445779 559.42380047 953.03035069 C561.33250401 955.21935266 563.34024706 957.28478763 565.401371 959.33030701 C566.19909927 960.12473206 566.99682755 960.9191571 567.8187294 961.73765564 C568.65746597 962.56809387 569.49620255 963.3985321 570.36035538 964.25413513 C571.24388687 965.13388 572.12741837 966.01362488 573.03772354 966.92002869 C575.84075671 969.71093019 578.64690454 972.49867745 581.45410538 975.28538513 C585.15511088 978.95937252 588.85242359 982.63704115 592.54785538 986.31663513 C593.38659195 987.14707336 594.22532852 987.9775116 595.08948135 988.83311462 C598.6489785 992.37787265 602.1388091 995.93054482 605.41528702 999.73997498 C609.69959871 1004.72093465 614.34056893 1009.3340869 618.98144913 1013.98069763 C619.93883965 1014.9413117 620.8961594 1015.90199631 621.85341263 1016.86274719 C623.84769971 1018.86297783 625.84399727 1020.8611765 627.84155655 1022.85813904 C630.38260487 1025.39908557 632.91668693 1027.94685921 635.44907665 1030.49643135 C637.41977871 1032.47832301 639.39508139 1034.45558102 641.37164879 1036.43162155 C642.75709375 1037.81879624 644.13800521 1039.21049412 645.51878738 1040.60231018 C650.38749338 1045.45355209 655.29653487 1049.87202404 660.95410538 1053.78538513 C661.29419697 1012.99187396 661.19885562 972.44309296 658.17273331 931.73454285 C657.72836845 925.7403314 657.30206694 919.74478842 656.87685013 913.74919128 C656.55362728 909.19586545 656.22371338 904.64349491 655.8689003 900.09251404 C655.2463243 891.90787783 654.82195578 883.75307304 654.77051163 875.54319763 C654.76183563 874.77515305 654.75315964 874.00710846 654.74422073 873.21578979 C654.77346188 860.36885736 659.4815034 848.74427327 667.95410538 839.09788513 C677.56438057 830.04659687 689.31129872 827.60461934 702.01660538 827.66038513 C702.90154678 827.65651794 703.78648819 827.65265076 704.698246 827.64866638 C705.55740616 827.64995544 706.41656631 827.65124451 707.30176163 827.65257263 C708.46203873 827.65426453 708.46203873 827.65426453 709.64575577 827.6559906 C711.95410538 827.78538513 711.95410538 827.78538513 714.29544449 828.27865601 C716.84856215 828.76526905 719.20639105 828.95396259 721.80102921 829.02244568 C722.73582611 829.04884628 723.67062302 829.07524689 724.6337471 829.10244751 C725.63278564 829.12543411 726.63182419 829.14842072 727.66113663 829.17210388 C728.70049866 829.19762833 729.73986069 829.22315277 730.81071854 829.24945068 C733.0069769 829.30137604 735.20329533 829.35081267 737.39966202 829.39793396 C740.7443543 829.4723898 744.08835371 829.56315503 747.432621 829.65452576 C749.57127026 829.7030588 751.70994192 829.75061658 753.84863663 829.79710388 C755.3380854 829.84069283 755.3380854 829.84069283 756.85762405 829.88516235 C775.11056283 830.21270158 792.5368361 820.61041518 805.95410538 808.78538513 C806.78941788 808.05706482 807.62473038 807.32874451 808.48535538 806.57835388 C822.20027876 793.81585573 830.52046191 776.14998404 831.23346794 757.41802239 C831.382699 750.78572811 831.35929979 744.15357488 831.34178543 737.52003479 C831.34596178 734.94547731 831.35144095 732.37092167 831.35810524 729.79636943 C831.37042956 724.21408239 831.371703 718.63187946 831.36555481 713.04958344 C831.35643648 704.74819698 831.36451758 696.44688785 831.37584605 688.14550731 C831.39548513 673.31573681 831.39786568 658.48600132 831.39265085 643.65622091 C831.38808915 630.67699179 831.3886985 617.6977765 831.3944912 604.71854782 C831.39524807 602.97581147 831.39600405 601.23307512 831.39675914 599.49033877 C831.39790437 596.86401719 831.39905425 594.23769562 831.40021838 591.61137406 C831.41091919 567.2029314 831.41565292 542.79449334 831.40774822 518.38604927 C831.40745105 517.46647219 831.40715388 516.5468951 831.4068477 515.59945205 C831.4043989 508.13240332 831.40178724 500.66535464 831.39916356 493.19830597 C831.38906155 464.07382739 831.39741739 434.94940646 831.42065811 405.82493591 C831.44674371 373.08260943 831.45957523 340.34031764 831.45247036 307.59798038 C831.45175433 304.10527158 831.45107994 300.61256278 831.45042992 297.11985397 C831.4501752 295.82991978 831.4501752 295.82991978 831.44991534 294.51392632 C831.44761471 281.54640712 831.45557807 268.5789202 831.46872139 255.61140823 C831.48364604 240.86033734 831.4844578 226.10934198 831.46665048 211.35827269 C831.45710226 203.10979322 831.45849203 194.86149006 831.47588517 186.61302245 C831.48764321 180.44496147 831.47836216 174.27709693 831.4610628 168.10905276 C831.45730045 165.62064392 831.46023141 163.13221365 831.47067445 160.64382388 C831.56177485 137.26699949 828.49892983 119.1721048 812.95410538 100.78538513 C812.18066788 99.81343201 811.40723038 98.84147888 810.61035538 97.84007263 C802.5019664 88.14565717 791.42751846 82.47429139 779.95410538 77.78538513 C779.15488663 77.44765076 778.35566788 77.10991638 777.53223038 76.76194763 C766.58936906 72.60695142 753.94014525 72.48865534 742.38659763 72.46120262 C741.10197656 72.45045306 739.81735549 72.43970351 738.49380651 72.42862821 C734.96068344 72.3993272 731.42758837 72.38170772 727.89438169 72.36615671 C724.03773917 72.34704996 720.18118058 72.31679679 716.3246004 72.28800642 C709.57554102 72.2391369 702.82646693 72.19727891 696.07733345 72.16009712 C686.0398109 72.10476833 676.00238133 72.03847456 665.96494095 71.96999432 C649.06840196 71.85503124 632.1718182 71.74893289 615.27519035 71.6479454 C598.52708254 71.54782277 581.77900607 71.44383993 565.03095436 71.33472061 C563.46614097 71.32452923 563.46614097 71.32452923 561.86971519 71.31413196 C556.57062331 71.2796015 551.27153186 71.24500512 545.97244056 71.21038504 C508.43992729 70.96531198 470.90736228 70.72922615 433.37475967 70.49827576 C397.00688792 70.27447819 360.63904958 70.04607253 324.27124405 69.81175232 C322.59298832 69.80094148 322.59298832 69.80094148 320.88082843 69.78991224 C310.75852895 69.7247044 300.63622974 69.65945499 290.51393079 69.59416582 C249.52134924 69.32980766 208.52874674 69.06871058 167.53613663 68.80882263 C165.98028015 68.79895648 165.98028015 68.79895648 164.39299223 68.78889101 C139.23431386 68.62936901 114.07562956 68.47086088 88.91692505 68.31550978 C87.04377467 68.30394239 85.17062428 68.29237433 83.29747391 68.28080559 C82.37982016 68.27513847 81.46216641 68.26947135 80.51670498 68.26363251 C74.21673885 68.22467145 67.91677643 68.18514703 61.61681557 68.14534569 C54.05481175 68.09757768 46.49280349 68.05060677 38.93078851 68.00463905 C35.13869556 67.98157025 31.34660537 67.95819609 27.5545207 67.9338017 C20.10711821 67.88612782 12.65976758 67.84477791 5.21226079 67.81589349 C0.7552887 67.79733093 -3.70139769 67.76396854 -8.15823062 67.72443613 C-11.39702899 67.69779099 -14.63584241 67.68002212 -17.87470847 67.66389081 C-19.4143145 67.65439933 -20.95390391 67.64137674 -22.49344518 67.624362 C-39.6042989 67.43946937 -57.35956743 68.44971072 -71.59276962 79.06272888 Z " fill="#1E2A33" transform="translate(1191.0458946228027,782.2146148681641)"/>
<path d="M0 0 C1.35815962 -0.00239647 2.71631793 -0.00566588 4.07447362 -0.0097166 C7.7803371 -0.01826943 11.48609822 -0.01453839 15.19196307 -0.00866088 C19.23375651 -0.00446743 23.27553206 -0.01190556 27.31732106 -0.01781338 C34.39258595 -0.02655571 41.46782188 -0.02789451 48.54309082 -0.02431011 C59.06462397 -0.01899392 69.58612919 -0.02510763 80.10765931 -0.03339304 C99.9941112 -0.04862292 119.88055034 -0.05033915 139.76700684 -0.04787002 C155.12502634 -0.04603642 170.48304166 -0.04779838 185.84106064 -0.05209446 C188.04857731 -0.05269686 190.25609399 -0.05329806 192.46361066 -0.05389806 C195.79024765 -0.05480533 199.11688464 -0.055714 202.44352163 -0.05663041 C233.36792656 -0.06505847 264.29232992 -0.06939666 295.21673584 -0.06522369 C296.38221729 -0.06506732 297.54769874 -0.06491094 298.74849781 -0.06474983 C304.65543684 -0.06394406 310.56237587 -0.06309829 316.4693149 -0.06223653 C317.64242293 -0.06206544 318.81553096 -0.06189435 320.02418771 -0.06171808 C322.39649627 -0.06137142 324.76880482 -0.06102289 327.14111337 -0.06067249 C364.05295369 -0.05531548 400.96477012 -0.06324575 437.87660599 -0.08170605 C479.36095525 -0.10242891 520.84528971 -0.11314822 562.32964444 -0.10913056 C566.75424655 -0.10873522 571.17884866 -0.10837368 575.60345078 -0.10803318 C576.69287504 -0.10794245 577.7822993 -0.10785172 578.90473641 -0.10775824 C595.33979078 -0.106593 611.77483019 -0.11323493 628.20988083 -0.1238451 C646.90465879 -0.13590191 665.59940382 -0.13745049 684.29418227 -0.12505493 C694.75066109 -0.11843177 705.20706116 -0.12004489 715.66353366 -0.13364345 C722.65600956 -0.141902 729.64842661 -0.13917215 736.64089775 -0.12766818 C740.61971303 -0.12142572 744.59837491 -0.1197746 748.57718119 -0.13153151 C767.5968027 -0.18396041 785.81943246 0.21900555 804.11488724 6.00447559 C804.94343216 6.26196583 805.77197708 6.51945606 806.62562943 6.78474903 C842.46952475 18.24653974 873.08098843 43.34063432 891.11879349 76.45369434 C900.34351225 94.75174686 906.3606073 114.77025041 907.43886185 135.28889942 C907.49283442 136.29384559 907.49283442 136.29384559 907.54789734 137.3190937 C907.66585877 139.53307647 907.77916009 141.74726933 907.89223099 143.96150684 C907.97496928 145.53987488 908.05788452 147.11823366 908.14096451 148.69658375 C908.40895992 153.81975425 908.66905326 158.94330986 908.92738724 164.06697559 C908.97179443 164.9462484 909.01620163 165.8255212 909.0619545 166.73143864 C909.68687893 179.1257202 910.29194663 191.52090021 910.8791008 203.91702747 C910.98213216 206.09085369 911.08584888 208.26464624 911.1896553 210.43843555 C912.68207234 241.95527336 913.18537336 273.44457562 913.2348671 304.99230289 C913.23980541 307.70945451 913.24771169 310.42658447 913.25612259 313.1437273 C913.48428823 398.84781726 913.48428823 398.84781726 886.98988724 429.25447559 C886.2899263 430.08720997 885.58996536 430.91994434 884.86879349 431.77791309 C875.8337856 442.2462823 864.645154 450.06536925 853.68788528 458.38094044 C847.3353178 463.20764334 841.08313548 468.10216374 834.98988724 473.25447559 C834.44284134 473.71273731 833.89579544 474.17099903 833.33217239 474.64314747 C813.90559331 490.92991696 797.92274018 507.18509031 793.98988724 533.25447559 C793.78960941 537.62977577 793.94307165 541.94493331 794.13903332 546.31766796 C794.95156129 564.94270863 795.26172623 583.57993029 795.52113724 602.21931934 C795.53172133 602.96881926 795.54230543 603.71831917 795.55321026 604.49053121 C796.13911889 646.21058893 796.21137654 687.93290461 796.22870898 729.65648961 C796.23350475 740.98699737 796.25131538 752.31738896 796.27978253 763.64786166 C796.30140595 772.57258723 796.31148497 781.49727976 796.31282306 790.42203122 C796.31386157 795.69029985 796.31957562 800.95845495 796.33764267 806.22669506 C796.35415717 811.12696116 796.35626277 816.0270278 796.34750366 820.9273119 C796.34673779 822.71024394 796.35101595 824.49318711 796.36096191 826.27609158 C796.45790459 844.73913729 793.76892736 861.14273346 780.46254349 875.00447559 C758.03278649 895.41449144 727.90664912 891.54713002 699.98988724 890.25447559 C694.71203975 889.9763442 689.43591952 889.67158378 684.15994644 889.36037159 C645.45617533 887.08722696 606.76814972 885.36328098 568.01104153 884.2982453 C562.89830908 884.15725152 557.78573417 884.01116266 552.67323685 883.86189747 C551.65643734 883.83229727 550.63963784 883.80269707 549.59202623 883.7721999 C535.34410609 883.3467817 521.13360765 882.6454106 506.90980403 881.71929282 C482.26664168 880.11526597 457.66134332 879.05436961 432.96254349 878.98885059 C432.00246228 878.98529946 431.04238108 878.98174832 430.0532065 878.97808957 C373.70158267 878.86370376 334.54493505 889.50722614 293.6916242 929.54194245 C271.86394936 951.30226684 252.21322618 975.17015331 233.96566296 999.9753809 C229.23328955 1006.36598827 224.0944053 1012.28927091 218.45082474 1017.89119434 C217.63307571 1018.70564014 216.81532669 1019.52008595 215.97279739 1020.35921192 C215.11218704 1021.21152393 214.25157669 1022.06383595 213.36488724 1022.94197559 C212.4591597 1023.84391651 211.55343216 1024.74585743 210.62025833 1025.67512989 C207.26067418 1029.02053003 203.89657461 1032.36135952 200.53212357 1035.70186329 C197.22354373 1038.98739359 193.91886243 1042.2768135 190.61488724 1045.56697559 C189.75427689 1046.41928761 188.89366653 1047.27159962 188.00697708 1048.14973927 C183.65920478 1052.47994914 179.47945604 1056.88047595 175.48033524 1061.53471851 C173.61795945 1063.68362538 171.65878185 1065.71499419 169.65004349 1067.72713184 C168.89658646 1068.48187794 168.14312943 1069.23662403 167.36684036 1070.01424122 C166.60307083 1070.77414356 165.8393013 1071.53404591 165.05238724 1072.31697559 C164.29248489 1073.08074512 163.53258255 1073.84451466 162.74965286 1074.63142872 C158.56170155 1078.81222726 154.28011647 1082.80567919 149.79628372 1086.66634083 C147.23470319 1088.91841291 144.87308445 1091.31385194 142.48988724 1093.75447559 C138.15157584 1098.13807053 133.74088002 1102.32043149 128.98988724 1106.25447559 C128.46411087 1106.69404591 127.9383345 1107.13361622 127.39662552 1107.58650684 C108.9716081 1122.92972376 91.63783166 1133.47167438 66.98988724 1131.25447559 C57.33593308 1129.21420693 50.63960402 1124.37413702 43.98988724 1117.25447559 C43.34277786 1116.57642872 42.69566849 1115.89838184 42.02894974 1115.19978809 C21.38005684 1091.30478103 23.76850757 1048.50896365 23.80238724 1019.00447559 C23.80299149 1018.01482807 23.80359573 1017.02518055 23.80421829 1016.00554371 C23.87318467 973.66565196 26.96359693 931.46438533 29.98988724 889.25447559 C29.32988724 889.58447559 28.66988724 889.91447559 27.98988724 890.25447559 C26.22000274 890.40846616 24.44489631 890.50426702 22.66957474 890.57088184 C21.04257645 890.63420704 21.04257645 890.63420704 19.3827095 890.69881153 C18.22182816 890.73780567 17.06094681 890.77679981 15.86488724 890.81697559 C14.68015823 890.8572588 13.49542923 890.897542 12.27479935 890.93904591 C9.9112181 891.01581593 7.547527 891.0892833 5.18373489 891.15926075 C3.29000108 891.21571666 1.3963702 891.2762678 -0.49692917 891.34578419 C-34.21328304 892.56127616 -66.07191831 879.26509749 -92.01011276 858.25447559 C-92.84687546 857.58593555 -92.84687546 857.58593555 -93.70054245 856.90388966 C-123.38296567 833.04989593 -140.73698741 798.99542189 -145.40696263 761.39903736 C-146.56786694 750.70056096 -146.42310566 739.96668149 -146.39106369 729.21931934 C-146.39452801 726.65863312 -146.39929773 724.09794839 -146.40524542 721.53726673 C-146.41598506 716.00991012 -146.41581139 710.48264171 -146.40810394 704.95528126 C-146.39667359 696.73539035 -146.40260032 688.51557273 -146.41172886 680.29568219 C-146.42746504 665.60802535 -146.42618137 650.92040783 -146.41749213 636.23274732 C-146.40992567 623.37882051 -146.40798455 610.52490807 -146.41156006 597.6709795 C-146.41178921 596.81614951 -146.41201837 595.96131953 -146.41225447 595.0805856 C-146.41318858 591.60997448 -146.4141438 588.13936336 -146.41513376 584.66875225 C-146.42429711 552.15576177 -146.41601207 519.64279624 -146.39984307 487.12980962 C-146.38560778 458.28593491 -146.38688172 429.44209995 -146.40122604 400.59822559 C-146.41731304 368.14217997 -146.42364707 335.68615636 -146.41438925 303.23010731 C-146.4134272 299.76606211 -146.41248867 296.3020169 -146.41156006 292.83797169 C-146.41132283 291.9851247 -146.41108559 291.13227772 -146.41084117 290.25358689 C-146.40743828 277.41224294 -146.41140176 264.57091498 -146.41899872 251.72957325 C-146.4275998 237.11868022 -146.42538251 222.50783244 -146.40915649 207.896945 C-146.40038874 199.73414313 -146.39971266 191.5714394 -146.41109501 183.40864021 C-146.41867621 177.29403988 -146.41037364 171.17955352 -146.39617129 165.06496716 C-146.39284499 162.60630093 -146.39446846 160.14762143 -146.40179865 157.68896389 C-146.49819539 122.64297853 -140.64674735 88.90258421 -119.01011276 60.25447559 C-118.37202682 59.39595997 -117.73394089 58.53744434 -117.07651901 57.65291309 C-92.20301826 25.77345467 -57.71627237 6.28180408 -17.83779225 0.68645016 C-11.88418572 0.0145531 -5.98573825 -0.02147369 0 0 Z M-34.32261276 75.00447559 C-34.9801152 75.34809132 -35.63761765 75.69170704 -36.3150444 76.04573536 C-56.12630821 86.666082 -69.69523588 102.70747289 -76.38946374 124.09349648 C-78.59116466 131.75939064 -79.30108634 139.11272783 -79.26458836 147.06335449 C-79.26779483 148.11043718 -79.27100131 149.15751986 -79.27430496 150.23633233 C-79.28259357 153.73821984 -79.27668454 157.23993581 -79.27080917 160.74182606 C-79.27383037 163.28064439 -79.2777197 165.81946181 -79.28240174 168.35827762 C-79.29054611 173.87483786 -79.29248116 179.39134622 -79.28889847 184.90791035 C-79.28358476 193.11157172 -79.28969353 201.31519724 -79.2979814 209.51885472 C-79.31321588 225.02463366 -79.31492699 240.53039626 -79.31245837 256.03618111 C-79.31062502 268.01188488 -79.31238621 279.9875833 -79.31668282 291.9632864 C-79.31728522 293.68443466 -79.31788642 295.40558293 -79.31848642 297.12673119 C-79.31939368 299.7204233 -79.32030235 302.31411541 -79.32121877 304.90780752 C-79.32964767 329.02116748 -79.33398448 353.13452543 -79.32981205 377.24788666 C-79.32965567 378.15679014 -79.3294993 379.06569362 -79.32933818 380.00213964 C-79.32853241 384.6087063 -79.32768664 389.21527295 -79.32682488 393.82183959 C-79.32665379 394.73669907 -79.32648271 395.65155855 -79.32630643 396.59414104 C-79.32595978 398.44420949 -79.32561125 400.29427794 -79.32526085 402.14434639 C-79.31990469 430.92577853 -79.32783132 459.70718003 -79.3462944 488.48860645 C-79.36701967 520.83425867 -79.37773603 553.17989191 -79.37371892 585.52555114 C-79.37332358 588.97589608 -79.37296203 592.42624102 -79.37262154 595.87658596 C-79.3725308 596.72613031 -79.37244007 597.57567465 -79.37234659 598.45096277 C-79.37118154 611.26514614 -79.37782197 624.07931031 -79.38843346 636.89348888 C-79.40049342 651.47156588 -79.40203531 666.04960066 -79.38964329 680.6276783 C-79.38302258 688.78078445 -79.38462749 696.93378959 -79.3982318 705.08688763 C-79.40746822 711.18233307 -79.40093967 717.27765626 -79.38838401 723.37310014 C-79.38573374 725.83334785 -79.38811392 728.29360739 -79.39611987 730.75384351 C-79.47777847 757.72639483 -75.44142196 780.11946645 -56.38511276 800.44197559 C-42.52264906 813.61987319 -23.45702216 824.60190072 -3.94761276 824.26619434 C-1.30045037 824.17051978 1.34398455 824.06289316 3.98988724 823.94197559 C5.37974798 823.8864848 6.76964119 823.83180168 8.15956497 823.77791309 C12.10390519 823.62072655 16.04679622 823.44039634 19.98988724 823.25447559 C20.98004837 823.20887501 21.9702095 823.16327442 22.99037552 823.116292 C31.50218932 822.78131001 31.50218932 822.78131001 39.94301224 821.73885059 C50.04743986 820.13250569 60.41530998 820.59141804 69.98988724 824.25447559 C70.82906693 824.57158497 71.66824661 824.88869434 72.53285599 825.21541309 C83.68992014 830.09338533 90.29024525 838.43861263 94.93129349 849.46931934 C97.3711671 855.88861781 97.27649836 861.75889358 97.30238724 868.56697559 C97.30567032 869.27687641 97.3089534 869.98677723 97.31233597 870.71819019 C97.33609977 887.20332017 96.21979709 903.62695529 95.11488724 920.06697559 C95.06942387 920.7460157 95.02396049 921.42505581 94.97711945 922.12467289 C94.32667829 931.83543206 93.6592175 941.5450013 92.98988724 951.25447559 C91.52506539 972.50496234 90.8138841 993.63522724 90.80238724 1014.94197559 C90.80129959 1016.03522144 90.80021194 1017.12846729 90.79909134 1018.2548418 C90.79944618 1021.38369592 90.80858789 1024.51237084 90.82191849 1027.64119434 C90.82313202 1028.56564854 90.82434555 1029.49010273 90.82559586 1030.44257069 C90.86822243 1036.43288555 91.31133719 1042.30442401 91.98988724 1048.25447559 C96.85772075 1044.19633505 101.44307927 1039.94577525 105.91566849 1035.45808887 C106.56868942 1034.80682026 107.22171036 1034.15555164 107.89451981 1033.48454762 C110.03298211 1031.35045369 112.16780395 1029.21276139 114.30238724 1027.07478809 C115.8000441 1025.57780579 117.2978493 1024.08097189 118.79579544 1022.58427906 C121.92755028 1019.45399448 125.05749988 1016.32191896 128.1861763 1013.18855762 C132.18046719 1009.18857484 136.17922448 1005.19309206 140.17935562 1001.19895077 C143.27138688 998.11054749 146.36101457 995.0197485 149.44993973 991.92823887 C150.92268522 990.45483004 152.39616354 988.98215331 153.87041092 987.51024723 C155.93741699 985.44580401 158.00115117 983.37814194 160.06410599 981.30965137 C160.96363495 980.41315876 160.96363495 980.41315876 161.88133621 979.49855518 C164.86614689 976.49902158 167.7318987 973.44124631 170.50136185 970.24101734 C173.76378922 966.47127964 177.19226162 962.92296768 180.73207474 959.41463184 C181.36558853 958.78257832 181.99910233 958.15052479 182.65181351 957.49931812 C184.01307757 956.14182813 185.37549441 954.7854933 186.73897171 953.43022633 C188.90299765 951.27909222 191.06377201 949.1247377 193.22377396 946.96956348 C198.58632396 941.62030506 203.9543277 936.27653034 209.32216263 930.93257618 C213.8685171 926.40602581 218.41276799 921.87738298 222.95430374 917.34599781 C225.07201629 915.23471635 227.19274271 913.12649551 229.31361771 911.01839161 C234.71481965 905.63683954 240.04714661 900.3083115 244.93779469 894.45303726 C246.99422385 892.24982945 249.20621433 890.32604398 251.48493868 888.35853571 C257.74882859 882.85852595 263.09874227 877.00119318 268.10830214 870.34952656 C285.47946139 847.29338239 305.01679938 823.18047708 335.08845899 818.74033286 C357.36823823 815.92807531 380.03885476 816.74663077 402.42433703 817.55988479 C413.77443395 817.9609786 425.1208423 818.03631801 436.4770161 818.09866201 C456.71255276 818.21796734 476.93564231 818.58089125 497.16444778 819.10530567 C516.77092611 819.61304635 536.37397993 820.00088025 555.98573685 820.23323536 C557.20192923 820.24768515 558.41812162 820.26213494 559.67116832 820.27702261 C565.7746998 820.34881884 571.87825486 820.41831817 577.98182571 820.48667729 C628.32643267 821.053482 678.65754255 822.01910349 728.98988724 823.25447559 C729.0136794 801.28965238 729.03108597 779.32483141 729.04169941 757.35999775 C729.04676731 747.15196763 729.05364906 736.94394578 729.06532669 726.73592091 C729.1099168 686.88744006 729.13173596 647.04168859 728.58007121 607.19622707 C728.5491355 604.95807842 728.51918231 602.71991811 728.48929405 600.48175526 C728.26731643 584.16222653 727.86732564 567.86236107 727.09692669 551.55846882 C725.23641686 511.51153307 736.32831109 477.87038938 763.36488724 448.19197559 C765.2215359 446.19491089 767.10063327 444.22068491 768.98988724 442.25447559 C769.47747513 441.74497364 769.96506302 441.23547169 770.4674263 440.71053028 C776.31262449 434.63685529 782.2974527 428.96011032 788.90785599 423.71150684 C791.22975825 421.86045929 793.51691813 419.98729223 795.79066849 418.07869434 C803.32119269 411.77237036 810.95939929 405.7505754 818.92738724 400.00447559 C830.04956404 391.91754508 840.87895512 383.9264102 843.69301224 369.69978809 C846.49948156 349.45311652 846.30555369 328.83931298 846.36488724 308.44197559 C846.36763027 307.68601974 846.37037331 306.9300639 846.37319946 306.15120029 C846.48449459 271.75480107 845.07180016 237.42424326 843.55238724 203.06697559 C843.49469917 201.76056992 843.43701111 200.45416424 843.37757492 199.10817051 C842.98762186 190.30887244 842.5886144 181.51001771 842.18129349 172.71150684 C842.12855963 171.57085396 842.07582577 170.43020107 842.02149391 169.25498295 C840.53995479 137.42489522 839.02508352 110.087109 814.55629349 86.95369434 C804.34868459 78.32164413 792.94839969 72.41967452 779.98988724 69.25447559 C779.38992844 69.08765654 778.78996964 68.92083749 778.17183027 68.74896332 C771.3538657 66.99819532 764.73820479 66.97368546 757.72998333 66.99720669 C756.39239459 66.99451007 755.05480738 66.9909404 753.71722302 66.98658222 C750.04518127 66.97715037 746.37323906 66.98011636 742.70119251 66.98513776 C738.70477969 66.98840971 734.7083879 66.98011742 730.71198183 66.97331941 C723.70870536 66.96301789 716.70545653 66.96017588 709.70217323 66.96223164 C699.28770862 66.96528124 688.8732746 66.9569585 678.45881594 66.94648238 C658.7754724 66.92713586 639.09213928 66.92151391 619.40878736 66.92036827 C604.20747679 66.91944929 589.00617031 66.91533314 573.80486107 66.90896702 C569.4296001 66.90717193 565.05433913 66.90539231 560.67907816 66.90361726 C559.5913786 66.90317517 558.50367903 66.90273307 557.38301888 66.90227758 C526.785491 66.88996818 496.18796454 66.88207654 465.59043407 66.88296413 C464.43671785 66.88299529 463.28300163 66.88302645 462.09432431 66.88305855 C456.24678416 66.88322477 450.39924401 66.88342285 444.55170386 66.88362797 C443.3903582 66.88366786 442.22901254 66.88370775 441.03247458 66.88374885 C438.68394963 66.88382972 436.33542468 66.88391332 433.98689973 66.88399963 C397.45182822 66.885225 360.91679383 66.87021492 324.38173294 66.8428545 C283.33582061 66.81212867 242.28993268 66.79492233 201.24400812 66.79678094 C196.86654667 66.79693021 192.48908522 66.79702762 188.11162376 66.79708958 C186.49485888 66.79712454 186.49485888 66.79712454 184.84543209 66.79716021 C167.50489528 66.79722174 150.16439073 66.78445338 132.82386351 66.76722505 C115.39312237 66.75026539 97.96242838 66.74829733 80.53168356 66.76144369 C70.17920923 66.76883077 59.82687817 66.7651821 49.47441904 66.74555901 C42.55364653 66.73355027 35.63297767 66.73616004 28.71220989 66.75050001 C24.77258349 66.75825547 20.83323415 66.7598368 16.8936274 66.7435853 C-9.55714975 66.4769723 -9.55714975 66.4769723 -34.32261276 75.00447559 Z " fill="#1E2A33" transform="translate(199.01011276245117,345.7455244064331)"/>
<path d="M0 0 C9.22910256 -0.10537495 18.35120462 0.16440131 27.5546875 0.83984375 C28.78107941 0.92625626 30.00747131 1.01266876 31.27102661 1.10169983 C33.83742528 1.28349807 36.40365904 1.46763871 38.96972656 1.65405273 C42.88569593 1.93827632 46.80215016 2.21484845 50.71875 2.49023438 C53.22659423 2.6688258 55.73440789 2.84784717 58.2421875 3.02734375 C59.40378387 3.10967758 60.56538025 3.19201141 61.76217651 3.27684021 C67.53669089 3.69861139 73.26342691 4.21328747 79 5 C79.44855246 12.80813545 79.23459805 20.58101629 74.453125 27.11328125 C70.88051716 30.93091308 68.00461063 32.40845475 63 34 C62.94465088 35.04752441 62.88930176 36.09504883 62.83227539 37.17431641 C62.6229565 41.12930114 62.41193179 45.08419345 62.20043945 49.0390625 C62.10981813 50.73793168 62.0196353 52.43682431 61.92993164 54.13574219 C61.38591463 64.43255568 60.78321207 74.71810163 60 85 C80.42427847 83.76995534 100.84855557 82.53951375 121.26806641 81.23242188 C124.66117938 81.02110148 128.05471073 80.82789369 131.44921875 80.640625 C181.22767344 77.73969426 234.06135239 73.83427656 282.109375 59.69921875 C284.88285158 59.02833725 287.16611083 58.94660356 290 59 C292.32887045 69.71163084 293.91229413 80.36227342 295.125 91.25 C295.29502971 92.72662515 295.46560126 94.20318801 295.63671875 95.6796875 C296.52938625 103.44387925 297.34504327 111.21166464 298 119 C277.55009962 124.36952692 256.92134149 127.99690463 236 131 C235.25387451 131.11082916 234.50774902 131.22165833 233.73901367 131.33584595 C217.62500797 133.72293493 201.48040531 135.21738608 185.25 136.5625 C182.77600002 136.77229598 180.30204146 136.98258091 177.828125 137.19335938 C171.71752749 137.71172074 165.6059379 138.21681366 159.49362183 138.71447754 C157.23622548 138.89896727 154.9789894 139.08543354 152.72195435 139.27429199 C134.85440941 140.76804283 116.98004257 141.72132658 99.0713501 142.52801514 C96.18934049 142.65900433 93.30755333 142.79457286 90.42575741 142.93017006 C87.61096247 143.06224213 84.79607066 143.19214218 81.98114204 143.32133102 C80.02424854 143.41133042 78.06741343 143.50259668 76.11058044 143.59390259 C74.3154879 143.6743129 74.3154879 143.6743129 72.48413086 143.75634766 C71.44558456 143.80360992 70.40703827 143.85087219 69.33702087 143.89956665 C65.22640562 144.02328265 61.11247656 144 57 144 C56.67 164.46 56.34 184.92 56 206 C62.6 204.35 69.2 202.7 76 201 C79.83097115 200.33741065 83.53015692 199.73677119 87.375 199.3125 C88.32866455 199.1993042 89.2823291 199.0861084 90.26489258 198.96948242 C93.17513953 198.63142706 96.08717551 198.31495382 99 198 C99.89412598 197.89558594 100.78825195 197.79117188 101.70947266 197.68359375 C117.4775754 195.85002596 133.13951808 195.77337188 149 196 C149.1340625 194.70964844 149.268125 193.41929687 149.40625 192.08984375 C149.94829276 187.21813904 150.68712444 182.39548784 151.5 177.5625 C151.69529297 176.36077148 151.69529297 176.36077148 151.89453125 175.13476562 C152.87672843 169.24654314 152.87672843 169.24654314 154 167 C165.58699389 169.41021449 176.99785468 172.29403392 188.41308594 175.41650391 C197.23141656 177.81996196 206.0821563 180.00031638 215 182 C215.94149202 185.01126001 216.00728267 186.98386512 215.2578125 190.0390625 C215.07863281 190.78414062 214.89945313 191.52921875 214.71484375 192.296875 C214.42287109 193.44929688 214.42287109 193.44929688 214.125 194.625 C213.93808594 195.40101563 213.75117187 196.17703125 213.55859375 196.9765625 C212.16477997 202.67044005 212.16477997 202.67044005 211 205 C212.19367188 205.07476563 213.38734375 205.14953125 214.6171875 205.2265625 C221.382297 205.98938601 227.70275903 208.20417857 234.125 210.375 C234.77974304 210.59420105 235.43448608 210.8134021 236.10906982 211.03924561 C253.36703913 216.85375293 270.37021885 223.9804713 285 235 C285.77859375 235.57105469 286.5571875 236.14210938 287.359375 236.73046875 C293.21318261 241.14101 298.64574633 246.00104403 304 251 C304.8146875 251.74894531 305.629375 252.49789062 306.46875 253.26953125 C323.68507142 269.69586324 335.28192247 291.31471924 342 314 C342.19674316 314.64710938 342.39348633 315.29421875 342.59619141 315.9609375 C353.70061066 353.23137246 350.39762115 397.03720502 332.00390625 431.4140625 C303.54868275 482.92524332 250.64743132 506.87845593 196.69970703 522.98535156 C167.67654191 531.34228955 135.3134294 538.49694147 105 538 C104.79246094 537.175 104.58492187 536.35 104.37109375 535.5 C100.21524098 519.91989926 93.35915988 506.4443594 85.26782227 492.54125977 C84.71666748 491.59178467 84.1655127 490.64230957 83.59765625 489.6640625 C83.09758057 488.81279785 82.59750488 487.9615332 82.08227539 487.08447266 C81 485 81 485 81 483 C82.20438721 482.89510254 82.20438721 482.89510254 83.43310547 482.78808594 C126.09848079 479.01475117 170.51387083 473.50462189 210 456 C211.04269043 455.54197998 211.04269043 455.54197998 212.10644531 455.07470703 C240.53617361 442.48195951 265.76742803 424.93117588 278.64453125 395.62109375 C285.74388382 376.65538819 285.94049886 356.52293904 281 337 C280.83371094 336.34193359 280.66742187 335.68386719 280.49609375 335.00585938 C274.62204803 312.4886841 261.80095264 293.65232492 242 280.9375 C225.70252134 271.39845443 209.24936142 265.52681601 191 261 C190.8764917 261.72622559 190.7529834 262.45245117 190.62573242 263.20068359 C190.01013268 265.95466982 189.15246848 268.22421651 187.98828125 270.7890625 C187.35720459 272.18064575 187.35720459 272.18064575 186.71337891 273.6003418 C186.25108887 274.598479 185.78879883 275.59661621 185.3125 276.625 C184.82700684 277.67534424 184.34151367 278.72568848 183.84130859 279.80786133 C163.71779936 322.86937879 137.94067473 363.58523323 105.40625 398.41015625 C103.42128739 400.54656893 101.51068511 402.71442515 99.625 404.9375 C97.42718933 407.51424354 95.10539332 409.87718881 92.6484375 412.203125 C92.04950684 412.77683838 91.45057617 413.35055176 90.83349609 413.94165039 C89.62777034 415.08973892 88.40954166 416.22486299 87.17822266 417.34545898 C83.92726868 420.31848209 83.92726868 420.31848209 82.8984375 424.4140625 C84.38018054 427.89248055 85.91571832 431.31597378 87.625 434.6875 C87.97820312 435.39213379 88.33140625 436.09676758 88.6953125 436.82275391 C91.31134299 441.92751697 94.27623804 446.60486706 97.75 451.1796875 C99 453 99 453 99 455 C97.17773438 456.3659668 97.17773438 456.3659668 94.59375 457.94921875 C93.63307617 458.54323486 92.67240234 459.13725098 91.68261719 459.74926758 C90.63235352 460.38888428 89.58208984 461.02850098 88.5 461.6875 C86.30711991 463.0387838 84.11441689 464.390355 81.921875 465.7421875 C80.77279287 466.44760159 79.62370427 467.15300514 78.47460938 467.85839844 C71.84125833 471.93798851 65.26088052 476.10317213 58.66992188 480.25073242 C57.72181641 480.84474854 56.77371094 481.43876465 55.796875 482.05078125 C54.54922363 482.83449097 54.54922363 482.83449097 53.27636719 483.6340332 C51.2231861 484.86607398 49.15780016 485.96478887 47 487 C40.85011581 478.77378834 35.9186301 469.98960513 31 461 C30.4831665 461.31638428 29.96633301 461.63276855 29.43383789 461.95874023 C-2.21553548 481.27963958 -34.52621924 497.4131728 -72.5 497.3125 C-73.71558594 497.32861328 -74.93117188 497.34472656 -76.18359375 497.36132812 C-97.00826176 497.37244054 -115.60952654 490.13964224 -130.75 475.8125 C-151.7616916 453.83336361 -154.79124998 425.17667372 -154.14501953 396.19384766 C-153.84518598 389.59044282 -152.61232543 383.40430659 -151 377 C-150.69255859 375.53433594 -150.69255859 375.53433594 -150.37890625 374.0390625 C-143.01447841 340.64755738 -123.32637145 312.28498946 -100 288 C-99.1440625 287.1028125 -98.288125 286.205625 -97.40625 285.28125 C-91.63323074 279.36207836 -85.49842144 274.10402331 -79 269 C-78.01386719 268.20851563 -77.02773438 267.41703125 -76.01171875 266.6015625 C-57.72568192 252.1640191 -37.35152682 240.31532029 -16.375 230.25 C-15.03260254 229.60405884 -15.03260254 229.60405884 -13.66308594 228.94506836 C-7.38401243 226 -7.38401243 226 -4 226 C-4 199.27 -4 172.54 -4 145 C-12.15074219 145.01160156 -20.30148437 145.02320313 -28.69921875 145.03515625 C-34.54054011 145.04092023 -40.38185932 145.04604566 -46.22318172 145.05025387 C-53.77745637 145.05578063 -61.3317199 145.06278107 -68.88598633 145.07543945 C-75.51254562 145.08653795 -82.13909607 145.09229435 -88.76566505 145.09487724 C-91.28643801 145.09671659 -93.80721034 145.10030824 -96.32797813 145.10573006 C-99.87450936 145.11305073 -103.42099166 145.11398633 -106.9675293 145.11352539 C-107.99612564 145.11712067 -109.02472198 145.12071594 -110.08448792 145.12442017 C-117.48282687 145.11410028 -124.56778226 144.57170906 -132 144 C-132.66 124.2 -133.32 104.4 -134 84 C-127.07 84.33 -120.14 84.66 -113 85 C-105.92740296 85.21747623 -105.92740296 85.21747623 -98.85449219 85.39282227 C-98.03638062 85.41031525 -97.21826904 85.42780823 -96.37536621 85.4458313 C-95.52962036 85.46370697 -94.68387451 85.48158264 -93.8125 85.5 C-92.92953247 85.51956757 -92.04656494 85.53913513 -91.13684082 85.55929565 C-61.76134342 86.2087145 -32.37955164 86.58468038 -3 87 C-2.98018066 85.78570313 -2.96036133 84.57140625 -2.93994141 83.3203125 C-2.47349202 55.51156098 -1.59168278 27.76756646 0 0 Z " fill="#F2F0E4" transform="translate(438,507)"/>
<path d="M0 0 C1.52646425 -0.00677981 3.05292032 -0.01568499 4.57936096 -0.02655029 C8.71591209 -0.0493094 12.85183842 -0.04052113 16.98840022 -0.02465487 C21.3226517 -0.01197586 25.6568505 -0.02374174 29.99110413 -0.03158569 C37.27020853 -0.04067743 44.54905914 -0.02870796 51.828125 -0.00488281 C60.23526903 0.02231746 68.64180654 0.0135206 77.04893583 -0.01401484 C84.2746368 -0.03673078 91.50015553 -0.03989358 98.72588068 -0.02682149 C103.03813363 -0.01903927 107.35010186 -0.01795116 111.66233635 -0.03450394 C115.71817865 -0.04898543 119.77324201 -0.03886076 123.82900047 -0.01003265 C125.31444253 -0.0034409 126.79995054 -0.00528685 128.28536606 -0.01634598 C140.88553144 -0.10148146 140.88553144 -0.10148146 145.40968323 2.95840454 C151.21955859 8.74381803 153.17927464 16.36472285 155.60961914 24.02197266 C157.57572779 30.16269557 159.68605057 36.16786503 162.12329102 42.13769531 C164.14158441 47.27235362 165.76766932 52.54423281 167.46508789 57.79150391 C169.17321668 63.00863934 171.05623418 68.10313989 173.12768555 73.18652344 C174.72624564 77.19206512 176.13688954 81.25957679 177.54711914 85.33447266 C177.84787354 86.19733887 178.14862793 87.06020508 178.45849609 87.94921875 C180.28533533 93.20837512 182.059212 98.48286883 183.79711914 103.77197266 C185.10222947 107.72543999 186.45386502 111.61346169 188.04711914 115.45947266 C190.27021964 120.83271556 192.04562897 126.34509628 193.828125 131.87670898 C195.11579611 135.83066818 196.5081907 139.70189866 198.07836914 143.55322266 C200.51056428 149.53660765 202.47815523 155.64925089 204.46508789 161.79150391 C206.17848351 167.02472583 208.07587164 172.12850336 210.15454102 177.22705078 C211.91987935 181.69996325 213.34915252 186.28200504 214.82055664 190.85791016 C216.11262588 194.81747719 217.50564308 198.69564987 219.07836914 202.55322266 C221.51056428 208.53660765 223.47815523 214.64925089 225.46508789 220.79150391 C227.17848351 226.02472583 229.07587164 231.12850336 231.15454102 236.22705078 C232.91987935 240.69996325 234.34915252 245.28200504 235.82055664 249.85791016 C237.11262588 253.81747719 238.50564308 257.69564987 240.07836914 261.55322266 C242.51056428 267.53660765 244.47815523 273.64925089 246.46508789 279.79150391 C248.17321668 285.00863934 250.05623418 290.10313989 252.12768555 295.18652344 C253.72624564 299.19206512 255.13688954 303.25957679 256.54711914 307.33447266 C256.84787354 308.19733887 257.14862793 309.06020508 257.45849609 309.94921875 C259.28533533 315.20837512 261.059212 320.48286883 262.79711914 325.77197266 C264.10222947 329.72543999 265.45386502 333.61346169 267.04711914 337.45947266 C269.27021964 342.83271556 271.04562897 348.34509628 272.828125 353.87670898 C274.11579611 357.83066818 275.5081907 361.70189866 277.07836914 365.55322266 C279.51056428 371.53660765 281.47815523 377.64925089 283.46508789 383.79150391 C285.17565839 389.01609707 287.07014389 394.1107402 289.14575195 399.20068359 C290.67677103 403.0864007 291.95502472 407.04778256 293.23461914 411.02197266 C293.73433867 412.57238454 294.23684971 414.12190005 294.74243164 415.67041016 C294.95786621 416.33991699 295.17330078 417.00942383 295.39526367 417.69921875 C296.08242569 419.70163291 296.08242569 419.70163291 297.17626953 421.69506836 C299.64068682 426.84887851 298.73813776 434.49381625 297.64477539 439.97900391 C296.35694769 443.47671347 294.31900168 445.84521002 291.18656921 447.82408333 C286.39848354 449.72112681 281.01701827 449.18788945 275.94750977 449.14868164 C274.60661757 449.15246812 273.26572929 449.15797087 271.92485046 449.16505432 C268.29458612 449.17898365 264.66479707 449.16785733 261.03455925 449.15134311 C257.22970103 449.13746211 253.42486954 449.14395615 249.61999512 449.1474762 C243.23120492 449.15017592 236.84260285 449.13672331 230.45385742 449.11352539 C223.07495366 449.08691705 215.69636437 449.08516939 208.31742907 449.09691375 C201.20964072 449.10770523 194.10196576 449.10149375 186.9941864 449.08735847 C183.97358001 449.08161052 180.95305692 449.08167195 177.93244934 449.08642387 C174.3733311 449.09120777 170.81455576 449.08103404 167.2555027 449.05946922 C165.33158123 449.05128015 163.40761477 449.05773837 161.48368835 449.06466675 C154.32493863 449.00313434 149.22170202 448.73004166 143.90991211 443.46777344 C141.66051922 439.94329752 140.49680604 436.49990225 139.30493164 432.51416016 C138.93523758 431.3271904 138.93523758 431.3271904 138.55807495 430.11624146 C137.77312808 427.58791204 137.00354412 425.0552151 136.23461914 422.52197266 C135.72653784 420.87451822 135.21743126 419.22737961 134.70727539 417.58056641 C133.68647908 414.28280345 132.6738782 410.98266483 131.6652832 407.68115234 C130.60146405 404.21402195 129.50686828 400.75847316 128.38989258 397.30810547 C128.11136444 396.44379913 127.8328363 395.5794928 127.54586792 394.68899536 C127.01255011 393.03888753 126.47463418 391.39025646 125.931427 389.74337769 C125.57273026 388.63048874 125.57273026 388.63048874 125.20678711 387.49511719 C124.99440399 386.84656769 124.78202087 386.19801819 124.5632019 385.52981567 C124.10961914 383.64697266 124.10961914 383.64697266 124.10961914 379.64697266 C57.77961914 380.14197266 57.77961914 380.14197266 -9.89038086 380.64697266 C-14.84216491 393.80638506 -14.84216491 393.80638506 -19.39038086 407.08447266 C-31.63797142 444.25722385 -31.63797142 444.25722385 -35.89038086 447.64697266 C-38.9424664 448.62581148 -41.73819749 448.774619 -44.93138123 448.78068542 C-45.94776672 448.78495041 -46.96415222 448.78921539 -48.01133728 448.79360962 C-49.12054031 448.79315643 -50.22974335 448.79270325 -51.37255859 448.79223633 C-53.13166061 448.79727425 -53.13166061 448.79727425 -54.92630005 448.80241394 C-58.13911646 448.81028421 -61.35189407 448.81359138 -64.56471896 448.81422973 C-66.5728888 448.81494102 -68.58105189 448.81707683 -70.58922005 448.81972694 C-77.59757034 448.82897464 -84.60590162 448.83306248 -91.61425781 448.83227539 C-98.14329623 448.83167449 -104.67225205 448.84223023 -111.20126957 448.85801905 C-116.81072771 448.87109996 -122.42015887 448.87645907 -128.02963215 448.87581998 C-131.37821264 448.87556519 -134.72671969 448.87840605 -138.07528496 448.88899803 C-141.80986297 448.89877516 -145.54422728 448.89592885 -149.27880859 448.88989258 C-150.3859874 448.89551208 -151.4931662 448.90113159 -152.63389587 448.90692139 C-153.6531012 448.9027269 -154.67230652 448.89853241 -155.72239685 448.89421082 C-156.60488822 448.89475558 -157.48737959 448.89530035 -158.39661312 448.89586163 C-163.03041861 448.43338749 -165.42085744 447.13783805 -168.64038086 443.77197266 C-172.64766501 438.20630022 -172.60243609 432.33716192 -171.89038086 425.64697266 C-169.7131834 416.16962021 -165.95928864 407.0597454 -162.49584961 397.99853516 C-159.46607086 390.03597614 -156.65410337 382.03399301 -154.00048828 373.93847656 C-152.48468462 369.34274716 -150.81450785 364.86487744 -148.95288086 360.39697266 C-147.45738786 356.5262849 -146.1831392 352.58924562 -144.89038086 348.64697266 C-143.34209832 343.9254774 -141.80272064 339.23658812 -139.89038086 334.64697266 C-137.6557484 329.28011478 -135.88552847 323.76431495 -134.08374023 318.24072266 C-133.84333008 317.50595703 -133.60291992 316.77119141 -133.35522461 316.01416016 C-133.03992798 315.0413208 -133.03992798 315.0413208 -132.71826172 314.04882812 C-131.7877452 311.34920516 -130.77828373 308.68219849 -129.77076721 306.01055908 C-128.00128526 301.26000439 -126.31213066 296.48026118 -124.60913086 291.70556641 C-124.19876083 290.55649307 -123.78839081 289.40741974 -123.36558533 288.223526 C-122.26612321 285.14438115 -121.16724721 282.06502798 -120.06867599 278.98556519 C-119.16156082 276.44314702 -118.25390978 273.90092029 -117.34627819 271.35868645 C-111.89517271 256.08976933 -106.45134138 240.81828896 -101.05053711 225.53149414 C-99.05174398 219.88096298 -97.00674516 214.25443363 -94.89038086 208.64697266 C-94.09321346 206.44061902 -93.3014002 204.23232236 -92.51538086 202.02197266 C-92.08483398 200.81283203 -91.65428711 199.60369141 -91.21069336 198.35791016 C-90.55713867 196.52099609 -90.55713867 196.52099609 -89.89038086 194.64697266 C-89.0573753 192.31352229 -88.22404633 189.98018734 -87.39038086 187.64697266 C-86.97788086 186.49197266 -86.56538086 185.33697266 -86.14038086 184.14697266 C-47.39038086 75.64697266 -47.39038086 75.64697266 -46.13647461 72.13916016 C-45.31351561 69.83281111 -44.49315155 67.52553429 -43.67553711 65.21728516 C-41.73626369 59.7526233 -39.76882061 54.30315062 -37.70800781 48.88330078 C-35.24011652 42.39162166 -32.93139598 35.87090654 -30.76538086 29.27197266 C-23.37806935 6.81768312 -23.37806935 6.81768312 -17.08154106 1.72624588 C-11.89928833 -0.82631354 -5.6570971 -0.04205528 0 0 Z " fill="#F3F0E4" transform="translate(1485.890380859375,996.35302734375)"/>
<path d="M0 0 C1.5501296 0.13021554 3.10025984 0.26042359 4.65039062 0.390625 C86.70733262 7.39221323 167.98155467 25.20971494 269 64 C270.21719727 64.49677246 271.43439453 64.99354492 272.68847656 65.50537109 C338.55003342 92.62213851 400.61436516 127.85110567 458 170 C458.68690918 170.5038623 459.37381836 171.00772461 460.08154297 171.52685547 C469.70899848 178.60973092 479.04086188 186.00511931 488.27539062 193.59130859 C490.53888507 195.44017085 492.83083305 197.25190745 495.125 199.0625 C504.77567338 206.77008478 514.04104657 214.92575653 523.0859375 223.33203125 C525.32004415 225.37746669 527.57383572 227.38062056 529.859375 229.3671875 C540.50354483 238.6491346 550.62452622 248.53379576 560.625 258.5 C561.72497314 259.59308472 561.72497314 259.59308472 562.84716797 260.70825195 C566.81823188 264.69069819 570.60445872 268.77132838 574.27587891 273.03076172 C577.21099374 276.38315995 580.30399252 279.58511704 583.375 282.8125 C588.37340239 288.10474638 593.16280095 293.46968124 597.69921875 299.16796875 C600.52646234 302.64802241 603.4805234 306.00526368 606.4375 309.375 C611.71664108 315.42485177 616.70360586 321.63263646 621.52734375 328.0546875 C623.24202264 330.319701 624.9797313 332.56612172 626.71875 334.8125 C634.97296323 345.50334819 642.87935262 356.34816243 650.38037109 367.58007812 C652.05124157 370.07656112 653.73743057 372.56218638 655.42578125 375.046875 C664.04217008 387.77912813 672.16623584 400.77272388 680 414 C680.51272461 414.86560547 681.02544922 415.73121094 681.55371094 416.62304688 C689.67050654 430.4062847 697.09358651 444.52913038 704.35546875 458.77832031 C705.85160219 461.70928482 707.36152158 464.63265668 708.875 467.5546875 C725.68964049 500.26999774 738.75703948 534.83023691 750.375 569.6875 C750.6144635 570.40539703 750.853927 571.12329407 751.10064697 571.86294556 C755 583.60057905 755 583.60057905 755 586 C754.34 586 753.68 586 753 586 C752.62939453 585.34854004 752.25878906 584.69708008 751.87695312 584.02587891 C742.25025614 567.13791874 732.31350328 550.48025979 722 534 C721.38737305 533.0198291 720.77474609 532.0396582 720.14355469 531.02978516 C712.06605798 518.13677379 703.6891305 505.4878961 695 493 C693.85545337 491.34636481 692.71092237 489.6927188 691.56640625 488.0390625 C677.15618841 467.27868158 661.96565575 447.26057213 645.99609375 427.68359375 C643.60003947 424.74396592 641.2306009 421.78469991 638.875 418.8125 C635.37924623 414.42624895 631.76612425 410.14701609 628.12744141 405.87939453 C625.27397957 402.52763135 622.49447989 399.12972902 619.75 395.6875 C615.25627715 390.15551628 610.40140723 384.99305161 605.49121094 379.83276367 C602.36309393 376.54260457 599.29559021 373.22260315 596.3203125 369.79296875 C593.81704329 366.90785087 591.24328045 364.16139148 588.5 361.5 C585.78442112 358.86548318 583.24419499 356.15019583 580.77734375 353.28515625 C576.73814463 348.63221573 572.42891075 344.28180234 568.0625 339.9375 C567.30259766 339.17373047 566.54269531 338.40996094 565.75976562 337.62304688 C561.55151372 333.42198242 557.2496441 329.40516551 552.74389648 325.52563477 C550.5582106 323.61350386 548.52163698 321.5838412 546.5 319.5 C543.16879193 316.12899935 539.74888372 312.9548597 536.15234375 309.87109375 C533.61947838 307.66920171 531.15667478 305.39804174 528.6875 303.125 C524.2439835 299.07158646 519.67401903 295.23816123 514.9921875 291.46484375 C512.19467639 289.16036658 509.46870626 286.7954373 506.74975586 284.39990234 C498.8388203 277.43778455 490.61484432 271.01064588 482.20019531 264.67236328 C479.21324576 262.40198995 476.26426458 260.0847692 473.31396484 257.76708984 C399.94765445 200.18463976 316.11585374 154.57229139 67 75 C66.26561707 74.85218079 65.53123413 74.70436157 64.77459717 74.55206299 C26.24135036 66.82285305 -12.84164657 62.11565932 -52 59 C-53.10958069 58.90912109 -53.10958069 58.90912109 -54.24157715 58.81640625 C-139.89151213 51.83288853 -227.23313835 58.30622713 -475.9375 118.375 C-476.74225769 118.66387085 -477.54701538 118.9527417 -478.37615967 119.25036621 C-488.43700301 122.87108705 -488.43700301 122.87108705 -498.38720703 126.78222656 C-499.08157364 127.0667569 -499.77594025 127.35128723 -500.49134827 127.6444397 C-502.38398845 128.42698065 -504.27141174 129.22210527 -506.15844727 130.01806641 C-507.09615967 130.34210449 -508.03387207 130.66614258 -509 131 C-509.66 130.67 -510.32 130.34 -511 130 C-503.29978335 124.21088436 -495.37688715 118.96492979 -487.125 114 C-486.52429688 113.63727997 -485.92359375 113.27455994 -485.3046875 112.90084839 C-419.69637968 73.34649348 -349.12738961 43.38933874 -275 24 C-274.3414502 23.82746704 -273.68290039 23.65493408 -273.00439453 23.47717285 C-226.86256431 11.43589743 -179.53670961 3.70665049 -132 0 C-130.77249023 -0.10296387 -129.54498047 -0.20592773 -128.28027344 -0.31201172 C-85.94487376 -3.7662922 -42.31533785 -3.66729677 0 0 Z " fill="#83B6C7" transform="translate(1182,115)"/>
<path d="M0 0 C3.04860081 1.34950291 5.01123919 2.81392509 7.25 5.2734375 C7.85263672 5.92763672 8.45527344 6.58183594 9.07617188 7.25585938 C10.0284668 8.30483398 10.0284668 8.30483398 11 9.375 C16.60130571 15.4571983 22.30487412 21.37832529 28.21875 27.15625 C30.34291182 29.3281458 32.33587799 31.51165474 34.31640625 33.80859375 C38.16828197 38.25468088 42.26804617 42.41556347 46.4375 46.5625 C47.14970703 47.27857422 47.86191406 47.99464844 48.59570312 48.73242188 C52.62856869 52.75796162 56.76710805 56.58096797 61.08227539 60.30053711 C64.19667057 63.06047407 67.08998225 66.0278481 70 69 C74.15336867 73.19663292 78.313462 77.29016058 82.82421875 81.10546875 C85.8967354 83.78081987 88.84334911 86.5859776 91.8125 89.375 C96.85666113 94.09769317 102.02681836 98.56826968 107.421875 102.890625 C110.0242629 105.01985146 112.51575502 107.23449357 115 109.5 C120.17193461 114.20621538 125.56278761 118.60575078 131 123 C132.7506874 124.43666276 134.50068115 125.87417117 136.25 127.3125 C138.16557159 128.87634234 140.08231824 130.438746 142 132 C142.54076172 132.44182617 143.08152344 132.88365234 143.63867188 133.33886719 C153.41849186 141.31480437 163.4623906 148.88051857 173.66943359 156.30029297 C175.80467599 157.85754811 177.92925351 159.42804862 180.05078125 161.00390625 C219.61467339 190.21028134 261.9701999 216.4427724 305.55224609 239.19384766 C309.02017396 241.0105684 312.47349069 242.85298325 315.92578125 244.69921875 C332.78983896 253.64947579 350.02073371 261.57548437 367.53120422 269.17704773 C371.17686361 270.76043798 374.81358711 272.36026775 378.4362793 273.99560547 C388.98234753 278.75242309 399.62979519 283.12355346 410.4375 287.25 C411.26949921 287.56882141 412.10149841 287.88764282 412.95870972 288.21612549 C440.25807093 298.65958558 467.87434455 308.02671646 496 316 C497.10097015 316.31390686 497.10097015 316.31390686 498.22418213 316.63415527 C561.63468284 334.69590047 626.28538214 345.84207988 692 351 C692.81106201 351.06447327 693.62212402 351.12894653 694.45776367 351.19537354 C792.93627098 358.98414719 891.55037668 350.5752558 1252 234 C1252 234.99 1252 235.98 1252 237 C1250.02052328 238.77817401 1248.06632391 240.35578271 1245.9375 241.9375 C1244.63858486 242.92741773 1243.34043192 243.91833623 1242.04296875 244.91015625 C1241.37056152 245.42078613 1240.6981543 245.93141602 1240.00537109 246.45751953 C1237.48846556 248.39345929 1235.02731976 250.39249527 1232.56591797 252.39819336 C1224.40087578 259.03846496 1215.95178448 265.23630947 1207.36669922 271.3203125 C1204.98971065 273.00730253 1202.62172751 274.70642502 1200.25390625 276.40625 C1122.30189627 332.03681872 1031.78398442 371.03329845 720.26477051 419.0267334 C718.11235954 419.00132629 715.96014063 418.9854928 713.80761719 418.97363281 C607.02704907 418.31096891 498.49963438 395.1275431 384.35009766 346.51025391 C380.86446048 344.93889757 377.36292699 343.40869744 373.85546875 341.88671875 C361.54723637 336.5298644 349.51839821 330.90517591 337.73632812 324.47558594 C334.5324655 322.74787844 331.30621928 321.06458771 328.078125 319.3828125 C312.30680132 311.14180481 297.04352629 302.38066602 281.98828125 292.87548828 C279.11012097 291.06911351 276.21609497 289.29248246 273.3125 287.52734375 C262.96230305 281.22758697 252.91966852 274.64703216 243.11230469 267.53125 C240.91667995 265.9395997 238.71305664 264.35954086 236.5078125 262.78125 C231.98958539 259.54214023 227.48917904 256.27923649 223 253 C222.31550781 252.50000488 221.63101563 252.00000977 220.92578125 251.48486328 C210.93893454 244.16133667 201.34339485 236.43372536 191.82714844 228.51123047 C189.49259613 226.58032737 187.12577362 224.69235971 184.75 222.8125 C174.07295438 214.28880812 163.99689249 205.29158486 154.09765625 195.87890625 C151.71113379 193.6106423 149.31460073 191.3590985 146.87109375 189.15234375 C139.23061089 182.24437056 131.91526997 175.02367905 124.625 167.75 C124.10235565 167.22994385 123.5797113 166.7098877 123.04122925 166.17407227 C117.6841356 160.83792491 112.40361584 155.47961338 107.48486328 149.72998047 C105.26886012 147.14816554 102.94403634 144.67715613 100.625 142.1875 C96.35160029 137.56219047 92.31116271 132.79918099 88.36328125 127.890625 C86.20678072 125.25292188 83.99797034 122.67738686 81.75976562 120.10961914 C75.03377559 112.38190905 68.7984082 104.34159189 62.63671875 96.16015625 C61.03266031 94.04310537 59.41083476 91.94119608 57.78125 89.84375 C38.31187205 64.74791401 21.23938741 38.14690998 5.4375 10.625 C4.89988037 9.68986572 4.36226074 8.75473145 3.80834961 7.79125977 C3.31343018 6.92428467 2.81851074 6.05730957 2.30859375 5.1640625 C1.86314209 4.38498535 1.41769043 3.6059082 0.95874023 2.80322266 C0 1 0 1 0 0 Z " fill="#83B6C7" transform="translate(346,1585)"/>
<path d="M0 0 C0.03440186 0.55719727 0.06880371 1.11439453 0.10424805 1.68847656 C2.38881907 37.26402898 6.43296207 72.93362048 13.484375 107.890625 C13.65453125 108.91671875 13.8246875 109.9428125 14 111 C14.17917969 111.84691406 14.35835938 112.69382812 14.54296875 113.56640625 C13.60458077 117.77227469 10.01387987 119.41133587 6.5625 121.6875 C5.79550781 122.20787842 5.02851563 122.72825684 4.23828125 123.2644043 C1.84243697 124.87068674 -0.57268745 126.44173748 -3 128 C-3.72590332 128.46696289 -4.45180664 128.93392578 -5.19970703 129.41503906 C-24.85809735 141.88575956 -49.1759071 153.06769213 -73 150 C-79.58150031 148.04624645 -84.25816527 144.83286002 -88 139 C-96.20885922 121.38166609 -94.01163717 101.788281 -87.53515625 83.859375 C-80.76899877 66.23796685 -69.20204219 51.27259695 -56 38 C-55.25242432 37.24638184 -55.25242432 37.24638184 -54.48974609 36.47753906 C-42.88165752 24.9332931 -17.12241521 0 0 0 Z " fill="#83B6C7" transform="translate(437,795)"/>
<path d="M0 0 C-11.28330692 35.4085855 -35.08248834 67.25096592 -58 96 C-58.72316406 96.95648437 -59.44632812 97.91296875 -60.19140625 98.8984375 C-60.78824219 99.59195313 -61.38507813 100.28546875 -62 101 C-62.66 101 -63.32 101 -64 101 C-67.16461213 85.34526977 -68.84804173 69.64216644 -70.25 53.75 C-70.33858276 52.77770447 -70.42716553 51.80540894 -70.51843262 50.8036499 C-71.71869831 37.50196417 -72.22980901 24.35445667 -72 11 C-56.45954522 6.11983579 -41.14713092 2.97919084 -25 1 C-23.91460938 0.8659375 -22.82921875 0.731875 -21.7109375 0.59375 C-14.48461033 -0.17364758 -7.25949135 -0.09538018 0 0 Z " fill="#84B6C7" transform="translate(567,761)"/>
<path d="M0 0 C1.6986639 2.54799585 2.53149402 4.24525865 3.44873047 7.08154297 C3.71595917 7.90024872 3.98318787 8.71895447 4.2585144 9.56246948 C4.54187653 10.44677643 4.82523865 11.33108337 5.1171875 12.2421875 C5.41561554 13.16154083 5.71404358 14.08089417 6.02151489 15.02810669 C6.97700827 17.9756892 7.9259641 20.92533287 8.875 23.875 C9.5061077 25.82304718 10.13761387 27.77096532 10.76953125 29.71875 C13.60962559 38.48836105 16.40554446 47.26716135 19.09228516 56.08496094 C21.06011647 62.40446225 23.22128672 68.66155082 25.3515625 74.92773438 C25.69445313 75.94544922 26.03734375 76.96316406 26.390625 78.01171875 C26.70032227 78.92397217 27.01001953 79.83622559 27.32910156 80.77612305 C28 83 28 83 28 85 C9.85 85 -8.3 85 -27 85 C-23.58705357 71.34821429 -23.58705357 71.34821429 -21.0625 64.625 C-18.74517 58.42879688 -16.88703384 52.16385745 -15.09545898 45.79589844 C-13.40128933 39.92539479 -11.53090879 34.11487915 -9.64550781 28.3034668 C-8.99733405 26.30427729 -8.35390819 24.30360257 -7.7109375 22.30273438 C-5.29384789 14.80982572 -2.76029221 7.37395102 0 0 Z " fill="#F5A575" transform="translate(1543,1166)"/>
</svg>
