<?xml version="1.0" encoding="UTF-8"?>
<svg version="1.1" xmlns="http://www.w3.org/2000/svg" width="2134" height="2134">
<path d="M0 0 C0.9178125 0.4125 1.835625 0.825 2.78125 1.25 C9.1343243 4.39084572 14.09210546 8.4551242 19.19921875 13.33984375 C21.28052922 15.31665328 23.3732157 17.18912183 25.55162144 19.05160999 C30.57177217 23.43511367 35.26611523 28.12114247 39.97483826 32.83439636 C40.96095004 33.81791902 41.94727433 34.80122865 42.93379074 35.78434545 C45.62555596 38.46810202 48.31423389 41.15493248 51.00236809 43.84232533 C53.90932716 46.74742313 56.81912844 49.64967193 59.72851562 52.55233765 C66.08038433 58.89066769 72.4285131 65.23273448 78.77582049 71.57563186 C82.74337152 75.5404137 86.71165659 79.50446029 90.68007088 83.46837807 C101.68047128 94.45659319 112.67992945 105.44574958 123.67593288 116.43836498 C124.73000398 117.49210673 124.73000398 117.49210673 125.80536944 118.56713619 C126.50969808 119.27124654 127.21402671 119.9753569 127.93969864 120.70080394 C129.36677996 122.12744181 130.79386284 123.55407812 132.22094727 124.98071289 C133.28275545 126.04218893 133.28275545 126.04218893 134.36601431 127.12510893 C145.83527648 138.59042334 157.31127724 150.04896739 168.79020142 161.50460752 C180.59234736 173.28300788 192.38882839 185.06705723 204.17968994 196.85675412 C210.79316491 203.46931431 217.40901332 210.0794596 224.03112602 216.68337059 C229.66949446 222.30629493 235.30263964 227.93438824 240.92917328 233.56915595 C243.79637877 236.44025227 246.66589361 239.30893009 249.54209328 242.1710186 C252.18194336 244.79803591 254.81459564 247.43206087 257.44200397 250.07152001 C258.829741 251.46210774 260.22478394 252.84539313 261.62019056 254.22828454 C269.5993329 262.26961519 276.96909684 270.99735387 281.9375 281.25 C282.75541016 282.89742187 282.75541016 282.89742187 283.58984375 284.578125 C289.28448231 298.39669391 288.93253888 314.86323348 283.54296875 328.70703125 C276.95554659 342.76575754 265.94685901 353.20822744 255.07661057 363.99855423 C253.29042742 365.77174146 251.50759088 367.54823715 249.72549438 369.32553101 C245.94483622 373.09487799 242.1602252 376.86024003 238.375 380.625 C233.97535624 385.00090493 229.57742385 389.37850291 225.18370438 393.7603569 C223.44048658 395.49716796 221.69425069 397.230903 219.94784546 398.96450806 C218.86530822 400.04340832 217.78291363 401.12245174 216.70068359 402.20166016 C215.76630463 403.13080231 214.83192566 404.05994446 213.86923218 405.01724243 C211.77064661 407.15237552 209.80424058 409.36792332 207.85670471 411.64131165 C203.03529164 417.19797379 197.79612062 422.34372256 192.59204102 427.53735352 C191.45108756 428.6796645 190.3103464 429.82218756 189.1697998 430.96490479 C186.09152358 434.0477135 183.01012434 437.12738233 179.92799115 440.20633435 C176.69112639 443.4406538 173.45671761 446.67742786 170.22190857 449.9138031 C164.79093018 455.34659686 159.35785582 460.77728783 153.92358398 466.20678711 C147.6556866 472.4692431 141.3913996 478.73529321 135.12897545 485.00322205 C129.73612107 490.40062558 124.34130641 495.79606395 118.94487137 501.18988746 C115.72881591 504.40439006 112.51342522 507.6195498 109.29980659 510.83648872 C106.27739429 513.86180597 103.25251502 516.88463542 100.22577667 519.90562439 C99.12043713 521.00965034 98.01593153 522.11451201 96.91235924 523.22030449 C91.66551142 528.47672774 86.39041022 533.63890615 80.7475462 538.47326946 C78.03046357 540.84702818 75.51021074 543.39690046 72.98974609 545.97607422 C72.44535889 546.52834686 71.90097168 547.08061951 71.34008789 547.64962769 C70.17257126 548.83417288 69.0061359 550.01978463 67.84070969 551.20638657 C65.3413297 553.74844185 62.83209037 556.28067398 60.32349586 558.81363106 C55.67306662 563.50942805 51.02651843 568.20889694 46.39697266 572.92529297 C43.15689751 576.22538243 39.90420592 579.51258654 36.64332962 582.79211807 C35.41656905 584.03047601 34.19430826 585.2733113 32.97706223 586.5210228 C19.04822054 600.78950584 3.70480922 611.98795193 -17.0625 612.25 C-40.69748285 612.20959339 -57.54843702 597.88946128 -73.41601562 581.99414062 C-74.05708252 581.34678955 -74.69814941 580.69943848 -75.35864258 580.0324707 C-77.3172126 578.05774853 -79.29141684 576.09967912 -81.26757812 574.14257812 C-96.31579138 559.1207215 -109.14449033 542.66775133 -109.375 520.5 C-109.20219025 505.43757272 -103.67516502 491.91483763 -93.76171875 480.578125 C-93.24687927 479.98406357 -92.73203979 479.39000214 -92.20159912 478.77793884 C-86.05257726 471.78287371 -79.47493154 465.20988736 -72.86230469 458.65649414 C-70.73305061 456.54569754 -68.61210919 454.42680599 -66.4921875 452.30664062 C-65.11505672 450.93442059 -63.73746884 449.5626591 -62.359375 448.19140625 C-61.738349 447.57149307 -61.117323 446.9515799 -60.47747803 446.31288147 C-57.41361671 443.28152653 -54.29970337 440.35874844 -51.03613281 437.54272461 C-46.85070049 433.92088595 -42.95094366 430.06108369 -39.0625 426.125 C-38.33812744 425.39684082 -37.61375488 424.66868164 -36.86743164 423.91845703 C-34.57581697 421.61474354 -32.28749348 419.30780526 -30 417 C-26.98214919 413.95535221 -23.96086584 410.91417033 -20.9375 407.875 C-19.92151733 406.84656982 -19.92151733 406.84656982 -18.88500977 405.79736328 C-14.99168466 401.88438219 -10.99823263 398.1880082 -6.76391602 394.64501953 C-4.84613506 392.8565063 -3.33539524 391.26447155 -2 389 C-2.38219641 386.8976675 -2.38219641 386.8976675 -3 385 C-4.08329664 385.00227832 -4.08329664 385.00227832 -5.18847805 385.00460267 C-48.02720413 385.09418745 -90.86591999 385.16278283 -133.70472104 385.20426132 C-138.85270806 385.20926392 -144.0006949 385.21444123 -149.14868164 385.21972656 C-150.17351847 385.2207758 -151.19835529 385.22182505 -152.25424778 385.22290608 C-168.83078422 385.24029363 -185.40726497 385.27182222 -201.98376841 385.30861118 C-219.00295413 385.34606655 -236.02211076 385.36824556 -253.041336 385.37635398 C-263.53632087 385.38183222 -274.03114827 385.39911147 -284.52608465 385.43166587 C-291.73070296 385.45287052 -298.9352403 385.45918661 -306.13988752 385.45400551 C-310.29162497 385.45145296 -314.44308797 385.45526237 -318.59477615 385.4768219 C-322.40572641 385.49646609 -326.21622093 385.49715608 -330.02719336 385.48359558 C-332.03823329 385.48113828 -334.04926887 385.49822935 -336.06022888 385.51632524 C-353.21658768 385.40507161 -368.16564635 380.29316598 -380.71875 368.3359375 C-394.22846748 354.50235693 -398.30062334 338.54144545 -398.3359375 319.6796875 C-398.3425943 318.4222171 -398.3492511 317.1647467 -398.35610962 315.86917114 C-398.36619241 313.21829984 -398.37179868 310.56783925 -398.37060547 307.91699219 C-398.37044336 305.23279752 -398.38427206 302.54928848 -398.41162109 299.86523438 C-398.62801876 276.9889099 -398.14282339 255.72103632 -381.34375 238.25 C-366.21518334 223.726576 -347.72004916 220.52273858 -327.35803223 220.60127258 C-325.96240974 220.59581467 -324.56679186 220.58905555 -323.1711812 220.58113068 C-319.38774814 220.56331794 -315.60451345 220.56363588 -311.8210485 220.56726015 C-307.72173719 220.56788945 -303.62248939 220.55121345 -299.52320862 220.53674316 C-292.43802912 220.51405269 -285.35289847 220.50208865 -278.26768494 220.49761391 C-268.0239346 220.49112854 -257.78027221 220.46814945 -247.5365575 220.44127061 C-230.91289319 220.39809346 -214.28923262 220.36807503 -197.66552734 220.34643555 C-181.52651135 220.32539858 -165.38752577 220.29809985 -149.24853516 220.26245117 C-148.25209521 220.26025235 -147.25565527 220.25805352 -146.22902018 220.25578807 C-141.22968623 220.24471774 -136.23035256 220.23352505 -131.23101902 220.22227156 C-89.82070606 220.12921503 -48.41037655 220.05755762 -7 220 C-7.43546646 219.56675415 -7.87093292 219.1335083 -8.31959534 218.68713379 C-12.88159869 214.14738049 -17.43997767 209.60401065 -21.99633789 205.05859375 C-23.69366667 203.36627089 -25.39189477 201.6748495 -27.09106445 199.984375 C-29.54359341 197.54407631 -31.99279096 195.10047494 -34.44140625 192.65625 C-35.19273331 191.91008423 -35.94406036 191.16391846 -36.71815491 190.3951416 C-40.82063942 186.29308733 -44.75175344 182.10369185 -48.52717084 177.69791812 C-50.50700406 175.41551173 -52.61488035 173.28702636 -54.7668457 171.16723633 C-55.63497391 170.30886673 -56.50310211 169.45049713 -57.39753723 168.56611633 C-58.77276802 167.21274422 -58.77276802 167.21274422 -60.17578125 165.83203125 C-61.15118169 164.86615173 -62.12612234 163.89980771 -63.10063171 162.93302917 C-67.19544692 158.87137656 -71.29436708 154.81394376 -75.40405273 150.76733398 C-114.36446451 112.38465161 -114.36446451 112.38465161 -115.375 87 C-114.36006734 60.52717301 -93.63372799 41.41207499 -76 24 C-72.56594529 20.59750098 -72.56594529 20.59750098 -69.25390625 17.078125 C-52.1807747 -1.37505183 -23.677151 -11.14218871 0 0 Z " fill="#1E2A33" transform="translate(1823,763)"/>
<path d="M0 0 C23.84156265 19.37172576 48.13079358 42.10922077 52.29296875 73.8671875 C53.14928427 91.25411573 43.79441892 106.87089673 32.65924072 119.31632996 C23.60163653 129.26641122 14.08207212 138.74492256 4.5546875 148.2421875 C2.80041883 149.99458672 1.04637405 151.74721009 -0.7074585 153.50004578 C-5.28193764 158.07074124 -9.85941374 162.6384234 -14.43756104 167.20544434 C-19.12558353 171.88316259 -23.81070953 176.56378004 -28.49609375 181.24414062 C-37.65865575 190.39603865 -46.82429414 199.54484906 -55.9921875 208.69140625 C-55.29711763 208.69276278 -54.60204776 208.69411931 -53.88591516 208.69551694 C-12.65883825 208.77622753 28.56820492 208.86720687 69.79522935 208.97145786 C74.74922824 208.98397621 79.70322733 208.99640907 84.65722656 209.00878906 C85.64344771 209.01125506 86.62966885 209.01372105 87.64577548 209.01626177 C103.59892895 209.05594807 119.55208947 209.08871365 135.5052634 209.11890607 C151.88375186 209.15005805 168.2622105 209.18868341 184.64066541 209.23419631 C194.74096583 209.26202926 204.84124451 209.28408474 214.94157289 209.29866876 C221.87473795 209.30923898 228.80786086 209.32709102 235.74099411 209.35057329 C239.73656607 209.3638941 243.73207914 209.37409635 247.72767448 209.37561989 C251.39477339 209.3770895 255.06173084 209.38782224 258.72878616 209.40554066 C260.66496905 209.4125937 262.60117977 209.41007424 264.53737319 209.40707052 C284.3686762 209.53244364 303.81446241 213.10960061 318.8203125 227.00390625 C322.64959479 231.09885645 325.38316544 235.76256323 328.0078125 240.69140625 C328.58015625 241.75488281 328.58015625 241.75488281 329.1640625 242.83984375 C338.63984988 262.15034984 336.35056985 286.84154936 336.0078125 307.69140625 C335.99524414 308.4606543 335.98267578 309.22990234 335.96972656 310.02246094 C335.52608234 329.1897023 329.87121576 345.19707861 316.0078125 358.69140625 C302.21974392 371.29974704 285.48202526 374.15824689 267.30264282 374.09013367 C265.87574815 374.09558771 264.44885798 374.10234526 263.02197492 374.11027557 C259.14281216 374.1281373 255.2638424 374.12776416 251.38464832 374.1241461 C247.18577867 374.12351811 242.98697151 374.14018084 238.78813171 374.15466309 C231.52721304 374.17737791 224.26634212 374.18932186 217.00539017 374.19379234 C206.50749602 374.20027159 196.00968793 374.22324006 185.51182859 374.25013564 C168.47664786 374.29333646 151.44147077 374.32334144 134.40625 374.3449707 C117.86554172 374.36600053 101.32486317 374.39329308 84.78417969 374.42895508 C83.76331833 374.4311539 82.74245698 374.43335273 81.69066043 374.43561818 C76.56891265 374.44668834 71.44716514 374.45788105 66.32541776 374.46913469 C23.88624224 374.56222479 -18.55294989 374.63386672 -60.9921875 374.69140625 C-60.31023819 375.43910782 -59.62828888 376.18680939 -58.92567444 376.95716858 C-58.01951315 377.9519701 -57.11338172 378.94679881 -56.20727539 379.94165039 C-54.87497643 381.40351524 -54.87497643 381.40351524 -53.51576233 382.89491272 C-51.4947661 385.13447495 -49.50750643 387.39205608 -47.55078125 389.6875 C-43.41789135 394.43723914 -38.96372213 398.86985849 -34.50415039 403.30981445 C-33.05694365 404.75165846 -31.61516724 406.19877741 -30.17382812 407.64648438 C-25.59890759 412.22444567 -20.95831005 416.65233385 -16.04516602 420.86547852 C-11.66109096 424.76469333 -7.56809594 428.97277443 -3.4296875 433.12890625 C-2.52283203 434.03189453 -1.61597656 434.93488281 -0.68164062 435.86523438 C3.81818339 440.37158461 8.14919199 444.93888983 12.29370117 449.7722168 C14.80109625 452.57959932 17.50453772 455.16574033 20.21191406 457.77856445 C35.80996326 472.86965951 46.53709514 488.41256757 47.0078125 510.69140625 C45.9497375 534.52454573 30.78248879 550.60236492 15.0078125 566.69140625 C14.45706055 567.25730469 13.90630859 567.82320312 13.33886719 568.40625 C-3.09570067 585.27192296 -20.73159612 600.68486877 -45.3671875 601.00390625 C-62.04495838 600.91535811 -75.24350971 594.4013734 -86.9921875 582.69140625 C-87.76433594 581.92183594 -88.53648437 581.15226562 -89.33203125 580.359375 C-90.76192451 578.92459322 -92.18387437 577.48180042 -93.59375 576.02734375 C-95.54103415 574.13080317 -97.51497447 572.3683741 -99.57713985 570.60242367 C-104.25738308 566.5177043 -108.64628879 562.17644634 -113.03138733 557.77919006 C-113.90716397 556.90497341 -114.78294062 556.03075676 -115.68525594 555.13004869 C-118.09541496 552.72316967 -120.50333655 550.31409266 -122.91029894 547.90401947 C-125.51451575 545.29752904 -128.12162216 542.69393151 -130.72834778 540.08995056 C-135.82649227 534.99624179 -140.92194286 529.89984649 -146.01641781 524.80246789 C-150.15858862 520.6580344 -154.30173968 516.51458321 -158.44558525 512.37182426 C-159.03640758 511.78115517 -159.6272299 511.19048608 -160.23595593 510.58191792 C-161.43637932 509.38181428 -162.63680493 508.18171288 -163.83723276 506.98161369 C-175.0811938 495.74050101 -186.32209338 484.49633095 -197.56194078 473.2511053 C-207.19654149 463.61203714 -216.83376096 453.97559378 -226.47290039 444.34106445 C-237.67917415 433.14014783 -248.88381665 421.93760353 -260.08587831 410.73247427 C-261.28145196 409.53658209 -262.47702768 408.34069199 -263.67260551 407.144804 C-264.26078023 406.55647501 -264.84895494 405.96814603 -265.45495312 405.36198889 C-269.59060438 401.2254759 -273.72741139 397.09012094 -277.86467171 392.95521736 C-282.90977438 387.91292553 -287.95307865 382.86884307 -292.99411876 377.82248957 C-295.56385566 375.25013299 -298.13436998 372.67856678 -300.70707703 370.10918045 C-303.50076775 367.31904105 -306.29054541 364.52500955 -309.07997131 361.73060608 C-309.8867874 360.92602071 -310.69360349 360.12143535 -311.52486855 359.29246861 C-315.67784555 355.1251369 -319.66779556 350.88195351 -323.48205179 346.40133184 C-324.91282024 344.78127374 -326.39456534 343.31017219 -327.984375 341.84765625 C-335.52354887 334.90099198 -340.46623881 327.68565017 -345.01538086 318.5168457 C-346.08499191 316.42070359 -346.08499191 316.42070359 -348.18359375 313.65234375 C-351.4404237 307.96130174 -350.91652933 301.00445895 -350.9296875 294.62890625 C-350.93376617 293.93032501 -350.93784485 293.23174377 -350.94204712 292.51199341 C-350.91909549 283.29087919 -350.36578153 275.9761954 -343.67944336 269.08203125 C-342.64948405 268.09602077 -341.60433675 267.12562452 -340.54443359 266.171875 C-337.84968044 263.60172981 -335.72283544 260.59920494 -333.4921875 257.62890625 C-322.81404946 243.94343253 -311.38924988 230.89169726 -299.046875 218.68359375 C-298.23276154 217.87326691 -297.41864807 217.06294006 -296.5798645 216.22805786 C-294.01142471 213.67169252 -291.43974117 211.11863118 -288.8671875 208.56640625 C-285.46578351 205.19176992 -282.06782813 201.81371435 -278.671875 198.43359375 C-277.90503387 197.67505096 -277.13819275 196.91650818 -276.34811401 196.13497925 C-275.61690338 195.40707184 -274.88569275 194.67916443 -274.13232422 193.92919922 C-273.18376053 192.98849075 -273.18376053 192.98849075 -272.21603394 192.02877808 C-270.34821575 190.06560943 -268.57948738 188.06583244 -266.8129282 186.01298809 C-263.23692689 181.91841805 -259.48603286 178.04500143 -255.63648987 174.20872498 C-254.92969886 173.50037398 -254.22290786 172.79202298 -253.49469894 172.0622068 C-251.14669462 169.71024209 -248.79516616 167.36183432 -246.44360352 165.01342773 C-244.75093234 163.31940032 -243.05847371 161.6251605 -241.36621094 159.9307251 C-237.25892417 155.81936202 -233.14931309 151.71033352 -229.03853483 147.60246163 C-225.69549226 144.26168414 -222.35343516 140.91992374 -219.01206779 137.57747078 C-218.53518851 137.10043826 -218.05830923 136.62340575 -217.56697906 136.1319177 C-216.59799243 135.16261132 -215.62900802 134.1933027 -214.66002583 133.22399188 C-205.58925213 124.1503716 -196.51542471 115.0798101 -187.44053762 106.01030404 C-179.66622233 98.24045604 -171.8945325 90.46799004 -164.12475586 82.69360352 C-155.08608692 73.64957429 -146.0457867 64.60718078 -137.00290436 55.56736428 C-136.03730848 54.60208692 -135.07171467 53.63680749 -134.10612297 52.67152596 C-133.63112251 52.19667977 -133.15612204 51.72183358 -132.66672762 51.23259811 C-129.33121822 47.8979495 -125.99686517 44.56214738 -122.66296577 41.22588921 C-118.16971959 36.72974777 -113.67402149 32.23607232 -109.17644501 27.7442627 C-107.52928359 26.09842 -105.88296599 24.45173229 -104.23756981 22.80412483 C-101.98564814 20.54945669 -99.7306462 18.29791345 -97.47486877 16.04710388 C-96.82981229 15.39981667 -96.1847558 14.75252947 -95.52015215 14.0856275 C-84.25331746 2.86662608 -71.99177757 -7.57049554 -56.9921875 -13.30859375 C-55.9196875 -13.72109375 -54.8471875 -14.13359375 -53.7421875 -14.55859375 C-33.86188801 -19.98049361 -15.6706483 -12.09053936 0 0 Z " fill="#1E2A33" transform="translate(372.9921875,774.30859375)"/>
<path d="M0 0 C2.63281715 -0.00217508 5.26520646 -0.0203501 7.89794922 -0.03930664 C30.17791894 -0.11454984 50.82340406 1.96831405 67.74560547 17.86889648 C83.21143937 33.51947584 85.1766016 53.99620865 85.19288635 74.95388794 C85.19746084 76.32782885 85.20246214 77.7017684 85.20784992 79.07570636 C85.22133953 82.82703082 85.22882253 86.57834629 85.23527658 90.32968855 C85.2433212 94.38409435 85.25700483 98.4384817 85.26998901 102.49287415 C85.29169444 109.50939477 85.30986046 116.52591731 85.32559395 123.54245377 C85.34834684 133.68707518 85.37648202 143.8316761 85.40591323 153.97628008 C85.45352288 170.43689575 85.49680493 186.89751983 85.53735352 203.3581543 C85.57674222 219.34416355 85.61817649 235.33016534 85.66235352 251.31616211 C85.66507779 252.30223041 85.66780206 253.28829871 85.67060889 254.30424787 C85.68428892 259.2512692 85.69800908 264.19829043 85.7117492 269.14531159 C85.82560982 310.15862643 85.9324421 351.17195736 86.03466797 392.18530273 C87.77997381 390.77284001 89.52307717 389.35765556 91.26526833 387.94135284 C92.23619852 387.15356965 93.20712871 386.36578645 94.20748103 385.55413103 C98.20370857 382.20579323 101.86431585 378.58971694 105.51269531 374.87084961 C106.28345901 374.09395279 107.05422272 373.31705597 107.8483429 372.51661682 C109.50152413 370.84926155 111.15243125 369.17964886 112.80121994 367.50794983 C115.42123928 364.85273881 118.04863419 362.20502786 120.6781311 359.5592041 C128.14650913 352.04227844 135.60345455 344.51409886 143.05126953 336.97680664 C147.62646828 332.34772041 152.21162744 327.72868994 156.802845 323.11549377 C158.53762238 321.36839571 160.26860941 319.61752472 161.99552536 317.86265564 C177.25544377 302.35786416 193.88855628 286.31266418 217.07128906 285.80493164 C236.28840412 285.85435607 251.62949473 293.16030193 265.37841797 306.45092773 C266.89540505 307.97830514 268.40459964 309.51346293 269.90576172 311.05639648 C271.77728382 312.92791858 273.6878772 314.62153906 275.72216797 316.31030273 C293.56507405 331.68595327 309.15904807 350.90659803 311.19482422 375.08764648 C311.74707688 387.98154567 308.18958967 401.74209225 299.91064453 411.75390625 C291.28931829 421.06883427 282.2976755 430.00091334 273.28466797 438.93530273 C270.18272083 442.0104374 267.08426542 445.08903153 263.98779297 448.16967773 C263.29284729 448.85632507 262.59790161 449.54297241 261.88189697 450.25042725 C260.88485748 451.2425119 260.88485748 451.2425119 259.86767578 452.25463867 C259.29462708 452.82245056 258.72157837 453.39026245 258.13116455 453.97528076 C256.30635072 455.89890835 254.57658927 457.86414252 252.84675884 459.87237072 C249.35537583 463.86923544 245.70302091 467.65745447 241.94471741 471.40223694 C241.26651127 472.08200307 240.58830513 472.7617692 239.88954729 473.4621343 C237.63827821 475.71736125 235.38348875 477.96903355 233.12866211 480.22070312 C231.50495562 481.84576596 229.88146167 483.47104117 228.25816345 485.09651184 C223.86382131 489.49540043 219.46633672 493.89113481 215.06813359 498.28616261 C210.45793893 502.89381927 205.85019174 507.50392242 201.24205017 512.1136322 C193.00910187 520.34851428 184.77363898 528.58087642 176.53717803 536.812245 C169.08123517 544.26372061 161.62791792 551.71781404 154.17651367 559.17382812 C145.5070089 567.84869387 136.83581518 576.52186511 128.16215414 585.1925754 C123.57675924 589.77641413 118.99203587 594.36091904 114.40907478 598.94719124 C110.0996827 603.25947942 105.78783738 607.56929971 101.47411537 611.87725639 C99.89468159 613.45537191 98.31609077 615.03433162 96.73842239 616.61421204 C94.57846157 618.77692113 92.41541853 620.93650154 90.25160217 623.09535217 C89.63378233 623.71540274 89.01596248 624.33545331 88.37942082 624.97429329 C84.63390097 628.70325421 80.76451445 632.2368358 76.75854945 635.68482202 C74.68389346 637.49061977 72.73519689 639.39072232 70.81274414 641.35717773 C70.08806442 642.09484375 69.3633847 642.83250977 68.616745 643.5925293 C67.86133926 644.36564453 67.10593353 645.13875977 66.32763672 645.93530273 C64.67249139 647.61283376 63.01687787 649.28990295 61.36083984 650.96655273 C58.78921373 653.57520007 56.22078795 656.18671471 53.66040039 658.80639648 C51.16298169 661.35874832 48.65266192 663.89783136 46.14013672 666.43530273 C45.39080368 667.20841797 44.64147064 667.9815332 43.86943054 668.77807617 C36.99345736 675.68710987 29.11681301 681.73611422 19.65966797 684.56030273 C18.22494141 685.0050293 18.22494141 685.0050293 16.76123047 685.45874023 C1.20755069 689.60341708 -14.2697723 687.27448683 -28.59033203 680.12280273 C-44.21000087 670.90383664 -56.54668399 656.90085354 -69.26508117 644.16166198 C-72.12585748 641.29839487 -74.99240466 638.44091422 -77.8581543 635.58262634 C-83.45578918 629.99767474 -89.04800312 624.40732629 -94.63812484 618.81485554 C-99.18560746 614.26558279 -103.73486723 609.71809444 -108.28536606 605.17183876 C-108.93541399 604.52238602 -109.58546192 603.87293327 -110.25520828 603.20380015 C-111.57617616 601.88404413 -112.89714518 600.56428925 -114.21811531 599.24453548 C-126.576934 586.89656734 -138.92925759 574.54211779 -151.27959667 562.18566928 C-162.55513498 550.90496142 -173.83886713 539.63249057 -185.12648918 528.36387499 C-196.7458207 516.76395713 -208.35954257 505.15844999 -219.96729553 493.54694539 C-226.47260266 487.0397319 -232.98005796 480.53470334 -239.49341202 474.03554344 C-245.03691569 468.50399945 -250.57506365 462.96715915 -256.10655917 457.42360612 C-258.92344099 454.60086832 -261.74258468 451.78050082 -264.56843185 448.96673584 C-293.30378964 420.34580641 -293.30378964 420.34580641 -299.52783203 406.81030273 C-299.84300781 406.17737305 -300.15818359 405.54444336 -300.48291016 404.89233398 C-305.97796573 393.48399451 -306.8515092 380.59275367 -303.34033203 368.43530273 C-298.10057853 353.62889128 -289.66883781 341.95306416 -279.07470703 330.48217773 C-277.18633391 328.42594923 -275.3855262 326.32243865 -273.59033203 324.18530273 C-260.64896409 309.43333056 -241.53534999 294.24198823 -221.38745117 291.88354492 C-218.78039197 291.74983688 -216.20055254 291.71736707 -213.59033203 291.74780273 C-212.67203613 291.75537598 -211.75374023 291.76294922 -210.80761719 291.77075195 C-203.60604971 291.94503472 -197.50982704 293.05490153 -190.96533203 296.18530273 C-190.07201172 296.59780273 -189.17869141 297.01030273 -188.25830078 297.43530273 C-169.79284952 306.73407075 -154.74842204 322.89493208 -141.5 338.44067383 C-139.34046866 340.89565489 -137.00546122 343.15445184 -134.67456055 345.4453125 C-133.06667179 347.08213912 -131.59344987 348.76942058 -130.11767578 350.52514648 C-124.99881359 356.41028109 -119.43562011 361.86409152 -113.91381836 367.3671875 C-112.03204929 369.24359749 -110.15568465 371.12529243 -108.27978516 373.00756836 C-103.00340823 378.28656926 -97.75394148 383.52271221 -92.04396057 388.3374176 C-89.50566078 390.59394702 -87.1249016 392.9795211 -84.73120117 395.38867188 C-83.83687881 396.28743546 -82.94255646 397.18619904 -82.02113342 398.11219788 C-81.34271896 398.79632248 -80.6643045 399.48044708 -79.96533203 400.18530273 C-79.9644364 399.0999713 -79.9644364 399.0999713 -79.96352267 397.99271399 C-79.92759021 355.06194104 -79.87089216 312.13123824 -79.78741108 269.20053009 C-79.77739421 264.04009977 -79.76754998 258.87966913 -79.7578125 253.71923828 C-79.75490044 252.17828405 -79.75490044 252.17828405 -79.75192955 250.60619944 C-79.72095021 233.995481 -79.70394026 217.38477637 -79.69213781 200.77403451 C-79.67970516 183.71637599 -79.65215613 166.65878963 -79.61071897 149.60117668 C-79.58564402 139.08473984 -79.57221036 128.56842273 -79.57390246 118.05195557 C-79.57393233 110.8299968 -79.55921371 103.60815955 -79.53316775 96.38624818 C-79.51859155 92.2261937 -79.51025841 88.06638841 -79.51952934 83.90631294 C-79.56805299 59.23517514 -79.53660562 36.33692719 -61.33642578 17.40014648 C-44.05740196 1.25977333 -22.38156764 -0.00206282 0 0 Z " fill="#83B6C7" transform="translate(1063.96533203125,1423.814697265625)"/>
<path d="M0 0 C2.54084265 0.04847628 5.06749192 0.00024012 7.60791016 -0.05712891 C15.41110904 -0.08629116 21.19800215 0.01438471 27.25634766 5.47021484 C28.66880437 7.01243682 30.05748139 8.57718381 31.40869141 10.17333984 C33.16427349 11.64999767 34.93156851 13.11312672 36.72119141 14.54833984 C40.79067734 17.84978196 44.83624563 21.17503708 48.84619141 24.54833984 C49.81427734 25.36044922 50.78236328 26.17255859 51.77978516 27.00927734 C60.64356072 34.64443424 69.08835021 42.70650884 77.32233429 51.01181793 C78.85198612 52.55458619 80.38504962 54.09389817 81.91888428 55.63250732 C85.16837731 58.89324806 88.41384255 62.15797841 91.65869141 65.42333984 C95.44061867 69.22906161 99.22428441 73.0330237 103.0121994 76.83278656 C104.50749465 78.33446457 105.99969961 79.83916433 107.49176025 81.34405518 C108.4134198 82.26901794 109.33507935 83.19398071 110.28466797 84.14697266 C111.08342346 84.95096497 111.88217896 85.75495728 112.70513916 86.58331299 C114.73356028 88.52655828 116.77136621 90.35134774 118.90458679 92.17121887 C125.09453641 97.55030634 130.80796444 103.43317365 136.59838867 109.23364258 C137.91803702 110.55193393 139.23789758 111.87001288 140.55795288 113.18789673 C144.12422003 116.74962507 147.68734081 120.31448523 151.24974942 123.88007236 C154.9885604 127.62142533 158.72982231 131.36032619 162.47068787 135.09962463 C168.75089404 141.37801448 175.02899566 147.65850297 181.3059082 153.94018555 C188.54993206 161.18965099 195.7975512 168.43550709 203.04704815 175.67949909 C209.28520759 181.91311211 215.5214056 188.14868234 221.75598568 194.38587528 C225.47350953 198.1049535 229.19169463 201.82336388 232.91165352 205.54000664 C236.40973512 209.03518731 239.90533794 212.53282872 243.39908981 216.03233719 C244.67727092 217.311834 245.95629159 218.59049279 247.23623848 219.86822319 C258.96523482 231.5787885 258.96523482 231.5787885 264.00399876 237.54955864 C266.60655523 240.55803333 269.48510304 243.29215912 272.33837891 246.06005859 C273.64221686 247.34149935 274.94558758 248.62341565 276.24853516 249.90576172 C278.2599683 251.88032592 280.27420922 253.85163709 282.296875 255.81469727 C297.83198375 270.91521771 312.05410201 287.71524694 312.47119141 310.60302734 C310.93036023 337.88857948 290.7689909 360.4976715 271.40869141 378.17333984 C256.37533288 391.07155103 239.27622707 402.9788551 218.64306641 402.35693359 C189.56697078 399.96781385 166.85660656 376.25743338 148.89570618 355.41786194 C144.6347929 350.48275281 140.18521578 345.80335966 135.56884766 341.20068359 C134.84306015 340.47393936 134.11727264 339.74719513 133.36949158 338.99842834 C131.84545585 337.47371688 130.32017571 335.95024834 128.79370117 334.42797852 C126.47736677 332.11700093 124.16642063 329.80073214 121.85595703 327.48388672 C120.36474106 325.99333164 118.87321488 324.50308684 117.38134766 323.01318359 C116.36065941 321.989459 116.36065941 321.989459 115.3193512 320.9450531 C112.22674638 317.86727456 109.11089084 314.88366265 105.78540039 312.05834961 C101.69854235 308.54895664 97.92906857 304.7492169 94.13514709 300.93052673 C93.4871592 300.28032043 92.8391713 299.63011413 92.17154741 298.9602046 C90.58280141 297.36569864 88.99522011 295.77005151 87.40869141 294.17333984 C87.40733488 294.86976624 87.40597835 295.56619265 87.40458071 296.28372288 C87.32384811 337.60277996 87.23285984 378.92180347 87.12863979 420.24080831 C87.11612163 425.20725093 87.10368875 430.17369375 87.09130859 435.14013672 C87.0888426 436.12882386 87.08637661 437.11751099 87.08383588 438.13615835 C87.04416317 454.12352662 87.0113916 470.11090191 86.98119159 486.09829056 C86.95002579 502.515209 86.91139462 518.93209777 86.86590135 535.34898281 C86.83808583 545.47077404 86.81602288 555.59254368 86.8014289 565.71436274 C86.79084843 572.66482918 86.77298578 579.61525371 86.74952437 586.56568849 C86.73622008 590.56960921 86.72600391 594.57347146 86.72447777 598.57741547 C86.72300475 602.25448751 86.71223817 605.93141916 86.694557 609.60844791 C86.68752771 611.54514085 86.69001795 613.48186144 86.69302714 615.4185648 C86.56817813 635.29181338 83.90678296 655.44596544 69.72119141 670.48583984 C52.20955889 687.02751667 29.64652865 687.53188514 6.98022461 687.48901367 C3.48275662 687.4858503 -0.01386631 687.509387 -3.51123047 687.53466797 C-25.78517459 687.59821462 -44.28136013 684.68391189 -61.55224609 669.44287109 C-65.56300818 665.33229366 -68.21452195 660.54350088 -70.84130859 655.48583984 C-71.17090576 654.86322266 -71.50050293 654.24060547 -71.84008789 653.59912109 C-77.15929205 642.80014329 -78.0342327 631.40856484 -77.99003601 619.55046082 C-77.99548836 618.1203044 -78.00224524 616.69015248 -78.01017791 615.26000768 C-78.02806103 611.36718427 -78.02766381 607.474553 -78.02404845 603.5816983 C-78.02342102 599.36985937 -78.04007797 595.15808294 -78.05456543 590.9462738 C-78.07729087 583.66132828 -78.08922605 576.37643038 -78.09369469 569.09145164 C-78.10017127 558.5587925 -78.12313511 548.02621923 -78.15003798 537.4935948 C-78.19324911 520.40239888 -78.22324823 503.31120658 -78.24487305 486.2199707 C-78.26589977 469.62392393 -78.29318963 453.02790681 -78.32885742 436.43188477 C-78.33105625 435.40777369 -78.33325507 434.38366262 -78.33552053 433.32851788 C-78.3465906 428.19051539 -78.35778333 423.05251317 -78.36903703 417.91451108 C-78.46214175 375.33414684 -78.53377693 332.75376602 -78.59130859 290.17333984 C-80.3372258 291.58664251 -82.0809897 293.00260548 -83.82386112 294.41966248 C-85.28079997 295.60199793 -85.28079997 295.60199793 -86.76717192 296.80821896 C-90.73251368 300.12906129 -94.37018273 303.7102328 -97.9934082 307.39599609 C-99.13733284 308.54671097 -99.13733284 308.54671097 -100.30436707 309.72067261 C-101.9395629 311.36672361 -103.57246569 313.01505525 -105.2032299 314.66549683 C-107.79394811 317.28672798 -110.39158613 319.90092486 -112.99110413 322.51342773 C-120.3739389 329.93572931 -127.74382375 337.37084128 -135.1105957 344.80908203 C-139.63614996 349.3775828 -144.16917941 353.93856221 -148.70654488 358.49533081 C-150.4217106 360.22098805 -152.13396118 361.94954828 -153.84309196 363.68118286 C-176.16306711 386.29469039 -176.16306711 386.29469039 -188.34130859 391.61083984 C-189.84951172 392.28953125 -189.84951172 392.28953125 -191.38818359 392.98193359 C-205.55976409 398.25307024 -221.60418035 397.93876588 -235.59130859 392.17333984 C-249.42519013 385.5317002 -260.24113427 374.87786998 -270.94458008 364.13574219 C-272.77806364 362.29908609 -274.6245425 360.47622471 -276.47216797 358.65380859 C-291.49789361 343.70999349 -303.69966193 327.28487998 -304.02880859 305.29833984 C-303.87746537 282.49517186 -290.32568782 266.57342069 -274.88931274 251.21737671 C-273.94438499 250.27013743 -272.99989248 249.32246382 -272.05579126 248.37440073 C-269.4908489 245.80119656 -266.91981363 243.23416065 -264.34762287 240.66820478 C-261.56274988 237.88789098 -258.78368034 235.10178594 -256.00382996 232.31645203 C-250.56926306 226.87302622 -245.12934495 221.43497936 -239.6874416 215.99888895 C-235.26187268 211.57785036 -230.8382762 207.15484704 -226.41605759 202.73045731 C-225.78489522 202.09898848 -225.15373286 201.46751965 -224.50344437 200.8169154 C-223.22096377 199.5337953 -221.93848763 198.25067074 -220.65601592 196.96754177 C-208.65082333 184.95665615 -196.63952613 172.95189044 -184.62610714 160.94923373 C-174.33466515 150.66672631 -164.0484779 140.37898672 -153.76611328 130.08740234 C-141.8042367 118.11480497 -129.83909953 106.14548158 -117.86879575 94.18130934 C-116.59059004 92.90374068 -115.31238849 91.62616787 -114.03419113 90.34859085 C-113.4054126 89.72012087 -112.77663407 89.0916509 -112.12880165 88.44413637 C-107.71372908 84.03078532 -103.3009705 79.61512881 -98.88911819 75.19855881 C-93.50708905 69.81090069 -88.12147058 64.42686103 -82.73132278 59.04732488 C-79.98518046 56.30641222 -77.24061203 53.5639741 -74.50041389 50.81711769 C-71.98547303 48.29615876 -69.46585505 45.77996966 -66.94263713 43.26729603 C-65.61274542 41.94064961 -64.28768777 40.60916255 -62.96288741 39.27743185 C-57.14505677 33.49687522 -51.00439314 28.2801412 -44.59130859 23.17333984 C-43.20528701 22.04025187 -41.82076468 20.90532242 -40.43896484 19.76708984 C-39.17736706 18.73569186 -37.91565135 17.7044381 -36.65380859 16.67333984 C-36.04085938 16.16931641 -35.42791016 15.66529297 -34.79638672 15.14599609 C-33.48640062 14.07721802 -32.16341772 13.02422275 -30.82958984 11.98535156 C-28.49318649 10.14172695 -28.49318649 10.14172695 -26.08740234 7.80273438 C-17.75134412 0.47530437 -10.79731725 -0.24506035 0 0 Z " fill="#83B6C7" transform="translate(1062.59130859375,20.82666015625)"/>
<path d="M0 0 C0.69654694 0.00215515 1.39309387 0.0043103 2.11074829 0.00653076 C13.37915077 0.06222011 24.26118161 0.6754679 35.25 3.3125 C36.08499023 3.51117676 36.91998047 3.70985352 37.78027344 3.91455078 C66.70962176 11.03225812 91.65284282 24.88910136 113.25 45.3125 C114.18328125 46.16972656 115.1165625 47.02695312 116.078125 47.91015625 C143.61029813 73.78803571 162.0039071 113.80771838 163.36669922 151.54394531 C164.16354154 181.18965101 160.43959608 208.50177487 147.25 235.3125 C146.94336426 235.94349609 146.63672852 236.57449219 146.32080078 237.22460938 C127.44678692 275.61840429 93.83059872 304.09588122 53.77001953 318.46044922 C10.25802172 333.17241128 -35.1794065 329.01638005 -76.09326172 308.79345703 C-90.1129503 301.62290826 -102.39715513 292.19309675 -113.75 281.3125 C-114.61753906 280.508125 -115.48507812 279.70375 -116.37890625 278.875 C-142.23631061 254.15782258 -158.28835861 219.64247423 -162.75 184.3125 C-162.86085938 183.48621094 -162.97171875 182.65992188 -163.0859375 181.80859375 C-167.79834088 140.09745571 -155.87757933 96.25516221 -129.75 63.3125 C-106.01711826 34.02906155 -76.29148909 14.29459479 -39.875 4.4375 C-39.17592529 4.24639648 -38.47685059 4.05529297 -37.7565918 3.85839844 C-25.3382034 0.71204506 -12.76095207 -0.07178455 0 0 Z " fill="#F5A474" transform="translate(1066.75,902.6875)"/>
</svg>
