<?xml version="1.0" encoding="UTF-8"?>
<svg version="1.1" xmlns="http://www.w3.org/2000/svg" width="2134" height="2134">
<path d="M0 0 C2.37714943 2.10051683 4.72688265 4.22846667 7.0625 6.375 C7.90425781 7.14457031 8.74601562 7.91414063 9.61328125 8.70703125 C42.94106393 40.6140914 53.9100998 83.93292663 59.0625 128.375 C59.1670752 129.2510791 59.27165039 130.1271582 59.37939453 131.02978516 C60.49005774 141.97150665 60.30458371 153.01435069 60.3125 164 C60.31383942 165.09359833 60.31517883 166.18719666 60.31655884 167.31393433 C60.31143203 186.5951494 59.17082772 205.12717713 55.375 224.0625 C52.75720974 237.27677103 52.94959603 248.06653106 60.0625 259.625 C71.69282851 272.06347823 94.23922676 273.11030576 110.1875 275 C111.04625732 275.10516937 111.90501465 275.21033875 112.78979492 275.31869507 C128.84955311 277.28306137 144.90324326 278.58006882 161.0625 279.375 C159.74842919 282.84448626 158.22659573 286.01353662 156.375 289.2265625 C155.84632324 290.15001465 155.31764648 291.0734668 154.77294922 292.02490234 C154.20850098 293.00668457 153.64405273 293.9884668 153.0625 295 C108.05200499 374.1752373 85.64045544 464.33629894 107.8125 637.9375 C120.38539539 682.89824662 140.26393832 726.09692319 167.0625 764.375 C167.56249512 765.09139648 168.06249023 765.80779297 168.57763672 766.54589844 C174.85893401 775.50281065 181.33207379 784.17250699 188.515625 792.42578125 C190.93867257 795.23161087 193.25486335 798.09908796 195.5625 801 C199.59871517 805.97099391 203.99146657 810.40554509 208.5625 814.875 C210.5827199 816.8952199 212.43954814 818.92097164 214.25 821.125 C216.78941654 824.17229985 219.59521682 826.67983213 222.6171875 829.2421875 C225.1100949 831.41651249 227.50778685 833.66884349 229.90844727 835.94360352 C236.77197556 842.43037714 243.88982261 848.38628314 251.40380859 854.1015625 C252.94780357 855.28694339 254.46907465 856.50176207 255.98828125 857.71875 C271.32251071 869.90489262 288.01645666 880.73400211 305.0625 890.375 C305.84173828 890.81730957 306.62097656 891.25961914 307.42382812 891.71533203 C359.84681282 921.29573091 415.76334461 940.55582593 475.0625 950.375 C474.94189209 951.67920898 474.94189209 951.67920898 474.81884766 953.00976562 C466.23409916 1047.60120267 469.76275658 1142.76638918 579.25 1510.8125 C588.50635599 1521.65091181 598.48689279 1531.5060528 609.94140625 1539.98828125 C614.78732285 1543.69398218 619.21802443 1547.79519034 623.62597656 1552.00585938 C625.01848613 1553.33305068 626.42698908 1554.6433983 627.8359375 1555.953125 C653.3976713 1580.41621695 669.53436521 1614.74073291 670.375 1650.1875 C670.26095812 1669.26042275 665.74459129 1690.0065599 654.0625 1705.375 C653.56492187 1706.07625 653.06734375 1706.7775 652.5546875 1707.5 C642.74007485 1720.12583336 627.20870389 1725.71010273 611.93678093 1727.96226311 C604.20110657 1728.78636395 596.44205427 1728.69786173 588.67016602 1728.72094727 C586.71244856 1728.73417291 584.75473745 1728.74836609 582.79703331 1728.76343346 C578.54407012 1728.79468313 574.29112201 1728.82048245 570.03809929 1728.84214592 C559.35049985 1728.89760698 548.66313752 1728.98597294 537.97574484 1729.07160246 C535.41063616 1729.09205366 532.84552484 1729.11217705 530.28041112 1729.13198698 C500.19050021 1729.36477998 470.1033156 1729.76441677 440.01550758 1730.18359307 C432.4610898 1730.28883391 424.90665327 1730.39269546 417.35221506 1730.49645738 C413.4980608 1730.54939925 409.64390728 1730.60239472 405.78975391 1730.65540123 C405.02054003 1730.66597909 404.25132614 1730.67655696 403.45880274 1730.68745536 C398.76070216 1730.7520847 394.06260421 1730.81690257 389.36450809 1730.88185553 C335.24344325 1731.63003672 281.12173101 1732.33073683 226.99998379 1733.02756691 C226.22017916 1733.03760757 225.44037454 1733.04764824 224.63693947 1733.05799317 C218.07409058 1733.1424926 218.07409058 1733.1424926 215.36208899 1733.17740057 C205.19624637 1733.30828572 195.03042583 1733.4407434 184.86462402 1733.57476807 C155.36848198 1733.96312276 125.87220902 1734.32712637 96.375 1734.625 C95.37588026 1734.63509283 94.37676052 1734.64518566 93.34736443 1734.65558434 C-6.13655502 1735.65251003 -105.62811375 1735.55638904 -205.11590542 1735.56186891 C-211.509881 1735.56222457 -217.90385645 1735.56287239 -224.29783197 1735.56381833 C-250.81842952 1735.56772995 -277.33900844 1735.56297349 -303.85960175 1735.54728941 C-310.39676941 1735.54360099 -316.93393507 1735.54207329 -323.47110367 1735.54151726 C-391.0778544 1735.53345125 -458.68112839 1734.96153552 -526.27441406 1733.55913162 C-529.25527587 1733.4972976 -532.23615798 1733.4365034 -535.21704102 1733.3757019 C-750.5977464 1728.94838508 -750.5977464 1728.94838508 -860.9375 1700.375 C-872.77551232 1686.20525798 -872.89829349 1669.96385276 -871.9375 1652.375 C-869.72540283 1631.24121194 -858.25869002 1613.14993436 -843.2734375 1598.671875 C-841.21127114 1596.64419303 -839.31163843 1594.57469299 -837.4375 1592.375 C-834.74138859 1589.22105835 -831.88933025 1586.29126603 -828.9375 1583.375 C-825.474742 1579.94852839 -822.20124877 1576.4595187 -819.0390625 1572.7578125 C-816.12412196 1569.4527684 -813.08643036 1566.26763519 -810.0625 1563.0625 C-805.1938732 1557.88834821 -800.57979798 1552.60515054 -796.14453125 1547.05078125 C-793.67769141 1544.06001083 -791.07742159 1541.2117479 -788.4375 1538.375 C-783.35354229 1532.89747942 -778.61858785 1527.19818313 -773.9375 1521.375 C-772.92964684 1520.14609981 -771.92044845 1518.91830207 -770.91015625 1517.69140625 C-763.86205368 1509.11502968 -757.07169631 1500.38761351 -750.48095703 1491.45556641 C-748.92626988 1489.3598619 -747.35368135 1487.27867358 -745.77734375 1485.19921875 C-738.39100446 1475.39563153 -731.44055891 1465.32961082 -724.625 1455.125 C-724.20879395 1454.5037323 -723.79258789 1453.8824646 -723.36376953 1453.24237061 C-715.3619927 1441.27806895 -707.83348483 1429.04114832 -700.875 1416.4375 C-700.25250366 1415.31093994 -700.25250366 1415.31093994 -699.61743164 1414.16162109 C-695.50674022 1406.6682963 -691.6311476 1399.08169758 -687.9375 1391.375 C-687.58333008 1390.64684082 -687.22916016 1389.91868164 -686.86425781 1389.16845703 C-670.10566392 1354.49014865 -662.56773082 1318.26659964 -661.39453125 1279.9140625 C-661.35433365 1278.66334961 -661.31413605 1277.41263672 -661.27272034 1276.12402344 C-660.83326048 1261.87666957 -660.56456666 1247.62755614 -660.375 1233.375 C-660.36465981 1232.61313133 -660.35431961 1231.85126266 -660.34366608 1231.06630707 C-659.17679196 1144.11111628 -659.47521824 1057.07571737 -660.9375 935.375 C-660.95418983 934.19111694 -660.97087967 933.00723389 -660.98807526 931.78747559 C-661.68509638 882.51761522 -662.44124245 833.24768483 -663.51171875 783.984375 C-663.53504461 782.90797823 -663.55837048 781.83158146 -663.58240318 780.7225666 C-663.80033542 770.6927332 -664.02294375 760.6630444 -664.26301003 750.63371468 C-664.52778804 739.54807871 -664.75940362 728.4623827 -664.9375 717.375 C-664.95178165 716.51158115 -664.96606331 715.64816231 -664.98077774 714.75857925 C-665.06531054 709.48688839 -665.1278459 704.21557609 -665.16355515 698.94332314 C-665.17656683 697.31621472 -665.19469513 695.68913621 -665.21883011 694.06215477 C-665.45993321 677.01017943 -662.36151887 660.90615456 -658.41204834 644.37780762 C-657.68322562 641.30184766 -656.99669401 638.21635963 -656.30078125 635.1328125 C-644.89679241 586.06258022 -626.25622694 538.46105912 -601.9375 494.375 C-601.54353027 493.65634766 -601.14956055 492.93769531 -600.74365234 492.19726562 C-587.27147139 467.85371086 -570.84382805 444.63310277 -552.9375 423.375 C-552.51065918 422.86324219 -552.08381836 422.35148437 -551.64404297 421.82421875 C-538.73603285 406.36596583 -524.95601276 391.79891444 -509.9375 378.375 C-509.36322266 377.86130859 -508.78894531 377.34761719 -508.19726562 376.81835938 C-498.8313545 368.49903809 -488.98752295 360.84638401 -478.9375 353.375 C-478.21546387 352.8372998 -477.49342773 352.29959961 -476.74951172 351.74560547 C-452.15329806 333.50811877 -426.01301401 317.64208717 -398.9375 303.375 C-397.98891113 302.87468262 -397.04032227 302.37436523 -396.06298828 301.85888672 C-374.65105444 290.65408837 -352.32752884 280.67833871 -328.9375 274.375 C-328.2455957 274.17922363 -327.55369141 273.98344727 -326.84082031 273.78173828 C-319.51360217 271.89980361 -312.32961051 272.26492204 -304.8203125 272.453125 C-295.19608153 272.60005982 -286.49993306 271.84287038 -278.9375 265.375 C-268.3959089 253.54374615 -268.22899379 235.11588987 -269.05780029 220.21166992 C-269.36364577 215.78851926 -269.75788087 211.3736675 -270.16293335 206.95864868 C-271.66389218 190.44162168 -272.66847961 173.96234884 -272.9375 157.375 C-272.95941406 156.07062988 -272.98132813 154.76625977 -273.00390625 153.42236328 C-274.1449735 77.6059746 -274.1449735 77.6059746 -260.9375 49.375 C-260.64359375 48.74303711 -260.3496875 48.11107422 -260.046875 47.45996094 C-242.19513946 9.95996986 -204.78740995 -16.94038833 -166.51708984 -30.72998047 C-108.39516588 -50.89607674 -46.91106133 -40.50235009 0 0 Z " fill="#1E2A33" transform="translate(1140.9375,87.625)"/>
<path d="M0 0 C1.84706543 0.29801514 1.84706543 0.29801514 3.73144531 0.60205078 C76.89277878 12.8261284 140.35570233 47.61595126 192.6875 99.5 C193.56647949 100.36592773 194.44545898 101.23185547 195.35107422 102.12402344 C201.33641855 108.1014938 206.74113895 114.37928774 212 121 C212.90528799 122.0995243 213.81241458 123.19754183 214.72265625 124.29296875 C227.91304801 140.61029812 239.32952965 158.39200722 249 177 C249.51651123 177.97960693 249.51651123 177.97960693 250.04345703 178.97900391 C270.72812875 218.34405695 283.21267592 261.70791572 287 306 C287.08677002 307.00643555 287.08677002 307.00643555 287.17529297 308.03320312 C292.16130662 369.04899033 280.27728647 431.24411867 253 486 C252.37593262 487.26457031 252.37593262 487.26457031 251.73925781 488.5546875 C238.78622392 514.60456375 222.06544032 539.23384628 202.25 560.56640625 C200.36053949 562.61004149 198.54658082 564.68804318 196.75 566.8125 C188.91219778 575.82317999 180.21600681 584.40664054 171 592 C170.46745605 592.44633789 169.93491211 592.89267578 169.38623047 593.35253906 C138.23211727 619.43776235 103.20778093 640.05784921 65 654 C63.64382568 654.4962085 63.64382568 654.4962085 62.26025391 655.00244141 C-21.28505543 685.13176805 -115.23427704 679.14552192 -195.51953125 642.1015625 C-226.50724318 627.45482949 -254.91843508 608.10119613 -280.01171875 584.765625 C-282.9080535 582.07232643 -285.86089677 579.44512012 -288.8125 576.8125 C-292.54300459 573.42307012 -295.96642451 569.96186775 -299.20703125 566.10546875 C-301.3179373 563.6266488 -303.53286041 561.25920819 -305.75 558.875 C-360.6326073 498.52071281 -389.20427756 416.83831954 -389.25 335.9375 C-389.25067474 334.86586609 -389.25134949 333.79423218 -389.25204468 332.69012451 C-389.23562635 316.26474286 -388.71410502 300.23431988 -386 284 C-385.82839355 282.94377441 -385.65678711 281.88754883 -385.47998047 280.79931641 C-372.5984146 203.47538614 -332.92499264 128.41001929 -272 78 C-271.22293701 77.34427002 -271.22293701 77.34427002 -270.43017578 76.67529297 C-254.98694961 63.66038098 -238.58702764 51.94352964 -221 42 C-220.20432617 41.54415527 -219.40865234 41.08831055 -218.58886719 40.61865234 C-204.7887122 32.74285874 -190.72370609 25.968489 -176 20 C-175.21125488 19.67692871 -174.42250977 19.35385742 -173.60986328 19.02099609 C-150.72509701 9.75940819 -126.34876728 3.8240645 -102 0 C-100.97342285 -0.16371094 -99.9468457 -0.32742187 -98.88916016 -0.49609375 C-66.79887008 -5.35810671 -32.02967617 -5.18606773 0 0 Z " fill="#F5A474" transform="translate(1732,248)"/>
<path d="M0 0 C43.35645775 -0.2872847 86.6997853 0.46159257 130.04952006 1.12949839 C137.59810992 1.24574912 145.14672193 1.36045502 152.69535065 1.47415352 C154.32486194 1.49869869 154.32486194 1.49869869 155.98729266 1.52373971 C158.19582908 1.55699965 160.40436555 1.5902559 162.61290208 1.62350852 C183.14882181 1.9328703 203.68467169 2.24667646 224.22049871 2.56212486 C241.78627152 2.83185007 259.35209788 3.09782518 276.91796875 3.36108398 C297.43866603 3.66862902 317.95932788 3.97838906 338.47993779 4.29171377 C340.67045542 4.32515513 342.86097308 4.35859413 345.05149078 4.39203072 C346.1286691 4.40847467 347.20584741 4.42491861 348.3156675 4.44186087 C355.85702045 4.55683889 363.39839571 4.67027197 370.93978119 4.78309441 C380.12518124 4.92055876 389.31053973 5.06049975 398.49585506 5.20351737 C403.16903859 5.27622145 407.84223131 5.34788683 412.51547623 5.41654205 C448.40520937 5.94518633 448.40520937 5.94518633 466 7 C464.97024131 43.13426565 445.49123069 75.26502624 420.05859375 99.87890625 C418.08471771 101.6481472 416.05428013 103.32459726 414 105 C412.96981373 105.87732436 411.93988947 106.75495643 410.91015625 107.6328125 C354.98490447 154.57748112 276.18220311 169.94861155 204.875 164.3125 C157.43894915 159.99829215 108.00832319 146.34039013 69 118 C68.11272217 117.35853027 68.11272217 117.35853027 67.20751953 116.70410156 C59.74321611 111.25187883 52.70325669 105.36809386 46 99 C45.46761719 98.50016602 44.93523438 98.00033203 44.38671875 97.48535156 C20.68832698 75.11096701 3.53597893 45.83445012 0 13 C-0.04904823 10.7114097 -0.06437092 8.42186146 -0.046875 6.1328125 C-0.04010742 4.9792627 -0.03333984 3.82571289 -0.02636719 2.63720703 C-0.01766602 1.76692871 -0.00896484 0.89665039 0 0 Z " fill="#1E2A33" transform="translate(804,1908)"/>
<path d="M0 0 C1.54765297 -0.01702469 1.54765297 -0.01702469 3.12657166 -0.03439331 C4.25290512 -0.03146271 5.37923859 -0.0285321 6.53970337 -0.0255127 C8.32565666 -0.03821701 8.32565666 -0.03821701 10.14768982 -0.05117798 C13.41024967 -0.07056791 16.67245859 -0.07632501 19.93506575 -0.07443047 C22.66112876 -0.07431071 25.38713835 -0.08287698 28.11318648 -0.09120798 C34.54657345 -0.11044018 40.97983068 -0.11332686 47.41323853 -0.10656738 C54.04355636 -0.09992897 60.67331753 -0.12278255 67.30352247 -0.15988111 C73.00134684 -0.19060236 78.6989924 -0.20193549 84.39689791 -0.1980443 C87.79763024 -0.19597896 91.19792953 -0.20142149 94.59858322 -0.22593689 C98.39320839 -0.24805516 102.1864893 -0.23845829 105.98110962 -0.2208252 C107.10339462 -0.23408844 108.22567963 -0.24735168 109.38197327 -0.26101685 C117.87949764 -0.16920433 117.87949764 -0.16920433 121.50909424 2.62036133 C125.92665272 7.76779011 126.18945274 12.02488863 126.07217407 18.64074707 C126.06459674 19.43444985 126.05701941 20.22815264 126.04921246 21.04590702 C125.93968956 29.19672719 125.4924748 37.31985634 124.97183228 45.45300293 C124.87305893 47.05930454 124.7747348 48.66563382 124.67681885 50.27198792 C124.41357007 54.56591062 124.14324753 58.85935983 123.87131882 63.15274048 C123.64241556 66.78117766 123.41779208 70.40987531 123.19305134 74.03857231 C121.50285886 101.31103843 119.70071567 128.57583385 117.85811234 155.83837128 C116.1228056 181.52668897 114.52795164 207.221903 113.00767517 232.92379761 C112.78776067 236.6065279 112.5609494 240.28878852 112.33364868 243.97106934 C112.05563456 248.50237381 111.80275507 253.03370482 111.57864475 257.56790257 C111.44027008 260.31272174 111.28779453 263.05666178 111.13309288 265.80060387 C111.02979234 267.72031151 110.94470395 269.64097224 110.86021423 271.56159973 C110.42040248 279.14127532 109.73889825 285.34073663 104.29240417 291.07670593 C100.73269279 293.02902305 97.22818784 292.82851889 93.26919556 292.81433105 C92.40042786 292.8228006 91.53166016 292.83127014 90.63656616 292.83999634 C87.76509961 292.86339204 84.89416818 292.86438781 82.02261353 292.86315918 C80.02487982 292.87025976 78.02714815 292.8779586 76.02941895 292.88623047 C71.84138319 292.89968159 67.65353594 292.90124144 63.46548462 292.89538574 C58.10295233 292.8894924 52.74132625 292.92006333 47.37896919 292.96050262 C43.2524937 292.98637539 39.12623643 292.98925735 34.99969101 292.98561096 C33.02295532 292.98730294 31.04620963 292.99695294 29.06955338 293.01475525 C26.30215422 293.03693417 23.53658937 293.02724849 20.76919556 293.00964355 C19.95548492 293.0229068 19.14177429 293.03617004 18.30340576 293.04983521 C14.23828314 292.98986064 11.67000211 292.62653891 8.44770813 290.03756714 C1.76398438 283.13108582 2.23575154 275.03059057 1.78433228 265.88659668 C1.69981308 264.37983018 1.61396028 262.873138 1.52690125 261.36651611 C1.3390471 258.08067895 1.15859137 254.79454984 0.98373413 251.50799561 C0.54649245 243.31242215 0.06751786 235.11923506 -0.41059113 226.92596054 C-0.52638827 224.94064646 -0.64175302 222.95530712 -0.75670624 220.969944 C-1.76665718 203.55706503 -2.90873031 186.15470516 -4.10629272 168.75378418 C-4.19355055 167.48551411 -4.28080837 166.21724403 -4.37071037 164.91054153 C-5.15761707 153.49015744 -5.95178945 142.07028224 -6.75018311 130.6506958 C-8.47799596 105.92946534 -10.18156964 81.20724041 -11.65191269 56.46912766 C-11.78276349 54.27356164 -11.91542469 52.07810256 -12.0501442 49.88277054 C-12.46693949 43.05559339 -12.83372409 36.22878246 -13.11019897 29.39440918 C-13.14860146 28.44898506 -13.18700394 27.50356094 -13.22657013 26.52948761 C-13.32420903 23.78204624 -13.38814924 21.03614539 -13.43881226 18.28747559 C-13.46760405 17.47486959 -13.49639584 16.6622636 -13.5260601 15.82503319 C-13.56968683 10.53188313 -12.64773043 7.57015382 -9.11019897 3.39440918 C-6.04366934 0.63137978 -4.10471995 0.01709015 0 0 Z " fill="#F3F0E4" transform="translate(1621.1101989746094,348.6055908203125)"/>
<path d="M0 0 C0.99556412 -0.01182816 1.99112823 -0.02365631 3.01686096 -0.0358429 C6.3104552 -0.06876157 9.60322467 -0.07168674 12.89697266 -0.0715332 C15.18617085 -0.08184553 17.47536578 -0.0929083 19.76455688 -0.10469055 C24.56464136 -0.12413577 29.3644344 -0.12753978 34.16455078 -0.12109375 C40.31427328 -0.11509759 46.46248641 -0.15932347 52.61189842 -0.21698284 C57.34060462 -0.25396273 62.06894638 -0.25888591 66.79777908 -0.25470924 C69.06480705 -0.25758246 71.33184964 -0.27166772 73.59873581 -0.2971859 C76.77128906 -0.32914443 79.94072094 -0.31661796 83.11328125 -0.29296875 C84.5161866 -0.32129288 84.5161866 -0.32129288 85.94743347 -0.35018921 C92.1627311 -0.24003704 92.1627311 -0.24003704 95.10530472 2.07542992 C99.73011209 7.284346 100.33714103 11.65381081 100.34716797 18.48974609 C100.35461533 19.70007759 100.35461533 19.70007759 100.36221313 20.93486023 C100.37682986 23.60721692 100.38363709 26.27951418 100.38916016 28.9519043 C100.39491344 30.81175233 100.40067115 32.67160036 100.40643311 34.53144836 C100.41694268 38.4345426 100.42278516 42.33761626 100.42626953 46.24072266 C100.4317443 51.22955215 100.45575071 56.21810734 100.48424149 61.20685101 C100.50291689 65.05114013 100.50807614 68.89536395 100.50960541 72.7396946 C100.51262304 74.57800605 100.52062139 76.4163166 100.53379059 78.25458336 C100.55094853 80.8344814 100.5489469 83.41371955 100.54248047 85.99365234 C100.55169525 86.74563904 100.56091003 87.49762573 100.57040405 88.2723999 C100.5300812 93.43806397 99.82019159 98.04521763 97.18603516 102.56518555 C92.3647765 107.17134575 87.82402262 107.13988321 81.51220703 107.08276367 C80.55536514 107.08977295 79.59852325 107.09678223 78.61268616 107.10400391 C75.45975453 107.12156362 72.30772542 107.10996799 69.15478516 107.09643555 C66.95812814 107.09913103 64.76147228 107.10301393 62.56481934 107.10803223 C57.96497213 107.11392455 53.365436 107.1053726 48.765625 107.08666992 C42.87414539 107.06388087 36.98339471 107.07700532 31.09194183 107.10095978 C26.55713423 107.11542473 22.02249899 107.11080849 17.48768616 107.10044861 C15.31559665 107.09778327 13.14349142 107.10104428 10.97142029 107.11036682 C7.93381389 107.12054357 4.89738234 107.1050148 1.85986328 107.08276367 C0.5177755 107.09490906 0.5177755 107.09490906 -0.85142517 107.1072998 C-6.26210373 107.03399901 -9.7319636 106.46507 -13.81396484 102.56518555 C-16.85786234 97.33137868 -17.25032848 91.97004207 -17.20214844 86.04125977 C-17.2074054 85.23042938 -17.21266235 84.419599 -17.21807861 83.584198 C-17.23118131 80.9292216 -17.22257708 78.27485453 -17.21240234 75.61987305 C-17.21442549 73.7623788 -17.21733893 71.90488534 -17.22109985 70.0473938 C-17.22550968 66.16571445 -17.21913402 62.28424298 -17.20507812 58.40258789 C-17.18796312 53.43495636 -17.19785057 48.46781032 -17.21579552 43.50019646 C-17.22664927 39.66883705 -17.22318012 35.8375923 -17.21541214 32.0062294 C-17.21341578 30.17465278 -17.21584955 28.34306564 -17.2228508 26.51150131 C-17.2304942 23.95082856 -17.21882206 21.39093702 -17.20214844 18.83032227 C-17.20822113 18.07900024 -17.21429382 17.32767822 -17.22055054 16.55358887 C-17.14940932 10.63760401 -15.4798475 7.04124055 -12.23983765 2.22550964 C-8.38797488 -0.41079534 -4.56403955 -0.01644143 0 0 Z " fill="#F3F0E3" transform="translate(1635.81396484375,686.434814453125)"/>
</svg>
