<?xml version="1.0" encoding="UTF-8"?>
<svg version="1.1" xmlns="http://www.w3.org/2000/svg" width="2134" height="2134">
<path d="M0 0 C90.83435667 -1.52705559 179.8334628 17.18040757 384.71191406 128.06640625 C385.66203369 128.7934375 385.66203369 128.7934375 386.63134766 129.53515625 C394.14885852 135.30308744 401.44236509 141.30580114 408.64160156 147.46484375 C411.38925451 149.80898326 414.19991635 152.06523941 417.02441406 154.31640625 C423.93748196 159.94144985 430.32380095 166.12577816 436.78662109 172.25439453 C439.00120311 174.33867398 441.24685021 176.38600292 443.49902344 178.42944336 C449.69220534 184.06059995 455.65898013 189.90725862 461.58691406 195.81640625 C462.38395752 196.60885742 463.18100098 197.40130859 464.00219727 198.21777344 C468.17854443 202.40507524 472.18820508 206.67232792 476.04541016 211.15478516 C478.80085008 214.31550807 481.70297606 217.33591862 484.58691406 220.37890625 C489.42496231 225.52355544 494.04609654 230.75904445 498.45410156 236.28125 C500.56739586 238.8881338 502.74130661 241.42244199 504.94628906 243.95117188 C511.72577756 251.73535261 518.00327135 259.84436098 524.21289062 268.08691406 C525.56224014 269.86875867 526.92460689 271.63888747 528.29785156 273.40234375 C551.81170569 303.61270003 572.52140336 335.97239063 591.71191406 369.06640625 C592.23897949 369.97342285 592.76604492 370.88043945 593.30908203 371.81494141 C602.32260302 387.38122835 610.66135193 403.26751999 618.81091309 419.29693604 C619.68173686 421.00714143 620.55661687 422.71527955 621.43164062 424.42333984 C641.33814238 463.30706157 658.34048887 503.81737199 672.71191406 545.06640625 C672.94569763 545.73488586 673.1794812 546.40336548 673.42034912 547.09210205 C702.95116044 631.63629711 720.78057627 719.70101473 730.52441406 824.31640625 C730.63577698 825.54530579 730.74713989 826.77420532 730.86187744 828.04034424 C731.9301897 839.93491179 732.89941972 851.78925034 732.92285156 863.73828125 C732.92456863 864.55790344 732.92628571 865.37752563 732.92805481 866.22198486 C732.79991736 879.14798662 730.09995017 891.28683161 724.71191406 903.06640625 C724.08349609 904.46439453 724.08349609 904.46439453 723.44238281 905.890625 C715.9221987 921.08269722 703.34634223 931.38978299 687.59472656 937.12109375 C686.64339844 937.43304687 685.69207031 937.745 684.71191406 938.06640625 C684.16158953 938.24840735 683.611265 938.43040845 683.04426397 938.61792473 C679.54679813 939.29044337 676.05904921 939.20029538 672.51150304 939.18742305 C671.67333267 939.1883576 670.8351623 939.18929215 669.97159282 939.19025501 C667.14319258 939.19217566 664.31485047 939.18691412 661.48645496 939.18172932 C659.44383695 939.18162959 657.40121887 939.1819699 655.35860099 939.18271374 C649.72796439 939.18348507 644.09734834 939.17799175 638.46671604 939.17151675 C632.40425022 939.16563333 626.34178406 939.16552079 620.27931583 939.16472328 C609.73696257 939.16254143 599.1946157 939.15671134 588.65226591 939.14837205 C577.43306618 939.13951607 566.21386828 939.13279444 554.99466574 939.12877047 C554.29016841 939.12851679 553.58567108 939.12826311 552.85982534 939.12800174 C549.27870398 939.12672379 545.69758261 939.12548456 542.11646123 939.12426217 C517.61273901 939.11584569 493.10902053 939.10343571 468.60530154 939.08839861 C445.02377296 939.07393138 421.44224583 939.0616735 397.86071396 939.05410385 C396.86706324 939.05378433 396.86706324 939.05378433 395.85333877 939.05345835 C388.54607124 939.05111829 381.23880367 939.0488809 373.93153609 939.04668469 C295.42106252 939.02304052 216.9105969 938.98451778 95.02449036 938.90742493 C94.26384042 938.90692749 93.50319049 938.90643005 92.71949056 938.90591754 C58.47593658 938.88350844 24.23238325 938.8602489 -10.01116929 938.83573774 C-24.1654447 938.82560739 -38.31972018 938.8155824 -52.47399571 938.80562156 C-54.84174233 938.8039546 -57.20948894 938.80228433 -59.57723556 938.80061397 C-110.06968297 938.76503579 -160.56212953 938.73936797 -211.0545852 938.71899358 C-248.34844181 938.7039414 -285.64229473 938.68736424 -322.93614483 938.66028309 C-324.08477825 938.6594501 -324.08477825 938.6594501 -325.25661639 938.65860028 C-342.0547925 938.64638906 -358.85296787 938.63336003 -375.65114275 938.61955668 C-382.40149406 938.61402335 -389.15184545 938.60860322 -395.90219688 938.60321999 C-396.64045397 938.60262836 -397.37871106 938.60203673 -398.13933958 938.60142717 C-421.80685003 938.58251483 -445.47435264 938.57292865 -469.14186987 938.5683703 C-493.4814676 938.56363721 -517.82103603 938.54837844 -542.16061894 938.52074059 C-556.15864789 938.50517351 -570.15662343 938.49795048 -584.15466057 938.50263696 C-593.49309661 938.50494545 -602.83148204 938.49643988 -612.16990214 938.47908214 C-617.48854422 938.46950576 -622.80707447 938.46466172 -628.12572119 938.47301062 C-632.96392802 938.48051362 -637.80191459 938.47419233 -642.64009477 938.45696558 C-644.37631749 938.45318267 -646.11256028 938.45437791 -647.84877352 938.46125024 C-665.93500062 938.52719256 -682.3198909 935.75578606 -695.90527344 922.73828125 C-711.40426187 905.35908766 -715.90124386 883.7164625 -715.66308594 861.06640625 C-715.65876556 860.27639221 -715.65444519 859.48637817 -715.6499939 858.67242432 C-715.53069243 839.72678629 -714.15482029 820.91236961 -712.28808594 802.06640625 C-712.20322937 801.2085553 -712.1183728 800.35070435 -712.03094482 799.46685791 C-702.21148723 701.28368139 -678.097598 603.75085526 -572.28808594 363.06640625 C-571.23303769 361.28276542 -570.1783391 359.49891771 -569.12402344 357.71484375 C-542.27319352 312.43739528 -510.98229797 269.47522185 -475.51855469 230.54296875 C-473.64736992 228.46533102 -471.80622012 226.36763643 -469.97167969 224.2578125 C-460.19537888 213.06927812 -449.77550555 202.45932867 -439.28808594 191.94140625 C-438.41651855 191.06524658 -437.54495117 190.18908691 -436.64697266 189.28637695 C-432.28081138 184.93068106 -427.85134316 180.72514376 -423.17333984 176.70654297 C-420.01919508 173.96249421 -417.00952093 171.06676478 -413.97558594 168.19140625 C-408.83438873 163.35660427 -403.60184084 158.73900632 -398.08496094 154.33203125 C-394.81977079 151.68704482 -391.65053574 148.94332016 -388.47558594 146.19140625 C-382.22409651 140.80271728 -375.82620594 135.64706111 -369.28613281 130.61376953 C-367.14458409 128.95527297 -365.02135552 127.27478411 -362.89746094 125.59375 C-340.98790608 108.41223426 -317.48349869 92.83811002 -293.28808594 79.06640625 C-292.53076172 78.63473145 -291.7734375 78.20305664 -290.99316406 77.75830078 C-286.48604007 75.20141124 -281.95460809 72.69299061 -277.40136719 70.21923828 C-275.41888987 69.13776209 -273.44677225 68.03937676 -271.47558594 66.9375 C-203.72686992 29.54726646 -125.650811 10.30493137 0 0 Z " fill="#000000" transform="translate(1052.2880859375,1121.93359375)"/>
<path d="M0 0 C0.69708069 0.09474609 1.39416138 0.18949219 2.11236572 0.28710938 C65.90445279 9.05071268 127.03852378 30.32767526 182 64 C182.85271484 64.51804199 183.70542969 65.03608398 184.58398438 65.56982422 C210.86982048 81.58936373 234.89723684 100.59346901 257.41552734 121.53320312 C259.14025246 123.12983617 260.87615802 124.7137439 262.61328125 126.296875 C268.191509 131.39892154 273.65411021 136.43656986 278.50390625 142.25390625 C280.04235391 144.04943133 281.67293727 145.67219012 283.375 147.3125 C287.08278509 150.96260844 290.30083948 154.94457195 293.55859375 158.99609375 C295.64657936 161.56515124 297.77886622 164.08602639 299.94116211 166.5925293 C316.69155718 186.07451808 331.36193633 207.64366401 344 230 C344.44762695 230.78987305 344.89525391 231.57974609 345.35644531 232.39355469 C374.79460725 284.65169272 393.56299193 340.60029434 402 400 C402.2477417 401.65757324 402.2477417 401.65757324 402.50048828 403.34863281 C408.01818979 441.72718542 407.82154294 484.68661095 402 523 C401.79900941 524.37316473 401.59834019 525.74637654 401.39794922 527.11962891 C395.00963784 570.30026519 383.16973062 612.25696816 365 652 C364.31357422 653.50506104 364.31357422 653.50506104 363.61328125 655.04052734 C349.40267898 685.95455812 331.77149455 715.04651302 311 742 C310.58814453 742.53802246 310.17628906 743.07604492 309.75195312 743.63037109 C295.9229524 761.66525963 280.64773375 778.39854887 264.625 794.5 C263.98328857 795.14638428 263.34157715 795.79276855 262.68041992 796.45874023 C258.28350727 800.84089624 253.70250709 804.95003313 249 809 C247.79705504 810.05731854 246.59520209 811.11588098 245.39453125 812.17578125 C237.49354083 819.11164034 229.45393609 825.74674923 221 832 C220.01290039 832.73404053 220.01290039 832.73404053 219.00585938 833.48291016 C146.88451313 886.94127645 62.4580578 918.5636947 -27 926 C-27.86173828 926.07202637 -28.72347656 926.14405273 -29.61132812 926.21826172 C-107.67269094 932.35444474 -187.42077599 916.38074256 -258 883 C-259.01078613 882.52481934 -260.02157227 882.04963867 -261.06298828 881.56005859 C-299.6176977 863.28872418 -336.18168557 839.14598382 -367.59375 810.1953125 C-368.90206452 809.00168789 -370.21783843 807.81528657 -371.56860352 806.66992188 C-378.05590342 801.14500942 -384.05102774 795.13506733 -390.07202148 789.11328125 C-391.92477468 787.26271033 -393.78538706 785.42029924 -395.64648438 783.578125 C-402.5683261 776.68857946 -408.9310321 769.65919818 -415 762 C-415.99444737 760.83560477 -416.99714169 759.67814808 -418.01171875 758.53125 C-474.96875083 694.11059513 -510.15586861 608.90162957 -524.48242188 430.4230957 C-524.1028813 424.93530583 -523.58929036 419.46897122 -523 414 C-522.87641113 412.83678223 -522.75282227 411.67356445 -522.62548828 410.47509766 C-517.13735567 360.84242197 -503.938359 312.34360069 -483 267 C-482.35877197 265.59427734 -482.35877197 265.59427734 -481.70458984 264.16015625 C-462.42476461 222.04313159 -436.30759656 183.59259288 -405.15234375 149.37109375 C-403.75647894 147.83336246 -402.37280903 146.2844377 -401.00390625 144.72265625 C-396.1685565 139.22918707 -391.10088031 133.99552651 -385.9375 128.8125 C-385.2767749 128.14718262 -384.6160498 127.48186523 -383.93530273 126.79638672 C-379.45283423 122.3278027 -374.79401918 118.12984966 -370 114 C-368.84358545 112.97821999 -367.68858892 111.95483241 -366.53515625 110.9296875 C-357.35326754 102.82639811 -347.82761418 95.30214334 -338 88 C-337.28473145 87.46375 -336.56946289 86.9275 -335.83251953 86.375 C-266.68193436 34.64806194 -184.37623051 6.42330675 -99 -2 C-97.39112915 -2.15903809 -97.39112915 -2.15903809 -95.74975586 -2.32128906 C-64.2347872 -4.99566402 -31.33178703 -4.27832936 0 0 Z " fill="#000000" transform="translate(1121,67)"/>
</svg>
