<?xml version="1.0" encoding="UTF-8"?>
<svg version="1.1" xmlns="http://www.w3.org/2000/svg" width="2134" height="2134">
<path d="M0 0 C1.50650043 -0.00573832 1.50650043 -0.00573832 3.04343522 -0.01159257 C6.39490628 -0.02187727 9.74620457 -0.017939 13.09768677 -0.01396179 C15.50625771 -0.01831077 17.91482727 -0.02349453 20.32339478 -0.02944946 C26.17843572 -0.04144194 32.03343411 -0.04399326 37.88848267 -0.0416492 C42.6498437 -0.03986307 47.41119083 -0.041622 52.1725502 -0.04587364 C52.85131792 -0.04646883 53.53008563 -0.04706402 54.22942207 -0.04767724 C55.60853449 -0.04888905 56.9876469 -0.05010319 58.36675932 -0.05131962 C71.28804494 -0.06218561 84.20930444 -0.06003715 97.13059153 -0.05393478 C108.93770406 -0.04876664 120.74473407 -0.06002 132.55183028 -0.07903299 C144.69073284 -0.09842965 156.8295964 -0.10666418 168.96851456 -0.10290974 C175.77742678 -0.10100045 182.58626877 -0.10345871 189.3951683 -0.11762428 C195.79903934 -0.13081297 202.20278667 -0.12825325 208.60665894 -0.11521339 C210.95357443 -0.11284925 213.30050157 -0.11557645 215.64740372 -0.12383652 C218.85789986 -0.1343191 222.06784369 -0.12619073 225.27832031 -0.11352539 C226.66220218 -0.12458682 226.66220218 -0.12458682 228.07404125 -0.13587171 C239.39636375 -0.04228812 247.48534455 3.29393712 255.6411438 11.04194641 C263.18624209 18.97730841 266.33029517 28.53562205 267.8520813 39.18647766 C268.01123016 40.21453018 268.17037903 41.2425827 268.33435059 42.30178833 C269.88215526 52.51236802 271.1682306 62.76044437 272.45315552 73.00679016 C275.49367975 97.22790175 279.18550901 121.20267429 283.89993286 145.16279602 C286.26100322 157.18587181 288.48589901 169.21926504 290.4848938 181.30757141 C290.5969025 181.98458099 290.70891121 182.66159058 290.82431412 183.3591156 C292.02228485 190.61330546 293.19960269 197.87070005 294.36721802 205.12983704 C297.46001331 229.98540135 297.46001331 229.98540135 307.7661438 252.26069641 C308.3436438 253.14757141 308.9211438 254.03444641 309.5161438 254.94819641 C320.93776654 266.68708645 336.52916493 271.36714888 352.0239563 274.94038391 C361.50789415 277.24197913 370.45590835 280.73968129 379.5161438 284.32319641 C381.23499557 284.99536393 382.95415701 285.66674006 384.6736145 286.33735657 C388.10382082 287.67688727 391.53180745 289.0218711 394.95803833 290.37153625 C399.24009186 292.05700846 403.53049726 293.71985224 407.82473755 295.37397766 C434.48053319 305.67301056 460.24971672 317.80922809 485.69192505 330.79975891 C487.20732222 331.57006922 488.72278424 332.34025198 490.23831177 333.11030579 C493.13927537 334.58471412 496.03123735 336.07503884 498.91897583 337.57514954 C515.1135203 345.88550153 531.05473894 350.34528542 549.1411438 345.63569641 C561.41991253 341.58482408 569.64877916 335.06768268 578.7661438 326.26069641 C584.16232468 321.12096769 590.00573891 316.95760023 596.15896606 312.78877258 C610.42637732 303.09809887 624.0807978 292.53752198 637.77786255 282.06538391 C642.08863341 278.77185333 646.42048143 275.50798622 650.7661438 272.26069641 C671.04009272 257.11021232 671.04009272 257.11021232 690.7661438 241.26069641 C732.35067835 206.65048237 732.35067835 206.65048237 751.7661438 208.26069641 C767.30636604 210.77123312 778.09828702 224.17519284 788.59231567 234.80561829 C791.01747631 237.2620461 793.45324391 239.70754234 795.8911438 242.15132141 C797.45947804 243.72882439 799.02720735 245.30692906 800.5942688 246.88569641 C801.31108826 247.60676575 802.02790771 248.32783508 802.76644897 249.070755 C805.93290845 252.28164458 809.01816477 255.51306261 811.94290161 258.94624329 C816.74673991 264.50388754 822.00994188 269.61492311 827.21885681 274.78857422 C829.14766143 276.7044611 831.07318983 278.62358914 832.99795532 280.54353333 C837.08453221 284.61875613 841.17503527 288.69002359 845.2661438 292.76069641 C850.01190278 297.48274961 854.75598044 302.2064671 859.49583435 306.93444824 C861.38087155 308.81306558 863.26892477 310.68861389 865.15713501 312.56404114 C874.6445071 322.01138897 874.6445071 322.01138897 878.22073364 326.21968079 C883.07852319 331.91924325 888.51396106 337.08338475 893.8355751 342.34416199 C895.87378671 344.36011923 897.90781071 346.38021582 899.94067383 348.40156555 C905.71562228 354.14313243 911.49476976 359.88041974 917.28421021 365.6073761 C920.83899149 369.124379 924.38630801 372.64876687 927.92904282 376.17790222 C929.27299267 377.51383809 930.61970597 378.84700026 931.96930313 380.17723083 C933.85930388 382.04056277 935.73963988 383.91317871 937.61819458 385.78804016 C938.16896667 386.32645538 938.71973877 386.86487061 939.28720093 387.41960144 C949.1418566 397.32517765 952.41659704 408.00510927 952.38504028 421.72724915 C952.13201688 429.71260878 949.76560007 435.00444521 944.7661438 441.26069641 C943.73553833 442.58520813 943.73553833 442.58520813 942.68411255 443.93647766 C941.21698955 445.76311189 939.72516037 447.57012938 938.2114563 449.35835266 C935.52945978 452.5416169 932.95306153 455.7932717 930.3911438 459.07319641 C929.70048828 459.95551941 929.70048828 459.95551941 928.99588013 460.85566711 C928.05619432 462.05618633 927.11682429 463.25695278 926.17776489 464.45796204 C924.77944222 466.24371344 923.37709684 468.02621954 921.97317505 469.80757141 C915.8469173 477.58187878 909.78159531 485.40030527 903.7661438 493.26069641 C903.27388306 493.90377747 902.78162231 494.54685852 902.27444458 495.20942688 C898.98988815 499.50115175 895.70777179 503.79473775 892.42630005 508.08882141 C890.82149286 510.18828681 889.21586464 512.28712105 887.6098938 514.38569641 C880.35264117 523.86970854 873.11035699 533.36504412 865.8755188 542.86616516 C863.15918849 546.43312217 860.4403413 549.99813708 857.7192688 553.56147766 C854.39190412 557.91938486 851.07103592 562.28217824 847.75393677 566.64790344 C846.41658761 568.40574067 845.07702832 570.1618984 843.73538208 571.91645813 C826.89994187 593.94076505 814.75294666 612.24039877 818.2036438 640.89350891 C820.48548011 651.13800319 825.46994076 660.31786579 830.0977478 669.6643219 C834.6072636 678.79021986 838.73736267 688.06613106 842.8286438 697.38569641 C847.83126645 708.76976381 852.90945528 720.08022811 858.52224731 731.18110657 C867.26063933 748.82823602 873.47914305 767.74291493 879.86087036 786.33369446 C881.02434532 789.7220817 882.1954823 793.10774902 883.3677063 796.49311829 C886.98619889 806.97314121 890.5451654 817.45120186 893.70535278 828.07954407 C898.23620117 841.66687535 907.11304524 851.71259482 919.7661438 858.26069641 C927.3346244 861.74860981 934.99464337 863.64002274 943.15286255 865.08491516 C944.56426514 865.33765701 944.56426514 865.33765701 946.00418091 865.59550476 C959.60716996 867.98657049 973.27312818 869.99730984 986.93226624 872.03689194 C989.29651316 872.3902352 991.66056521 872.74485656 994.02456665 873.09983826 C1018.17513552 876.72518244 1042.33969393 880.24984773 1066.5161438 883.69819641 C1067.23317474 883.80048805 1067.95020569 883.90277969 1068.68896484 884.00817108 C1072.85251335 884.60187985 1077.0163092 885.1938194 1081.18032837 885.78421783 C1083.16545616 886.06608649 1085.1503717 886.34944857 1087.13528442 886.63282776 C1093.025456 887.46944111 1098.91625905 888.28927214 1104.81832504 889.03721905 C1106.80799623 889.28956826 1108.79699453 889.54720463 1110.78598022 889.80490112 C1113.23283349 890.12034108 1115.6809815 890.42597816 1118.13058472 890.71929932 C1131.44382546 892.45197969 1142.70147743 896.50872774 1151.3833313 907.13569641 C1157.37409511 916.34184193 1158.91638821 925.53202229 1158.90658569 936.22749329 C1158.90955682 937.23939759 1158.91252794 938.2513019 1158.91558909 939.29386997 C1158.92426964 942.68907047 1158.92578382 946.08423569 1158.92727661 949.47944641 C1158.93190533 951.91226273 1158.93693007 954.34507832 1158.94232178 956.77789307 C1158.95544481 963.39189446 1158.96192784 970.00588852 1158.96633244 976.61989975 C1158.96909845 980.75400165 1158.97333654 984.88810122 1158.97783661 989.02220154 C1158.99002899 1000.47963311 1159.00032722 1011.93706282 1159.0037117 1023.39450073 C1159.00393127 1024.12749002 1159.00415083 1024.86047931 1159.00437705 1025.6156804 C1159.00470447 1026.71773126 1159.00470447 1026.71773126 1159.0050385 1027.84204578 C1159.00548196 1029.33071709 1159.00592852 1030.81938839 1159.00637817 1032.30805969 C1159.00671032 1033.41569799 1159.00671032 1033.41569799 1159.00704917 1034.54571283 C1159.01099265 1046.49648153 1159.02843301 1058.44718909 1159.0517377 1070.3979342 C1159.07549889 1082.68252249 1159.08791578 1094.96708018 1159.08907962 1107.25169182 C1159.08999389 1114.14291082 1159.09568319 1121.03405022 1159.11389923 1127.92524719 C1159.13098828 1134.41279709 1159.13251728 1140.90023658 1159.12376022 1147.38780403 C1159.12299177 1149.76248644 1159.12730712 1152.13717707 1159.13721848 1154.51183891 C1159.26492509 1187.02944201 1159.26492509 1187.02944201 1148.7661438 1198.26069641 C1139.87040176 1205.9227224 1129.65606256 1207.63239172 1118.3286438 1209.07319641 C1080.78774178 1213.95785178 1043.38692619 1219.73340987 1006.00559801 1225.70323521 C1004.966315 1225.86920536 1004.966315 1225.86920536 1003.90603638 1226.03852844 C1003.21212974 1226.14934405 1002.51822311 1226.26015966 1001.803289 1226.37433332 C996.10178386 1227.28405219 990.39876688 1228.18401696 984.69543618 1229.08220875 C979.09930616 1229.96402544 973.50436497 1230.85313572 967.91025954 1231.74770534 C964.60963977 1232.27536816 961.30854095 1232.79924011 958.0063839 1233.3172493 C954.35279797 1233.89122004 950.70130968 1234.47712756 947.05007935 1235.06587219 C945.9939595 1235.22907959 944.93783966 1235.39228699 943.84971619 1235.56044006 C927.1562708 1238.29227654 909.9375741 1244.00265599 899.5161438 1258.26069641 C890.61283202 1273.36429052 886.59027278 1292.08323602 881.37869263 1308.68501282 C874.81759047 1329.55078268 867.84712707 1350.23885423 858.7036438 1370.13569641 C858.16546021 1371.32219788 857.62727661 1372.50869934 857.07278442 1373.7311554 C851.09042451 1386.88700179 844.89355723 1399.94472753 838.71861267 1413.01089478 C835.58650245 1419.63884197 832.45712229 1426.26798031 829.35354614 1432.90934753 C828.54789534 1434.63036916 827.73719984 1436.3490265 826.92630005 1438.06758118 C818.45650136 1456.21734827 813.43206386 1473.75599852 820.47659302 1493.22407532 C824.9917599 1504.50217085 832.36093109 1513.57824335 839.92825317 1522.94429016 C842.94086654 1526.74127151 845.78832699 1530.65555576 848.6411438 1534.57319641 C853.68265958 1541.47226304 858.81844414 1548.29107012 864.0161438 1555.07319641 C868.35740184 1560.741206 872.6602248 1566.41954828 876.7661438 1572.26069641 C882.22901353 1580.03081422 888.03411572 1587.53784464 893.80911255 1595.07710266 C896.73672588 1598.90174064 899.63021136 1602.7492748 902.50100708 1606.61665344 C907.46919157 1613.30825521 912.61447761 1619.81580476 917.90481567 1626.25532532 C922.7544771 1632.18381861 927.34962462 1638.28178819 931.9067688 1644.43647766 C933.75339798 1646.92516752 935.6337628 1649.37848969 937.5630188 1651.80366516 C946.69740376 1663.29927452 953.0898201 1674.14516701 951.7661438 1689.26069641 C949.63038026 1701.14330812 939.93244276 1709.37702352 931.7036438 1717.48335266 C930.74340883 1718.43729404 929.78370263 1719.39176794 928.82449341 1720.34674072 C926.31952998 1722.83852927 923.80903612 1725.32466035 921.29678345 1727.80909729 C917.27673495 1731.785704 913.26356103 1735.76921707 909.25372314 1739.75611687 C907.86766186 1741.1321178 906.47796444 1742.50445299 905.08816528 1743.87667847 C904.23037476 1744.72793808 903.37258423 1745.57919769 902.48880005 1746.45625305 C901.74380249 1747.19299759 900.99880493 1747.92974213 900.23123169 1748.68881226 C898.26432104 1750.74093638 896.405181 1752.82007342 894.55300903 1754.97283936 C890.39785641 1759.75435877 885.94502289 1764.20700533 881.4536438 1768.67085266 C880.06199469 1770.06026027 878.67034571 1771.44966801 877.27870178 1772.83908081 C875.79727737 1774.31715607 874.31461156 1775.79397544 872.83157349 1777.27043152 C869.72623899 1780.36212692 866.62482666 1783.45773742 863.5239563 1786.5539093 C856.38242995 1793.68344562 849.23587656 1800.80793587 842.08926392 1807.93237305 C835.53381739 1814.46758303 828.97946571 1821.00388144 822.4291687 1827.54425335 C819.3533146 1830.61515779 816.27504727 1833.68361532 813.19483948 1836.75015259 C811.73759419 1838.2017017 810.28152451 1839.65441811 808.82595825 1841.10765076 C807.06079101 1842.86997488 805.29384904 1844.6305242 803.52468872 1846.38883972 C799.28109883 1850.63205115 795.18799782 1854.9419008 791.2877655 1859.50392151 C780.55904414 1871.89067202 764.90657678 1889.43185203 747.79348755 1891.49897766 C734.71926837 1891.96329573 724.94081141 1884.46895053 714.7661438 1877.26069641 C713.56192324 1876.41925494 712.35750078 1875.57810232 711.15286255 1874.73725891 C703.18268395 1869.13838224 695.44667424 1863.24883688 687.7661438 1857.26069641 C686.37179213 1856.17713195 684.9772507 1855.09381164 683.58255005 1854.01069641 C677.48771609 1849.27525272 671.39529011 1844.53680019 665.31692505 1839.78022766 C650.37619407 1828.10097309 635.19273737 1816.75833249 619.91091919 1805.53022766 C614.16997315 1801.30798452 608.46208043 1797.04341782 602.7661438 1792.76069641 C593.85783542 1786.06601502 584.91459577 1779.42162117 575.91897583 1772.84468079 C573.89714648 1771.35708396 571.89063834 1769.85109599 569.88723755 1768.33882141 C556.56403701 1758.38008359 543.22345027 1753.01243892 526.39505005 1754.68257141 C512.01962414 1756.97273614 499.16184719 1764.18483651 486.24612427 1770.54878235 C480.24518571 1773.50083659 474.22524835 1776.41359632 468.2036438 1779.32319641 C467.59263824 1779.61851257 466.98163269 1779.91382874 466.35211182 1780.21809387 C429.31906164 1798.10366197 392.11509617 1813.52206127 352.6098938 1824.97944641 C325.29166398 1832.5864081 325.29166398 1832.5864081 305.8598938 1852.38569641 C296.62154766 1869.60973159 294.90672507 1889.52257091 291.88541794 1908.56402969 C291.38519755 1911.70896974 290.87953853 1914.85302617 290.37396526 1917.99710941 C285.02090286 1951.29625884 279.81872494 1984.62006 274.62542248 2017.94443798 C273.95546139 2022.24258974 273.28433629 2026.54055941 272.6131382 2030.83851814 C272.1538146 2033.7833242 271.69635182 2036.72841511 271.2389679 2039.67352295 C270.42940414 2044.87164653 269.60574489 2050.06733983 268.7661438 2055.26069641 C268.56765776 2056.49104174 268.56765776 2056.49104174 268.3651619 2057.74624252 C267.98240268 2060.09358955 267.58936141 2062.43894654 267.19216919 2064.78388977 C267.08036284 2065.47089997 266.9685565 2066.15791018 266.85336208 2066.86573887 C265.07317355 2077.14453001 258.86422848 2085.3282416 250.82473755 2091.83100891 C242.74619946 2097.28198208 233.94600552 2098.71182722 224.38116455 2098.64164734 C223.38470032 2098.64632731 222.38823608 2098.65100728 221.36157596 2098.65582907 C218.04853945 2098.66772052 214.73592109 2098.65834459 211.42288208 2098.64888 C209.03696452 2098.65294835 206.65104884 2098.6582917 204.26513672 2098.66481018 C198.47250042 2098.67704417 192.67999521 2098.67528847 186.88735498 2098.66657226 C182.17563493 2098.65977808 177.46394752 2098.65888646 172.75222397 2098.66214371 C172.0798554 2098.66260341 171.40748683 2098.66306311 170.71474346 2098.66353673 C169.34851956 2098.66449598 167.98229568 2098.66546862 166.61607181 2098.66645451 C153.823461 2098.67499636 141.03091482 2098.66519391 128.23831461 2098.64905341 C117.2822266 2098.63565744 106.32623399 2098.63797469 95.37014771 2098.65180969 C82.62426366 2098.66789743 69.87843622 2098.67416607 57.13254344 2098.6649729 C55.77092736 2098.66401734 54.40931126 2098.66307422 53.04769516 2098.66214371 C52.37789068 2098.66168088 51.70808619 2098.66121805 51.01798461 2098.6607412 C46.3176615 2098.65816042 41.61737454 2098.66250268 36.91705704 2098.66958237 C30.57878995 2098.67827684 24.24070219 2098.67218466 17.90245438 2098.6548996 C15.58218177 2098.65094768 13.26189397 2098.65204648 10.9416275 2098.65868759 C-5.56143163 2098.70155164 -21.14669476 2098.71451477 -34.2338562 2087.26069641 C-36.1479187 2084.81538391 -36.1479187 2084.81538391 -37.8588562 2082.13569641 C-38.42862183 2081.26686829 -38.99838745 2080.39804016 -39.5854187 2079.50288391 C-44.72735338 2069.38960006 -45.63935556 2057.97143766 -47.2026062 2046.88569641 C-47.48153572 2044.9487163 -47.76118057 2043.01183908 -48.04148865 2041.07505798 C-48.63712262 2036.95029752 -49.22820887 2032.82492164 -49.81567383 2028.69898987 C-50.73897697 2022.21623364 -51.67362179 2015.73514586 -52.61056519 2009.25434875 C-53.72194763 2001.56349611 -54.83174705 1993.87242064 -55.93864727 1986.18092155 C-58.35071474 1969.42284695 -60.7841854 1952.66799117 -63.25876045 1935.91902542 C-63.82738122 1932.070344 -64.39402069 1928.2214039 -64.95455933 1924.37153625 C-67.03310957 1910.10129675 -69.1958429 1895.85972462 -71.89401245 1881.69038391 C-72.09358047 1880.63807587 -72.2931485 1879.58576782 -72.49876404 1878.50157166 C-75.78201637 1861.78703561 -82.84688397 1846.98140864 -97.3276062 1837.16304016 C-109.54107781 1829.67174284 -123.3203352 1826.19883763 -136.94503784 1822.11445618 C-155.37071341 1816.58223883 -173.41610104 1810.54989212 -191.2338562 1803.26069641 C-192.39481812 1802.78616028 -193.55578003 1802.31162415 -194.75192261 1801.82270813 C-212.96753465 1794.2983801 -230.65002752 1785.77811765 -248.33296204 1777.09016418 C-257.53520135 1772.56925549 -266.76015045 1768.10673617 -276.0463562 1763.76069641 C-277.69788696 1762.97855774 -277.69788696 1762.97855774 -279.38278198 1762.18061829 C-294.81425619 1755.00453608 -309.58797712 1751.82647472 -326.2338562 1757.26069641 C-344.11417667 1764.66337686 -359.86858804 1778.62551421 -375.0697937 1790.31538391 C-379.9696361 1794.07615533 -384.93461279 1797.7413404 -389.9213562 1801.38569641 C-396.93345307 1806.51781213 -403.82427966 1811.78506998 -410.66500854 1817.14302063 C-416.23933682 1821.50452434 -421.87723134 1825.77226985 -427.54928589 1830.00556946 C-432.68234775 1833.838725 -437.76813518 1837.72883838 -442.83932495 1841.64350891 C-446.71146717 1844.63232945 -450.59749295 1847.6029045 -454.4838562 1850.57319641 C-455.19831909 1851.11951721 -455.91278198 1851.66583801 -456.64889526 1852.22871399 C-460.29893533 1855.01932068 -463.9506976 1857.80763902 -467.60494995 1860.59272766 C-469.04388505 1861.69020954 -470.48268818 1862.78786445 -471.9213562 1863.88569641 C-472.62494263 1864.42251038 -473.32852905 1864.95932434 -474.05343628 1865.5124054 C-478.02674691 1868.55087369 -481.97239708 1871.6205928 -485.89279175 1874.727005 C-499.88242717 1885.80733396 -509.78169869 1892.93806796 -528.06735229 1891.55366516 C-536.78124166 1890.37531636 -543.18649521 1885.01418629 -548.9057312 1878.70210266 C-550.81291538 1876.70211925 -552.71691298 1874.95279961 -554.8119812 1873.16304016 C-560.74579027 1868.03606927 -566.16884048 1862.3837443 -571.67037964 1856.80366516 C-578.15486022 1850.19293924 -578.15486022 1850.19293924 -585.01119995 1843.97554016 C-590.93045286 1838.90943142 -596.34639865 1833.29651716 -601.84298706 1827.78193665 C-603.7918249 1825.82774018 -605.74594892 1823.87894494 -607.70065308 1821.93061829 C-608.96334358 1820.66726687 -610.22572379 1819.40360523 -611.48776245 1818.13960266 C-612.3474337 1817.28296776 -612.3474337 1817.28296776 -613.22447205 1816.4090271 C-616.05063675 1813.56678932 -618.76135234 1810.67790413 -621.36471558 1807.62983704 C-626.56701724 1801.62340814 -632.26521293 1796.08556456 -637.88619995 1790.47554016 C-639.11270974 1789.24835519 -640.33907118 1788.02102194 -641.56529236 1786.79354858 C-644.12466148 1784.2327126 -646.68581113 1781.6736747 -649.2482605 1779.11592102 C-652.51396128 1775.85591687 -655.77515096 1772.59144276 -659.03501034 1769.32559872 C-661.56324247 1766.79373356 -664.0938756 1764.26427897 -666.62521553 1761.73552132 C-667.82788812 1760.53351043 -669.0298333 1759.33077122 -670.2310009 1758.12725639 C-675.84798108 1752.50170759 -681.45735934 1746.92332924 -687.50660706 1741.75665283 C-690.3210363 1739.31909858 -692.96234735 1736.71377697 -695.60494995 1734.09272766 C-696.17157852 1733.53179916 -696.73820709 1732.97087067 -697.32200623 1732.39294434 C-698.50891521 1731.21539115 -699.69444758 1730.03644886 -700.87863159 1728.8561554 C-702.65727776 1727.08719817 -704.44634163 1725.32924349 -706.23580933 1723.57124329 C-718.24372946 1711.67527419 -728.32020965 1701.11963626 -728.6713562 1683.38569641 C-728.51449334 1666.39089571 -719.46926829 1655.87819263 -708.85983276 1643.64814758 C-703.4155771 1637.36350916 -698.30030511 1630.85156357 -693.2338562 1624.26069641 C-692.61430054 1623.45648254 -691.99474487 1622.65226868 -691.35641479 1621.82368469 C-684.4079769 1612.79290206 -677.50168403 1603.75009896 -670.9513855 1594.42549133 C-667.04139415 1588.90192991 -662.8586564 1583.59994041 -658.68209839 1578.27680969 C-653.87493324 1572.13144768 -649.23247622 1565.87830033 -644.62765503 1559.58052063 C-640.2170223 1553.56117442 -635.71113703 1547.62056903 -631.1713562 1541.69819641 C-603.35361593 1507.89490066 -603.35361593 1507.89490066 -595.8588562 1466.44819641 C-598.039874 1453.72133751 -603.26589143 1442.82599043 -609.33029175 1431.5967865 C-620.15675186 1411.4317885 -628.89658647 1390.55295906 -637.2338562 1369.26069641 C-637.60037292 1368.32765686 -637.96688965 1367.39461731 -638.34451294 1366.43330383 C-648.52724023 1340.47423207 -657.77206025 1314.32096863 -665.93331909 1287.65351868 C-671.35210134 1270.0615703 -677.09640709 1252.63480746 -694.2338562 1243.26069641 C-702.13529478 1239.43322859 -710.31664569 1237.84357956 -718.90963745 1236.33491516 C-720.32815096 1236.07834911 -721.74654993 1235.82114903 -723.1648407 1235.56335449 C-727.51799529 1234.77724727 -731.87510843 1234.01510623 -736.2338562 1233.26069641 C-738.18385529 1232.92307281 -738.18385529 1232.92307281 -740.17324829 1232.57862854 C-748.5574928 1231.1399854 -756.95066333 1229.75882377 -765.34926987 1228.40687561 C-767.46872014 1228.06556914 -769.58794348 1227.7228771 -771.70715332 1227.38008118 C-796.24162673 1223.41788325 -820.81870553 1219.77250151 -845.4213562 1216.26069641 C-846.23517635 1216.14427921 -847.04899651 1216.02786201 -847.88747787 1215.90791702 C-853.3705905 1215.12370463 -858.85451529 1214.34544957 -864.33932495 1213.57319641 C-865.07672157 1213.46912916 -865.81411819 1213.36506191 -866.57386017 1213.25784111 C-873.95226782 1212.21979054 -881.3286659 1211.22723251 -888.73410034 1210.39839172 C-889.88094803 1210.26956604 -891.02779572 1210.14074036 -892.20939636 1210.00801086 C-894.29208107 1209.78005464 -896.37593509 1209.56239245 -898.46107483 1209.35810852 C-909.92678386 1208.12070521 -920.61473467 1203.15261783 -928.2338562 1194.26069641 C-932.05517211 1188.75968121 -935.35431216 1183.73105083 -935.36528397 1176.89020443 C-935.36912511 1175.99168221 -935.37296626 1175.09316 -935.3769238 1174.16740984 C-935.37605732 1173.1791049 -935.37519083 1172.19079996 -935.3742981 1171.17254639 C-935.37726922 1170.12348226 -935.38024034 1169.07441814 -935.3833015 1167.99356419 C-935.39200751 1164.46077412 -935.39349837 1160.92801786 -935.39498901 1157.3952179 C-935.39961593 1154.86916023 -935.40464042 1152.34310326 -935.41003418 1149.81704712 C-935.42317446 1142.9407393 -935.42964326 1136.06444266 -935.43404484 1129.18812442 C-935.43680761 1124.8929124 -935.44104513 1120.59770264 -935.44554901 1116.30249214 C-935.45774396 1104.40678136 -935.46804165 1092.51107239 -935.4714241 1080.61535549 C-935.47164367 1079.85383277 -935.47186323 1079.09231005 -935.47208945 1078.30771089 C-935.47230773 1077.5443732 -935.47252601 1076.78103551 -935.4727509 1075.99456638 C-935.47319437 1074.44777834 -935.47364093 1072.90099031 -935.47409058 1071.35420227 C-935.47431201 1070.58694327 -935.47453344 1069.81968427 -935.47476158 1069.02917499 C-935.47870634 1056.60743036 -935.49614952 1044.18574452 -935.5194501 1031.76402258 C-935.54318782 1019.00603698 -935.55562712 1006.24808083 -935.55679202 993.49007279 C-935.55770762 986.32896574 -935.56343043 979.16793521 -935.58161163 972.00684929 C-935.59866218 965.26733941 -935.60024712 958.52799923 -935.59147263 951.7884655 C-935.59070226 949.31738395 -935.59504491 946.84629459 -935.60493088 944.3752327 C-935.61765538 940.99589357 -935.61177027 937.61706781 -935.60134888 934.23773193 C-935.60940528 933.26504205 -935.61746169 932.29235216 -935.62576222 931.29018682 C-935.5445707 919.99485451 -932.30331346 910.46752822 -924.3354187 902.31929016 C-911.58190834 891.34368552 -893.58485528 890.44415358 -877.6479187 888.18647766 C-875.12692806 887.81844753 -872.60613399 887.44906866 -870.08552551 887.07843018 C-864.76109932 886.2979956 -859.43559112 885.52577766 -854.10888672 884.76106262 C-845.83284569 883.57254715 -837.56033329 882.36053479 -829.28829956 881.14448547 C-826.53940081 880.7406467 -823.79047967 880.33696047 -821.04154968 879.93333435 C-820.36485692 879.83396407 -819.68816415 879.73459378 -818.99096555 879.63221228 C-811.60661091 878.54824938 -804.22124475 877.47123726 -796.83590698 876.39399719 C-773.25118869 872.95430206 -773.25118869 872.95430206 -749.6824913 869.40689945 C-746.4684364 868.9153335 -743.25361935 868.43103351 -740.03665161 867.95884705 C-707.75786537 863.28390753 -707.75786537 863.28390753 -681.0541687 845.74507141 C-672.36470319 833.88562921 -668.74264739 819.87045518 -664.5776062 805.97163391 C-655.28468889 774.96264902 -643.09914671 744.93442803 -630.2338562 715.26069641 C-629.74723511 714.1311554 -629.26061401 713.00161438 -628.75924683 711.83784485 C-621.79069695 695.7236367 -614.24593886 680.05659089 -605.96969604 664.5749054 C-596.94508515 647.57124002 -591.48580142 629.41794089 -597.0619812 610.29585266 C-600.9623353 600.19393555 -606.48196772 591.67571396 -613.2338562 583.26069641 C-614.34341085 581.85561522 -615.45151351 580.44938608 -616.55807495 579.04194641 C-617.10512085 578.34673889 -617.65216675 577.65153137 -618.21578979 576.93525696 C-623.87845919 569.71547507 -629.32182637 562.39799595 -634.55734253 554.86372375 C-639.23851158 548.16625186 -644.18980442 541.68888907 -649.16427612 535.2077179 C-653.65081783 529.3565665 -658.06495427 523.45929515 -662.4213562 517.51069641 C-668.38014283 509.38194702 -674.46511945 501.35834734 -680.61178589 493.37104797 C-682.83367969 490.48031197 -685.0468712 487.58296579 -687.25997925 484.6855011 C-689.41600542 481.86318204 -691.57471816 479.04292307 -693.73336792 476.22261047 C-695.14275919 474.37980731 -696.54983442 472.53525844 -697.95651245 470.69038391 C-704.39148449 462.26590853 -710.88915179 453.90043698 -718.0463562 446.07319641 C-726.58621169 436.38678625 -728.09078232 424.85793666 -727.4291687 412.34516907 C-726.0949835 398.10607748 -716.91454466 387.96860319 -706.56027222 379.09443665 C-701.97974877 375.09582801 -697.67861831 370.8495853 -693.38619995 366.54585266 C-692.57067154 365.73128098 -691.75514313 364.91670929 -690.91490173 364.07745361 C-689.20187612 362.36510448 -687.49009655 360.65150799 -685.7795105 358.9367218 C-683.17882068 356.33067626 -680.57283664 353.73001119 -677.96627808 351.12983704 C-676.29343134 349.45632942 -674.62089486 347.78251159 -672.94869995 346.10835266 C-672.17872177 345.34039871 -671.40874359 344.57244476 -670.61543274 343.78121948 C-669.88099442 343.043629 -669.14655609 342.30603851 -668.38986206 341.5460968 C-667.75447006 340.90990921 -667.11907806 340.27372162 -666.46443176 339.61825562 C-664.58237301 337.62905381 -662.79152708 335.60275928 -661.00450134 333.52935791 C-657.10595539 329.05045612 -652.95918845 324.85969142 -648.74752808 320.67671204 C-647.92869644 319.85934067 -647.10986481 319.0419693 -646.26622009 318.1998291 C-644.50061373 316.43800722 -642.73385378 314.67734079 -640.96604919 312.91772461 C-638.16355589 310.12807507 -635.36418952 307.33530989 -632.56576538 304.5415802 C-626.1208906 298.10868642 -619.67098506 291.68084456 -613.22101593 285.25305939 C-607.30378565 279.3560759 -601.38765712 273.4579978 -595.47558451 267.55584288 C-592.25554148 264.34153704 -589.03161104 261.13116135 -585.80697632 257.92146301 C-584.11123006 256.2293515 -582.41562529 254.53709818 -580.72018433 252.84468079 C-579.9615358 252.09119858 -579.20288727 251.33771637 -578.42124939 250.56140137 C-574.34306307 246.4836173 -570.43812849 242.31420152 -566.6797142 237.93915653 C-558.29684386 228.20769358 -548.91493789 217.93873448 -537.2338562 212.26069641 C-536.19164917 211.73282532 -536.19164917 211.73282532 -535.12838745 211.19429016 C-526.10634983 207.41959149 -514.65765388 208.0212892 -505.5463562 211.13569641 C-498.95209219 214.0358764 -493.49195787 218.2108031 -487.99655151 222.79243469 C-486.1276857 224.34913262 -484.24169625 225.88288945 -482.3510437 227.41304016 C-479.63250857 229.61402576 -476.91967903 231.8217444 -474.2104187 234.03413391 C-469.99412781 237.46713709 -465.72485119 240.82914471 -461.43966675 244.17549133 C-458.51937488 246.45816489 -455.61205654 248.7541403 -452.72994995 251.08491516 C-444.89710825 257.41791905 -436.92888434 263.53316595 -428.85079956 269.55049133 C-423.2353491 273.73954163 -417.68426246 278.00030075 -412.1713562 282.32319641 C-405.38883015 287.63488494 -398.50294503 292.78429225 -391.55001831 297.87031555 C-385.55609902 302.26309016 -379.63467073 306.74380924 -373.7338562 311.26069641 C-342.08814352 337.7905603 -342.08814352 337.7905603 -303.2338562 346.26069641 C-287.96595777 343.80724221 -274.16559469 336.05189253 -260.72848511 328.75386047 C-217.8196366 305.53757144 -170.30457189 287.46935361 -123.9057312 272.56147766 C-123.22048874 272.33963806 -122.53524628 272.11779846 -121.82923889 271.88923645 C-118.59132077 270.841579 -115.35155946 269.81242408 -112.09640503 268.81880188 C-105.29289326 266.65315955 -99.90196763 264.10233964 -94.23751831 259.72480774 C-92.2338562 258.26069641 -92.2338562 258.26069641 -89.2338562 257.26069641 C-88.51903601 255.95254721 -87.85870424 254.61413173 -87.2338562 253.26069641 C-86.17942874 251.9002346 -85.1159268 250.54678543 -84.0463562 249.19819641 C-76.85078072 238.92093995 -73.44912677 226.44545428 -70.9369812 214.28413391 C-70.72908966 213.27816162 -70.52119812 212.27218933 -70.30700684 211.23573303 C-66.95886468 194.43179198 -64.59271548 177.44214373 -62.05740738 160.50131989 C-61.45192915 156.46441729 -60.84067877 152.42839664 -60.22954273 148.39234734 C-57.06694047 127.49786418 -53.97297653 106.5942126 -50.97994995 85.67475891 C-50.72549997 83.89940818 -50.47104447 82.12405823 -50.21658325 80.34870911 C-49.14299216 72.8502814 -48.07432795 65.35128071 -47.02752209 57.84906197 C-46.60295094 54.81538371 -46.17243213 51.78256814 -45.74067879 48.74990463 C-45.54496036 47.36454587 -45.35197865 45.97879693 -45.16210747 44.59262466 C-43.10506552 29.58184114 -40.46791288 18.07153069 -28.5619812 8.01850891 C-19.87843491 1.46214007 -10.64605055 -0.043401 0 0 Z M-152.64743042 616.72358704 C-155.04975843 618.15128735 -157.46617077 619.54882203 -159.89401245 620.93257141 C-176.15577015 630.2263073 -190.90777229 641.22546216 -205.2338562 653.26069641 C-205.84358276 653.77132629 -206.45330933 654.28195618 -207.08151245 654.80805969 C-220.37843691 665.97618388 -232.8888254 677.77607902 -245.08004761 690.14350891 C-249.43105305 694.54038729 -253.84514621 698.76749902 -258.53878784 702.79707336 C-264.65524669 708.07838848 -270.00012369 714.12495789 -275.2338562 720.26069641 C-276.01116089 721.14886047 -276.78846558 722.03702454 -277.58932495 722.95210266 C-286.00997188 732.64460156 -293.65117287 742.90651055 -301.2338562 753.26069641 C-301.77187866 753.99336731 -302.30990112 754.72603821 -302.86422729 755.48091125 C-349.41739542 819.18291235 -376.15206799 890.74874358 -389.85520935 967.79412842 C-390.73032706 972.65863314 -391.69479826 977.48057634 -392.81588745 982.29585266 C-397.95539163 1004.91287988 -397.17884424 1028.18330607 -397.2338562 1051.26069641 C-397.2372702 1052.15576904 -397.2406842 1053.05084167 -397.24420166 1053.97303772 C-397.59658858 1147.17016177 -368.9156482 1241.00410057 -291.2338562 1359.26069641 C-290.82345093 1359.79726868 -290.41304565 1360.33384094 -289.99020386 1360.88667297 C-282.75483993 1370.3217398 -275.13896705 1379.38054876 -267.2338562 1388.26069641 C-266.7589978 1388.79485168 -266.2841394 1389.32900696 -265.79489136 1389.87934875 C-259.25651107 1397.1921019 -252.40535163 1404.18614628 -245.4838562 1411.13569641 C-244.69156616 1411.9326593 -243.89927612 1412.72962219 -243.08297729 1413.55073547 C-238.29380959 1418.32687552 -233.36906417 1422.8611651 -228.2338562 1427.26069641 C-227.04244435 1428.30608294 -225.85231231 1429.35293007 -224.6635437 1430.40132141 C-217.02839095 1437.09524137 -209.27734109 1443.57596325 -201.21237183 1449.74604797 C-199.82011468 1450.81188748 -198.43107612 1451.88193791 -197.04440308 1452.95503235 C-183.89330333 1463.11925344 -170.29661214 1472.40456638 -156.2338562 1481.26069641 C-155.54517456 1481.695755 -154.85649292 1482.1308136 -154.14694214 1482.57905579 C-149.90031412 1485.24351919 -145.59400286 1487.78672584 -141.2338562 1490.26069641 C-140.40434448 1490.73152649 -139.57483276 1491.20235657 -138.72018433 1491.68745422 C-70.09267809 1530.33608886 9.55872176 1556.25709031 88.7739563 1556.46382141 C89.89861109 1556.46806248 89.89861109 1556.46806248 91.04598618 1556.47238922 C95.03506553 1556.48728824 99.02410976 1556.49656916 103.01321411 1556.50093079 C106.22589824 1556.50526066 109.43830547 1556.51894901 112.65090942 1556.54194641 C130.03293463 1556.66369444 147.27746583 1556.409806 164.6020813 1554.88960266 C165.6561788 1554.79748127 165.6561788 1554.79748127 166.7315712 1554.70349884 C264.39474119 1545.95728498 360.62947848 1506.26465417 434.8755188 1441.75288391 C437.54032579 1439.45538815 440.26028097 1437.25973429 443.0161438 1435.07319641 C455.3734658 1424.97073058 466.59782308 1413.51921978 477.8911438 1402.26069641 C478.38223633 1401.77228271 478.87332886 1401.28386902 479.37930298 1400.78065491 C485.06734383 1395.11621688 490.5602386 1389.37029981 495.7661438 1383.26069641 C496.69138645 1382.21219424 497.61838987 1381.16524244 498.5473938 1380.12007141 C514.09879047 1362.42982512 527.09964725 1343.06602787 539.7661438 1323.26069641 C540.87252472 1321.54690296 541.97926431 1319.83334098 543.0864563 1318.12007141 C561.64268146 1289.2564825 575.363707 1259.17757679 587.93881226 1227.35090637 C588.68973311 1225.45374402 589.44613536 1223.55875355 590.20315552 1221.66401672 C603.26183544 1188.8800935 610.99051273 1153.43976678 616.2036438 1118.57319641 C616.34310425 1117.64064026 616.4825647 1116.70808411 616.62625122 1115.74726868 C617.05992887 1112.58918473 617.42246295 1109.42993703 617.7661438 1106.26069641 C617.89164612 1105.13835098 617.89164612 1105.13835098 618.01968384 1103.99333191 C619.91671495 1086.57990188 620.16724688 1069.19465373 620.1411438 1051.69819641 C620.14090462 1050.98536625 620.14066544 1050.27253609 620.14041901 1049.53810501 C620.13087314 1026.99498044 619.49305918 1004.74571139 616.0954895 982.42445374 C615.75103776 980.16145175 615.41739717 977.89700749 615.08450317 975.63227844 C602.05425725 887.90034386 567.73638752 807.01590121 504.15774536 727.95210266 C502.15996261 725.5239204 500.18432956 723.07783226 498.2036438 720.63569641 C496.72537174 718.84329154 495.24618091 717.0516441 493.7661438 715.26069641 C492.9823938 714.29003235 492.1986438 713.31936829 491.3911438 712.31929016 C484.62712469 704.08102926 477.21705919 696.49652906 469.7036438 688.94819641 C469.19703217 688.43640839 468.69042053 687.92462036 468.16845703 687.39732361 C461.37256833 680.54677003 454.34502349 674.25355368 446.7661438 668.26069641 C445.35669094 667.11589723 443.94897374 665.96895581 442.54348755 664.81929016 C438.62090729 661.62914397 434.69470968 658.44346789 430.7661438 655.26069641 C429.90376099 654.56202454 429.04137817 653.86335266 428.15286255 653.14350891 C425.70052148 651.16977672 423.23533502 649.21332043 420.7661438 647.26069641 C420.12983032 646.75425598 419.49351685 646.24781555 418.83792114 645.72602844 C408.78020898 637.73412612 398.62957505 630.12253117 387.7661438 623.26069641 C387.09180298 622.83224426 386.41746216 622.40379211 385.72268677 621.96235657 C374.16496764 614.65446542 362.27092619 608.0348972 350.21829224 601.58296204 C348.15205667 600.4687912 346.10017392 599.33508537 344.0552063 598.18257141 C322.38992571 586.16313836 299.23708379 577.04770372 275.7661438 569.26069641 C274.74117798 568.91732239 273.71621216 568.57394836 272.66018677 568.22016907 C243.16974398 558.44083147 212.50689755 550.78913907 181.7661438 546.26069641 C180.93115356 546.13759094 180.09616333 546.01448547 179.23587036 545.88764954 C157.54506147 542.82392475 135.39674295 543.0740243 113.54153442 543.07539368 C109.66577097 543.07321028 105.79029477 543.05497023 101.9145813 543.03608704 C11.78004116 542.83206768 -75.66383922 570.62430903 -152.64743042 616.72358704 Z " fill="#000000" transform="translate(958.2338562011719,18.739303588867188)"/>
<path d="M0 0 C1.70333967 1.33097281 3.4219993 2.6386299 5.1484375 3.93945312 C15.64628256 11.86854482 25.63961817 20.35049579 35.3671875 29.20507812 C36.91841444 30.6134289 38.48054623 32.00988647 40.0546875 33.39257812 C49.83717593 42.01661398 59.48324279 51.19542432 67.8984375 61.17773438 C69.43787842 63.00092818 71.00236232 64.79158085 72.5859375 66.57617188 C96.65559427 93.80508549 116.93277655 124.17689393 133.7421875 156.36132812 C134.2072168 157.24224121 134.67224609 158.1231543 135.15136719 159.03076172 C153.47976437 193.89832488 166.68424858 231.82145145 174.7421875 270.36132812 C174.98018066 271.49860352 175.21817383 272.63587891 175.46337891 273.80761719 C178.82816914 290.21883941 181.15984333 306.68648668 182.7421875 323.36132812 C182.83790039 324.26415527 182.93361328 325.16698242 183.03222656 326.09716797 C184.15847597 338.10443984 183.98614032 350.18789185 183.9921875 362.23632812 C183.99319962 364.04544678 183.99319962 364.04544678 183.99423218 365.89111328 C183.97764428 384.57125874 183.41900367 402.84820635 180.7421875 421.36132812 C180.57058105 422.57965332 180.39897461 423.79797852 180.22216797 425.05322266 C172.95501782 475.33878443 157.36841129 521.97782576 134.7421875 567.36132812 C134.31437988 568.22097168 133.88657227 569.08061523 133.44580078 569.96630859 C115.55288761 605.63147665 91.58444965 637.95830502 64.7421875 667.36132812 C63.91332031 668.28300781 63.08445312 669.2046875 62.23046875 670.15429688 C53.20427265 680.12923183 43.92251561 690.04184169 33.640625 698.74023438 C31.41318717 700.64226462 29.27195779 702.62740532 27.1171875 704.61132812 C20.9158786 710.19817806 14.35996116 715.28317168 7.7421875 720.36132812 C7.13133301 720.83441406 6.52047852 721.3075 5.89111328 721.79492188 C-72.7074774 782.58167579 -169.91303783 815.84700957 -324.02981567 812.08027649 C-350.9696064 808.52763174 -377.35899218 802.6277284 -403.2578125 794.36132812 C-404.27053223 794.03970703 -405.28325195 793.71808594 -406.32666016 793.38671875 C-460.22849547 776.04285763 -512.53999493 748.06660552 -555.3671875 710.85351562 C-558.03199449 708.55601987 -560.75194967 706.360366 -563.5078125 704.17382812 C-578.37078559 692.05844977 -593.00326655 678.23703717 -605.38671875 663.56835938 C-606.91206283 661.76915393 -608.4623888 660.00535515 -610.03515625 658.24804688 C-619.07983569 648.08120923 -627.24652232 637.35397374 -635.2578125 626.36132812 C-635.79293457 625.63155762 -636.32805664 624.90178711 -636.87939453 624.14990234 C-661.17938177 590.90418829 -680.54595032 553.94134433 -694.27587891 515.13427734 C-695.18413112 512.56940199 -696.11613033 510.01432102 -697.05078125 507.45898438 C-713.47103527 461.50090603 -719.92148064 412.53836796 -719.70464325 363.92831039 C-719.69513767 361.69525651 -719.69031477 359.46222613 -719.68609619 357.22915649 C-719.62962868 335.07005328 -718.99143287 313.24943058 -715.2578125 291.36132812 C-715.03588651 290.02345136 -714.81404549 288.68556049 -714.59228516 287.34765625 C-707.78301484 246.87861732 -695.40392334 208.54653795 -678.2578125 171.36132812 C-677.83177734 170.43465332 -677.40574219 169.50797852 -676.96679688 168.55322266 C-667.36219598 147.925338 -655.37360212 127.94120891 -642.2578125 109.36132812 C-641.7515332 108.64154785 -641.24525391 107.92176758 -640.72363281 107.18017578 C-634.21843253 97.96672743 -627.55939732 88.96494381 -620.2578125 80.36132812 C-619.3873044 79.31765444 -618.51754901 78.2733526 -617.6484375 77.22851562 C-607.79003133 65.43888538 -597.36054677 54.27722996 -586.49658203 43.41479492 C-584.75392933 41.66994005 -583.01948087 39.9171907 -581.28515625 38.1640625 C-574.58269454 31.42844202 -567.71250293 25.26502707 -560.2578125 19.36132812 C-559.1675959 18.43840858 -558.08297542 17.5087728 -557.0078125 16.56835938 C-487.36909965 -44.06875849 -393.78060518 -81.09382892 0 0 Z M-325.2578125 -27.63867188 C-326.40427246 -27.47238281 -327.55073242 -27.30609375 -328.73193359 -27.13476562 C-415.3186099 -14.45151452 -490.42164331 27.83686925 -552.04788208 88.97616577 C-553.46406348 90.38044673 -554.88419258 91.78074304 -556.30444336 93.1809082 C-561.64920394 98.51895004 -566.58681534 104.02258168 -571.30566406 109.92114258 C-572.86326831 111.86814789 -574.44412443 113.77104757 -576.0859375 115.64648438 C-638.35347669 187.05329141 -667.54074969 285.2970432 -662.5078125 385.42382812 C-662.46491089 386.1564386 -662.42200928 386.88904907 -662.37780762 387.64385986 C-658.97851044 443.95706042 -643.27137683 497.43224755 -617.2578125 547.36132812 C-616.84225098 548.16731445 -616.42668945 548.97330078 -615.99853516 549.80371094 C-600.85932248 579.00586291 -581.67333338 605.57646659 -559.54296875 629.85351562 C-557.9543723 631.5968984 -556.37980454 633.35312591 -554.81640625 635.11914062 C-544.77380448 646.34410535 -533.83331536 656.80789604 -522.0234375 666.16601562 C-520.09033182 667.70048652 -518.18596356 669.27154905 -516.3046875 670.86914062 C-493.22425129 690.3021953 -466.32382881 706.42078209 -439.17626953 719.43457031 C-437.25478415 720.36279104 -435.34799417 721.31699884 -433.44140625 722.27539062 C-394.49324412 741.57320288 -351.18442587 751.31188088 -308.2578125 756.36132812 C-307.32308105 756.47992187 -306.38834961 756.59851562 -305.42529297 756.72070312 C-274.22536819 760.59833387 -240.25748967 760.61852852 -209.2578125 755.36132812 C-207.43056641 755.05533691 -207.43056641 755.05533691 -205.56640625 754.74316406 C-135.87065204 742.76093605 -72.49545941 713.76959065 -18.2578125 668.36132812 C-17.67080566 667.87341797 -17.08379883 667.38550781 -16.47900391 666.8828125 C33.49917666 625.25545219 75.31965181 571.37821655 98.7421875 510.36132812 C99.09732422 509.44512695 99.45246094 508.52892578 99.81835938 507.58496094 C115.95718563 465.55968112 125.75585564 420.17493428 125.9453125 375.04492188 C125.95232681 373.91782303 125.95934113 372.79072418 125.96656799 371.62947083 C125.98394971 368.01921535 125.99041875 364.40912389 125.9921875 360.79882812 C125.99286224 359.5652356 125.99353699 358.33164307 125.99423218 357.06066895 C125.97876895 339.2880788 125.65566128 321.92744318 122.7421875 304.36132812 C122.57058105 303.27787109 122.39897461 302.19441406 122.22216797 301.078125 C115.57765302 259.86906894 103.03437504 220.32878581 83.73974609 183.28271484 C82.70277375 181.28541373 81.68517437 179.27891529 80.66796875 177.27148438 C65.96097514 148.54845213 46.37213789 121.89671233 24.44140625 98.27929688 C21.9474301 95.58320399 19.49593131 92.85510129 17.0546875 90.11132812 C11.3260307 83.74049094 5.35242015 77.77452205 -1.1484375 72.19335938 C-3.43410796 70.20821225 -5.65482628 68.16092982 -7.8828125 66.11132812 C-14.08792602 60.52766755 -20.62466316 55.41874383 -27.2578125 50.36132812 C-27.96583008 49.81814941 -28.67384766 49.2749707 -29.40332031 48.71533203 C-47.00389246 35.26714279 -65.69806203 23.7332449 -85.2578125 13.36132812 C-86.07233887 12.9261084 -86.88686523 12.49088867 -87.72607422 12.04248047 C-128.33547134 -9.49034048 -173.64767104 -23.21037445 -219.2578125 -28.63867188 C-219.96645447 -28.72480743 -220.67509644 -28.81094299 -221.4052124 -28.89968872 C-236.85548548 -30.72852376 -252.21209388 -30.99875296 -267.7578125 -30.95117188 C-269.61232529 -30.94843765 -269.61232529 -30.94843765 -271.50430298 -30.94564819 C-289.62331481 -30.90067114 -307.32953878 -30.43454695 -325.2578125 -27.63867188 Z " fill="#000000" transform="translate(1338.2578125,705.638671875)"/>
</svg>
