<?xml version="1.0" encoding="UTF-8"?>
<svg version="1.1" xmlns="http://www.w3.org/2000/svg" width="2134" height="2134">
<path d="M0 0 C1.29204283 -0.00066278 1.29204283 -0.00066278 2.61018753 -0.00133896 C32.10671162 -0.00925292 61.41366119 0.64267705 90.8125 3.25 C91.78183472 3.33485657 92.75116943 3.41971313 93.74987793 3.50714111 C179.14437323 11.05101631 262.96164518 29.38641286 465.02539062 108.36914062 C467.66867537 109.67200557 470.31903095 110.96028264 472.96875 112.25 C485.22221619 118.24879171 497.09995 124.80290648 508.92578125 131.6015625 C511.78358054 133.23348578 514.65429243 134.83962753 517.53125 136.4375 C549.10629516 154.00019079 579.60024839 173.98174759 608.8125 195.25 C609.57127441 195.80059082 610.33004883 196.35118164 611.11181641 196.91845703 C626.46420815 208.07852398 641.31239391 219.77204842 656.00830078 231.77783203 C657.59523046 233.07271511 659.18598737 234.36290478 660.77734375 235.65234375 C670.95106874 243.91382674 680.89324515 252.44210662 690.59765625 261.25 C692.58662502 263.04603529 694.59813194 264.80953303 696.625 266.5625 C704.35247495 273.30048121 711.93099495 280.24332096 719.10205078 287.57202148 C720.8038091 289.24147409 722.56745975 290.78352867 724.3828125 292.328125 C729.43629103 296.72625496 734.15033678 301.44147433 738.875 306.1875 C739.73416016 307.04279297 740.59332031 307.89808594 741.47851562 308.77929688 C745.92888946 313.23647037 750.21782259 317.7637298 754.32202148 322.54125977 C756.22008981 324.71727618 758.24058579 326.73993397 760.3125 328.75 C763.66183729 332.05986698 766.81175956 335.45746949 769.875 339.03125 C771.79818756 341.23360994 773.7728053 343.38240641 775.76171875 345.52539062 C780.4987247 350.63227238 785.00636643 355.85166257 789.375 361.28125 C792.24176333 364.77282072 795.21031195 368.16520728 798.1875 371.5625 C803.84928662 378.04578787 809.21437822 384.71354492 814.47412109 391.52490234 C815.81253172 393.25004088 817.16347558 394.96448681 818.51953125 396.67578125 C824.91496052 404.74800497 831.16564952 412.92005587 837.29296875 421.19775391 C838.27746601 422.52739464 839.26430083 423.85530904 840.25390625 425.18115234 C868.90275901 463.63657766 894.34475783 504.9120324 916.8125 547.25 C917.52817139 548.59674805 917.52817139 548.59674805 918.25830078 549.97070312 C921.82648163 556.70491573 925.33093253 563.47067118 928.8125 570.25 C929.35632324 571.30364746 929.90014648 572.35729492 930.46044922 573.44287109 C967.40454831 645.23063998 993.97587695 722.31308203 1037.66461182 973.9392395 C1037.75979766 975.42652324 1037.85843903 976.91359195 1037.96136475 978.40036011 C1039.24888223 997.21080165 1039.05825753 1016.09267271 1039.0625 1034.9375 C1039.06294186 1035.83673943 1039.06338371 1036.73597885 1039.06383896 1037.66246796 C1039.07146185 1067.29374716 1038.49299299 1096.72129126 1035.8125 1126.25 C1035.72764343 1127.20668579 1035.64278687 1128.16337158 1035.55535889 1129.14904785 C1027.79734386 1216.3118868 1009.23781059 1302.36436983 941.8125 1477.25 C940.86307893 1479.27073829 939.91386067 1481.29157188 938.96484375 1483.3125 C917.32851269 1529.1303974 892.35563207 1573.36422039 863.8125 1615.25 C863.40467285 1615.84941406 862.9968457 1616.44882813 862.57666016 1617.06640625 C844.8880143 1643.03470647 826.16167342 1668.1149757 806.28466797 1692.44580078 C804.98978489 1694.03273046 803.69959522 1695.62348737 802.41015625 1697.21484375 C793.91272074 1707.67913594 785.139674 1717.88744066 776.02734375 1727.8203125 C774.17243183 1729.85515415 772.35821202 1731.91321247 770.5625 1734 C758.90677054 1747.34766162 746.36316267 1759.85981069 733.82421875 1772.36865234 C731.40056172 1774.78655613 728.98150305 1777.20900349 726.56369209 1779.63275146 C724.21417245 1781.98677878 721.8608238 1784.33696279 719.5078125 1786.6875 C718.65244904 1787.5448877 717.79708557 1788.40227539 716.915802 1789.28564453 C712.58827577 1793.59643533 708.20105657 1797.76957924 703.55924988 1801.74136353 C700.62186724 1804.27832812 697.82271954 1806.96208781 695 1809.625 C689.95818357 1814.34747432 684.78885433 1818.8165215 679.39453125 1823.13671875 C676.76828232 1825.28619026 674.25616547 1827.52460088 671.75 1829.8125 C667.84970359 1833.35877889 663.84326137 1836.69569741 659.703125 1839.95703125 C656.78472702 1842.27203073 653.90068437 1844.62499338 651.01879883 1846.98510742 C644.31136199 1852.47143669 637.54321709 1857.83488188 630.55761719 1862.96582031 C628.51560122 1864.46847896 626.48055496 1865.98036788 624.4453125 1867.4921875 C596.79244149 1888.00185113 568.34053641 1907.52727845 538.8125 1925.25 C537.97380371 1925.75724609 537.13510742 1926.26449219 536.27099609 1926.78710938 C500.03694062 1948.67299544 462.5291492 1968.29436116 423.80206299 1985.37109375 C421.83881659 1986.23837443 419.87782496 1987.1105572 417.91748047 1987.984375 C400.41078215 1995.78130765 382.72982336 2002.99029155 364.71893311 2009.55462646 C362.78186754 2010.26117322 360.84621555 2010.97149929 358.91064453 2011.68212891 C276.98693972 2041.68372267 191.4414531 2061.23293766 -69.1875 2072.25 C-70.06182678 2072.18683594 -70.93615356 2072.12367188 -71.8369751 2072.05859375 C-130.0004113 2067.79881733 -187.49448234 2058.92884718 -244.1875 2045.25 C-244.94357544 2045.06802063 -245.69965088 2044.88604126 -246.4786377 2044.69854736 C-269.65766298 2039.10311389 -292.47503524 2032.50069315 -315.1875 2025.25 C-315.9239978 2025.0158136 -316.66049561 2024.7816272 -317.41931152 2024.54034424 C-352.43072335 2013.39860276 -386.69168397 2000.35245833 -420.1875 1985.25 C-421.31526855 1984.7432373 -422.44303711 1984.23647461 -423.60498047 1983.71435547 C-451.24155026 1971.23910042 -478.55622902 1957.89168088 -504.77197266 1942.63916016 C-507.76841855 1940.91591605 -510.80022264 1939.26388867 -513.83813477 1937.61523438 C-533.64387407 1926.82552388 -552.49617299 1914.49852821 -571.25 1902 C-572.06576508 1901.45682129 -572.88153015 1900.91364258 -573.72201538 1900.35400391 C-588.74272148 1890.33881263 -603.63852656 1880.15522953 -617.9375 1869.125 C-619.26914185 1868.10345825 -619.26914185 1868.10345825 -620.62768555 1867.0612793 C-622.37113358 1865.7233286 -624.11361872 1864.38412193 -625.85498047 1863.04345703 C-627.84795573 1861.51107308 -629.84570448 1859.98546434 -631.84765625 1858.46484375 C-643.36943103 1849.68430907 -654.59026572 1840.52838415 -665.60986328 1831.12646484 C-668.8824863 1828.33717058 -672.20445383 1825.62294782 -675.5625 1822.9375 C-680.83576087 1818.652493 -685.78131939 1814.05695987 -690.71044922 1809.38549805 C-694.4753489 1805.8201207 -698.31590239 1802.36797755 -702.22875977 1798.96582031 C-714.2522191 1788.43349173 -725.50543592 1777.03644008 -736.8125 1765.75 C-737.47074768 1765.09434052 -738.12899536 1764.43868103 -738.80718994 1763.76315308 C-751.45101665 1751.1585244 -751.45101665 1751.1585244 -756.66552734 1745.02148438 C-759.55559492 1741.65762002 -762.63823831 1738.46901441 -765.6875 1735.25 C-770.64416557 1730.01739635 -775.47763051 1724.70608338 -780.1875 1719.25 C-780.94401855 1718.37674072 -780.94401855 1718.37674072 -781.71582031 1717.48583984 C-787.50154945 1710.79500498 -793.22970531 1704.06273331 -798.80078125 1697.19140625 C-800.55947797 1695.02397805 -802.32755942 1692.86638421 -804.10546875 1690.71484375 C-812.18582549 1680.90280325 -819.85238918 1670.81788966 -827.42675781 1660.61181641 C-829.01971735 1658.47505953 -830.62617812 1656.34981658 -832.2421875 1654.23046875 C-867.4286913 1608.0222578 -897.16740062 1557.71417398 -923.70507812 1506.13134766 C-924.67472911 1504.24666042 -925.64727024 1502.36345663 -926.62304688 1500.48193359 C-940.74151554 1473.19881598 -953.0464824 1444.87047842 -964.1875 1416.25 C-964.42645996 1415.63775574 -964.66541992 1415.02551147 -964.91162109 1414.39471436 C-980.57673716 1374.19571528 -993.73523474 1333.10450085 -1004.1875 1291.25 C-1004.46469879 1290.1477005 -1004.46469879 1290.1477005 -1004.74749756 1289.02313232 C-1019.40514423 1230.70823872 -1028.62735351 1171.14807894 -1032.9375 1111.1875 C-1032.99666595 1110.37268158 -1033.05583191 1109.55786316 -1033.11679077 1108.71835327 C-1034.80129429 1085.09052414 -1035.39783491 1061.43360806 -1035.375 1037.75 C-1035.37439575 1036.56956116 -1035.3737915 1035.38912231 -1035.37316895 1034.1729126 C-1035.23943409 936.7731644 -1021.33109968 839.9157004 -935.1875 591.25 C-934.70410156 590.20730957 -934.22070312 589.16461914 -933.72265625 588.09033203 C-928.32544731 576.48046627 -922.61711862 565.07016112 -916.55322266 553.79443359 C-915.10321847 551.09297781 -913.66684877 548.38450307 -912.23046875 545.67578125 C-904.01069696 530.25422974 -895.22248993 515.20398281 -886.1875 500.25 C-885.64158203 499.34217773 -885.09566406 498.43435547 -884.53320312 497.49902344 C-861.47466665 459.24744118 -835.47223901 422.53835207 -807.21484375 387.96484375 C-804.82460118 385.03902204 -802.46672027 382.08988076 -800.125 379.125 C-795.48373036 373.30638523 -790.60648728 367.69278063 -785.74316406 362.06005859 C-784.23386553 360.30394758 -782.73609789 358.53874085 -781.2421875 356.76953125 C-775.45083088 349.92546433 -769.50517142 343.26654319 -763.34619141 336.75024414 C-760.20273432 333.42372305 -757.11885944 330.05634072 -754.07910156 326.63452148 C-749.34506562 321.36903664 -744.41425462 316.33196637 -739.40234375 311.33203125 C-738.50181778 310.43054855 -737.60129181 309.52906586 -736.67347717 308.6002655 C-734.78475396 306.71086685 -732.8950795 304.82248584 -731.00366211 302.93579102 C-728.60118054 300.53902211 -726.20324119 298.13776676 -723.80660152 295.73515797 C-721.48679423 293.4108352 -719.16314461 291.09036119 -716.83984375 288.76953125 C-715.99066879 287.91833206 -715.14149384 287.06713287 -714.2665863 286.19013977 C-709.94761994 281.88795567 -705.56812307 277.72427182 -700.9357605 273.76014709 C-697.998009 271.2225179 -695.19823991 268.5384031 -692.375 265.875 C-687.33184182 261.15126891 -682.16059024 256.68165709 -676.765625 252.359375 C-674.1632371 250.23014854 -671.67174498 248.01550643 -669.1875 245.75 C-664.01203026 241.04576612 -658.6360611 236.63284513 -653.1875 232.25 C-652.07793217 231.34789338 -650.96856559 230.44553917 -649.859375 229.54296875 C-640.28313731 221.78305052 -630.45291161 214.38404611 -620.56542969 207.02685547 C-618.42301241 205.42598145 -616.29084629 203.8129586 -614.1640625 202.19140625 C-595.47596148 187.96552694 -575.97266385 174.89218173 -556.1875 162.25 C-555.22231445 161.6327002 -554.25712891 161.01540039 -553.26269531 160.37939453 C-530.1496157 145.64701172 -506.3949696 132.0958813 -482.1875 119.25 C-481.15641113 118.70021484 -480.12532227 118.15042969 -479.06298828 117.58398438 C-411.30738325 81.55018001 -339.2618032 54.13484357 -265.1875 34.25 C-264.43305603 34.04586487 -263.67861206 33.84172974 -262.90130615 33.63140869 C-196.06360998 15.5513524 -127.22469279 5.55455393 -58.1875 1.25 C-57.06092484 1.17631195 -57.06092484 1.17631195 -55.91159058 1.10113525 C-37.29861387 -0.08672045 -18.64275746 0.0043883 0 0 Z M-81.1875 108.25 C-82.54642365 108.37728485 -82.54642365 108.37728485 -83.93280029 108.50714111 C-125.41576449 112.43864352 -166.58451896 118.87068319 -207.1875 128.25 C-207.98226746 128.43348999 -208.77703491 128.61697998 -209.59588623 128.80603027 C-279.64388922 145.06010754 -346.65204958 169.62772937 -411.1875 201.25 C-412.25887207 201.77207031 -413.33024414 202.29414063 -414.43408203 202.83203125 C-430.01042038 210.43633719 -445.21741954 218.51382307 -460.1875 227.25 C-461.26676758 227.8780957 -462.34603516 228.50619141 -463.45800781 229.15332031 C-500.70125257 250.8776533 -536.05553404 274.92182987 -570.1875 301.25 C-570.87392578 301.77899902 -571.56035156 302.30799805 -572.26757812 302.85302734 C-579.70680172 308.60030445 -586.96065501 314.52785938 -594.10546875 320.63671875 C-596.92385029 323.04081313 -599.79921953 325.36767994 -602.6875 327.6875 C-608.07323414 332.06684878 -613.13566799 336.75044838 -618.20703125 341.484375 C-620.45348689 343.57910924 -622.73223428 345.62329669 -625.0625 347.625 C-637.18112149 358.13867301 -648.56528009 369.46592285 -659.88818359 380.8203125 C-662.20946315 383.14701445 -664.53612663 385.46823828 -666.86328125 387.7890625 C-668.36750867 389.29394988 -669.87142631 390.79914697 -671.375 392.3046875 C-672.39859619 393.32524734 -672.39859619 393.32524734 -673.44287109 394.36642456 C-677.33144682 398.27380628 -681.04444503 402.28290751 -684.63870239 406.46308899 C-687.03902985 409.23244474 -689.55551549 411.89009924 -692.0625 414.5625 C-696.60098524 419.43585549 -700.88098797 424.45303977 -705.05078125 429.6484375 C-707.14632494 432.19986729 -709.32713155 434.63326773 -711.5625 437.0625 C-716.08403512 442.03070323 -720.19902206 447.25803577 -724.3125 452.5625 C-726.67751828 455.61060258 -729.09130154 458.61527895 -731.52172852 461.61132812 C-766.41784161 504.71998641 -796.11751807 552.38074458 -822.1875 601.25 C-822.67428223 602.16040039 -823.16106445 603.07080078 -823.66259766 604.00878906 C-867.84501351 686.89995081 -898.43721708 776.72497439 -928.1875 971.25 C-928.23863953 972.00295349 -928.28977905 972.75590698 -928.34246826 973.53167725 C-934.45639543 1064.81762361 -927.49275481 1156.98949177 -900.1875 1273.25 C-899.99434204 1273.99020386 -899.80118408 1274.73040771 -899.60217285 1275.49304199 C-893.43918377 1299.0793334 -886.23560359 1322.24079046 -878.1875 1345.25 C-877.95718079 1345.90959717 -877.72686157 1346.56919434 -877.48956299 1347.2487793 C-867.15925772 1376.76923187 -855.27150839 1405.64388038 -841.80078125 1433.86767578 C-840.15813518 1437.3115648 -838.53165486 1440.76278883 -836.90625 1444.21484375 C-830.14103716 1458.50858094 -822.92671151 1472.46189225 -815.1875 1486.25 C-814.13771518 1488.1391531 -813.08824105 1490.02847888 -812.0390625 1491.91796875 C-800.55150078 1512.52311526 -788.18900547 1532.42747981 -775.125 1552.0625 C-774.58227448 1552.87976562 -774.03954895 1553.69703125 -773.4803772 1554.5390625 C-763.1973622 1570.00096966 -752.47674321 1585.1291892 -741.1875 1599.875 C-740.18867798 1601.18283447 -740.18867798 1601.18283447 -739.16967773 1602.51708984 C-733.44506646 1609.9793468 -727.56192136 1617.30241675 -721.57910156 1624.55859375 C-719.58131881 1626.98677601 -717.60568576 1629.43286415 -715.625 1631.875 C-707.64225864 1641.60898261 -699.42546719 1651.11488491 -690.85546875 1660.3359375 C-688.80150857 1662.57935521 -686.78886764 1664.84248958 -684.79296875 1667.13671875 C-674.42870005 1679.01917721 -663.31988864 1690.21787817 -652.1875 1701.375 C-651.38339691 1702.18298538 -651.38339691 1702.18298538 -650.56304932 1703.0072937 C-645.19764661 1708.39314054 -639.81592624 1713.70530152 -634.03369141 1718.64892578 C-630.71147701 1721.53005273 -627.55994217 1724.59407921 -624.375 1727.625 C-618.97318515 1732.73096238 -613.49878023 1737.58733848 -607.68359375 1742.21875 C-605.16026669 1744.27216169 -602.76817727 1746.42188057 -600.375 1748.625 C-596.00049174 1752.60683587 -591.44220925 1756.26742083 -586.77099609 1759.88891602 C-582.95435432 1762.85045484 -579.19538283 1765.86959829 -575.46777344 1768.94238281 C-566.71612359 1776.14783547 -557.68413525 1782.91066253 -548.50634766 1789.56201172 C-546.3622175 1791.12281567 -544.23187613 1792.70033689 -542.10546875 1794.28515625 C-514.23924068 1814.91936288 -484.44948739 1833.37366117 -454.1875 1850.25 C-452.90335205 1850.96639648 -452.90335205 1850.96639648 -451.59326172 1851.69726562 C-445.15640224 1855.27450883 -438.6828735 1858.78025365 -432.1875 1862.25 C-430.57174072 1863.11431641 -430.57174072 1863.11431641 -428.92333984 1863.99609375 C-368.58468181 1896.12144195 -304.15347809 1920.50510547 -238.1875 1938.25 C-237.51992676 1938.4296228 -236.85235352 1938.60924561 -236.16455078 1938.79431152 C-181.25169506 1953.50672346 -124.79933839 1962.75159916 -68.125 1967 C-67.34007172 1967.05916595 -66.55514343 1967.11833191 -65.74642944 1967.17929077 C-43.57737488 1968.81937301 -21.41424181 1969.45904431 0.8125 1969.4375 C1.98092438 1969.43689575 3.14934875 1969.4362915 4.35317993 1969.43566895 C92.39444021 1969.31324323 180.55001301 1957.06633906 273.8125 1929.25 C274.5904895 1929.01172485 275.368479 1928.77344971 276.17004395 1928.5279541 C339.56502524 1909.03833497 401.70712434 1883.11251349 459.12744141 1849.79980469 C461.81843833 1848.24657242 464.52183173 1846.71754597 467.23046875 1845.1953125 C496.85424628 1828.52028458 525.57189702 1809.58904081 552.8125 1789.25 C553.90614549 1788.43996304 554.99989091 1787.63006099 556.09375 1786.8203125 C559.01256735 1784.64624494 561.91578933 1782.45341265 564.8125 1780.25 C566.32650391 1779.10337891 566.32650391 1779.10337891 567.87109375 1777.93359375 C579.60354733 1769.00802518 591.02757154 1759.69236029 602.23925781 1750.12207031 C605.465789 1747.37102793 608.74448451 1744.7019439 612.0625 1742.0625 C617.85218431 1737.36103829 623.23179048 1732.24557661 628.62402344 1727.09692383 C629.30883789 1726.44361084 629.99365234 1725.79029785 630.69921875 1725.1171875 C631.29951904 1724.54081543 631.89981934 1723.96444336 632.51831055 1723.37060547 C634.46698786 1721.56936985 636.45047087 1719.83745971 638.46191406 1718.10766602 C643.36274207 1713.83333948 647.94393019 1709.26224643 652.53515625 1704.66015625 C653.89162514 1703.30512245 653.89162514 1703.30512245 655.27549744 1701.92271423 C657.17684943 1700.02203932 659.07717553 1698.12040392 660.97583008 1696.21704102 C663.38835861 1693.79881608 665.80535081 1691.38511042 668.22371769 1688.97272587 C670.55914575 1686.64181599 672.89072177 1684.30706044 675.22265625 1681.97265625 C676.08012955 1681.11720718 676.93760284 1680.26175812 677.82106018 1679.38038635 C682.15529599 1675.02937725 686.3511839 1670.61746747 690.34754944 1665.95306396 C692.55888239 1663.38230044 694.87625544 1660.91879108 697.1875 1658.4375 C701.53574662 1653.73624815 705.62521219 1648.87750666 709.640625 1643.88671875 C711.75006349 1641.32579972 713.94137648 1638.87876545 716.1875 1636.4375 C721.24773844 1630.87650879 725.82548601 1624.98071235 730.42285156 1619.03808594 C731.74850978 1617.33233738 733.08596188 1615.63684971 734.4296875 1613.9453125 C759.69630214 1582.12041069 782.96476454 1548.54507788 803.51025391 1513.47167969 C804.47269479 1511.82972018 805.43912118 1510.19009531 806.40771484 1508.55175781 C816.5207182 1491.42277071 825.83218216 1473.99153503 834.8125 1456.25 C835.5897797 1454.72392571 836.36711318 1453.19787881 837.14453125 1451.671875 C838.72695543 1448.55149209 840.28095036 1445.41817831 841.81835938 1442.27539062 C842.5231864 1440.83942672 843.23337017 1439.40608649 843.94726562 1437.97460938 C858.22158848 1409.31213335 870.35007917 1379.50050986 880.8125 1349.25 C881.0509967 1348.56160034 881.28949341 1347.87320068 881.53521729 1347.16394043 C906.87183337 1273.89357875 923.76804718 1198.51621611 930.8125 1121.25 C930.9252829 1120.03603546 930.9252829 1120.03603546 931.04034424 1118.79754639 C936.06863216 1064.12510405 935.96416445 1007.90593999 930.8125 953.25 C930.68875 951.91195313 930.68875 951.91195313 930.5625 950.546875 C926.441726 906.29610192 919.15343215 862.46684529 908.8125 819.25 C908.6328772 818.49581787 908.45325439 817.74163574 908.26818848 816.96459961 C896.94679982 769.5522615 881.5727968 723.22163922 862.8125 678.25 C862.53233032 677.57815674 862.25216064 676.90631348 861.96350098 676.21411133 C848.97455743 645.15400764 834.51378214 614.49195029 817.8125 585.25 C817.23580566 584.23228516 816.65911133 583.21457031 816.06494141 582.16601562 C797.48646776 549.41321635 777.34836323 517.44420444 754.8125 487.25 C753.82670884 485.91805317 752.8410329 484.58602106 751.85546875 483.25390625 C741.72181166 469.60842141 731.40488569 456.09543995 720.328125 443.19921875 C717.92077404 440.37693618 715.57911524 437.51196277 713.25 434.625 C709.37320231 429.86049192 705.29778468 425.3135611 701.140625 420.79296875 C699.20555738 418.67932946 697.31041703 416.54340152 695.4375 414.375 C688.68370411 406.61293601 681.70057089 399.0297465 674.35546875 391.82421875 C672.75654067 390.19290731 671.28818499 388.49331551 669.8125 386.75 C662.14016288 377.8598316 653.60433756 369.42492781 644.6328125 361.8515625 C642.42563564 359.90962578 640.37712386 357.84261876 638.3125 355.75 C634.98129193 352.37899935 631.56138372 349.2048597 627.96484375 346.12109375 C625.43197838 343.91920171 622.96917478 341.64804174 620.5 339.375 C616.03727168 335.30459944 611.44992 331.44823091 606.75 327.65625 C603.4489533 324.95220111 600.22514883 322.16855523 597 319.375 C590.72859069 313.965109 584.28925504 308.81301418 577.73876953 303.74658203 C575.6601239 302.13161401 573.5932301 300.50234745 571.52734375 298.87109375 C562.1856902 291.51488469 552.67610405 284.49161414 542.90820312 277.71337891 C540.81874322 276.25435949 538.74347131 274.77722154 536.671875 273.29296875 C504.94906152 250.59336775 471.22941033 230.56487346 436.8125 212.25 C435.7503125 211.68200684 434.688125 211.11401367 433.59375 210.52880859 C360.27451725 171.46128339 281.18576616 143.65162538 84.8125 108.25 C83.98903076 108.1748114 83.16556152 108.0996228 82.31713867 108.02215576 C28.27166252 103.12348713 -27.16020987 103.15025647 -81.1875 108.25 Z " fill="#83B6C7" transform="translate(1072.1875,25.75)"/>
<path d="M0 0 C22.1416519 17.79394132 37.32411298 42.87422073 40.45703125 71.36328125 C42.56317589 110.12584953 29.39495529 135.09959495 6.23828125 165.05175781 C4.11793549 167.80332493 2.03232347 170.57760055 -0.04296875 173.36328125 C-3.38280493 177.83548093 -6.7637423 182.27474135 -10.15380859 186.70898438 C-16.14346565 194.54497118 -22.08548213 202.40945178 -27.91796875 210.36328125 C-32.88889766 217.14119416 -37.94456152 223.83630719 -43.09082031 230.48242188 C-52.09207244 242.14107123 -60.96828249 253.88766244 -69.67919922 265.76464844 C-74.06602812 271.73836283 -78.55313326 277.62224465 -83.09082031 283.48242188 C-92.09207244 295.14107123 -100.96828249 306.88766244 -109.67919922 318.76464844 C-114.06602812 324.73836283 -118.55313326 330.62224465 -123.09082031 336.48242188 C-132.09207244 348.14107123 -140.96828249 359.88766244 -149.67919922 371.76464844 C-154.06602812 377.73836283 -158.55313326 383.62224465 -163.09082031 389.48242188 C-172.09207244 401.14107123 -180.96828249 412.88766244 -189.67919922 424.76464844 C-194.06602812 430.73836283 -198.55313326 436.62224465 -203.09082031 442.48242188 C-212.09207244 454.14107123 -220.96828249 465.88766244 -229.67919922 477.76464844 C-234.06602812 483.73836283 -238.55313326 489.62224465 -243.09082031 495.48242188 C-252.09207244 507.14107123 -260.96828249 518.88766244 -269.67919922 530.76464844 C-274.06602812 536.73836283 -278.55313326 542.62224465 -283.09082031 548.48242188 C-292.0914148 560.14021944 -300.96859325 571.88493107 -309.67700195 583.76245117 C-312.89671928 588.14803151 -316.15242327 592.49680151 -319.48046875 596.80078125 C-320.24875 597.79851563 -321.01703125 598.79625 -321.80859375 599.82421875 C-323.34652933 601.81973176 -324.89157436 603.80915965 -326.44335938 605.79394531 C-328.5511792 608.495392 -330.64153884 611.20971123 -332.73046875 613.92578125 C-333.4155249 614.79581787 -334.10058105 615.66585449 -334.80639648 616.56225586 C-335.43489502 617.3847583 -336.06339355 618.20726074 -336.7109375 619.0546875 C-337.28094482 619.78888916 -337.85095215 620.52309082 -338.43823242 621.27954102 C-339.72468052 623.26605893 -339.72468052 623.26605893 -339.4140625 625.36279297 C-338.36473606 627.77259701 -337.05615967 629.60592838 -335.4375 631.6796875 C-334.79087402 632.5164502 -334.14424805 633.35321289 -333.47802734 634.21533203 C-332.77758301 635.10978027 -332.07713867 636.00422852 -331.35546875 636.92578125 C-329.88416538 638.82976289 -328.41413726 640.73473059 -326.9453125 642.640625 C-326.20394043 643.60081543 -325.46256836 644.56100586 -324.69873047 645.55029297 C-321.55138982 649.65716262 -318.47758419 653.81583959 -315.41796875 657.98828125 C-314.84780029 658.76453857 -314.27763184 659.5407959 -313.69018555 660.34057617 C-311.40241209 663.4577363 -309.11828665 666.57756138 -306.83398438 669.69726562 C-300.15233352 678.81691907 -293.41205023 687.88368026 -286.54296875 696.86328125 C-278.50194561 707.374902 -270.65236934 718.01958558 -262.83398438 728.69726562 C-256.15233352 737.81691907 -249.41205023 746.88368026 -242.54296875 755.86328125 C-234.50194561 766.374902 -226.65236934 777.01958558 -218.83398438 787.69726562 C-212.15233352 796.81691907 -205.41205023 805.88368026 -198.54296875 814.86328125 C-190.50194561 825.374902 -182.65236934 836.01958558 -174.83398438 846.69726562 C-168.15233352 855.81691907 -161.41205023 864.88368026 -154.54296875 873.86328125 C-146.50194561 884.374902 -138.65236934 895.01958558 -130.83398438 905.69726562 C-124.15233352 914.81691907 -117.41205023 923.88368026 -110.54296875 932.86328125 C-102.50194561 943.374902 -94.65236934 954.01958558 -86.83398438 964.69726562 C-80.15233352 973.81691907 -73.41205023 982.88368026 -66.54296875 991.86328125 C-58.50194561 1002.374902 -50.65236934 1013.01958558 -42.83398438 1023.69726562 C-36.15231598 1032.81694301 -29.41104981 1041.88289616 -22.54296875 1050.86328125 C2.43634849 1083.58627726 23.01627617 1113.07736517 17.734375 1156.27832031 C14.64352156 1178.08304788 5.08066004 1197.03039715 -9.54296875 1213.36328125 C-10.10371094 1213.99492188 -10.66445312 1214.6265625 -11.2421875 1215.27734375 C-24.09964031 1228.91309274 -42.3615897 1239.04520373 -60.54296875 1243.36328125 C-61.30609375 1243.57339844 -62.06921875 1243.78351563 -62.85546875 1244 C-91.02994241 1250.89687637 -119.58156668 1243.84374823 -143.94140625 1229.33984375 C-158.93658353 1219.57300915 -169.42121705 1206.33003466 -179.69824219 1191.91357422 C-182.89272925 1187.49726773 -186.22291235 1183.18549102 -189.54296875 1178.86328125 C-197.58629643 1168.35347467 -205.43361189 1157.70691719 -213.25195312 1147.02929688 C-219.93360398 1137.90964343 -226.67388727 1128.84288224 -233.54296875 1119.86328125 C-241.58399189 1109.3516605 -249.43356816 1098.70697692 -257.25195312 1088.02929688 C-263.93360398 1078.90964343 -270.67388727 1069.84288224 -277.54296875 1060.86328125 C-285.58399189 1050.3516605 -293.43356816 1039.70697692 -301.25195312 1029.02929688 C-307.93360398 1019.90964343 -314.67388727 1010.84288224 -321.54296875 1001.86328125 C-329.58399189 991.3516605 -337.43356816 980.70697692 -345.25195312 970.02929688 C-351.93360398 960.90964343 -358.67388727 951.84288224 -365.54296875 942.86328125 C-373.58399189 932.3516605 -381.43356816 921.70697692 -389.25195312 911.02929688 C-395.93360398 901.90964343 -402.67388727 892.84288224 -409.54296875 883.86328125 C-417.58399189 873.3516605 -425.43356816 862.70697692 -433.25195312 852.02929688 C-440.6731474 841.9002552 -448.19027227 831.85602127 -455.83203125 821.89208984 C-460.23080644 816.13926254 -464.51678235 810.32375408 -468.62597656 804.36010742 C-470.63457872 801.37527591 -470.63457872 801.37527591 -473.54296875 799.36328125 C-473.79820312 799.92144531 -474.0534375 800.47960938 -474.31640625 801.0546875 C-475.71717749 803.69117094 -477.35933427 805.92302047 -479.16796875 808.30078125 C-479.55057861 808.80601318 -479.93318848 809.31124512 -480.32739258 809.83178711 C-481.72834879 811.67888036 -483.13514024 813.52142041 -484.54296875 815.36328125 C-487.10614603 818.71693133 -489.66886152 822.07093169 -492.23046875 825.42578125 C-492.9172168 826.32482178 -493.60396484 827.2238623 -494.31152344 828.15014648 C-498.90632537 834.17854804 -503.43573645 840.25080922 -507.91796875 846.36328125 C-512.88889766 853.14119416 -517.94456152 859.83630719 -523.09082031 866.48242188 C-532.09207244 878.14107123 -540.96828249 889.88766244 -549.67919922 901.76464844 C-554.06602812 907.73836283 -558.55313326 913.62224465 -563.09082031 919.48242188 C-572.09207244 931.14107123 -580.96828249 942.88766244 -589.67919922 954.76464844 C-594.06602812 960.73836283 -598.55313326 966.62224465 -603.09082031 972.48242188 C-612.09207244 984.14107123 -620.96828249 995.88766244 -629.67919922 1007.76464844 C-634.06602812 1013.73836283 -638.55313326 1019.62224465 -643.09082031 1025.48242188 C-652.09207244 1037.14107123 -660.96828249 1048.88766244 -669.67919922 1060.76464844 C-674.06602812 1066.73836283 -678.55313326 1072.62224465 -683.09082031 1078.48242188 C-692.09207244 1090.14107123 -700.96828249 1101.88766244 -709.67919922 1113.76464844 C-714.06602812 1119.73836283 -718.55313326 1125.62224465 -723.09082031 1131.48242188 C-732.09207244 1143.14107123 -740.96828249 1154.88766244 -749.67919922 1166.76464844 C-753.6474226 1172.16833152 -757.687606 1177.50417803 -761.79296875 1182.8046875 C-765.35914241 1187.40964432 -768.88682841 1192.04394534 -772.41796875 1196.67578125 C-773.10987305 1197.58062256 -773.80177734 1198.48546387 -774.51464844 1199.41772461 C-777.6357875 1203.50715117 -780.73727781 1207.60437983 -783.74609375 1211.77734375 C-801.93174056 1236.92770636 -824.58279253 1253.11561646 -855.36962891 1258.89379883 C-883.00734727 1262.98268423 -911.68872009 1257.05428421 -934.26171875 1240.3515625 C-936.72983152 1238.40011792 -939.1385405 1236.39228123 -941.54296875 1234.36328125 C-942.13335938 1233.91855469 -942.72375 1233.47382812 -943.33203125 1233.015625 C-962.84228052 1217.89749346 -973.78414546 1191.13559779 -976.94140625 1167.36328125 C-977.21562928 1164.69516528 -977.40862294 1162.04180079 -977.54296875 1159.36328125 C-977.58421875 1158.66460938 -977.62546875 1157.9659375 -977.66796875 1157.24609375 C-978.50939567 1129.37382704 -967.22504604 1105.30361622 -950.45947266 1083.82421875 C-948.50195388 1081.31061502 -946.57192899 1078.77799976 -944.6484375 1076.23828125 C-939.95376196 1070.04198078 -935.22757899 1063.8699731 -930.50195312 1057.69726562 C-922.71150257 1047.51664807 -914.98699576 1037.29714578 -907.40527344 1026.95996094 C-903.01897788 1020.98686585 -898.53230486 1015.10367293 -893.99511719 1009.24414062 C-884.99386506 997.58549127 -876.11765501 985.83890006 -867.40673828 973.96191406 C-863.01990938 967.98819967 -858.53280424 962.10431785 -853.99511719 956.24414062 C-844.99386506 944.58549127 -836.11765501 932.83890006 -827.40673828 920.96191406 C-823.01990938 914.98819967 -818.53280424 909.10431785 -813.99511719 903.24414062 C-804.99386506 891.58549127 -796.11765501 879.83890006 -787.40673828 867.96191406 C-783.01990938 861.98819967 -778.53280424 856.10431785 -773.99511719 850.24414062 C-764.99386506 838.58549127 -756.11765501 826.83890006 -747.40673828 814.96191406 C-743.01990938 808.98819967 -738.53280424 803.10431785 -733.99511719 797.24414062 C-724.99386506 785.58549127 -716.11765501 773.83890006 -707.40673828 761.96191406 C-703.01990938 755.98819967 -698.53280424 750.10431785 -693.99511719 744.24414062 C-684.99386506 732.58549127 -676.11765501 720.83890006 -667.40673828 708.96191406 C-663.01990938 702.98819967 -658.53280424 697.10431785 -653.99511719 691.24414062 C-644.99902032 679.59216848 -636.12522603 667.85398811 -627.42211914 655.98168945 C-623.31623613 650.38834761 -619.12543515 644.87069644 -614.875 639.38671875 C-611.04362774 634.41941201 -607.29380628 629.39157794 -603.54296875 624.36328125 C-607.76233713 617.83976059 -612.29492886 611.63481991 -617.04296875 605.48828125 C-622.95876053 597.77901723 -628.78596314 590.01375551 -634.53320312 582.17822266 C-638.17339068 577.21706625 -641.84210926 572.27932999 -645.54296875 567.36328125 C-649.83379077 561.66355386 -654.07320763 555.92828072 -658.29296875 550.17578125 C-663.30452555 543.34892721 -668.396455 536.58890934 -673.54296875 529.86328125 C-681.58416969 519.35180021 -689.43357146 508.70697241 -697.25195312 498.02929688 C-703.93360398 488.90964343 -710.67388727 479.84288224 -717.54296875 470.86328125 C-725.58399189 460.3516605 -733.43356816 449.70697692 -741.25195312 439.02929688 C-747.93360398 429.90964343 -754.67388727 420.84288224 -761.54296875 411.86328125 C-769.58399189 401.3516605 -777.43356816 390.70697692 -785.25195312 380.02929688 C-791.93360398 370.90964343 -798.67388727 361.84288224 -805.54296875 352.86328125 C-813.58399189 342.3516605 -821.43356816 331.70697692 -829.25195312 321.02929688 C-835.93360398 311.90964343 -842.67388727 302.84288224 -849.54296875 293.86328125 C-857.58399189 283.3516605 -865.43356816 272.70697692 -873.25195312 262.02929688 C-879.95112676 252.88572693 -886.71445665 243.80090059 -893.60546875 234.80078125 C-896.2559708 231.32514697 -898.90071368 227.84518775 -901.54296875 224.36328125 C-902.15124512 223.56470703 -902.75952148 222.76613281 -903.38623047 221.94335938 C-914.65244818 207.07851183 -922.8287014 192.47599266 -927.54296875 174.36328125 C-927.78917969 173.41839844 -928.03539062 172.47351563 -928.2890625 171.5 C-933.97996801 144.37989169 -927.51945807 115.16772943 -912.70410156 92.06738281 C-896.68981257 68.56449442 -872.20836692 52.90080425 -844.4375 47.2734375 C-838.23216886 46.18624159 -832.14435944 46.01809956 -825.85546875 46.05078125 C-824.71352051 46.0564209 -823.57157227 46.06206055 -822.39501953 46.06787109 C-793.30079475 46.48379702 -768.9852271 58.42217123 -748.38671875 78.4609375 C-742.43178263 84.80698171 -737.50640534 92.10320832 -732.390625 99.125 C-728.49833326 104.45229327 -724.49703628 109.69189667 -720.48046875 114.92578125 C-715.02052689 122.05186583 -709.69581414 129.25520956 -704.47412109 136.55712891 C-699.63599905 143.29546458 -694.60869527 149.88157782 -689.56347656 156.46557617 C-684.48220441 163.10529232 -679.49611396 169.8089987 -674.55102539 176.55053711 C-670.91151994 181.5110444 -667.24327034 186.4479736 -663.54296875 191.36328125 C-659.25214673 197.06300864 -655.01272987 202.79828178 -650.79296875 208.55078125 C-645.78141195 215.37763529 -640.6894825 222.13765316 -635.54296875 228.86328125 C-627.50176781 239.37476229 -619.65236604 250.01959009 -611.83398438 260.69726562 C-605.15233352 269.81691907 -598.41205023 278.88368026 -591.54296875 287.86328125 C-583.50194561 298.374902 -575.65236934 309.01958558 -567.83398438 319.69726562 C-561.15233352 328.81691907 -554.41205023 337.88368026 -547.54296875 346.86328125 C-539.50194561 357.374902 -531.65236934 368.01958558 -523.83398438 378.69726562 C-516.4960155 388.7127146 -509.06533342 398.64695604 -501.51977539 408.50708008 C-496.39487236 415.21528648 -491.35839581 421.98402058 -486.37060547 428.79467773 C-483.82934424 432.26437702 -481.28095709 435.72541912 -478.671875 439.14453125 C-478.24382568 439.70648193 -477.81577637 440.26843262 -477.37475586 440.84741211 C-476.26033337 442.30497662 -475.14018707 443.75816005 -474.01953125 445.2109375 C-472.54296875 447.36328125 -472.54296875 447.36328125 -472.54296875 449.36328125 C-468.0967701 445.21515179 -464.64973926 440.60259696 -461.10546875 435.67578125 C-456.35799779 429.14989259 -451.52900228 422.7087583 -446.54296875 416.36328125 C-441.74808266 410.25131036 -437.06976315 404.06862057 -432.48046875 397.80078125 C-426.52193213 389.66289624 -420.43643201 381.6328965 -414.28955078 373.63671875 C-405.21602475 361.82616879 -396.21442359 349.97075189 -387.40600586 337.9609375 C-383.01944362 331.98753277 -378.53255455 326.10399539 -373.99511719 320.24414062 C-364.99386506 308.58549127 -356.11765501 296.83890006 -347.40673828 284.96191406 C-343.01990938 278.98819967 -338.53280424 273.10431785 -333.99511719 267.24414062 C-324.99386506 255.58549127 -316.11765501 243.83890006 -307.40673828 231.96191406 C-303.01990938 225.98819967 -298.53280424 220.10431785 -293.99511719 214.24414062 C-284.99386506 202.58549127 -276.11765501 190.83890006 -267.40673828 178.96191406 C-263.01990938 172.98819967 -258.53280424 167.10431785 -253.99511719 161.24414062 C-244.99386506 149.58549127 -236.11765501 137.83890006 -227.40673828 125.96191406 C-223.01990938 119.98819967 -218.53280424 114.10431785 -213.99511719 108.24414062 C-204.99386506 96.58549127 -196.11765501 84.83890006 -187.40673828 72.96191406 C-183.4385149 67.55823098 -179.3983315 62.22238447 -175.29296875 56.921875 C-171.72679858 52.31692268 -168.19859719 47.68300209 -164.66796875 43.05078125 C-163.97968994 42.14884033 -163.29141113 41.24689941 -162.58227539 40.31762695 C-158.88830312 35.4698611 -155.22720826 30.60070691 -151.60522461 25.69897461 C-133.36230911 1.08900541 -110.14925855 -15.55486799 -79.31201172 -20.31152344 C-51.11595386 -23.62285734 -22.73082314 -17.42590172 0 0 Z " fill="#F5A472" transform="translate(1549.54296875,427.63671875)"/>
</svg>
