<?xml version="1.0" encoding="UTF-8"?>
<svg version="1.1" xmlns="http://www.w3.org/2000/svg" width="2134" height="2134">
<path d="M0 0 C0.33 34.65 0.66 69.3 1 105 C-40.39536009 106.14987111 -40.39536009 106.14987111 -54.28076172 106.20532227 C-55.92304174 106.21498946 -57.56531976 106.22500314 -59.20759583 106.23532104 C-63.54732577 106.26159826 -67.8870655 106.28305597 -72.22682714 106.30332303 C-76.90270802 106.32595667 -81.57856404 106.35300773 -86.25442505 106.37937927 C-94.13900515 106.42322116 -102.02359614 106.46399852 -109.90820312 106.50268555 C-118.782438 106.54625026 -127.65664233 106.59393995 -136.53084171 106.64418942 C-145.30747779 106.69383252 -154.08412609 106.74088006 -162.86078262 106.78675652 C-166.47497055 106.8056494 -170.08915391 106.82517967 -173.70333481 106.84536934 C-199.753932 106.98937875 -225.80398983 107.01024156 -251.85490409 107.00521354 C-256.39668297 107.00442322 -260.93846189 107.0040872 -265.48024082 107.00370741 C-274.32016064 107.00290403 -283.16008029 107.00161602 -292 107 C-291.97316594 188.28723741 -291.94139335 269.5744725 -291.88336182 350.86169434 C-291.88207555 352.66636936 -291.88207555 352.66636936 -291.8807633 354.50750247 C-291.86209758 380.65460095 -291.84254506 406.8016987 -291.82207905 432.94879583 C-291.81204789 445.77136506 -291.80221268 458.59393444 -291.79248047 471.41650391 C-291.79102276 473.33050144 -291.79102276 473.33050144 -291.7895356 475.2831656 C-291.7581296 516.64037507 -291.7396628 557.99757802 -291.72790753 599.35479736 C-291.71575891 641.85545538 -291.69055338 684.35608614 -291.64892386 726.85672599 C-291.64304979 732.8599333 -291.63732495 738.86314073 -291.63169098 744.86634827 C-291.63057752 746.04786316 -291.62946406 747.22937805 -291.62831686 748.44669643 C-291.61077853 767.46420771 -291.60700026 786.48169803 -291.60837079 805.49921632 C-291.60945495 824.61921872 -291.59603524 843.73916743 -291.56783572 862.85914946 C-291.55152292 874.21803152 -291.54630571 885.57679207 -291.55702825 896.93568147 C-291.56309819 904.52763298 -291.55464745 912.11947962 -291.5345077 919.71140658 C-291.52345161 924.03451771 -291.51859702 928.35738207 -291.53148755 932.68049377 C-291.54311536 936.62202583 -291.53602918 940.56308629 -291.5146993 944.50457374 C-291.5102336 945.91338635 -291.51228497 947.32224073 -291.52207924 948.73102637 C-291.6584429 969.93809173 -284.91714682 988.40744681 -270.20703125 1003.88671875 C-258.4154644 1015.07487919 -241.72826786 1022.09209751 -225.48279762 1022.1386652 C-224.40493229 1022.14413964 -223.32706695 1022.14961409 -222.21653903 1022.15525442 C-221.0433859 1022.15623253 -219.87023277 1022.15721064 -218.66152954 1022.15821838 C-217.40683597 1022.16315636 -216.1521424 1022.16809434 -214.85942781 1022.17318195 C-211.38410558 1022.18672825 -207.9087931 1022.19417122 -204.43345141 1022.20060861 C-200.682999 1022.20862801 -196.93256677 1022.22232047 -193.18212891 1022.23532104 C-186.68664814 1022.25706197 -180.19116531 1022.27521516 -173.69566727 1022.29092598 C-164.30428796 1022.31364633 -154.91293103 1022.34178615 -145.52157073 1022.37124526 C-130.2844099 1022.41889462 -115.04723992 1022.462166 -99.81005859 1022.50268555 C-85.0092701 1022.54205399 -70.20848973 1022.58348344 -55.40771484 1022.62768555 C-54.49527054 1022.63040982 -53.58282623 1022.63313409 -52.6427321 1022.63594092 C-48.06523 1022.64962062 -43.48772802 1022.66334085 -38.91022611 1022.67708123 C-0.94016767 1022.79100429 37.02990824 1022.89782286 75 1023 C74.99672699 1022.10870392 74.99345398 1021.21740784 74.99008179 1020.29910278 C74.97934854 1016.95160666 74.97155401 1013.60412916 74.96566772 1010.25662231 C74.96254958 1008.81541656 74.95830358 1007.37421273 74.95285034 1005.93301392 C74.86305271 981.56827462 78.72587805 959.33912336 91 938 C91.5775 936.99582031 92.155 935.99164062 92.75 934.95703125 C102.52357637 918.91660152 115.4166294 906.2637461 131 896 C132.45019531 895.0409375 132.45019531 895.0409375 133.9296875 894.0625 C145.25389326 887.03584601 157.75432924 882.42254134 170.75 879.625 C171.46873291 879.46942627 172.18746582 879.31385254 172.92797852 879.15356445 C184.28127159 876.93119069 195.94443194 876.85111932 207.47353554 876.87136555 C208.76010793 876.86961251 210.04668033 876.86785947 211.37223977 876.86605331 C214.9154148 876.86136881 218.45856384 876.86281003 222.00174007 876.86533108 C225.86722849 876.86697526 229.73271161 876.86281416 233.59819829 876.85942191 C240.36397502 876.85428431 247.12974459 876.85284785 253.89552307 876.85387802 C263.95696216 876.85540623 274.01839336 876.85123394 284.07983091 876.8460034 C303.09759257 876.83634274 322.11535154 876.83351964 341.13311537 876.83294634 C355.82178009 876.83248644 370.51044375 876.83042624 385.19910812 876.82724571 C389.43032086 876.82634814 393.66153359 876.82545833 397.89274633 876.82457083 C399.4706734 876.82423926 399.4706734 876.82423926 401.08047778 876.82390099 C430.66167699 876.81774857 460.24287583 876.81380025 489.8240757 876.81424427 C491.49629634 876.81426764 491.49629634 876.81426764 493.20229923 876.81429148 C498.85237966 876.81437458 504.50246009 876.81447362 510.15254052 876.81457619 C511.83566904 876.8146061 511.83566904 876.8146061 513.55280017 876.81463663 C515.82192981 876.81467706 518.09105945 876.81471886 520.36018909 876.81476202 C555.66086586 876.81537471 590.96153302 876.8078685 626.26220703 876.79418945 C665.9410393 876.77882013 705.61986526 876.77022373 745.29870069 876.77115268 C749.53179955 876.7712273 753.76489842 876.77127601 757.99799728 876.77130699 C759.56139073 876.77132447 759.56139073 876.77132447 761.15636788 876.77134231 C777.90910488 876.77137305 794.66183352 876.76499468 811.41456803 876.75637473 C828.25888889 876.74788705 845.10319756 876.74691703 861.94751938 876.75348405 C871.94587528 876.75717218 881.94419408 876.7553694 891.94254603 876.74554171 C898.63220073 876.73952352 905.32182868 876.74085753 912.01148217 876.74801221 C915.81567758 876.75187822 919.61980139 876.75271454 923.42399164 876.74455485 C964.08926928 876.66302736 964.08926928 876.66302736 979.875 881.25 C980.65053223 881.46615967 981.42606445 881.68231934 982.22509766 881.9050293 C1013.72402325 891.01186153 1039.11420154 913.15613166 1054.9453125 941.48046875 C1066.38944021 963.40266143 1069.15384204 985.80146239 1069.14526367 1010.13525391 C1069.1482613 1011.84326246 1069.1516652 1013.55127034 1069.15544128 1015.25927734 C1069.16422529 1019.87119423 1069.16661706 1024.48309252 1069.16725707 1029.09501696 C1069.1679709 1031.9852559 1069.17011151 1034.87549021 1069.17275429 1037.765728 C1069.18199005 1047.87425788 1069.1860915 1057.98277463 1069.18530273 1068.09130859 C1069.18470282 1077.47235882 1069.19524237 1086.85335139 1069.2110464 1096.23438704 C1069.22418001 1104.3222838 1069.22948418 1112.41016185 1069.22884732 1120.49806917 C1069.22859399 1125.31350828 1069.2313531 1130.12889612 1069.24202538 1134.94432449 C1069.25180463 1139.48016234 1069.25171924 1144.01590092 1069.24450874 1148.55174255 C1069.2434749 1150.2023216 1069.24575293 1151.85290715 1069.2518692 1153.50347519 C1069.30097704 1167.69200005 1068.60042353 1181.9495884 1064.75 1195.6875 C1064.53384033 1196.47656738 1064.31768066 1197.26563477 1064.0949707 1198.07861328 C1055.62766322 1227.87266847 1035.08714034 1253.35340534 1008.3359375 1268.74609375 C984.10770254 1282.16223604 961.0138653 1284.46022553 933.82050271 1284.38540266 C929.81760546 1284.37773707 925.81474279 1284.3875941 921.81185055 1284.39513266 C914.80803568 1284.40593153 907.80429027 1284.40566139 900.80047226 1284.39799118 C890.38533438 1284.38661622 879.9702548 1284.39245921 869.55511728 1284.4016161 C850.95076655 1284.41739464 832.34644677 1284.41605159 813.74209312 1284.40737936 C797.46094247 1284.39982749 781.17980316 1284.39786502 764.89865112 1284.4014473 C763.81794977 1284.40167645 762.73724842 1284.40190561 761.62379854 1284.40214171 C757.23668662 1284.40307575 752.84957471 1284.40403095 748.46246281 1284.405021 C707.32268797 1284.41419439 666.18293282 1284.40588333 625.04316102 1284.38973031 C588.50695357 1284.3754939 551.97077749 1284.37676779 515.43457031 1284.39111328 C474.36919581 1284.40718326 433.3038387 1284.41354377 392.23846149 1284.40427649 C387.85942396 1284.40331436 383.48038642 1284.40237584 379.10134888 1284.4014473 C378.02314798 1284.40121006 376.94494707 1284.40097283 375.83407342 1284.40072841 C359.5646603 1284.39731851 343.29525976 1284.40130214 327.02584839 1284.40888596 C308.52356358 1284.4174677 290.02131451 1284.41531075 271.51903415 1284.39904372 C261.16877209 1284.39024362 250.81858747 1284.38964719 240.46832744 1284.40098225 C233.54927259 1284.40772286 226.63027964 1284.40349843 219.71123393 1284.39046794 C215.77275096 1284.38335181 211.8344215 1284.38084912 207.89594352 1284.39168589 C177.85752928 1284.46834002 177.85752928 1284.46834002 165 1281 C164.17420472 1280.78275029 163.34840944 1280.56550057 162.49759007 1280.34166753 C132.43671681 1271.64900465 106.63481563 1250.92351644 91 1224 C90.64518555 1223.38914551 90.29037109 1222.77829102 89.92480469 1222.14892578 C85.4558432 1214.27356751 82.18254004 1206.24825961 79.625 1197.5625 C79.38628174 1196.76577881 79.14756348 1195.96905762 78.90161133 1195.14819336 C74.65776395 1179.70304466 74.73004913 1163.82056029 74.875 1147.9375 C74.88506335 1145.99154113 74.89418319 1144.04557715 74.90234375 1142.09960938 C74.92406054 1137.39960979 74.95839979 1132.69986391 75 1128 C74.34817131 1128.00113916 73.69634263 1128.00227832 73.02476156 1128.003452 C34.31071038 1128.0707246 -4.40333319 1128.12212937 -43.11743108 1128.15319599 C-47.77571587 1128.15694768 -52.43400054 1128.16083069 -57.09228516 1128.16479492 C-58.01958614 1128.16558185 -58.94688711 1128.16636878 -59.90228812 1128.16717956 C-74.87685252 1128.18019981 -89.85138202 1128.20383483 -104.82592578 1128.23145839 C-120.21453871 1128.25960702 -135.60313349 1128.27619616 -150.9917711 1128.28226548 C-160.47176217 1128.2863624 -169.9516546 1128.29925707 -179.43161528 1128.3237494 C-185.95040243 1128.33972364 -192.4691393 1128.34437422 -198.98794456 1128.34050413 C-202.73748084 1128.33860056 -206.48684593 1128.34131956 -210.23635101 1128.35761642 C-242.52190819 1128.49064948 -272.75623846 1124.62188077 -302 1110 C-302.06857018 1170.32721378 -302.13216644 1230.65443199 -302.16937256 1290.98167419 C-302.16992479 1291.87478668 -302.17047702 1292.76789916 -302.17104598 1293.68807566 C-302.1830181 1313.09863719 -302.19409876 1332.50919913 -302.20426132 1351.91976169 C-302.20925059 1361.43893953 -302.21443681 1370.95811725 -302.21972656 1380.47729492 C-302.22051112 1381.89819051 -302.22051112 1381.89819051 -302.22131152 1383.34779106 C-302.23835155 1414.04160913 -302.26839279 1444.73539771 -302.30518888 1475.42919793 C-302.34293844 1506.97569629 -302.36754623 1538.52217833 -302.37565996 1570.0686989 C-302.37681255 1574.52622164 -302.3781151 1578.98374434 -302.37950897 1583.44126701 C-302.37977866 1584.31855622 -302.38004836 1585.19584543 -302.38032622 1586.09971917 C-302.38504985 1600.21164738 -302.40359335 1614.3235251 -302.42732814 1628.43543274 C-302.45090404 1642.62873111 -302.45986517 1656.82197951 -302.45400551 1671.01529676 C-302.45096729 1679.44388877 -302.45903738 1687.8722976 -302.48319017 1696.30085647 C-302.49823824 1701.93825374 -302.49862073 1707.57553166 -302.48732725 1713.21293731 C-302.48131382 1716.42058318 -302.48368033 1719.62781628 -302.49953273 1722.83543844 C-302.60253518 1744.96885217 -300.20677889 1763.68116849 -285 1781 C-284.41734375 1781.67675781 -283.8346875 1782.35351562 -283.234375 1783.05078125 C-273.19517455 1793.91252123 -257.32402781 1802.39487331 -242.33998221 1803.13061053 C-241.37587229 1803.13326857 -240.41176237 1803.13592661 -239.418437 1803.1386652 C-237.74192445 1803.14687687 -237.74192445 1803.14687687 -236.03154296 1803.15525442 C-234.80878561 1803.15623253 -233.58602826 1803.15721064 -232.32621765 1803.15821838 C-231.02337588 1803.16315636 -229.7205341 1803.16809434 -228.37821227 1803.17318195 C-224.7638117 1803.18674908 -221.14942052 1803.19417729 -217.53500116 1803.20060861 C-213.63660926 1803.20861881 -209.73823686 1803.22231446 -205.83985901 1803.23532104 C-199.08626097 1803.25707498 -192.33266096 1803.27522344 -185.57904625 1803.29092598 C-175.81444234 1803.31363445 -166.04986005 1803.34177594 -156.28527448 1803.37124526 C-140.44304084 1803.41890917 -124.60079836 1803.46217662 -108.75854492 1803.50268555 C-93.36888949 1803.54204658 -77.97924191 1803.58347427 -62.58959961 1803.62768555 C-61.64104863 1803.63040982 -60.69249766 1803.63313409 -59.71520271 1803.63594092 C-54.95662113 1803.6496205 -50.19803966 1803.66334075 -45.43945825 1803.67708123 C-5.95965517 1803.79102714 33.52016477 1803.89784068 73 1804 C72.99639969 1802.99669647 72.99279938 1801.99339294 72.98908997 1800.95968628 C72.97651511 1797.18771802 72.96870586 1793.41575156 72.9622345 1789.64376831 C72.95880677 1788.0205148 72.95413794 1786.39726336 72.94813538 1784.77401733 C72.80132405 1744.01071443 82.6462231 1706.04776295 111.25 1675.65625 C120.44504069 1666.7746766 130.68605019 1659.87842232 142 1654 C142.91136719 1653.51789063 143.82273437 1653.03578125 144.76171875 1652.5390625 C155.62706424 1647.17947504 168.82006036 1643.88008132 180.9246347 1643.87119883 C182.09600775 1643.86792664 183.26738081 1643.86465445 184.47425002 1643.86128309 C186.39457524 1643.86350853 186.39457524 1643.86350853 188.35369492 1643.86577892 C189.73834344 1643.86382496 191.12299141 1643.86143572 192.50763851 1643.85865095 C196.32432113 1643.85225331 200.14098269 1643.85208914 203.95766964 1643.85292836 C208.10571286 1643.85275881 212.25374854 1643.84685213 216.401788 1643.8416875 C224.63438213 1643.83235973 232.86697088 1643.82843915 241.09956963 1643.82616853 C250.95870174 1643.82320689 260.81782671 1643.81450966 270.67695508 1643.80575425 C294.50919165 1643.78490647 318.34142946 1643.77443924 342.17367302 1643.76562465 C353.44844811 1643.76141831 364.72322267 1643.75619628 375.99799731 1643.75094012 C414.59332282 1643.73304897 453.18864848 1643.7180533 491.78397751 1643.71061993 C494.20720365 1643.71014517 496.63042979 1643.70966928 499.05365594 1643.70919226 C500.25535891 1643.70895589 501.45706189 1643.70871951 502.69518011 1643.70847597 C508.78360315 1643.70727478 514.87202618 1643.70605933 520.96044922 1643.70483398 C522.16871566 1643.70459383 523.37698211 1643.70435368 524.62186268 1643.70410626 C563.79093031 1643.69621449 602.95996764 1643.67278567 642.12902204 1643.64027804 C683.54091661 1643.60597177 724.95279345 1643.58626801 766.36470246 1643.58297569 C770.91187939 1643.58255815 775.4590563 1643.58207859 780.00623322 1643.58155251 C781.68569685 1643.58136772 781.68569685 1643.58136772 783.39908904 1643.5811792 C801.4098074 1643.57884808 819.42049055 1643.56319298 837.43119636 1643.54271066 C855.54006026 1643.52244368 873.64888193 1643.51697949 891.75775507 1643.52648129 C902.51193742 1643.53169295 913.26597904 1643.52583456 924.02014111 1643.50394662 C931.2113352 1643.49041843 938.40243264 1643.49153337 945.59362774 1643.50434858 C949.68612024 1643.51123177 953.7783441 1643.5119613 957.87081239 1643.49478849 C993.57855999 1643.35421843 1023.14636112 1650.27824661 1049.5625 1676.0625 C1072.01611634 1698.65846208 1087.06696009 1732.50132373 1087.14044189 1764.55415344 C1087.14489858 1765.64663376 1087.14489858 1765.64663376 1087.1494453 1766.76118439 C1087.1580689 1769.18495839 1087.15963517 1771.60868262 1087.16113281 1774.0324707 C1087.16576573 1775.77767541 1087.17079102 1777.52287912 1087.17617798 1779.26808167 C1087.18926416 1784.00012942 1087.19574032 1788.732163 1087.20018864 1793.46422601 C1087.20312735 1796.42815542 1087.20723379 1799.39208104 1087.21169281 1802.35600853 C1087.22536192 1811.65077899 1087.2350297 1820.94554069 1087.2388947 1830.2403205 C1087.24336482 1840.92877187 1087.26086642 1851.61709469 1087.2898953 1862.305507 C1087.31161014 1870.5920631 1087.32160429 1878.8785833 1087.32293582 1887.16516751 C1087.32397747 1892.10201197 1087.32974672 1897.03873549 1087.34775543 1901.9755497 C1087.36440499 1906.63038172 1087.36631103 1911.28500413 1087.35761642 1915.93985558 C1087.35685481 1917.63355451 1087.3610707 1919.3272655 1087.37107468 1921.02093506 C1087.57814441 1958.31321312 1074.07565512 1993.12611054 1048 2020 C1027.44749851 2040.62240796 1000.14731558 2051.06186495 971.24220884 2051.1367898 C969.98620237 2051.13502033 968.73019589 2051.13325086 967.43612862 2051.13142776 C966.06534058 2051.13307979 964.69455302 2051.13516715 963.32376623 2051.13764787 C959.55954587 2051.14319357 955.79534835 2051.14254596 952.03112521 2051.14087028 C947.93472406 2051.14013746 943.83832926 2051.14516616 939.74193084 2051.1494453 C931.61833131 2051.15701656 923.49473836 2051.15921791 915.37113567 2051.15977435 C905.63999385 2051.16068886 895.90885808 2051.16735898 886.17771887 2051.17412117 C862.65851759 2051.19017477 839.13931697 2051.19608376 815.6201112 2051.20086992 C804.4917935 2051.20320654 793.36347632 2051.20680927 782.23515902 2051.2105653 C744.13442489 2051.22340032 706.03369104 2051.23411948 667.93295479 2051.2375679 C665.5415802 2051.23778953 663.15020561 2051.23801132 660.75883102 2051.23823325 C658.36171313 2051.23845389 655.96459524 2051.23867438 653.56747735 2051.2388947 C648.75852656 2051.23933725 643.94957578 2051.23978437 639.140625 2051.24023438 C637.9482864 2051.24034377 636.7559478 2051.24045316 635.52747773 2051.24056586 C596.87047299 2051.24419607 558.213487 2051.26011499 519.55648943 2051.28342474 C478.67667375 2051.30802971 437.79686878 2051.32174105 396.91704547 2051.32293582 C392.42803311 2051.32310727 387.93902075 2051.3233227 383.45000839 2051.32357025 C381.7920524 2051.3236539 381.7920524 2051.3236539 380.10060235 2051.32373925 C362.32550147 2051.32488912 344.55041987 2051.33590568 326.7753255 2051.35045731 C308.90317838 2051.3648352 291.03105594 2051.36805199 273.15890463 2051.36001733 C262.54713502 2051.35556717 251.93544513 2051.35939714 241.32368602 2051.37525584 C234.22624767 2051.38502982 227.12886496 2051.38380455 220.03142708 2051.37381961 C215.99339161 2051.368445 211.95550882 2051.36766078 207.91748621 2051.38032833 C167.88357661 2051.49806035 167.88357661 2051.49806035 151.25 2044.875 C150.47398437 2044.5764209 149.69796875 2044.2778418 148.8984375 2043.97021484 C119.95028374 2032.37315734 97.49584511 2007.98016308 84.99511719 1979.72900391 C78.967378 1965.24728479 75.405465 1950.45080557 73.75 1934.875 C73.66967529 1934.12484619 73.58935059 1933.37469238 73.5065918 1932.60180664 C73.02115245 1927.28457866 72.96298244 1922.00269627 72.98144531 1916.66845703 C72.98345444 1915.55966942 72.98345444 1915.55966942 72.98550415 1914.42848206 C72.98897675 1912.61898492 72.99430039 1910.80949149 73 1909 C72.32142315 1909.00151888 71.6428463 1909.00303776 70.94370651 1909.00460267 C30.6346033 1909.0943134 -9.67448693 1909.16284613 -49.98366994 1909.20426132 C-54.83465382 1909.20926353 -59.68563751 1909.21444088 -64.53662109 1909.21972656 C-65.50227544 1909.2207758 -66.46792979 1909.22182505 -67.4628464 1909.22290608 C-83.05362605 1909.24026305 -98.64434609 1909.27177449 -114.23509049 1909.30861118 C-130.25877851 1909.34615218 -146.28243552 1909.36826352 -162.3061657 1909.37635398 C-172.17619166 1909.38181461 -182.04604906 1909.39899665 -191.91602308 1909.43166587 C-198.70441671 1909.45297665 -205.49272451 1909.45916305 -212.28114909 1909.45400551 C-216.18490121 1909.45146917 -220.08836096 1909.4550713 -223.99205971 1909.4768219 C-246.35934095 1909.5952186 -268.2682832 1908.46691504 -289.5625 1901 C-290.67544434 1900.61755127 -291.78838867 1900.23510254 -292.93505859 1899.84106445 C-316.12153681 1891.55594303 -336.96435695 1878.68112577 -354.52099609 1861.44824219 C-355.96357299 1860.03566937 -357.42882755 1858.6463739 -358.89453125 1857.2578125 C-387.35600975 1829.79149059 -406.70482435 1788.05638445 -408.09265641 1748.34899926 C-408.12705228 1745.34800131 -408.13129807 1742.34843892 -408.1241985 1739.34724945 C-408.12611563 1737.61857915 -408.12611563 1737.61857915 -408.12807148 1735.85498622 C-408.13060424 1732.65932323 -408.1286674 1729.46369927 -408.12483745 1726.26803875 C-408.1217673 1722.77726021 -408.12453361 1719.28648536 -408.12654433 1715.79570672 C-408.12927806 1709.6552259 -408.12828823 1703.51475436 -408.12488318 1697.37427401 C-408.11980572 1688.181868 -408.12051074 1678.98946862 -408.12234976 1669.79706172 C-408.12531621 1654.13115603 -408.12354212 1638.46525406 -408.11920547 1622.79934883 C-408.11482938 1606.92105186 -408.11263266 1591.04275682 -408.11310768 1575.16445923 C-408.11313637 1574.1620682 -408.11316507 1573.15967717 -408.11319463 1572.12691065 C-408.113351 1567.01583543 -408.11354295 1561.9047602 -408.11374746 1556.79368498 C-408.11515548 1519.78629866 -408.11172234 1482.77891404 -408.10573006 1445.77152824 C-408.09980925 1409.11804127 -408.0959553 1372.46455503 -408.09487724 1335.81106758 C-408.09482563 1334.10410956 -408.09482563 1334.10410956 -408.09477296 1332.36266753 C-408.09445977 1321.96917103 -408.09417208 1311.57567453 -408.09391499 1301.18217803 C-408.09327556 1275.34416453 -408.09231622 1249.50615104 -408.09113979 1223.66813755 C-408.09108648 1222.49148202 -408.09103316 1221.31482648 -408.09097823 1220.10251472 C-408.08835619 1162.8535805 -408.08204841 1105.60464677 -408.07543945 1048.35571289 C-408.07314781 1028.48701986 -408.07087245 1008.61832683 -408.06866455 988.74963379 C-408.06845913 986.90126692 -408.06845913 986.90126692 -408.06824955 985.0155593 C-408.06190643 927.74033383 -408.05818019 870.46510827 -408.05512976 813.18988254 C-408.05493169 809.47190399 -408.0547325 805.75392543 -408.05453308 802.03594688 C-408.0532133 777.39687738 -408.05193865 752.75780789 -408.05069422 728.11873839 C-408.04821766 679.09236937 -408.04547598 630.06600036 -408.04255217 581.03963137 C-408.04241293 578.70482484 -408.04227388 576.37001832 -408.04213501 574.0352118 C-408.03588127 468.91662208 -408.02654313 363.79803271 -408.01586914 258.67944336 C-408.01576921 257.69507493 -408.01566927 256.7107065 -408.01556631 255.69650872 C-408.01056576 206.46433913 -408.0053917 157.23216955 -408 108 C-408.78368242 108.00509612 -409.56736483 108.01019224 -410.3747952 108.01544279 C-429.8133075 108.14171766 -449.2518324 108.26587258 -468.69037175 108.38791317 C-478.09227336 108.44698757 -487.49417009 108.50668664 -496.89605713 108.56803894 C-533.88726237 108.80907937 -570.87803404 109.04050364 -607.87011719 109.06665039 C-609.12348326 109.06756396 -610.37684934 109.06847753 -611.6681962 109.06941879 C-636.1121501 109.08309659 -660.55608147 109.03303232 -685 109 C-685 74.35 -685 39.7 -685 4 C-624.93751231 3.43394276 -624.93751231 3.43394276 -605.80969238 3.26956177 C-603.83442939 3.25258571 -603.83442939 3.25258571 -601.81926209 3.2352667 C-554.08500917 2.82694154 -506.34965945 2.57589313 -458.6144139 2.31583219 C-448.52753754 2.26085344 -438.44066637 2.20498637 -428.35379791 2.14857674 C-427.62225302 2.14448644 -426.89070813 2.14039614 -426.13699521 2.13618189 C-423.16403656 2.11955738 -420.19107794 2.10292841 -417.21811935 2.08629331 C-389.73706407 1.93252926 -362.25599813 1.78076156 -334.77492574 1.63009002 C-310.51481886 1.49706829 -286.25472051 1.36258581 -261.99462891 1.22680664 C-260.42469246 1.2180205 -258.85475602 1.20923437 -257.28481957 1.20044827 C-256.50853954 1.19610377 -255.73225952 1.19175928 -254.93245585 1.18728314 C-251.02233178 1.16540037 -247.11220769 1.14351994 -243.20208359 1.12164211 C-242.43013973 1.11732276 -241.65819588 1.11300341 -240.86285978 1.10855317 C-220.34284581 0.99375129 -199.8228264 0.87992842 -179.30280519 0.76642853 C-178.57220046 0.76238731 -177.84159573 0.75834609 -177.08885147 0.75418241 C-171.11287465 0.72112802 -171.11287465 0.72112802 -168.28251744 0.70547734 C-158.17646232 0.64959033 -148.07040909 0.59337271 -137.96435708 0.53692545 C-124.98537379 0.46443578 -112.00638689 0.39265864 -99.02739361 0.32197743 C-92.79648259 0.28803118 -86.56557361 0.25379242 -80.33466911 0.21866798 C-74.60464844 0.18637826 -68.87462324 0.15505323 -63.14459351 0.12441612 C-61.10289784 0.11334723 -59.06120384 0.10196491 -57.01951215 0.09018569 C-38.01256369 -0.01910244 -19.00790848 0 0 0 Z M184.0625 987.8125 C180.59875501 993.16556044 179.74992287 997.71933707 179.73930359 1004.04562378 C179.73547804 1004.7311426 179.73165249 1005.41666142 179.72771102 1006.12295353 C179.71743759 1008.40740634 179.72136231 1010.69160515 179.7253418 1012.97607422 C179.72099216 1014.61913281 179.71580817 1016.26218936 179.70985413 1017.90524292 C179.69647936 1022.35985108 179.6958838 1026.81437431 179.69841743 1031.26899862 C179.69948825 1034.99157426 179.69460086 1038.71413279 179.689812 1042.43670475 C179.6787219 1051.22132533 179.6782765 1060.00590315 179.68432617 1068.79052734 C179.69036522 1077.84393141 179.67805556 1086.89718004 179.6567561 1095.95055759 C179.63912505 1103.73164098 179.63314115 1111.51267496 179.63639385 1119.29377759 C179.63820458 1123.93744008 179.63559156 1128.58099172 179.62167931 1133.22463608 C179.60908124 1137.5929913 179.61106374 1141.96110472 179.62409019 1146.32945633 C179.62645129 1147.92898389 179.62373807 1149.52852858 179.61546707 1151.1280365 C179.06104254 1163.74933049 179.06104254 1163.74933049 184.49129462 1174.61430814 C190.61260817 1179.79766289 196.05361936 1179.84460064 203.84964848 1179.74946022 C205.14163443 1179.75758167 206.43362038 1179.76570312 207.76475742 1179.77407068 C211.35133184 1179.79576272 214.93691834 1179.78013335 218.52345665 1179.7584026 C222.42505158 1179.74137528 226.32651347 1179.75917115 230.22810119 1179.77253091 C237.06620809 1179.79112763 243.90402108 1179.78740016 250.74212456 1179.76906586 C260.91044006 1179.74187739 271.07852959 1179.74899319 281.24686143 1179.76298306 C299.4062047 1179.78684825 317.56540922 1179.77665729 335.72474484 1179.75242651 C351.61549288 1179.73136676 367.50619361 1179.72227392 383.39695549 1179.72501755 C384.4503996 1179.72518561 385.50384371 1179.72535367 386.58921037 1179.72552682 C390.86530808 1179.7262313 395.14140577 1179.72699932 399.41750346 1179.72785798 C439.54198411 1179.73579063 479.66638109 1179.71034006 519.7908378 1179.66880485 C555.45294618 1179.63206245 591.11497434 1179.62044074 626.77709961 1179.63134766 C629.06704307 1179.63204052 631.35698653 1179.63273272 633.64692999 1179.63342424 C634.77902515 1179.63376623 635.91112031 1179.63410822 637.07752139 1179.63446057 C642.77612784 1179.63616761 648.47473431 1179.63781519 654.1733408 1179.63939857 C655.85964794 1179.63986982 655.85964794 1179.63986982 657.58002189 1179.64035058 C687.36424018 1179.64832717 717.14845073 1179.63738432 746.93266433 1179.62037599 C750.13672184 1179.61856188 753.34077935 1179.61675058 756.54483687 1179.61494553 C758.67039372 1179.6137433 760.79595057 1179.61252607 762.9215074 1179.61129371 C777.75135887 1179.60284468 792.58119517 1179.60169707 807.41104828 1179.6055047 C826.51966907 1179.61038638 845.62820854 1179.60228143 864.73680706 1179.57108469 C874.84676197 1179.55496045 884.95658142 1179.54979856 895.06654446 1179.56036941 C901.81422873 1179.5663101 908.56179295 1179.55776256 915.3094485 1179.53727225 C919.1575992 1179.52598731 923.00547309 1179.52105703 926.8536262 1179.53360541 C930.99472691 1179.54694667 935.13512191 1179.52952913 939.27619267 1179.50895119 C940.47642367 1179.51774416 941.67665468 1179.52653713 942.91325632 1179.53559655 C949.49237731 1179.47289439 953.69112473 1179.01103817 959 1175 C963.49703171 1169.3195389 964.12319429 1165.29655437 964.14044189 1158.19488525 C964.14341302 1157.51107528 964.14638414 1156.82726532 964.1494453 1156.12273383 C964.15811457 1153.83213565 964.15963904 1151.54158984 964.16113281 1149.25097656 C964.16576226 1147.6082142 964.1707871 1145.96545291 964.17617798 1144.32269287 C964.18929228 1139.8597254 964.19574512 1135.39677298 964.20018864 1130.93378925 C964.2031211 1128.14433147 964.20722626 1125.35487778 964.21169281 1122.56542206 C964.22536558 1113.83449836 964.23503315 1105.10358404 964.2388947 1096.37265038 C964.24337417 1086.3004211 964.26091784 1076.22832761 964.2898953 1066.15613961 C964.31152619 1058.36661128 964.32159974 1050.57712112 964.32293582 1042.78756309 C964.3239829 1038.13715375 964.32986991 1033.48687211 964.34775543 1028.83649445 C964.36426031 1024.45997202 964.36637992 1020.08367293 964.35761642 1015.70713043 C964.35684733 1014.1043742 964.36117197 1012.50160583 964.37107468 1010.89888 C964.72730192 997.4322108 964.72730192 997.4322108 958.25 986.125 C950.9886965 981.37722463 943.85073027 981.71425709 935.41954231 981.74552441 C933.50698598 981.74071469 933.50698598 981.74071469 931.55579215 981.73580781 C928.01238173 981.72718601 924.4690772 981.73101498 920.92566513 981.73686353 C917.07227583 981.74103183 913.21890592 981.73363302 909.36552131 981.72771102 C902.61046424 981.71894182 895.85543748 981.71763947 889.10037613 981.72121429 C879.05535581 981.72651619 869.01036489 981.72043117 858.96534777 981.71213136 C839.98235957 981.69687808 820.99938469 981.69518765 802.01639165 981.69765439 C787.35940508 981.69948591 772.70242288 981.6977304 758.04543686 981.69342995 C755.94086644 981.69282755 753.83629602 981.69222635 751.7317256 981.69162634 C748.56047394 981.69071911 745.38922229 981.68981044 742.21797064 981.68889399 C712.72715217 981.68046244 683.23633534 981.67613018 653.74551582 981.68030071 C652.63339399 981.68045709 651.52127215 981.68061346 650.37544965 981.68077458 C644.73857204 981.68158038 639.10169443 981.68242615 633.46481682 981.68328788 C632.34528335 981.68345897 631.22574988 981.68363006 630.07229115 981.68380633 C627.80832192 981.68415298 625.54435269 981.68450151 623.28038346 981.68485192 C588.04807777 981.69020987 552.81579711 981.6822774 517.58349609 981.66381836 C478.01395627 981.64311129 438.44443194 981.63237315 398.87488639 981.63639385 C394.65732249 981.6367892 390.43975858 981.63715075 386.22219467 981.63749123 C385.18369782 981.63758196 384.14520097 981.63767269 383.07523451 981.63776617 C367.38513238 981.63893307 351.69504589 981.63227684 336.00494766 981.62167931 C318.16503279 981.60964213 300.32515239 981.60805123 282.48523702 981.62046947 C272.49791874 981.62711009 262.51068285 981.62543937 252.52337112 981.61188096 C245.8548635 981.60365666 239.1864178 981.60630764 232.51791525 981.61785623 C228.71662858 981.62413273 224.91550307 981.62566192 221.11422552 981.61399289 C217.02006743 981.60154025 212.92629619 981.61226052 208.83213997 981.62526989 C207.06090439 981.61430587 207.06090439 981.61430587 205.25388628 981.60312036 C197.68762291 981.65318428 189.4665506 981.82165001 184.0625 987.8125 Z M182.97390693 1754.26463516 C181.81929558 1756.32198979 180.84451904 1758.22798577 180.1875 1760.5 C179.97480469 1761.1909375 179.76210937 1761.881875 179.54296875 1762.59375 C178.34802196 1767.88934152 177.87458921 1773.08703386 177.86628723 1778.5070343 C177.86202225 1779.77274261 177.85775726 1781.03845093 177.85336304 1782.34251404 C177.85371248 1783.72744754 177.85417397 1785.11238102 177.85473633 1786.49731445 C177.851741 1787.96978846 177.84833761 1789.44226168 177.84455872 1790.91473389 C177.83575246 1794.90040511 177.83338202 1798.88605484 177.83274293 1802.87173486 C177.8320305 1805.36590499 177.82989253 1807.86006972 177.82724571 1810.35423851 C177.81800339 1819.06713582 177.81390942 1827.78001787 177.81469727 1836.49291992 C177.81529773 1844.59594595 177.8047492 1852.69890534 177.7889536 1860.80191451 C177.77584912 1867.77455656 177.77051459 1874.74717691 177.77115268 1881.71983117 C177.77140681 1885.87726862 177.76860241 1890.03464681 177.75797462 1894.19207191 C177.74824458 1898.10487127 177.74824786 1902.0175553 177.75549126 1905.93035889 C177.75653103 1907.35972959 177.75421062 1908.78910766 177.7481308 1910.21846581 C177.709276 1919.99252888 177.78154471 1929.60423903 182.4375 1938.4375 C182.84871094 1939.24058594 183.25992188 1940.04367187 183.68359375 1940.87109375 C185.0146476 1943.02368826 186.01839575 1944.42976686 188 1946 C190.51334566 1946.45291111 190.51334566 1946.45291111 193.39913446 1946.38180083 C194.52957149 1946.39059251 195.66000852 1946.39938419 196.82470122 1946.40844229 C198.69942379 1946.4000509 198.69942379 1946.4000509 200.61201954 1946.39148998 C201.95246627 1946.39613364 203.29290899 1946.40208893 204.63334468 1946.40924242 C208.34124926 1946.42516362 212.04894251 1946.42224597 215.75686801 1946.41640947 C219.78156065 1946.41332451 223.80619758 1946.42748574 227.83086842 1946.43946868 C235.82421104 1946.46050269 243.81749017 1946.46531314 251.81085724 1946.46526594 C261.38064536 1946.46595693 270.95038114 1946.4839157 280.52014893 1946.50223895 C301.45778655 1946.54156153 322.39540861 1946.55676309 343.33307786 1946.56615657 C344.41806905 1946.56664423 345.50306024 1946.5671319 346.62092996 1946.56763434 C347.70803712 1946.56811944 348.79514428 1946.56860454 349.91519409 1946.56910434 C361.94809099 1946.57475142 373.98098274 1946.58538229 386.01387596 1946.59613991 C422.33904492 1946.62804051 458.66420882 1946.65472288 494.98939228 1946.66089153 C496.7331362 1946.66119708 496.7331362 1946.66119708 498.51210727 1946.66150881 C503.22344951 1946.66233225 507.93479176 1946.66313614 512.64613402 1946.66393781 C516.19239338 1946.66454297 519.73865275 1946.66515676 523.28491211 1946.66577148 C525.04263956 1946.6660676 525.04263956 1946.6660676 526.83587666 1946.66636971 C564.84787305 1946.67300139 602.85972836 1946.71326364 640.8716744 1946.773977 C681.03666199 1946.83801214 721.20156984 1946.87323027 761.36661023 1946.87471896 C765.77263241 1946.87498725 770.17865457 1946.87536941 774.58467674 1946.87583351 C775.66960583 1946.87593339 776.75453492 1946.87603328 777.87234065 1946.87613619 C795.35842264 1946.87841001 812.84436881 1946.90687993 830.33040621 1946.94453989 C847.89392806 1946.98168436 865.4572693 1946.98924864 883.02081744 1946.96655061 C893.46439696 1946.95391034 903.90740378 1946.96361309 914.35091207 1947.00496996 C921.31985587 1947.030373 928.28839284 1947.02691553 935.25732869 1946.99962701 C939.23301626 1946.9848868 943.20759809 1946.98299016 947.18319968 1947.0161018 C950.79798213 1947.04595527 954.41074946 1947.03920072 958.02545545 1947.00284379 C959.94251831 1946.99310761 961.85965659 1947.02275731 963.77649203 1947.05384913 C969.8738254 1947.07137872 969.8738254 1947.07137872 975.06508233 1944.29382554 C982.38938578 1934.84124704 982.44142935 1924.67604164 982.40405273 1913.18994141 C982.40976326 1911.60056582 982.41673016 1910.01119433 982.42485046 1908.42182922 C982.44272271 1904.12624639 982.44162459 1899.8308685 982.43590808 1895.53525972 C982.43280727 1891.9395602 982.43891865 1888.34389952 982.44494683 1884.74820554 C982.45897129 1876.26016374 982.45744842 1867.77222262 982.44604492 1859.28417969 C982.43456869 1850.54938635 982.44863575 1841.81490024 982.4754414 1833.08014739 C982.49764762 1825.56051375 982.50422462 1818.04097619 982.49836498 1810.52131212 C982.4950056 1806.03909276 982.49734223 1801.55707024 982.51461601 1797.07487869 C982.53016157 1792.85742226 982.52604599 1788.6404184 982.50731087 1784.42297935 C982.50364577 1782.88276311 982.5066722 1781.34251276 982.51719666 1779.80232811 C982.58363763 1769.26791892 982.05396996 1758.696913 974.85145606 1750.30088706 C970.6656095 1747.35978911 965.04980516 1748.18789282 960.1418848 1748.24215984 C958.79909721 1748.23559751 957.45632035 1748.22640733 956.11356667 1748.21482578 C952.40826773 1748.19055076 948.70389371 1748.20381184 944.9985996 1748.22299331 C940.97348737 1748.23727169 936.94852918 1748.21688624 932.92344421 1748.20086747 C925.86388753 1748.17761592 918.80460126 1748.17680649 911.74502373 1748.19055939 C901.24738444 1748.21095511 890.74998508 1748.19719268 880.25235614 1748.17664323 C861.50595166 1748.14112979 842.75966366 1748.14021467 824.01323764 1748.15407516 C807.60760078 1748.16616592 791.20200834 1748.16755996 774.79636955 1748.15816689 C773.70930178 1748.15756345 772.622234 1748.15696001 771.50222478 1748.15633829 C767.08975513 1748.1538886 762.67728551 1748.15140702 758.26481591 1748.148866 C716.84816932 1748.12528493 675.4315992 1748.13755906 634.0149589 1748.16521151 C597.19863848 1748.18955193 560.38247013 1748.17992206 523.56616211 1748.14233398 C482.22810206 1748.10022571 440.89013037 1748.08096964 399.5520491 1748.09735852 C395.14718149 1748.09903681 390.74231386 1748.10064971 386.33744621 1748.10222816 C384.71049208 1748.10283873 384.71049208 1748.10283873 383.05067019 1748.10346162 C366.65386881 1748.10918377 350.25714094 1748.09718739 333.86035347 1748.07649803 C315.22022106 1748.05304793 296.58027598 1748.05424808 277.94015617 1748.08841117 C267.50107683 1748.10682919 257.06242026 1748.10584128 246.62336152 1748.07723796 C239.65745843 1748.06008357 232.69188611 1748.06821173 225.72602298 1748.09723231 C221.75220607 1748.11307296 217.77922525 1748.11770229 213.80544276 1748.09174504 C210.19242594 1748.06837356 206.5809762 1748.07702429 202.9680619 1748.11157221 C201.051905 1748.12155145 199.13566405 1748.09709616 197.21965376 1748.07137802 C190.56369593 1748.17242798 186.89414992 1748.611906 182.97390693 1754.26463516 Z " fill="#1E2A33" transform="translate(876,46)"/>
<path d="M0 0 C1.17137306 -0.00327219 2.34274611 -0.00654439 3.54961532 -0.00991574 C5.46994055 -0.0076903 5.46994055 -0.0076903 7.42906022 -0.00541991 C8.81370875 -0.00737387 10.19835671 -0.00976311 11.58300382 -0.01254788 C15.39968643 -0.01894553 19.21634799 -0.01910969 23.03303495 -0.01827047 C27.18107816 -0.01844002 31.32911385 -0.0243467 35.4771533 -0.02951133 C43.70974743 -0.03883911 51.94233618 -0.04275968 60.17493494 -0.0450303 C70.03406705 -0.04799194 79.89319202 -0.05668917 89.75232038 -0.06544458 C113.58455695 -0.08629236 137.41679477 -0.0967596 161.24903833 -0.10557419 C172.52381342 -0.10978052 183.79858798 -0.11500255 195.07336262 -0.12025872 C233.66868812 -0.13814986 272.26401378 -0.15314554 310.85934281 -0.16057891 C313.28256896 -0.16105366 315.7057951 -0.16152955 318.12902124 -0.16200657 C319.33072422 -0.16224294 320.5324272 -0.16247932 321.77054541 -0.16272286 C327.85896845 -0.16392406 333.94739149 -0.16513951 340.03581452 -0.16636485 C341.24408097 -0.166605 342.45234741 -0.16684515 343.69722799 -0.16709258 C382.86629561 -0.17498434 422.03533295 -0.19841317 461.20438735 -0.23092079 C502.61628191 -0.26522706 544.02815876 -0.28493082 585.44006777 -0.28822315 C589.98724469 -0.28864068 594.53442161 -0.28912025 599.08159852 -0.28964633 C600.76106216 -0.28983111 600.76106216 -0.28983111 602.47445435 -0.29001964 C620.4851727 -0.29235075 638.49585585 -0.30800586 656.50656166 -0.32848817 C674.61542557 -0.34875515 692.72424723 -0.35421935 710.83312038 -0.34471754 C721.58730273 -0.33950588 732.34134435 -0.34536427 743.09550641 -0.36725221 C750.2867005 -0.38078041 757.47779794 -0.37966546 764.66899304 -0.36685025 C768.76148554 -0.35996706 772.8537094 -0.35923754 776.94617769 -0.37641034 C812.6539253 -0.5169804 842.22172643 6.40704777 868.6378653 32.19130117 C891.09148165 54.78726324 906.1423254 88.63012489 906.2158072 120.68295461 C906.22026388 121.77543493 906.22026388 121.77543493 906.2248106 122.88998556 C906.2334342 125.31375956 906.23500048 127.73748379 906.23649812 130.16127187 C906.24113103 131.90647658 906.24615633 133.65168029 906.25154328 135.39688283 C906.26462946 140.12893058 906.27110562 144.86096417 906.27555394 149.59302717 C906.27849266 152.55695659 906.2825991 155.52088221 906.28705812 158.4848097 C906.30072723 167.77958016 906.310395 177.07434186 906.31426001 186.36912167 C906.31873012 197.05757304 906.33623173 207.74589586 906.3652606 218.43430817 C906.38697544 226.72086427 906.3969696 235.00738447 906.39830112 243.29396868 C906.39934278 248.23081313 906.40511202 253.16753666 906.42312074 258.10435086 C906.43977029 262.75918288 906.44167633 267.4138053 906.43298173 272.06865674 C906.43222011 273.76235567 906.436436 275.45606667 906.44643998 277.14973623 C906.65350971 314.44201428 893.15102043 349.25491171 867.0753653 376.12880117 C846.52286382 396.75120912 819.22268088 407.19066612 790.31757414 407.26559097 C788.43356443 407.26293676 788.43356443 407.26293676 786.51149392 407.26022893 C785.14070589 407.26188095 783.76991832 407.26396832 782.39913154 407.26644903 C778.63491117 407.27199474 774.87071365 407.27134713 771.10649052 407.26967144 C767.01008937 407.26893862 762.91369457 407.27396733 758.81729615 407.27824646 C750.69369662 407.28581773 742.57010366 407.28801908 734.44650098 407.28857552 C724.71535915 407.28949002 714.98422339 407.29616015 705.25308418 407.30292234 C681.7338829 407.31897593 658.21468227 407.32488492 634.6954765 407.32967109 C623.5671588 407.33200771 612.43884162 407.33561044 601.31052433 407.33936647 C563.20979019 407.35220149 525.10905634 407.36292065 487.00832009 407.36636907 C484.6169455 407.3665907 482.22557091 407.36681248 479.83419632 407.36703442 C477.43707843 407.36725506 475.03996054 407.36747554 472.64284265 407.36769587 C467.83389187 407.36813842 463.02494109 407.36858553 458.2159903 407.36903554 C457.02365171 407.36914493 455.83131311 407.36925432 454.60284304 407.36936703 C415.94583829 407.37299723 377.2888523 407.38891615 338.63185474 407.41222591 C297.75203905 407.43683088 256.87223408 407.45054222 215.99241078 407.45173699 C211.50339842 407.45190844 207.01438606 407.45212386 202.5253737 407.45237142 C201.4200697 407.45242719 200.31476571 407.45248296 199.17596765 407.45254041 C181.40086678 407.45369028 163.62578517 407.46470685 145.8506908 407.47925847 C127.97854369 407.49363636 110.10642124 407.49685315 92.23426993 407.4888185 C81.62250033 407.48436833 71.01081043 407.4881983 60.39905133 407.504057 C53.30161298 407.51383098 46.20423027 407.51260572 39.10679239 407.50262077 C35.06875691 407.49724617 31.03087413 407.49646195 26.99285151 407.50912949 C-13.04105808 407.62686152 -13.04105808 407.62686152 -29.6746347 401.00380117 C-30.45065032 400.70522207 -31.22666595 400.40664296 -32.0261972 400.09901601 C-60.97435096 388.50195851 -83.42878958 364.10896424 -95.92951751 335.85780507 C-107.73233523 307.50138722 -108.24143037 278.52083333 -108.1932857 248.25861531 C-108.18814413 244.00261365 -108.1929394 239.74661967 -108.19605803 235.49061757 C-108.19967432 228.34981381 -108.19496056 221.2090517 -108.18537688 214.06825429 C-108.17449689 205.86801546 -108.17802414 197.66787617 -108.18902969 189.46763974 C-108.19816982 182.36718642 -108.1993553 175.26676268 -108.19415236 168.16630536 C-108.19106928 163.95174072 -108.19052032 159.7372225 -108.19722533 155.52266103 C-108.2566346 112.30775709 -108.2566346 112.30775709 -103.7996347 94.56630117 C-103.59008147 93.71116933 -103.38052825 92.8560375 -103.16462493 91.97499257 C-95.01936457 60.60001519 -75.58331465 31.47104294 -47.51399016 14.77113515 C-44.68538031 13.15162193 -41.81728983 11.63174654 -38.9246347 10.12880117 C-38.01326751 9.64669179 -37.10190032 9.16458242 -36.16291595 8.66786367 C-25.29757045 3.30827621 -12.10457433 0.00888249 0 0 Z M2.04927224 110.39343633 C0.89466089 112.45079096 -0.08011566 114.35678694 -0.7371347 116.62880117 C-0.94983001 117.31973867 -1.16252532 118.01067617 -1.38166595 118.72255117 C-2.57661273 124.01814269 -3.05004548 129.21583502 -3.05834746 134.63583547 C-3.06261245 135.90154378 -3.06687743 137.16725209 -3.07127166 138.47131521 C-3.07092222 139.85624871 -3.07046073 141.24118219 -3.06989837 142.62611562 C-3.0728937 144.09858963 -3.07629708 145.57106285 -3.08007598 147.04353505 C-3.08888224 151.02920628 -3.09125267 155.01485601 -3.09189177 159.00053602 C-3.09260419 161.49470616 -3.09474217 163.98887089 -3.09738898 166.48303968 C-3.1066313 175.19593699 -3.11072527 183.90881904 -3.10993743 192.62172109 C-3.10933697 200.72474712 -3.1198855 208.82770651 -3.13568109 216.93071568 C-3.14878558 223.90335773 -3.15412011 230.87597808 -3.15348202 237.84863234 C-3.15322788 242.00606979 -3.15603228 246.16344797 -3.16666007 250.32087308 C-3.17639012 254.23367244 -3.17638684 258.14635647 -3.16914344 262.05916005 C-3.16810366 263.48853075 -3.17042407 264.91790882 -3.1765039 266.34726697 C-3.21535869 276.12133005 -3.14308999 285.73304019 1.5128653 294.56630117 C1.92407624 295.3693871 2.33528718 296.17247304 2.75895905 296.99989492 C4.09001291 299.15248943 5.09376106 300.55856803 7.0753653 302.12880117 C9.58871097 302.58171227 9.58871097 302.58171227 12.47449976 302.510602 C13.60493679 302.51939368 14.73537383 302.52818536 15.90006652 302.53724346 C17.77478909 302.52885206 17.77478909 302.52885206 19.68738484 302.52029115 C21.02783158 302.52493481 22.3682743 302.5308901 23.70870999 302.53804359 C27.41661457 302.55396478 31.12430781 302.55104713 34.83223332 302.54521064 C38.85692595 302.54212568 42.88156289 302.55628691 46.90623373 302.56826985 C54.89957634 302.58930386 62.89285547 302.59411431 70.88622254 302.59406711 C80.45601066 302.59475809 90.02574644 302.61271686 99.59551424 302.63104012 C120.53315186 302.6703627 141.47077392 302.68556426 162.40844316 302.69495773 C163.49343436 302.6954454 164.57842555 302.69593307 165.69629526 302.69643551 C166.78340242 302.69692061 167.87050959 302.69740571 168.99055939 302.69790551 C181.02345629 302.70355258 193.05634805 302.71418345 205.08924127 302.72494107 C241.41441023 302.75684168 277.73957413 302.78352405 314.06475759 302.7896927 C315.8085015 302.78999825 315.8085015 302.78999825 317.58747257 302.79030998 C322.29881482 302.79113341 327.01015707 302.79193731 331.72149932 302.79273897 C335.26775869 302.79334414 338.81401805 302.79395793 342.36027741 302.79457265 C344.11800487 302.79486877 344.11800487 302.79486877 345.91124196 302.79517087 C383.92323835 302.80180255 421.93509366 302.84206481 459.94703971 302.90277816 C500.11202729 302.96681331 540.27693514 303.00203144 580.44197553 303.00352013 C584.84799772 303.00378842 589.25401988 303.00417058 593.66004205 303.00463468 C594.74497114 303.00473456 595.82990022 303.00483444 596.94770595 303.00493735 C614.43378795 303.00721118 631.91973412 303.0356811 649.40577152 303.07334105 C666.96929336 303.11048553 684.53263461 303.11804981 702.09618274 303.09535178 C712.53976227 303.0827115 722.98276908 303.09241426 733.42627738 303.13377113 C740.39522118 303.15917417 747.36375815 303.1557167 754.33269399 303.12842818 C758.30838156 303.11368797 762.28296339 303.11179133 766.25856499 303.14490297 C769.87334744 303.17475644 773.48611476 303.16800189 777.10082075 303.13164495 C779.01788362 303.12190877 780.93502189 303.15155847 782.85185733 303.1826503 C788.94919071 303.20017989 788.94919071 303.20017989 794.14044764 300.42262671 C801.46475109 290.97004821 801.51679466 280.80484281 801.47941804 269.31874257 C801.48512857 267.72936699 801.49209546 266.13999549 801.50021577 264.55063039 C801.51808802 260.25504756 801.51698989 255.95966967 801.51127338 251.66406089 C801.50817258 248.06836136 801.51428396 244.47270069 801.52031213 240.87700671 C801.53433659 232.38896491 801.53281372 223.90102379 801.52141023 215.41298085 C801.509934 206.67818752 801.52400106 197.94370141 801.5508067 189.20894855 C801.57301293 181.68931491 801.57958993 174.16977736 801.57373029 166.65011328 C801.57037091 162.16789393 801.57270753 157.68587141 801.58998132 153.20367986 C801.60552688 148.98622343 801.60141129 144.76921957 801.58267617 140.55178052 C801.57901108 139.01156428 801.58203751 137.47131393 801.59256196 135.93112928 C801.65900293 125.39672009 801.12933527 114.82571417 793.92682137 106.42968823 C789.74097481 103.48859028 784.12517046 104.31669398 779.21725011 104.37096101 C777.87446252 104.36439868 776.53168565 104.3552085 775.18893197 104.34362695 C771.48363304 104.31935193 767.77925901 104.332613 764.07396491 104.35179448 C760.04885267 104.36607286 756.02389449 104.3456874 751.99880952 104.32966864 C744.93925284 104.30641708 737.87996656 104.30560765 730.82038903 104.31936055 C720.32274975 104.33975628 709.82535039 104.32599384 699.32772145 104.30544439 C680.58131696 104.26993096 661.83502897 104.26901584 643.08860295 104.28287633 C626.68296608 104.29496708 610.27737364 104.29636112 593.87173486 104.28696805 C592.78466708 104.28636462 591.69759931 104.28576118 590.57759008 104.28513946 C586.16512044 104.28268977 581.75265081 104.28020819 577.34018122 104.27766716 C535.92353463 104.2540861 494.5069645 104.26636023 453.0903242 104.29401267 C416.27400378 104.31835309 379.45783543 104.30872323 342.64152741 104.27113515 C301.30346737 104.22902688 259.96549568 104.20977081 218.62741441 104.22615969 C214.2225468 104.22783797 209.81767916 104.22945088 205.41281152 104.23102933 C203.78585739 104.23163989 203.78585739 104.23163989 202.1260355 104.23226279 C185.72923411 104.23798494 169.33250624 104.22598856 152.93571877 104.2052992 C134.29558637 104.1818491 115.65564128 104.18304925 97.01552147 104.21721234 C86.57644214 104.23563035 76.13778556 104.23464245 65.69872682 104.20603913 C58.73282373 104.18888474 51.76725141 104.19701289 44.80138828 104.22603347 C40.82757138 104.24187413 36.85459055 104.24650346 32.88080806 104.22054621 C29.26779124 104.19717473 25.6563415 104.20582545 22.0434272 104.24037338 C20.1272703 104.25035262 18.21102935 104.22589732 16.29501906 104.20017919 C9.63906124 104.30122914 5.96951522 104.74070717 2.04927224 110.39343633 Z " fill="#F5A474" transform="translate(1056.924634695053,1689.8711988329887)"/>
<path d="M0 0 C1.2865724 -0.00175304 2.57314479 -0.00350607 3.89870423 -0.00531223 C7.44187927 -0.00999674 10.9850283 -0.00855551 14.52820453 -0.00603446 C18.39369296 -0.00439029 22.25917607 -0.00855138 26.12466276 -0.01194364 C32.89043948 -0.01708123 39.65620905 -0.0185177 46.42198753 -0.01748753 C56.48342662 -0.01595931 66.54485782 -0.02013161 76.60629537 -0.02536215 C95.62405704 -0.0350228 114.641816 -0.03784591 133.65957983 -0.03841921 C148.34824455 -0.03887911 163.03690821 -0.04093931 177.72557259 -0.04411983 C181.95678532 -0.04501741 186.18799806 -0.04590722 190.41921079 -0.04679471 C191.99713786 -0.04712628 191.99713786 -0.04712628 193.60694225 -0.04746456 C223.18814145 -0.05361698 252.76934029 -0.0575653 282.35054016 -0.05712128 C284.02276081 -0.05709791 284.02276081 -0.05709791 285.72876369 -0.05707407 C291.37884412 -0.05699096 297.02892455 -0.05689192 302.67900498 -0.05678936 C303.80109067 -0.05676942 304.92317635 -0.05674947 306.07926463 -0.05672892 C308.34839427 -0.05668848 310.61752391 -0.05664669 312.88665356 -0.05660353 C348.18733032 -0.05599083 383.48799748 -0.06349705 418.78867149 -0.07717609 C458.46750376 -0.09254542 498.14632972 -0.10114181 537.82516515 -0.10021287 C542.05826402 -0.10013824 546.29136288 -0.10008954 550.52446175 -0.10005856 C552.08785519 -0.10004107 552.08785519 -0.10004107 553.68283235 -0.10002324 C570.43556934 -0.0999925 587.18829798 -0.10637086 603.94103249 -0.11499082 C620.78535335 -0.1234785 637.62966202 -0.12444851 654.47398384 -0.1178815 C664.47233975 -0.11419337 674.47065854 -0.11599615 684.4690105 -0.12582384 C691.1586652 -0.13184202 697.84829314 -0.13050802 704.53794663 -0.12335334 C708.34214204 -0.11948733 712.14626585 -0.11865101 715.9504561 -0.12681069 C756.61573374 -0.20833818 756.61573374 -0.20833818 772.40146446 4.37863445 C773.17699669 4.59479412 773.95252892 4.81095379 774.75156212 5.03366375 C806.25048771 14.14049598 831.640666 36.28476612 847.47177696 64.6091032 C858.91590467 86.53129589 861.68030651 108.93009685 861.67172813 133.26388836 C861.67472576 134.97189691 861.67812966 136.67990479 861.68190575 138.3879118 C861.69068976 142.99982868 861.69308152 147.61172697 861.69372153 152.22365141 C861.69443536 155.11389035 861.69657597 158.00412466 861.69921875 160.89436245 C861.70845451 171.00289233 861.71255596 181.11140908 861.7117672 191.21994305 C861.71116728 200.60099327 861.72170683 209.98198584 861.73751086 219.36302149 C861.75064447 227.45091825 861.75594864 235.5387963 861.75531179 243.62670362 C861.75505845 248.44214274 861.75781756 253.25753058 861.76848984 258.07295895 C861.77826909 262.6087968 861.7781837 267.14453537 861.77097321 271.68037701 C861.76993937 273.33095605 861.77221739 274.98154161 861.77833366 276.63210964 C861.8274415 290.8206345 861.12688799 305.07822285 857.27646446 318.81613445 C857.06030479 319.60520184 856.84414513 320.39426922 856.62143517 321.20724773 C848.15412769 351.00130293 827.6136048 376.4820398 800.86240196 391.8747282 C776.634167 405.29087049 753.54032976 407.58885998 726.34696718 407.51403712 C722.34406992 407.50637153 718.34120725 407.51622855 714.33831501 407.52376711 C707.33450014 407.53456599 700.33075473 407.53429585 693.32693672 407.52662563 C682.91179884 407.51525067 672.49671926 407.52109367 662.08158174 407.53025055 C643.47723101 407.5460291 624.87291123 407.54468605 606.26855758 407.53601382 C589.98740693 407.52846195 573.70626762 407.52649947 557.42511559 407.53008175 C556.34441423 407.5303109 555.26371288 407.53054006 554.150263 407.53077616 C549.76315109 407.5317102 545.37603918 407.5326654 540.98892727 407.53365545 C499.84915243 407.54282884 458.70939728 407.53451778 417.56962548 407.51836476 C381.03341803 407.50412835 344.49724195 407.50540225 307.96103477 407.51974773 C266.89566027 407.53581771 225.83030317 407.54217823 184.76492596 407.53291094 C180.38588842 407.53194882 176.00685088 407.53101029 171.62781334 407.53008175 C170.54961244 407.52984452 169.47141154 407.52960728 168.36053788 407.52936286 C152.09112476 407.52595296 135.82172423 407.52993659 119.55231285 407.53752041 C101.05002804 407.54610215 82.54777897 407.54394521 64.04549861 407.52767818 C53.69523656 407.51887807 43.34505193 407.51828164 32.99479191 407.5296167 C26.07573705 407.53635731 19.1567441 407.53213288 12.23769839 407.51910239 C8.29921543 407.51198626 4.36088597 407.50948357 0.42240798 407.52032034 C-29.61600626 407.59697447 -29.61600626 407.59697447 -42.47353554 404.12863445 C-43.71222846 403.80275988 -43.71222846 403.80275988 -44.97594547 403.47030199 C-75.03681873 394.77763911 -100.83871991 374.0521509 -116.47353554 347.12863445 C-117.00575722 346.21235271 -117.00575722 346.21235271 -117.54873085 345.27756023 C-122.01769234 337.40220196 -125.2909955 329.37689406 -127.84853554 320.69113445 C-128.0872538 319.89441326 -128.32597206 319.09769207 -128.57192421 318.27682781 C-132.43937336 304.20155083 -132.77133543 289.6239132 -132.7323246 275.12863445 C-132.7350436 273.40003596 -132.73860956 271.67143863 -132.74294472 269.94284344 C-132.75196311 265.30233123 -132.74856864 260.66190921 -132.74218655 256.02139568 C-132.73707126 251.13135848 -132.74183318 246.24132826 -132.74495888 241.3512907 C-132.74858258 233.14424556 -132.74384156 224.93723659 -132.73427773 216.73019695 C-132.72339628 207.28425987 -132.72692299 197.83840917 -132.73793054 188.39247417 C-132.74704914 180.23651174 -132.74826646 172.08057508 -132.7430532 163.92460918 C-132.7399585 159.07349516 -132.73945445 154.22242155 -132.74612617 149.37131023 C-132.75196604 144.80747783 -132.7477833 140.24375522 -132.73633766 135.6799345 C-132.73372617 134.01967837 -132.73439479 132.35941275 -132.73886299 130.69916058 C-132.77436997 116.1478231 -132.04984543 101.59320287 -127.84853554 87.56613445 C-127.46266273 86.2515324 -127.46266273 86.2515324 -127.06899452 84.91037273 C-124.47305506 76.47414501 -120.86673555 68.76641396 -116.47353554 61.12863445 C-115.60728554 59.62236492 -115.60728554 59.62236492 -114.72353554 58.0856657 C-104.94995917 42.04523597 -92.05690613 29.39238055 -76.47353554 19.12863445 C-75.50673866 18.48925945 -74.53994179 17.84988445 -73.54384804 17.19113445 C-62.21964227 10.16448046 -49.7192063 5.55117579 -36.72353554 2.75363445 C-36.00480263 2.59806072 -35.28606972 2.44248699 -34.54555702 2.28219891 C-23.19226394 0.05982514 -11.5291036 -0.02024623 0 0 Z M-23.41103554 110.94113445 C-26.87478053 116.29419489 -27.72361267 120.84797153 -27.73423195 127.17425823 C-27.7380575 127.85977705 -27.74188304 128.54529587 -27.74582452 129.25158799 C-27.75609795 131.5360408 -27.75217323 133.8202396 -27.74819374 136.10470867 C-27.75254338 137.74776726 -27.75772736 139.39082382 -27.76368141 141.03387737 C-27.77705618 145.48848553 -27.77765173 149.94300876 -27.77511811 154.39763308 C-27.77404729 158.12020871 -27.77893468 161.84276724 -27.78372353 165.56533921 C-27.79481363 174.34995979 -27.79525904 183.13453761 -27.78920937 191.9191618 C-27.78317031 200.97256587 -27.79547998 210.02581449 -27.81677943 219.07919204 C-27.83441049 226.86027543 -27.84039439 234.64130941 -27.83714169 242.42241204 C-27.83533096 247.06607454 -27.83794398 251.70962617 -27.85185623 256.35327053 C-27.8644543 260.72162575 -27.8624718 265.08973917 -27.84944534 269.45809078 C-27.84708425 271.05761835 -27.84979746 272.65716303 -27.85806847 274.25667095 C-28.41249299 286.87796494 -28.41249299 286.87796494 -22.98224092 297.74294259 C-16.86092737 302.92629734 -11.41991618 302.9732351 -3.62388706 302.87809467 C-2.33190111 302.88621612 -1.03991516 302.89433758 0.29122189 302.90270513 C3.8777963 302.92439717 7.4633828 302.9087678 11.04992111 302.88703706 C14.95151605 302.87000973 18.85297793 302.8878056 22.75456566 302.90116537 C29.59267255 302.91976208 36.43048555 302.91603462 43.26858902 302.89770031 C53.43690452 302.87051185 63.60499405 302.87762764 73.77332589 302.89161752 C91.93266916 302.9154827 110.09187368 302.90529174 128.2512093 302.88106097 C144.14195734 302.86000121 160.03265807 302.85090837 175.92341995 302.853652 C176.97686406 302.85382006 178.03030817 302.85398812 179.11567483 302.85416128 C183.39177254 302.85486575 187.66787024 302.85563377 191.94396792 302.85649243 C232.06844857 302.86442508 272.19284556 302.83897451 312.31730227 302.79743931 C347.97941064 302.7606969 383.64143881 302.74907519 419.30356407 302.75998211 C421.59350753 302.76067498 423.88345099 302.76136717 426.17339445 302.76205869 C427.30548961 302.76240068 428.43758477 302.76274267 429.60398585 302.76309502 C435.3025923 302.76480206 441.00119877 302.76644964 446.69980526 302.76803303 C448.3861124 302.76850427 448.3861124 302.76850427 450.10648635 302.76898503 C479.89070464 302.77696162 509.67491519 302.76601878 539.4591288 302.74901044 C542.66318631 302.74719634 545.86724382 302.74538503 549.07130133 302.74357998 C551.19685818 302.74237776 553.32241503 302.74116052 555.44797186 302.73992816 C570.27782334 302.73147914 585.10765964 302.73033152 599.93751274 302.73413915 C619.04613354 302.73902083 638.154673 302.73091589 657.26327152 302.69971915 C667.37322643 302.68359491 677.48304588 302.67843301 687.59300892 302.68900386 C694.34069319 302.69494455 701.08825741 302.68639701 707.83591296 302.66590671 C711.68406366 302.65462176 715.53193756 302.64969149 719.38009066 302.66223986 C723.52119138 302.67558112 727.66158638 302.65816358 731.80265713 302.63758564 C733.00288813 302.64637861 734.20311914 302.65517158 735.43972078 302.664231 C742.01884177 302.60152884 746.21758919 302.13967262 751.52646446 298.12863445 C756.02349617 292.44817335 756.64965875 288.42518882 756.66690636 281.32351971 C756.66987748 280.63970974 756.6728486 279.95589977 756.67590976 279.25136828 C756.68457903 276.9607701 756.68610351 274.6702243 756.68759727 272.37961102 C756.69222673 270.73684865 756.69725156 269.09408736 756.70264244 267.45132732 C756.71575674 262.98835986 756.72220958 258.52540743 756.7266531 254.06242371 C756.72958557 251.27296592 756.73369072 248.48351223 756.73815727 245.69405651 C756.75183004 236.96313282 756.76149761 228.2322185 756.76535916 219.50128484 C756.76983863 209.42905555 756.78738231 199.35696206 756.81635976 189.28477407 C756.83799065 181.49524574 756.84806421 173.70575558 756.84940028 165.91619754 C756.85044736 161.26578821 756.85633438 156.61550656 756.87421989 151.9651289 C756.89072477 147.58860647 756.89284438 143.21230738 756.88408089 138.83576488 C756.88331179 137.23300865 756.88763643 135.63024029 756.89753914 134.02751446 C757.25376639 120.56084525 757.25376639 120.56084525 750.77646446 109.25363445 C743.51516096 104.50585909 736.37719473 104.84289155 727.94600677 104.87415886 C726.03345045 104.86934914 726.03345045 104.86934914 724.08225662 104.86444226 C720.53884619 104.85582046 716.99554166 104.85964944 713.4521296 104.86549798 C709.59874029 104.86966629 705.74537038 104.86226747 701.89198577 104.85634547 C695.1369287 104.84757627 688.38190194 104.84627392 681.62684059 104.84984875 C671.58182027 104.85515065 661.53682935 104.84906562 651.49181223 104.84076581 C632.50882403 104.82551253 613.52584915 104.8238221 594.54285611 104.82628884 C579.88586954 104.82812037 565.22888734 104.82636485 550.57190132 104.8220644 C548.4673309 104.821462 546.36276048 104.82086081 544.25819006 104.8202608 C541.08693841 104.81935356 537.91568676 104.81844489 534.74443511 104.81752845 C505.25361663 104.80909689 475.7627998 104.80476463 446.27198029 104.80893517 C445.15985845 104.80909154 444.04773661 104.80924792 442.90191411 104.80940903 C437.2650365 104.81021483 431.62815889 104.81106061 425.99128129 104.81192233 C424.87174781 104.81209342 423.75221434 104.81226451 422.59875561 104.81244078 C420.33478638 104.81278744 418.07081715 104.81313597 415.80684792 104.81348637 C380.57454224 104.81884433 345.34226157 104.81091186 310.10996056 104.79245281 C270.54042073 104.77174574 230.97089641 104.76100761 191.40135086 104.7650283 C187.18378695 104.76542365 182.96622304 104.7657852 178.74865913 104.76612568 C177.71016228 104.76621641 176.67166543 104.76630714 175.60169898 104.76640062 C159.91159685 104.76756752 144.22151035 104.76091129 128.53141212 104.75031376 C110.69149725 104.73827659 92.85161685 104.73668569 75.01170148 104.74910393 C65.0243832 104.75574454 55.03714731 104.75407382 45.04983558 104.74051541 C38.38132796 104.73229111 31.71288226 104.7349421 25.04437971 104.74649068 C21.24309305 104.75276718 17.44196754 104.75429638 13.64068998 104.74262735 C9.54653189 104.7301747 5.45276065 104.74089498 1.35860443 104.75390434 C-0.41263114 104.74294032 -0.41263114 104.74294032 -2.21964926 104.73175481 C-9.78591262 104.78181873 -18.00698494 104.95028447 -23.41103554 110.94113445 Z " fill="#F5A474" transform="translate(1083.4735355377197,922.8713655471802)"/>
</svg>
