<?xml version="1.0" encoding="UTF-8"?>
<svg version="1.1" xmlns="http://www.w3.org/2000/svg" width="2134" height="2134">
<path d="M0 0 C15.94048996 -0.00134218 31.88097947 -0.00323539 47.82146913 -0.00665933 C48.60987257 -0.00682772 49.39827601 -0.00699612 50.21057046 -0.00716962 C53.38748226 -0.00784871 56.56439406 -0.00853054 59.74130586 -0.00921361 C89.2891708 -0.01555038 118.83703211 -0.01813302 148.38489753 -0.01354825 C151.22687576 -0.01311569 154.06885399 -0.01269041 156.91083223 -0.01226884 C157.95698126 -0.01210942 157.95698126 -0.01210942 159.02426463 -0.01194677 C169.34116821 -0.0104359 179.65806923 -0.01148452 189.97497255 -0.01402742 C201.48262425 -0.01686075 212.99026968 -0.01610304 224.49792067 -0.01084474 C230.28174576 -0.00828524 236.06555954 -0.00719211 241.84938449 -0.01055998 C281.23758942 -0.03113034 281.23758942 -0.03113034 298.98965829 0.39428718 C300.95296282 0.44005897 302.91651094 0.47501118 304.88004959 0.50930029 C327.35063583 1.16750603 347.11859494 7.50016414 362.96179277 24.04398841 C383.268226 47.01782359 389.25408604 79.5329852 388.97351152 109.24711341 C388.96603395 110.61732138 388.96603395 110.61732138 388.95840532 112.01521033 C388.71509344 151.14100772 385.60925795 190.17590485 382.63757402 229.16898841 C382.52793758 230.61152476 382.52793758 230.61152476 382.41608626 232.08320326 C378.61406442 282.09894677 374.38813635 332.07932287 370.17352754 382.06159991 C367.4743215 414.07376113 364.79418232 446.08750689 362.12976152 478.10258216 C362.06924626 478.82966659 362.00873101 479.55675103 361.94638196 480.30586833 C357.45531915 534.27194458 353.12979573 588.24932167 349.03601152 642.24711341 C348.9672698 643.15326958 348.89852809 644.05942576 348.8277033 644.99304122 C346.72594832 672.7008461 344.65583813 700.41097815 342.59851152 728.12211341 C342.46162838 729.9654237 342.32474175 731.80873374 342.18785173 733.65204352 C341.48860341 743.06830549 340.7896708 752.48459087 340.09094316 761.90089148 C338.76717089 779.7404764 337.4428523 797.58002052 336.11657602 815.41941947 C335.91186536 818.17312781 335.70722088 820.92684107 335.50257951 823.68055457 C329.09614701 909.87100852 322.60548263 996.07984704 298.47351152 1222.18461341 C298.24510576 1223.94093589 298.24510576 1223.94093589 298.01208574 1225.73273963 C295.02672348 1248.54343293 291.53461684 1271.71173002 283.91101152 1293.49711341 C283.48876298 1294.72913489 283.06651445 1295.96115638 282.6314705 1297.23051184 C273.00199001 1324.82679512 258.41832101 1349.43728474 238.63757402 1370.89555091 C236.7750977 1372.92928942 234.99766594 1375.01162639 233.22351152 1377.12211341 C202.86399678 1411.69056086 148.47381773 1442.24158211 102.46817857 1445.26197547 C96.79849052 1445.53264139 91.1249217 1445.62249686 85.45007402 1445.71586341 C83.55664378 1445.75286117 81.66322149 1445.79026699 79.76980668 1445.82804602 C57.74575131 1446.24911626 35.71803446 1446.43207524 13.69083482 1446.59463614 C9.85323226 1446.62300247 6.01563616 1446.65214724 2.17804033 1446.68140906 C-13.89200029 1446.80341953 -29.96209576 1446.91621681 -46.03223532 1447.02434748 C-54.05336353 1447.07839729 -62.07448057 1447.13361601 -70.09558028 1447.19175452 C-161.10809717 1447.85134308 -252.12014809 1448.17770592 -397.17364663 1448.24422681 C-407.25228662 1448.24582155 -417.33092496 1448.24875301 -427.4095642 1448.25293934 C-490.91392529 1448.27926622 -554.41996445 1448.29008716 -617.92312354 1447.85010642 C-622.70238478 1447.8171436 -627.4816145 1447.79012967 -632.26094168 1447.76884574 C-705.70927035 1447.42590116 -760.3218934 1427.48172885 -814.40148848 1376.12211341 C-815.22906661 1375.33707434 -816.05664473 1374.55203528 -816.90930098 1373.74320716 C-822.55938192 1368.24077641 -827.5208387 1362.30978465 -832.40148848 1356.12211341 C-833.18266036 1355.15789466 -833.96383223 1354.19367591 -834.76867598 1353.20023841 C-851.77185366 1331.79687737 -864.25420454 1307.80556403 -873.40148848 1282.12211341 C-873.7060295 1281.27536048 -874.01057051 1280.42860755 -874.32434005 1279.55619544 C-877.58779003 1270.28277301 -879.74629264 1261.15936886 -880.83117598 1251.38773841 C-880.95365706 1250.32356696 -881.07613814 1249.25939551 -881.20233077 1248.16297644 C-883.0572307 1231.71250097 -884.61285467 1215.22960244 -886.15148848 1198.74711341 C-886.23767062 1197.82557093 -886.32385276 1196.90402846 -886.41264647 1195.95456046 C-891.60287472 1140.34947629 -895.23491295 1084.639992 -898.94871444 1028.92086524 C-903.49306034 960.74731496 -908.11805813 892.5825261 -932.36958486 612.00497973 C-933.74497798 597.13264312 -935.11776929 582.26006683 -936.48800772 567.38725442 C-936.63857796 565.75306783 -936.7891809 564.11888426 -936.93981665 562.48470372 C-942.01512367 507.42488339 -946.66711489 452.34803773 -950.79438132 397.20797843 C-951.87212796 382.82128682 -952.9815775 368.43701744 -954.09661788 354.0531742 C-954.3399055 350.91455657 -954.58218095 347.77586354 -954.82354659 344.63709754 C-956.17878946 327.02649281 -957.61557902 309.4257943 -959.18664473 291.83305091 C-959.34002251 290.11364537 -959.49339368 288.39423924 -959.64675826 286.67483252 C-959.72277329 285.82280281 -959.79878833 284.97077309 -959.87710685 284.0929243 C-974.04984229 125.20619563 -974.04984229 125.20619563 -969.65148848 85.05961341 C-969.56423506 84.26087806 -969.47698165 83.4621427 -969.38708419 82.63920325 C-966.60284122 59.0020202 -960.09411578 35.92641626 -941.57726973 19.63773841 C-923.38100974 5.46130579 -904.2813403 2.19542662 -881.78019637 1.57244605 C-881.05331902 1.55156108 -880.32644167 1.53067611 -879.57753774 1.50915826 C-859.28805913 0.93936336 -838.99385212 0.94635076 -818.69791411 0.92150322 C-812.87993946 0.91333374 -807.06197691 0.8996787 -801.2440111 0.88680953 C-789.74968069 0.86225855 -778.25534699 0.84279342 -766.76100423 0.82507093 C-757.19976694 0.81024473 -747.63853526 0.79325494 -738.07730407 0.77492827 C-737.38525683 0.77360457 -736.69320959 0.77228086 -735.98019123 0.77091705 C-733.16076545 0.76552333 -730.34133968 0.76012394 -727.52191393 0.75471495 C-698.21934765 0.69855922 -668.91677166 0.64991579 -639.61418742 0.60421073 C-637.25540617 0.60053128 -634.89662493 0.59685168 -632.53784369 0.59317105 C-630.96097086 0.59071056 -629.38409804 0.58825112 -627.80722522 0.58579273 C-612.03035964 0.56117142 -596.25349698 0.53491406 -580.47663448 0.50840326 C-498.22924578 0.37022578 -415.98183421 0.24950661 0 0 Z " fill="#1E2A33" transform="translate(1340.4014884829521,628.8778865933418)"/>
<path d="M0 0 C1.11302703 0.85710107 2.22632172 1.71385462 3.33984375 2.5703125 C15.50118763 11.97348322 27.05610362 22.00910082 38.32055664 32.46386719 C39.59676268 33.63117179 40.88452948 34.78585173 42.17749023 35.93457031 C48.3341485 41.40851367 54.26368661 47.07741772 60.08666992 52.90136719 C61.55955972 54.3720641 63.04030265 55.83453534 64.52148438 57.296875 C70.79091964 63.52980435 76.49335484 70.08028101 82 77 C88.13483794 84.38493227 92.77559531 88.92519844 102 92 C105.07400703 92.11268658 108.1171676 92.15931879 111.19140625 92.1484375 C112.63901085 92.14521988 112.63901085 92.14521988 114.11585999 92.14193726 C126.59095433 92.05466341 139.0471505 91.41933224 151.50634766 90.83169556 C218.01373433 87.70843134 284.41944401 86.50067087 351 87 C352.31502502 87.00966797 353.63005005 87.01933594 354.98492432 87.02929688 C362.17832736 87.08690651 369.37008965 87.18128458 376.5625 87.3125 C377.35531372 87.32342682 378.14812744 87.33435364 378.96496582 87.34561157 C407.80554488 87.78255492 436.42751576 93.50712143 458 114 C458.6717627 114.63615234 459.34352539 115.27230469 460.03564453 115.92773438 C469.34157353 124.82361267 478.12467407 133.89474523 485.73779297 144.2890625 C487.04159958 146.05638875 488.37859038 147.79439123 489.72265625 149.53125 C516.26037087 184.20352363 532.80603319 228.29163153 533.25 272.125 C533.25942627 272.81190918 533.26885254 273.49881836 533.27856445 274.20654297 C533.24835359 278.84989581 532.42903623 282.63350042 531 287 C521.28157315 289.32869653 511.6494886 290.37285213 501.6875 290.9921875 C500.38457001 291.07591614 499.08164001 291.15964478 497.73922729 291.24591064 C482.90586798 292.18215872 468.05857159 292.84157167 453.21157837 293.5173645 C416.13132898 295.20868405 379.07714352 297.26770388 342.02371216 299.46481323 C319.13247053 300.82199887 296.25205901 302.13940017 273.33740234 303.02587891 C225.82153102 304.87096218 178.4982584 309.47038147 131.15805531 313.80255222 C128.96209977 314.00346762 126.76612773 314.2042019 124.57015228 314.4048996 C34.53230702 322.63531389 -55.46719507 331.25723571 -145.44967246 340.07060218 C-156.91817655 341.19386974 -168.3867719 342.31620221 -179.85546875 343.4375 C-180.93418684 343.54297181 -182.01290493 343.64844362 -183.12431145 343.75711155 C-223.77485055 347.73092351 -264.43128517 351.64199817 -305.08946157 355.53670669 C-309.94000428 356.00134963 -314.79053629 356.46610435 -319.6410656 356.93088722 C-320.44647282 357.00806186 -321.25188005 357.08523649 -322.08169355 357.16474975 C-323.71357866 357.32111818 -325.34546375 357.47748685 -326.97734881 357.63385575 C-331.08498709 358.02744988 -335.1926272 358.42102491 -339.30026722 358.81460094 C-340.95367166 358.9730238 -342.60707609 359.13144671 -344.26048052 359.28986967 C-347.58574417 359.60848354 -350.91100812 359.92709419 -354.23627222 360.24570334 C-365.99086365 361.37197375 -377.74543976 362.49840402 -389.5 363.625 C-390.33198605 363.70473791 -391.1639721 363.78447581 -392.02116984 363.86663002 C-468.74833232 371.22027739 -545.47215263 378.60297734 -622.171875 386.23828125 C-623.25795941 386.34639025 -623.25795941 386.34639025 -624.36598492 386.45668328 C-654.97915769 389.50411684 -685.59066226 392.56805231 -716.20084763 395.6453495 C-742.14047313 398.25310254 -768.08136151 400.84756529 -794.02554321 403.40962982 C-797.96988058 403.79916534 -801.91411104 404.18975592 -805.85824585 404.58133698 C-816.62562867 405.64975983 -827.39431455 406.70250854 -838.16576385 407.7291584 C-841.28962986 408.02736736 -844.41275552 408.33190643 -847.53534698 408.64317131 C-867.4282237 410.62125375 -887.02017732 411.38354304 -907 411 C-907.48336075 409.72766966 -907.96514727 408.45474121 -908.4462738 407.18156433 C-908.71473838 406.47276721 -908.98320295 405.76397009 -909.25980282 405.03369427 C-910.88654301 400.56422006 -911.92196252 395.92423851 -913.0625 391.3125 C-913.31837891 390.31283203 -913.57425781 389.31316406 -913.83789062 388.28320312 C-919.88204428 364.0599755 -920.64702453 338.91091534 -913 315 C-912.77538086 314.26571777 -912.55076172 313.53143555 -912.31933594 312.77490234 C-900.28599686 273.86360282 -873.29755349 234.90049922 -837.0534668 215.08935547 C-808.04478731 199.79572369 -776.42247947 194.20457566 -744.41094732 188.60686159 C-740.68120218 187.95283865 -736.95300155 187.29012116 -733.22463989 186.62826538 C-724.57083309 185.09342518 -715.91527558 183.56860996 -707.25950623 182.04488373 C-658.92270412 173.63488493 -658.92270412 173.63488493 -610.71875 164.5078125 C-609.95984341 164.35800556 -609.20093681 164.20819862 -608.41903305 164.05385208 C-573.13728122 158.86705978 -573.13728122 158.86705978 -544.89477539 141.46704102 C-541.08068517 135.68910346 -538.56586328 129.50236447 -536.00946045 123.08822632 C-534.71232667 119.84184749 -533.38361752 116.60846643 -532.0546875 113.375 C-531.79221222 112.73592209 -531.52973694 112.09684418 -531.25930786 111.43840027 C-516.12222821 74.72181503 -491.15575893 39.82732829 -459 16 C-458.28158936 15.46681152 -457.56317871 14.93362305 -456.82299805 14.38427734 C-450.99105027 10.1647891 -445.08175272 6.78465525 -438.5625 3.75 C-437.57515869 3.28674316 -436.58781738 2.82348633 -435.57055664 2.34619141 C-358.92014575 -33.16173271 -273.44536395 -41.93047081 -189.875 -43.5625 C-188.834505 -43.58301422 -187.79401001 -43.60352844 -186.72198486 -43.62466431 C-115.21052914 -45.00241043 -58.58658757 -45.79368875 0 0 Z " fill="#1E2A33" transform="translate(1205,159)"/>
<path d="M0 0 C1.0828125 0.00447144 1.0828125 0.00447144 2.1875 0.0090332 C2.98728271 0.00798584 3.78706543 0.00693848 4.61108398 0.00585938 C5.88640991 0.03256714 5.88640991 0.03256714 7.1875 0.05981445 C8.05383057 0.07181885 8.92016113 0.08382324 9.81274414 0.09619141 C22.07021513 0.36694107 35.43885688 2.78946211 44.6640625 11.5871582 C59.59352364 29.0814242 57.37465611 54.5060742 57.37280273 76.11083984 C57.37493593 78.8524666 57.39302089 81.59365188 57.41210938 84.33520508 C57.53367201 120.82702551 54.31358232 157.32467078 51.6405983 193.68948746 C51.27945786 198.61213381 50.92168934 203.53502325 50.5638113 208.45790768 C48.14283111 241.75031236 45.64913755 275.03645983 43.04795837 308.31526184 C41.95873511 322.2652725 40.90043256 336.21761295 39.8446846 350.1701889 C39.6885992 352.23278902 39.53240564 354.29538092 39.37619019 356.35797119 C38.19774325 371.92069163 37.02772881 387.48402967 35.8671875 403.0480957 C35.81230919 403.78398926 35.75743088 404.51988281 35.70088959 405.27807617 C35.12424274 413.01170979 34.5486051 420.74541721 33.97460938 428.47924805 C32.9310468 442.52329179 31.86878371 456.56568905 30.78515625 470.60668945 C29.00134676 493.72111443 27.256042 516.8384262 25.5124321 539.95591354 C25.24546902 543.49487883 24.97835887 547.03383299 24.71121216 550.57278442 C22.0001645 586.48652109 22.0001645 586.48652109 19.33834839 622.40393066 C15.20194719 678.74324156 10.96137148 735.08317133 6.1875 791.37231445 C6.1253405 792.10595718 6.063181 792.83959991 5.99913788 793.59547424 C1.90003915 841.97460974 -2.31166854 890.34280974 -6.698102 938.69676018 C-8.31569782 956.53383471 -9.91647044 974.37138059 -11.40234375 992.2199707 C-11.52763339 993.72297247 -11.65293341 995.22597337 -11.77824402 996.72897339 C-11.83958558 997.46491667 -11.90092714 998.20085995 -11.96412754 998.95910454 C-14.18571653 1025.61025127 -16.62286768 1052.22059057 -19.5 1078.80981445 C-19.57299946 1079.48630035 -19.64599892 1080.16278625 -19.72121048 1080.85977173 C-24.50322027 1125.13871592 -24.50322027 1125.13871592 -27.8125 1143.37231445 C-28.04948021 1144.72902829 -28.2861037 1146.08580445 -28.52246094 1147.44262695 C-37.15421045 1196.47103073 -51.24498853 1250.66995121 -93.8125 1281.37231445 C-126.55010943 1304.14597368 -162.28053714 1315.11195587 -202.0625 1314.55981445 C-203.99478099 1314.54470836 -205.92707368 1314.53103065 -207.859375 1314.51879883 C-212.51071587 1314.48633589 -217.16147095 1314.4348973 -221.8125 1314.37231445 C-221.22013202 1299.42579076 -220.45477651 1284.49722655 -219.51025391 1269.56884766 C-219.30931919 1266.38440449 -219.11348499 1263.19967256 -218.91796875 1260.01489258 C-218.78936322 1257.95823313 -218.66046809 1255.90159176 -218.53125 1253.8449707 C-218.473927 1252.90847183 -218.416604 1251.97197296 -218.35754395 1251.00709534 C-218.02153634 1245.76114978 -217.52108073 1240.58137116 -216.8125 1235.37231445 C-215.53117187 1235.21375977 -214.24984375 1235.05520508 -212.9296875 1234.8918457 C-188.22217435 1231.64464102 -166.56193875 1222.45748685 -150.87109375 1202.2355957 C-141.26818141 1188.87898328 -136.50017625 1174.80860194 -133.38671875 1158.82543945 C-133.17245743 1157.73735489 -132.95819611 1156.64927032 -132.73744202 1155.5282135 C-130.49693084 1143.99434551 -128.56273227 1132.41773793 -126.75 1120.80981445 C-126.5778598 1119.71491699 -126.4057196 1118.62001953 -126.22836304 1117.49194336 C-123.33053367 1098.94851319 -121.20895472 1080.42255046 -119.5149231 1061.73684692 C-118.64015024 1052.24144213 -117.50242065 1042.77790059 -116.375 1033.30981445 C-114.34565907 1016.15838144 -112.46356341 998.99557988 -110.6552887 981.81956482 C-110.54732468 980.79412064 -110.43936066 979.76867645 -110.328125 978.7121582 C-110.15995522 977.1139901 -110.15995522 977.1139901 -109.98838806 975.48353577 C-108.89718098 965.13372202 -107.78520743 954.78617376 -106.671875 944.4387207 C-101.85430578 899.82293642 -101.85430578 899.82293642 -97.25 855.18481445 C-95.13053129 834.06536793 -92.81111263 812.96914438 -90.48260498 791.87197876 C-87.9583813 768.9969465 -85.50960608 746.11516599 -83.12066269 723.2256279 C-80.24082688 695.63838483 -77.26163313 668.06359878 -74.1875 640.49731445 C-74.09206657 639.6414764 -73.99663315 638.78563835 -73.8983078 637.90386581 C-72.79176259 627.98304946 -71.68204428 618.06258949 -70.57071304 608.14230824 C-69.20942755 595.99029928 -67.85280824 583.83777013 -66.5 571.68481445 C-66.31624817 570.03434113 -66.31624817 570.03434113 -66.12878418 568.3505249 C-64.61280466 554.72170128 -63.13176548 541.09000298 -61.71136475 527.45089722 C-60.06253293 511.62128542 -58.35130675 495.7985306 -56.637146 479.97589111 C-56.11968633 475.19907506 -55.6029647 470.42217936 -55.08642578 465.64526367 C-54.99928944 464.83946428 -54.91215309 464.03366489 -54.82237625 463.20344734 C-54.4642188 459.89127081 -54.10608447 456.57909179 -53.74797058 453.26691055 C-52.8249674 444.7302393 -51.90172524 436.1935947 -50.97624779 427.65719128 C-45.74606309 379.41377672 -40.70609588 331.15596628 -35.94691181 282.86372662 C-35.0905113 274.17420415 -34.22553786 265.4855756 -33.35523224 256.79743576 C-30.76415534 230.91532852 -28.30500476 205.02801314 -26.0788269 179.11190796 C-24.00339651 154.98957544 -21.67361326 130.89437276 -19.31079102 106.79882812 C-19.20466334 105.71635504 -19.20466334 105.71635504 -19.09639168 104.61201382 C-18.74610635 101.04200228 -18.39443426 97.47213576 -18.04022217 93.9025116 C-17.34666908 86.90131128 -16.67269728 79.89911773 -16.0378418 72.89233398 C-13.69289246 47.17320192 -13.69289246 47.17320192 -10.875 34.49731445 C-10.48586426 32.65592896 -10.48586426 32.65592896 -10.08886719 30.77734375 C-9.34877958 27.30457208 -8.58469966 23.83806363 -7.8125 20.37231445 C-7.49998291 18.9344458 -7.49998291 18.9344458 -7.18115234 17.4675293 C-3.53894131 0.72695117 -3.53894131 0.72695117 0 0 Z " fill="#82B5C6" transform="translate(1597.8125,702.627685546875)"/>
<path d="M0 0 C14.30078703 9.75987621 22.67341143 23.62478121 25.98876953 40.57072449 C31.14206397 76.25636547 26.20570819 113.55690336 22.82311928 149.13320482 C22.170736 156.00107108 21.538743 162.87077842 20.90711188 169.74057889 C19.6137691 183.79943628 18.29333758 197.85562871 16.96405029 211.91113281 C16.39802856 217.89860531 15.83778813 223.88659394 15.28173828 229.875 C13.36322605 250.52802211 11.36745194 271.17261559 9.3125 291.8125 C9.21476036 292.79456169 9.11702072 293.77662338 9.01631927 294.78844452 C-0.72290301 392.6169507 -0.72290301 392.6169507 -5.76196289 438.85742188 C-7.33875888 453.35403166 -8.78862188 467.86020408 -10.1875 482.375 C-12.09989288 502.21442516 -14.19983499 522.02866583 -16.38671875 541.83959961 C-18.07853446 557.17322395 -19.71490438 572.51172812 -21.3140564 587.85528564 C-23.3899849 607.76838852 -25.54385502 627.67039623 -27.8125 647.5625 C-27.93947266 648.67615936 -28.06644531 649.78981873 -28.19726562 650.93722534 C-28.44902082 653.14494493 -28.70079059 655.35266285 -28.95257568 657.56037903 C-29.07392883 658.62455551 -29.19528198 659.68873199 -29.3203125 660.78515625 C-29.43957092 661.83084274 -29.55882935 662.87652924 -29.68170166 663.9539032 C-31.31923824 678.33253226 -32.87961228 692.71883222 -34.40100098 707.11016846 C-34.71323466 710.05523584 -35.02789314 713.00003866 -35.34277344 715.94482422 C-38.37461252 744.33881813 -41.18419003 772.74273527 -43.6875 801.1875 C-46.34398284 831.37274686 -49.25284241 861.52492683 -52.36328125 891.6673584 C-52.66814765 894.62476908 -52.97108254 897.58237072 -53.2734375 900.54003906 C-55.19645929 919.30453685 -57.30603076 938.01885322 -60.20068359 956.66357422 C-60.52161456 958.73948577 -60.83462948 960.81663879 -61.13916016 962.89501953 C-64.64376118 986.75489974 -70.02032381 1009.97683113 -89.6875 1025.8125 C-101.65208612 1034.49339592 -116.77101513 1040.79140788 -131.6875 1038.8125 C-145.5961041 1035.82329305 -158.65085725 1027.2552265 -166.5 1015.375 C-172.25805171 1006.19767768 -173.15304024 998.91456061 -173 988.25 C-172.99373596 987.58969788 -172.98747192 986.92939575 -172.98101807 986.24908447 C-172.56041582 942.25356588 -166.65016591 898.30486824 -161.8125 854.625 C-155.43821105 797.04756355 -150.10888562 739.3570518 -144.85964966 681.66795349 C-143.72966646 669.25161765 -142.58071074 656.83708937 -141.42593384 644.42303467 C-140.03006631 629.41515848 -138.64720122 614.40622717 -137.29296875 599.39453125 C-134.57423802 569.27006542 -131.78683885 539.15402154 -128.86901855 509.04812622 C-127.24251631 492.26310226 -125.64199317 475.47669457 -124.14501572 458.67956352 C-119.01238662 401.08816585 -113.02071244 343.60287959 -106.85154724 286.11502075 C-105.475284 273.27755346 -104.12709103 260.43791439 -102.82829475 247.59238434 C-100.91865384 228.70820678 -98.79758054 209.85135035 -96.6255188 190.99572754 C-95.53030377 181.48747828 -94.44298776 171.97832803 -93.359375 162.46875 C-93.19325305 161.01117153 -93.19325305 161.01117153 -93.0237751 159.52414703 C-91.34797885 144.80244789 -89.72510996 130.07554479 -88.140625 115.34375 C-88.03871038 114.39719795 -87.93679577 113.4506459 -87.83179283 112.47541046 C-86.85229404 103.37511731 -85.8775344 94.27434631 -84.91455364 85.17228985 C-81.77174451 55.50239029 -81.77174451 55.50239029 -80.07421875 43.98828125 C-79.9655397 43.24390808 -79.85686066 42.49953491 -79.74488831 41.73260498 C-77.2171336 25.61559626 -70.59246037 11.39549162 -57.6328125 1.1953125 C-40.47947001 -11.07451612 -17.86933791 -10.55469135 0 0 Z " fill="#82B5C6" transform="translate(1464.6875,840.1875)"/>
<path d="M0 0 C10.08104904 6.65349237 17.35059987 14.97408703 23.2890625 25.42578125 C23.7634375 26.25078125 24.2378125 27.07578125 24.7265625 27.92578125 C33.01849908 43.32509204 33.5499901 61.76039929 34.39692783 78.89397717 C34.43885458 79.71257744 34.48078133 80.53117771 34.52397859 81.37458405 C35.43104146 99.3529488 35.58296657 117.30930146 35.56460169 135.30694224 C35.56217979 139.90347867 35.57147433 144.49999661 35.57908589 149.09652537 C35.59079394 157.10853625 35.59530422 165.12052452 35.59476471 173.13254356 C35.59396338 185.04657059 35.60460263 196.96056952 35.61718028 208.87458896 C35.64176398 232.62799623 35.65068424 256.38139639 35.65571677 280.13481464 C35.65610853 281.97348992 35.65610853 281.97348992 35.65650821 283.84931016 C35.65689862 285.69194131 35.65689862 285.69194131 35.65729692 287.57179732 C35.66039047 301.24000654 35.66689851 314.90821385 35.6735096 328.57642174 C35.69313103 369.89387955 35.70955405 411.21133533 35.71238613 452.5287981 C35.71252722 454.50563061 35.71252722 454.50563061 35.71267116 456.52239912 C35.71309703 462.53149865 35.71350423 468.54059818 35.71390952 474.54969772 C35.71409112 477.22886363 35.71427601 479.90802955 35.71446159 482.58719547 C35.71455361 483.9281522 35.71464401 485.26910893 35.71473278 486.61006566 C35.71755103 529.07038725 35.73933207 571.53066148 35.77612305 613.9909668 C35.81685739 661.01037536 35.84054462 708.02976042 35.84084564 755.04918879 C35.84094246 760.06121648 35.84110918 765.07324415 35.84132576 770.08527184 C35.84136987 771.31924461 35.84141399 772.55321739 35.84145944 773.82458328 C35.8425785 793.66737588 35.85997355 813.5101221 35.88314508 833.35289976 C35.90598358 853.27930531 35.91021489 873.20564822 35.89559578 893.13206206 C35.8874464 904.96420438 35.89312872 916.7961493 35.91877663 928.62826767 C35.93453334 936.53559141 35.93204614 944.44277507 35.9148699 952.35009546 C35.90560248 956.85189454 35.90409058 961.3533135 35.92483597 965.85508285 C35.94358895 969.95947022 35.93884348 974.06316875 35.91624503 978.16753064 C35.91212699 979.63406889 35.91617302 981.10066203 35.92994272 982.56714142 C36.09946164 1001.92033542 30.21155816 1018.23171328 16.9140625 1032.36328125 C9.46373018 1039.33420088 0.93472939 1044.19432046 -8.7109375 1047.42578125 C-9.67386719 1047.76416016 -9.67386719 1047.76416016 -10.65625 1048.109375 C-22.61041472 1051.73563836 -34.26920419 1049.29520396 -45.1484375 1043.86328125 C-59.2163192 1035.77623626 -68.71097599 1023.53220772 -73.75 1008.1953125 C-75.49511117 1001.34965281 -76.16872284 994.46060606 -76.7109375 987.42578125 C-76.83456349 986.02578016 -76.83456349 986.02578016 -76.96068698 984.59749621 C-77.79579876 974.38815242 -77.84688064 964.24032871 -77.82743835 954.00325012 C-77.82745717 952.05068085 -77.82791684 950.09811153 -77.82877368 948.14554244 C-77.82985175 942.7794403 -77.82467307 937.41335974 -77.81847689 932.04726174 C-77.81283244 926.18373483 -77.8130817 920.32020759 -77.81256294 914.45667839 C-77.81082807 904.14121233 -77.80536341 893.82575311 -77.79731178 883.51029015 C-77.78865762 872.41011273 -77.78194269 861.30993686 -77.77768517 850.20975685 C-77.7774138 849.50658524 -77.77714244 848.80341362 -77.77686286 848.07893378 C-77.77548537 844.48838899 -77.77413985 840.89784419 -77.77280717 837.30729938 C-77.77004649 829.91464431 -77.76699793 822.52198936 -77.76383114 815.12933445 C-77.76351129 814.38242023 -77.76319144 813.63550602 -77.7628619 812.86595804 C-77.75780814 801.19730194 -77.75137965 789.52864701 -77.74421787 777.85999203 C-77.7432372 776.2569598 -77.7422566 774.65392757 -77.74127605 773.05089534 C-77.74028861 771.43820022 -77.73930118 769.8255051 -77.73831373 768.21280998 C-77.71972166 737.84644265 -77.70652728 707.48008121 -77.70123291 677.1137085 C-77.70092212 675.36408152 -77.70061097 673.61445454 -77.70029946 671.86482756 C-77.6990503 664.80733083 -77.69783509 657.7498341 -77.6966419 650.69233736 C-77.68826329 601.28756928 -77.6757794 551.88281272 -77.63693237 502.47805786 C-77.63620864 501.55691342 -77.63548491 500.63576897 -77.63473924 499.68671106 C-77.61851557 479.12713926 -77.60060318 458.56756918 -77.58144145 438.00799992 C-77.57358532 429.5522898 -77.56593257 421.09657951 -77.55834961 412.64086914 C-77.55750887 411.70888592 -77.55666813 410.7769027 -77.55580192 409.81667756 C-77.52811264 379.00539844 -77.51765146 348.19413983 -77.51514226 317.38284925 C-77.51242815 285.10333951 -77.49348664 252.82387966 -77.45377635 220.5443932 C-77.44819614 216.00384199 -77.44279671 211.46329058 -77.43750572 206.92273903 C-77.43645969 206.03044996 -77.43541365 205.1381609 -77.43433592 204.21883277 C-77.41812694 189.99599267 -77.41877942 175.77320358 -77.42614033 161.55035826 C-77.4331006 147.4004176 -77.42198387 133.2505833 -77.3922746 119.10067125 C-77.3752583 110.73804253 -77.37195234 102.37567751 -77.38876329 94.0130469 C-77.39978017 87.76652228 -77.38460467 81.52031259 -77.35949977 75.27383444 C-77.35340918 72.75962456 -77.35564302 70.24537691 -77.36730824 67.73118671 C-77.46237455 45.50203155 -75.14180228 25.65818609 -58.8984375 9.05078125 C-53.98585627 4.26193108 -48.93594398 0.39568955 -42.7109375 -2.57421875 C-41.88464844 -2.98414063 -41.05835938 -3.3940625 -40.20703125 -3.81640625 C-26.51172363 -9.73539166 -12.58544494 -7.3082627 0 0 Z " fill="#82B5C6" transform="translate(1064.7109375,833.57421875)"/>
<path d="M0 0 C17.57431517 13.11055141 26.37697111 30.39659289 29.8125 51.75 C30.64835058 57.93610056 31.15610656 64.15691331 31.6875 70.375 C31.85420012 72.25627052 32.0209501 74.13753663 32.18774414 76.01879883 C33.86877359 95.30039818 35.1991625 114.6092511 36.56732178 133.91494751 C38.48753864 160.98783234 40.74667107 188.02056252 43.20507812 215.05029297 C43.78677364 221.4506735 44.35617141 227.85209492 44.921875 234.25390625 C46.88698667 256.46010832 48.89288035 278.6624808 50.91796875 300.86328125 C58.13702254 380.01371226 58.13702254 380.01371226 60.9375 412.3125 C61.02551817 413.32708534 61.02551817 413.32708534 61.11531448 414.36216736 C62.51148166 430.46195675 63.88331879 446.5637548 65.24118614 462.66681671 C72.47557975 548.44200934 80.49045349 634.14486074 91.69602489 741.74939442 C93.86628556 762.49314437 95.97418929 783.24162503 98 804 C98.12166534 805.24659393 98.24333069 806.49318787 98.36868286 807.77755737 C98.4887973 809.008461 98.60891174 810.23936462 98.73266602 811.50756836 C98.97017717 813.94124717 99.20772545 816.37492235 99.4453125 818.80859375 C99.56033615 819.98687241 99.6753598 821.16515106 99.79386902 822.37913513 C100.9576767 834.27664509 102.15942448 846.17017922 103.375 858.0625 C103.47629211 859.05467529 103.57758423 860.04685059 103.6819458 861.0690918 C104.79940627 872.00521547 105.93487076 882.93928092 107.09375 893.87109375 C109.2365601 914.11098846 111.29720218 934.35393217 113.125 954.625 C113.21226349 955.57797974 113.29952698 956.53095947 113.38943481 957.51281738 C113.63569292 960.21385708 113.87557984 962.91538283 114.11328125 965.6171875 C114.22068634 966.7874498 114.22068634 966.7874498 114.33026123 967.98135376 C116.23942584 990.21847596 113.28265714 1011.04841203 98.8125 1028.75 C90.41239401 1038.00074963 79.09832396 1043.90793149 66.66796875 1045.03515625 C51.41331235 1045.69108966 39.13528818 1038.87787424 27.5625 1029.4375 C8.21629944 1011.54915977 2.46357565 980.06575677 -0.625 955.05859375 C-0.75230499 954.03125122 -0.87960999 953.00390869 -1.01077271 951.94543457 C-2.57848363 938.9450936 -3.72290639 925.90419778 -4.87533569 912.86189651 C-5.19699181 909.23244144 -5.52360394 905.60343175 -5.84960938 901.97436523 C-6.44624294 895.32503728 -7.03887493 888.67536044 -7.62956619 882.0255022 C-8.24197257 875.13259467 -8.85896761 868.24010073 -9.4765625 861.34765625 C-10.2918149 852.24373347 -11.10390791 843.13953401 -11.9140625 834.03515625 C-12.74032485 824.75133604 -13.57111288 815.46793272 -14.40596771 806.18488121 C-14.89599435 800.73572119 -15.3855289 795.28651692 -15.875 789.83730698 C-15.99997824 788.44601118 -16.12497824 787.05471733 -16.25 785.66342545 C-17.82943201 768.08503307 -19.38835009 750.50501646 -20.9140625 732.921875 C-21.06088985 731.23051892 -21.20772519 729.53916353 -21.35456848 727.84780884 C-21.46398034 726.58755418 -21.46398034 726.58755418 -21.57560253 725.30183983 C-24.09836189 696.24557167 -26.67313638 667.19869153 -29.4838562 638.16860962 C-31.86729245 613.5193851 -34.06978499 588.85541888 -36.25 564.1875 C-36.93720452 556.41664053 -37.6247015 548.64580692 -38.3125 540.875 C-38.39512714 539.94134928 -38.47775429 539.00769855 -38.56288528 538.04575539 C-42.05817953 498.56315956 -45.80379197 459.10489449 -49.60620117 419.65087891 C-49.90684884 416.53028408 -50.20738845 413.40967887 -50.5078125 410.2890625 C-50.58142565 409.5244231 -50.6550388 408.75978371 -50.73088264 407.97197342 C-51.64905479 398.42829782 -52.55240815 388.88347603 -53.4296875 379.3359375 C-55.25822682 359.48597915 -57.17780884 339.65040243 -59.28515625 319.828125 C-59.42608578 318.50210549 -59.42608578 318.50210549 -59.56986237 317.14929771 C-59.95767879 313.50100239 -60.34565499 309.85272406 -60.73365021 306.20444775 C-66.3885614 253.01060519 -71.12187584 199.79437314 -74.9375 146.4375 C-74.98868484 145.72176819 -75.03986969 145.00603638 -75.09260559 144.26861572 C-75.81839054 134.09754914 -76.51474071 123.92470564 -77.1875 113.75 C-77.25746059 112.69841957 -77.25746059 112.69841957 -77.32883453 111.62559509 C-79.56140976 78.02376397 -79.56140976 78.02376397 -79.55810547 61.99462891 C-79.56263098 59.5543744 -79.59977151 57.11573887 -79.63671875 54.67578125 C-79.76697721 36.35055639 -75.33372686 19.40493463 -62.3515625 5.74609375 C-44.32584303 -10.88051753 -20.57059296 -13.4935541 0 0 Z " fill="#82B5C6" transform="translate(679.1875,838.25)"/>
<path d="M0 0 C0.9070166 0.26312988 1.8140332 0.52625977 2.74853516 0.79736328 C32.95012959 9.699151 67.39327056 25.12980929 88 50 C89.26953125 52.79296875 89.26953125 52.79296875 90 55 C81.35982772 58.75620684 71.6933851 59.25679536 62.38671875 59.9375 C60.22483957 60.10642974 58.06297526 60.27554978 55.90112305 60.44482422 C54.15670425 60.57869537 54.15670425 60.57869537 52.37704468 60.715271 C45.66664659 61.23312486 38.95819342 61.77476181 32.25 62.3203125 C31.49634848 62.3815543 30.74269695 62.4427961 29.9662075 62.50589371 C5.69419886 64.48416589 -18.5586693 66.68712683 -42.8125 68.875 C-44.01807808 68.98370296 -45.22365616 69.09240593 -46.46576691 69.20440292 C-84.26306624 72.61415577 -122.04519817 76.15502124 -159.81095886 79.89732361 C-167.69920849 80.67807144 -175.58872284 81.44294241 -183.48046875 82.1875 C-212.91511436 84.96632309 -242.33460312 87.89997368 -271.75 90.875 C-273.35733002 91.0374502 -273.35733002 91.0374502 -274.99713135 91.20318222 C-303.71901406 94.10909729 -332.40407378 97.15200806 -361.01464844 101.01904297 C-379.65034751 103.51651403 -379.65034751 103.51651403 -389 103 C-390.34931078 97.30955723 -388.81506354 94.97643915 -385.921875 90.01953125 C-364.99352225 57.13819654 -328.24040112 25.79816202 -289.80078125 17.01171875 C-258.76807972 10.45314678 -226.34323579 9.5971645 -194.78366089 7.38269043 C-166.54056198 5.39972449 -138.33192889 3.07041296 -110.12469482 0.63258266 C-22.9180707 -6.90292103 -22.9180707 -6.90292103 0 0 Z " fill="#82B5C6" transform="translate(1126,179)"/>
</svg>
