<?xml version="1.0" encoding="UTF-8"?>
<svg version="1.1" xmlns="http://www.w3.org/2000/svg" width="2134" height="2134">
<path d="M0 0 C2.07056167 0.00056485 4.14112374 0.00024611 6.21168518 -0.00088501 C11.8059322 -0.00145663 17.40009269 0.01026674 22.99431968 0.02426291 C28.85060415 0.03680214 34.70689082 0.03794328 40.56318665 0.04031372 C51.64095392 0.04651912 62.71868152 0.0629172 73.79643136 0.0830127 C86.41312768 0.10540099 99.02982593 0.11637249 111.64653718 0.12640357 C137.58900573 0.14728427 163.53143912 0.18244193 189.47387695 0.22705078 C189.47626531 1.26789542 189.47865366 2.30874006 189.48111439 3.38112545 C189.54003791 28.76491167 189.61599968 54.14860395 189.70959187 79.53228664 C189.75446314 91.80789262 189.79389764 104.08347015 189.8203125 116.35913086 C189.84336295 127.06473833 189.87683918 137.77025512 189.92257851 148.47579056 C189.94641597 154.13869904 189.96520666 159.80151822 189.97149086 165.46447563 C189.97758483 170.80706287 189.9977385 176.14942191 190.02815247 181.49192429 C190.03686412 183.44079942 190.04066974 185.38970446 190.03888512 187.33859825 C190.02950975 202.31641409 191.12903318 216.96306855 196.09887695 231.22705078 C196.34976074 231.95996338 196.60064453 232.69287598 196.85913086 233.44799805 C203.00718151 250.60931792 213.03875284 265.01757828 225.47387695 278.22705078 C226.01270508 278.83033203 226.5515332 279.43361328 227.10668945 280.05517578 C241.98635227 296.05642122 263.69455417 305.82208352 284.47387695 311.22705078 C285.44196289 311.48099609 286.41004883 311.73494141 287.4074707 311.99658203 C317.53223798 318.52909787 349.56969795 311.78696918 375.8059082 296.25439453 C403.81352723 278.16988571 422.0857654 252.34547058 430.61450195 220.25048828 C445.93640346 148.51613123 434.11253933 73.57858848 434.47387695 0.22705078 C761.83387695 0.22705078 1089.19387695 0.22705078 1426.47387695 0.22705078 C1426.80387695 66.22705078 1427.13387695 132.22705078 1427.47387695 200.22705078 C1429.83807973 214.32160607 1429.83807973 214.32160607 1433.66137695 227.85205078 C1433.96253418 228.73175537 1434.26369141 229.61145996 1434.57397461 230.51782227 C1445.42448809 261.12719323 1468.90833845 285.17575027 1497.97387695 299.03955078 C1528.4340014 312.9883538 1561.54195417 313.30382821 1592.84887695 302.03955078 C1622.82746388 289.93776538 1647.24219042 268.01304735 1660.47387695 238.22705078 C1666.65586439 223.2987986 1670.61109028 207.88360131 1670.63209534 191.67224121 C1670.63703331 190.84869534 1670.64197129 190.02514947 1670.6470589 189.17664766 C1670.66232605 186.43759122 1670.67076504 183.698558 1670.67919922 180.95947266 C1670.68878624 178.9878723 1670.6987968 177.01627396 1670.709198 175.04467773 C1670.73616387 169.70649171 1670.75721833 164.36829692 1670.77719998 159.0300808 C1670.799111 153.44602244 1670.8264746 147.86199084 1670.85325623 142.2779541 C1670.90311406 131.71011055 1670.94807846 121.14225208 1670.99127859 110.57437944 C1671.0407101 98.54054787 1671.09560626 86.50674316 1671.15095818 74.47293758 C1671.26467213 49.72433373 1671.37153412 24.97570409 1671.47387695 0.22705078 C1697.79580645 0.13342519 1724.11771083 0.06298241 1750.43977356 0.01980209 C1762.66278668 -0.00078414 1774.88569606 -0.02882923 1787.10864258 -0.07470703 C1797.76767519 -0.11469559 1808.42663264 -0.14041062 1819.08573818 -0.1493032 C1824.72466276 -0.15449762 1830.36337239 -0.16662379 1836.00222778 -0.19586945 C1841.32098428 -0.22322872 1846.63943939 -0.23135313 1851.95825958 -0.22537994 C1853.89952488 -0.22647107 1855.84080135 -0.2343017 1857.78200531 -0.24977112 C1878.95023831 -0.41003838 1898.20259523 3.61549907 1914.47387695 18.22705078 C1915.29500977 18.95537109 1916.11614258 19.68369141 1916.9621582 20.43408203 C1931.46671366 34.05823958 1938.47525944 51.6561184 1939.6587361 71.29457996 C1939.72758142 74.41146332 1939.73921682 77.52270405 1939.72572595 80.64031392 C1939.72865481 81.82644024 1939.73158368 83.01256656 1939.7346013 84.23463611 C1939.74067637 87.50629716 1939.73789605 90.77780739 1939.73126548 94.04946271 C1939.72624898 97.62984303 1939.73293219 101.21020575 1939.73806915 104.79058328 C1939.74549818 111.08288657 1939.74552053 117.375156 1939.74067966 123.66746131 C1939.73346847 133.08732382 1939.73780689 142.50715719 1939.74436101 151.92701893 C1939.75519113 167.98258564 1939.75651834 184.03814061 1939.75266266 200.09370995 C1939.74878666 216.36380693 1939.74924102 232.63389517 1939.75497246 248.9039917 C1939.75533128 249.93172721 1939.75569011 250.95946272 1939.75605981 252.01834172 C1939.75753472 256.20417174 1939.75903912 260.39000175 1939.76058127 264.57583175 C1939.7762184 307.06949708 1939.77889501 349.5631564 1939.77642521 392.0568241 C1939.77608677 397.92876467 1939.77576467 403.80070524 1939.77545953 409.67264581 C1939.77536796 411.42209327 1939.77536796 411.42209327 1939.77527455 413.2068831 C1939.77400283 439.04999064 1939.77660371 464.89309735 1939.77998559 490.73620464 C1939.78075633 496.63651343 1939.78150106 502.53682222 1939.78225061 508.43713101 C1939.7825523 510.80514824 1939.78285418 513.17316546 1939.78315625 515.54118268 C1939.78330593 516.71496296 1939.78345561 517.88874324 1939.78360983 519.09809262 C1939.78391336 521.47231372 1939.78421804 523.84653481 1939.78452387 526.22075591 C1939.79319765 593.59324517 1939.79784024 660.9657337 1939.79357624 728.33822346 C1939.79349818 729.58589672 1939.79342013 730.83356998 1939.7933397 732.11905152 C1939.7924669 746.03208291 1939.79153763 759.9451143 1939.79058907 773.85814569 C1939.79050356 775.11429904 1939.79041805 776.37045238 1939.79032995 777.66467098 C1939.78961914 788.10257363 1939.78961914 788.10257363 1939.78928773 792.90463482 C1939.78375143 873.2597513 1939.79129525 953.6148563 1939.81005859 1033.9699707 C1939.81478075 1054.21799626 1939.81946124 1074.46602181 1939.82389545 1094.71404743 C1939.82416878 1095.96077359 1939.8244421 1097.20749975 1939.8247237 1098.4920055 C1939.83309386 1136.9115287 1939.83777456 1175.33105095 1939.83860302 1213.75057507 C1939.83862939 1214.95662602 1939.83865575 1216.16267698 1939.83868292 1217.40527494 C1939.83922368 1243.87974924 1939.83885129 1270.35422347 1939.8376432 1296.82869775 C1939.83721757 1306.30146232 1939.83685245 1315.77422689 1939.83651376 1325.24699146 C1939.83642846 1327.60359756 1939.83633953 1329.96020365 1939.83624694 1332.31680975 C1939.83479776 1369.87816538 1939.84192707 1407.43951321 1939.8532509 1445.00086697 C1939.86489562 1483.8782953 1939.86547045 1522.7557097 1939.85340748 1561.6331381 C1939.85215563 1565.80739428 1939.85095215 1569.98165047 1939.84978676 1574.15590668 C1939.84949646 1575.18034672 1939.84920617 1576.20478677 1939.84890708 1577.26027045 C1939.84458056 1593.48576022 1939.85031448 1609.71123018 1939.86022695 1625.93671684 C1939.86976077 1641.88866783 1939.86859363 1657.84058826 1939.85602073 1673.79253747 C1939.84896797 1683.14583476 1939.85010431 1692.49904418 1939.86336911 1701.85233522 C1939.87136071 1708.06637366 1939.86844722 1714.28034567 1939.85671947 1720.49437802 C1939.85037721 1724.01552083 1939.84859988 1727.53649023 1939.86028668 1731.0576233 C1939.93450684 1759.08320886 1937.02747568 1782.3923772 1916.47387695 1803.22705078 C1900.91315096 1818.54511438 1881.30497211 1823.56047636 1859.98583144 1823.47889978 C1858.64555647 1823.48101229 1857.30528265 1823.48400034 1855.96501132 1823.48777513 C1852.2886266 1823.49560475 1848.61234703 1823.49105199 1844.9359638 1823.48443931 C1840.91893567 1823.47943914 1836.90192354 1823.48609939 1832.88489792 1823.49124297 C1825.8196496 1823.49868441 1818.75443142 1823.49868734 1811.68918129 1823.49385349 C1801.11218661 1823.4866527 1790.53521794 1823.49097472 1779.95822396 1823.49753484 C1761.93193906 1823.50837358 1743.90566461 1823.50968966 1725.87937737 1823.50583649 C1707.60887127 1823.50196229 1689.33837297 1823.50241201 1671.06786728 1823.50814629 C1669.33757693 1823.50868452 1669.33757693 1823.50868452 1667.57233123 1823.50923364 C1662.8742728 1823.51070853 1658.17621439 1823.51221292 1653.47815599 1823.5137551 C1605.76881401 1823.52939763 1558.05947738 1823.53206824 1510.3501333 1823.52959904 C1503.75602674 1823.5292606 1497.16192019 1823.5289385 1490.56781363 1823.52863336 C1489.25810154 1823.52857231 1487.94838945 1823.52851127 1486.59898911 1823.52844838 C1457.58588348 1823.52717698 1428.57277858 1823.52977694 1399.55967317 1823.53315942 C1392.93681929 1823.53393016 1386.31396541 1823.53467489 1379.69111154 1823.53542444 C1377.03313671 1823.53572613 1374.37516189 1823.53602801 1371.71718706 1823.53633008 C1370.39968634 1823.53647976 1369.08218563 1823.53662944 1367.72476065 1823.53678366 C1364.39292794 1823.53716315 1361.06109524 1823.5375449 1357.72926253 1823.53792738 C1327.31434744 1823.54141303 1296.89943231 1823.54417654 1266.4845171 1823.5462904 C1265.80729035 1823.54633764 1265.1300636 1823.54638488 1264.43231482 1823.54643355 C1221.27740203 1823.54942834 1178.12248985 1823.54930321 1134.96757703 1823.54686962 C1132.84553534 1823.54675003 1130.72349365 1823.54663165 1128.60145196 1823.54651353 C1112.98121153 1823.5456421 1097.3609711 1823.54471151 1081.74073067 1823.5437629 C1080.31617756 1823.54367651 1078.89162446 1823.54359014 1077.46707136 1823.54350378 C1076.04193528 1823.54341734 1074.61679921 1823.5433309 1073.19166313 1823.54324445 C1072.48601419 1823.54320166 1071.78036525 1823.54315887 1071.05333302 1823.54311479 C1067.48784016 1823.54289839 1063.9223473 1823.54268095 1060.35685444 1823.54246155 C993.01019984 1823.53832275 925.66354837 1823.53724616 858.31689453 1823.54962158 C857.60781665 1823.54975186 856.89873877 1823.54988215 856.16817368 1823.55001638 C834.72606268 1823.55396829 813.28395177 1823.55832785 791.84184087 1823.56278753 C768.39570596 1823.56766359 744.94957105 1823.5724975 721.50343609 1823.57706928 C720.8034704 1823.57720605 720.10350472 1823.57734282 719.38232795 1823.57748374 C675.54609069 1823.58603814 631.70985432 1823.59094209 587.87361622 1823.59177685 C587.19659363 1823.59179012 586.51957103 1823.59180339 585.8220326 1823.59181706 C556.08913034 1823.59239239 526.35622813 1823.59210762 496.62332588 1823.59089835 C485.32377763 1823.59043914 474.02422937 1823.59004752 462.72468112 1823.58968759 C460.07951005 1823.58960229 457.43433899 1823.58951335 454.78916792 1823.58942077 C412.61618015 1823.58797117 370.44319934 1823.59510361 328.27021324 1823.60642473 C284.62308347 1823.61806573 240.97596611 1823.61864838 197.32883628 1823.60658131 C192.6439208 1823.60532944 187.95900532 1823.60412596 183.27408981 1823.60296059 C181.54942513 1823.60252515 181.54942513 1823.60252515 179.78991874 1823.60208091 C161.56814144 1823.59775182 143.34638174 1823.60349276 125.12460721 1823.61340078 C107.21657772 1823.62292697 89.30857548 1823.62177775 71.40054759 1823.60919456 C60.89587259 1823.60213333 50.3912758 1823.60329623 39.88660635 1823.61654294 C32.91264981 1823.62451913 25.93875257 1823.62164219 18.9648015 1823.6098933 C15.00981955 1823.60353505 11.05499229 1823.6018146 7.10001887 1823.61346051 C3.50556999 1823.62395664 -0.08859318 1823.62044082 -3.68302652 1823.60615211 C-5.56648004 1823.60215061 -7.44994785 1823.61270626 -9.33337153 1823.62403961 C-30.45259228 1823.49006328 -49.46712194 1815.99200502 -64.62768555 1801.28564453 C-78.42453599 1787.20154968 -85.03062641 1769.36330581 -84.90217054 1749.84361506 C-84.90637749 1748.64854792 -84.91058444 1747.45348077 -84.91491888 1746.22219948 C-84.92352702 1742.92062185 -84.91881235 1739.6195629 -84.90834902 1736.31802413 C-84.90025963 1732.7069981 -84.90971176 1729.0960089 -84.91685957 1725.48498672 C-84.92702283 1719.13711285 -84.92605657 1712.78931629 -84.91780894 1706.44144076 C-84.90551773 1696.93844206 -84.91056305 1687.43550593 -84.91895686 1677.93250579 C-84.93275444 1661.7358314 -84.93230802 1645.53918526 -84.92411423 1629.34250832 C-84.91586104 1612.92847432 -84.91411898 1596.51445893 -84.92032623 1580.10042381 C-84.92071375 1579.0637759 -84.92110127 1578.02712799 -84.92150053 1576.95906651 C-84.92310034 1572.73697594 -84.92474646 1568.51488539 -84.92645136 1564.29279486 C-84.94232125 1524.96412918 -84.94339463 1485.63547597 -84.935009 1446.30680847 C-84.93476062 1445.14132108 -84.93451223 1443.9758337 -84.93425632 1442.77502851 C-84.93400753 1441.60767955 -84.93375874 1440.44033058 -84.93350241 1439.2376074 C-84.92593628 1403.68980093 -84.9239771 1368.14199961 -84.92757034 1332.5941925 C-84.92780278 1330.21478897 -84.92803425 1327.83538543 -84.92826475 1325.4559819 C-84.92919613 1315.89441519 -84.93015213 1306.33284848 -84.93114404 1296.77128177 C-84.93389522 1270.04188006 -84.93560691 1243.31247832 -84.93650246 1216.58307648 C-84.93654339 1215.36583007 -84.93658433 1214.14858366 -84.93662651 1212.894451 C-84.93785455 1174.10118015 -84.93447262 1135.3079111 -84.92795372 1096.51464081 C-84.92774297 1095.25620835 -84.92753223 1093.9977759 -84.92731509 1092.70120912 C-84.92388015 1072.26440903 -84.92022181 1051.82760897 -84.91654457 1031.39080892 C-84.90197529 950.33345097 -84.90265151 869.27610789 -84.91723633 788.21875 C-84.92089983 767.79232027 -84.92453295 747.36589053 -84.92795372 726.93946075 C-84.92816506 725.68177237 -84.92837641 724.42408398 -84.92859416 723.12828382 C-84.93506161 684.37586401 -84.93780574 645.62344543 -84.93650246 606.87102509 C-84.9364617 605.6546698 -84.93642095 604.43831451 -84.93637896 603.18509997 C-84.93544157 576.48551531 -84.93354075 549.78593078 -84.93077095 523.08634625 C-84.9297835 513.53326987 -84.92884426 503.98019349 -84.92791881 494.4271171 C-84.92768665 492.05050777 -84.92745046 489.67389844 -84.92721023 487.29728911 C-84.92362776 451.75788158 -84.92668206 416.21847986 -84.93425632 380.67907305 C-84.9345047 379.51358567 -84.93475309 378.34809828 -84.935009 377.14729309 C-84.93525705 375.98395078 -84.9355051 374.82060848 -84.93576066 373.62201337 C-84.9440304 334.40803457 -84.94100152 295.19407074 -84.92516677 255.98009408 C-84.92350967 251.77128865 -84.92189956 247.56248321 -84.92032623 243.35367775 C-84.91993561 242.32074847 -84.91954499 241.28781918 -84.91914253 240.22358901 C-84.91321981 223.85203231 -84.91735099 207.48049419 -84.92563325 191.10893916 C-84.93355907 175.02031007 -84.93080175 158.9317124 -84.91659099 142.8430873 C-84.90857303 133.40505759 -84.90877319 123.96711393 -84.92103578 114.5290883 C-84.92835756 108.26402168 -84.92483653 101.99902217 -84.91243522 95.73396368 C-84.90570573 92.18052437 -84.90362314 88.62725661 -84.91488477 85.07382488 C-84.9268905 81.25262349 -84.91562217 77.43168745 -84.90217054 73.61048651 C-84.90934277 72.52062083 -84.91651499 71.43075514 -84.92390456 70.30786323 C-84.84909755 59.87959594 -82.6302992 50.28243414 -77.77612305 41.03955078 C-77.42614258 40.35957031 -77.07616211 39.67958984 -76.71557617 38.97900391 C-73.86061508 33.57367974 -70.63725807 28.76852734 -66.52612305 24.22705078 C-65.95764648 23.56705078 -65.38916992 22.90705078 -64.8034668 22.22705078 C-47.31918226 3.22077969 -24.46290539 -0.0936953 0 0 Z M13.47387695 420.22705078 C8.69274202 427.73398219 7.32334673 434.04201281 7.34507579 442.84805256 C7.34330078 443.73302664 7.34152577 444.61800072 7.33969697 445.52979219 C7.33493185 448.52219624 7.33733605 451.5145526 7.33965588 454.50695896 C7.337704 456.67248062 7.33531556 458.83800192 7.33252791 461.00352266 C7.32610426 466.99760345 7.32596816 472.99167087 7.32680531 478.98575443 C7.32665369 484.82048396 7.32182892 490.6552084 7.31714781 496.48993578 C7.30762891 508.5750334 7.30292748 520.66012872 7.30083847 532.74522972 C7.29871128 544.99738361 7.29445455 557.24953392 7.28759575 569.5016861 C7.28716513 570.27471051 7.28673452 571.04773492 7.28629086 571.84418431 C7.28453254 574.99245579 7.2827629 578.14072727 7.28097784 581.28899873 C7.25936916 619.47396815 7.24849784 657.65893827 7.2395016 695.84391241 C7.23656836 708.22484644 7.23319857 720.60578029 7.22953439 732.98671412 C7.2292761 733.85994628 7.22901781 734.73317844 7.22875169 735.63287218 C7.22770548 739.1655449 7.22665706 742.69821761 7.22560587 746.23089032 C7.20764073 806.65790705 7.19226093 867.08492407 7.18484683 927.51194309 C7.18426286 932.25921116 7.18366559 937.00647924 7.18306922 941.75374731 C7.1829511 942.6954639 7.18283298 943.63718049 7.18271128 944.60743394 C7.18151388 954.14850304 7.18030512 963.68957214 7.17907875 973.23064123 C7.17883351 975.14366809 7.17858966 977.05669494 7.17834718 978.9697218 C7.17055654 1040.41624173 7.14817141 1101.86274257 7.11567075 1163.30925416 C7.09232876 1207.45503921 7.07077512 1251.60082048 7.06366444 1295.7466116 C7.06351742 1296.65427404 7.06337039 1297.56193648 7.06321892 1298.49710384 C7.06003426 1318.42154065 7.05798325 1338.34597742 7.05699137 1358.27041445 C7.05657662 1366.28700582 7.05602172 1374.30359717 7.05542946 1382.32018852 C7.05536879 1383.1975649 7.05530812 1384.07494128 7.05524561 1384.97890482 C7.05322874 1413.25360958 7.03898378 1441.52829182 7.01848446 1469.80298873 C6.99791237 1498.27900009 6.99000479 1526.75498539 6.99956222 1555.23100344 C7.0008807 1559.1648716 7.00205874 1563.0987398 7.00315285 1567.03260803 C7.0033727 1567.80376411 7.00359254 1568.57492018 7.00381905 1569.36944462 C7.00693492 1581.58636018 6.99660088 1593.80322596 6.9806773 1606.02012998 C6.96530258 1618.02951116 6.96416439 1630.03882341 6.97822553 1642.04820697 C6.9851554 1648.47399286 6.98567863 1654.89960716 6.96866544 1661.32537807 C6.95331944 1667.16888473 6.9563213 1673.01208106 6.97407572 1678.85557828 C6.97723053 1680.95852763 6.97365348 1683.06150039 6.96258398 1685.16442298 C6.89493902 1698.90845856 7.34960257 1710.27502856 16.5480957 1721.28564453 C23.58594176 1728.38059279 31.40877408 1730.44697746 41.18482558 1730.49382382 C42.936502 1730.487006 42.936502 1730.487006 44.72356582 1730.48005044 C46.60399234 1730.48463009 46.60399234 1730.48463009 48.52240727 1730.48930225 C52.01633612 1730.49752259 55.51015655 1730.49325106 59.00408541 1730.48701052 C62.81398918 1730.48241112 66.6238745 1730.48941692 70.43377459 1730.49494416 C77.14161028 1730.50306177 83.84941498 1730.50369893 90.55725381 1730.49953227 C100.59920722 1730.49332874 110.6411321 1730.49859971 120.68308344 1730.50612968 C137.79564678 1730.51861692 154.9082 1730.521539 172.02076721 1730.51929474 C189.36937535 1730.51704816 206.7179749 1730.51910588 224.06658173 1730.52643967 C225.70851337 1730.52712863 225.70851337 1730.52712863 227.38361535 1730.5278315 C231.84163962 1730.52971472 236.29966387 1730.53162609 240.7576881 1730.53357388 C287.29901338 1730.55387898 333.84033385 1730.55998645 380.38166305 1730.56115811 C385.39363366 1730.5612876 390.40560427 1730.56142348 395.41757488 1730.56156492 C396.66125543 1730.56159893 397.90493597 1730.56163294 399.18630381 1730.56166798 C426.72746378 1730.56248436 454.26862283 1730.56686248 481.80978232 1730.57187661 C493.14481889 1730.57393328 504.47985547 1730.57591332 515.81489205 1730.57790911 C517.693441 1730.57824088 517.693441 1730.57824088 519.60994043 1730.57857935 C590.72082178 1730.59111202 661.83170281 1730.59950018 732.94258531 1730.59858774 C734.95709216 1730.59856223 736.971599 1730.59853831 738.98610585 1730.59851492 C753.1390706 1730.59835024 767.29203536 1730.59814482 781.44500012 1730.59792916 C785.50302171 1730.59786762 789.5610433 1730.59780749 793.6190649 1730.59774753 C797.00398613 1730.59769734 800.38890736 1730.59764577 803.77382859 1730.59759131 C867.70908482 1730.59656842 931.64433601 1730.59940491 995.57958984 1730.61828613 C996.25272463 1730.61848485 996.92585941 1730.61868357 997.61939221 1730.61888831 C1018.65129089 1730.625111 1039.6831894 1730.63184399 1060.71508789 1730.63867188 C1082.29521556 1730.64567464 1103.87534324 1730.65261553 1125.45547104 1730.65920067 C1126.11992476 1730.65940372 1126.78437847 1730.65960677 1127.46896715 1730.65981598 C1169.07757894 1730.67251298 1210.68618986 1730.68034912 1252.29480362 1730.68291664 C1253.57968239 1730.68299654 1254.86456116 1730.68307644 1256.18837565 1730.68315877 C1284.3916781 1730.68486515 1312.59498046 1730.68538777 1340.79828295 1730.68481801 C1350.88941122 1730.68462504 1360.98053949 1730.68452096 1371.07166776 1730.68446056 C1373.58217473 1730.68444473 1376.09268171 1730.68442432 1378.60318868 1730.68439931 C1418.64004566 1730.68404636 1458.6768885 1730.69545479 1498.71374142 1730.71270694 C1539.02793167 1730.72999032 1579.34210233 1730.7344035 1619.65629472 1730.7211843 C1625.22271909 1730.71935961 1630.7891435 1730.71767308 1636.35556793 1730.71606827 C1637.44677521 1730.71574809 1638.53798249 1730.71542792 1639.66225665 1730.71509804 C1656.96512399 1730.71038554 1674.26795752 1730.71912212 1691.5708185 1730.73341064 C1708.57036819 1730.74716885 1725.56986779 1730.74673144 1742.56941635 1730.73102637 C1752.54493563 1730.72223893 1762.52030767 1730.72446517 1772.49581487 1730.74275994 C1779.11431791 1730.753811 1785.73271066 1730.75045114 1792.35120514 1730.73519437 C1796.10734837 1730.72694404 1799.86320107 1730.72496382 1803.61932696 1730.74069575 C1807.65404755 1730.75745669 1811.68807287 1730.74332279 1815.72279143 1730.7261461 C1816.88101274 1730.73594534 1818.03923405 1730.74574458 1819.23255297 1730.75584076 C1830.32312636 1730.65702435 1838.23892001 1727.45905765 1846.27075195 1719.79345703 C1853.67863395 1711.16406258 1854.630509 1701.21332602 1854.60152745 1690.28590041 C1854.60317823 1689.40277173 1854.60482901 1688.51964304 1854.60652981 1687.60975288 C1854.61085385 1684.64172959 1854.60805377 1681.67375595 1854.60530472 1678.70573139 C1854.60695439 1676.55065934 1854.60904068 1674.39558759 1854.61152482 1672.24051633 C1854.61710073 1666.28942788 1854.61641737 1660.3383538 1854.61474723 1654.38726357 C1854.61401738 1647.92383882 1854.61903613 1641.46041816 1854.62332225 1634.99699515 C1854.63020501 1623.65923533 1854.63300016 1612.32147874 1854.63345718 1600.98371696 C1854.63395945 1588.81667562 1854.63660514 1576.6496376 1854.64186478 1564.48259735 C1854.64219491 1563.71446687 1854.64252504 1562.94633639 1854.64286518 1562.15492923 C1854.64421517 1559.02650723 1854.64557783 1555.89808524 1854.64695729 1552.76966325 C1854.66326269 1515.72534244 1854.66964613 1478.68102227 1854.67440516 1441.63669848 C1854.67678792 1423.19353732 1854.68049129 1404.75037652 1854.68444225 1386.30721564 C1854.69710654 1327.15729039 1854.7078908 1268.00736516 1854.71128271 1208.85743858 C1854.71144495 1206.03022529 1854.71161051 1203.203012 1854.7117771 1200.37579872 C1854.7121109 1194.70571958 1854.71244138 1189.03564044 1854.71277165 1183.36556131 C1854.71315856 1176.72718872 1854.71354816 1170.08881614 1854.71394272 1163.45044355 C1854.71405514 1161.55048327 1854.71416656 1159.65052299 1854.71427697 1157.75056272 C1854.71782706 1096.7192572 1854.73290827 1035.68796345 1854.75621472 974.65666242 C1854.77295434 930.80377864 1854.78843049 886.95089708 1854.79294968 843.09801006 C1854.79304316 842.19632998 1854.79313665 841.29464991 1854.79323297 840.36564619 C1854.79525193 820.57238525 1854.79640804 800.77912434 1854.79676155 780.9858633 C1854.79689773 773.90360432 1854.79710672 766.82134534 1854.79735481 759.73908636 C1854.79741637 757.97717134 1854.79747469 756.21525631 1854.79752975 754.45334128 C1854.79844985 726.36944363 1854.80842139 698.28555827 1854.82298724 670.20166466 C1854.83759786 641.91832317 1854.84264837 613.63499675 1854.8345677 585.35165216 C1854.83345231 581.44393797 1854.83244165 577.53622376 1854.83149338 573.62850952 C1854.83130341 572.86248651 1854.83111344 572.09646349 1854.83091772 571.30722766 C1854.82818335 559.17470099 1854.83552833 547.04220219 1854.84706675 534.90968158 C1854.85820135 522.98154388 1854.85839401 511.05344873 1854.84769656 499.12531031 C1854.8422836 492.74381584 1854.84166157 486.36241833 1854.85420528 479.98093174 C1854.86551983 474.17650175 1854.86304653 468.37224788 1854.84953821 462.56782408 C1854.84710093 460.48013287 1854.84969972 458.39242819 1854.85793468 456.30475179 C1855.08279111 435.33915401 1855.08279111 435.33915401 1845.47387695 417.22705078 C1836.58546915 408.51407208 1825.64093925 406.62599095 1813.62999439 406.72565413 C1811.74433514 406.71724022 1811.74433514 406.71724022 1809.82058175 406.70865634 C1806.3400767 406.69369573 1802.86002173 406.70348327 1799.37952884 406.71741614 C1795.57562726 406.72818505 1791.7717885 406.71560512 1787.96789348 406.70606875 C1781.2784139 406.69250677 1774.58906468 406.69381376 1767.89958227 406.70480293 C1757.88519709 406.72117981 1747.87091759 406.71446907 1737.85653001 406.70327236 C1720.78897863 406.68486851 1703.7214749 406.68547426 1686.65391922 406.69639587 C1669.35578062 406.70739766 1652.05767341 406.70972486 1634.75953293 406.70144653 C1633.12119646 406.7006715 1633.12119646 406.7006715 1631.44976228 406.6998808 C1627.0013653 406.69774774 1622.55296836 406.69555291 1618.10457145 406.6932797 C1576.66169846 406.67211651 1535.21884651 406.67069013 1493.77597046 406.68186951 C1492.5476698 406.68220069 1491.31936915 406.68253187 1490.05384726 406.68287309 C1488.20845592 406.68337067 1488.20845592 406.68337067 1486.32578394 406.6838783 C1448.86665168 406.69396529 1411.40752811 406.69657926 1373.94839478 406.69178772 C1371.44134334 406.6914778 1368.9342919 406.69116918 1366.42724047 406.69086184 C1356.35279899 406.68962001 1346.27835753 406.68834534 1336.20391606 406.68702278 C1308.04053091 406.6833545 1279.87714574 406.68107228 1251.71376038 406.67987823 C1250.43119629 406.67982365 1249.14863221 406.67976907 1247.82720255 406.67971283 C1206.95046922 406.67807538 1166.07373854 406.68258134 1125.19700623 406.69127655 C1124.53406892 406.69141702 1123.87113161 406.6915575 1123.18810529 406.69170223 C1100.98275149 406.69640767 1078.77739776 406.70143192 1056.57204404 406.70648875 C989.42175274 406.72177053 922.27147263 406.73014504 802.34995578 406.70602742 C780.15021977 406.70097461 757.95048376 406.69598056 735.75074768 406.69127655 C735.08799717 406.69113557 734.42524666 406.69099459 733.7424128 406.69084934 C692.23960611 406.6820285 650.7368012 406.67811197 609.23399353 406.67987823 C607.95236763 406.67993257 606.67074172 406.67998691 605.35027867 406.68004289 C577.21834355 406.68129273 549.08640866 406.68382713 520.95447377 406.68752025 C510.88896206 406.68883685 500.82345035 406.69008917 490.75793864 406.69132309 C488.25383129 406.69163264 485.74972395 406.69194757 483.2456166 406.69226788 C445.79504294 406.69704508 408.34447908 406.69297098 370.89390664 406.68287309 C369.66560599 406.68254191 368.43730533 406.68221072 367.17178345 406.68186951 C365.94574211 406.68153878 364.71970078 406.68120805 363.45650668 406.6808673 C322.13482185 406.66984251 280.81316228 406.67387635 239.49148107 406.69499248 C235.05706106 406.69720197 230.62264103 406.69934877 226.18822098 406.70144653 C225.09991643 406.70196736 224.01161189 406.70248819 222.89032842 406.7030248 C205.63645243 406.71092382 188.38260778 406.70541135 171.12873462 406.69437051 C154.1757454 406.68380645 137.22280921 406.68747237 120.26982674 406.70642686 C110.32287352 406.71712313 100.37606543 406.71684085 90.42911906 406.70050047 C83.82830184 406.69074633 77.22759797 406.69541968 70.62679451 406.71196789 C66.8815453 406.72095056 63.13658571 406.7236945 59.39134918 406.70870182 C55.36658272 406.69272897 51.34251737 406.70769546 47.31775951 406.72565413 C46.16527477 406.71609116 45.01279003 406.70652819 43.82538151 406.69667543 C31.25848159 406.81115958 21.75854128 410.62878202 13.47387695 420.22705078 Z " fill="#1E2A33" transform="translate(141.526123046875,258.77294921875)"/>
<path d="M0 0 C0.83545811 -0.00367669 1.67091623 -0.00735338 2.53169125 -0.01114148 C5.34138005 -0.02218664 8.15103187 -0.02602355 10.96073914 -0.02983093 C12.97112648 -0.03609488 14.98151267 -0.04274161 16.99189758 -0.04974365 C22.46095262 -0.06715791 27.9299989 -0.07770626 33.39907479 -0.08594918 C36.81449489 -0.09109771 40.22991226 -0.09717346 43.64533043 -0.10346031 C54.3272534 -0.12251231 65.00916945 -0.13674427 75.69110614 -0.14507228 C88.02959759 -0.15485021 100.36790991 -0.18118428 112.70633823 -0.22157317 C122.23847461 -0.25170746 131.77055956 -0.26653854 141.30274266 -0.26985329 C146.99829913 -0.27220654 152.69366423 -0.28120301 158.38916969 -0.30631447 C163.74652554 -0.32955356 169.10356343 -0.33384513 174.46095657 -0.32355309 C176.42738209 -0.32305663 178.39382303 -0.32940935 180.36020088 -0.34310913 C183.0448787 -0.36076709 185.72840785 -0.35375215 188.41308594 -0.34057617 C189.19120693 -0.35154542 189.96932792 -0.36251466 190.77102834 -0.37381631 C195.96474115 -0.31227645 198.90159734 0.85954768 202.89701843 4.14717102 C207.92250191 10.60691123 208.7121277 18.67619222 210.18656921 26.5304718 C210.49214682 28.10656636 210.7988489 29.68244326 211.10658073 31.25811863 C211.94140781 35.54962829 212.76045062 39.84401777 213.57680511 44.13907409 C214.44782588 48.70669354 215.33352856 53.27146559 216.21757507 57.83657837 C217.72197441 65.61562057 219.21730294 73.39635952 220.7061615 81.1783905 C222.82217246 92.23834191 224.95205668 103.29558352 227.08590865 114.35210502 C230.32305427 131.12641381 233.55098823 147.90247569 236.77201843 164.67988586 C240.21373404 182.60581309 243.67193632 200.5284623 247.14701843 218.44795227 C247.36811153 219.58818596 247.58920464 220.72841965 247.81699753 221.90320587 C248.64853898 226.19141889 249.48018701 230.4796112 250.31213188 234.76774597 C252.26412414 244.8295636 254.21016977 254.89252804 256.15483093 264.95576477 C256.30116974 265.71296625 256.44750854 266.47016773 256.59828186 267.25031471 C257.36467767 271.21590445 258.13093652 275.18152062 258.89701843 279.14717102 C259.22701843 279.14717102 259.55701843 279.14717102 259.89701843 279.14717102 C260.74510542 274.5819899 261.59316321 270.01680336 262.44120789 265.45161438 C262.57557491 264.72829583 262.70994193 264.00497729 262.84838068 263.25974 C264.54648731 254.11848059 266.24431236 244.97716897 267.94166565 235.83576965 C268.44302812 233.13563675 268.94439224 230.43550415 269.44575787 227.73537183 C269.7898393 225.88229675 270.13391667 224.02922092 270.47799015 222.17614436 C272.61020649 210.6929108 274.74373007 199.20992149 276.87912732 187.72727901 C278.83669106 177.20077681 280.79316281 166.674072 282.74858093 156.14717102 C282.92499139 155.1975237 283.10140184 154.24787637 283.28315806 153.26945186 C287.68484579 129.57175848 292.05901784 105.86953388 296.35379219 82.15221977 C297.03140706 78.41221196 297.71074523 74.67252182 298.39077759 70.93295288 C298.60547479 69.75209075 298.82017199 68.57122862 299.04137516 67.35458279 C299.45971409 65.05369828 299.87810549 62.75282331 300.29655361 60.45195866 C301.47850038 53.94556453 302.64773136 47.43704147 303.80765533 40.92668724 C304.51245096 36.98650857 305.22840167 33.04841988 305.94755936 29.11083984 C306.26977157 27.33263839 306.58710541 25.55354432 306.89896774 23.77349854 C307.31677093 21.39089261 307.75155257 19.01200089 308.1907196 16.633255 C308.30537221 15.95367705 308.42002481 15.2740991 308.53815174 14.57392788 C309.57939882 9.10241684 311.56531001 4.96442105 316.00867081 1.50142479 C319.79521948 -0.27396671 323.21941209 -0.27180576 327.31643677 -0.24050903 C328.16177084 -0.24589457 329.0071049 -0.25128011 329.87805516 -0.25682884 C332.70931294 -0.27113104 335.54010468 -0.26399913 338.37138367 -0.25688171 C340.40177283 -0.26258409 342.43215879 -0.26954784 344.46253967 -0.27767944 C349.97697953 -0.29564045 355.49126052 -0.29443692 361.00572085 -0.28873706 C365.6082458 -0.2856495 370.21074004 -0.29173284 374.81326061 -0.2977758 C385.67038874 -0.31182906 396.5274382 -0.31025303 407.38456726 -0.2988739 C418.58804082 -0.2873913 429.79127504 -0.30146902 440.99471706 -0.32827038 C450.61183435 -0.35041609 460.22887644 -0.35706731 469.84601742 -0.35119396 C475.59070602 -0.34782057 481.33524119 -0.35026497 487.07990837 -0.36744499 C492.4816421 -0.38289401 497.88302084 -0.37898111 503.28474045 -0.36013985 C505.26728179 -0.35644834 507.24984931 -0.35957873 509.23236656 -0.37002563 C511.93886071 -0.38319875 514.64417328 -0.37172085 517.35061646 -0.35403442 C518.1351551 -0.36363943 518.91969375 -0.37324444 519.7280063 -0.3831405 C524.95630946 -0.31284282 528.12975132 0.4646317 531.89701843 4.14717102 C536.51022095 12.5028753 535.31528196 23.20197974 535.27796936 32.44882202 C535.28142885 34.31545089 535.28619536 36.1820777 535.29215109 38.04870027 C535.30465062 43.16229853 535.29849543 48.27572838 535.28919244 53.38932717 C535.28239808 58.91017735 535.29288508 64.43099881 535.3011322 69.95184326 C535.3144673 80.76068356 535.31159285 91.56946133 535.30289428 102.37830407 C535.29611763 111.16279588 535.29520094 119.94727017 535.29846573 128.73176384 C535.29892543 129.98227371 535.29938513 131.23278359 535.29985876 132.5211877 C535.30081794 135.06160479 535.30179058 137.60202187 535.30277653 140.14243894 C535.31108589 163.28089209 535.30247085 186.41931257 535.28674874 209.5577582 C535.27251071 230.67262304 535.27378783 251.7874336 535.28813171 272.90229797 C535.30420101 296.63626583 535.31050744 320.37020741 535.30129492 344.10418218 C535.30033928 346.63491944 535.29939617 349.1656567 535.29846573 351.69639397 C535.2980029 352.94155552 535.29754008 354.18671708 535.29706322 355.4696108 C535.29447301 364.24397995 535.29884499 373.01832983 535.30590439 381.792696 C535.31431781 392.48500062 535.31204244 403.17723917 535.29606216 413.86953623 C535.28817764 419.3248005 535.28509105 424.77995459 535.29500961 430.23521805 C535.30395301 435.22965857 535.29902936 440.22388686 535.28307696 445.21830814 C535.2797277 447.0243464 535.28142648 448.83040262 535.28870432 450.63642932 C535.36368833 470.79109144 535.36368833 470.79109144 529.49198914 478.16923523 C524.78636299 481.52336423 518.90726651 480.84138987 513.37748718 480.79414368 C511.48868332 480.80728607 511.48868332 480.80728607 509.5617218 480.82069397 C506.11938879 480.84342423 502.67780779 480.83467787 499.23546219 480.81879854 C495.62677795 480.80610654 492.01815648 480.81788878 488.4094696 480.82572937 C482.35018905 480.83481642 476.29121357 480.82286316 470.23197937 480.79902649 C463.23464222 480.77181661 456.23803357 480.78063148 449.24071407 480.80815852 C443.22434997 480.83087585 437.20820471 480.83403699 431.19181156 480.82096517 C427.60224536 480.81318491 424.01302117 480.81208927 420.42347717 480.82864761 C416.42073183 480.84582351 412.41923488 480.82199457 408.41654968 480.79414368 C407.2319516 480.80426483 406.04735352 480.81438599 404.82685852 480.82481384 C395.86956523 480.70931357 395.86956523 480.70931357 392.30204773 478.04423523 C387.15169725 471.84019603 386.45492973 466.3994635 386.49829102 458.61166382 C386.49164419 457.67054935 386.48499736 456.72943489 386.47814912 455.75980181 C386.45954594 452.61675987 386.46212264 449.47409951 386.46464539 446.33100891 C386.45562661 444.07384199 386.44529911 441.81667998 386.4337616 439.55952454 C386.40617921 433.43822052 386.39690533 427.31700941 386.39090753 421.19565129 C386.38152716 414.79610718 386.35532399 408.39663255 386.3309021 401.99713135 C386.29218642 391.25800629 386.26383731 380.5189115 386.24345398 369.77973938 C386.22243462 358.72046734 386.1951512 347.66123988 386.1594696 336.602005 C386.15727078 335.91982208 386.15507195 335.23763916 386.1528065 334.53478403 C386.14173661 331.11232581 386.13054384 327.68986801 386.11928999 324.2674104 C386.0261505 295.89403685 385.95475282 267.52063717 385.89701843 239.14717102 C385.47389415 240.75504331 385.05077108 242.36291593 384.62765276 243.97078979 C384.24219153 245.43552261 383.85671045 246.90025021 383.47121179 248.36497319 C382.36591868 252.56472301 381.26100418 256.76457193 380.15670204 260.96458244 C377.88781145 269.59235493 375.61473475 278.21895953 373.32801819 286.84202576 C368.0196601 306.87640329 362.89500914 326.9493927 357.92453384 347.07017136 C356.70867128 351.99118437 355.48695265 356.91073375 354.26429749 361.83006287 C350.7974109 375.78151462 347.33379226 389.73376109 343.8848114 403.68965149 C341.96019944 411.47716179 340.028855 419.26296938 338.08992136 427.04692662 C337.07206956 431.13438265 336.05766662 435.22262377 335.05173111 439.31303024 C334.11249232 443.13220803 333.16447544 446.94909872 332.2097702 450.76443863 C331.86303135 452.15676174 331.51949733 453.54988777 331.17952347 454.94387817 C326.42814214 474.40472066 326.42814214 474.40472066 319.87490463 479.27028656 C315.26797387 481.31274279 310.07861673 480.85441418 305.13383484 480.82588196 C303.84858414 480.83785614 302.56333344 480.84983032 301.23913574 480.86216736 C297.72440915 480.89342549 294.21036869 480.89290885 290.69553804 480.88466167 C287.75579557 480.88049263 284.81618656 480.89148791 281.87646711 480.90230584 C274.93757055 480.92742392 267.99901462 480.92633898 261.06010437 480.90888977 C253.91493866 480.89137634 246.7708896 480.91774334 239.62588942 480.96585631 C233.47954556 481.00569859 227.33355333 481.01825467 221.18708742 481.00914216 C217.52127932 481.0039712 213.85622007 481.00891564 210.19052505 481.04010773 C206.09929334 481.07349984 202.01025815 481.04993607 197.91899109 481.02119446 C196.11080147 481.04716202 196.11080147 481.04716202 194.26608276 481.07365417 C187.26760571 480.96850654 183.38009763 479.98035963 178.35920715 474.98364925 C175.93246803 471.93571603 174.84340244 468.85336919 173.89701843 465.14717102 C173.59741211 464.05037018 173.29780579 462.95356934 172.98912048 461.8235321 C171.86854548 457.62185857 170.80358288 453.40862787 169.74858093 449.19013977 C169.33978391 447.56781062 168.93078166 445.94553318 168.52159119 444.32330322 C167.41250619 439.91781924 166.31109913 435.51045073 165.21222687 431.10240936 C164.51922278 428.32346044 163.82448125 425.54495014 163.12950134 422.76649475 C154.78252959 389.36487692 146.91851308 355.85946458 139.26664734 322.29243469 C138.66645992 319.65968778 138.06617738 317.02696265 137.46571565 314.39427829 C137.0641788 312.63370435 136.66279332 310.87309588 136.26162696 309.11243749 C132.96459139 294.65444707 129.54917369 280.22654705 126.08891296 265.80683899 C125.5813414 263.68844718 125.07385912 261.57003398 124.56646729 259.45159912 C123.34434091 254.34987727 122.12102732 249.24844153 120.89701843 244.14717102 C120.89647367 245.29938644 120.8959289 246.45160187 120.89536762 247.63873291 C120.88131734 275.00244971 120.84153833 302.36602911 120.77016281 329.7296592 C120.76139627 333.09913533 120.75284643 336.46861197 120.74443054 339.83808899 C120.74275148 340.50887883 120.74107242 341.17966867 120.73934247 341.87078547 C120.71268736 352.72591995 120.70357846 363.58100161 120.70097701 374.43616545 C120.69791536 385.57819052 120.67557286 396.7200852 120.63649386 407.86204815 C120.61515842 414.11885503 120.60256625 420.37540433 120.61086464 426.63224792 C120.61840102 432.52236614 120.60259779 438.41196225 120.56895828 444.30198479 C120.56072019 446.46266072 120.56098069 448.62338851 120.57042122 450.78405952 C120.58204807 453.73774205 120.56291649 456.68971491 120.53625488 459.64326477 C120.54692814 460.49542541 120.5576014 461.34758604 120.56859809 462.22556973 C120.44898923 469.34312854 117.94134026 474.14008599 112.89720821 479.12252045 C110.41718394 480.39297904 108.67805183 480.52971267 105.89398193 480.5415802 C104.88601059 480.55292999 103.87803925 480.56427979 102.83952332 480.57597351 C101.73967102 480.57304291 100.63981873 480.5701123 99.50663757 480.5670929 C98.34365646 480.57556244 97.18067535 480.58403198 95.98245239 480.59275818 C92.13224905 480.61618651 88.28244396 480.61714892 84.43217468 480.61592102 C82.43480276 480.62122536 80.43743069 480.62653584 78.44006151 480.63278818 C72.16013301 480.65201806 65.88033744 480.65490757 59.60038757 480.64814758 C53.12568685 480.64150613 46.65155573 480.66437548 40.17697054 480.70146132 C34.61419171 480.73216612 29.05159605 480.74351757 23.48873419 480.7396245 C20.16792817 480.7375578 16.84766457 480.74525796 13.52691841 480.76751709 C9.82308181 480.78961171 6.12062506 480.78005115 2.41679382 480.7624054 C1.31896576 480.77566864 0.2211377 480.78893188 -0.90995789 480.80259705 C-8.27482997 480.72092697 -8.27482997 480.72092697 -12.13546753 478.04621887 C-16.15560819 472.12271341 -17.55062113 467.28414869 -17.48050499 460.16825104 C-17.48486531 459.39068453 -17.48922563 458.61311802 -17.49371809 457.81198889 C-17.50465856 455.20881614 -17.49425807 452.60617479 -17.4839325 450.00300598 C-17.48738953 448.11691692 -17.49215441 446.23082988 -17.49811423 444.34474707 C-17.51064751 439.16350262 -17.5044432 433.98242377 -17.49515557 428.80117869 C-17.48837498 423.21282878 -17.4988414 417.62450757 -17.50709534 412.03616333 C-17.52044542 401.08921831 -17.51754924 390.14233494 -17.50885741 379.19538748 C-17.5020863 370.29972745 -17.50116167 361.40408472 -17.50442886 352.50842285 C-17.50488856 351.24305225 -17.50534826 349.97768166 -17.50582189 348.6739665 C-17.50678105 346.10350835 -17.50775369 343.5330502 -17.50873967 340.96259207 C-17.51705327 317.53864401 -17.50842712 294.11473553 -17.49271187 270.69079515 C-17.47847507 249.30790893 -17.47974896 227.9250763 -17.49409485 206.54219055 C-17.51015904 182.51783788 -17.51647329 158.4935187 -17.50725806 134.46915865 C-17.5063024 131.90807883 -17.50535928 129.34699901 -17.50442886 126.78591919 C-17.50396604 125.5257707 -17.50350321 124.2656222 -17.50302636 122.96728739 C-17.5004345 114.08080472 -17.5048117 105.19434105 -17.51186752 96.30786133 C-17.52027539 85.4803812 -17.51801737 74.65296633 -17.50202529 63.82549369 C-17.49413301 58.2996142 -17.49106734 52.77384358 -17.50097275 47.24796486 C-17.50990023 42.19121253 -17.50501884 37.13467018 -17.48904009 32.07793695 C-17.48568404 30.24694569 -17.4874048 28.41593676 -17.49466746 26.58495682 C-17.50377519 24.09841514 -17.49444844 21.61259492 -17.48050499 19.126091 C-17.48752849 18.41329516 -17.49455199 17.70049933 -17.50178832 16.96610361 C-17.43854578 11.33272079 -16.16260257 6.72169728 -12.60298157 2.27217102 C-8.84570178 -0.54578882 -4.45832663 -0.00104732 0 0 Z " fill="#F5A474" transform="translate(326.1029815673828,1093.8528289794922)"/>
<path d="M0 0 C0.80278969 -0.00367669 1.60557939 -0.00735338 2.43269604 -0.01114148 C5.13182881 -0.02218438 7.83092309 -0.02602317 10.53007507 -0.02983093 C12.46164574 -0.03609505 14.39321519 -0.0427418 16.32478333 -0.04974365 C21.57896901 -0.06715634 26.8331456 -0.07770585 32.08735299 -0.08594918 C35.36876538 -0.09109808 38.65017493 -0.09717381 41.93158531 -0.10346031 C52.19490238 -0.12251193 62.45821225 -0.13674393 72.72154361 -0.14507228 C84.57555402 -0.15484988 96.42937795 -0.18118322 108.28332263 -0.22157317 C117.44178913 -0.25171003 126.6002021 -0.26653879 135.75871724 -0.26985329 C141.23071161 -0.27220626 146.70250675 -0.28119903 152.17444801 -0.30631447 C157.32168906 -0.32955806 162.46859918 -0.33384334 167.61587906 -0.32355309 C169.50490226 -0.32305674 171.39394155 -0.3294063 173.28291512 -0.34310913 C175.86251073 -0.36077471 178.44091178 -0.35374863 181.02050781 -0.34057617 C181.76750122 -0.35154542 182.51449463 -0.36251466 183.2841242 -0.37381631 C188.38886564 -0.31091001 191.28661027 0.90616995 195.20072937 4.14717102 C198.27022163 8.70494666 200.02618563 13.08161034 201.64482117 18.35151672 C201.85939594 19.04194407 202.07397072 19.73237143 202.29504776 20.44372082 C203.00471256 22.73440569 203.70234401 25.0285684 204.39994812 27.32295227 C204.90759053 28.97058963 205.41595587 30.61800441 205.92498779 32.26521301 C207.30140215 36.72692853 208.66724969 41.191816 210.03115845 45.65736771 C211.47715401 50.38523567 212.93291205 55.11009741 214.38725281 59.83540344 C218.00594353 71.60165723 221.60581226 83.37363496 225.20072937 95.14717102 C225.48077065 96.06423828 225.76081192 96.98130554 226.04933929 97.92616272 C230.79680974 113.47440601 235.53784102 129.0246158 240.26801968 144.57812881 C248.26913327 170.88556471 256.36622389 197.16229604 264.53782654 223.41727257 C265.41400257 226.23280525 266.28933488 229.04859996 267.16464233 231.86440277 C267.74807589 233.73965038 268.33306306 235.61441441 268.9181366 237.489151 C270.94578551 244.00892497 272.91704641 250.54180152 274.83763123 257.09381104 C275.18052217 258.26167876 275.18052217 258.26167876 275.53034019 259.45313978 C276.08751354 261.35103957 276.64417506 263.24908961 277.20072937 265.14717102 C277.2043119 263.21785233 277.2043119 263.21785233 277.2079668 261.2495575 C277.265342 230.70896475 277.33808344 200.16845152 277.42971565 169.62794381 C277.44098365 165.86791441 277.45212213 162.10788464 277.46318054 158.34785461 C277.46538423 157.59930879 277.46758791 156.85076297 277.46985837 156.07953393 C277.50521879 143.96344541 277.53009 131.84735695 277.55107639 119.73123598 C277.57284845 107.29649963 277.60591222 94.86183017 277.64943093 82.42715073 C277.67592347 74.75593623 277.69363648 67.08480507 277.70007541 59.4135471 C277.70595911 53.52856896 277.72756258 47.64371399 277.75500488 41.75879478 C277.76379879 39.34655764 277.7675049 36.93429575 277.76573753 34.52204323 C277.76408571 31.22718891 277.78077725 27.93291282 277.80200195 24.63813782 C277.79473059 23.20814988 277.79473059 23.20814988 277.78731233 21.7492733 C277.86374788 14.55345345 278.89313852 8.85859027 283.70072937 3.20967102 C287.18084107 0.33857887 289.71901696 0.02155551 294.08351135 0.00672913 C295.09010803 0.00101898 296.09670471 -0.00469116 297.13380432 -0.01057434 C298.23725189 -0.0116922 299.34069946 -0.01281006 300.47758484 -0.01396179 C302.22183746 -0.02140915 302.22183746 -0.02140915 304.00132751 -0.02900696 C307.85686327 -0.04363951 311.71235789 -0.05043206 315.56791687 -0.05595398 C317.56647724 -0.06025135 319.56503761 -0.06454924 321.5635978 -0.06892848 C327.13227647 -0.0807385 332.70094516 -0.08827657 338.26963508 -0.09172368 C345.46898212 -0.09620486 352.66813934 -0.11375702 359.86742866 -0.14272428 C365.43440415 -0.16434544 371.00132625 -0.17442817 376.56834328 -0.1757648 C379.89240162 -0.17681245 383.2162408 -0.18415785 386.54026413 -0.20058441 C390.24868479 -0.21760387 393.95664117 -0.21577449 397.66508484 -0.20927429 C398.76448395 -0.21848907 399.86388306 -0.22770386 400.99659729 -0.23719788 C410.27325411 -0.18615928 410.27325411 -0.18615928 414.20072937 3.14717102 C418.18585645 7.70160197 418.34634299 11.84118429 418.33215714 17.66792774 C418.33420977 18.44455522 418.3362624 19.22118269 418.33837724 20.02134433 C418.34406884 22.64523685 418.34258733 25.26907723 418.34117126 27.89297485 C418.34375366 29.78457185 418.34676647 31.6761683 418.35017467 33.56776398 C418.35826261 38.78272736 418.36003523 43.99767698 418.36077213 49.21264589 C418.36261956 54.83035108 418.37016529 60.44804907 418.37690735 66.06575012 C418.39050364 78.35690469 418.39651732 90.64805601 418.40091801 102.93921685 C418.40367808 110.60938286 418.40791498 118.2795476 418.41242218 125.94971275 C418.42461623 147.17354043 418.43495087 168.39736677 418.43829727 189.6211977 C418.43851891 190.99394399 418.43874069 192.36669029 418.43896262 193.73943658 C418.43918326 195.1155215 418.43940375 196.49160642 418.43962407 197.86769134 C418.44006663 200.62841308 418.44051374 203.38913482 418.44096375 206.14985657 C418.44112783 207.17660594 418.44112783 207.17660594 418.44129523 208.22409773 C418.44492674 230.42445548 418.4608502 252.62478059 418.48415411 274.82512584 C418.50874001 298.28959548 418.52246279 321.75403984 418.52366519 345.21852463 C418.5245831 358.01222054 418.53036461 370.80587372 418.5484848 383.59955788 C418.56385741 394.49193314 418.56902305 405.38425247 418.5607467 416.27663652 C418.5568302 421.83679945 418.55781847 427.39684964 418.57180405 432.95699883 C418.584483 438.04407186 418.58339854 443.13094674 418.57121333 448.21801927 C418.56924589 450.06122926 418.57238275 451.904453 418.5810577 453.74764363 C418.5920846 456.24830193 418.5847089 458.74825276 418.57266617 461.24889088 C418.58405896 462.32855328 418.58405896 462.32855328 418.59568191 463.43002704 C418.53069719 469.65774617 416.75979778 473.50298849 412.51178837 477.9829092 C408.61752687 480.52837924 405.72659325 480.8487502 401.2237854 480.77536011 C400.43814463 480.78245449 399.65250385 480.78954888 398.84305578 480.79685825 C396.21950864 480.8144125 393.5974481 480.79634761 390.97392273 480.77827454 C389.0895419 480.78341431 387.20516587 480.79069603 385.32080078 480.79995728 C380.20923201 480.81847072 375.09818488 480.80553344 369.98663783 480.78586698 C364.63714284 480.76948121 359.2876809 480.77829316 353.93817139 480.78338623 C344.9558631 480.78790686 335.97376309 480.77203815 326.99150085 480.74409485 C316.60536615 480.71203341 306.21960688 480.7120626 295.83344549 480.72930962 C285.84239234 480.74516963 275.85147689 480.73844514 265.86042976 480.7213726 C261.60811767 480.71449835 257.35591583 480.71553839 253.10360527 480.72291756 C248.09743153 480.73057506 243.09168544 480.71847164 238.08558464 480.69106865 C236.24776479 480.68417851 234.40990504 480.68409358 232.57208633 480.69128418 C230.0644759 480.69996535 227.55818936 480.6840466 225.0506897 480.66183472 C224.32228455 480.67007548 223.5938794 480.67831625 222.84340137 480.68680674 C218.01173839 480.60773502 215.60408555 479.55058473 212.20072937 476.14717102 C209.07658418 472.05845574 207.28383745 468.13833267 205.67729187 463.26826477 C205.45533142 462.60254959 205.23337097 461.93683441 205.00468445 461.25094604 C204.26842537 459.03199414 203.54645743 456.80871246 202.82572937 454.58467102 C202.29519569 452.96545566 201.76442757 451.3463171 201.23344421 449.72724915 C199.82009124 445.40222858 198.4230917 441.07211035 197.03276062 436.73963928 C196.23413241 434.25124923 195.43238279 431.7638815 194.63041687 429.27656555 C182.26970301 390.83611713 171.36020034 351.94822794 160.20072937 313.14717102 C149.73200098 276.74784655 139.00370545 240.49008698 127.00932312 204.56098938 C126.64157776 203.45861687 126.2738324 202.35624435 125.89494324 201.22046661 C124.99713641 198.52927971 124.09905973 195.8381832 123.20072937 193.14717102 C123.19983374 194.01545186 123.19983374 194.01545186 123.19892001 194.90127373 C123.16302099 229.21383504 123.10637427 263.52629471 123.02280842 297.83877271 C123.01279104 301.95931268 123.0029469 306.07985304 122.99320984 310.20039368 C122.99029778 311.43087454 122.99029778 311.43087454 122.98732689 312.68621361 C122.9563113 325.96628365 122.93932747 339.24633642 122.92753515 352.52643585 C122.9151213 366.15447332 122.88761463 379.78242015 122.8461163 393.41040039 C122.82098756 401.81866618 122.80761163 410.22678165 122.8092998 418.63508552 C122.80932957 424.40207878 122.79469042 430.16891898 122.76856509 435.93585259 C122.75392639 439.26250216 122.74788466 442.58857412 122.75492668 445.91528893 C122.76155133 449.52555231 122.7436806 453.1349002 122.7197113 456.74507141 C122.72747172 457.79177946 122.73523214 458.83848751 122.74322772 459.91691399 C122.65402186 467.50577952 120.99869313 472.72835832 116.18119812 478.61482239 C111.43308539 481.05596996 106.77509114 480.70296124 101.51322937 480.66474915 C99.73927795 480.67526306 99.73927795 480.67526306 97.92948914 480.68598938 C94.69379337 480.70056081 91.45875394 480.69717006 88.22306824 480.68447304 C84.8327957 480.67432737 81.44256618 480.68374305 78.05229187 480.6900177 C72.35950377 480.6972896 66.66692341 480.68771863 60.97416687 480.6686554 C54.39782563 480.64688726 47.82198047 480.65393898 41.24565125 480.67596102 C35.59367128 480.69412827 29.94184043 480.69666695 24.2898407 480.68620634 C20.91662976 480.67997859 17.54365179 480.67911567 14.17045593 480.69235229 C10.40937155 480.70249963 6.64924252 480.68704005 2.88822937 480.66474915 C1.77327087 480.67284607 0.65831238 480.68094299 -0.49043274 480.68928528 C-8.02218435 480.60649928 -8.02218435 480.60649928 -11.92036438 478.30232239 C-17.17181183 472.27878387 -17.94972498 466.27979936 -17.93069839 458.60265732 C-17.93275103 457.83560543 -17.93480366 457.06855355 -17.9369185 456.27825767 C-17.94259923 453.69294051 -17.94112992 451.10767644 -17.93971252 448.52235413 C-17.94229554 446.65606826 -17.94530852 444.78978294 -17.94871593 442.92349839 C-17.95679657 437.783065 -17.95857609 432.64264556 -17.95931339 427.50220656 C-17.96116209 421.96287266 -17.96870847 416.42354602 -17.97544861 410.88421631 C-17.98903982 398.76653487 -17.99505782 386.64885673 -17.99945927 374.53116894 C-18.00222025 366.96768562 -18.00645732 359.40420358 -18.01096344 351.84072113 C-18.02315692 330.90766361 -18.03349161 309.97460678 -18.03683853 289.04154587 C-18.03706016 287.68783383 -18.03728195 286.33412179 -18.03750388 284.98040976 C-18.03772452 283.62342454 -18.03794501 282.26643932 -18.03816533 280.90945411 C-18.03860788 278.18709803 -18.039055 275.46474194 -18.039505 272.74238586 C-18.0396144 272.06739974 -18.03972379 271.39241362 -18.03983649 270.69697337 C-18.04346749 248.80828887 -18.05938926 226.91963748 -18.08269537 205.03096565 C-18.10728946 181.89035165 -18.12100444 158.74975584 -18.12220645 135.60912633 C-18.12312392 122.99423362 -18.12889446 110.37938426 -18.14702606 97.76450348 C-18.16240937 87.02372432 -18.16755795 76.28300191 -18.15928796 65.54221383 C-18.15537525 60.06078092 -18.15634138 54.57946236 -18.17034531 49.09804344 C-18.1830468 44.08060407 -18.18191972 39.06336543 -18.16975459 34.04592648 C-18.16779109 32.23030143 -18.17090606 30.41466235 -18.17959896 28.59905705 C-18.19066888 26.13081081 -18.18321898 23.66327581 -18.17120743 21.19504929 C-18.17880262 20.4904403 -18.18639781 19.78583131 -18.19422317 19.05987054 C-18.12989265 12.93494534 -16.73533563 7.50675024 -12.79927063 2.70967102 C-8.85443438 -0.3722323 -4.76684566 -0.00116604 0 0 Z " fill="#F5A474" transform="translate(1410.7992706298828,1093.8528289794922)"/>
<path d="M0 0 C50.12284918 47.88776298 63.62440898 120.01880235 65.64501953 186.53417969 C67.19212146 258.7128093 55.21620173 336.53761473 3.58203125 390.66796875 C-9.91838075 404.57061173 -25.25825684 415.84296785 -42.46875 424.7890625 C-43.08588867 425.11326172 -43.70302734 425.43746094 -44.33886719 425.77148438 C-64.14807476 436.03107396 -85.53609244 442.11343687 -107.46875 445.7890625 C-108.41717773 445.95277344 -109.36560547 446.11648438 -110.34277344 446.28515625 C-167.36036921 455.68131435 -234.069024 448.71540499 -283.21875 416.6640625 C-284.98601874 415.39612561 -286.73619711 414.10403902 -288.46875 412.7890625 C-289.51546875 412.02207031 -290.5621875 411.25507812 -291.640625 410.46484375 C-299.37926491 404.72294152 -306.49118446 398.42550261 -313.46875 391.7890625 C-314.10167969 391.20898438 -314.73460937 390.62890625 -315.38671875 390.03125 C-330.51733403 375.7272479 -341.89085692 356.58770358 -350.46875 337.7890625 C-350.7997168 337.07057129 -351.13068359 336.35208008 -351.47167969 335.61181641 C-386.47323789 258.75911278 -386.99092372 152.5662575 -357.58984375 73.66015625 C-347.2806359 46.82356917 -333.29992929 23.59743033 -313.46875 2.7890625 C-312.70304688 1.95890625 -311.93734375 1.12875 -311.1484375 0.2734375 C-246.12741713 -68.05373644 -122.90665295 -70.07802673 0 0 Z M-191.30859375 98.19140625 C-218.77598927 131.22181859 -218.87298282 183.88299305 -215.52319336 224.34350586 C-212.86847986 251.98401188 -206.60789644 281.27820167 -185.46875 300.7890625 C-174.13442524 309.80209193 -161.66972413 312.28538781 -147.46875 310.7890625 C-138.474995 309.13231816 -131.46902355 305.61021196 -124.46875 299.7890625 C-123.84484375 299.27730469 -123.2209375 298.76554687 -122.578125 298.23828125 C-101.0600752 278.70725857 -96.06024451 241.70875719 -94.67749023 214.29443359 C-94.59082874 212.12612751 -94.52493757 209.95837079 -94.46875 207.7890625 C-94.43587891 206.56678955 -94.43587891 206.56678955 -94.40234375 205.31982422 C-93.60124039 169.81091772 -95.61750877 126.53148145 -119.96875 98.2890625 C-128.33778331 89.56237819 -138.06739478 83.21820835 -150.4453125 82.5859375 C-167.07332564 82.30307509 -179.49536428 85.71146894 -191.30859375 98.19140625 Z " fill="#F5A474" transform="translate(1282.46875,1137.2109375)"/>
<path d="M0 0 C1.53598817 1.31584655 3.05834006 2.64788511 4.5625 4 C5.17351562 4.51820312 5.78453125 5.03640625 6.4140625 5.5703125 C19.52868029 17.4872483 26.72894202 35.76158364 27.7490679 53.18685865 C27.82169201 56.75986983 27.8339387 60.32805515 27.82319641 63.90179443 C27.82622291 65.27828307 27.83011487 66.65477003 27.83478898 68.03125405 C27.84501379 71.78559707 27.84290133 75.539844 27.83860838 79.2941947 C27.83613104 83.35432288 27.84516785 87.41442853 27.85264587 91.47454834 C27.86536746 99.41835859 27.8671897 107.36213499 27.86484561 115.30595371 C27.86305926 121.76676033 27.86481888 128.22755672 27.86907005 134.68836212 C27.86966524 135.60951154 27.87026043 136.53066096 27.87087366 137.479724 C27.87208547 139.35133916 27.8732996 141.22295432 27.87451603 143.09456947 C27.88538202 160.6304344 27.88323368 178.16628008 27.87713119 195.70214608 C27.87196422 211.72185666 27.88321335 227.74150639 27.90222941 243.76120493 C27.92163226 260.23382212 27.92985943 276.70641056 27.92610615 293.17903924 C27.92419765 302.41765613 27.92664729 311.65622126 27.94082069 320.8948288 C27.95276678 328.76085826 27.95410341 336.6268041 27.94203053 344.49283478 C27.93616411 348.50080123 27.9349799 352.50861499 27.94703293 356.51657104 C27.95796769 360.19565498 27.95469948 363.87446012 27.94077124 367.55353144 C27.93691432 369.49344108 27.9476091 371.43336347 27.95906812 373.37324309 C27.82721066 395.08318661 20.73199047 413.47115484 5.8125 429.3125 C-10.10552891 444.46784128 -29.58107034 449.7167956 -50.921875 449.3046875 C-71.56799749 448.45206606 -88.01701573 438.24606145 -101.70703125 423.56640625 C-114.96632429 408.12680881 -118.59142163 390.32017409 -118.57794189 370.57922363 C-118.58052822 369.20618847 -118.58354213 367.83315406 -118.5869453 366.46012068 C-118.59498728 362.69676587 -118.5968033 358.93343017 -118.59754276 355.17006779 C-118.59939824 351.10714777 -118.60694813 347.04423756 -118.61367798 342.98132324 C-118.62724255 334.10084989 -118.63328328 325.22038105 -118.63768864 316.33989906 C-118.64045459 310.79031402 -118.64469263 305.24073072 -118.64919281 299.69114685 C-118.66138371 284.31332763 -118.67168293 268.9355098 -118.6750679 253.55768585 C-118.67528747 252.57402297 -118.67550703 251.59036009 -118.67573325 250.57688925 C-118.67595153 249.59092521 -118.67616981 248.60496117 -118.6763947 247.58911943 C-118.67683816 245.591314 -118.67728472 243.59350856 -118.67773438 241.59570312 C-118.6779558 240.60473096 -118.67817723 239.61375879 -118.67840537 238.59275717 C-118.6823507 222.54692946 -118.69979744 206.50114725 -118.7230939 190.45533711 C-118.74684195 173.9647703 -118.75927135 157.47422628 -118.76043582 140.9836421 C-118.76135071 131.73154694 -118.76705598 122.47951103 -118.78525543 113.22743225 C-118.80070319 105.34667241 -118.80574946 97.46599013 -118.79751733 89.58521801 C-118.79362713 85.56917417 -118.79445998 81.55328632 -118.80857468 77.53726196 C-118.8214124 73.85062339 -118.8200308 70.16425641 -118.80798396 66.47761768 C-118.80513468 64.53353586 -118.81688753 62.5894489 -118.82940602 60.64540529 C-118.70904077 38.9279504 -111.61174307 20.53389143 -96.6875 4.6875 C-87.73860776 -3.83261997 -77.13960026 -9.26560883 -65.4375 -13 C-64.66664062 -13.24621094 -63.89578125 -13.49242187 -63.1015625 -13.74609375 C-41.47545073 -19.24747306 -17.40954056 -13.54950668 0 0 Z " fill="#83B6C7" transform="translate(1737.4375,66)"/>
<path d="M0 0 C1.62748169 0.00858032 1.62748169 0.00858032 3.2878418 0.01733398 C23.70464766 0.46620447 40.73680445 9.14347432 54.99609375 23.734375 C59.07095928 28.46852677 62.18018504 33.61138653 65.0625 39.125 C65.53852661 40.00973999 65.53852661 40.00973999 66.02416992 40.91235352 C74.2858013 57.60280302 73.39508583 75.58933957 73.33539867 93.69803572 C73.32627004 97.80173814 73.34035625 101.9053748 73.35131836 106.00906372 C73.36902558 114.02809654 73.36529859 122.04697888 73.3536678 130.06601739 C73.34460286 136.58820334 73.34342265 143.11034738 73.34776306 149.63253784 C73.34837599 150.56382254 73.34898893 151.49510723 73.34962043 152.45461267 C73.35089944 154.34700244 73.3521963 156.23939219 73.3535108 158.13178194 C73.36489375 175.84131448 73.35183885 193.55076396 73.33030933 211.26028287 C73.31244044 226.42779525 73.31554519 241.59518514 73.33398438 256.76269531 C73.35543156 274.41254089 73.36379533 292.06231381 73.35153532 309.7121706 C73.35026124 311.59726778 73.34900375 313.48236496 73.34776306 315.36746216 C73.34683741 316.75840927 73.34683741 316.75840927 73.34589306 318.17745632 C73.34245168 324.6853692 73.34824223 331.19323567 73.35768127 337.70114136 C73.36894551 345.64134572 73.36576878 353.58139209 73.3445583 361.52157855 C73.33410705 365.56619245 73.32982367 369.61054373 73.34315491 373.65515518 C73.42090006 399.44455779 71.94650678 421.3268278 53.8125 441.5 C53.03519531 442.41652344 53.03519531 442.41652344 52.2421875 443.3515625 C43.37943271 453.10504641 31.26870831 458.90657263 18.8125 462.5 C17.57306641 462.86738281 17.57306641 462.86738281 16.30859375 463.2421875 C-1.65536819 467.6799852 -21.0787137 463.71253717 -37.02734375 454.9375 C-54.44874989 444.38203373 -66.11807336 428.84323207 -71.5 409.1875 C-73.13149057 400.43677785 -73.33413066 391.91321913 -73.32794189 383.03526306 C-73.33052995 381.68183847 -73.33354433 380.32841465 -73.3369453 378.97499186 C-73.3449668 375.27509416 -73.34680214 371.57521591 -73.34754276 367.87531054 C-73.34940181 363.8771651 -73.35695336 359.87902956 -73.36367798 355.88088989 C-73.37722716 347.14715738 -73.38328064 338.41342948 -73.38768864 329.67968822 C-73.39045676 324.2202048 -73.39469514 318.76072315 -73.39919281 313.30124092 C-73.41138086 298.16782588 -73.42168119 283.03441224 -73.4250679 267.90099239 C-73.42528747 266.93348937 -73.42550703 265.96598635 -73.42573325 264.96916506 C-73.42606067 263.5145586 -73.42606067 263.5145586 -73.4263947 262.03056616 C-73.42683816 260.06570621 -73.42728472 258.10084627 -73.42773438 256.13598633 C-73.4279558 255.16136055 -73.42817723 254.18673477 -73.42840537 253.18257488 C-73.43235121 237.39944387 -73.44980076 221.61635909 -73.4730939 205.83324593 C-73.49684817 189.60590383 -73.5092716 173.3785849 -73.51043582 157.15122515 C-73.51135027 148.04947518 -73.51704455 138.94778547 -73.53525543 129.84605217 C-73.55071152 122.0941933 -73.55574454 114.34241332 -73.54751733 106.59054195 C-73.54363028 102.6411931 -73.54444435 98.69200285 -73.55857468 94.74267387 C-73.65452603 66.25607027 -71.90778308 41.76805583 -51.3125 20.125 C-37.26081778 6.7248641 -19.29866466 -0.1198298 0 0 Z " fill="#83B6C7" transform="translate(456.1875,43.5)"/>
</svg>
